<?xml version="1.0" encoding="utf-8"?>
<!-- Generator: Adobe Illustrator 28.0.0, SVG Export Plug-In . SVG Version: 6.00 Build 0)  -->
<svg version="1.1" id="Calque_1" xmlns="http://www.w3.org/2000/svg" xmlns:xlink="http://www.w3.org/1999/xlink" x="0px" y="0px"
	 viewBox="0 0 887.4 624.7" enable-background="new 0 0 887.4 624.7" xml:space="preserve">
<g>
	<path id="path187254" fill="#00BCBC" d="M451.8,140.2c-52,0-98.7,28.8-117.9,72.6c-25.3-9.2-52-14-78.9-14.1
		c-61.8,0-121,24.5-164.7,68.2c-77.3,87-73.5,160-35.2,251.8c-34,19.8-54.9,56.2-55,95.6c0,3.4,0.2,6.8,0.5,10.1h796.8
		c-2.2-28.4-12.9-55.5-30.5-77.9c12.9-20.7,19.8-44.5,19.8-68.9c-0.1-50.8-29.6-97-75.7-118.4c6.6-15.6,10.1-32.3,10.1-49.2
		c0-33.3-13.2-65.3-36.8-88.9c-23.6-23.6-55.6-36.8-88.9-36.8c-13.1,0.1-26.1,2.1-38.5,6.2C533,159,493.8,140.2,451.8,140.2
		L451.8,140.2z"/>
	<g id="XMLID_00000067220695523082256630000012710001861542085765_">
		<g id="XMLID_00000024003639285287514060000015965898667878513058_">
			<path id="XMLID_00000044891244385989286900000013965952603395658389_" fill="#007171" d="M216.3,152.1c0,0,12-22.5,37.9-15.6
				c23,6.1,31.4,38.1,31.4,38.1s-16.8-10.4-18.4-10.9l-0.3-6.4l-1.5,5.8c0,0-14.6-6.5-15.9-6.6l-0.6-6.8l-2,6.1l-11.6-0.9l-0.2-4.7
				l-1.8,3.8L216.3,152.1z"/>
			<path id="XMLID_00000046310469234563339400000016774269167703030935_" fill="#007171" d="M217.5,149.9c0,0,25,2.8,34.2,19.5
				c9.3,16.7-6.4,44.7-6.4,44.7s0.5-12.5-0.5-16.8l3.2-3.5l-4.2,0.9c0,0-4.8-11.5-6.8-14.1l2.1-3.1l-3.4,1.8c0,0-5.7-7.8-9.9-11.4
				l-9-7.1L217.5,149.9z"/>
			<path id="XMLID_00000151532842121113925800000018124576060011834782_" fill="#007171" d="M222.7,156.8l-8.8-6.1
				c0,0-25.9,1.3-34.7,17.1c-8.9,15.9,0.4,41.2,0.4,41.2s4-16,6.9-19.4l-3-0.7l4.6-2c0,0,6.7-12.2,10.3-14.2l-5.6-1.8l7.4-0.7
				c0,0,7.9-10.7,14-10.4C220.4,160.1,222.7,156.8,222.7,156.8z"/>
			<path id="XMLID_00000180339676099703973340000018190310597069703859_" fill="#007171" d="M219.5,149.9c0,0,9-21-0.7-32.2
				c-9.7-11.2-44.4-6.2-44.4-6.2s15.9,5,21.5,13.4l7.3-0.8l-4.6,3.2l6.4,6.5l6.6-1.7l-4.3,5.3c0,0,8.6,5,9.7,16.3l1.3,1.6
				L219.5,149.9z"/>
			<path id="XMLID_00000152243586455017844950000010843104533623499174_" fill="#007171" d="M217.7,150.9c0,0-13.1-19.5-29.6-21.3
				c-16.5-1.8-34.7,16.5-37.7,34.7l17.1-9.5l1.3-5.3l2.8,4.8l7.6-1.9l0.8-7.3l2.4,6l11.8-0.1l1.3-5.4l-0.3,6c0,0,13.8-0.4,21.9,4.9
				L217.7,150.9z"/>
		</g>
		<path id="XMLID_00000096022426289848921160000004075172445367970981_" fill="#007171" d="M210.9,150.5c0,0-20.4,89.2-13.9,194
			c4,64.7,29.4,218,56.9,279.5l20.1-0.6c0,0-92-261-55-471.8L210.9,150.5z"/>
	</g>
	<g id="XMLID_00000114040062559414572460000003940221990149436351_" opacity="0.9">
		<g id="XMLID_00000168811740860387286900000017194037727155292809_">
			<path id="XMLID_00000155837207171808353410000013000372874953606309_" fill="#008694" d="M113.9,71.2c0,0-26.7-19.8-53.4,2.8
				c-23.7,20.1-15.7,62.5-15.7,62.5s14-21.6,15.6-23.2l-3.2-7.7l5,6c0,0,13.5-15.8,15-16.6l-3.1-8.3l5.8,6L93,85l-2.4-5.7l4.3,3.5
				L113.9,71.2z"/>
			<path id="XMLID_00000099621614256928591350000005287804757318473112_" fill="#008694" d="M111.3,69.4c0,0-27.9,17.3-29.4,42.2
				c-1.6,24.9,32.5,49,32.5,49s-7.6-14.4-8.8-20.1l-5.7-2.3l5.4-1.3c0,0-0.8-16.3,0.2-20.4l-4.2-2.5l5,0.2c0,0,2.3-12.4,5.3-19
				l6.6-13.4L111.3,69.4z"/>
			<path id="XMLID_00000066497047285769989340000017923116857524346508_" fill="#008694" d="M108.9,80.4l6.9-12.1
				c0,0,31.2-13,50.5,0.8c19.3,13.8,22.6,48.8,22.6,48.8s-13.7-16.6-18.9-19l3.2-2.5l-6.6,0.2c0,0-14.8-10.7-20.1-11l5.5-5.3
				l-9.1,3.3c0,0-15.2-8.2-22.3-4.4C113.5,83,108.9,80.4,108.9,80.4z"/>
			<path id="XMLID_00000020358261042613806180000010738291460824271537_" fill="#008694" d="M108.9,70.5c0,0-22.3-19.7-17.2-38.4
				C96.8,13.5,140.6,0,140.6,0s-16,14.9-17.9,27.9l-9,3.1l7.2,1.2l-4,11.3l-8.7,1.6l8,3.8c0,0-7.3,10.6-2.3,24.7l-0.7,2.6
				L108.9,70.5z"/>
			<path id="XMLID_00000109024616889833703680000001351203897967004092_" fill="#008694" d="M111.6,70.6c0,0,4.5-30.4,22.9-41.6
				c18.4-11.3,50.1,0,63.8,19.8L172.9,47l-4.4-5.5l-0.6,7.3l-10,2l-5.1-8.2l0.5,8.4l-14,6.5l-4.5-5.7l3.7,6.9
				c0,0-16.4,7.2-23.1,18.1L111.6,70.6z"/>
		</g>
		<path id="XMLID_00000061446827204890961140000017397547056826209716_" fill="#008694" d="M119.3,66.4c0,0,73.9,93.7,124.9,220.8
			c31.5,78.5,68.3,247.6,70.3,335.4l-23.8,1.9c0,0-18.8-324.6-180.4-552.3L119.3,66.4z"/>
	</g>
	<g id="XMLID_00000037684364639423623930000001415474004141947296_">
		<g id="XMLID_00000013175952793652029080000007699079311804974979_">
			<path id="XMLID_00000093141872970197923260000015656851923407514252_" fill="#007171" d="M79.8,336.6c0,0-13.6-11.9-29-0.8
				c-13.7,9.8-11.2,33.1-11.2,33.1s8.5-11.1,9.5-11.9l-1.4-4.3l2.4,3.5c0,0,8-8,8.9-8.3l-1.3-4.7l2.9,3.5l7.4-3.5l-1-3.2l2.2,2.1
				L79.8,336.6z"/>
			<path id="XMLID_00000168810822614204284980000014253930539876253607_" fill="#007171" d="M78.5,335.4c0,0-15.8,8.1-17.8,21.5
				c-1.9,13.4,15.5,28,15.5,28s-3.5-8.1-3.9-11.3l-3-1.5l3-0.5c0,0,0.3-8.8,1-11l-2.2-1.5l2.7,0.3c0,0,1.8-6.6,3.7-10l4.2-7
				L78.5,335.4z"/>
			<path id="XMLID_00000065753948425976818340000015289625099369110422_" fill="#007171" d="M76.7,341.3l4.3-6.3
				c0,0,17.5-5.7,27.3,2.6c9.9,8.3,10.1,27.4,10.1,27.4s-6.7-9.6-9.4-11.1l1.8-1.2l-3.6-0.2c0,0-7.5-6.4-10.4-6.8l3.2-2.6l-5.1,1.4
				c0,0-7.9-5.1-11.9-3.4C79.1,342.9,76.7,341.3,76.7,341.3z"/>
			<path id="XMLID_00000132777251056295513560000006946622376071432871_" fill="#007171" d="M77.1,335.9c0,0-11.2-11.6-7.6-21.5
				c3.6-9.9,27.8-15.3,27.8-15.3s-9.3,7.3-10.9,14.3l-5,1.3l3.9,1l-2.6,5.9l-4.8,0.5l4.2,2.4c0,0-4.4,5.4-2.3,13.3l-0.5,1.4
				L77.1,335.9z"/>
			<path id="XMLID_00000047773792489904192260000014728347954833298074_" fill="#007171" d="M78.6,336.1c0,0,3.8-16.2,14.2-21.5
				s27.1,2.2,33.7,13.5l-13.7-2l-2.2-3.2l-0.7,3.9l-5.5,0.6l-2.4-4.7l-0.1,4.6l-7.9,2.9l-2.2-3.3l1.7,3.9c0,0-9.2,3.2-13.3,8.8
				L78.6,336.1z"/>
		</g>
		<path id="XMLID_00000085221408776550519000000004968640731032871589_" fill="#007171" d="M83,334.2c0,0,35.9,54,58,125
			c13.6,43.9,26.7,92.2,23.9,139.8l-13.1,1.5c0,0,3.6-133.1-73.9-263.5L83,334.2z"/>
	</g>
	<g id="XMLID_00000035510677679217921040000000288691371583963066_" opacity="0.9">
		<g id="XMLID_00000106123444412368782630000003537914293589375916_">
			<path id="XMLID_00000090262173970319606340000014901955339451769488_" fill="#008694" d="M106.5,259.4c0,0-15.8-11.3-31.1,2.2
				c-13.6,12-8.4,36.7-8.4,36.7s7.9-12.8,8.8-13.7l-2-4.5l3,3.5c0,0,7.7-9.4,8.6-9.9l-1.9-4.8l3.4,3.5l7.6-4.6l-1.4-3.3l2.6,2
				L106.5,259.4z"/>
			<path id="XMLID_00000145758098110881148820000005507664870837988232_" fill="#008694" d="M104.9,258.4c0,0-16.1,10.4-16.7,25
				c-0.6,14.5,19.6,28.3,19.6,28.3s-4.6-8.3-5.4-11.6l-3.4-1.3l3.1-0.8c0,0-0.6-9.5-0.1-11.9l-2.5-1.4l2.9,0.1c0,0,1.2-7.2,2.9-11.1
				l3.7-7.9L104.9,258.4z"/>
			<path id="XMLID_00000168819687002516881830000003980634935638603671_" fill="#008694" d="M103.7,264.8l3.9-7.2
				c0,0,18.1-8,29.5-0.1c11.4,7.8,13.7,28.3,13.7,28.3s-8.2-9.5-11.3-10.9l1.8-1.5l-3.8,0.2c0,0-8.7-6-11.9-6.2l3.2-3.2l-5.3,2.1
				c0,0-9-4.6-13.1-2.3C106.4,266.3,103.7,264.8,103.7,264.8z"/>
			<path id="XMLID_00000095325771598225985900000004364374348063916708_" fill="#008694" d="M103.6,259c0,0-13.2-11.2-10.5-22.2
				c2.8-11,28.1-19.3,28.1-19.3s-9.1,8.9-10.1,16.5l-5.2,1.9l4.2,0.6l-2.2,6.6l-5.1,1l4.7,2.1c0,0-4.1,6.3-1,14.4l-0.4,1.5
				L103.6,259z"/>
			<path id="XMLID_00000108276888211512276640000016097209880492394938_" fill="#008694" d="M105.1,259.1c0,0,2.3-17.8,12.9-24.6
				c10.6-6.8,29.3-0.6,37.5,10.8l-14.9-0.7l-2.7-3.2l-0.3,4.3l-5.8,1.3l-3.1-4.7l0.4,4.9l-8.1,4l-2.7-3.3l2.2,4
				c0,0-9.5,4.4-13.3,10.8L105.1,259.1z"/>
		</g>
		<path id="XMLID_00000057863207169374351600000011509950251690851507_" fill="#008694" d="M109.6,256.5c0,0,44.2,53.9,75.5,127.5
			c19.3,45.5,45.1,187.5,47.3,238.7l-14.3,1.2c0,0-16.7-232.8-113.7-363.9L109.6,256.5z"/>
	</g>
	<g id="XMLID_00000106843735384075432290000005075539748444973712_">
		<g id="XMLID_00000096018615049778303050000011661762476145068703_">
			<path id="XMLID_00000121254878803458555120000000245355946084659376_" fill="#007171" d="M126.8,156.4c0,0-19.3-27.1-51.6-13.9
				C46.4,154.3,41,197.1,41,197.1s20-16.2,22-17.2l-0.7-8.3l2.9,7.3c0,0,17.7-10.8,19.4-11.2l-0.3-8.9l3.6,7.5l14.8-3.2l-0.5-6.1
				l3,4.6L126.8,156.4z"/>
			<path id="XMLID_00000105412482194209970710000013446138869835173506_" fill="#007171" d="M124.8,153.8c0,0-31.8,7.8-41,31
				c-9.2,23.2,15.8,56.7,15.8,56.7s-2.8-16.1-2.1-21.8l-4.7-4l5.5,0.5c0,0,4.3-15.7,6.5-19.3l-3.2-3.7l4.7,1.8c0,0,6-11,10.9-16.4
				l10.5-10.7L124.8,153.8z"/>
			<path id="XMLID_00000142136943553313761980000006702923324849689002_" fill="#007171" d="M119.2,163.6l10.3-9.4
				c0,0,33.7-2.7,47.8,16.3c14.1,19.1,6.3,53.4,6.3,53.4s-7.9-20-12.1-24l3.8-1.4l-6.3-1.8c0,0-10.7-14.7-15.7-16.7l6.9-3.3
				l-9.7,0.4c0,0-11.9-12.5-19.9-11.1C122.7,167.5,119.2,163.6,119.2,163.6z"/>
			<path id="XMLID_00000008112511780727639040000014919719932356129169_" fill="#007171" d="M122.3,154.2c0,0-15.1-25.6-4.5-41.8
				c10.6-16.2,56.4-15.5,56.4-15.5s-19.8,9.2-25.6,21l-9.6,0.2l6.5,3.4l-7.2,9.5l-8.8-1.2l6.5,6.1c0,0-10.2,7.9-9.8,22.8l-1.5,2.3
				L122.3,154.2z"/>
			<path id="XMLID_00000034810642391836564850000011190401097077580435_" fill="#007171" d="M124.8,155.1c0,0,13.7-27.5,34.7-32.5
				c21-5,47.7,15.5,54.6,38.6l-23.7-9.5l-2.5-6.6l-2.9,6.7l-10.1-1.2l-2.3-9.4l-2.1,8.1l-15.3,1.8l-2.5-6.8l1.3,7.7
				c0,0-17.9,1.8-27.5,10L124.8,155.1z"/>
		</g>
		<path id="XMLID_00000129892599993676910820000007601733962111162303_" fill="#007171" d="M133.4,153.5c0,0,41.3,112,50.5,248.6
			c5.7,84.4,19.3,138.3-5.9,222.4l-23.7-0.6c0,0,52-201.2-31.3-467.7L133.4,153.5z"/>
	</g>
	<g>
		<path opacity="0.47" fill="#83D2CC" d="M855.1,624.7c-46.1,0-718.3,0.2-718.7-1.1l-0.1-0.2c0,0-0.1-0.2-0.1-0.2
			c-0.3-0.6-103.6-176.9,57-299.6c62.8-48-3.9-79.7,46-133.1c57.4-61.4,120.1,6.5,184-21.3c11.3-4.9,22.6-12.8,33.9-25
			c6.4-6.8,13.4-12.8,20.9-18c1.1-0.8,2.3-1.6,3.5-2.3c4.5-2.9,9.1-5.5,13.9-7.8c3.2-1.6,6.5-3,9.8-4.4h0c5.3-2.1,10.7-4,16.3-5.5
			c7.9-2.2,16-3.8,24.3-4.9c3.6-0.5,7.3-0.9,10.9-1.2c71.4-5.6,151.7,25.7,193.1,71.4c8.3,9.2,46.3,56.9,16.4,122.3
			c-18.9,41.3,60.2,80.8,88.3,128C926.1,542,855.8,623.1,855.1,624.7z"/>
	</g>
	<g>
		<g opacity="0.3">
			<g>
				<path fill="#007171" d="M630.5,309.9c-26.1-4.5-49.7-29.5-70.1-74.3c-27.4-60.2-65.8-93.9-93.2-111.6
					c-33-21.3-63.5-28.3-79.2-25.8l-0.1-0.7c15.8-2.5,46.6,4.6,79.7,25.9c27.5,17.7,66,51.6,93.5,111.9
					c20.3,44.6,43.7,69.5,69.6,73.9c0.5,0.1,1,0.2,1.5,0.2c25.9,3.6,54.8-13,85.8-49.3c33.6-39.4,69.8-60.9,102-60.6
					c23,0.2,43.7,11.3,61.5,33l-0.5,0.4c-17.7-21.5-38.2-32.5-61-32.7c-32-0.3-68.1,21.2-101.5,60.4c-31.2,36.6-60.3,53.2-86.4,49.6
					C631.5,310.1,631,310,630.5,309.9z"/>
			</g>
			<g>
				<path fill="#007171" d="M634.8,319.2c-27.7-4.8-52.6-31.2-74.3-78.7c-27.2-59.8-65.6-91.3-92.9-107.3
					c-31.7-18.5-62.5-24.1-78.9-21.5l-0.1-0.7c16.6-2.6,47.5,3.1,79.4,21.6c27.4,16,65.9,47.7,93.2,107.6
					c21.5,47.3,46.3,73.6,73.7,78.3c0.5,0.1,1.1,0.2,1.6,0.3c25.9,3.6,53.5-11.6,82.1-45.1c33.6-39.4,69.8-60.9,102-60.6
					c23,0.2,43.7,11.3,61.5,33l-0.5,0.4c-17.7-21.5-38.2-32.5-61-32.7c-32-0.3-68.1,21.2-101.5,60.4c-28.8,33.8-56.6,49-82.8,45.4
					C635.9,319.3,635.3,319.3,634.8,319.2z"/>
			</g>
			<g>
				<path fill="#007171" d="M639.3,328.8c-29.2-5-55.7-33.1-78.6-83.4c-51.1-112.2-143.1-124.7-171.3-120.3l-0.1-0.7
					c28.3-4.5,120.8,8.1,172,120.6c22.8,50.1,49.1,78,78.1,83c0.6,0.1,1.1,0.2,1.7,0.3c25.2,3.5,52.2-10.7,78.3-41.3
					c33.6-39.4,69.8-60.9,102-60.6c23,0.2,43.7,11.3,61.5,33l-0.5,0.4c-17.7-21.5-38.2-32.5-61-32.7c-32-0.3-68.1,21.2-101.5,60.4
					c-26.2,30.7-53.5,45.1-78.9,41.5C640.5,329,639.9,328.9,639.3,328.8z"/>
			</g>
			<g>
				<path fill="#007171" d="M644,338.8c-14.4-2.5-28.5-10.5-41.7-24c-14.8-14.9-28.7-36.6-41.4-64.5c-21.6-47.4-52.6-80.6-92.3-98.7
					c-30.4-13.9-60.4-15.8-78.4-13l-0.1-0.7c18.1-2.8,48.2-0.9,78.8,13c39.8,18.2,71,51.5,92.7,99c12.7,27.8,26.5,49.4,41.2,64.3
					c13.2,13.3,27.1,21.3,41.4,23.8c0.6,0.1,1.2,0.2,1.7,0.3c24.6,3.5,50.3-9.6,74.3-37.7c33.6-39.4,69.8-60.9,102.1-60.6
					c23,0.2,43.7,11.3,61.5,33l-0.5,0.4c-17.7-21.5-38.2-32.5-61-32.7c-32-0.3-68.1,21.2-101.5,60.4c-24.2,28.3-50.1,41.5-74.9,38
					C645.2,339,644.6,338.9,644,338.8z"/>
			</g>
			<g>
				<path fill="#007171" d="M648.8,349.1c-31.9-5.5-62.2-37.9-87.7-93.9c-51.2-112.4-143.2-107.3-170.2-103.1l-0.1-0.7
					c12.1-1.9,43.9-4.9,78.5,8.7c39.8,15.6,70.9,47.5,92.4,94.7c25.4,55.8,55.5,88.1,87.2,93.5c0.6,0.1,1.2,0.2,1.8,0.3
					c23.8,3.3,48.1-8.6,70.2-34.6c33.6-39.4,69.8-60.9,102-60.6c23,0.2,43.7,11.3,61.5,33l-0.5,0.4c-17.7-21.5-38.2-32.5-61-32.7
					c-32-0.3-68.1,21.2-101.5,60.4c-22.3,26.1-46.8,38.2-70.8,34.8C650,349.3,649.4,349.2,648.8,349.1z"/>
			</g>
			<g>
				<path fill="#007171" d="M653.6,359.8c-33.3-5.7-65.2-40.1-92.3-99.7c-34.2-75-91.2-106.8-169.6-94.4l-0.1-0.7
					c18.8-3,47.3-5.7,78.2,4.4c39.7,13,70.8,43.4,92.2,90.4c27,59.3,58.7,93.6,91.8,99.3c0.6,0.1,1.2,0.2,1.8,0.3
					c22.8,3.2,45.7-7.8,66.1-31.7c33.6-39.4,69.8-60.9,102-60.6c23,0.2,43.7,11.3,61.5,33l-0.5,0.4c-17.7-21.5-38.2-32.5-61-32.7
					c-32-0.3-68.1,21.2-101.5,60.4c-20.6,24.1-43.7,35.2-66.8,32C654.8,360,654.2,359.9,653.6,359.8z"/>
			</g>
			<g>
				<path fill="#007171" d="M658.3,370.7c-16.5-2.8-32.9-12.8-48.8-29.7c-17.1-18.1-33.2-43.7-48-76.1
					c-48.1-105.5-130.4-92.1-165.6-86.4c-1.2,0.2-2.4,0.4-3.5,0.6l-0.1-0.7c1.1-0.2,2.2-0.4,3.5-0.6c17.4-2.8,46.5-7.6,77.8,1.6
					c38.1,11.1,67.9,39.8,88.5,85.2c14.7,32.3,30.8,57.9,47.9,75.9c16.4,17.4,33.3,27.4,50.2,29.7c21.8,3.1,43.3-7,62.2-29.2
					c33.6-39.4,69.8-60.9,102-60.6c23,0.2,43.7,11.3,61.5,33l-0.5,0.4c-17.7-21.5-38.2-32.5-61-32.7c-32-0.3-68.1,21.2-101.5,60.4
					c-19,22.3-40.8,32.5-62.8,29.4C659.5,370.9,658.9,370.8,658.3,370.7z"/>
			</g>
			<g>
				<path fill="#007171" d="M663,382c-35.2-6-71.1-45.7-101.3-112.1C516,169.6,439,184.1,402,191.1c-3.4,0.6-6.3,1.2-8.8,1.6
					L393,192c2.6-0.4,5.5-1,8.8-1.6c37.2-7,114.5-21.6,160.4,79.2c30.1,66.1,65.8,105.7,100.8,111.7c0.6,0.1,1.2,0.2,1.7,0.3
					c21,2.9,40.6-6.1,58.3-26.9c33.6-39.4,69.8-60.9,102-60.6c23,0.2,43.7,11.3,61.5,33l-0.5,0.4c-17.7-21.5-38.2-32.5-61-32.7
					c-32-0.3-68.1,21.2-101.5,60.4c-17.9,21-37.7,30.1-58.9,27.2C664.1,382.2,663.6,382.1,663,382z"/>
			</g>
			<g>
				<path fill="#007171" d="M667.4,393.5c-36-6.2-73.4-48.2-105.5-118.7c-43.9-96.4-116-80.1-154.7-71.4c-5.1,1.2-9.5,2.2-13.2,2.7
					l-0.1-0.7c3.7-0.6,8.1-1.6,13.2-2.7c18.7-4.2,46.9-10.6,75.5-3.7c34,8.2,61,33.6,80,75.5c32,70.2,69.2,112.1,105,118.3
					c0.6,0.1,1.1,0.2,1.7,0.3c19.8,2.8,38.2-5.6,54.7-24.9c33.6-39.4,69.8-60.9,102-60.6c23,0.2,43.7,11.3,61.5,33l-0.5,0.4
					c-17.7-21.5-38.2-32.5-61-32.7c-32-0.3-68.1,21.2-101.5,60.4c-16.6,19.5-35.2,28-55.3,25.1C668.5,393.7,668,393.6,667.4,393.5z"
					/>
			</g>
		</g>
		<g>
			<path fill="#007171" d="M756.5,272.8c3.1,2.9,2.4,8.5-1.4,12.6c-3.8,4.1-9.4,5-12.4,2.2c-3-2.9-2.4-8.5,1.4-12.6
				C747.9,270.9,753.5,269.9,756.5,272.8z"/>
			<g>
				
					<rect x="745.2" y="224.8" transform="matrix(0.9219 -0.3874 0.3874 0.9219 -39.048 308.8173)" fill="#007171" width="2.7" height="52.9"/>
			</g>
		</g>
		<g>
			<path fill="#007171" d="M560.9,225.1c0-1.9,2-3.4,4.5-3.5c2.5,0,4.6,1.5,4.6,3.4c0,1.9-2,3.4-4.5,3.5
				C563,228.5,560.9,226.9,560.9,225.1z"/>
			<g>
				
					<rect x="545.2" y="234.4" transform="matrix(0.3957 -0.9184 0.9184 0.3957 120.8469 653.619)" fill="#007171" width="23.8" height="1.2"/>
			</g>
		</g>
		<g>
			<path fill="#007171" d="M481,145c1,2.2-0.5,5.1-3.4,6.4c-2.9,1.4-6.1,0.7-7.2-1.5c-1-2.2,0.5-5.1,3.4-6.5
				C476.8,142.1,480,142.8,481,145z"/>
			<g>
				<path fill="#007171" d="M480.3,147.8c-0.4-0.1-0.6-0.4-0.7-0.8l-0.6-30.6c0-0.4,0.3-0.8,0.8-0.8c0.4,0,0.8,0.3,0.8,0.8l0.6,30.6
					c0,0.4-0.3,0.8-0.8,0.8C480.4,147.8,480.4,147.8,480.3,147.8z"/>
			</g>
			<g>
				<path fill="#007171" d="M489.8,129.7c0,0-0.1,0-0.1,0c-0.4-0.1-0.6-0.6-0.5-1c1.1-3.2-1.8-5.2-4.9-7.1l-0.6-0.4
					c-3.3-2-4.2-3.2-4.6-4.8c-0.1-0.4,0.1-0.9,0.5-1c0.4-0.1,0.9,0.1,1,0.5c0.3,1,0.8,2,3.9,3.9l0.6,0.3c2.5,1.5,7.3,4.3,5.6,9
					C490.6,129.5,490.2,129.7,489.8,129.7z"/>
			</g>
			<g>
				<path fill="#007171" d="M490,137c0,0-0.1,0-0.1,0c-0.4-0.1-0.6-0.6-0.5-1c1.1-3.2-1.8-5.2-4.9-7.1l-0.6-0.4
					c-3.3-2-4.2-3.2-4.6-4.8c-0.1-0.4,0.1-0.9,0.5-1c0.4-0.1,0.9,0.1,1,0.5c0.3,1,0.8,2,3.9,3.9l0.6,0.4c2.5,1.5,7.3,4.3,5.6,9
					C490.7,136.8,490.3,137,490,137z"/>
			</g>
		</g>
		<g>
			<path fill="#007171" d="M649.2,385c0.5,2.1-1.3,4.4-4,5.1c-2.8,0.7-5.5-0.4-6-2.4c-0.5-2.1,1.3-4.3,4-5.1
				C645.9,381.9,648.6,383,649.2,385z"/>
			<g>
				<path fill="#007171" d="M648.5,386.8c-0.4-0.1-0.6-0.4-0.6-0.8l5.4-32.8c0.1-0.4,0.5-0.6,0.8-0.6c0.4,0.1,0.6,0.4,0.6,0.8
					l-5.4,32.8C649.2,386.6,648.8,386.8,648.5,386.8C648.5,386.8,648.5,386.8,648.5,386.8z"/>
			</g>
			<g>
				<path fill="#007171" d="M660.6,366.8c-0.1,0-0.2,0-0.2-0.1c-0.3-0.2-0.4-0.6-0.3-1c1.5-2.6-0.7-4.9-3.2-7l-0.5-0.4
					c-2.6-2.3-3.1-3.5-3.3-4.9c0-0.4,0.2-0.7,0.6-0.8c0.4,0,0.7,0.2,0.8,0.6c0.1,0.9,0.4,1.8,2.8,4l0.5,0.4c2,1.7,5.6,4.9,3.4,8.7
					C661.2,366.7,660.9,366.8,660.6,366.8z"/>
			</g>
			<g>
				<path fill="#007171" d="M658.9,377.8c-0.1,0-0.2,0-0.2-0.1c-0.3-0.2-0.4-0.6-0.3-1c1.5-2.6-0.7-4.9-3.2-7l-0.5-0.4
					c-2.6-2.3-3.1-3.5-3.2-4.9c0-0.4,0.2-0.7,0.6-0.8c0.4,0,0.7,0.2,0.8,0.6c0.1,1,0.4,1.9,2.8,4l0.4,0.4c2,1.7,5.6,4.9,3.5,8.7
					C659.5,377.7,659.2,377.9,658.9,377.8z"/>
			</g>
			<g>
				<path fill="#007171" d="M658,383.2c-0.1,0-0.2,0-0.2-0.1c-0.3-0.2-0.4-0.6-0.3-1c1.5-2.6-0.7-4.9-3.2-7l-0.5-0.4
					c-2.6-2.3-3.1-3.5-3.2-4.9c0-0.4,0.2-0.7,0.6-0.8c0.4,0,0.7,0.2,0.8,0.6c0.1,0.9,0.4,1.8,2.8,4l0.4,0.4c2,1.7,5.7,4.9,3.5,8.7
					C658.6,383.1,658.3,383.2,658,383.2z"/>
			</g>
			<g>
				<path fill="#007171" d="M659.8,372.1c-0.1,0-0.2,0-0.2-0.1c-0.3-0.2-0.4-0.6-0.3-1c1.5-2.6-0.9-5-3.2-7l-0.5-0.4
					c-2.6-2.3-3.1-3.5-3.2-4.9c0-0.4,0.2-0.7,0.6-0.8c0.4,0,0.7,0.2,0.8,0.6c0.1,1,0.4,1.9,2.8,4l0.4,0.4c2,1.7,5.7,4.9,3.5,8.7
					C660.4,372,660.1,372.2,659.8,372.1z"/>
			</g>
		</g>
		<g>
			<path fill="#007171" d="M784.2,331.1c2.2,3.4,0.4,8.5-4.1,11.4c-4.5,2.9-9.9,2.6-12.1-0.8c-2.2-3.4-0.3-8.5,4.1-11.4
				C776.5,327.4,782,327.7,784.2,331.1z"/>
			<g>
				<path fill="#007171" d="M783.5,334.6c-0.5-0.1-1-0.5-1.1-1.1l-10-61.5c-0.1-0.7,0.4-1.4,1.1-1.5c0.7-0.1,1.4,0.4,1.5,1.1
					l10,61.5c0.1,0.7-0.4,1.4-1.1,1.5C783.8,334.6,783.7,334.6,783.5,334.6z"/>
			</g>
			<g>
				<path fill="#007171" d="M793.2,291.7C793.2,291.7,793.2,291.7,793.2,291.7c-0.7-0.1-1.2-0.8-1.1-1.5c1.1-5.5-4.2-8.2-9.8-10.5
					l-1.1-0.5c-5.9-2.6-7.6-4.3-8.7-6.8c-0.3-0.7,0-1.4,0.7-1.7c0.7-0.3,1.4,0,1.7,0.7c0.7,1.6,1.7,3.1,7.4,5.5l1.1,0.4
					c4.5,1.9,12.9,5.4,11.3,13.4C794.5,291.4,793.9,291.9,793.2,291.7z"/>
			</g>
			<g>
				<path fill="#007171" d="M796.7,312.4C796.7,312.4,796.7,312.4,796.7,312.4c-0.7-0.1-1.2-0.8-1.1-1.5c1.1-5.5-4.2-8.2-9.8-10.5
					l-1.1-0.4c-5.9-2.6-7.6-4.3-8.7-6.8c-0.3-0.7,0-1.4,0.7-1.7c0.7-0.3,1.4,0,1.7,0.7c0.7,1.6,1.7,3.1,7.4,5.5l1,0.4
					c4.5,1.9,13,5.4,11.4,13.4C798.1,312.1,797.4,312.5,796.7,312.4z"/>
			</g>
			<g>
				<path fill="#007171" d="M798.3,322.5C798.3,322.5,798.3,322.5,798.3,322.5c-0.7-0.1-1.2-0.8-1.1-1.5c1.1-5.5-4.2-8.2-9.8-10.5
					l-1.1-0.4c-5.9-2.6-7.6-4.3-8.7-6.8c-0.3-0.7,0-1.4,0.7-1.7c0.7-0.3,1.4,0,1.7,0.7c0.7,1.6,1.7,3.1,7.4,5.5l1,0.4
					c4.5,1.9,13,5.4,11.4,13.4C799.7,322.2,799,322.6,798.3,322.5z"/>
			</g>
			<g>
				<path fill="#007171" d="M794.9,301.7C794.9,301.7,794.9,301.7,794.9,301.7c-0.7-0.1-1.2-0.8-1.1-1.5c1.1-5.5-4.2-8.2-9.8-10.5
					l-1.1-0.4c-5.9-2.6-7.6-4.3-8.7-6.8c-0.3-0.7,0-1.4,0.7-1.7c0.7-0.3,1.4,0,1.7,0.7c0.7,1.6,1.7,3.1,7.4,5.5l1,0.4
					c4.5,1.9,13,5.4,11.4,13.4C796.3,301.4,795.6,301.9,794.9,301.7z"/>
			</g>
		</g>
		<g>
			<path fill="#007171" d="M559.6,270.4c0.1,1.4-1.4,2.6-3.2,2.7c-1.9,0.1-3.4-0.9-3.5-2.3c-0.1-1.4,1.4-2.6,3.2-2.7
				C558,268,559.5,269,559.6,270.4z"/>
			<g>
				<path fill="#007171" d="M559,271.5C559,271.4,559,271.4,559,271.5c-0.3-0.1-0.4-0.4-0.3-0.6l7.7-20.1c0.1-0.2,0.3-0.3,0.6-0.3
					c0.2,0.1,0.3,0.4,0.3,0.6l-7.7,20.1C559.4,271.4,559.2,271.5,559,271.5z"/>
			</g>
			<g>
				<path fill="#007171" d="M569.4,260.4c-0.1,0-0.2-0.1-0.2-0.1c-0.2-0.2-0.2-0.5,0-0.6c1.3-1.4,0.2-3.2-1.1-4.8l-0.3-0.3
					c-1.3-1.8-1.5-2.6-1.4-3.6c0-0.2,0.3-0.4,0.5-0.4c0.2,0,0.4,0.3,0.4,0.5c-0.1,0.6,0,1.2,1.2,2.9l0.2,0.3c1,1.3,2.9,3.9,1,6
					C569.7,260.3,569.5,260.4,569.4,260.4z"/>
			</g>
			<g>
				<path fill="#007171" d="M566.8,267.1c-0.1,0-0.2-0.1-0.2-0.1c-0.2-0.2-0.2-0.5,0-0.6c1.3-1.4,0.2-3.2-1.1-4.8l-0.2-0.3
					c-1.3-1.8-1.5-2.6-1.4-3.6c0-0.2,0.3-0.4,0.5-0.4c0.2,0,0.4,0.3,0.4,0.5c-0.1,0.6,0,1.2,1.2,2.9l0.2,0.3c1,1.3,2.9,3.9,1,6
					C567.1,267.1,567,267.2,566.8,267.1z"/>
			</g>
			<g>
				<path fill="#007171" d="M568.1,263.6c-0.1,0-0.2-0.1-0.2-0.1c-0.2-0.2-0.2-0.5,0-0.6c1.3-1.4,0.2-3.2-1.1-4.8l-0.2-0.3
					c-1.3-1.8-1.5-2.6-1.4-3.6c0-0.2,0.3-0.4,0.5-0.4c0.3,0,0.4,0.3,0.4,0.5c-0.1,0.6,0,1.2,1.2,2.9l0.2,0.3c1,1.3,2.9,3.9,1,6
					C568.5,263.6,568.3,263.7,568.1,263.6z"/>
			</g>
		</g>
		<g>
			<path fill="#007171" d="M430.4,186.6c-0.8-2.7,1.5-5.7,5.1-6.8c3.6-1.1,7.1,0.3,7.9,2.9c0.8,2.7-1.5,5.7-5.1,6.8
				C434.7,190.6,431.2,189.3,430.4,186.6z"/>
			<g>
				<path fill="#007171" d="M426.4,221c-0.5-0.1-0.8-0.5-0.8-1l4.6-35.1c0.1-0.5,0.5-0.8,1-0.8c0.5,0,0.8,0.5,0.8,1l-4.6,35.1
					C427.4,220.7,427,221.1,426.4,221C426.5,221,426.5,221,426.4,221z"/>
			</g>
			<g>
				<path fill="#007171" d="M426.5,220.8c-0.1,0-0.1,0-0.2-0.1c-0.5-0.2-0.7-0.7-0.5-1.2c0.7-1.8,1.9-3,5.9-5l0.7-0.3
					c3.8-1.7,7.5-3.7,6.6-7.5c-0.1-0.5,0.2-1,0.7-1.1c0.5-0.1,1,0.2,1.1,0.7c1.3,5.6-4.5,8.2-7.6,9.6l-0.7,0.3c-3.9,1.8-4.5,2.8-5,4
					C427.3,220.6,426.9,220.9,426.5,220.8z"/>
			</g>
		</g>
		<g>
			<g>
				<path fill="#007171" d="M490.7,186.6c0.5,1.4-0.7,3.1-2.7,3.7c-1.9,0.6-3.9-0.1-4.3-1.5c-0.5-1.4,0.7-3.1,2.7-3.7
					C488.3,184.4,490.2,185.1,490.7,186.6z"/>
				<g>
					
						<rect x="481.5" y="177.2" transform="matrix(0.1085 -0.9941 0.9941 0.1085 260.9954 646.7775)" fill="#007171" width="19.2" height="1.4"/>
				</g>
			</g>
			<g>
				<path fill="#007171" d="M505.3,194.1c0.5,1.4-0.7,3.1-2.7,3.7c-1.9,0.6-3.9-0.1-4.3-1.5c-0.5-1.4,0.7-3.1,2.6-3.7
					C502.9,191.9,504.8,192.6,505.3,194.1z"/>
				<g>
					
						<rect x="496.1" y="184.5" transform="matrix(0.1083 -0.9941 0.9941 0.1083 266.8155 667.7816)" fill="#007171" width="19.2" height="1.4"/>
				</g>
			</g>
			<polygon fill="#007171" points="507.2,177.5 491,171.6 491.5,167.6 507.7,173.8 			"/>
		</g>
		<g>
			<g>
				<g>
					<path fill="#007171" d="M666.7,318.9c1.3,1.7,0.6,4.4-1.6,6.2c-2.2,1.8-5.1,1.9-6.4,0.2c-1.3-1.7-0.6-4.4,1.6-6.2
						C662.5,317.4,665.4,317.3,666.7,318.9z"/>
					<g>
						
							<rect x="662" y="294.5" transform="matrix(0.9671 -0.2544 0.2544 0.9671 -56.5142 178.8176)" fill="#007171" width="1.9" height="26.8"/>
					</g>
				</g>
				<g>
					<path fill="#007171" d="M686,308.8c1.3,1.7,0.6,4.4-1.6,6.2c-2.2,1.8-5.1,1.9-6.4,0.2c-1.3-1.7-0.6-4.4,1.6-6.2
						C681.8,307.2,684.6,307.1,686,308.8z"/>
					<g>
						
							<rect x="681.1" y="283.5" transform="matrix(0.967 -0.2546 0.2546 0.967 -53.1275 183.4437)" fill="#007171" width="1.9" height="26.8"/>
					</g>
				</g>
				<polygon fill="#007171" points="659.5,298.6 680.6,287.3 679.1,281.7 658,292.7 				"/>
			</g>
			<g>
				
					<rect x="672.2" y="294.2" transform="matrix(0.8537 -0.5207 0.5207 0.8537 -54.909 395.8857)" fill="#007171" width="10" height="2.9"/>
			</g>
		</g>
		<g>
			<g>
				<g>
					<path fill="#007171" d="M713.9,374.4c1.8,2,1.1,5.6-1.6,8.1c-2.7,2.4-6.4,2.8-8.2,0.7c-1.8-2-1.1-5.6,1.6-8.1
						C708.4,372.7,712.1,372.4,713.9,374.4z"/>
					<g>
						
							<rect x="707.1" y="343.2" transform="matrix(0.9506 -0.3104 0.3104 0.9506 -76.8978 237.6691)" fill="#007171" width="2.5" height="34.5"/>
					</g>
				</g>
				<g>
					<path fill="#007171" d="M737.9,359.9c1.8,2,1.1,5.6-1.6,8.1c-2.7,2.4-6.4,2.8-8.2,0.7c-1.8-2-1.1-5.6,1.6-8.1
						C732.4,358.2,736.1,357.9,737.9,359.9z"/>
					<g>
						
							<rect x="730.8" y="327.8" transform="matrix(0.9506 -0.3105 0.3105 0.9506 -70.9512 244.3394)" fill="#007171" width="2.5" height="34.5"/>
					</g>
				</g>
				<polygon fill="#007171" points="703.2,348.8 729.4,332.8 727.1,325.7 700.8,341.4 				"/>
			</g>
			<g>
				
					<rect x="702.9" y="342.4" transform="matrix(0.8554 -0.5179 0.5179 0.8554 -74.3314 421.0617)" fill="#007171" width="28.4" height="2.5"/>
			</g>
		</g>
		<g>
			<g>
				<path fill="#007171" d="M768.9,220.9c0.6,2-1.1,4.4-3.8,5.2c-2.7,0.8-5.4-0.2-6-2.2c-0.6-2,1.1-4.4,3.8-5.2
					C765.6,217.9,768.3,218.8,768.9,220.9z"/>
				<g>
					
						<rect x="756.3" y="207.6" transform="matrix(0.1269 -0.9919 0.9919 0.1269 465.2552 945.5819)" fill="#007171" width="27" height="1.9"/>
				</g>
			</g>
			<g>
				<path fill="#007171" d="M790.8,217.9c0.6,2.1-1.1,4.4-3.8,5.2c-2.7,0.8-5.4-0.2-6-2.2c-0.6-2,1.1-4.4,3.8-5.2
					C787.5,214.8,790.2,215.8,790.8,217.9z"/>
				<g>
					
						<rect x="778.2" y="204.6" transform="matrix(0.1267 -0.9919 0.9919 0.1267 487.4805 964.8256)" fill="#007171" width="27" height="1.9"/>
				</g>
			</g>
			<g>
				<path fill="#007171" d="M810.8,214.1c0.6,2.1-1.1,4.4-3.8,5.2c-2.7,0.8-5.4-0.2-6.1-2.2c-0.6-2,1.1-4.4,3.8-5.2
					C807.5,211,810.2,212,810.8,214.1z"/>
				<g>
					
						<rect x="798.2" y="200.9" transform="matrix(0.1269 -0.9919 0.9919 0.1269 508.4501 981.3496)" fill="#007171" width="27" height="1.9"/>
				</g>
			</g>
			<polygon fill="#007171" points="770,199.2 813.7,193.8 814.6,187.3 770.7,193.6 			"/>
		</g>
		<g>
			<path fill="#007171" d="M532.6,174.6c-0.9,2-3.3,2.9-5.3,2c-2-0.9-2.9-3.3-2-5.3c0.9-2,3.3-2.9,5.3-2
				C532.6,170.1,533.5,172.5,532.6,174.6z"/>
			<g>
				<path fill="#007171" d="M528.8,200.1l-1.3-0.6L538,177c-2.9,1.5-5.5,2-7.7,1.4c-2.1-0.5-3.8-2-5-4.3l1.2-0.7
					c1,1.9,2.4,3.1,4.1,3.6c2.3,0.6,5.2-0.2,8.5-2.4c0.3-0.2,0.6-0.1,0.8,0.1c0.2,0.2,0.3,0.5,0.2,0.8L528.8,200.1z"/>
			</g>
			<path fill="#007171" d="M528.2,183.9c-0.9,2-3.3,2.9-5.3,2c-2-0.9-2.9-3.3-2-5.3c0.9-2,3.3-2.9,5.3-2
				C528.3,179.5,529.2,181.9,528.2,183.9z"/>
			<g>
				<path fill="#007171" d="M526.5,187.9c-0.2,0-0.4-0.1-0.6-0.1c-2.1-0.5-3.8-2-5-4.3l1.2-0.7c1,1.9,2.4,3.1,4.1,3.6
					c2.3,0.6,5.2-0.2,8.5-2.4l0.8,1.2C532.1,187.4,529.1,188.3,526.5,187.9z"/>
			</g>
		</g>
		<g>
			<path fill="#007171" d="M609.7,316.3c-0.9,2-3.3,2.9-5.3,2c-2-0.9-2.9-3.3-2-5.3c0.9-2,3.3-2.9,5.3-2
				C609.7,311.9,610.6,314.3,609.7,316.3z"/>
			<g>
				<path fill="#007171" d="M605.9,341.8l-1.3-0.6l10.4-22.5c-2.9,1.5-5.5,2-7.7,1.4c-2.1-0.5-3.8-2-5-4.3l1.2-0.7
					c1,1.9,2.4,3.1,4.1,3.6c2.3,0.6,5.2-0.2,8.5-2.4c0.3-0.2,0.6-0.1,0.8,0.1c0.2,0.2,0.3,0.5,0.2,0.8L605.9,341.8z"/>
			</g>
			<path fill="#007171" d="M605.3,325.7c-0.9,2-3.3,2.9-5.3,2c-2-0.9-2.9-3.3-2-5.3c0.9-2,3.3-2.9,5.3-2
				C605.4,321.3,606.3,323.6,605.3,325.7z"/>
			<g>
				<path fill="#007171" d="M603.6,329.6c-0.2,0-0.4-0.1-0.6-0.1c-2.1-0.5-3.8-2-5-4.3l1.2-0.7c1,1.9,2.4,3.1,4.1,3.6
					c2.3,0.6,5.2-0.2,8.5-2.4l0.8,1.2C609.2,329.2,606.2,330.1,603.6,329.6z"/>
			</g>
		</g>
		<g>
			<g>
				
					<rect x="569.4" y="288.2" transform="matrix(0.3833 -0.9236 0.9236 0.3833 92.1907 714.9936)" fill="#007171" width="24.1" height="0.6"/>
			</g>
			<g>
				
					<rect x="569.4" y="288.2" transform="matrix(0.3833 -0.9236 0.9236 0.3833 92.1907 714.9936)" fill="#007171" width="24.1" height="0.6"/>
			</g>
			<g>
				
					<rect x="574.5" y="287.1" transform="matrix(0.3832 -0.9237 0.9237 0.3832 96.326 719.0879)" fill="#007171" width="24.1" height="0.6"/>
			</g>
			<g>
				
					<rect x="585.5" y="279.6" transform="matrix(0.5215 -0.8532 0.8532 0.5215 36.8871 636.3456)" fill="#007171" width="0.6" height="11.3"/>
			</g>
			<g>
				
					<rect x="582.3" y="284.9" transform="matrix(0.5213 -0.8534 0.8534 0.5213 30.9212 636.3093)" fill="#007171" width="0.6" height="11.3"/>
			</g>
			<g>
				
					<rect x="582.3" y="284.9" transform="matrix(0.5213 -0.8534 0.8534 0.5213 30.9212 636.3093)" fill="#007171" width="0.6" height="11.3"/>
			</g>
		</g>
		<g>
			<path fill="#007171" d="M823.1,293.7c-0.5,2.5-3,4-5.5,3.5c-2.5-0.6-4-3-3.5-5.5c0.6-2.5,3-4,5.5-3.5
				C822.1,288.8,823.7,291.2,823.1,293.7z"/>
			<path fill="#007171" d="M815.3,292.3c0.1,0-0.3,1.2,0.6,3c0.8,1.8,3.7,4.3,7.6,3.4c3.7-1,6.5-5.5,6.2-11.1
				c0.2-5.7,0.1-12.2,0.2-19.3c0.1-7.1,0.2-14.8,0.5-22.9c0.4-8.1,0.6-16.7,2.1-25.6c0.3-2.3,0.6-4.5,0.9-6.8
				c0.3-2.3,0.7-4.8,1.9-7.3l0.2-0.5c0.1-0.1,0-0.1,0.2-0.3l0.1-0.2c0.2-0.2,0.3-0.5,0.5-0.8c0.4-0.6,0.9-1.2,1.4-1.8
				c1.1-1,2.7-2.5,5.5-2.4c1.4,0.1,2.6,1.1,3.1,2.1c0.5,1,0.9,2.2,1,2.8c0.5,1.7,0.8,2.6,0.9,3.9c0.8,4.9-0.6,10.1-2.1,15.1
				c-1.5,5-4.8,9.4-8.8,12.8c-1.9,1.7-4.1,3.2-6.3,4.6c-0.5,0.3-1.1,0.6-1.7,1l-1.5,0.8c-1.1,0.6-2,1.1-2.9,1.7
				c-3.6,2.3-7,5-9.4,8.3c-2.3,3.3-3.4,7.2-2.6,11c0.7,3.8,3.2,7.2,6.4,9.8c6.3,5.2,15.7,6.7,22.9,4.2c3.6-1.2,6.5-4,7.6-7.3
				c1.1-3.3,0.8-6.8-0.3-9.7c-2.3-5.9-7.4-8.8-12.2-8.8c-4.8,0-8.8,2.7-10.9,5.7c-2.2,3-2.8,6.2-3,8.4c-0.2,2.2-0.1,3.4-0.1,3.4
				s-0.1-0.3-0.3-0.8c-0.2-0.6-0.5-1.4-0.7-2.5c-0.4-2.2-0.7-5.9,1.2-10.1c1.9-4.1,6.7-8.6,13.6-9.1c3.4-0.3,7.2,0.6,10.3,2.9
				c3.2,2.3,5.4,5.8,6.3,9.8c0.9,3.9,0.5,8.2-1.4,11.9c-1.8,3.8-5.2,6.7-9.2,8.3c-8.1,2.8-17.7,2-25.8-3.1c-4-2.6-7.6-6.5-9.1-11.6
				c-1.6-5.1-0.6-11,2.1-15.5c2.6-4.6,6.2-8.4,10.3-11.5c1.1-0.8,2.1-1.6,3-2.2l2.9-1.9c1.8-1.2,3.5-2.5,5.1-3.9
				c3.1-2.9,5.9-5.9,8.7-9.3c2.4-2.8,4-6.3,4.7-9.9c0.3-1.5,0.6-4-1.1-4.9c-2.6-1.4-4.9,3.3-5.9,4.9c-1.7,2.9-2.9,6.1-3.6,9.4
				c-1.6,8.6-2.4,17.2-2.6,25.2c-0.3,8.1-0.2,15.8-0.1,22.9c0.1,7.1,0.1,13.6-0.1,19.4c-0.1,1.5-0.1,2.8-0.4,4.4
				c-0.3,1.4-0.8,2.8-1.6,3.9c-1.4,2.3-3.8,3.8-6.1,4.1c-2.3,0.3-4.2-0.4-5.7-1.2c-1.4-0.9-2.4-2.1-3-3.1c-1.1-2.1-0.9-3.6-1-3.5
				L815.3,292.3z"/>
		</g>
		<g>
			<path fill="#007171" d="M726.9,266.4c0.1,1.2-0.8,2.3-2.1,2.4c-1.2,0.1-2.3-0.8-2.4-2.1c-0.1-1.2,0.8-2.3,2.1-2.4
				C725.7,264.2,726.8,265.2,726.9,266.4z"/>
			<path fill="#007171" d="M727.7,275.9c0.1,1.2-0.8,2.3-2,2.4c-1.2,0.1-2.3-0.8-2.4-2.1c-0.1-1.2,0.8-2.3,2.1-2.4
				C726.5,273.7,727.6,274.7,727.7,275.9z"/>
			<path fill="#007171" d="M707.8,267.3c0.2,2.3-1.5,4.3-3.8,4.5c-2.3,0.2-4.3-1.5-4.5-3.8c-0.2-2.3,1.5-4.3,3.8-4.5
				C705.6,263.3,707.6,265,707.8,267.3z"/>
			<path fill="#007171" d="M709,293.4c3.6-2.7,6.6-6.4,8.5-10.5c1.9-4.1,2.6-8.7,1.9-13c-0.7-4.3-4.2-7.6-8.2-7.8
				c-4-0.5-8,2.3-7.6,5.7c0.1,1.1-0.7,2.2-1.8,2.3c-1.1,0.1-2.2-0.7-2.3-1.8c0-0.1,0-0.2,0-0.3l0-0.3c0-3,1.9-5.9,4.4-7.3
				c2.4-1.4,5.2-1.8,7.8-1.4c2.6,0.4,5.1,1.7,6.8,3.6c1.8,1.9,2.7,4.4,3,6.9c0.5,4.9-0.5,9.7-2.8,13.9c-2.2,4.2-5.5,7.7-9.3,10.5
				c-0.2,0.1-0.4,0.1-0.5-0.1C708.8,293.8,708.8,293.6,709,293.4L709,293.4z"/>
		</g>
		<g>
			<path fill="#007171" d="M533.1,225.8c0.1,1.4-1.3,2.7-3.2,2.8c-1.9,0.1-3.5-0.9-3.6-2.3c-0.1-1.4,1.3-2.7,3.2-2.8
				C531.4,223.4,533,224.4,533.1,225.8z"/>
			<g>
				<path fill="#007171" d="M532.5,227.1c0,0-0.1,0-0.1,0c-0.4-0.1-0.6-0.5-0.4-0.9l7.3-20.6c0.1-0.4,0.5-0.6,0.9-0.4
					c0.4,0.1,0.6,0.5,0.4,0.9l-7.3,20.6C533.2,227,532.8,227.2,532.5,227.1z"/>
			</g>
			<g>
				<path fill="#007171" d="M542.7,215.6c-0.1,0-0.2-0.1-0.3-0.2c-0.3-0.3-0.3-0.7-0.1-1c1.1-1.4,0-3-1.2-4.6l-0.3-0.3
					c-1.4-1.8-1.7-2.7-1.6-3.7c0-0.4,0.4-0.7,0.8-0.7c0.4,0,0.7,0.4,0.7,0.8c0,0.5-0.1,1,1.3,2.8l0.2,0.3c1,1.3,3.2,4,1.2,6.4
					C543.2,215.5,542.9,215.6,542.7,215.6z"/>
			</g>
			<g>
				<path fill="#007171" d="M540.3,222.5c-0.1,0-0.2-0.1-0.3-0.2c-0.3-0.3-0.3-0.7-0.1-1c1.1-1.4,0-3-1.2-4.6l-0.3-0.3
					c-1.4-1.8-1.7-2.7-1.6-3.7c0-0.4,0.4-0.7,0.8-0.7c0.4,0,0.7,0.4,0.7,0.8c0,0.5-0.1,1,1.3,2.8l0.2,0.3c1,1.3,3.2,4,1.2,6.4
					C540.8,222.5,540.5,222.6,540.3,222.5z"/>
			</g>
			<g>
				<path fill="#007171" d="M541.5,218.9c-0.1,0-0.2-0.1-0.3-0.2c-0.3-0.3-0.3-0.7-0.1-1c1.1-1.4,0-3-1.2-4.5l-0.3-0.3
					c-1.4-1.8-1.7-2.7-1.6-3.8c0-0.4,0.4-0.7,0.8-0.7c0.4,0,0.7,0.4,0.7,0.8c0,0.5-0.1,1,1.3,2.8l0.2,0.3c1,1.3,3.2,4,1.2,6.4
					C542,218.9,541.8,219,541.5,218.9z"/>
			</g>
		</g>
		<path fill="#007171" d="M636.8,352.7c-14.5-7,0.2-19.2,0.2-19.2c-3.8-1-7.7-2.9-5.8-9c2.1-6.7,13.2-10.7,6.9-16.7
			c0,0,10.1-0.4,5.5,10.7c-2.9,7-10,8.6-1.9,14.6C641.7,333.1,630.6,344.1,636.8,352.7z"/>
	</g>
</g>
</svg>
