<?xml version="1.0" encoding="UTF-8"?><svg id="Calque_1" xmlns="http://www.w3.org/2000/svg" viewBox="0 0 1178.34 604.29"><rect width="1177" height="603" fill="none" stroke-width="0"/><path d="m1149.67,360c-22.54,1.72-86.17,3.25-144.38,4.37-5.66.12-9.82,5.3-8.77,10.87,4.18,22.02,6.38,44.75,6.38,68,0,10.3-.43,20.49-1.29,30.59H278.14c-.84-10.09-1.27-20.29-1.27-30.59,0-200.48,162.52-363.04,363.02-363.04,28.33,0,55.91,3.25,82.39,9.4-38.03,2.56-104.74,7.26-105.68,8.82-1.32,2.2-2.2,5.28,7.91,5.28,6.86,0,78-4.47,122.79-7.32,10.95,3.37,21.68,7.27,32.17,11.64,52.99-2.68,136.44-6.91,138.95-6.98,6.19-.21,11.14,2.68-2.48,3.68-7.36.53-64.13,3.78-109.29,6.34-4.73.26-6.02,6.58-1.81,8.73,19.98,10.21,38.89,22.21,56.51,35.79-91.46,5.64-279.39,19.39-281.59,19.86-9.25,1.98-9.68,10.54,19.01,9.92,7.05-.14,152-6.89,253.06-11.71,20.12-.96,39.58,7.07,53.31,21.78,6.74,7.24,13.2,14.73,19.34,22.49,43.82-2.22,162.93-8.25,165.94-8.36,6.19-.19,11.14,2.68-2.48,3.68-10.14.74-104.93,5.97-152.43,8.63-4.11.24-5.48,3.15-3.03,6.46,2.72,3.71,5.38,7.46,7.98,11.28,47.16-.62,82.37-1,84.57-.69,6.93,1.01,27.2,6.45-18.14,9.92-11.28.88-32.84,1.68-58.87,2.42,0,0-122.31,3.46-123.77,6.93-1.5,3.47,4.56,6.36,14.17,7.15,6.4.5,63.68-1.74,101.13-3.28,9.15-.4,17.67,4.57,21.92,12.67,1.75,3.35,3.46,6.72,5.11,10.11,21.73-1.05,51.59-2.49,53.92-2.56,6.19-.21,11.16,2.68-2.48,3.66-6.57.48-25.41,2.06-41.19,3.09-4.33.28-6.45,3.77-4.69,7.74,2.99,6.77,5.79,13.65,8.37,20.63,53.07-.72,94.16-1.17,96.52-.84,6.93,1.01,27.2,6.45-18.12,9.92-11.64.89-38.13,1-65.42,1.72-4.95.14-7.82,4.13-6.36,8.87,1.51,4.95,2.92,9.95,4.23,14.99,85.91-1.31,172.96-2.48,176.45-1.99,6.95.98,27.2,6.45-18.12,9.92Z" fill="#3ef7e9" opacity=".7" stroke-width="0"/><path d="m464.43,215.05c2.17-1.07,4.51-1.72,6.89-2.22,2.39-.45,4.84-.68,7.32-.58,2.49.05,4.98.52,7.43,1.28,2.43.81,4.76,2.05,6.84,3.65l-3.65,1.72c.03-.82.11-1.45.21-2.15.09-.68.22-1.36.36-2.03.3-1.34.64-2.67,1.14-3.95,1.01-2.55,2.33-5.04,4.21-7.1,1.82-2.1,4.13-3.75,6.61-4.83,1.26-.49,2.53-.93,3.84-1.14,1.3-.26,2.61-.32,3.9-.31-1.22.46-2.4.92-3.52,1.49-1.13.54-2.18,1.19-3.16,1.89-.98.7-1.89,1.48-2.71,2.33-.8.87-1.56,1.76-2.21,2.73-1.27,1.95-2.29,4.07-2.95,6.33-.33,1.13-.64,2.26-.85,3.42-.1.58-.2,1.16-.26,1.74-.06.56-.12,1.2-.12,1.66l-.05,4.65-3.6-2.93c-1.62-1.32-3.48-2.37-5.48-3.16-1.98-.86-4.14-1.35-6.33-1.79-4.42-.76-9.07-.91-13.85-.7Z" fill="#008694" stroke-width="0"/><path d="m520.21,215.01c2.17-1.07,4.51-1.72,6.89-2.22,2.39-.45,4.84-.68,7.32-.58,2.49.05,4.98.52,7.43,1.28,2.43.81,4.76,2.05,6.84,3.65l-3.65,1.75c.02-.82.09-1.44.18-2.14.09-.68.2-1.35.34-2.02.28-1.33.61-2.65,1.11-3.93.99-2.53,2.3-5,4.16-7.04,1.81-2.08,4.11-3.69,6.57-4.74,1.26-.47,2.51-.91,3.81-1.11,1.28-.25,2.59-.3,3.86-.29-1.2.45-2.37.91-3.48,1.47-1.12.53-2.16,1.17-3.14,1.85-.97.7-1.88,1.45-2.69,2.29-.79.86-1.55,1.73-2.18,2.69-1.25,1.93-2.26,4.01-2.89,6.25-.32,1.11-.62,2.23-.81,3.38-.1.57-.18,1.15-.24,1.72-.06.55-.1,1.19-.1,1.63v4.73s-3.65-2.98-3.65-2.98c-1.62-1.32-3.48-2.37-5.48-3.16-1.98-.86-4.14-1.35-6.33-1.79-4.42-.76-9.07-.91-13.85-.7Z" fill="#008694" stroke-width="0"/><path d="m465.95,10.25c2.32-.67,4.74-.9,7.17-.97,2.43-.02,4.89.18,7.31.72,2.44.49,4.81,1.39,7.09,2.57,2.25,1.22,4.32,2.86,6.08,4.8l-3.91,1.08c.17-.8.35-1.4.56-2.07.2-.65.44-1.29.69-1.93.51-1.26,1.07-2.5,1.78-3.67,1.42-2.32,3.14-4.52,5.34-6.2,2.15-1.73,4.69-2.91,7.3-3.51,1.32-.24,2.63-.45,3.94-.42,1.31-.02,2.6.16,3.85.39-1.26.24-2.5.48-3.68.84-1.19.32-2.33.77-3.41,1.27-1.08.51-2.1,1.1-3.05,1.78-.93.7-1.83,1.43-2.62,2.26-1.57,1.68-2.93,3.55-3.95,5.64-.51,1.04-1,2.09-1.39,3.18-.2.55-.38,1.1-.54,1.65-.15.53-.31,1.15-.38,1.59l-.82,4.66-3.08-3.58c-1.37-1.59-3.01-2.95-4.84-4.07-1.8-1.19-3.83-2.06-5.92-2.88-4.22-1.53-8.77-2.49-13.51-3.13Z" fill="#008694" stroke-width="0"/><path d="m718.7,109.35c1.41-.11,2.82.05,4.21.29,1.39.28,2.77.68,4.1,1.27,1.34.57,2.59,1.36,3.75,2.3,1.14.97,2.13,2.15,2.91,3.46l-2.35.14c.2-.44.38-.76.58-1.12.2-.35.41-.69.64-1.02.45-.66.93-1.31,1.48-1.89,1.1-1.16,2.36-2.23,3.82-2.94,1.44-.75,3.05-1.14,4.63-1.19.79,0,1.57.04,2.33.21.76.14,1.49.39,2.18.68-.76-.02-1.5-.02-2.23.04-.73.05-1.44.17-2.12.34-.69.17-1.35.39-1.98.68-.62.3-1.23.61-1.79,1-1.11.78-2.13,1.71-2.97,2.79-.42.54-.84,1.09-1.2,1.67-.18.29-.36.59-.52.89-.16.29-.32.63-.42.87l-1.04,2.51-1.32-2.37c-.59-1.07-1.37-2.04-2.29-2.9-.89-.89-1.95-1.63-3.05-2.34-2.23-1.37-4.72-2.46-7.36-3.39Z" fill="#008694" stroke-width="0"/><path d="m810.71,147.54c1.37-.33,2.79-.39,4.21-.36,1.42.06,2.85.24,4.25.63,1.41.35,2.77.95,4.06,1.7,1.28.78,2.44,1.79,3.41,2.97l-2.31.52c.12-.46.24-.81.38-1.19.14-.38.29-.74.46-1.1.33-.72.69-1.43,1.14-2.09.89-1.31,1.96-2.55,3.29-3.46,1.3-.95,2.82-1.56,4.36-1.84.78-.1,1.55-.19,2.31-.13.76.02,1.51.16,2.24.34-.74.1-1.47.21-2.17.38-.7.16-1.38.38-2.03.65-.64.27-1.26.58-1.83.95-.56.38-1.11.78-1.59,1.25-.97.93-1.81,1.99-2.46,3.18-.32.59-.64,1.19-.9,1.82-.13.31-.25.63-.36.95-.1.31-.21.66-.27.91l-.61,2.7-1.7-2.18c-.75-.96-1.67-1.8-2.71-2.51-1.02-.75-2.18-1.31-3.37-1.85-2.42-1.01-5.04-1.7-7.79-2.21Z" fill="#008694" stroke-width="0"/><path d="m309.05,213.28s-12.18-14.15-29.55-5.07c-15.46,8.08-16.28,32.24-16.28,32.24,0,0,10.3-10.11,11.4-10.76l-.82-4.63,1.98,3.91s9.34-6.98,10.27-7.25l-.64-4.94,2.41,4.02,8.11-2.54-.6-3.39,1.93,2.42,11.79-4.01Z" fill="#007171" stroke-width="0"/><path d="m307.83,211.95s-17.38,6.03-21.3,19.44c-3.92,13.41,11.76,30.85,11.76,30.85,0,0-2.39-8.83-2.32-12.08l-2.85-1.97,3.12-.03s1.59-9,2.61-11.14l-2-1.9,2.71.74s2.79-6.48,5.25-9.72l5.29-6.52-2.29-7.67Z" fill="#007171" stroke-width="0"/><path d="m305.2,217.71l5.27-5.78s18.68-3.27,27.55,6.65c8.88,9.92,6.32,29.51,6.32,29.51,0,0-5.44-10.76-8.01-12.75l2.04-.99-3.61-.7s-6.76-7.65-9.65-8.5l3.69-2.21-5.4.7s-7.32-6.34-11.67-5.15c-4.35,1.19-6.52-.77-6.52-.77Z" fill="#007171" stroke-width="0"/><path d="m306.41,212.27s-9.77-13.53-4.67-23.11c5.1-9.58,30.68-11.56,30.68-11.56,0,0-10.56,6.16-13.21,13.05l-5.33.59,3.8,1.57-3.55,5.69-4.97-.19,3.92,3.07s-5.31,4.92-4.3,13.22l-.69,1.35-1.68-3.69Z" fill="#007171" stroke-width="0"/><path d="m307.86,212.64s6.22-16.06,17.69-19.96c11.47-3.9,27.43,6.2,32.48,18.7l-13.74-4.06-1.75-3.57-1.25,3.91-5.73-.17-1.78-5.11-.76,4.64-8.47,1.83-1.77-3.66,1.15,4.22s-9.88,1.93-14.85,7.04l-1.23-3.81Z" fill="#007171" stroke-width="0"/><path d="m312.61,211.33s28.88,60.39,41.11,136.25c7.55,46.82,13.93,98.12,4.2,146.38l-13.64-.41s23-135.62-37.34-280.12l5.67-2.09Z" fill="#007171" stroke-width="0"/><g opacity=".9"><path d="m339.44,100.33s15.88-18.46,38.55-6.62c20.16,10.54,21.24,42.06,21.24,42.06,0,0-13.44-13.18-14.87-14.04l1.07-6.04-2.58,5.1s-12.19-9.1-13.39-9.46l.84-6.45-3.15,5.25-10.58-3.31.78-4.43-2.52,3.16-15.38-5.23Z" fill="#008694" stroke-width="0"/><path d="m341.04,98.59s22.67,7.86,27.78,25.36c5.12,17.49-15.34,40.24-15.34,40.24,0,0,3.12-11.51,3.02-15.75l3.72-2.57-4.07-.04s-2.08-11.74-3.41-14.53l2.6-2.47-3.53.96s-3.64-8.46-6.85-12.68l-6.9-8.51,2.98-10Z" fill="#008694" stroke-width="0"/><path d="m344.47,106.11l-6.87-7.53s-24.36-4.26-35.94,8.67c-11.58,12.93-8.24,38.49-8.24,38.49,0,0,7.1-14.03,10.45-16.64l-2.66-1.29,4.71-.91s8.82-9.98,12.58-11.09l-4.81-2.88,7.04.92s9.55-8.27,15.23-6.72c5.68,1.55,8.51-1.01,8.51-1.01Z" fill="#008694" stroke-width="0"/><path d="m342.89,99.01s12.74-17.65,6.09-30.15c-6.65-12.5-40.02-15.07-40.02-15.07,0,0,13.78,8.04,17.23,17.03l6.96.77-4.96,2.04,4.64,7.43,6.48-.24-5.12,4.01s6.92,6.42,5.6,17.25l.9,1.76,2.19-4.81Z" fill="#008694" stroke-width="0"/><path d="m341,99.5s-8.11-20.95-23.07-26.04c-14.96-5.09-35.78,8.09-42.37,24.4l17.92-5.29,2.28-4.66,1.63,5.1,7.48-.22,2.32-6.66.99,6.05,11.04,2.39,2.31-4.78-1.5,5.5s12.89,2.51,19.37,9.19l1.61-4.97Z" fill="#008694" stroke-width="0"/><path d="m334.8,97.79s-37.68,78.78-53.63,177.73c-9.85,61.08-18.18,128-5.48,190.95l17.8-.53s-30.01-176.91,48.71-365.41l-7.39-2.73Z" fill="#008694" stroke-width="0"/></g><path d="m292.3,348.49s-8.44-11.45-22.16-5.55c-12.21,5.25-14.22,23.56-14.22,23.56,0,0,8.41-7.09,9.28-7.52l-.36-3.56,1.28,3.08s7.5-4.76,8.22-4.92l-.21-3.79,1.6,3.19,6.31-1.46-.26-2.61,1.33,1.95,9.19-2.37Z" fill="#007171" stroke-width="0"/><path d="m291.45,347.41s-13.55,3.58-17.3,13.55c-3.75,9.96,7.17,24.11,7.17,24.11,0,0-1.31-6.84-1.07-9.31l-2.05-1.66,2.38.15s1.73-6.74,2.63-8.31l-1.41-1.56,2.02.72s2.49-4.76,4.55-7.09l4.39-4.65-1.3-5.96Z" fill="#007171" stroke-width="0"/><path d="m289.11,351.64l4.33-4.09s14.38-1.41,20.55,6.63c6.18,8.04,3.11,22.78,3.11,22.78,0,0-3.52-8.48-5.36-10.15l1.61-.64-2.71-.74s-4.7-6.2-6.84-7.01l2.93-1.47-4.14.22s-5.2-5.24-8.57-4.58c-3.37.65-4.91-.96-4.91-.96Z" fill="#007171" stroke-width="0"/><path d="m290.35,347.57s-6.64-10.84-2.22-17.83c4.42-6.99,23.97-7.02,23.97-7.02,0,0-8.38,4.07-10.78,9.16l-4.09.14,2.8,1.41-3.03,4.12-3.76-.43,2.8,2.56s-4.32,3.43-4.02,9.8l-.6.98-1.07-2.9Z" fill="#007171" stroke-width="0"/><path d="m291.43,347.94s5.65-11.85,14.58-14.15c8.94-2.31,20.49,6.28,23.61,16.07l-10.2-3.87-1.12-2.81-1.17,2.9-4.35-.46-1.06-3.98-.84,3.48-6.54.9-1.14-2.88.63,3.27s-7.62.9-11.69,4.5l-.72-2.96Z" fill="#007171" stroke-width="0"/><path d="m295.11,347.21s18.48,47.54,23.42,105.88c3.05,36.01,4.96,75.35-5.2,111.46l-10.34-1.09s25.25-101.72-12.31-214.98l4.43-1.27Z" fill="#007171" stroke-width="0"/><g opacity=".9"><path d="m966.5,340.36s-4.32-13.55-19.21-12.36c-13.25,1.06-21.02,17.76-21.02,17.76,0,0,10.24-4.02,11.2-4.15l.8-3.49.22,3.33s8.63-2.11,9.36-2.03l1.02-3.66.5,3.54,6.44.64.59-2.56.63,2.28,9.46.7Z" fill="#008694" stroke-width="0"/><path d="m966.04,339.06s-13.98-.95-20.73,7.29c-6.75,8.24-.94,25.14-.94,25.14,0,0,.95-6.9,1.97-9.16l-1.41-2.23,2.2.91s3.8-5.84,5.15-7.03l-.83-1.92,1.68,1.32s3.89-3.71,6.58-5.26l5.65-3,.68-6.06Z" fill="#008694" stroke-width="0"/><path d="m962.48,342.32l5.41-2.48s14.07,3.27,17.34,12.87c3.27,9.6-4.36,22.58-4.36,22.58,0,0-.61-9.16-1.82-11.33l1.73-.09-2.33-1.57s-2.46-7.38-4.23-8.83l3.24-.45-4-1.12s-3.25-6.63-6.65-7.09c-3.41-.46-4.35-2.49-4.35-2.49Z" fill="#008694" stroke-width="0"/><path d="m964.95,338.86s-2.82-12.4,3.61-17.6c6.43-5.2,24.96,1.03,24.96,1.03,0,0-9.24,1.17-13.15,5.22l-3.92-1.18,2.2,2.23-4.19,2.93-3.43-1.61,1.84,3.32s-5.19,1.87-6.95,7.99l-.89.74-.08-3.09Z" fill="#008694" stroke-width="0"/><path d="m965.85,339.56s9.15-9.41,18.35-8.73c9.2.68,17.39,12.52,17.21,22.79l-8.42-6.94-.16-3.03-2.04,2.37-3.97-1.83.27-4.11-1.91,3.03-6.48-1.24-.15-3.1-.45,3.3s-7.51-1.59-12.51.52l.27-3.04Z" fill="#008694" stroke-width="0"/><path d="m969.58,340.05s2.27,50.95-11.75,107.8c-8.65,35.09-19.45,72.97-40.65,103.91l-9.45-4.35s56.53-88.26,57.25-207.58l4.6.22Z" fill="#008694" stroke-width="0"/></g><path d="m989.37,181.33s12.18-14.15,29.55-5.07c15.46,8.08,16.28,32.24,16.28,32.24,0,0-10.3-10.11-11.4-10.76l.82-4.63-1.98,3.91s-9.34-6.98-10.27-7.25l.64-4.94-2.41,4.02-8.11-2.54.6-3.39-1.93,2.42-11.79-4.01Z" fill="#007171" stroke-width="0"/><path d="m990.59,179.99s17.38,6.03,21.3,19.44c3.92,13.41-11.76,30.85-11.76,30.85,0,0,2.39-8.83,2.32-12.08l2.85-1.97-3.12-.03s-1.59-9-2.61-11.14l2-1.9-2.71.74s-2.79-6.48-5.25-9.72l-5.29-6.52,2.29-7.67Z" fill="#007171" stroke-width="0"/><path d="m993.23,185.76l-5.27-5.78s-18.68-3.27-27.55,6.65c-8.88,9.92-6.32,29.51-6.32,29.51,0,0,5.44-10.76,8.01-12.75l-2.04-.99,3.61-.7s6.76-7.65,9.65-8.5l-3.69-2.21,5.4.7s7.32-6.34,11.67-5.15c4.35,1.19,6.52-.77,6.52-.77Z" fill="#007171" stroke-width="0"/><path d="m992.01,180.32s9.77-13.53,4.67-23.11c-5.1-9.58-30.68-11.56-30.68-11.56,0,0,10.56,6.16,13.21,13.05l5.33.59-3.8,1.57,3.55,5.69,4.97-.19-3.92,3.07s5.31,4.92,4.3,13.22l.69,1.35,1.68-3.69Z" fill="#007171" stroke-width="0"/><path d="m990.56,180.69s-6.22-16.06-17.69-19.96c-11.47-3.9-27.43,6.2-32.48,18.7l13.74-4.06,1.75-3.57,1.25,3.91,5.73-.17,1.78-5.1.76,4.64,8.47,1.83,1.77-3.66-1.15,4.22s9.88,1.93,14.85,7.04l1.23-3.81Z" fill="#007171" stroke-width="0"/><path d="m985.81,179.38s-28.88,60.39-41.11,136.25c-7.55,46.82-13.93,98.12-4.2,146.38l13.64-.41s-23-135.62,37.34-280.12l-5.67-2.09Z" fill="#007171" stroke-width="0"/><g opacity=".9"><path d="m929.31,107.15s-15.88-18.46-38.55-6.62c-20.16,10.54-21.24,42.06-21.24,42.06,0,0,13.44-13.18,14.87-14.04l-1.07-6.04,2.58,5.1s12.19-9.1,13.39-9.46l-.84-6.45,3.15,5.25,10.58-3.31-.78-4.43,2.52,3.16,15.38-5.23Z" fill="#008694" stroke-width="0"/><path d="m927.71,105.4s-22.67,7.86-27.78,25.36c-5.12,17.49,15.34,40.24,15.34,40.24,0,0-3.12-11.51-3.02-15.75l-3.72-2.57,4.07-.04s2.08-11.74,3.41-14.53l-2.6-2.47,3.53.96s3.64-8.46,6.85-12.68l6.9-8.51-2.98-10Z" fill="#008694" stroke-width="0"/><path d="m924.27,112.92l6.87-7.53s24.36-4.26,35.94,8.67c11.58,12.93,8.24,38.49,8.24,38.49,0,0-7.1-14.03-10.45-16.64l2.67-1.29-4.71-.91s-8.82-9.98-12.58-11.09l4.81-2.88-7.04.92s-9.55-8.27-15.23-6.72c-5.68,1.55-8.51-1.01-8.51-1.01Z" fill="#008694" stroke-width="0"/><path d="m925.86,105.83s-12.74-17.65-6.09-30.15c6.65-12.5,40.02-15.07,40.02-15.07,0,0-13.78,8.04-17.23,17.03l-6.96.77,4.96,2.04-4.64,7.43-6.48-.24,5.12,4.01s-6.92,6.42-5.6,17.25l-.9,1.76-2.19-4.81Z" fill="#008694" stroke-width="0"/><path d="m927.75,106.32s8.11-20.95,23.07-26.04c14.96-5.09,35.78,8.09,42.37,24.4l-17.92-5.29-2.28-4.66-1.63,5.1-7.48-.22-2.32-6.66-.99,6.05-11.04,2.39-2.31-4.78,1.5,5.5s-12.89,2.51-19.37,9.19l-1.61-4.97Z" fill="#008694" stroke-width="0"/><path d="m933.95,104.6s37.68,78.78,53.63,177.73c9.85,61.08,18.18,128,5.48,190.95l-17.8-.53s30.01-176.91-48.71-365.41l7.39-2.73Z" fill="#008694" stroke-width="0"/></g><path d="m392.33,236s9.64-11.54,23.74-4.43c12.54,6.32,13.49,25.77,13.49,25.77,0,0-8.42-8.02-9.31-8.53l.61-3.74-1.55,3.17s-7.61-5.51-8.35-5.72l.46-3.99-1.9,3.27-6.56-1.95.44-2.74-1.53,1.97-9.54-3.09Z" fill="#007171" stroke-width="0"/><path d="m393.3,234.91s14.06,4.65,17.38,15.4c3.32,10.75-9.11,24.98-9.11,24.98,0,0,1.82-7.14,1.72-9.75l2.27-1.62h-2.52s-1.39-7.22-2.24-8.93l1.59-1.55-2.17.63s-2.33-5.19-4.34-7.77l-4.34-5.19,1.75-6.2Z" fill="#007171" stroke-width="0"/><path d="m395.49,239.52l-4.31-4.59s-15.08-2.41-22.11,5.68c-7.03,8.09-4.74,23.84-4.74,23.84,0,0,4.26-8.73,6.3-10.37l-1.66-.77,2.9-.61s5.36-6.24,7.67-6.96l-2.99-1.74,4.36.5s5.82-5.19,9.34-4.29c3.52.91,5.25-.7,5.25-.7Z" fill="#007171" stroke-width="0"/><path d="m394.45,235.16s7.71-11.01,3.49-18.67c-4.22-7.66-24.84-8.95-24.84-8.95,0,0,8.58,4.84,10.79,10.36l4.3.41-3.04,1.3,2.93,4.54,4-.21-3.12,2.52s4.33,3.9,3.61,10.6l.57,1.08,1.31-2.99Z" fill="#007171" stroke-width="0"/><path d="m393.29,235.48s-5.2-12.86-14.48-15.87-22.02,5.31-25.94,15.44l11.01-3.43,1.36-2.9,1.05,3.13,4.62-.2,1.37-4.13.66,3.73,6.84,1.37,1.38-2.97-.88,3.41s7.98,1.44,12.04,5.5l.95-3.08Z" fill="#007171" stroke-width="0"/><path d="m389.44,234.47s-22.55,48.97-31.52,110.21c-5.53,37.8-10.07,79.19-1.67,117.94l10.98-.49s-20.11-108.95,26.79-226.04l-4.59-1.62Z" fill="#007171" stroke-width="0"/><g opacity=".9"><path d="m365.31,282.25s8.09-10.97,21.24-5.3c11.69,5.04,13.61,22.59,13.61,22.59,0,0-8.05-6.8-8.89-7.21l.35-3.41-1.23,2.95s-7.18-4.57-7.87-4.72l.2-3.63-1.54,3.06-6.04-1.41.25-2.5-1.28,1.87-8.8-2.28Z" fill="#008694" stroke-width="0"/><path d="m366.13,281.21s12.98,3.44,16.56,12.99c3.59,9.55-6.89,23.1-6.89,23.1,0,0,1.26-6.56,1.03-8.92l1.97-1.59-2.28.15s-1.65-6.46-2.51-7.97l1.35-1.49-1.93.69s-2.39-4.57-4.35-6.79l-4.21-4.46,1.25-5.71Z" fill="#008694" stroke-width="0"/><path d="m368.36,285.26l-4.15-3.92s-13.77-1.36-19.7,6.34c-5.92,7.7-3,21.83-3,21.83,0,0,3.38-8.13,5.14-9.72l-1.54-.61,2.59-.71s4.51-5.94,6.56-6.71l-2.8-1.41,3.97.22s4.99-5.01,8.22-4.39c3.23.63,4.71-.92,4.71-.92Z" fill="#008694" stroke-width="0"/><path d="m367.18,281.37s6.37-10.38,2.14-17.08c-4.23-6.7-22.96-6.74-22.96-6.74,0,0,8.02,3.91,10.33,8.78l3.92.14-2.68,1.35,2.9,3.95,3.61-.41-2.69,2.45s4.13,3.29,3.85,9.39l.58.94,1.02-2.77Z" fill="#008694" stroke-width="0"/><path d="m366.14,281.72s-5.4-11.35-13.96-13.57c-8.56-2.22-19.63,6.01-22.63,15.38l9.78-3.7,1.08-2.7,1.12,2.78,4.16-.44,1.02-3.81.8,3.34,6.26.87,1.09-2.76-.61,3.13s7.3.87,11.19,4.32l.69-2.84Z" fill="#008694" stroke-width="0"/><path d="m362.61,281.02s-17.74,45.54-22.52,101.43c-2.95,34.5-4.81,72.2,4.9,106.8l9.91-1.04s-24.12-97.49,11.95-205.98l-4.24-1.22Z" fill="#008694" stroke-width="0"/></g><path d="m862.29,291.08s-7.79-10.69-20.58-5.27c-11.38,4.82-13.34,21.84-13.34,21.84,0,0,7.85-6.55,8.67-6.95l-.31-3.31,1.17,2.87s7-4.39,7.66-4.54l-.17-3.53,1.48,2.98,5.87-1.33-.23-2.43,1.23,1.82,8.55-2.16Z" fill="#007171" stroke-width="0"/><path d="m861.51,290.06s-12.62,3.27-16.15,12.51,6.55,22.46,6.55,22.46c0,0-1.19-6.37-.95-8.66l-1.9-1.55,2.21.15s1.64-6.26,2.48-7.72l-1.3-1.45,1.87.68s2.34-4.42,4.26-6.57l4.11-4.3-1.18-5.54Z" fill="#007171" stroke-width="0"/><path d="m859.31,293.98l4.05-3.78s13.38-1.24,19.08,6.27c5.7,7.51,2.78,21.2,2.78,21.2,0,0-3.23-7.91-4.93-9.46l1.5-.58-2.51-.7s-4.34-5.79-6.33-6.55l2.73-1.35-3.85.19s-4.81-4.9-7.95-4.3c-3.14.59-4.56-.92-4.56-.92Z" fill="#007171" stroke-width="0"/><path d="m860.48,290.21s-6.12-10.11-1.98-16.59c4.15-6.48,22.33-6.41,22.33-6.41,0,0-7.81,3.75-10.07,8.46l-3.8.11,2.6,1.32-2.84,3.82-3.5-.42,2.6,2.39s-4.03,3.17-3.79,9.09l-.57.91-.98-2.7Z" fill="#007171" stroke-width="0"/><path d="m861.49,290.56s5.31-10.99,13.63-13.09c8.32-2.1,19.02,5.94,21.87,15.06l-9.47-3.65-1.03-2.62-1.1,2.69-4.04-.45-.97-3.71-.8,3.23-6.08.81-1.04-2.69.57,3.04s-7.09.8-10.89,4.13l-.65-2.76Z" fill="#007171" stroke-width="0"/><path d="m864.92,289.9s16.95,44.3,21.26,98.57c2.66,33.5,4.24,70.09-5.39,103.61l-9.61-1.07s23.99-94.46-10.38-199.96l4.12-1.15Z" fill="#007171" stroke-width="0"/><g opacity=".9"><path d="m893.73,240.29s-9.49-10.6-22.59-3.42c-11.65,6.39-11.91,24.81-11.91,24.81,0,0,7.7-7.86,8.52-8.37l-.7-3.51,1.57,2.95s7.01-5.46,7.71-5.68l-.57-3.76,1.9,3.03,6.14-2.06-.51-2.58,1.51,1.82,8.92-3.23Z" fill="#008694" stroke-width="0"/><path d="m892.78,239.29s-13.15,4.86-15.93,15.13c-2.78,10.27,9.43,23.32,9.43,23.32,0,0-1.96-6.69-1.95-9.16l-2.2-1.46,2.38-.07s1.08-6.88,1.82-8.53l-1.55-1.41,2.07.52s2.03-4.98,3.85-7.49l3.93-5.05-1.86-5.81Z" fill="#008694" stroke-width="0"/><path d="m890.86,243.72l3.92-4.48s14.18-2.77,21.09,4.65c6.91,7.42,5.26,22.38,5.26,22.38,0,0-4.31-8.11-6.3-9.59l1.54-.79-2.76-.48s-5.27-5.72-7.48-6.33l2.77-1.74-4.1.62s-5.67-4.72-8.97-3.75c-3.3.97-4.98-.49-4.98-.49Z" fill="#008694" stroke-width="0"/><path d="m891.7,239.56s-7.65-10.16-3.91-17.54c3.74-7.38,23.2-9.27,23.2-9.27,0,0-7.95,4.85-9.86,10.14l-4.05.53,2.92,1.13-2.62,4.39-3.79-.07,3.04,2.28s-3.97,3.83-3.07,10.14l-.51,1.04-1.34-2.78Z" fill="#008694" stroke-width="0"/><path d="m892.82,239.82s4.49-12.33,13.17-15.48c8.68-3.15,20.99,4.31,25.03,13.75l-10.53-2.88-1.38-2.69-.89,3-4.37-.04-1.43-3.86-.51,3.55-6.42,1.52-1.4-2.76.94,3.19s-7.5,1.62-11.21,5.59l-1-2.88Z" fill="#008694" stroke-width="0"/><path d="m896.42,238.75s22.92,45.56,33.4,103.17c6.46,35.55,12.11,74.54,5.43,111.45l-10.4-.1s15.46-103.66-32.71-212.83l4.28-1.68Z" fill="#008694" stroke-width="0"/></g><g opacity=".9"><path d="m397.53,354.39s-4.32-13.55-19.21-12.36c-13.25,1.06-21.02,17.76-21.02,17.76,0,0,10.24-4.02,11.2-4.15l.8-3.49.22,3.33s8.63-2.11,9.36-2.03l1.02-3.66.5,3.54,6.44.64.59-2.56.63,2.28,9.46.7Z" fill="#008694" stroke-width="0"/><path d="m397.07,353.09s-13.98-.95-20.73,7.29c-6.75,8.24-.94,25.14-.94,25.14,0,0,.95-6.9,1.97-9.16l-1.41-2.23,2.2.91s3.8-5.84,5.15-7.03l-.83-1.92,1.68,1.32s3.89-3.71,6.58-5.25l5.65-3,.68-6.06Z" fill="#008694" stroke-width="0"/><path d="m393.5,356.35l5.41-2.48s14.07,3.27,17.34,12.87c3.27,9.6-4.36,22.58-4.36,22.58,0,0-.61-9.16-1.82-11.33l1.73-.09-2.33-1.57s-2.46-7.38-4.23-8.83l3.24-.45-4-1.12s-3.25-6.63-6.65-7.09c-3.41-.46-4.35-2.49-4.35-2.49Z" fill="#008694" stroke-width="0"/><path d="m395.97,352.9s-2.82-12.4,3.61-17.6c6.43-5.2,24.96,1.03,24.96,1.03,0,0-9.24,1.17-13.15,5.22l-3.92-1.18,2.2,2.23-4.19,2.93-3.43-1.61,1.84,3.32s-5.19,1.87-6.95,7.99l-.89.74-.08-3.09Z" fill="#008694" stroke-width="0"/><path d="m396.88,353.59s9.15-9.41,18.35-8.73c9.2.68,17.39,12.52,17.21,22.79l-8.42-6.94-.16-3.03-2.04,2.37-3.97-1.83.27-4.11-1.91,3.03-6.48-1.24-.15-3.1-.45,3.3s-7.51-1.59-12.51.52l.27-3.04Z" fill="#008694" stroke-width="0"/><path d="m400.6,354.08s2.27,50.95-11.75,107.8c-8.65,35.09-19.45,72.97-40.65,103.91l-9.45-4.35s56.53-88.26,57.25-207.58l4.6.22Z" fill="#008694" stroke-width="0"/></g><g opacity=".9"><path d="m873.72,392.89s4.32-13.55,19.21-12.36c13.25,1.06,21.02,17.76,21.02,17.76,0,0-10.24-4.02-11.2-4.15l-.8-3.49-.22,3.33s-8.63-2.11-9.36-2.03l-1.02-3.66-.5,3.54-6.44.64-.59-2.56-.63,2.28-9.46.7Z" fill="#008694" stroke-width="0"/><path d="m874.18,391.59s13.98-.95,20.73,7.29c6.75,8.24.94,25.14.94,25.14,0,0-.95-6.9-1.97-9.16l1.41-2.23-2.2.91s-3.8-5.84-5.15-7.03l.83-1.92-1.68,1.32s-3.89-3.71-6.58-5.25l-5.65-3-.68-6.06Z" fill="#008694" stroke-width="0"/><path d="m877.74,394.85l-5.41-2.48s-14.07,3.27-17.34,12.87c-3.27,9.6,4.36,22.58,4.36,22.58,0,0,.61-9.16,1.82-11.33l-1.73-.09,2.33-1.57s2.46-7.38,4.23-8.83l-3.24-.45,4-1.12s3.25-6.63,6.65-7.09c3.41-.46,4.35-2.49,4.35-2.49Z" fill="#008694" stroke-width="0"/><path d="m875.27,391.39s2.82-12.4-3.61-17.6c-6.43-5.2-24.96,1.03-24.96,1.03,0,0,9.24,1.17,13.15,5.22l3.92-1.18-2.2,2.23,4.19,2.93,3.43-1.61-1.84,3.32s5.19,1.87,6.95,7.99l.89.74.08-3.09Z" fill="#008694" stroke-width="0"/><path d="m874.37,392.09s-9.15-9.41-18.35-8.73c-9.2.68-17.39,12.52-17.21,22.79l8.42-6.94.16-3.03,2.04,2.37,3.97-1.83-.27-4.11,1.91,3.03,6.48-1.24.15-3.1.45,3.3s7.51-1.59,12.51.52l-.27-3.04Z" fill="#008694" stroke-width="0"/><path d="m870.64,392.58s-2.27,50.95,11.75,107.8c8.65,35.09,19.45,72.97,40.65,103.91l9.45-4.35s-56.53-88.26-57.25-207.58l-4.6.22Z" fill="#008694" stroke-width="0"/></g><path d="m924.8,170.04s-9.4-22.47-34.61-18.21c-22.43,3.79-33.2,33.43-33.2,33.43,0,0,16.86-8.38,18.48-8.75l.85-6.07.88,5.65s14.4-4.89,15.66-4.86l1.2-6.39,1.37,5.96,11.09.12.63-4.45,1.42,3.79,16.24-.22Z" fill="#007171" stroke-width="0"/><path d="m923.82,167.89s-23.99.47-34.26,15.52c-10.27,15.05,2.15,43.01,2.15,43.01,0,0,.59-11.91,2-15.91l-2.74-3.59,3.89,1.22s5.6-10.52,7.74-12.77l-1.71-3.16,3.06,2.01s6.08-6.91,10.43-9.94l9.19-5.96.26-10.43Z" fill="#007171" stroke-width="0"/><path d="m918.23,173.98l8.86-5.04s24.49,3.48,31.5,19.36c7.01,15.88-4.06,39.15-4.06,39.15,0,0-2.41-15.54-4.8-19.05l2.93-.41-4.2-2.33s-5.3-12.22-8.54-14.44l5.46-1.26-6.98-1.31s-6.53-10.82-12.4-11.1c-5.88-.28-7.78-3.59-7.78-3.59Z" fill="#007171" stroke-width="0"/><path d="m921.93,167.72s-6.66-20.72,3.53-30.56c10.19-9.83,42.72-1.96,42.72-1.96,0,0-15.58,3.38-21.65,10.86l-6.85-1.42,4.08,3.47-6.71,5.63-6.09-2.23,3.63,5.4s-8.57,3.96-10.66,14.67l-1.4,1.39-.6-5.25Z" fill="#007171" stroke-width="0"/><path d="m923.58,168.77s14.19-17.42,29.99-17.63c15.8-.22,31.53,18.75,32.75,36.3l-15.4-10.57-.73-5.14-3.12,4.34-7.04-2.52-.15-7.05-2.81,5.45-11.24-1.15-.72-5.26-.27,5.69s-13.04-1.6-21.26,2.75v-5.22Z" fill="#007171" stroke-width="0"/><path d="m930,169.05s11.48,86.56-3.94,185.61c-9.52,61.13-22.28,127.35-53.82,183.29l-16.76-6.01s83.23-158.97,66.65-362.57l7.87-.31Z" fill="#007171" stroke-width="0"/><path d="m387.33,131.47s15.72-18.6,38.49-6.96c20.26,10.36,21.61,41.87,21.61,41.87,0,0-13.56-13.06-15-13.9l1.02-6.05-2.53,5.12s-12.27-8.99-13.48-9.34l.78-6.45-3.1,5.27-10.61-3.21.74-4.43-2.49,3.18-15.42-5.09Z" fill="#007171" stroke-width="0"/><path d="m388.91,129.71s22.74,7.66,28.01,25.11c5.27,17.45-14.98,40.38-14.98,40.38,0,0,3.02-11.54,2.88-15.78l3.7-2.6h-4.07s-2.18-11.73-3.54-14.51l2.58-2.5-3.52,1s-3.72-8.42-6.96-12.62l-6.98-8.44,2.89-10.03Z" fill="#007171" stroke-width="0"/><path d="m392.42,137.2l-6.94-7.47s-24.4-4.04-35.86,8.99c-11.46,13.04-7.9,38.56-7.9,38.56,0,0,6.97-14.09,10.3-16.73l-2.68-1.27,4.71-.96s8.73-10.06,12.48-11.2l-4.83-2.84,7.05.85s9.48-8.35,15.17-6.86c5.69,1.5,8.5-1.08,8.5-1.08Z" fill="#007171" stroke-width="0"/><path d="m390.77,130.12s12.58-17.76,5.82-30.2c-6.76-12.44-40.15-14.72-40.15-14.72,0,0,13.85,7.91,17.38,16.87l6.96.71-4.94,2.09,4.7,7.39,6.48-.3-5.08,4.06s6.98,6.35,5.76,17.2l.92,1.75,2.15-4.83Z" fill="#007171" stroke-width="0"/><path d="m388.88,130.62s-8.3-20.88-23.3-25.83c-15-4.96-35.71,8.41-42.15,24.77l17.87-5.45,2.24-4.68,1.67,5.08,7.48-.29,2.26-6.68,1.04,6.05,11.06,2.29,2.27-4.8-1.45,5.51s12.92,2.4,19.45,9.01l1.56-4.98Z" fill="#007171" stroke-width="0"/><path d="m382.67,128.96s-36.97,79.11-52.05,178.2c-9.3,61.16-17.04,128.16-3.78,190.99l17.79-.69s-31.58-176.64,45.45-365.83l-7.42-2.66Z" fill="#007171" stroke-width="0"/><path d="m287.08,436.16c.02.81-.24,1.62-.74,2.27" fill="#008694" stroke-width="0"/><path d="m896.8,390.98c-.64-4.97-3.04-9.52-4.6-14.29-1.9-5.82-2.55-12.04-1.88-18.13.22,7.21,4.5,13.82,4.74,21.03.08,2.43-.3,4.85-.17,7.27.13,2.42.89,4.97,2.77,6.5" fill="#008694" stroke-width="0"/><path d="m336.36,418.58c.13-7.24,2.14-14.44,5.77-20.7.67,8.19-.66,16.53-3.86,24.1" fill="#008694" stroke-width="0"/></svg>
