<?xml version="1.0" encoding="utf-8"?>
<!-- Generator: Adobe Illustrator 28.0.0, SVG Export Plug-In . SVG Version: 6.00 Build 0)  -->
<svg version="1.1" id="Calque_1" xmlns="http://www.w3.org/2000/svg" xmlns:xlink="http://www.w3.org/1999/xlink" x="0px" y="0px"
	 viewBox="0 0 1178.3 604.3" enable-background="new 0 0 1178.3 604.3" xml:space="preserve">
<rect fill="none" width="1177" height="603"/>
<path opacity="0.7" fill="#3EF7E9" enable-background="new    " d="M1149.7,360c-22.5,1.7-86.2,3.2-144.4,4.4
	c-5.7,0.1-9.8,5.3-8.8,10.9c4.2,22,6.4,44.8,6.4,68c0,10.3-0.4,20.5-1.3,30.6H278.1c-0.8-10.1-1.3-20.3-1.3-30.6
	c0-200.5,162.5-363,363-363c28.3,0,55.9,3.2,82.4,9.4c-38,2.6-104.7,7.3-105.7,8.8c-1.3,2.2-2.2,5.3,7.9,5.3c6.9,0,78-4.5,122.8-7.3
	c11,3.4,21.7,7.3,32.2,11.6c53-2.7,136.4-6.9,139-7c6.2-0.2,11.1,2.7-2.5,3.7c-7.4,0.5-64.1,3.8-109.3,6.3c-4.7,0.3-6,6.6-1.8,8.7
	c20,10.2,38.9,22.2,56.5,35.8c-91.5,5.6-279.4,19.4-281.6,19.9c-9.2,2-9.7,10.5,19,9.9c7-0.1,152-6.9,253.1-11.7
	c20.1-1,39.6,7.1,53.3,21.8c6.7,7.2,13.2,14.7,19.3,22.5c43.8-2.2,162.9-8.2,165.9-8.4c6.2-0.2,11.1,2.7-2.5,3.7
	c-10.1,0.7-104.9,6-152.4,8.6c-4.1,0.2-5.5,3.1-3,6.5c2.7,3.7,5.4,7.5,8,11.3c47.2-0.6,82.4-1,84.6-0.7c6.9,1,27.2,6.4-18.1,9.9
	c-11.3,0.9-32.8,1.7-58.9,2.4c0,0-122.3,3.5-123.8,6.9c-1.5,3.5,4.6,6.4,14.2,7.1c6.4,0.5,63.7-1.7,101.1-3.3
	c9.2-0.4,17.7,4.6,21.9,12.7c1.8,3.4,3.5,6.7,5.1,10.1c21.7-1,51.6-2.5,53.9-2.6c6.2-0.2,11.2,2.7-2.5,3.7
	c-6.6,0.5-25.4,2.1-41.2,3.1c-4.3,0.3-6.5,3.8-4.7,7.7c3,6.8,5.8,13.6,8.4,20.6c53.1-0.7,94.2-1.2,96.5-0.8c6.9,1,27.2,6.5-18.1,9.9
	c-11.6,0.9-38.1,1-65.4,1.7c-5,0.1-7.8,4.1-6.4,8.9c1.5,5,2.9,10,4.2,15c85.9-1.3,173-2.5,176.5-2C1174.8,351,1195,356.5,1149.7,360
	L1149.7,360z"/>
<path fill="#008694" d="M412.8,203.3c2.2-1.1,4.5-1.7,6.9-2.2c2.4-0.4,4.8-0.7,7.3-0.6c2.5,0.1,5,0.5,7.4,1.3
	c2.4,0.8,4.8,2.1,6.8,3.6l-3.6,1.7c0-0.8,0.1-1.4,0.2-2.1c0.1-0.7,0.2-1.4,0.4-2c0.3-1.3,0.6-2.7,1.1-3.9c1-2.6,2.3-5,4.2-7.1
	c1.8-2.1,4.1-3.8,6.6-4.8c1.3-0.5,2.5-0.9,3.8-1.1c1.3-0.3,2.6-0.3,3.9-0.3c-1.2,0.5-2.4,0.9-3.5,1.5c-1.1,0.5-2.2,1.2-3.2,1.9
	s-1.9,1.5-2.7,2.3c-0.8,0.9-1.6,1.8-2.2,2.7c-1.3,1.9-2.3,4.1-3,6.3c-0.3,1.1-0.6,2.3-0.9,3.4c-0.1,0.6-0.2,1.2-0.3,1.7
	c-0.1,0.6-0.1,1.2-0.1,1.7l0,4.6l-3.6-2.9c-1.6-1.3-3.5-2.4-5.5-3.2c-2-0.9-4.1-1.4-6.3-1.8C422.2,203.2,417.6,203.1,412.8,203.3
	L412.8,203.3z"/>
<path fill="#008694" d="M613.3,221.3c2.2-1.1,4.5-1.7,6.9-2.2c2.4-0.4,4.8-0.7,7.3-0.6c2.5,0.1,5,0.5,7.4,1.3
	c2.4,0.8,4.8,2.1,6.8,3.6l-3.7,1.8c0-0.8,0.1-1.4,0.2-2.1c0.1-0.7,0.2-1.4,0.3-2c0.3-1.3,0.6-2.6,1.1-3.9c1-2.5,2.3-5,4.2-7
	c1.8-2.1,4.1-3.7,6.6-4.7c1.3-0.5,2.5-0.9,3.8-1.1c1.3-0.2,2.6-0.3,3.9-0.3c-1.2,0.4-2.4,0.9-3.5,1.5c-1.1,0.5-2.2,1.2-3.1,1.9
	c-1,0.7-1.9,1.4-2.7,2.3c-0.8,0.9-1.5,1.7-2.2,2.7c-1.2,1.9-2.3,4-2.9,6.2c-0.3,1.1-0.6,2.2-0.8,3.4c-0.1,0.6-0.2,1.1-0.2,1.7
	c-0.1,0.6-0.1,1.2-0.1,1.6v4.7l-3.7-3c-1.6-1.3-3.5-2.4-5.5-3.2c-2-0.9-4.1-1.4-6.3-1.8C622.7,221.3,618.1,221.1,613.3,221.3
	L613.3,221.3z"/>
<path fill="#008694" d="M466,10.2c2.3-0.7,4.7-0.9,7.2-1c2.4,0,4.9,0.2,7.3,0.7c2.4,0.5,4.8,1.4,7.1,2.6c2.2,1.2,4.3,2.9,6.1,4.8
	l-3.9,1.1c0.2-0.8,0.4-1.4,0.6-2.1c0.2-0.6,0.4-1.3,0.7-1.9c0.5-1.3,1.1-2.5,1.8-3.7c1.4-2.3,3.1-4.5,5.3-6.2
	c2.1-1.7,4.7-2.9,7.3-3.5c1.3-0.2,2.6-0.4,3.9-0.4c1.3,0,2.6,0.2,3.8,0.4c-1.3,0.2-2.5,0.5-3.7,0.8c-1.2,0.3-2.3,0.8-3.4,1.3
	c-1.1,0.5-2.1,1.1-3,1.8c-0.9,0.7-1.8,1.4-2.6,2.3c-1.6,1.7-2.9,3.6-4,5.6c-0.5,1-1,2.1-1.4,3.2c-0.2,0.5-0.4,1.1-0.5,1.6
	c-0.1,0.5-0.3,1.1-0.4,1.6l-0.8,4.7l-3.1-3.6c-1.4-1.6-3-3-4.8-4.1c-1.8-1.2-3.8-2.1-5.9-2.9C475.2,11.8,470.7,10.9,466,10.2
	L466,10.2z"/>
<path fill="#008694" d="M718.7,109.3c1.4-0.1,2.8,0.1,4.2,0.3c1.4,0.3,2.8,0.7,4.1,1.3c1.3,0.6,2.6,1.4,3.8,2.3
	c1.1,1,2.1,2.2,2.9,3.5l-2.3,0.1c0.2-0.4,0.4-0.8,0.6-1.1c0.2-0.3,0.4-0.7,0.6-1c0.5-0.7,0.9-1.3,1.5-1.9c1.1-1.2,2.4-2.2,3.8-2.9
	c1.4-0.8,3-1.1,4.6-1.2c0.8,0,1.6,0,2.3,0.2c0.8,0.1,1.5,0.4,2.2,0.7c-0.8,0-1.5,0-2.2,0c-0.7,0.1-1.4,0.2-2.1,0.3
	c-0.7,0.2-1.3,0.4-2,0.7c-0.6,0.3-1.2,0.6-1.8,1c-1.1,0.8-2.1,1.7-3,2.8c-0.4,0.5-0.8,1.1-1.2,1.7c-0.2,0.3-0.4,0.6-0.5,0.9
	c-0.2,0.3-0.3,0.6-0.4,0.9l-1,2.5l-1.3-2.4c-0.6-1.1-1.4-2-2.3-2.9c-0.9-0.9-2-1.6-3-2.3C723.8,111.3,721.3,110.3,718.7,109.3
	L718.7,109.3z"/>
<path fill="#008694" d="M810.7,147.5c1.4-0.3,2.8-0.4,4.2-0.4c1.4,0.1,2.8,0.2,4.2,0.6c1.4,0.4,2.8,0.9,4.1,1.7
	c1.3,0.8,2.4,1.8,3.4,3l-2.3,0.5c0.1-0.5,0.2-0.8,0.4-1.2s0.3-0.7,0.5-1.1c0.3-0.7,0.7-1.4,1.1-2.1c0.9-1.3,2-2.6,3.3-3.5
	c1.3-0.9,2.8-1.6,4.4-1.8c0.8-0.1,1.5-0.2,2.3-0.1c0.8,0,1.5,0.2,2.2,0.3c-0.7,0.1-1.5,0.2-2.2,0.4c-0.7,0.2-1.4,0.4-2,0.6
	c-0.6,0.3-1.3,0.6-1.8,0.9c-0.6,0.4-1.1,0.8-1.6,1.2c-1,0.9-1.8,2-2.5,3.2c-0.3,0.6-0.6,1.2-0.9,1.8c-0.1,0.3-0.2,0.6-0.4,0.9
	c-0.1,0.3-0.2,0.7-0.3,0.9l-0.6,2.7l-1.7-2.2c-0.8-1-1.7-1.8-2.7-2.5c-1-0.8-2.2-1.3-3.4-1.9C816.1,148.8,813.5,148.1,810.7,147.5
	L810.7,147.5z"/>
<path fill="#007171" d="M309,213.3c0,0-12.2-14.1-29.5-5.1c-15.5,8.1-16.3,32.2-16.3,32.2s10.3-10.1,11.4-10.8l-0.8-4.6l2,3.9
	c0,0,9.3-7,10.3-7.2l-0.6-4.9l2.4,4l8.1-2.5l-0.6-3.4l1.9,2.4L309,213.3L309,213.3z"/>
<path fill="#007171" d="M307.8,211.9c0,0-17.4,6-21.3,19.4c-3.9,13.4,11.8,30.8,11.8,30.8s-2.4-8.8-2.3-12.1l-2.9-2l3.1,0
	c0,0,1.6-9,2.6-11.1l-2-1.9l2.7,0.7c0,0,2.8-6.5,5.2-9.7l5.3-6.5L307.8,211.9L307.8,211.9z"/>
<path fill="#007171" d="M305.2,217.7l5.3-5.8c0,0,18.7-3.3,27.5,6.6c8.9,9.9,6.3,29.5,6.3,29.5s-5.4-10.8-8-12.8l2-1l-3.6-0.7
	c0,0-6.8-7.6-9.6-8.5l3.7-2.2l-5.4,0.7c0,0-7.3-6.3-11.7-5.1S305.2,217.7,305.2,217.7L305.2,217.7z"/>
<path fill="#007171" d="M306.4,212.3c0,0-9.8-13.5-4.7-23.1c5.1-9.6,30.7-11.6,30.7-11.6s-10.6,6.2-13.2,13.1l-5.3,0.6l3.8,1.6
	l-3.5,5.7l-5-0.2l3.9,3.1c0,0-5.3,4.9-4.3,13.2l-0.7,1.4L306.4,212.3L306.4,212.3z"/>
<path fill="#007171" d="M307.9,212.6c0,0,6.2-16.1,17.7-20c11.5-3.9,27.4,6.2,32.5,18.7l-13.7-4.1l-1.8-3.6l-1.2,3.9l-5.7-0.2
	l-1.8-5.1L333,207l-8.5,1.8l-1.8-3.7l1.1,4.2c0,0-9.9,1.9-14.9,7L307.9,212.6L307.9,212.6z"/>
<path fill="#007171" d="M312.6,211.3c0,0,28.9,60.4,41.1,136.3c7.5,46.8,13.9,98.1,4.2,146.4l-13.6-0.4c0,0,23-135.6-37.3-280.1
	L312.6,211.3L312.6,211.3z"/>
<g opacity="0.9">
	<path fill="#008694" d="M339.4,100.3c0,0,15.9-18.5,38.5-6.6c20.2,10.5,21.2,42.1,21.2,42.1s-13.4-13.2-14.9-14l1.1-6l-2.6,5.1
		c0,0-12.2-9.1-13.4-9.5l0.8-6.4l-3.1,5.2l-10.6-3.3l0.8-4.4l-2.5,3.2L339.4,100.3L339.4,100.3z"/>
	<path fill="#008694" d="M341,98.6c0,0,22.7,7.9,27.8,25.4c5.1,17.5-15.3,40.2-15.3,40.2s3.1-11.5,3-15.8l3.7-2.6l-4.1,0
		c0,0-2.1-11.7-3.4-14.5l2.6-2.5l-3.5,1c0,0-3.6-8.5-6.9-12.7l-6.9-8.5L341,98.6L341,98.6z"/>
	<path fill="#008694" d="M344.5,106.1l-6.9-7.5c0,0-24.4-4.3-35.9,8.7s-8.2,38.5-8.2,38.5s7.1-14,10.5-16.6l-2.7-1.3l4.7-0.9
		c0,0,8.8-10,12.6-11.1l-4.8-2.9l7,0.9c0,0,9.5-8.3,15.2-6.7C341.6,108.7,344.5,106.1,344.5,106.1L344.5,106.1z"/>
	<path fill="#008694" d="M342.9,99c0,0,12.7-17.7,6.1-30.2s-40-15.1-40-15.1s13.8,8,17.2,17l7,0.8l-5,2l4.6,7.4l6.5-0.2l-5.1,4
		c0,0,6.9,6.4,5.6,17.2l0.9,1.8L342.9,99L342.9,99z"/>
	<path fill="#008694" d="M341,99.5c0,0-8.1-20.9-23.1-26c-15-5.1-35.8,8.1-42.4,24.4l17.9-5.3l2.3-4.7l1.6,5.1l7.5-0.2l2.3-6.7
		l1,6.1l11,2.4l2.3-4.8l-1.5,5.5c0,0,12.9,2.5,19.4,9.2L341,99.5L341,99.5z"/>
	<path fill="#008694" d="M334.8,97.8c0,0-37.7,78.8-53.6,177.7c-9.9,61.1-18.2,128-5.5,190.9l17.8-0.5c0,0-30-176.9,48.7-365.4
		L334.8,97.8L334.8,97.8z"/>
</g>
<path fill="#007171" d="M292.3,348.5c0,0-8.4-11.5-22.2-5.5c-12.2,5.2-14.2,23.6-14.2,23.6s8.4-7.1,9.3-7.5l-0.4-3.6l1.3,3.1
	c0,0,7.5-4.8,8.2-4.9l-0.2-3.8l1.6,3.2l6.3-1.5l-0.3-2.6l1.3,2L292.3,348.5L292.3,348.5z"/>
<path fill="#007171" d="M291.5,347.4c0,0-13.5,3.6-17.3,13.5c-3.8,10,7.2,24.1,7.2,24.1s-1.3-6.8-1.1-9.3l-2-1.7l2.4,0.1
	c0,0,1.7-6.7,2.6-8.3l-1.4-1.6l2,0.7c0,0,2.5-4.8,4.5-7.1l4.4-4.6L291.5,347.4L291.5,347.4z"/>
<path fill="#007171" d="M289.1,351.6l4.3-4.1c0,0,14.4-1.4,20.5,6.6c6.2,8,3.1,22.8,3.1,22.8s-3.5-8.5-5.4-10.1l1.6-0.6l-2.7-0.7
	c0,0-4.7-6.2-6.8-7l2.9-1.5l-4.1,0.2c0,0-5.2-5.2-8.6-4.6C290.6,353.2,289.1,351.6,289.1,351.6L289.1,351.6z"/>
<path fill="#007171" d="M290.4,347.6c0,0-6.6-10.8-2.2-17.8s24-7,24-7s-8.4,4.1-10.8,9.2l-4.1,0.1l2.8,1.4l-3,4.1l-3.8-0.4l2.8,2.6
	c0,0-4.3,3.4-4,9.8l-0.6,1L290.4,347.6L290.4,347.6z"/>
<path fill="#007171" d="M291.4,347.9c0,0,5.6-11.9,14.6-14.1c8.9-2.3,20.5,6.3,23.6,16.1l-10.2-3.9l-1.1-2.8l-1.2,2.9l-4.4-0.5
	l-1.1-4l-0.8,3.5l-6.5,0.9l-1.1-2.9l0.6,3.3c0,0-7.6,0.9-11.7,4.5L291.4,347.9L291.4,347.9z"/>
<path fill="#007171" d="M295.1,347.2c0,0,18.5,47.5,23.4,105.9c3,36,5,75.4-5.2,111.5l-10.3-1.1c0,0,25.2-101.7-12.3-215
	L295.1,347.2z"/>
<g opacity="0.9">
	<path fill="#008694" d="M966.5,340.4c0,0-4.3-13.5-19.2-12.4c-13.2,1.1-21,17.8-21,17.8s10.2-4,11.2-4.1l0.8-3.5l0.2,3.3
		c0,0,8.6-2.1,9.4-2l1-3.7l0.5,3.5l6.4,0.6l0.6-2.6l0.6,2.3L966.5,340.4L966.5,340.4z"/>
	<path fill="#008694" d="M966,339.1c0,0-14-1-20.7,7.3c-6.8,8.2-0.9,25.1-0.9,25.1s1-6.9,2-9.2l-1.4-2.2l2.2,0.9c0,0,3.8-5.8,5.2-7
		l-0.8-1.9l1.7,1.3c0,0,3.9-3.7,6.6-5.3l5.7-3L966,339.1L966,339.1z"/>
	<path fill="#008694" d="M962.5,342.3l5.4-2.5c0,0,14.1,3.3,17.3,12.9s-4.4,22.6-4.4,22.6s-0.6-9.2-1.8-11.3l1.7-0.1l-2.3-1.6
		c0,0-2.5-7.4-4.2-8.8l3.2-0.5l-4-1.1c0,0-3.2-6.6-6.7-7.1C963.4,344.4,962.5,342.3,962.5,342.3L962.5,342.3z"/>
	<path fill="#008694" d="M965,338.9c0,0-2.8-12.4,3.6-17.6s25,1,25,1s-9.2,1.2-13.2,5.2l-3.9-1.2l2.2,2.2l-4.2,2.9l-3.4-1.6l1.8,3.3
		c0,0-5.2,1.9-7,8l-0.9,0.7L965,338.9L965,338.9z"/>
	<path fill="#008694" d="M965.8,339.6c0,0,9.2-9.4,18.3-8.7c9.2,0.7,17.4,12.5,17.2,22.8l-8.4-6.9l-0.2-3l-2,2.4l-4-1.8l0.3-4.1
		l-1.9,3l-6.5-1.2l-0.2-3.1l-0.5,3.3c0,0-7.5-1.6-12.5,0.5L965.8,339.6L965.8,339.6z"/>
	<path fill="#008694" d="M969.6,340c0,0,2.3,51-11.8,107.8c-8.7,35.1-19.5,73-40.7,103.9l-9.5-4.3c0,0,56.5-88.3,57.2-207.6
		L969.6,340L969.6,340z"/>
</g>
<path fill="#007171" d="M989.4,181.3c0,0,12.2-14.1,29.5-5.1c15.5,8.1,16.3,32.2,16.3,32.2s-10.3-10.1-11.4-10.8l0.8-4.6l-2,3.9
	c0,0-9.3-7-10.3-7.2l0.6-4.9l-2.4,4l-8.1-2.5l0.6-3.4l-1.9,2.4L989.4,181.3L989.4,181.3z"/>
<path fill="#007171" d="M990.6,180c0,0,17.4,6,21.3,19.4s-11.8,30.9-11.8,30.9s2.4-8.8,2.3-12.1l2.8-2l-3.1,0c0,0-1.6-9-2.6-11.1
	l2-1.9l-2.7,0.7c0,0-2.8-6.5-5.2-9.7l-5.3-6.5L990.6,180L990.6,180z"/>
<path fill="#007171" d="M993.2,185.8L988,180c0,0-18.7-3.3-27.5,6.6c-8.9,9.9-6.3,29.5-6.3,29.5s5.4-10.8,8-12.8l-2-1l3.6-0.7
	c0,0,6.8-7.6,9.7-8.5l-3.7-2.2l5.4,0.7c0,0,7.3-6.3,11.7-5.1S993.2,185.8,993.2,185.8L993.2,185.8z"/>
<path fill="#007171" d="M992,180.3c0,0,9.8-13.5,4.7-23.1c-5.1-9.6-30.7-11.6-30.7-11.6s10.6,6.2,13.2,13.1l5.3,0.6l-3.8,1.6
	l3.5,5.7l5-0.2l-3.9,3.1c0,0,5.3,4.9,4.3,13.2l0.7,1.4L992,180.3L992,180.3z"/>
<path fill="#007171" d="M990.6,180.7c0,0-6.2-16.1-17.7-20c-11.5-3.9-27.4,6.2-32.5,18.7l13.7-4.1l1.8-3.6l1.2,3.9l5.7-0.2l1.8-5.1
	l0.8,4.6l8.5,1.8l1.8-3.7l-1.2,4.2c0,0,9.9,1.9,14.8,7L990.6,180.7L990.6,180.7z"/>
<path fill="#007171" d="M985.8,179.4c0,0-28.9,60.4-41.1,136.2c-7.5,46.8-13.9,98.1-4.2,146.4l13.6-0.4c0,0-23-135.6,37.3-280.1
	L985.8,179.4L985.8,179.4z"/>
<g opacity="0.9">
	<path fill="#008694" d="M929.3,107.2c0,0-15.9-18.5-38.5-6.6c-20.2,10.5-21.2,42.1-21.2,42.1s13.4-13.2,14.9-14l-1.1-6l2.6,5.1
		c0,0,12.2-9.1,13.4-9.5l-0.8-6.4l3.2,5.2l10.6-3.3l-0.8-4.4l2.5,3.2L929.3,107.2L929.3,107.2z"/>
	<path fill="#008694" d="M927.7,105.4c0,0-22.7,7.9-27.8,25.4c-5.1,17.5,15.3,40.2,15.3,40.2s-3.1-11.5-3-15.8l-3.7-2.6l4.1,0
		c0,0,2.1-11.7,3.4-14.5l-2.6-2.5l3.5,1c0,0,3.6-8.5,6.8-12.7l6.9-8.5L927.7,105.4L927.7,105.4z"/>
	<path fill="#008694" d="M924.3,112.9l6.9-7.5c0,0,24.4-4.3,35.9,8.7s8.2,38.5,8.2,38.5s-7.1-14-10.5-16.6l2.7-1.3l-4.7-0.9
		c0,0-8.8-10-12.6-11.1l4.8-2.9l-7,0.9c0,0-9.5-8.3-15.2-6.7C927.1,115.5,924.3,112.9,924.3,112.9L924.3,112.9z"/>
	<path fill="#008694" d="M925.9,105.8c0,0-12.7-17.7-6.1-30.2c6.7-12.5,40-15.1,40-15.1s-13.8,8-17.2,17l-7,0.8l5,2l-4.6,7.4
		l-6.5-0.2l5.1,4c0,0-6.9,6.4-5.6,17.2l-0.9,1.8L925.9,105.8L925.9,105.8z"/>
	<path fill="#008694" d="M927.8,106.3c0,0,8.1-21,23.1-26s35.8,8.1,42.4,24.4l-17.9-5.3l-2.3-4.7l-1.6,5.1l-7.5-0.2l-2.3-6.7l-1,6.1
		l-11,2.4l-2.3-4.8l1.5,5.5c0,0-12.9,2.5-19.4,9.2L927.8,106.3L927.8,106.3z"/>
	<path fill="#008694" d="M934,104.6c0,0,37.7,78.8,53.6,177.7c9.8,61.1,18.2,128,5.5,190.9l-17.8-0.5c0,0,30-176.9-48.7-365.4
		L934,104.6L934,104.6z"/>
</g>
<path fill="#007171" d="M392.3,236c0,0,9.6-11.5,23.7-4.4c12.5,6.3,13.5,25.8,13.5,25.8s-8.4-8-9.3-8.5l0.6-3.7l-1.5,3.2
	c0,0-7.6-5.5-8.4-5.7l0.5-4l-1.9,3.3l-6.6-1.9l0.4-2.7l-1.5,2L392.3,236L392.3,236z"/>
<path fill="#007171" d="M393.3,234.9c0,0,14.1,4.6,17.4,15.4s-9.1,25-9.1,25s1.8-7.1,1.7-9.8l2.3-1.6H403c0,0-1.4-7.2-2.2-8.9
	l1.6-1.6l-2.2,0.6c0,0-2.3-5.2-4.3-7.8l-4.3-5.2L393.3,234.9L393.3,234.9z"/>
<path fill="#007171" d="M395.5,239.5l-4.3-4.6c0,0-15.1-2.4-22.1,5.7s-4.7,23.8-4.7,23.8s4.3-8.7,6.3-10.4l-1.7-0.8l2.9-0.6
	c0,0,5.4-6.2,7.7-7l-3-1.7l4.4,0.5c0,0,5.8-5.2,9.3-4.3C393.8,241.1,395.5,239.5,395.5,239.5L395.5,239.5z"/>
<path fill="#007171" d="M394.5,235.2c0,0,7.7-11,3.5-18.7s-24.8-8.9-24.8-8.9s8.6,4.8,10.8,10.4l4.3,0.4l-3,1.3l2.9,4.5l4-0.2
	l-3.1,2.5c0,0,4.3,3.9,3.6,10.6l0.6,1.1L394.5,235.2L394.5,235.2z"/>
<path fill="#007171" d="M393.3,235.5c0,0-5.2-12.9-14.5-15.9s-22,5.3-25.9,15.4l11-3.4l1.4-2.9l1,3.1l4.6-0.2l1.4-4.1l0.7,3.7
	l6.8,1.4l1.4-3l-0.9,3.4c0,0,8,1.4,12,5.5L393.3,235.5L393.3,235.5z"/>
<path fill="#007171" d="M389.4,234.5c0,0-22.5,49-31.5,110.2c-5.5,37.8-10.1,79.2-1.7,117.9l11-0.5c0,0-20.1-109,26.8-226
	L389.4,234.5L389.4,234.5z"/>
<g opacity="0.9">
	<path fill="#008694" d="M365.3,282.2c0,0,8.1-11,21.2-5.3c11.7,5,13.6,22.6,13.6,22.6s-8-6.8-8.9-7.2l0.4-3.4l-1.2,3
		c0,0-7.2-4.6-7.9-4.7l0.2-3.6l-1.5,3.1l-6-1.4l0.2-2.5l-1.3,1.9L365.3,282.2L365.3,282.2z"/>
	<path fill="#008694" d="M366.1,281.2c0,0,13,3.4,16.6,13c3.6,9.5-6.9,23.1-6.9,23.1s1.3-6.6,1-8.9l2-1.6l-2.3,0.1
		c0,0-1.6-6.5-2.5-8l1.4-1.5l-1.9,0.7c0,0-2.4-4.6-4.4-6.8l-4.2-4.5L366.1,281.2L366.1,281.2z"/>
	<path fill="#008694" d="M368.4,285.3l-4.1-3.9c0,0-13.8-1.4-19.7,6.3c-5.9,7.7-3,21.8-3,21.8s3.4-8.1,5.1-9.7l-1.5-0.6l2.6-0.7
		c0,0,4.5-5.9,6.6-6.7l-2.8-1.4l4,0.2c0,0,5-5,8.2-4.4C366.9,286.8,368.4,285.3,368.4,285.3L368.4,285.3z"/>
	<path fill="#008694" d="M367.2,281.4c0,0,6.4-10.4,2.1-17.1c-4.2-6.7-23-6.7-23-6.7s8,3.9,10.3,8.8l3.9,0.1l-2.7,1.4l2.9,4l3.6-0.4
		l-2.7,2.5c0,0,4.1,3.3,3.9,9.4l0.6,0.9L367.2,281.4L367.2,281.4z"/>
	<path fill="#008694" d="M366.1,281.7c0,0-5.4-11.4-14-13.6s-19.6,6-22.6,15.4l9.8-3.7l1.1-2.7l1.1,2.8l4.2-0.4l1-3.8l0.8,3.3
		l6.3,0.9l1.1-2.8l-0.6,3.1c0,0,7.3,0.9,11.2,4.3L366.1,281.7L366.1,281.7z"/>
	<path fill="#008694" d="M362.6,281c0,0-17.7,45.5-22.5,101.4c-3,34.5-4.8,72.2,4.9,106.8l9.9-1c0,0-24.1-97.5,12-206L362.6,281
		L362.6,281z"/>
</g>
<path fill="#007171" d="M862.3,291.1c0,0-7.8-10.7-20.6-5.3c-11.4,4.8-13.3,21.8-13.3,21.8s7.8-6.5,8.7-7l-0.3-3.3l1.2,2.9
	c0,0,7-4.4,7.7-4.5l-0.2-3.5l1.5,3l5.9-1.3l-0.2-2.4l1.2,1.8L862.3,291.1L862.3,291.1z"/>
<path fill="#007171" d="M861.5,290.1c0,0-12.6,3.3-16.2,12.5s6.5,22.5,6.5,22.5s-1.2-6.4-1-8.7l-1.9-1.5l2.2,0.1
	c0,0,1.6-6.3,2.5-7.7l-1.3-1.5l1.9,0.7c0,0,2.3-4.4,4.3-6.6l4.1-4.3L861.5,290.1L861.5,290.1z"/>
<path fill="#007171" d="M859.3,294l4-3.8c0,0,13.4-1.2,19.1,6.3c5.7,7.5,2.8,21.2,2.8,21.2s-3.2-7.9-4.9-9.5l1.5-0.6l-2.5-0.7
	c0,0-4.3-5.8-6.3-6.5l2.7-1.4l-3.8,0.2c0,0-4.8-4.9-8-4.3C860.7,295.5,859.3,294,859.3,294L859.3,294z"/>
<path fill="#007171" d="M860.5,290.2c0,0-6.1-10.1-2-16.6c4.2-6.5,22.3-6.4,22.3-6.4s-7.8,3.8-10.1,8.5l-3.8,0.1l2.6,1.3l-2.8,3.8
	l-3.5-0.4l2.6,2.4c0,0-4,3.2-3.8,9.1l-0.6,0.9L860.5,290.2L860.5,290.2z"/>
<path fill="#007171" d="M861.5,290.6c0,0,5.3-11,13.6-13.1s19,5.9,21.9,15.1l-9.5-3.6l-1-2.6l-1.1,2.7l-4-0.5l-1-3.7l-0.8,3.2
	l-6.1,0.8l-1-2.7l0.6,3c0,0-7.1,0.8-10.9,4.1L861.5,290.6L861.5,290.6z"/>
<path fill="#007171" d="M864.9,289.9c0,0,17,44.3,21.3,98.6c2.7,33.5,4.2,70.1-5.4,103.6l-9.6-1.1c0,0,24-94.5-10.4-200L864.9,289.9
	z"/>
<g opacity="0.9">
	<path fill="#008694" d="M893.7,240.3c0,0-9.5-10.6-22.6-3.4c-11.7,6.4-11.9,24.8-11.9,24.8s7.7-7.9,8.5-8.4l-0.7-3.5l1.6,2.9
		c0,0,7-5.5,7.7-5.7l-0.6-3.8l1.9,3l6.1-2.1l-0.5-2.6l1.5,1.8L893.7,240.3L893.7,240.3z"/>
	<path fill="#008694" d="M892.8,239.3c0,0-13.2,4.9-15.9,15.1c-2.8,10.3,9.4,23.3,9.4,23.3s-2-6.7-2-9.2l-2.2-1.5l2.4-0.1
		c0,0,1.1-6.9,1.8-8.5l-1.5-1.4l2.1,0.5c0,0,2-5,3.8-7.5l3.9-5.1L892.8,239.3L892.8,239.3z"/>
	<path fill="#008694" d="M890.9,243.7l3.9-4.5c0,0,14.2-2.8,21.1,4.6c6.9,7.4,5.3,22.4,5.3,22.4s-4.3-8.1-6.3-9.6l1.5-0.8l-2.8-0.5
		c0,0-5.3-5.7-7.5-6.3l2.8-1.7l-4.1,0.6c0,0-5.7-4.7-9-3.8S890.9,243.7,890.9,243.7L890.9,243.7z"/>
	<path fill="#008694" d="M891.7,239.6c0,0-7.7-10.2-3.9-17.5c3.7-7.4,23.2-9.3,23.2-9.3s-8,4.9-9.9,10.1l-4,0.5l2.9,1.1l-2.6,4.4
		l-3.8-0.1l3,2.3c0,0-4,3.8-3.1,10.1l-0.5,1L891.7,239.6L891.7,239.6z"/>
	<path fill="#008694" d="M892.8,239.8c0,0,4.5-12.3,13.2-15.5s21,4.3,25,13.8l-10.5-2.9l-1.4-2.7l-0.9,3l-4.4,0l-1.4-3.9l-0.5,3.6
		l-6.4,1.5l-1.4-2.8l0.9,3.2c0,0-7.5,1.6-11.2,5.6L892.8,239.8L892.8,239.8z"/>
	<path fill="#008694" d="M896.4,238.8c0,0,22.9,45.6,33.4,103.2c6.5,35.5,12.1,74.5,5.4,111.5l-10.4-0.1c0,0,15.5-103.7-32.7-212.8
		L896.4,238.8L896.4,238.8z"/>
</g>
<g opacity="0.9">
	<path fill="#008694" d="M397.5,354.4c0,0-4.3-13.5-19.2-12.4c-13.2,1.1-21,17.8-21,17.8s10.2-4,11.2-4.1l0.8-3.5l0.2,3.3
		c0,0,8.6-2.1,9.4-2l1-3.7l0.5,3.5l6.4,0.6l0.6-2.6l0.6,2.3L397.5,354.4L397.5,354.4z"/>
	<path fill="#008694" d="M397.1,353.1c0,0-14-1-20.7,7.3c-6.8,8.2-0.9,25.1-0.9,25.1s1-6.9,2-9.2l-1.4-2.2l2.2,0.9
		c0,0,3.8-5.8,5.1-7l-0.8-1.9l1.7,1.3c0,0,3.9-3.7,6.6-5.2l5.6-3L397.1,353.1L397.1,353.1z"/>
	<path fill="#008694" d="M393.5,356.4l5.4-2.5c0,0,14.1,3.3,17.3,12.9s-4.4,22.6-4.4,22.6s-0.6-9.2-1.8-11.3l1.7-0.1l-2.3-1.6
		c0,0-2.5-7.4-4.2-8.8l3.2-0.5l-4-1.1c0,0-3.2-6.6-6.6-7.1C394.4,358.4,393.5,356.4,393.5,356.4L393.5,356.4z"/>
	<path fill="#008694" d="M396,352.9c0,0-2.8-12.4,3.6-17.6s25,1,25,1s-9.2,1.2-13.1,5.2l-3.9-1.2l2.2,2.2l-4.2,2.9l-3.4-1.6l1.8,3.3
		c0,0-5.2,1.9-7,8L396,356L396,352.9L396,352.9z"/>
	<path fill="#008694" d="M396.9,353.6c0,0,9.1-9.4,18.4-8.7s17.4,12.5,17.2,22.8l-8.4-6.9l-0.2-3l-2,2.4l-4-1.8l0.3-4.1l-1.9,3
		l-6.5-1.2l-0.1-3.1l-0.5,3.3c0,0-7.5-1.6-12.5,0.5L396.9,353.6L396.9,353.6z"/>
	<path fill="#008694" d="M400.6,354.1c0,0,2.3,51-11.8,107.8c-8.6,35.1-19.5,73-40.6,103.9l-9.5-4.3c0,0,56.5-88.3,57.2-207.6
		L400.6,354.1L400.6,354.1z"/>
</g>
<g opacity="0.9">
	<path fill="#008694" d="M873.7,392.9c0,0,4.3-13.5,19.2-12.4c13.2,1.1,21,17.8,21,17.8s-10.2-4-11.2-4.1l-0.8-3.5l-0.2,3.3
		c0,0-8.6-2.1-9.4-2l-1-3.7l-0.5,3.5l-6.4,0.6l-0.6-2.6l-0.6,2.3L873.7,392.9L873.7,392.9z"/>
	<path fill="#008694" d="M874.2,391.6c0,0,14-1,20.7,7.3c6.8,8.2,0.9,25.1,0.9,25.1s-1-6.9-2-9.2l1.4-2.2l-2.2,0.9
		c0,0-3.8-5.8-5.2-7l0.8-1.9l-1.7,1.3c0,0-3.9-3.7-6.6-5.2l-5.7-3L874.2,391.6L874.2,391.6z"/>
	<path fill="#008694" d="M877.7,394.9l-5.4-2.5c0,0-14.1,3.3-17.3,12.9s4.4,22.6,4.4,22.6s0.6-9.2,1.8-11.3l-1.7-0.1l2.3-1.6
		c0,0,2.5-7.4,4.2-8.8l-3.2-0.5l4-1.1c0,0,3.2-6.6,6.7-7.1C876.8,396.9,877.8,394.9,877.7,394.9L877.7,394.9z"/>
	<path fill="#008694" d="M875.3,391.4c0,0,2.8-12.4-3.6-17.6s-25,1-25,1s9.2,1.2,13.2,5.2l3.9-1.2l-2.2,2.2l4.2,2.9l3.4-1.6
		l-1.8,3.3c0,0,5.2,1.9,7,8l0.9,0.7L875.3,391.4L875.3,391.4z"/>
	<path fill="#008694" d="M874.4,392.1c0,0-9.2-9.4-18.3-8.7c-9.2,0.7-17.4,12.5-17.2,22.8l8.4-6.9l0.2-3l2,2.4l4-1.8l-0.3-4.1l1.9,3
		l6.5-1.2l0.2-3.1l0.5,3.3c0,0,7.5-1.6,12.5,0.5L874.4,392.1L874.4,392.1z"/>
	<path fill="#008694" d="M870.6,392.6c0,0-2.3,51,11.8,107.8c8.7,35.1,19.5,73,40.7,103.9l9.5-4.3c0,0-56.5-88.3-57.2-207.6
		L870.6,392.6L870.6,392.6z"/>
</g>
<path fill="#007171" d="M924.8,170c0,0-9.4-22.5-34.6-18.2c-22.4,3.8-33.2,33.4-33.2,33.4s16.9-8.4,18.5-8.8l0.8-6.1l0.9,5.6
	c0,0,14.4-4.9,15.7-4.9l1.2-6.4l1.4,6l11.1,0.1l0.6-4.4l1.4,3.8L924.8,170L924.8,170z"/>
<path fill="#007171" d="M923.8,167.9c0,0-24,0.5-34.3,15.5s2.2,43,2.2,43s0.6-11.9,2-15.9l-2.7-3.6l3.9,1.2c0,0,5.6-10.5,7.7-12.8
	l-1.7-3.2l3.1,2c0,0,6.1-6.9,10.4-9.9l9.2-6L923.8,167.9L923.8,167.9z"/>
<path fill="#007171" d="M918.2,174l8.9-5c0,0,24.5,3.5,31.5,19.4s-4.1,39.2-4.1,39.2s-2.4-15.5-4.8-19.1l2.9-0.4l-4.2-2.3
	c0,0-5.3-12.2-8.5-14.4l5.5-1.3l-7-1.3c0,0-6.5-10.8-12.4-11.1C920.1,177.3,918.2,174,918.2,174L918.2,174z"/>
<path fill="#007171" d="M921.9,167.7c0,0-6.7-20.7,3.5-30.6c10.2-9.8,42.7-2,42.7-2s-15.6,3.4-21.7,10.9l-6.8-1.4l4.1,3.5l-6.7,5.6
	l-6.1-2.2l3.6,5.4c0,0-8.6,4-10.7,14.7l-1.4,1.4L921.9,167.7L921.9,167.7z"/>
<path fill="#007171" d="M923.6,168.8c0,0,14.2-17.4,30-17.6c15.8-0.2,31.5,18.8,32.8,36.3l-15.4-10.6l-0.7-5.1l-3.1,4.3l-7-2.5
	l-0.2-7.1l-2.8,5.4l-11.2-1.1l-0.7-5.3l-0.3,5.7c0,0-13-1.6-21.3,2.8V168.8L923.6,168.8z"/>
<path fill="#007171" d="M930,169.1c0,0,11.5,86.6-3.9,185.6c-9.5,61.1-22.3,127.4-53.8,183.3l-16.8-6c0,0,83.2-159,66.7-362.6
	L930,169.1L930,169.1z"/>
<path fill="#007171" d="M387.3,131.5c0,0,15.7-18.6,38.5-7c20.3,10.4,21.6,41.9,21.6,41.9s-13.6-13.1-15-13.9l1-6.1l-2.5,5.1
	c0,0-12.3-9-13.5-9.3l0.8-6.4l-3.1,5.3l-10.6-3.2l0.7-4.4l-2.5,3.2L387.3,131.5L387.3,131.5z"/>
<path fill="#007171" d="M388.9,129.7c0,0,22.7,7.7,28,25.1c5.3,17.4-15,40.4-15,40.4s3-11.5,2.9-15.8l3.7-2.6h-4.1
	c0,0-2.2-11.7-3.5-14.5l2.6-2.5l-3.5,1c0,0-3.7-8.4-7-12.6l-7-8.4L388.9,129.7L388.9,129.7z"/>
<path fill="#007171" d="M392.4,137.2l-6.9-7.5c0,0-24.4-4-35.9,9c-11.5,13-7.9,38.6-7.9,38.6s7-14.1,10.3-16.7l-2.7-1.3l4.7-1
	c0,0,8.7-10.1,12.5-11.2l-4.8-2.8l7,0.9c0,0,9.5-8.4,15.2-6.9C389.6,139.8,392.4,137.2,392.4,137.2L392.4,137.2z"/>
<path fill="#007171" d="M390.8,130.1c0,0,12.6-17.8,5.8-30.2c-6.8-12.4-40.1-14.7-40.1-14.7s13.9,7.9,17.4,16.9l7,0.7l-4.9,2.1
	l4.7,7.4l6.5-0.3l-5.1,4.1c0,0,7,6.3,5.8,17.2l0.9,1.8L390.8,130.1L390.8,130.1z"/>
<path fill="#007171" d="M388.9,130.6c0,0-8.3-20.9-23.3-25.8c-15-5-35.7,8.4-42.1,24.8l17.9-5.4l2.2-4.7l1.7,5.1l7.5-0.3l2.3-6.7
	l1,6.1l11.1,2.3l2.3-4.8l-1.5,5.5c0,0,12.9,2.4,19.5,9L388.9,130.6L388.9,130.6z"/>
<path fill="#007171" d="M382.7,129c0,0-37,79.1-52,178.2c-9.3,61.2-17,128.2-3.8,191l17.8-0.7c0,0-31.6-176.6,45.5-365.8L382.7,129
	L382.7,129z"/>
<path fill="#008694" d="M287.1,436.2c0,0.8-0.2,1.6-0.7,2.3"/>
<path fill="#008694" d="M896.8,391c-0.6-5-3-9.5-4.6-14.3c-1.9-5.8-2.5-12-1.9-18.1c0.2,7.2,4.5,13.8,4.7,21
	c0.1,2.4-0.3,4.9-0.2,7.3c0.1,2.4,0.9,5,2.8,6.5"/>
<path fill="#008694" d="M336.4,418.6c0.1-7.2,2.1-14.4,5.8-20.7c0.7,8.2-0.7,16.5-3.9,24.1"/>
</svg>
