<?xml version="1.0" encoding="utf-8"?>
<!-- Generator: Adobe Illustrator 28.0.0, SVG Export Plug-In . SVG Version: 6.00 Build 0)  -->
<svg version="1.1" id="Calque_1" xmlns="http://www.w3.org/2000/svg" xmlns:xlink="http://www.w3.org/1999/xlink" x="0px" y="0px"
	 viewBox="0 0 701.4 334.8" enable-background="new 0 0 701.4 334.8" xml:space="preserve">
<g>
	<g id="Calque_1_00000153685733752594534760000007265397552162545593_">
		<path opacity="0.5" fill="#B2B2B2" enable-background="new    " d="M40.7,79.6c-1,14.9,17,27.2,29.8,25.1
			c-0.6,1.8-0.9,3.7-0.8,5.5c0.2,7.5,3.4,13.3,9.2,18c4.2,3.4,9.6,6.4,15.2,7.7c-1.1,3.2-1.5,6.7-1.2,10.3
			c1.2,13,8.9,24.4,18.2,33.2c9.7,9.1,21.9,17.8,35.6,18.9c6.2,0.5,13.4,0.1,19.1-3c2.5,2.7,6,4.5,9.6,4.7c2.5,0.1,4.6-1.1,6.2-2.9
			c1.9,3,4.6,5.5,7.5,7.4c6.2,4,16.3,4,22.1-0.2c0.2,0.9,0.4,1.7,0.7,2.4c3,7.5,8.7,14.4,16.4,17.3c6.4,2.4,18.9,3.8,23.5-2.9
			c0.3-0.4,0.5-0.9,0.7-1.3c2.9,0.6,5.9,0.4,8.2-1.1c7-4.5,7.8-16.9,4.8-24.1c-3.5-8.3-10.9-15.7-19.9-18c-4.8-1.2-8.2-0.6-11,1.4
			c-0.9-3.7-2.2-7.3-3.9-10c-3.9-6.4-10.2-11.1-17.4-13.2c-1.5-0.4-2.9-0.6-4.2-0.6c-0.1-0.5-0.2-1-0.4-1.5c-1.1-2.6-2.7-5.1-5-6.9
			c6.4-1.9,12.2-5.8,15.9-11.4c18.8-28.6-15.9-56.1-40.9-62.3c-8.7-2.2-20.6-1.7-27.6,4.5c-3.1-7.4-10.6-13.7-18.5-12.3
			c0.7-9.6-9.4-19.8-17.2-23.1c-7.4-3.2-15.6-3-21.7,0.8c-1.6-1-3.3-1.8-4.8-2.1c-5.6-1.5-12.5-0.8-15.6,4.9c-1.3,2.3-2,5.1-2.1,7.9
			c-2.6-0.3-5-0.4-6.9-0.3c-6.2,0.4-11.9,1.8-15.9,6.9C43.9,65.2,41.2,72.2,40.7,79.6z"/>
		<path opacity="0.5" fill="#B2B2B2" enable-background="new    " d="M48.6,59.3c4-5.1,9.7-6.5,15.9-6.9c1.9-0.1,4.3,0,6.9,0.3
			c0.1-2.8,0.9-5.6,2.1-7.9c3.1-5.7,10-6.5,15.6-4.9c1.4,0.4,3.1,1.1,4.8,2.1c6-3.8,14.3-4,21.7-0.8c7.8,3.3,17.9,13.5,17.2,23.1
			c7.9-1.4,15.4,4.8,18.5,12.3c7.1-6.2,18.9-6.6,27.6-4.5c25,6.1,59.6,33.7,40.9,62.3c-3.7,5.7-9.5,9.6-15.9,11.4
			c2.3,1.8,3.9,4.3,5,6.9c0.2,0.5,0.3,1,0.4,1.5c1.3,0,2.7,0.1,4.2,0.6c7.2,2.1,13.5,6.8,17.4,13.2c1.6,2.7,3,6.3,3.9,10
			c2.8-2,6.2-2.6,11-1.4c5.1,1.3,9.6,4.2,13.3,8c-8.1-5-19.2-5.8-24.1,2.5c-3.5-14-14.8-24.7-27.9-28.1c-1.9-6.2-6.9-12.4-12.8-16.1
			c7.7-1.2,14.7-4.7,18.4-12.3c5.2-10.8,4.1-24.3-2.9-34.1c-10.8-14.9-40.8-27.6-55.6-12.9c-1.4-2.5-3-4.7-4.4-6.4
			c-3-3.7-7-7.9-12-8.6c-2.1-0.3-3.9,0-5.5,0.6c-1.7-7.3-5.9-14.3-10.9-18.9c-5.3-4.8-11.7-7-18.9-6.6c-2.6,0.2-4.7,0.9-6.4,2.1
			C89.6,43.1,82,43.3,79,49.2c-2.2,4.3-2.6,8.8-1.9,13c-1.6-0.4-3.2-0.6-4.8-0.6c-10.7-0.2-22.2,5.8-23.1,17.6
			c-0.9,12.1,8.8,20.6,20.1,22.4c2.3,0.4,4.7,0.6,7.2,0.7c-1,5.3-0.7,10.7,2.4,15.4c4.7,7.1,11.3,12.9,18.9,16.5
			c7.5,3.6,15.6,3.3,23.6,2.4c1.3-0.1,2.6-0.3,3.9-0.6c-4,3.2-9.8,4.4-14.7,4.8c-2.7,0.2-5.8-0.2-6.9,2.9
			c-3.8,10.7,1.3,22.2,9.3,29.5c9.7,8.8,21.3,14,34.3,15.2c5.9,0.6,12.6,1.7,18.3-0.7c1-0.4,1.9-0.9,2.8-1.5
			c1.6,2.7,4.2,4.7,8.4,5.1c4.2,0.4,8.7-0.6,11.8-3.1c1.1,5.4,3.7,10.2,8.7,12.8c5.4,2.7,12.2,1.7,17.5-1.5
			c0.4,4.9,1.3,9.4,5.4,13.9c3.9,4.5,8.7,8.1,13.9,10.9c0.8,0.4,1.7,0.9,2.7,1.4c-3.2-0.3-6.2-1-8.4-1.9
			c-7.7-2.9-13.5-9.8-16.4-17.3c-0.3-0.7-0.5-1.5-0.7-2.4c-5.8,4.2-15.9,4.2-22.1,0.2c-2.9-1.9-5.6-4.4-7.5-7.4
			c-1.6,1.8-3.7,3.1-6.2,2.9c-3.7-0.2-7.2-1.9-9.6-4.7c-5.7,3-12.8,3.5-19.1,3c-13.7-1.2-25.9-9.8-35.6-18.9
			c-9.3-8.8-17-20.2-18.2-33.2c-0.3-3.7,0.1-7.1,1.2-10.3c-5.6-1.3-11-4.3-15.2-7.7c-5.8-4.7-9-10.5-9.2-18c0-1.8,0.3-3.7,0.8-5.5
			c-12.8,2.1-30.7-10.1-29.8-25.1C41.2,72.2,43.9,65.2,48.6,59.3L48.6,59.3z"/>
		<path opacity="0.5" fill="#B2B2B2" enable-background="new    " d="M183.2,179.8c7.1,8.5,16.9,14.3,27.7,17
			c6.6,1.7,12.3,0.7,17.6-1.6c-3.8,7.6-2.8,18.5,1.1,25.4c2.2,3.9,6.8,7.5,11.4,7.5c4-0.1,7.9-1.4,8.8-5.2c2.3,3.1,5.5,6.1,9.6,5
			c4.8-1.3,4.4-6.7,3-10.4c8.9,3.4,19.8,7.2,28,0.1c6.3-5.4,9.3-14.1,8.2-22.3c-1.4-10.6-5.9-21.9-13.6-29.5
			c-4-3.9-10.1-8.4-16.1-8.9c1.6-3.8-1.2-9.4-4.3-11c3.3-5.1,1.7-12.8-3.2-16.6c-5.1-3.9-12.6-6-18.8-3.8
			c-3.5-4.1-11.5-6.1-15.5-7.1c-10.1-2.6-22.9-2.2-32.2,2.9c-8.1,4.4-13.4,12.7-8.8,21.7c1.1,2.1,2.5,4,4.2,5.5
			c-4,1.3-7.6,3.9-9.9,7.7C175.8,163.9,177.5,173,183.2,179.8L183.2,179.8z"/>
		<path opacity="0.5" fill="#B2B2B2" enable-background="new    " d="M180.3,156.2c2.2-3.8,5.8-6.3,9.9-7.7
			c-1.6-1.5-3.1-3.4-4.2-5.5c-4.7-9.1,0.7-17.3,8.8-21.7c9.3-5.1,22.1-5.5,32.2-2.9c4,1.1,11.9,3,15.5,7.1
			c6.1-2.2,13.7-0.1,18.8,3.8c4.9,3.8,6.5,11.5,3.2,16.6c3.1,1.6,5.9,7.2,4.3,11c6,0.5,12.1,5,16.1,8.9c7.7,7.6,12.2,18.9,13.6,29.5
			c0.5,4,0.1,8.1-1.3,11.9c0.4-2.7,0.5-5.5,0.3-7.8c-0.8-9.4-4.8-18.6-11.7-25.2c-5.1-4.9-12.4-9-19.5-9.9c0.9-3.4,0.7-7.4-0.8-10.2
			c-1.4-2.5-3.7-4.6-6.5-5.8c3.3-5.1,1.9-13.2-3.4-17.2c-4.1-3.1-10.3-3.5-14.6-0.5c-2.3-1.9-4.9-3.5-7.6-4.6
			c-8.8-3.7-20.6-5.1-29,0.5c-8.2,5.4-8.3,16.2-4,24.9c-3.1,0.3-5.9,1.6-8.2,4.2c-6.1,7.1-5,17.3,1.4,23.9
			c9.6,9.8,25.6,15.7,39.9,14c-2.8,5.7-3,12.2,1.9,17.4c3.6,3.8,8.4,5.4,13.1,2.8c0.6-0.3,1.1-0.7,1.6-1.2c0.1,0.2,0.1,0.4,0.2,0.5
			c1.3,2.6,4.3,4.4,7.1,2.6c2.1-1.3,3.6-4,4.1-7c1.5,2.7,3.7,5.1,5.8,6.7c4.2,3,9.8,5.4,15.3,5.8c-6.7,1.3-14.1-1.4-20.4-3.8
			c1.4,3.7,1.8,9.1-3,10.4c-4.1,1.1-7.2-1.8-9.6-5c-0.9,3.7-4.8,5.1-8.8,5.2c-4.6,0.1-9.2-3.6-11.4-7.5c-3.8-6.9-4.8-17.7-1.1-25.4
			c-5.4,2.3-11,3.3-17.6,1.6c-10.7-2.7-20.6-8.5-27.7-17C177.5,173,175.7,164,180.3,156.2L180.3,156.2z"/>
		<path opacity="0.5" fill="#B2B2B2" enable-background="new    " d="M130.9,184.1c5.4,5.5,13,9.2,21.2,11c5.1,1.1,9.4,0.5,13.5-1
			c-2.9,4.9-2.1,11.9,0.8,16.3c1.7,2.5,5.2,4.9,8.7,4.8c3,0,6.1-0.9,6.7-3.3c1.8,2,4.2,3.9,7.3,3.2c3.6-0.8,3.4-4.3,2.3-6.7
			c6.8,2.2,15.2,4.6,21.4,0.1c4.8-3.5,7.1-9.1,6.3-14.3c-1.1-6.8-4.5-14.1-10.5-19c-3.1-2.5-7.7-5.4-12.4-5.8
			c1.2-2.4-0.9-6.1-3.3-7.1c2.5-3.3,1.3-8.2-2.5-10.7c-3.9-2.5-9.7-3.9-14.4-2.5c-2.7-2.6-8.8-3.9-11.8-4.6
			c-7.7-1.7-17.5-1.5-24.6,1.8c-6.2,2.8-10.3,8.1-6.7,14c0.8,1.4,1.9,2.6,3.2,3.6c-3.1,0.9-5.8,2.5-7.5,4.9
			C125.2,173.9,126.6,179.7,130.9,184.1L130.9,184.1z"/>
		<path opacity="0.5" fill="#B2B2B2" enable-background="new    " d="M128.6,168.9c1.7-2.4,4.4-4.1,7.5-4.9c-1.3-1-2.3-2.2-3.2-3.6
			c-3.6-5.8,0.5-11.1,6.7-14c7.1-3.3,16.9-3.5,24.6-1.8c3.1,0.7,9.1,2,11.9,4.6c4.7-1.4,10.5-0.1,14.4,2.5c3.8,2.4,5,7.4,2.5,10.7
			c2.4,1,4.5,4.6,3.3,7.1c4.6,0.3,9.3,3.2,12.4,5.8c5.9,4.9,9.4,12.2,10.5,19c0.4,2.6,0.1,5.2-0.9,7.6c0.3-1.8,0.4-3.5,0.2-5
			c-0.6-6.1-3.7-11.9-9-16.2c-3.9-3.1-9.5-5.8-14.9-6.4c0.7-2.2,0.5-4.8-0.6-6.6c-1-1.6-2.9-2.9-5-3.7c2.5-3.3,1.4-8.5-2.6-11
			c-3.2-2-7.9-2.3-11.2-0.3c-1.8-1.2-3.8-2.3-5.8-3c-6.8-2.4-15.8-3.3-22.2,0.3c-6.3,3.5-6.3,10.4-3,16c-2.3,0.2-4.6,1-6.3,2.7
			c-4.7,4.6-3.8,11.1,1.2,15.3c7.3,6.3,19.6,10.1,30.5,9c-2.1,3.6-2.3,7.9,1.5,11.2c2.7,2.4,6.4,3.5,10,1.8c0.4-0.2,0.9-0.5,1.2-0.8
			c0.1,0.1,0.1,0.2,0.2,0.3c1,1.7,3.3,2.8,5.4,1.7c1.6-0.8,2.7-2.6,3.2-4.5c1.1,1.7,2.8,3.3,4.5,4.3c3.2,2,7.5,3.5,11.7,3.8
			c-5.1,0.8-10.8-0.9-15.6-2.4c1.1,2.4,1.4,5.9-2.3,6.7c-3.1,0.7-5.5-1.2-7.3-3.2c-0.6,2.4-3.7,3.3-6.7,3.3c-3.6,0-7.1-2.3-8.7-4.8
			c-2.9-4.4-3.7-11.4-0.8-16.3c-4.1,1.5-8.4,2.1-13.5,1c-8.2-1.8-15.8-5.5-21.2-11C126.6,179.8,125.2,173.9,128.6,168.9L128.6,168.9
			z"/>
		<path opacity="0.5" fill="#D8D8D8" enable-background="new    " d="M136.3,40.7c-1,14.9,17,27.2,29.8,25.1
			c-0.6,1.8-0.9,3.7-0.8,5.5c0.2,7.5,3.4,13.3,9.2,18c4.2,3.4,9.6,6.4,15.2,7.7c-1.1,3.2-1.5,6.7-1.2,10.3
			c1.2,13,8.9,24.4,18.2,33.2c9.6,9.1,21.9,17.8,35.6,18.9c6.2,0.5,13.4,0.1,19.1-3c2.5,2.7,6,4.5,9.6,4.7c2.5,0.1,4.6-1.1,6.2-2.9
			c2,3,4.6,5.5,7.5,7.4c6.2,4,16.3,4,22.1-0.2c0.2,0.9,0.4,1.7,0.7,2.4c3,7.5,8.7,14.4,16.5,17.3c6.4,2.4,18.9,3.8,23.5-2.9
			c0.3-0.4,0.5-0.9,0.7-1.3c2.9,0.6,5.9,0.4,8.2-1.1c7-4.5,7.8-16.9,4.8-24.1c-3.5-8.3-10.9-15.7-19.9-18c-4.8-1.2-8.2-0.6-11,1.4
			c-0.9-3.7-2.2-7.3-3.9-10c-3.9-6.4-10.2-11.1-17.4-13.2c-1.5-0.4-2.9-0.6-4.2-0.6c-0.1-0.5-0.2-1-0.4-1.5c-1-2.6-2.7-5.1-5-6.9
			c6.4-1.9,12.2-5.8,15.9-11.4c18.8-28.6-15.9-56.1-40.9-62.3c-8.7-2.1-20.6-1.7-27.6,4.5c-3.1-7.4-10.7-13.6-18.5-12.3
			c0.7-9.6-9.4-19.8-17.2-23.1c-7.4-3.2-15.6-3-21.6,0.8c-1.6-1-3.3-1.8-4.8-2.1c-5.6-1.5-12.5-0.8-15.6,4.9
			c-1.3,2.3-2.1,5.1-2.1,7.9c-2.6-0.3-5-0.4-6.9-0.3c-6.2,0.4-11.9,1.9-15.9,6.9C139.5,26.2,136.8,33.2,136.3,40.7L136.3,40.7z"/>
		<path opacity="0.5" fill="#D8D8D8" enable-background="new    " d="M144.2,20.4c4-5.1,9.7-6.5,15.9-6.9c1.9-0.1,4.3,0,6.9,0.3
			c0.1-2.8,0.9-5.6,2.1-7.9c3.1-5.7,10-6.5,15.6-4.9c1.4,0.4,3.1,1.1,4.8,2.1c6-3.8,14.3-4,21.6-0.8c7.8,3.3,17.9,13.5,17.2,23.1
			c7.9-1.4,15.4,4.9,18.5,12.3c7.1-6.2,18.9-6.6,27.6-4.5c25,6.1,59.6,33.7,40.9,62.3c-3.7,5.7-9.5,9.6-15.9,11.4
			c2.3,1.8,3.9,4.3,5,6.9c0.2,0.5,0.3,1,0.4,1.5c1.3,0,2.7,0.2,4.2,0.6c7.2,2.1,13.5,6.8,17.4,13.2c1.6,2.7,3,6.3,3.9,10
			c2.8-2,6.2-2.6,11-1.4c5.1,1.3,9.6,4.2,13.3,8c-8.1-5-19.2-5.8-24.1,2.5c-3.5-14-14.8-24.7-27.9-28.1c-1.9-6.2-6.9-12.4-12.8-16.2
			c7.7-1.2,14.7-4.7,18.4-12.3c5.2-10.8,4.1-24.3-3-34.1c-10.8-14.9-40.8-27.6-55.7-12.9c-1.4-2.5-3-4.7-4.4-6.4c-3-3.7-7-8-12-8.6
			c-2.1-0.3-3.9,0-5.5,0.6c-1.7-7.3-5.9-14.3-10.9-18.9c-5.4-4.8-11.7-7.1-18.9-6.6c-2.6,0.1-4.7,0.9-6.4,2.1
			c-6.1-2.8-13.7-2.6-16.7,3.3c-2.2,4.3-2.6,8.8-1.9,13c-1.6-0.4-3.2-0.6-4.8-0.6c-10.7-0.2-22.2,5.8-23.1,17.6
			c-0.9,12.1,8.8,20.6,20.1,22.4c2.3,0.4,4.7,0.6,7.2,0.7c-1,5.3-0.7,10.7,2.4,15.4c4.7,7.1,11.3,12.9,18.9,16.6
			c7.5,3.6,15.6,3.3,23.6,2.4c1.3-0.2,2.6-0.3,3.9-0.6c-4,3.2-9.9,4.4-14.7,4.8c-2.7,0.2-5.8-0.2-6.9,2.9
			c-3.8,10.7,1.3,22.2,9.3,29.5c9.7,8.8,21.3,14,34.3,15.3c5.9,0.6,12.6,1.7,18.3-0.7c1-0.4,1.9-0.9,2.8-1.5
			c1.6,2.7,4.2,4.7,8.4,5.1c4.2,0.4,8.7-0.6,11.8-3.1c1.1,5.3,3.7,10.2,8.7,12.8c5.4,2.8,12.2,1.7,17.5-1.5
			c0.5,4.9,1.3,9.4,5.4,13.9c3.9,4.5,8.7,8.1,13.9,10.9c0.8,0.4,1.7,0.9,2.6,1.4c-3.2-0.3-6.2-1-8.5-1.9
			c-7.7-2.9-13.5-9.8-16.5-17.3c-0.3-0.7-0.5-1.5-0.7-2.4c-5.8,4.2-15.9,4.2-22.1,0.2c-2.9-1.9-5.6-4.4-7.5-7.4
			c-1.6,1.8-3.7,3.1-6.2,2.9c-3.7-0.2-7.2-1.9-9.6-4.7c-5.7,3-12.8,3.5-19.1,3c-13.7-1.2-25.9-9.8-35.6-18.9
			c-9.3-8.8-17-20.2-18.2-33.2c-0.4-3.7,0.1-7.1,1.2-10.3c-5.6-1.3-11.1-4.3-15.2-7.7c-5.8-4.7-9-10.5-9.2-18c0-1.8,0.3-3.7,0.8-5.5
			c-12.8,2.1-30.7-10.2-29.8-25.1C136.7,33.2,139.5,26.2,144.2,20.4L144.2,20.4z"/>
		<path opacity="0.5" fill="#D8D8D8" enable-background="new    " d="M168.6,107.4c5.4,5.5,13,9.2,21.2,11c5.1,1.1,9.4,0.5,13.5-1
			c-2.9,4.9-2.1,11.9,0.8,16.3c1.7,2.5,5.2,4.9,8.7,4.8c3,0,6.1-0.9,6.7-3.3c1.8,2,4.2,3.9,7.3,3.2c3.6-0.8,3.4-4.3,2.3-6.7
			c6.8,2.2,15.2,4.6,21.4,0.1c4.8-3.5,7.1-9.1,6.3-14.3c-1.1-6.8-4.5-14.1-10.5-19c-3.1-2.5-7.7-5.4-12.4-5.8
			c1.2-2.4-0.9-6.1-3.3-7.1c2.5-3.3,1.3-8.2-2.5-10.7c-3.9-2.5-9.7-3.9-14.4-2.5c-2.7-2.6-8.8-3.9-11.9-4.6
			c-7.7-1.7-17.5-1.4-24.6,1.8c-6.2,2.8-10.2,8.1-6.7,14c0.8,1.4,1.9,2.6,3.2,3.6c-3.1,0.8-5.8,2.5-7.5,4.9
			C162.9,97.2,164.3,103,168.6,107.4z"/>
		<path opacity="0.5" fill="#D8D8D8" enable-background="new    " d="M166.4,92.2c1.7-2.4,4.4-4.1,7.5-4.9c-1.3-1-2.4-2.2-3.2-3.6
			c-3.6-5.8,0.5-11.1,6.7-14c7.1-3.3,16.9-3.5,24.6-1.8c3.1,0.7,9.1,2,11.9,4.6c4.7-1.4,10.5-0.1,14.4,2.5c3.8,2.4,5,7.4,2.5,10.7
			c2.4,1,4.5,4.6,3.3,7.1c4.6,0.3,9.3,3.2,12.4,5.8c5.9,4.9,9.4,12.2,10.5,19c0.4,2.6,0.1,5.2-0.9,7.6c0.3-1.8,0.4-3.5,0.2-5
			c-0.6-6.1-3.7-12-9-16.2c-3.9-3.1-9.5-5.8-14.9-6.4c0.7-2.2,0.5-4.8-0.6-6.6c-1.1-1.6-2.9-2.9-5-3.7c2.5-3.3,1.4-8.5-2.6-11
			c-3.2-2-7.9-2.3-11.2-0.3c-1.8-1.2-3.8-2.3-5.8-3c-6.8-2.4-15.8-3.3-22.2,0.3c-6.3,3.5-6.3,10.4-3,16c-2.3,0.2-4.6,1-6.3,2.7
			c-4.7,4.6-3.8,11.1,1.1,15.3c7.3,6.3,19.6,10.1,30.5,9c-2.1,3.7-2.3,7.9,1.4,11.2c2.7,2.4,6.4,3.5,10,1.8c0.5-0.2,0.9-0.5,1.2-0.8
			c0.1,0.1,0.1,0.2,0.1,0.3c1,1.7,3.3,2.8,5.4,1.7c1.6-0.8,2.7-2.6,3.2-4.5c1.1,1.7,2.8,3.3,4.5,4.3c3.2,2,7.5,3.5,11.7,3.8
			c-5.1,0.8-10.8-0.9-15.6-2.4c1.1,2.4,1.4,5.9-2.3,6.7c-3.1,0.7-5.5-1.2-7.3-3.2c-0.6,2.4-3.7,3.3-6.7,3.3c-3.6,0-7.1-2.3-8.7-4.8
			c-2.9-4.4-3.7-11.4-0.8-16.3c-4.1,1.5-8.4,2.1-13.5,1c-8.2-1.8-15.8-5.5-21.2-11C164.3,103,162.9,97.2,166.4,92.2L166.4,92.2z"/>
		<path fill="#A32F00" d="M576.9,147.3c0,0-127.9-72.7-232.8-59.8c-175.3,21.6-186.6,45.2-186.6,45.2l83.3,83.6l253.8,60.5
			L576.9,147.3L576.9,147.3z"/>
		<path d="M240.2,217.5L156,133l0.4-0.8c0.5-1,13.6-24.5,187.6-45.9c54.5-6.7,115.1,10,156.4,25.1c44.7,16.4,76.9,34.6,77.2,34.8
			l1.2,0.7l-83.5,131.4L240.2,217.5L240.2,217.5z M499.4,113.8c-41-15.1-101.2-31.6-155.1-25c-49,6-116.1,16.1-157.1,30
			c-20,6.8-26.2,12-27.9,13.7l82.2,82.5L494,275.3l81-127.6C568.8,144.3,539.1,128.3,499.4,113.8L499.4,113.8z"/>
		<path fill="#2F313C" d="M554.6,148.2c0,0-126.2-56.1-166-54.6c-121,4.4-166,29.5-166,29.5l64.4,41.6l85.3,16l198.4-14.8
			L554.6,148.2L554.6,148.2z"/>
		<path d="M286.8,165.9l-0.2-0.1L220.1,123l1.9-1.1c0.4-0.2,46.7-25.3,166.6-29.7c39.6-1.4,161.4,52.4,166.6,54.7l0.2,0.1l18.2,19.9
			l-201.1,14.9h-0.2L286.8,165.9L286.8,165.9z M553.8,149.2c-6.3-2.8-126.9-55.8-165.2-54.4c-105.4,3.9-153.4,23.7-163.4,28.3
			l62.3,40.2l84.9,15.9l195.6-14.5L553.8,149.2L553.8,149.2z"/>
		<path fill="#6D6D6D" d="M372.7,168.2l-2,29.6c-6.5-2.8-18-7.8-32.2-14C354.4,178.4,372.5,171.3,372.7,168.2L372.7,168.2z"/>
		<path fill="#4A4A4A" d="M370.4,198.5c-5.8-2.5-15.6-6.8-27.8-12.1l-4.4-1.9c-0.3-0.1-0.4-0.4-0.4-0.7c0-0.3,0.2-0.6,0.5-0.7
			c21.8-7.4,33.5-13,33.7-14.8c0-0.4,0.4-0.8,0.8-0.7l0,0c0.4,0,0.7,0.4,0.6,0.8c0,0.3,0,0.3,0,0l-2,29.6c0,0.2-0.1,0.5-0.3,0.6
			c-0.1,0.1-0.3,0.1-0.4,0.1C370.5,198.6,370.5,198.5,370.4,198.5L370.4,198.5z M340.5,183.8l2.5,1.1c11.6,5.1,21,9.2,26.9,11.7
			l1.8-26.3C368.8,172.9,360.4,177.1,340.5,183.8L340.5,183.8z M372,168.2L372,168.2L372,168.2z"/>
		<path opacity="0.6" fill="#6D6D6D" enable-background="new    " d="M372.7,168.2l-2,29.6c-6.5-2.8-18-7.8-32.2-14
			C354.4,178.4,372.5,171.3,372.7,168.2L372.7,168.2z"/>
		<path opacity="0.6" fill="#6D6D6D" enable-background="new    " d="M368.6,184.9c-4.2-6.3-12.8-5-18-0.6c-1.2,1-2.2,2.2-3,3.4
			c-2.9-1.3-5.9-2.6-9.1-4c15.9-5.4,34-12.5,34.2-15.5L371,193C370.8,190.1,370.2,187.3,368.6,184.9L368.6,184.9z"/>
		<path fill="#616161" d="M230.1,109.6c5.1-3.4,12.1,1.8,14.1,10.8c1.4,6.3,1.9,16.3,2.1,23.5c-8.2-3.5-16.1-6.9-23.4-9.9
			C222.3,126.2,223.1,115.6,230.1,109.6L230.1,109.6z"/>
		<path fill="#4A4A4A" d="M246,144.5c-8.2-3.5-16.1-6.9-23.4-9.9c-0.2-0.1-0.4-0.4-0.4-0.6c-0.5-7.9,0.3-18.7,7.5-25
			c0,0,0.1,0,0.1-0.1c2.1-1.3,4.5-1.5,6.9-0.4c3.8,1.7,7,6.2,8.2,11.7c1.4,6.4,1.9,16.4,2.1,23.6c0,0.3-0.1,0.5-0.3,0.7
			c-0.1,0.1-0.3,0.2-0.4,0.1C246.1,144.6,246,144.5,246,144.5L246,144.5z M230.4,110.2c-6.5,5.7-7.4,15.6-7,23.1
			c6.9,2.9,14.3,6,22,9.3c-0.2-7.1-0.7-16.2-2.1-22.1c-1.1-5-4-9.1-7.4-10.6c-0.8-0.3-1.6-0.5-2.3-0.6
			C232.5,109.2,231.4,109.5,230.4,110.2L230.4,110.2z"/>
		<path opacity="0.4" fill="#6D6D6D" enable-background="new    " d="M230.1,109.6c5.1-3.4,12.1,1.8,14.1,10.8
			c1.4,6.3,1.9,16.3,2.1,23.5c-8.2-3.5-16.1-6.9-23.4-9.9C222.3,126.2,223.1,115.6,230.1,109.6L230.1,109.6z"/>
		<path opacity="0.4" fill="#6D6D6D" enable-background="new    " d="M240,120.1c-1.3-5.8-4.7-10-8.3-11.3
			c4.9-1.4,10.6,3.6,12.4,11.5c1.4,6.3,1.9,16.3,2.1,23.5c-1.4-0.6-2.8-1.2-4.1-1.8C241.9,135.1,241.4,126,240,120.1L240,120.1z"/>
		<path fill="#6D6D6D" d="M232.3,107.9c16.6-10.3,66.6-13.2,79.5-11.8c8.3,0.9,13,7.9,15.3,12.8c1.8,4.8,1.8,4.9,1.8,4.9l13.7,40.9
			L302.4,168c-18.4-8-38.1-16.5-56.1-24.2c-0.2-7.1-0.7-17.1-2.1-23.5c-2-8.9-8.9-14.1-14.1-10.8
			C230.8,108.9,231.5,108.4,232.3,107.9L232.3,107.9z"/>
		<path fill="#4A4A4A" d="M302.1,168.7c-22-9.6-40.3-17.5-56.1-24.2c-0.2-0.1-0.4-0.4-0.4-0.7c-0.2-7.2-0.7-17.1-2.1-23.3
			c-1.1-5-4-9.1-7.4-10.6c-2-0.9-2.1-2.2-3.8-1.1c-0.3,0.2-0.2,0.3-0.4,0c-0.2-0.3-1.1-0.2-0.8-0.4c0.8-0.7,0.2-0.3,0.9-0.8l0.3-0.1
			C249.1,97,299,93.9,311.9,95.3c8.4,0.9,13.2,7.7,15.9,13.3l1.9,4.9l13.7,40.9c0.1,0.2,0,0.4,0,0.6c-0.1,0.2-0.2,0.3-0.4,0.4
			l-40.3,13.3c-0.1,0-0.2,0-0.2,0C302.2,168.8,302.2,168.7,302.1,168.7L302.1,168.7z M328.3,114.1l-1.8-4.8
			c-2.5-5.2-7-11.6-14.8-12.4c-12.5-1.3-60,1.3-77.8,10.9c0.9,0.1,1.8,0.3,2.6,0.7c3.8,1.7,7,6.2,8.2,11.7
			c1.4,6.2,1.9,15.9,2.1,23.1c15.7,6.7,33.8,14.5,55.5,24l39.3-13L328.3,114.1L328.3,114.1z"/>
		<path fill="#4A4A4A" d="M242.6,116.8c0,0,0.1,0,0.1,0l82.1-11.3c0.4-0.1,0.7-0.4,0.6-0.9c0-0.4-0.4-0.7-0.8-0.7l-82.1,11.3
			c-0.4,0.1-0.7,0.4-0.6,0.9C242,116.5,242.3,116.8,242.6,116.8L242.6,116.8z"/>
		<path fill="#4A4A4A" d="M244.9,126.2c0,0,0.1,0,0.1,0l84-11.6c0.4-0.1,0.7-0.4,0.6-0.9c0-0.4-0.4-0.7-0.8-0.7l-84,11.6
			c-0.4,0.1-0.7,0.4-0.6,0.9C244.3,125.9,244.6,126.1,244.9,126.2z"/>
		<path fill="#4A4A4A" d="M246,138.8c0,0,0.1,0,0.1,0l86-15.2c0.4-0.1,0.6-0.5,0.6-0.9s-0.4-0.7-0.8-0.6l-86,15.2
			c-0.4,0.1-0.6,0.5-0.6,0.9C245.4,138.5,245.7,138.8,246,138.8L246,138.8z"/>
		<path fill="#4A4A4A" d="M255.6,148.6c0,0,0.1,0,0.1,0l79.6-15.1c0.4-0.1,0.6-0.5,0.6-0.9c0-0.4-0.4-0.7-0.8-0.6l-79.6,15.1
			c-0.4,0.1-0.6,0.5-0.6,0.9C255,148.3,255.3,148.6,255.6,148.6L255.6,148.6z"/>
		<path fill="#4A4A4A" d="M273.5,156.3c0.1,0,0.1,0,0.2,0l64.4-14.7c0.4-0.1,0.6-0.5,0.6-0.9c-0.1-0.4-0.4-0.7-0.8-0.6l-64.4,14.7
			c-0.4,0.1-0.6,0.5-0.6,0.9C273,156,273.2,156.3,273.5,156.3L273.5,156.3z"/>
		<path fill="#4A4A4A" d="M288.5,162.8c0.1,0,0.1,0,0.2,0l52.1-12.9c0.4-0.1,0.6-0.5,0.5-0.9c-0.1-0.4-0.4-0.7-0.8-0.6l-52.1,12.9
			c-0.4,0.1-0.6,0.5-0.5,0.9C288,162.5,288.2,162.8,288.5,162.8L288.5,162.8z"/>
		<path opacity="0.4" fill="#6D6D6D" enable-background="new    " d="M230.1,109.6c5.1-3.4,12.1,1.8,14.1,10.8
			c1.4,6.3,1.9,16.3,2.1,23.5c18.1,7.7,37.7,16.2,56.1,24.2l40.3-13.3L329,113.8c0,0,0,0-1.8-4.9c-2.3-4.9-7-11.9-15.3-12.8
			c-12.9-1.4-62.9,1.5-79.5,11.8C231.5,108.4,230.7,109,230.1,109.6L230.1,109.6z M295.8,99.3c21.6-1.3,25.1,0.7,34.3,23
			c3.5,8.5,5.7,15.7,7,20.7c1.3,4.9-0.9,8.6-4.8,9.9c-10.2,3.2-29.1,8.9-32,7.8c-4-1.7-20.6-7.4-30.1-11.9
			c-9.5-4.5-10.5-11.6-14.4-28.9S274.2,100.5,295.8,99.3L295.8,99.3z"/>
		<path opacity="0.3" fill="#6D6D6D" enable-background="new    " d="M309,101.8c9.8,1.1,17,12.1,22.4,29.6s-6,21.6-9,22.3
			c0,0,7.1-7.3,3.1-20.7C321.5,119.5,315.6,104.5,309,101.8L309,101.8z"/>
		<path d="M303,169.8c-0.2,0-0.4-0.1-0.5-0.1c-21.6-9.5-39.7-17.5-55.4-24.2c-0.6-0.2-0.9-0.8-0.9-1.4c-0.2-7.2-0.7-17-2-23.1
			c-1.1-4.8-3.7-8.6-6.8-10c-1.6-0.7-4.2-1.9-5.5-1l-1.1-1.4c0.9-0.8,1.6-1.3,2.4-1.8c16.8-10.6,66.6-13.4,79.4-12
			c8.7,0.9,13.7,8,16.4,13.8l1.8,4.9l13.5,40.9c0.1,0.4,0.1,0.9-0.1,1.2c-0.2,0.4-0.5,0.7-0.9,0.9l-39.8,13.3
			C303.3,169.8,303.2,169.8,303,169.8C303,169.8,303,169.8,303,169.8L303,169.8z M303.1,168.1L303.1,168.1L303.1,168.1z
			 M329.1,113.9l-1.8-4.8c-2.5-5.4-7.1-11.9-15-12.8c-6.1-0.7-21.4-0.4-37.8,1.5c-18.9,2.2-33.1,5.7-40.3,10.1
			c1.3,0.3,2.6,0.8,3.6,1.3c3.6,1.6,6.6,5.9,7.8,11.2c1.4,6.3,1.9,16.2,2.1,23.4c15.6,6.8,33.7,14.7,55.2,24.2l39.6-13.3
			L329.1,113.9L329.1,113.9z"/>
		<path fill="#707070" d="M372.1,167.4c4.1,2.3-16.1,10.4-33.7,16.3c-10.8-4.7-23.1-10.1-36.1-15.7l40.3-13.3
			C342.7,154.7,366,164,372.1,167.4L372.1,167.4z"/>
		<path fill="#4A4A4A" d="M338.2,184.5c-10.8-4.7-23.1-10.1-36.1-15.7c-0.3-0.1-0.4-0.4-0.4-0.8s0.2-0.6,0.5-0.7l40.3-13.3
			c0.1-0.1,0.3-0.1,0.4,0c1,0.4,23.4,9.3,29.5,12.8c0.9,0.5,0.9,1.2,0.9,1.6c-0.4,3.8-19.1,10.9-34.7,16.1c-0.1,0-0.2,0-0.2,0
			C338.3,184.5,338.2,184.5,338.2,184.5L338.2,184.5z M304.5,168.1c12.2,5.3,23.8,10.4,34,14.8c21.6-7.3,33.2-13,33.5-14.7
			c0,0,0-0.1-0.2-0.1l0,0c-5.7-3.2-26.8-11.7-29.2-12.6L304.5,168.1L304.5,168.1z M372.1,167.4L372.1,167.4L372.1,167.4z"/>
		<path opacity="0.4" fill="#6D6D6D" enable-background="new    " d="M302.1,167.7c13,5.6,25.3,11,36.1,15.7
			c17.6-5.9,37.8-14,33.7-16.3c-6.1-3.5-29.5-12.8-29.5-12.8L302.1,167.7L302.1,167.7z M333.2,159.4c11.1-5.1,11.7-2.3,30.9,6.1
			c11.6,5.1-25.9,16-38.3,10.1C318.6,172.2,322.1,164.6,333.2,159.4z"/>
		<path opacity="0.3" fill="#6D6D6D" enable-background="new    " d="M351.2,161.9c5.6,4.2,5.3,9.4-6.1,12.4
			c-11.5,3,14.2-0.7,15.9-4.1C364,163.9,344.7,157,351.2,161.9L351.2,161.9z"/>
		<path d="M246.4,146.6c-0.2,0-0.4-0.1-0.5-0.1c-8.4-3.6-16.3-7-23.4-10c-0.6-0.2-0.9-0.8-1-1.4c-0.6-8.2,0.4-19.4,7.8-26l0,0
			c0.1-0.1,0.1-0.1,0.2-0.1c2.3-1.5,5.1-1.7,7.7-0.5c4.1,1.8,7.4,6.6,8.7,12.4c1.5,6.5,2,16.7,2.1,24.1c0,0.5-0.2,1.1-0.6,1.4
			C247.1,146.5,246.8,146.6,246.4,146.6C246.4,146.6,246.4,146.6,246.4,146.6L246.4,146.6z M230.4,110.4L230.4,110.4
			c-6.9,6.1-7.8,16.7-7.2,24.5c7.1,3,14.8,6.3,23.1,9.9c-0.2-7.3-0.7-17.3-2.1-23.6c-1.2-5.3-4.1-9.6-7.7-11.2
			c-0.9-0.4-1.9-0.6-2.8-0.6C232.6,109.4,231.5,109.7,230.4,110.4L230.4,110.4z M223.2,134.9L223.2,134.9L223.2,134.9z"/>
		<path fill="#3C404C" d="M467.9,267.3c1.5,29.6-9.5,66-40.7,66c-3.1,0-19.4,0.7-22.2-0.1c-25.7-7-43.8-45.6-43.8-79.6
			c0-26.5,7.5-56.1,33.5-59.7c1.7-0.2,20.3,0,22.2,0C448.5,193.9,466.3,235.4,467.9,267.3L467.9,267.3z"/>
		<path d="M404.7,334.4c-12.4-3.4-23.9-14.2-32.4-30.3c-7.9-15.1-12.4-33.5-12.4-50.5c0-16.9,3.4-56.7,34.7-61
			c1.2-0.2,8.6-0.1,19.4,0c1.5,0,2.6,0,3,0c10.3,0,25.2,4.4,37.8,25.4c8.2,13.7,13.6,32.1,14.5,49.3l0,0c0.9,18-2.9,42.3-16.2,56.3
			c-6.9,7.3-15.6,11-25.8,11c-0.7,0-2.2,0-4,0.1c-4,0.1-7.9,0.2-11.2,0.2C408.5,334.8,405.8,334.7,404.7,334.4L404.7,334.4z
			 M466.6,267.3c-0.8-16.8-6.1-34.7-14.1-48.1c-6.6-11-18.1-24.1-35.6-24.1c-0.4,0-1.5,0-3.1,0c-4.9,0-17.7-0.2-19,0
			c-29.3,4-32.4,42.2-32.4,58.4c0,32.2,17.2,71.3,42.9,78.3c2,0.5,12.7,0.3,17.8,0.1c1.9,0,3.3-0.1,4-0.1c9.4,0,17.4-3.4,23.9-10.2
			C463.9,308.3,467.5,284.8,466.6,267.3L466.6,267.3L466.6,267.3z"/>
		<path fill="#2C2E39" d="M443.2,267.3c1.5,29.6-9.5,66-40.7,66s-49-42-49-79.7c0-28.2,8.2-59.7,38.7-59.7
			C423.7,193.9,441.6,235.4,443.2,267.3L443.2,267.3z"/>
		<path d="M365.2,308.2c-8.2-15-12.9-34.9-12.9-54.6c0-11.6,1.4-28.1,8.1-41c6.8-13.2,17.6-20,31.9-20c10.3,0,25.2,4.4,37.8,25.4
			c8.2,13.7,13.6,32.1,14.5,49.3c0.9,18-2.9,42.3-16.2,56.3c-6.9,7.3-15.6,11-25.8,11C387.6,334.6,374.7,325.4,365.2,308.2
			L365.2,308.2z M362.6,213.7c-6.4,12.5-7.8,28.6-7.8,39.8c0,19.3,4.6,38.7,12.6,53.4c11.4,20.7,25.3,25,35,25
			c9.4,0,17.5-3.4,23.9-10.2c12.8-13.4,16.4-36.9,15.5-54.4c-0.8-16.8-6.1-34.7-14.1-48.1c-6.6-11-18.1-24.1-35.6-24.1
			C378.9,195.2,369,201.4,362.6,213.7L362.6,213.7z"/>
		<path fill="#CBC7C4" d="M430.1,266.4c1.1,22.8-7,50.8-30.1,50.8s-36.2-32.3-36.2-61.4c0-21.8,6.1-46,28.6-46
			C415.7,209.9,428.9,241.9,430.1,266.4L430.1,266.4z"/>
		<path fill="#2C2E39" d="M385.5,214.8c1.2,9.3,5.4,38.8,7.8,38.8c2,0,5.6-27.9,6.9-38c-2.6-1.1-5.4-1.7-8.3-1.7
			C389.5,214,387.4,214.3,385.5,214.8L385.5,214.8z"/>
		<path fill="#2C2E39" d="M397.7,255.4c1.3,0.8,11.5-12.5,18.9-22.5c-2.3-4.5-5.1-8.5-8.4-11.6C403.9,232.7,395.9,254.3,397.7,255.4
			L397.7,255.4z"/>
		<path fill="#2C2E39" d="M400.2,258.8c0.7,1.2,12.4-3.5,23-7.9c-0.9-3.8-2-7.5-3.4-11C410.4,247.6,399.3,257.3,400.2,258.8z"/>
		<path fill="#2C2E39" d="M401.6,263c0,1.4,12.5,3.4,23.7,4.9c0-0.5,0-1.1,0-1.6c-0.1-3-0.5-6-1-9.2
			C413.4,259,401.6,261.4,401.6,263z"/>
		<path fill="#2C2E39" d="M423.5,287.2c1-4.1,1.5-8.4,1.8-12.6c-11-4.2-23.9-8.7-24.7-7.2C399.8,268.7,413.5,279.6,423.5,287.2
			L423.5,287.2z"/>
		<path fill="#2C2E39" d="M412,308.4c3.8-3.1,6.7-7.6,8.8-12.7c-7.7-9.9-20.8-26.2-22.6-25.2C396.5,271.6,408.3,299.7,412,308.4
			L412,308.4z"/>
		<path fill="#2C2E39" d="M388.1,310.3c3.2,1.9,6.7,2.9,10.5,2.9c1.5,0,2.9-0.1,4.2-0.4c-1-7.8-5.4-39.9-7.9-39.9
			C392.9,272.9,389.4,299.7,388.1,310.3L388.1,310.3z"/>
		<path fill="#2C2E39" d="M373.2,291.5c2,4.6,4.4,8.8,7.3,12.2c4.4-11.5,11.4-30.6,9.7-31.7C388.9,271.2,380.3,282.2,373.2,291.5
			L373.2,291.5z"/>
		<path fill="#2C2E39" d="M368.1,274.5c0.7,3.5,1.5,6.9,2.6,10.1c8.2-7,16.5-14.5,15.8-15.9C385.9,267.7,377.1,270.9,368.1,274.5
			L368.1,274.5z"/>
		<path fill="#2C2E39" d="M366.5,259.6c0.1,3.1,0.4,6.3,0.8,9.4c9.1-1.6,17.6-3.5,17.6-4.9S375.9,261.1,366.5,259.6L366.5,259.6z"/>
		<path fill="#2C2E39" d="M366.4,253.6c9.3,3.6,18.5,6.8,19.2,5.5c0.7-1.2-9.4-9.9-18.2-17.1C366.8,245.8,366.5,249.8,366.4,253.6
			L366.4,253.6z"/>
		<path fill="#2C2E39" d="M369.3,233.6C369.3,233.6,369.3,233.6,369.3,233.6c7.4,9.7,17.9,22.6,19.4,21.7c1.7-1-7.8-25.2-11.9-35.3
			C373.4,223.5,371,228.2,369.3,233.6L369.3,233.6z"/>
		<path fill="#3C404C" d="M210.5,190.3c2.8,18.4-0.3,41.8-16.3,43.5c-1.6,0.2-9.9,1.5-11.4,1.2c-13.6-2.9-25.6-26.1-27.9-47.3
			c-1.8-16.6,0-35.5,13.1-39.2c0.9-0.2,10.4-1.1,11.4-1.2C195.5,145.5,207.5,170.4,210.5,190.3L210.5,190.3z"/>
		<path d="M182.6,236.2c-6.8-1.5-13.5-7.6-19-17.4c-5.1-9-8.7-20.3-9.9-31c-1.2-10.7-2.1-36.1,14-40.6c0.6-0.2,3.2-0.5,10.1-1.1
			c0.8-0.1,1.3-0.1,1.5-0.1c17.5-1.9,29.6,24.7,32.5,44.2c1.9,12.4,1.3,29-5.9,38.3c-3,3.9-6.9,6.2-11.6,6.7c-0.4,0-1.1,0.1-2,0.3
			c-4.3,0.6-7.2,1-8.8,1C183.1,236.3,182.8,236.3,182.6,236.2L182.6,236.2z M179.6,148.5c-0.2,0-0.8,0.1-1.6,0.1
			c-2.4,0.2-8.9,0.9-9.6,1.1c-14.2,4-13.2,27.8-12.1,37.8c1.1,10.4,4.6,21.3,9.5,30c5.1,9.1,11.3,14.9,17.3,16.2
			c1,0.2,6.7-0.6,8.9-0.9c1-0.1,1.7-0.2,2.1-0.3c3.9-0.4,7.2-2.3,9.8-5.7c6.7-8.7,7.1-25,5.3-36.3l0,0c-2.6-17.4-13.3-42-28.2-42
			C180.6,148.4,180.1,148.5,179.6,148.5L179.6,148.5z"/>
		<path fill="#2C2E39" d="M197.9,191.6c2.8,18.4-0.3,41.8-16.3,43.5s-27.9-23.5-30.5-47.1c-1.9-17.7,0.1-37.8,15.7-39.5
			C182.9,146.8,194.9,171.8,197.9,191.6L197.9,191.6z"/>
		<path d="M160.2,221.8c-5.3-9-9.1-21.2-10.4-33.6c-1.3-11.6-2.2-38.9,16.9-40.9c17.5-1.9,29.6,24.7,32.5,44.2l0,0
			c1.9,12.4,1.3,29-5.9,38.3c-3,3.9-6.9,6.2-11.6,6.7c-0.6,0.1-1.2,0.1-1.7,0.1C172.7,236.6,165.9,231.5,160.2,221.8L160.2,221.8z
			 M166.9,149.9c-16.7,1.8-15.7,27.2-14.6,38.1c1.3,12,5,23.9,10.1,32.5c3.9,6.6,10.3,14.4,19,13.4c3.9-0.4,7.2-2.3,9.8-5.7
			c6.7-8.7,7.1-25,5.3-36.3l0,0C193.9,173.9,182.6,148.2,166.9,149.9L166.9,149.9z"/>
		<path fill="#CBC7C4" d="M191.1,191.8c2.1,14.2-0.1,32.2-11.9,33.4c-11.8,1.3-20.7-18.2-22.7-36.3c-1.5-13.6,0-29.1,11.5-30.4
			C179.9,157.3,188.8,176.6,191.1,191.8z"/>
		<path fill="#2C2E39" d="M164.8,162.1c1.3,5.7,5.4,24,6.6,23.8c1-0.1,1-17.8,0.9-24.1c-1.4-0.5-2.9-0.8-4.4-0.6
			C166.8,161.3,165.7,161.6,164.8,162.1L164.8,162.1z"/>
		<path fill="#2C2E39" d="M173.8,186.8c0.7,0.4,5-8.5,8.1-15.1c-1.5-2.7-3.2-5-5.1-6.8C175.4,172.2,172.8,186.2,173.8,186.8z"/>
		<path fill="#2C2E39" d="M175.3,188.8c0.4,0.7,6.1-2.9,11.2-6.3c-0.7-2.3-1.5-4.6-2.5-6.7C179.8,181.2,174.8,187.9,175.3,188.8
			L175.3,188.8z"/>
		<path fill="#2C2E39" d="M176.3,191.3c0.1,0.9,6.6,1.4,12.5,1.7c0-0.3-0.1-0.7-0.1-1c-0.3-1.9-0.6-3.8-1.1-5.7
			C182,188.1,176.2,190.3,176.3,191.3L176.3,191.3z"/>
		<path fill="#2C2E39" d="M189.2,205.2c0.2-2.6,0.2-5.3,0-8c-5.9-2-12.8-4.1-13.1-3.1C175.8,195,183.5,201,189.2,205.2L189.2,205.2z
			"/>
		<path fill="#2C2E39" d="M184.7,219.1c1.7-2.2,2.9-5.1,3.6-8.4c-4.6-5.7-12.4-15.2-13.3-14.5C174.3,196.9,182.2,213.9,184.7,219.1
			L184.7,219.1z"/>
		<path fill="#2C2E39" d="M172.6,221.6c1.8,1,3.6,1.4,5.6,1.2c0.8-0.1,1.5-0.2,2.1-0.5c-1.1-4.8-5.5-24.6-6.8-24.5
			C172.5,198,172.6,215,172.6,221.6L172.6,221.6z"/>
		<path fill="#2C2E39" d="M163.7,210.7c1.3,2.8,2.9,5.2,4.6,7.2c1.5-7.4,3.7-19.8,2.8-20.4C170.4,197.2,166.7,204.5,163.7,210.7z"/>
		<path fill="#2C2E39" d="M160,200.4c0.6,2.1,1.2,4.2,2,6.2c3.7-4.8,7.5-10,7-10.8C168.6,195.1,164.3,197.6,160,200.4z"/>
		<path fill="#2C2E39" d="M158.1,191.1c0.3,1.9,0.6,3.9,1,5.8c4.6-1.5,8.8-3.2,8.7-4.1C167.7,192.2,163,191.6,158.1,191.1
			L158.1,191.1z"/>
		<path fill="#2C2E39" d="M157.7,187.4c5,1.7,9.9,3.2,10.2,2.4c0.3-0.8-5.5-5.7-10.5-9.7C157.3,182.5,157.4,185,157.7,187.4
			L157.7,187.4z"/>
		<path fill="#2C2E39" d="M157.8,174.7L157.8,174.7c4.5,5.6,10.7,13.1,11.4,12.5c0.8-0.7-5.7-15.3-8.5-21.4
			C159.2,168.1,158.2,171.2,157.8,174.7L157.8,174.7z"/>
		<path fill-rule="evenodd" clip-rule="evenodd" fill="#D64B00" d="M283.8,151l-44.1-27.1c0,0-46.5-4.6-65.4,0.9s-16.5,5.9-16.8,7.8
			c-0.3,1.9,3.7,13.8,3.7,13.8s9.6,0.2,17.2,5.7c12.4,8.9,25.7,24.6,30.7,22.7c8.2-3.1,53.3,27.6,59.8,9.4"/>
		<path fill-rule="evenodd" clip-rule="evenodd" fill="#A32F00" d="M166.2,145.3c-0.2,1.1-8.7-12.6-8.7-12.6s-2.1,2.2-5,14.5
			c-2.9,12.3-3.4,19.4-3.2,31c0.2,11.6,2.4,13.7,2.4,13.7s-0.8-16.1-0.8-18.5c0-2.4,0.7-11.3,1.7-14.9
			C153.6,154.9,166.2,145.3,166.2,145.3L166.2,145.3L166.2,145.3z"/>
		<path fill-rule="evenodd" clip-rule="evenodd" fill="#B23904" d="M245.2,165.8l-16-9.9c0,0-11.3-7.3-18.3-13.6
			c-7-6.3-9.7-9.7-9.7-9.7l-37.5,15.7c0,0,7.5-3,17.2,12.5c9.7,15.5,11.8,32,11.8,32s2,7.2,3.3,18.2c1.4,11,46.4,20.8,46.4,20.8
			l50.4-29L245.2,165.8L245.2,165.8L245.2,165.8z"/>
		<path fill-rule="evenodd" clip-rule="evenodd" fill="#D15000" d="M225.5,153.4c-1.3,2.8-2.4,7-2.1,13.6c0.7,15,14,34.1,14,34.1
			l-42.2,4.4c-1.2-7.9-2.6-12.7-2.6-12.7s-2.1-16.5-11.8-32c-9.7-15.5-17.2-12.5-17.2-12.5l37.5-15.7c0,0,2.7,3.4,9.7,9.7
			C215.4,146.3,221.6,150.7,225.5,153.4L225.5,153.4L225.5,153.4z"/>
		<path fill-rule="evenodd" clip-rule="evenodd" fill="#D64B00" d="M205.9,137.6L205.9,137.6c0,0,5.4,18.2,13.1,38.3
			c7.7,20.1,11.9,23.5,11.9,23.5l-35.8,5.7c-1.2-7.6-2.5-12.3-2.5-12.3s-2.1-16.5-11.8-32s-17.2-12.5-17.2-12.5l37.5-15.7
			C201.2,132.6,202.6,134.3,205.9,137.6L205.9,137.6L205.9,137.6z"/>
		<path fill-rule="evenodd" clip-rule="evenodd" fill="#B23904" d="M351.6,190.6l5.1,5.5c0,0-5,21-6.3,48.1s5.1,35.7,5.1,35.7
			l-107.1-45.9l-1.5-22.4l-9.7-20.4c0,0-4.2-8.7-5.1-12.6s-1.9-14.7-2.4-17.2c-0.5-2.5,0-5.2,0-5.2l43.2-3.3L351.6,190.6
			L351.6,190.6L351.6,190.6z"/>
		<path fill-rule="evenodd" clip-rule="evenodd" fill="#D15000" d="M348.6,206.1c2-4.2-2,43.6-2,43.6l-106.2-51.9l6.5,13.7l1.5,22.4
			l107.1,46c0,0-6.4-8.6-5.1-35.7c0.9-18.1,3.4-33.4,4.9-41.6C352.6,198.1,355.2,209.3,348.6,206.1L348.6,206.1L348.6,206.1z"/>
		<polygon fill-rule="evenodd" clip-rule="evenodd" fill="#D64B00" points="233.9,211.7 230.3,206.1 249.4,208.8 311.4,262.4 
			233.9,211.7 		"/>
		<path fill-rule="evenodd" clip-rule="evenodd" fill="#D64B00" d="M245.2,165.8l6.9,4.4c0,0,0,4.7-2.9,4.5
			c-2.8-0.2-14.4-6.7-14.4-6.7s-1.4-6.1,1.7-6.1C239.7,162,245.2,165.8,245.2,165.8L245.2,165.8z"/>
		<path fill-rule="evenodd" clip-rule="evenodd" fill="#A32F00" d="M224.5,210.7c-0.3-0.8,19.1-0.8,19.1-0.8l66,47.3
			C309.6,257.2,220.7,234.1,224.5,210.7L224.5,210.7L224.5,210.7z"/>
		<path fill-rule="evenodd" clip-rule="evenodd" fill="#D64B00" d="M220.4,201c0,0-13-33.7-24.4-51.2
			c-12.6-19.4-38.4-17.2-38.4-17.2l-2.6,19c0,0,4.7-6.9,14.2-2.1S220.4,201,220.4,201L220.4,201z"/>
		<path fill-rule="evenodd" clip-rule="evenodd" fill="#D64B00" d="M354.5,205.7l-124.1-49.3l0.2-1.6c0,0,14.3-6,20.5-8.3
			c6.3-2.3,11.7-3.2,11.7-3.2s52.9,20,92.1,32.8C394.2,188.9,354.5,205.7,354.5,205.7L354.5,205.7L354.5,205.7z"/>
		<path fill-rule="evenodd" clip-rule="evenodd" fill="#D15000" d="M362.8,182.1l-2.4-3.9c-1.6-0.7-3.5-1.4-5.5-2
			c-4.3-1.4-8.8-2.9-13.4-4.4c-10,2.2-23.5,5.2-31.3,7.3c-12.6,3.4-70.5-19-79.9-22.6v0l124.7,49.8l-0.5-0.7
			C358.3,199.7,361,191.9,362.8,182.1L362.8,182.1L362.8,182.1z"/>
		<path fill-rule="evenodd" clip-rule="evenodd" d="M355,176.2c0,0-1,6.8-3.3,14.4s-3.9,18.3-4.7,39.4s0.2,39.4,0.2,39.4l-90.5-42.6
			c0,0-19-32.8-22.9-44.6c-3.9-11.9-3.4-25.6-3.4-25.6s6.5-4.8,16.7-8c10.2-3.1,15.7-5.1,15.7-5.1l-2-0.5c0,0-18,5.6-24.2,8.4
			s-7.5,4.7-7.5,4.7s-0.7,14.9,4.1,27.6c4.8,12.7,22.7,44.6,22.7,44.6l82.2,38.5c0,0,8.6,9.1,10.9,4.6c2.3-4.4,0.8-48.2,6.6-71
			s0.8-24.6,0.8-24.6L355,176.2L355,176.2L355,176.2z"/>
		<path fill="#38A9B4" d="M438.8,136c-5.8,30.8-34.5,42.3-66.1,36.4c-31.7-5.9-52.7-26.7-46.9-57.5s34-49,65.7-43.1
			C423.2,77.7,444.6,105.2,438.8,136L438.8,136z"/>
		<path d="M371.5,174.8c-16.8-3.1-30.3-10.1-39.1-20.3c-9.5-10.9-12.9-24.8-10-40.2c5.4-28.8,30.6-52.3,68.9-45.2
			c38.7,7.2,54.8,38.8,49.5,67.2c-2.9,15.4-11.4,27.1-24.7,33.8C404,176.2,388.1,177.9,371.5,174.8L371.5,174.8z M390.3,74.2
			c-35.2-6.6-57.8,15.2-62.6,41.1c-5.1,27.5,12,48.4,44.8,54.4c33.2,6.2,57.9-7.3,63-34.4C441.4,103.2,415.2,78.9,390.3,74.2
			L390.3,74.2z"/>
		
			<ellipse transform="matrix(0.9994 -3.420178e-02 3.420178e-02 0.9994 -3.4046 14.9571)" fill="#FFFFFF" cx="435.5" cy="107" rx="14.7" ry="27.5"/>
		<path d="M423.5,126.4c-2.6-5-4.2-11.5-4.5-18.8c-0.6-16.4,6.2-29.5,15.4-29.8c9.2-0.3,16.9,12.3,17.4,28.7s-6.2,29.5-15.4,29.8
			C431.4,136.4,426.7,132.6,423.5,126.4z M444.3,89.2c-2.5-5-6-8.1-9.7-7.9c-7,0.2-12.5,12.2-12,26.2c0.5,14,6.8,25.5,13.8,25.3
			s12.5-12.2,12-26.2l0,0C448.2,99.9,446.6,93.8,444.3,89.2L444.3,89.2z"/>
		
			<ellipse transform="matrix(0.9988 -4.850112e-02 4.850112e-02 0.9988 -4.5561 21.4254)" cx="439.2" cy="104.6" rx="5.6" ry="12.1"/>
		
			<ellipse transform="matrix(6.575139e-02 -0.9978 0.9978 6.575139e-02 307.8694 533.6787)" fill="#FFFFFF" cx="438.9" cy="102.4" rx="3.6" ry="2.6"/>
		
			<ellipse transform="matrix(0.9994 -3.420178e-02 3.420178e-02 0.9994 -3.4997 14.0629)" fill="#FFFFFF" cx="409.3" cy="109.3" rx="20.7" ry="36.2"/>
		<path d="M392.5,133.6c-3.4-6.6-5.4-14.8-5.7-23.5c-0.3-10,1.6-19.4,5.4-26.6c4-7.5,9.6-11.8,15.8-12c6.2-0.2,12.1,3.7,16.6,10.9
			c4.3,6.9,6.9,16.3,7.2,26.2c0.3,10-1.6,19.4-5.4,26.6c-4,7.5-9.6,11.8-15.8,12c-6.2,0.2-12.1-3.7-16.6-10.9
			C393.5,135.4,393,134.5,392.5,133.6L392.5,133.6z M423,86.7c-0.4-0.9-0.9-1.7-1.4-2.5c-3.8-6.1-8.6-9.4-13.5-9.3
			s-9.4,3.8-12.8,10.2c-3.5,6.7-5.3,15.5-5,24.9c0.3,9.4,2.7,18.1,6.7,24.5c3.8,6.1,8.6,9.4,13.5,9.3s9.4-3.8,12.8-10.2
			c3.5-6.7,5.3-15.5,5-24.9l0,0C428,100.5,426.1,92.8,423,86.7L423,86.7z"/>
		<ellipse transform="matrix(0.9988 -4.850112e-02 4.850112e-02 0.9988 -4.6828 20.1723)" cx="413.3" cy="106.6" rx="8" ry="17.4"/>
		
			<ellipse transform="matrix(6.575139e-02 -0.9978 0.9978 6.575139e-02 285.1416 507.9594)" fill="#FFFFFF" cx="413.8" cy="101.7" rx="4.5" ry="3.3"/>
		<path fill="none" d="M299.4,137.9c2.8-7.7,6.5-15.1,9.8-22.7c1.5-3.6,3-7.3,4.7-11l0,0l0,0c1.7-3.6,3.6-7.1,6.2-10.1
			c0.8-1,1.7-1.9,2.6-2.7c1.8-31.2,26.2-56,56.1-56c31.1,0,56.3,26.7,56.3,59.6c0,4.2-0.4,8.2-1.2,12.1c9.9,6.7,16.2,16.9,16.2,28.4
			c0,19.5-18.2,35.4-41,36.3c0.5,0.5,1,0.9,1.5,1.4c-5.9-1.6-12.4-1.6-18.4-0.4l0,0c-1.5,0.3-3.1,0.7-4.5,1.1c-0.1,0-0.1,0-0.2,0.1
			c-0.6,0.2-1.2,0.4-1.8,0.6c-0.1,0.1-0.3,0.1-0.5,0.2c-0.6,0.2-1.3,0.5-1.9,0.8c-6.7,2.9-12.2,8.3-19.6,4.2
			c-6.1-3.4-11.8-7.5-18-10.8c-6.1-3.2-12.4-6-18.8-8.5c-6.4-2.4-13.1-4-19.5-6.3c-2.9-1.1-5.9-2.5-7.8-5.1
			C297.2,145.8,298.1,141.6,299.4,137.9L299.4,137.9z"/>
		<path fill-rule="evenodd" clip-rule="evenodd" fill="#D15000" d="M365.8,180.4l-12,6.9c0,0-2.5,5.9-5,28.4
			c-2.4,22.5,0.2,55.5,0.2,55.5l-108.7-46.1l75.2,40.2l38.7,13.9l-2.9-30.2c0,0-2.2-24.4,8.5-41.6S386.5,200.3,365.8,180.4
			L365.8,180.4L365.8,180.4z"/>
		<path fill-rule="evenodd" clip-rule="evenodd" fill="#D15000" d="M631.5,235.7l58.3,9.5l-1.1-24.7c0,0-20.6-34.3-76.2-62.4
			L631.5,235.7L631.5,235.7z"/>
		<path fill-rule="evenodd" clip-rule="evenodd" fill="#D15000" d="M644.5,205.2l25.9,10.4l-14-26.4l-12.8-12.5
			c0,0-25.7-20.7-70.4-34.2L644.5,205.2L644.5,205.2L644.5,205.2z"/>
		<path fill-rule="evenodd" clip-rule="evenodd" fill="#B23904" d="M548.3,171.3l-5.2-9l23.2-6.3c0,0,7.5-6.8,8.2-8.9
			c0.7-2.2-1.2-4.6-1.2-4.6s65,15.5,94.9,65.1L648,248.5L548.3,171.3L548.3,171.3L548.3,171.3z"/>
		<path fill-rule="evenodd" clip-rule="evenodd" fill="#D64B00" d="M442.7,216.1l-23.6-7.8c0,0-12.6-13-26.9-13.2s-26.4,3-26.4,3
			l-11.9-10.7l2.7-11.6l36.5-8.3l20.3,3.4l89.4,7.1l103.1,57.7L554,259.7L442.7,216.1L442.7,216.1L442.7,216.1z"/>
		<path fill-rule="evenodd" clip-rule="evenodd" fill="#D15000" d="M685,251.2l4.8-6c0,0-12.8-29.7-24-39.8l-1.6-2.8
			c0,0,1.1,1.1-0.5,5.6c-1.6,4.5-4.6,9.1-6.6,11.9c-2,2.8-6.2,4-6.2,4s-8.7-2.6-9.1-2.5c-0.4,0.1-9.6,3.5-9.6,3.5l23.2,34.5
			C655.4,259.4,659,266.6,685,251.2L685,251.2L685,251.2z"/>
		<path fill="#D15000" d="M657.5,260.9c-1.7-0.5-2.1-1.4-2.1-1.4L632.1,225l-0.1-0.1l0.1,0c0.4-0.1,9.2-3.4,9.6-3.5
			c0.4-0.1,7.6,2.1,9.2,2.5c0.3-0.1,4.2-1.2,6.1-3.9c1.7-2.4,4.9-7.2,6.6-11.9c1.2-3.3,0.9-4.8,0.7-5.3l-0.5-0.9l0.5,0.5
			c0,0,0.1,0.1,0.2,0.3l1.4,2.5c11.1,10,23.9,39.5,24,39.8l0,0.1l-4.9,6l0,0c-13.2,7.8-20.7,9.9-25,9.9
			C659,261.2,658.1,261,657.5,260.9L657.5,260.9z M689.7,245.2c-0.6-1.4-13.1-29.9-23.9-39.7l-1.1-2c0.1,0.8,0,2.3-0.9,4.7
			c-1.7,4.7-4.9,9.5-6.6,11.9c-2,2.8-6.2,4-6.2,4h0h0c-3.4-1-8.6-2.5-9.1-2.5c0,0,0,0,0,0c-0.3,0.1-6.3,2.2-9.5,3.4l23.2,34.4
			c0,0,0.5,0.8,2,1.3c6.6,1.9,20-5.2,27.4-9.6L689.7,245.2L689.7,245.2z"/>
		<path fill-rule="evenodd" clip-rule="evenodd" fill="#A32F00" d="M683.5,250.7l3.1,1c0,0,12.2,21.1,11.9,22.2s-1.9,1.1-3.6,1.1
			s-4.6-1.2-4.6-1.2l-22-8.2C668.3,265.6,682.6,253.3,683.5,250.7L683.5,250.7z"/>
		<polygon fill-rule="evenodd" clip-rule="evenodd" points="680.4,256 685.2,265.1 673.1,260.6 680.4,256 		"/>
		<path fill-rule="evenodd" clip-rule="evenodd" fill="#2C2927" d="M677.2,276.8c0-1.8,13.8-2.6,13.8-2.6l-26.8-13.5l-12.9,26.1
			L677.2,276.8L677.2,276.8L677.2,276.8z"/>
		<path fill-rule="evenodd" clip-rule="evenodd" fill="#D64B00" d="M638.9,246.1l-0.9-22.6c0,0-41.2-36.7-94.9-61.1l-45,6.8l-87,1.7
			l4.9,1l19.4,5.2l42.2,13l34.5,13.4l77.8,36.1L638.9,246.1L638.9,246.1L638.9,246.1z"/>
		<path fill-rule="evenodd" clip-rule="evenodd" fill="#D64B00" d="M654.2,282.8l1.1-7.4l35.7-1.2c0,0-3.6,9.7-22,22.8s-55,18-55,18
			S618.6,281.4,654.2,282.8L654.2,282.8L654.2,282.8z"/>
		<path d="M612.8,314.8c0-0.3,5-34,40.3-33.4l1.1-7.3l38.8-1.3l-0.7,1.8c-0.2,0.4-3.9,10.3-22.4,23.4c-7.8,5.5-19.5,10.3-34.8,14.1
			c-11.4,2.9-20.7,4.1-20.7,4.1l-1.7,0.2L612.8,314.8L612.8,314.8z M656.4,276.7l-1.1,7.4l-1.2,0c-29.8-1.1-37,22.6-38.5,29.4
			c7.5-1.2,37-6.4,52.6-17.5c13.2-9.4,18.6-17,20.6-20.4L656.4,276.7z"/>
		<path fill-rule="evenodd" clip-rule="evenodd" fill="#16151A" d="M633.4,245.4l-2.7,28.3L614.1,315l11.6-8.4c0,0,23-6,38-15.7
			c15-9.7,18.9-16,18.9-16l-27.3,0.5L633.4,245.4L633.4,245.4L633.4,245.4z"/>
		<path fill-rule="evenodd" clip-rule="evenodd" fill="#D64B00" d="M513.6,254.1l-2.1-18.8l51,6.9l11.9-5.9l41.4-2.2
			c0,0,12.1-1.4,13.5-1.8s0.5-3.4,0.7-4.7s2.7-3,3.3-3.2c0.6-0.2,4.7-0.9,4.7-0.9s22.1,23.1,31.3,37.4c0,0-27.9,17.6-55.1,20
			C587,283.2,505.7,290.9,513.6,254.1L513.6,254.1L513.6,254.1z"/>
		<path fill-rule="evenodd" clip-rule="evenodd" fill="#F7F2EC" d="M572.2,237.3l3.5-1.2l3.5-0.2c0,0-5.3,13.2-7.6,15.9
			s-59-7.1-59-7.1l-10.6-15.3L572.2,237.3L572.2,237.3L572.2,237.3z"/>
		<path fill-rule="evenodd" clip-rule="evenodd" fill="#D64B00" d="M532.4,287.2l24.3-16.5l-55.8-43.6l-19.5-12.3l-65.6-9.4
			c0,0,18.2,15.8,21.7,26.6s14.6,26.5,16.8,27.5C456.5,260.3,532.4,287.2,532.4,287.2L532.4,287.2L532.4,287.2z"/>
		<path fill-rule="evenodd" clip-rule="evenodd" fill="#D15000" d="M556,271.1l-125-50c2.9,3.7,5.4,7.5,6.5,10.8
			c3.5,10.8,14.6,26.5,16.8,27.5c2.2,1,78.1,27.8,78.1,27.8L556,271.1L556,271.1L556,271.1z"/>
		<path fill-rule="evenodd" clip-rule="evenodd" fill="#B23904" d="M564,284.8l-12.8-10.2l-104.6-26.9c0,0,3.4,48.5,2.7,55.4
			s32.2,9.5,32.2,9.5S553.1,308.9,564,284.8L564,284.8z"/>
		<path fill-rule="evenodd" clip-rule="evenodd" fill="#D15000" d="M611.4,323.7c0,0,18.6-24.8,20.9-29.7s8.5-11,8.5-11l-32.3-2.4
			L583,315C583,315,587.8,318.1,611.4,323.7L611.4,323.7L611.4,323.7z"/>
		<path fill-rule="evenodd" clip-rule="evenodd" fill="#F1B706" d="M637.3,286.8l-2.7,2.2l-26.7,33.9c1.1,0.3,2.3,0.5,3.5,0.8
			c0,0,18.6-24.8,20.9-29.7C633.4,291.6,635.5,288.9,637.3,286.8L637.3,286.8L637.3,286.8z"/>
		<path fill-rule="evenodd" clip-rule="evenodd" fill="#A32F00" d="M593.7,315.8c0.3-0.7,38.4-29.7,38.4-29.7s-4.6-2.7-7.9-1.9
			s-37.4,28.1-37.4,28.1S585.6,317.9,593.7,315.8L593.7,315.8L593.7,315.8z"/>
		<polygon fill-rule="evenodd" clip-rule="evenodd" fill="#D64B00" points="536.6,301.5 510.8,304.6 449.3,302.2 448.6,316.3 
			533.3,329.5 611.4,323.7 612,322.2 536.6,301.5 		"/>
		<polygon fill-rule="evenodd" clip-rule="evenodd" fill="#D15000" points="582.2,300.5 592.9,314.7 612.3,322.3 537.9,326.3 
			518.7,311.9 582.2,300.5 		"/>
		<path fill-rule="evenodd" clip-rule="evenodd" fill="#F1B706" d="M531.5,309.1c-0.1-1-20.1-5.3-20.1-5.3l-0.6,0.8l27.7,22.1
			l64.4-3.5l-63.8,1.9l-12.4-9.5L531.5,309.1L531.5,309.1L531.5,309.1z"/>
		<path fill-rule="evenodd" clip-rule="evenodd" fill="#D15000" d="M689.9,245.2c0,0-5.8,6.1-13.5,9.9c-7.7,3.9-32.9,14.8-40.9,16.2
			c-8,1.5-82-0.7-82-0.7l-42,33.2l140.1-26l28.5-18.3C680,259.5,687,253.3,689.9,245.2L689.9,245.2L689.9,245.2z"/>
		<path fill-rule="evenodd" clip-rule="evenodd" fill="#2E2E31" d="M665.6,269.5l1.9,1.1c0,0-3.4,4.8-9.8,9.8
			c-6.4,5-25.4,13.5-25.4,13.5l2.3-5l-5-5.8L665.6,269.5L665.6,269.5L665.6,269.5z"/>
		<path fill-rule="evenodd" clip-rule="evenodd" d="M680,259.5l-12.6,11.1l-36.5,14.3l-38,29.8l-64.6,2.2l-16.9-13.1l42.2-28.2
			l82.2,2.4C635.8,277.9,664.1,269.2,680,259.5L680,259.5L680,259.5z"/>
		<polygon fill-rule="evenodd" clip-rule="evenodd" fill="#232329" points="522.9,308.9 586,302.6 622,279.2 556.5,276.9 
			516.6,304.2 522.9,308.9 		"/>
		<path fill-rule="evenodd" clip-rule="evenodd" d="M590.9,281.2l1.9-0.3l0.7-0.8l2,0.1l-0.3,0.4l-0.9,1l1,0.7l1,0.7l1.9-0.3
			l1.9-0.3l0.9-1l0.8-0.9l4.7,0.2l-1.5,0.2l-1.9,0.3l-0.9,1l-0.9,1l1,0.7l1,0.7l1.9-0.3l1.9-0.3l0.9-1l0.9-1l-1-0.7l-0.9-0.6
			l2.6,0.1l0.5,0.4l1.8-0.3l2,0.1l-2.3,1.5l-1.4,0.2l-0.9,1l-0.6,0.6l-1.8,1.2l-1.6,0.2l-1.9,0.3l-0.9,1l-0.9,1l0.7,0.5l-1.2,0.8
			l-0.7-0.5l-1.9,0.3l-1.9,0.3l-0.9,1l-0.9,1l1,0.7l0.5,0.3l-1.3,0.9l-0.5-0.3l-1-0.7l-1.9,0.3l-1.9,0.3l-0.9,1l-0.9,1l1,0.7l1,0.7
			l0.8-0.1l-2.8,1.8l0.8-0.9l-1-0.7l-1-0.7l-1.9,0.3l-1.9,0.3l-0.9,1l-0.9,1l1,0.7l1,0.7l1.9-0.3l1-0.2l-3.2,2.1l-1.6,0.2l0.8-0.8
			l-1-0.7l-1-0.7l-1.9,0.3l-1.9,0.3l-0.9,1l-0.9,1l0.5,0.3l-7.3,0.7l0.3-0.4l-1-0.7l-1-0.7l-1.9,0.3l-1.9,0.3l-0.9,1l-0.8,0.9
			l-10.2,1l-1-0.8l-1-0.8l-1.9,0.1l-1.9,0.1l-0.9,0.9l-0.9,0.9l0.6,0.4l-7.8,0.8l0.7-0.7l-1-0.8l-1-0.8l-1.9,0.1l-1.9,0.1l-0.9,0.9
			l-0.9,0.9l1,0.8l0.3,0.2l-1.9,0.2l-0.5-0.4l-1.9,0.1l-1.9,0.1l-0.8,0.8l-1.7,0.2l-0.2-0.1l0.5-0.5l0.9-0.9l-1-0.8l-1-0.8l-1.9,0.1
			l-0.5,0l6.3-4.3l0.8,0l1.9-0.1l0.9-0.9l0.9-0.9l-0.8-0.7l1.1-0.8l0.8,0.6l1.9-0.1l1.9-0.1l0.9-0.9l0.9-0.9l-1-0.8l-1-0.8h-0.2
			l1.5-1l0,0l1,0.8l1,0.8l1.9-0.1l1.9-0.1l0.9-0.9l0.9-0.9l-1-0.8l-1-0.8l-1.9,0.1l-1.1,0l2.3-1.6l0.6,0l0.9-0.9l0.4-0.4l2-1.3
			l1.7-0.1l1.9-0.1l0.9-0.9l0.9-0.9l-1-0.8l-0.2-0.2l1.3-0.9l0.1,0.1l1,0.8l1.9-0.1l1.9-0.1h0h0l1.9-0.3l1.9-0.3l0.9-1l0.9-1l-1-0.7
			l-1-0.7l-1.9,0.3l-1.9,0.3h0h0l-1,0l2.5-1.7l3.7,0.1l-0.2,0.2l1,0.7l1,0.7l1.9-0.3l1.9-0.3l0.7-0.7l2,0.1l-0.3,0.3l-0.9,1l1,0.7
			l1,0.7l1.9-0.3l1.9-0.3l0.9-1l0.8-0.9l4.7,0.2l-1.4,0.2l-1.9,0.3l-0.9,1l-0.9,1l1,0.7l1,0.7l1.9-0.3l1.9-0.3l0.9-1l0.9-1l-1-0.7
			l-0.9-0.6l2.6,0.1l0.4,0.2l1.2-0.2l4.1,0.1l-0.2,0.2l1,0.7l1,0.7L590.9,281.2L590.9,281.2L590.9,281.2z M587,283.2l0.9-1l-1-0.7
			l-1-0.7l-1.9,0.3l-1.9,0.3l-0.9,1l-0.9,1l1,0.7l1,0.7l1.9-0.3l1.9-0.3L587,283.2L587,283.2z M572.3,286.1l0.9-1l0.9-1l-1-0.7
			l-1-0.7l-1.9,0.3l-1.9,0.3l-0.9,1l-0.9,1l1,0.7l1,0.7l1.9-0.3L572.3,286.1L572.3,286.1z M566.1,286.8l-1-0.7l-1.9,0.3l-1.9,0.3
			l-0.9,1l-0.9,1l1,0.7l1,0.7l1.9-0.3l1.9-0.3l0.9-1l0.9-1L566.1,286.8L566.1,286.8z M558.2,288l0.9-1l0.9-1l-1-0.7l-1-0.7l-1.9,0.3
			l-1.9,0.3h0h0l-1.9,0.1l-1.9,0.1l-0.9,0.9l-0.9,0.9l1,0.8l1,0.8l1.9-0.1l1.9-0.1h0h0l1.9-0.3L558.2,288L558.2,288L558.2,288z
			 M581.2,285.7l-1-0.7l-1-0.7l-1.9,0.3l-1.9,0.3l-0.9,1l-0.9,1l1,0.7l1,0.7l1.9-0.3l1.9-0.3l0.9-1L581.2,285.7L581.2,285.7z
			 M573.5,288.3l-1-0.7l-1.9,0.3l-1.9,0.3l-0.9,1l-0.9,1l1,0.7l1,0.7l1.9-0.3l1.9-0.3l0.9-1l0.9-1L573.5,288.3L573.5,288.3z
			 M558.7,292.8l0.9-1l0.9-1l-1-0.7l-1-0.7l-1.9,0.3l-1.9,0.3h0h0l-1.9,0.1l-1.9,0.1l-0.9,0.9l-0.9,0.9l1,0.8l1,0.8l1.9-0.1l1.9-0.1
			h0h0l1.9-0.3L558.7,292.8L558.7,292.8L558.7,292.8z M566.7,293.3l0.9-1l-1-0.7l-1-0.7l-1.9,0.3l-1.9,0.3l-0.9,1l-0.9,1l1,0.7
			l1,0.7l1.9-0.3l1.9-0.3L566.7,293.3L566.7,293.3z M560.9,295.6l-1-0.7l-1-0.7l-1.9,0.3l-1.9,0.3h0h0l-1.9,0.1l-1.9,0.1l-0.9,0.9
			l-0.9,0.9l1,0.8l1,0.8l1.9-0.1l1.9-0.1h0h0l1.9-0.3l1.9-0.3l0.9-1L560.9,295.6L560.9,295.6L560.9,295.6z M584.3,285.9l-1.9,0.3
			l-0.9,1l-0.9,1l1,0.7l1,0.7l1.9-0.3l1.9-0.3l0.9-1l0.9-1l-1-0.7l-1-0.7L584.3,285.9L584.3,285.9z M579.6,289.1l-1.9,0.3l-1.9,0.3
			l-0.9,1l-0.9,1l1,0.7l1,0.7l1.9-0.3l1.9-0.3l0.9-1l0.9-1l-1-0.7L579.6,289.1L579.6,289.1z M573.9,293.1l-1-0.7l-1.9,0.3l-1.9,0.3
			l-0.9,1l-0.9,1l1,0.7l1,0.7l1.9-0.3l1.9-0.3l0.9-1l0.9-1L573.9,293.1L573.9,293.1z M567,296.5l-1-0.7l-1.9,0.3l-1.9,0.3l-0.9,1
			l-0.9,1l1,0.7l1,0.7l1.9-0.3l1.9-0.3l0.9-1l0.9-1L567,296.5L567,296.5z M561.3,300.5l-1-0.7l-1-0.7l-1.9,0.3l-1.9,0.3h0h0
			l-1.9,0.1l-1.9,0.1l-0.9,0.9l-0.9,0.9l1,0.8l1,0.8l1.9-0.1l1.9-0.1h0h0l1.9-0.3l1.9-0.3l0.9-1L561.3,300.5L561.3,300.5
			L561.3,300.5z M549.3,298.5l-1-0.8l-1.9,0.1l-1.9,0.1l-0.9,0.9l-0.9,0.9l1,0.8l1,0.8l1.9-0.1l1.9-0.1l0.9-0.9l0.9-0.9L549.3,298.5
			L549.3,298.5z M542.5,302.9l0.9-0.9l-1-0.8l-1-0.8l-1.9,0.1l-1.9,0.1l-0.9,0.9l-0.9,0.9l1,0.8l1,0.8l1.9-0.1l1.9-0.1L542.5,302.9
			L542.5,302.9z M549,295.3l0.9-0.9l-1-0.8l-1-0.8l-1.9,0.1l-1.9,0.1l-0.9,0.9l-0.9,0.9l1,0.8l1,0.8l1.9-0.1l1.9-0.1L549,295.3
			L549,295.3z M541.9,296.4l-1-0.8l-1.9,0.1l-1.9,0.1l-0.9,0.9l-0.9,0.9l1,0.8l1,0.8l1.9-0.1l1.9-0.1l0.9-0.9l0.9-0.9L541.9,296.4
			L541.9,296.4z M536.2,300l-1-0.8l-1-0.8l-1.9,0.1l-1.9,0.1l-0.9,0.9l-0.9,0.9l1,0.8l1,0.8l1.9-0.1l1.9-0.1l0.9-0.9L536.2,300
			L536.2,300z M529.5,302.7l-1-0.8l-1-0.8l-1.9,0.1l-1.9,0.1l-0.9,0.9l-0.9,0.9l1,0.8l1,0.8l1.9-0.1l1.9-0.1l0.9-0.9L529.5,302.7
			L529.5,302.7z M548.5,290.5l0.9-0.9l-1-0.8l-1-0.8l-1.9,0.1l-1.9,0.1l-0.9,0.9l-0.9,0.9l1,0.8l1,0.8l1.9-0.1l1.9-0.1L548.5,290.5
			L548.5,290.5z M571.5,297.5l-1.9,0.3l-0.9,1l-0.9,1l1,0.7l1,0.7l1.9-0.3l1.9-0.3l0.9-1l0.9-1l-1-0.7l-1-0.7L571.5,297.5
			L571.5,297.5z M578.2,294.2l-1.9,0.3l-0.9,1l-0.9,1l1,0.7l1,0.7l1.9-0.3l1.9-0.3l0.9-1l0.9-1l-1-0.7l-1-0.7L578.2,294.2
			L578.2,294.2z M582,292l-0.9,1l1,0.7l1,0.7l1.9-0.3l1.9-0.3l0.9-1l0.9-1l-1-0.7l-1-0.7l-1.9,0.3l-1.9,0.3L582,292L582,292z
			 M565.9,283.7l0.9-1l-1-0.7l-1-0.7l-1.9,0.3l-1.9,0.3l-0.9,1l-0.9,1l1,0.7l1,0.7l1.9-0.3l1.9-0.3L565.9,283.7L565.9,283.7z
			 M589.2,282.9l-0.9,1l-0.9,1l1,0.7l1,0.7l1.9-0.3l1.9-0.3l0.9-1l0.9-1l-1-0.7l-1-0.7l-1.9,0.3L589.2,282.9L589.2,282.9z
			 M588.8,288.7l-0.9,1l1,0.7l1,0.7l1.9-0.3l1.9-0.3l0.9-1l0.9-1l-1-0.7l-1-0.7l-1.9,0.3l-1.9,0.3L588.8,288.7L588.8,288.7z
			 M595.6,285.3l-0.9,1l1,0.7l1,0.7l1.9-0.3l1.9-0.3l0.9-1l0.9-1l-1-0.7l-1-0.7l-1.9,0.3l-1.9,0.3L595.6,285.3L595.6,285.3z"/>
		<path fill-rule="evenodd" clip-rule="evenodd" d="M579.4,234.9c0,0-55.4-26.4-86.7-38.9l2-0.6c31,12.2,88.2,39.5,88.2,39.5H579.4z
			 M573.6,234.9c24.2,0.9,55.1-2.8,55.8-3.1c0.7-0.4-0.1-5.6,0.8-6.4c1-0.9,9.3-4.1,11.7-4.5c2.4-0.4,9.4,2.7,9.4,2.7
			s5.8-3.4,9.3-9.6c2.3-4.1,3.4-7.8,3.8-9.9l0,0l-0.3-0.3l-20.6-27l14.1,12.5l10.1,12.3l3.4,9.2l-6.2-6.3c-0.5,2.1-1.6,6.5-3.7,10.8
			c-2.9,5.9-9.6,9.4-9.6,9.4s-6.8-2.9-9.2-2.6c-2.4,0.4-10.8,3.6-11.7,4.5c-1,0.9-0.1,6.1-0.8,6.4c-0.7,0.4-29.8,4.1-53.8,3.4
			c0.2-0.5,0.3-0.9,0.3-0.9C575.5,235.3,574.6,235.1,573.6,234.9L573.6,234.9L573.6,234.9z"/>
		<path fill-rule="evenodd" clip-rule="evenodd" d="M498.6,198.4c-4-1.6-7.7-3.1-11-4.4c-29.9-11.4-76.5-23.2-76.5-23.2h2.2
			c7,1.8,50.3,12.8,77.7,23.2c3.4,1.3,7.1,2.8,11.1,4.4L498.6,198.4L498.6,198.4z"/>
		<path fill-rule="evenodd" clip-rule="evenodd" d="M576.4,235.5c0,0-3,8.7-4.6,10.9c-1.6,2.2-0.8,2.8-10.4,2.2
			c-9.6-0.6-31.8-3-35.1-4.5c-3.3-1.4-41.7-25.3-43.3-26.9s-1.6-2.5-1.6-2.5S516.7,221.3,576.4,235.5L576.4,235.5L576.4,235.5z"/>
		<path fill-rule="evenodd" clip-rule="evenodd" fill="#232329" d="M568.1,238.3c0,0-1.9,5.6-3,7s-0.5,1.8-6.7,1.4
			c-4.3-0.3-23.7-2.6-35.3-4.3c-9.1-5.3-34.7-21.2-39.5-24.6C501.8,222.3,539.9,231.6,568.1,238.3L568.1,238.3L568.1,238.3z"/>
		<path fill-rule="evenodd" clip-rule="evenodd" fill="#D1CFCC" d="M524.6,230.1l2.5,8.1l1.3,2.4l-35.4-19.6l-4.8-1.7l39.1,23.8
			l18,2.2l-14-5.4l-2.4-7L524.6,230.1L524.6,230.1L524.6,230.1z M550.7,231.3l4.5,10.9l7.7,4.4l5.9,0.3l0.8-1.5l-4.8-0.2l-5.3-2.4
			l-5.3-10.8L550.7,231.3L550.7,231.3L550.7,231.3z M519,224.8c0,0,12.7,8.2,18.1,12.2c5.5,4,16.5,9.3,16.5,9.3l8.5,0.6
			c0,0-7.9-4.2-15.9-8.6c-8-4.4-18.6-11.7-18.6-11.7L519,224.8L519,224.8L519,224.8z"/>
		<path fill-rule="evenodd" clip-rule="evenodd" fill="#BBB7B4" d="M557.5,238.6l-4.2-0.9l1.9,4.5l7.7,4.4l5.9,0.3l0.8-1.5l-4.8-0.2
			l-5.3-2.4L557.5,238.6L557.5,238.6L557.5,238.6z M540.8,235.2l-8.8-1.8c2,1.4,3.8,2.6,5.2,3.6c5.5,4,16.5,9.3,16.5,9.3l8.5,0.6
			c0,0-7.9-4.2-15.9-8.6C544.5,237.4,542.6,236.3,540.8,235.2L540.8,235.2L540.8,235.2z M528.5,232.7l-3.3-0.7l1.9,6.2l1.3,2.4
			l-22.6-12.5l-4.9-1l26.3,16l18,2.2l-14-5.4l-2.4-7L528.5,232.7L528.5,232.7L528.5,232.7z"/>
		<path fill-rule="evenodd" clip-rule="evenodd" fill="#F0ECEA" d="M525.6,230.8l2.1,6.7l1.3,2.4l-1.4-0.8l0.8,1.5l-35.5-19.6
			l-0.7-0.3l35.6,21.7l14.5,1.8l-11.1-4.3l-2.4-7L525.6,230.8L525.6,230.8L525.6,230.8z M555.2,242.2L555.2,242.2l7,4l0.5,0
			C562.7,246.2,559.6,244.6,555.2,242.2L555.2,242.2L555.2,242.2z M569.3,246.2l0.4-0.8l-4.8-0.2l-5.3-2.4l-5.3-10.8l-2.7-0.5
			l4.2,10.1l7.7,4.4L569.3,246.2L569.3,246.2L569.3,246.2z M560.5,246.1c-2.7-1.5-8.5-4.6-14.3-7.7c-8-4.4-18.6-11.7-18.6-11.7
			l-6.1-1.3c3.7,2.4,12.1,7.9,16.3,11c5.5,4,16.5,9.3,16.5,9.3L560.5,246.1L560.5,246.1L560.5,246.1z"/>
		<path fill-rule="evenodd" clip-rule="evenodd" fill="#FFFCF8" d="M525.6,230.8l0.5,1.5l2.7,0.5L525.6,230.8L525.6,230.8
			L525.6,230.8z M506.3,228.3l-13.4-7.4l-0.7-0.3l11.8,7.2L506.3,228.3L506.3,228.3z M557.5,238.6l-3.2-0.6l-2.7-6.4l2.7,0.5
			L557.5,238.6L557.5,238.6L557.5,238.6z M540.9,235.3l-6.5-1.3c-4.3-3-10-6.8-13-8.6l6.1,1.3C527.6,226.6,534.2,231.2,540.9,235.3
			L540.9,235.3L540.9,235.3z"/>
		<polygon fill-rule="evenodd" clip-rule="evenodd" fill="#FFFCF8" points="656.4,189.2 663.3,200.7 666.8,204.7 666.8,204.6 
			667.6,205.7 668,205.9 668.3,206.1 666.2,201 661.3,194.1 665.6,201.1 666.7,204.6 656.4,189.2 		"/>
		<path fill-rule="evenodd" clip-rule="evenodd" d="M641.5,234.5c0,0,9.7,13,22.8,19.4c0,0,0.5-6.1-3.6-13c-4-7-8.5-11-8.5-11
			S645.8,227.8,641.5,234.5L641.5,234.5z"/>
		<path fill-rule="evenodd" clip-rule="evenodd" fill="#E07000" d="M369.8,197.1l16.9-28.3l-30.2,6.8l-2.7,11.6l11.9,10.7
			C365.7,198,367.2,197.6,369.8,197.1L369.8,197.1L369.8,197.1z"/>
		<path fill-rule="evenodd" clip-rule="evenodd" fill="#A32F00" d="M448.7,314.6c0,0,1.4-25.2-2.3-52.6
			c-4.1-29.9-29.9-63.6-57.5-65.3c-27.6-1.7-38,30.5-36.5,50.8c1.5,20.3,6,38,6,38l-4.1-6.3l-1.5-0.7c0,0-13.4-53.7,7.7-75.9
			c21-22.3,53.2-10.4,76,22.5C459.2,258.1,448.7,314.6,448.7,314.6L448.7,314.6L448.7,314.6z"/>
		<polygon fill-rule="evenodd" clip-rule="evenodd" fill="#5B1E00" points="415.5,208.1 420,206.4 481.8,215.8 482,214.8 419,205.5 
			414.5,207.3 415.5,208.1 		"/>
		<path fill-rule="evenodd" clip-rule="evenodd" fill="#4B4E56" d="M449.6,249.8l-8.1-5.6l-0.6-1.5l28.6,8.9c0,0-1.6,2.7-2.7,3.2
			c-1.1,0.5-22.6-3-22.6-3L449.6,249.8L449.6,249.8L449.6,249.8z"/>
		<path fill-rule="evenodd" clip-rule="evenodd" fill="#F1B706" d="M468.5,252.5c0,0-1.1,1.7-2.1,1.9c-1,0.2-22.3-2.7-22.3-2.7
			l-2.6-7.6L468.5,252.5L468.5,252.5L468.5,252.5z"/>
		<path fill-rule="evenodd" clip-rule="evenodd" fill="#D64B00" d="M356.9,279.1l-116.5-53.9l-29.1-4.6l1,5.4l27.6,14.3l110.4,42.4
			C350.3,282.7,356.8,285,356.9,279.1L356.9,279.1L356.9,279.1z"/>
		<path fill-rule="evenodd" clip-rule="evenodd" fill="#D15000" d="M205.6,228.2c-0.7,1.8,118.6,39.9,118.6,39.9l-92.8-42
			C231.4,226.2,205.9,217.2,205.6,228.2L205.6,228.2L205.6,228.2z"/>
		<polygon fill-rule="evenodd" clip-rule="evenodd" fill="#B23904" points="207.3,214.3 195.9,211 196.9,229.1 358.4,285.6 
			356.4,282.5 245.8,241.4 221.8,227.1 207.3,214.3 		"/>
		<polygon fill-rule="evenodd" clip-rule="evenodd" fill="#D64B00" points="196.6,211.1 198.2,227.6 358.4,285.6 196.9,229.1 
			195.9,211 196.6,211.1 		"/>
		<polygon fill-rule="evenodd" clip-rule="evenodd" fill="#D64B00" points="232.6,213.5 235.3,209.9 243.6,209.9 230.3,206.1 
			195.9,211 235.2,235.5 216.8,220.6 232.6,213.5 		"/>
		<path fill-rule="evenodd" clip-rule="evenodd" fill="#D15000" d="M232.2,206.7c-7.1,2.9-21.3,8.6-22.4,9.3
			c-0.7,0.4-1.3,1.4-1.4,2.8l26.8,16.8l-18.4-14.9l15.9-7.1l2.7-3.6h8.4L232.2,206.7L232.2,206.7L232.2,206.7z"/>
		<path fill-rule="evenodd" clip-rule="evenodd" d="M235.3,209.9l6.1,14.3l-1.8,2.1h-16.2l-8.7-5.9c0,0-0.6-0.9,0.7-1.7
			C216.7,217.8,235.3,209.9,235.3,209.9L235.3,209.9L235.3,209.9z"/>
		<path fill-rule="evenodd" clip-rule="evenodd" d="M236.5,161.9l15.6,8.2C252.1,170.2,246.3,162.4,236.5,161.9L236.5,161.9z
			 M234.8,168c0,0,13.8,6.5,14.4,6.7C249.8,174.8,239.8,174.8,234.8,168L234.8,168z"/>
		<path fill-rule="evenodd" clip-rule="evenodd" fill="#F1B706" d="M251.9,172l-17.4-7.5c0.1-1.4,0.6-2.6,2-2.6l15.6,8.2
			C252.1,170.2,252.1,171,251.9,172L251.9,172L251.9,172z"/>
		<path fill-rule="evenodd" clip-rule="evenodd" fill="#A32F00" d="M151.7,191.9c0,0-1.4-20,0.5-29.8c1.9-9.8,10.2-15.7,19-9.3
			c8.8,6.4,19.9,25,24.8,58.2c0,0-3.4-30.7-13.5-49.8C172.3,142,144.9,131.4,151.7,191.9L151.7,191.9L151.7,191.9z"/>
		<path fill-rule="evenodd" clip-rule="evenodd" fill="#D64B00" d="M195.1,205c-1.5-9.9-5.3-30-12.7-43.9c-0.1-0.2-0.2-0.4-0.3-0.5
			c15.7,15.2,38.3,40.4,38.3,40.4L195.1,205L195.1,205L195.1,205z"/>
		<path fill-rule="evenodd" clip-rule="evenodd" fill="#D15000" d="M240.5,127.3c-1.8,0.2-1.8,1.9-2.4,2c-1.7,0.3-16.1,4.8-24.9,7.5
			c2.6,2.9,8.9,8.8,14.9,13.3c9.2-2.2,20.5-7.4,28.6-10.1c-4.1-2.7-10.4-7.1-14.7-11.2L240.5,127.3L240.5,127.3z"/>
		<path fill-rule="evenodd" clip-rule="evenodd" fill="#A32F00" d="M239.7,127.9c-1.8,0.2-1,1.3-1.6,1.4c-1.7,0.3-16.1,4.8-24.9,7.5
			c-2.2-2.4-3.2-3.8-3.2-3.8l28.6-8c0.9,1.2,0.6,0.9,2,2.2L239.7,127.9L239.7,127.9z"/>
		<path d="M346.1,282.7l-0.1-1.1c-0.2-3.6-5.8-87.6,9.1-107l0.4-0.5l37.5-8.5l0.3,0.1c0.4,0.1,36.7,5.3,97.5,1.3
			c25-1.6,68.5-6.2,78.8-18.7c1.5-1.8,2.1-3.6,1.9-5.6l-0.3-2.7l2.6,0.9c1.9,0.6,47.5,15.6,70.9,34.5c23.3,18.8,45.2,43.7,45.4,43.9
			l0.4,0.5l1.1,25.9L681.2,261l-45.1,18.7l-79.6-1h-0.2l-115.2-32.8l-0.7-0.2L440,245c-0.2-0.4-20.5-36.6-39.8-43.5
			c-8.6-3.1-16.8-2.9-23.8,0.5c-7.9,3.8-13.9,11.6-17.5,22.4c-7.4,22.4,0,59.7,0,60.1l0.6,3L346.1,282.7L346.1,282.7z M401.4,198.3
			c8.7,3.1,18.3,11.7,28.7,25.4c6.5,8.6,11.3,16.7,12.6,19l114.1,32.4l78.6,1l43.5-18.1l9.2-13.4l-1-23.5
			c-3.1-3.5-23.2-25.8-44.6-43c-20-16.1-58-29.9-67.6-33.2c-0.3,1.9-1.2,3.8-2.6,5.6c-8.3,10.1-36.4,17-81.2,19.9
			c-58.1,3.8-94.1-0.8-97.9-1.3l-35.6,8.1c-12.8,18.1-8.7,92.9-8.1,103l5.6,2c-0.6-3.8-1.7-10.8-2.4-19c-1.3-16.6-0.3-30,3-39.8
			c3.9-11.7,10.6-20.2,19.3-24.4c4.2-2,8.7-3.1,13.5-3.1C392.6,195.9,397,196.7,401.4,198.3L401.4,198.3z"/>
		<path d="M356.7,286.6l1.1-3.3l-157.9-55.1l-0.9-17.1c-3.2-22.1-11.6-49.3-25.5-59.3c-5-3.6-10.3-4-14.8-1l-0.2,0.2
			c-1.3,1.1-2.4,2.2-3.2,3.2l-0.1,0.2c-0.5,0.7-1,1.4-1.4,2.2c0.4-2.6,1-5.3,1.7-8.4c2.6-11.3,4.6-13.7,4.6-13.8l0.4-0.4l0-0.5
			c0.1-0.3,0-0.6,0-0.8c0,0,0-0.1,0-0.1c1.4-1.3,12-4.4,15.5-5.5c17.4-5.1,59.8-1.3,64.3-0.9l42.4,26l-0.2,0.4l1.8,0.6
			c15,5.5,37.2,13.6,57.9,20.6c1.1,0.4,2.2,0.8,3.4,1.1l0.1,0c1.1,0.4,2.2,0.7,3.2,1.1l3.5,1.2l0.6-1.6l0.5-1.7l-3.5-1.2
			c-1.1-0.4-2.1-0.7-3.2-1.1l-0.1,0c-1.1-0.4-2.2-0.8-3.3-1.1c-20.2-6.9-42-14.7-56.9-20.2l-45-27.6l-0.4,0
			c-1.9-0.2-47.1-4.6-66.1,1c-16.4,4.8-18.1,6-18,8.9c-0.9,1.3-2.7,5-5,14.7c-3,12.8-3.4,20-3.2,31.4c0.2,11.5,2.3,14.3,2.9,14.9
			l3.1,2.9l-0.2-4.3c0,0-0.2-4.5-0.4-9.1c-0.2-6.3-0.2-14.9,0.9-20.2c0.5-2.5,1.4-4.7,2.7-6.5c0.8-0.8,1.8-1.8,2.9-2.8
			c3.2-2,7-1.7,10.7,1c8.5,6.2,19.3,24.4,24.1,56.9l1,19.2L356.7,286.6L356.7,286.6z"/>
		<polygon points="447.6,172.5 462,152.9 437.6,143.5 436.1,147.5 455.1,154.9 444.1,169.9 		"/>
		<path d="M533.2,331.3l0.2,0l79.8-7.3l26.8-38.1l-9.5-2.8l-38.2,30l-63.4,2.1l-14.5-11.2l40.2-26.9l-1.9-2.9l-44.2,29.6l19.4,14.9
			l65.8-2.2l37.7-29.6l3.1,0.9l-23.1,32.9l-78,7.1l-82.9-14.6c0.1-3.7,0.5-13.8,0.1-26.8c-0.4-16.7-7.1-41.6-7.4-42.6l-3.4,0.9
			c0.1,0.2,6.9,25.6,7.3,41.8c0.4,16.4-0.2,28-0.2,28.1l-0.1,1.5L533.2,331.3L533.2,331.3z"/>
		<polygon points="655.4,277.1 701.4,275.5 688.1,250.9 685,252.5 695.6,272.3 655.3,273.7 		"/>
		<g opacity="0.32">
			<path fill="#303742" d="M376.1,134.6c-1.6-7.9-6.4-40.8-6.4-40.8c0-2.6,2.1-3,2.1-3s98.3-3.1,113.3-5.6
				c15.7-2.6,44.8-9.5,48-10.4c3.2-0.9,4.4,1.4,4.4,1.4c2.4,2.9,18.1,29.7,22.3,37.5c8.6,16,13.6,29.6,10.3,35.3
				c-2.8,4.9-18.4,7.9-38.3,12.4c-20.4,4.6-129.9,14.5-140.9,8.2C380.8,163.8,378.5,145.9,376.1,134.6L376.1,134.6z"/>
		</g>
		<path fill="#202129" d="M534.7,69.1c-6,1.4-28.4,6-43.1,9.3c-17.3,3.8-109.8,8.6-119.4,10.1c-2.4,0.4-1.9,2.9-1.9,2.9
			c2.5,11.7,6.2,31.7,8,41.9c2.1,12.1,4.9,30.9,15.7,37.1c11.7,6.7,118.1-1.7,139.7-6.6c21.1-4.8,37.7-8,40.6-13.2
			c3.5-6-4.7-25.3-13.8-42.2c-1.4-2.5-2.8-4.9-3.9-6.8C552,93.8,543,79,537.4,70.4C537.4,70.4,536.6,68.7,534.7,69.1L534.7,69.1z
			 M531.8,161.5c-20.4,4.6-124.2,12.6-135.2,6.3c-10.2-5.9-12.4-23.7-14.8-35c-1.6-7.9-6.4-36.4-6.4-36.4c0-2.6,2.1-3,2.1-3
			s92.6-5.6,107.6-8c15.7-2.6,44.8-9.5,48-10.4c3.2-0.9,4.4,1.4,4.4,1.4c2.4,2.9,18.1,29.7,22.3,37.5c8.6,16,13.6,29.6,10.3,35.3
			C567.3,153.9,551.8,156.9,531.8,161.5L531.8,161.5z"/>
		<g opacity="0.2">
			<path fill="#FFFFFF" d="M485.1,85.3c15.7-2.6,44.8-9.5,48-10.4c3.2-0.9,4.4,1.4,4.4,1.4c2.4,2.9,18.1,29.7,22.3,37.5
				c8.6,16,13.6,29.6,10.3,35.3c-1.6,2.8-7.3,4.9-15.5,7.1c-9.8-16-32.4-44.6-78.1-69.5C479.7,86.1,482.7,85.7,485.1,85.3
				L485.1,85.3z"/>
		</g>
		<path d="M357.5,174.6c0,0,18.4-1.3,18.8,12.6S364,202.5,364,202.5s-4.8-0.9-12.5-10.9c-9.9-13-5.9-16.3-3.1-18.5"/>
		<polygon points="350.5,181.4 350.6,177 317,175.7 329.9,146.6 325.9,144.9 310.4,179.8 		"/>
		<path fill-rule="evenodd" clip-rule="evenodd" fill="#E25A00" d="M288.8,167.1l-1.7-2.4l-2.3-2.8c0,0,4-6.9,5.4-8
			c1.3-1.1,28.8-2.2,28.8-2.2s10.2,2.8,15.9,7.1s4.4,8.2,4.4,8.2l-3.6,1.5l-41.9,1.1L288.8,167.1L288.8,167.1L288.8,167.1z"/>
		<path fill-rule="evenodd" clip-rule="evenodd" fill="#BF2C00" d="M306.3,169.6l-6.3-2.8c0,0-5.3-1.6-9.6-2.7
			c-4.2-1.1-5.7-2.3-5.7-2.3s2.7,8.2,8.1,11.1L306.3,169.6L306.3,169.6z"/>
		<polygon fill-rule="evenodd" clip-rule="evenodd" fill="#993300" points="333.8,170.4 335.9,171.1 334.5,181.1 325.9,186.9 
			321.9,185.4 326.1,175.1 333.8,170.4 		"/>
		<polygon fill-rule="evenodd" clip-rule="evenodd" fill="#B74600" points="323.1,170.1 323.3,172.9 317.9,183 321.9,185.4 
			330.6,171.8 323.1,170.1 		"/>
		<path d="M321.6,186.2l-4.9-2.9l5.6-10.6l-0.2-3.8l7.2,1.6l-0.8-2.8l5.5,1.8l2.9,0.9l-1.6,11.1l-9.3,6.3L321.6,186.2L321.6,186.2z
			 M335,171.7l-3.8-1.3l0.7,2.5l-7.8-1.8l0.1,2l-5.1,9.6l3.2,1.9l3.5,1.3l7.9-5.3L335,171.7L335,171.7z"/>
		<path fill-rule="evenodd" clip-rule="evenodd" fill="#D15000" d="M339.2,166.9c0,0-2.8,4.2-4.4,5.1c-1.6,0.9-37,2.1-39.3,1.7
			c-2.3-0.4-2.7-0.7-2.7-0.7s2.2-0.4,4.6-3s2.5-3.1,2.5-3.1S332.9,167.2,339.2,166.9L339.2,166.9L339.2,166.9z"/>
		<path d="M295.4,174.5c-1.5-0.2-2.5-0.5-3-0.9c-5.6-3.1-8.4-11.2-8.5-11.6l-0.1-0.4l0.2-0.3c0.4-0.7,4.2-7.1,5.6-8.2
			c1.4-1.1,19-2,29.3-2.4h0.1l0.1,0c0.4,0.1,10.4,2.9,16.2,7.2c6.2,4.6,4.7,9,4.7,9.2l-0.1,0.2c-0.3,0.4-3,4.4-4.7,5.4
			c-0.9,0.5-7.5,0.9-19.8,1.4c-6.6,0.3-13.8,0.5-17.6,0.5C296.6,174.6,295.8,174.6,295.4,174.5L295.4,174.5z M334.4,159.4
			c-5.2-3.8-14.3-6.6-15.5-6.9c-10.1,0.4-26.5,1.3-28.2,2c-0.9,0.8-3.4,4.8-4.9,7.4c0.6,1.6,3.1,7.9,7.6,10.3l-0.2,0.3l0,0.1
			l0.2-0.4c0,0,0.5,0.3,2.3,0.6c2.9,0.5,37-1,38.8-1.6c1-0.5,2.9-3.1,4-4.7C338.6,166,339.1,162.9,334.4,159.4L334.4,159.4z
			 M290.7,154.5L290.7,154.5L290.7,154.5L290.7,154.5z"/>
		<polygon fill="#000104" points="239.7,127.9 216.6,134.7 220.3,138 234.9,133.7 		"/>
		<polygon fill="#E25A00" points="238.5,125.1 210,133.1 175.7,130.9 201.3,123.9 		"/>
		<g opacity="0.6">
			<path fill="#D8D8D8" d="M103.1,81.7c58.8,28.6,119.9,52.2,177,84.2c0.9,0.5,1.2,2.5-0.2,1.7c-57.9-30.7-118.4-55.3-177-84.6
				C102.2,82.7,102,81.1,103.1,81.7L103.1,81.7z"/>
			<path fill="#D8D8D8" d="M122.5,100.9c9.9,5.1,20.9,8.6,31.3,12.9c11.3,4.8,73.9,34.2,93.3,45.1c0.9,0.5,1.2,2.5-0.2,1.7
				c-21.5-11.5-85.7-42.3-96-46.8c-9.4-4.1-19.4-7.2-28.5-12C121.9,101.6,121.7,100.5,122.5,100.9L122.5,100.9z"/>
			<path fill="#D8D8D8" d="M92.8,150.4c31.9,14.2,63.1,29.1,94.5,44.4c0.8,0.4,1.4,2.6,0,2c-14.6-6.3-28.4-13.9-42.6-21
				c-17-8.6-34.6-15.8-51.7-24C92.4,151.5,91.9,150,92.8,150.4z"/>
			<path fill="#D8D8D8" d="M137.2,178.7c13.1,7.2,27.1,12.5,40.3,19.6c0.5,0.3,0.9,1.7,0,1.3c-13.5-6.2-27.5-12.2-40.4-19.4
				C136.3,179.7,136.1,178.1,137.2,178.7z"/>
		</g>
	</g>
</g>
<g>
	<g>
		<g>
			<polygon fill="#015E63" points="134.6,65.4 168.2,207.5 93.2,234.2 78.6,228.4 9.9,106.6 			"/>
			<polygon fill="#008694" points="125.8,68.3 157.1,200.4 78.6,228.4 9.9,106.6 			"/>
			<polygon fill="#FFFFFF" points="119.4,79.8 22.9,111.7 82.6,217.5 146.6,194.7 			"/>
		</g>
		<path fill="#FF2D20" d="M121,113.9c0.1,0.1,0.1,0.2,0.1,0.3l5.4,15.3c0.1,0.4,0.1,0.8-0.2,1.2l-10.2,12l5.2,14.7
			c0.1,0.4,0.1,0.8-0.2,1.2l-21.3,25c0,0.1-0.1,0.1-0.2,0.2c0,0,0,0-0.1,0.1c-0.2,0.1-0.4,0.2-0.6,0.2c0,0-0.1,0-0.1,0
			c-0.1,0-0.1,0-0.2,0l-32.3-5.9c-0.4-0.1-0.8-0.4-0.9-0.8l-16.3-45.9c0-0.1-0.1-0.2-0.1-0.3c0,0,0-0.1,0-0.1c0-0.1,0-0.1,0-0.2
			c0,0,0-0.1,0-0.1c0-0.1,0-0.1,0.1-0.2c0,0,0.1-0.1,0.1-0.1c0,0,0.1-0.1,0.1-0.1l0,0l10.7-12.5c0.3-0.3,0.7-0.5,1.1-0.4l16.1,3l0,0
			c0.1,0,0.1,0,0.2,0.1c0,0,0.1,0,0.1,0c0.1,0,0.1,0.1,0.1,0.1c0,0,0.1,0,0.1,0.1c0.1,0,0.1,0.1,0.1,0.1c0,0,0.1,0.1,0.1,0.1
			c0.1,0.1,0.1,0.2,0.1,0.3l10.2,28.7l8.9-10.4l-5.2-14.7c0-0.1-0.1-0.2-0.1-0.3c0,0,0-0.1,0-0.1c0-0.1,0-0.1,0-0.2c0,0,0-0.1,0-0.1
			c0-0.1,0-0.1,0.1-0.2c0,0,0.1-0.1,0.1-0.1c0,0,0.1-0.1,0.1-0.1l0,0l10.7-12.5c0.3-0.3,0.7-0.5,1.1-0.4l16.1,3c0.1,0,0.1,0,0.2,0.1
			c0,0,0.1,0,0.1,0c0.1,0,0.1,0.1,0.1,0.1c0,0,0.1,0,0.1,0.1C120.9,113.7,120.9,113.8,121,113.9C121,113.8,121,113.9,121,113.9
			L121,113.9z M124.2,129.6l-4.5-12.7l-3.7,4.4l-5.2,6l4.5,12.7L124.2,129.6L124.2,129.6z M118.9,157.4l-4.5-12.7l-5.1,5.9
			l-14.5,16.8l4.6,12.9L118.9,157.4z M52.2,132.3l15.4,43.3l29.6,5.4l-4.6-12.9l-15.4-2.7l0,0l0,0c-0.1,0-0.1,0-0.2,0
			c0,0-0.1,0-0.1,0l0,0c0,0-0.1-0.1-0.1-0.1c0,0-0.1,0-0.1-0.1l0,0c0,0-0.1-0.1-0.1-0.1c0,0-0.1-0.1-0.1-0.1l0,0
			c0,0-0.1-0.1-0.1-0.2c0,0,0-0.1-0.1-0.1l-10.6-30l-7.8-1.4L52.2,132.3L52.2,132.3z M61.5,119.6L52.6,130l13.4,2.5l8.9-10.4
			L61.5,119.6L61.5,119.6z M81.5,157.6l5.2-6l-9.9-28l-3.7,4.4l-5.2,6l9.9,28L81.5,157.6z M104.4,112.9l-8.9,10.4l13.4,2.5l8.9-10.4
			L104.4,112.9z M108.5,128.1l-7.8-1.4l-5.6-1l4.5,12.7l7.8,1.4l5.7,1L108.5,128.1z M93,165.9l13.1-15.2l6.5-7.6l-13.4-2.5l-10.2,12
			l-9.3,10.9L93,165.9z"/>
	</g>
	
		<ellipse transform="matrix(0.9692 -0.2462 0.2462 0.9692 -74.7687 47.8546)" opacity="0.2" cx="154" cy="322.9" rx="12.1" ry="3.9"/>
	<polygon fill-rule="evenodd" clip-rule="evenodd" fill="#9E6A5C" points="135.9,214.5 112.5,221.2 150,325.2 158.5,320.3 	"/>
	<polygon fill-rule="evenodd" clip-rule="evenodd" fill="#6B3D30" points="119.9,219.1 112.5,221.2 150,325.2 150.2,324.8 	"/>
</g>
</svg>
