<?xml version="1.0" encoding="utf-8"?>
<!-- Generator: Adobe Illustrator 28.0.0, SVG Export Plug-In . SVG Version: 6.00 Build 0)  -->
<svg version="1.1" id="Calque_1" xmlns="http://www.w3.org/2000/svg" xmlns:xlink="http://www.w3.org/1999/xlink" x="0px" y="0px"
	 viewBox="0 0 660.7 334.8" enable-background="new 0 0 660.7 334.8" xml:space="preserve">
<g>
	<g id="Calque_1_00000153685733752594534760000007265397552162545593_">
		<path opacity="0.5" fill="#B2B2B2" enable-background="new    " d="M0,79.6c-1,14.9,17,27.2,29.8,25.1c-0.6,1.8-0.9,3.7-0.8,5.5
			c0.2,7.5,3.4,13.3,9.2,18c4.2,3.4,9.6,6.4,15.2,7.7c-1.1,3.2-1.5,6.7-1.2,10.3c1.2,13,8.9,24.4,18.2,33.2
			c9.7,9.1,21.9,17.8,35.6,18.9c6.2,0.5,13.4,0.1,19.1-3c2.5,2.7,6,4.5,9.6,4.7c2.5,0.1,4.6-1.1,6.2-2.9c1.9,3,4.6,5.5,7.5,7.4
			c6.2,4,16.3,4,22.1-0.2c0.2,0.9,0.4,1.7,0.7,2.4c3,7.5,8.7,14.4,16.4,17.3c6.4,2.4,18.9,3.8,23.5-2.9c0.3-0.4,0.5-0.9,0.7-1.3
			c2.9,0.6,5.9,0.4,8.2-1.1c7.1-4.5,7.8-16.9,4.8-24.1c-3.5-8.3-10.9-15.7-19.9-18c-4.8-1.2-8.2-0.6-11,1.4c-0.9-3.7-2.2-7.3-3.9-10
			c-3.9-6.4-10.2-11.1-17.4-13.2c-1.5-0.4-2.9-0.6-4.2-0.6c-0.1-0.5-0.2-1-0.4-1.5c-1.1-2.6-2.7-5.1-5-6.9
			c6.4-1.9,12.2-5.8,15.9-11.4c18.8-28.6-15.9-56.1-40.9-62.3c-8.7-2.2-20.6-1.7-27.6,4.5c-3.1-7.4-10.7-13.7-18.5-12.3
			c0.7-9.6-9.4-19.8-17.2-23.1c-7.4-3.2-15.6-3-21.7,0.8c-1.6-1-3.3-1.8-4.8-2.1c-5.6-1.5-12.5-0.8-15.6,4.9c-1.3,2.3-2,5.1-2.1,7.9
			c-2.6-0.3-5-0.4-6.9-0.3c-6.2,0.4-11.9,1.8-15.9,6.9C3.3,65.2,0.5,72.2,0,79.6z"/>
		<path opacity="0.5" fill="#B2B2B2" enable-background="new    " d="M7.9,59.3c4-5.1,9.7-6.5,15.9-6.9c1.9-0.1,4.3,0,6.9,0.3
			c0.1-2.8,0.9-5.6,2.1-7.9c3.1-5.7,10-6.5,15.6-4.9c1.4,0.4,3.1,1.1,4.8,2.1c6-3.8,14.3-4,21.7-0.8c7.8,3.3,17.9,13.5,17.2,23.1
			c7.9-1.4,15.4,4.8,18.5,12.3c7.1-6.2,18.9-6.6,27.6-4.5c25,6.1,59.6,33.7,40.9,62.3c-3.7,5.7-9.5,9.6-15.9,11.4
			c2.3,1.8,3.9,4.3,5,6.9c0.2,0.5,0.3,1,0.4,1.5c1.3,0,2.7,0.1,4.2,0.6c7.2,2.1,13.5,6.8,17.4,13.2c1.6,2.7,3,6.3,3.9,10
			c2.8-2,6.2-2.6,11-1.4c5.1,1.3,9.6,4.2,13.3,8c-8.1-5-19.2-5.8-24.1,2.5c-3.5-14-14.8-24.7-27.9-28.1c-1.9-6.2-6.9-12.4-12.8-16.1
			c7.7-1.2,14.7-4.7,18.4-12.3c5.2-10.8,4.1-24.3-2.9-34.1c-10.8-14.9-40.8-27.6-55.7-12.9c-1.4-2.5-3-4.7-4.4-6.4
			c-3-3.7-7-7.9-12-8.6c-2.1-0.3-3.9,0-5.5,0.6c-1.7-7.3-5.9-14.3-10.9-18.9c-5.3-4.8-11.7-7-18.9-6.6c-2.6,0.2-4.7,0.9-6.4,2.1
			c-6.1-2.8-13.7-2.5-16.7,3.3c-2.2,4.3-2.6,8.8-1.9,13c-1.6-0.4-3.2-0.6-4.8-0.6C21.1,61.4,9.5,67.3,8.6,79.2
			c-0.9,12.1,8.8,20.6,20.1,22.4c2.3,0.4,4.7,0.6,7.2,0.7c-1,5.3-0.7,10.7,2.4,15.4c4.7,7.1,11.3,12.9,18.9,16.5
			c7.5,3.6,15.6,3.3,23.6,2.4c1.3-0.1,2.6-0.3,3.9-0.6c-4,3.2-9.8,4.4-14.7,4.8c-2.7,0.2-5.8-0.2-6.9,2.9
			c-3.8,10.7,1.3,22.2,9.3,29.5c9.7,8.8,21.3,14,34.3,15.2c5.9,0.6,12.6,1.7,18.3-0.7c1-0.4,1.9-0.9,2.8-1.5
			c1.7,2.7,4.2,4.7,8.4,5.1c4.2,0.4,8.7-0.6,11.8-3.1c1.1,5.4,3.7,10.2,8.7,12.8c5.4,2.7,12.2,1.7,17.5-1.5
			c0.4,4.9,1.3,9.4,5.4,13.9c3.9,4.5,8.7,8.1,13.9,10.9c0.8,0.4,1.7,0.9,2.7,1.4c-3.2-0.3-6.2-1-8.4-1.9
			c-7.7-2.9-13.5-9.8-16.4-17.3c-0.3-0.7-0.5-1.5-0.7-2.4c-5.8,4.2-15.9,4.2-22.1,0.2c-2.9-1.9-5.6-4.4-7.5-7.4
			c-1.6,1.8-3.7,3.1-6.2,2.9c-3.7-0.2-7.2-1.9-9.6-4.7c-5.7,3-12.8,3.5-19.1,3c-13.7-1.2-25.9-9.8-35.6-18.9
			c-9.3-8.8-17-20.2-18.2-33.2c-0.3-3.7,0.1-7.1,1.2-10.3c-5.6-1.3-11-4.3-15.2-7.7c-5.8-4.7-9-10.5-9.2-18c0-1.8,0.3-3.7,0.8-5.5
			C17,106.8-0.9,94.6,0,79.6C0.5,72.2,3.3,65.2,7.9,59.3L7.9,59.3z"/>
		<path opacity="0.5" fill="#B2B2B2" enable-background="new    " d="M142.5,179.8c7.1,8.5,16.9,14.3,27.7,17
			c6.6,1.7,12.3,0.7,17.6-1.6c-3.8,7.6-2.8,18.5,1.1,25.4c2.2,3.9,6.8,7.5,11.4,7.5c4-0.1,7.9-1.4,8.8-5.2c2.3,3.1,5.5,6.1,9.6,5
			c4.8-1.3,4.4-6.7,3-10.4c8.9,3.4,19.8,7.2,28,0.1c6.3-5.4,9.3-14.1,8.2-22.3c-1.4-10.6-5.9-21.9-13.6-29.5
			c-4-3.9-10.1-8.4-16.1-8.9c1.6-3.8-1.2-9.4-4.3-11c3.3-5.1,1.7-12.8-3.2-16.6c-5.1-3.9-12.6-6-18.8-3.8
			c-3.5-4.1-11.5-6.1-15.5-7.1c-10.1-2.6-22.9-2.2-32.2,2.9c-8.1,4.4-13.4,12.7-8.8,21.7c1.1,2.1,2.5,4,4.2,5.5
			c-4,1.3-7.6,3.9-9.9,7.7C135.1,163.9,136.9,173,142.5,179.8L142.5,179.8z"/>
		<path opacity="0.5" fill="#B2B2B2" enable-background="new    " d="M139.6,156.2c2.2-3.8,5.8-6.3,9.9-7.7
			c-1.6-1.5-3.1-3.4-4.2-5.5c-4.7-9.1,0.7-17.3,8.8-21.7c9.3-5.1,22.1-5.5,32.2-2.9c4,1.1,11.9,3,15.5,7.1
			c6.1-2.2,13.7-0.1,18.8,3.8c4.9,3.8,6.5,11.5,3.2,16.6c3.1,1.6,5.9,7.2,4.3,11c6,0.5,12.1,5,16.1,8.9c7.7,7.6,12.2,18.9,13.6,29.5
			c0.5,4,0.1,8.1-1.3,11.9c0.4-2.7,0.5-5.5,0.3-7.8c-0.8-9.4-4.8-18.6-11.7-25.2c-5.1-4.9-12.4-9-19.5-9.9c0.9-3.4,0.7-7.4-0.8-10.2
			c-1.4-2.5-3.7-4.6-6.5-5.8c3.3-5.1,1.9-13.2-3.4-17.2c-4.1-3.1-10.3-3.5-14.6-0.5c-2.3-1.9-4.9-3.5-7.6-4.6
			c-8.8-3.7-20.6-5.1-29,0.5c-8.2,5.4-8.3,16.2-4,24.9c-3.1,0.3-5.9,1.6-8.2,4.2c-6.1,7.1-5,17.3,1.4,23.9
			c9.6,9.8,25.6,15.7,39.9,14c-2.8,5.7-3,12.2,1.9,17.4c3.6,3.8,8.4,5.4,13.1,2.8c0.6-0.3,1.1-0.7,1.6-1.2c0.1,0.2,0.1,0.4,0.2,0.5
			c1.3,2.6,4.3,4.4,7.1,2.6c2.1-1.3,3.6-4,4.1-7c1.5,2.7,3.7,5.1,5.8,6.7c4.2,3,9.8,5.4,15.3,5.8c-6.7,1.3-14.1-1.4-20.4-3.8
			c1.4,3.7,1.8,9.1-3,10.4c-4.1,1.1-7.2-1.8-9.6-5c-0.9,3.7-4.8,5.1-8.8,5.2c-4.6,0.1-9.2-3.6-11.4-7.5c-3.8-6.9-4.8-17.7-1.1-25.4
			c-5.4,2.3-11,3.3-17.6,1.6c-10.7-2.7-20.6-8.5-27.7-17C136.8,173,135,164,139.6,156.2L139.6,156.2z"/>
		<path opacity="0.5" fill="#B2B2B2" enable-background="new    " d="M90.2,184.1c5.4,5.5,13,9.2,21.2,11c5.1,1.1,9.4,0.5,13.5-1
			c-2.9,4.9-2.1,11.9,0.8,16.3c1.7,2.5,5.2,4.9,8.7,4.8c3,0,6.1-0.9,6.7-3.3c1.8,2,4.2,3.9,7.3,3.2c3.6-0.8,3.4-4.3,2.3-6.7
			c6.8,2.2,15.2,4.6,21.4,0.1c4.8-3.5,7.1-9.1,6.3-14.3c-1.1-6.8-4.5-14.1-10.5-19c-3.1-2.5-7.7-5.4-12.4-5.8
			c1.2-2.4-0.9-6.1-3.3-7.1c2.5-3.3,1.3-8.2-2.5-10.7c-3.9-2.5-9.7-3.9-14.4-2.5c-2.7-2.6-8.8-3.9-11.8-4.6
			c-7.7-1.7-17.5-1.5-24.6,1.8c-6.2,2.8-10.3,8.1-6.7,14c0.8,1.4,1.9,2.6,3.2,3.6c-3.1,0.9-5.8,2.5-7.5,4.9
			C84.6,173.9,85.9,179.7,90.2,184.1L90.2,184.1z"/>
		<path opacity="0.5" fill="#B2B2B2" enable-background="new    " d="M88,168.9c1.7-2.4,4.4-4.1,7.5-4.9c-1.3-1-2.3-2.2-3.2-3.6
			c-3.6-5.8,0.5-11.1,6.7-14c7.1-3.3,16.9-3.5,24.6-1.8c3.1,0.7,9.1,2,11.9,4.6c4.7-1.4,10.5-0.1,14.4,2.5c3.8,2.4,5,7.4,2.5,10.7
			c2.4,1,4.5,4.6,3.3,7.1c4.6,0.3,9.3,3.2,12.4,5.8c5.9,4.9,9.4,12.2,10.5,19c0.4,2.6,0.1,5.2-0.9,7.6c0.3-1.8,0.4-3.5,0.2-5
			c-0.6-6.1-3.7-11.9-9-16.2c-3.9-3.1-9.5-5.8-14.9-6.4c0.7-2.2,0.5-4.8-0.6-6.6c-1-1.6-2.9-2.9-5-3.7c2.5-3.3,1.4-8.5-2.6-11
			c-3.2-2-7.9-2.3-11.2-0.3c-1.8-1.2-3.8-2.3-5.8-3c-6.8-2.4-15.8-3.3-22.2,0.3c-6.3,3.5-6.3,10.4-3,16c-2.3,0.2-4.6,1-6.3,2.7
			c-4.7,4.6-3.8,11.1,1.2,15.3c7.3,6.3,19.6,10.1,30.5,9c-2.1,3.6-2.3,7.9,1.5,11.2c2.7,2.4,6.4,3.5,10,1.8c0.4-0.2,0.9-0.5,1.2-0.8
			c0.1,0.1,0.1,0.2,0.2,0.3c1,1.7,3.3,2.8,5.4,1.7c1.6-0.8,2.7-2.6,3.2-4.5c1.1,1.7,2.8,3.3,4.5,4.3c3.2,2,7.5,3.5,11.7,3.8
			c-5.1,0.8-10.8-0.9-15.6-2.4c1.1,2.4,1.4,5.9-2.3,6.7c-3.1,0.7-5.5-1.2-7.3-3.2c-0.6,2.4-3.7,3.3-6.7,3.3c-3.6,0-7.1-2.3-8.7-4.8
			c-2.9-4.4-3.7-11.4-0.8-16.3c-4.1,1.5-8.4,2.1-13.5,1c-8.2-1.8-15.8-5.5-21.2-11C85.9,179.8,84.5,173.9,88,168.9L88,168.9z"/>
		<path opacity="0.5" fill="#D8D8D8" enable-background="new    " d="M95.6,40.7c-1,14.9,17,27.2,29.8,25.1
			c-0.6,1.8-0.9,3.7-0.8,5.5c0.2,7.5,3.4,13.3,9.2,18c4.2,3.4,9.6,6.4,15.2,7.7c-1.1,3.2-1.5,6.7-1.2,10.3
			c1.2,13,8.9,24.4,18.2,33.2c9.6,9.1,21.9,17.8,35.6,18.9c6.2,0.5,13.4,0.1,19.1-3c2.5,2.7,6,4.5,9.6,4.7c2.5,0.1,4.6-1.1,6.2-2.9
			c1.9,3,4.6,5.5,7.5,7.4c6.2,4,16.3,4,22.1-0.2c0.2,0.9,0.4,1.7,0.7,2.4c3,7.5,8.7,14.4,16.5,17.3c6.4,2.4,18.9,3.8,23.5-2.9
			c0.3-0.4,0.5-0.9,0.7-1.3c2.9,0.6,5.9,0.4,8.2-1.1c7-4.5,7.8-16.9,4.8-24.1c-3.5-8.3-10.9-15.7-19.9-18c-4.8-1.2-8.2-0.6-11,1.4
			c-0.9-3.7-2.2-7.3-3.9-10c-3.9-6.4-10.2-11.1-17.4-13.2c-1.5-0.4-2.9-0.6-4.2-0.6c-0.1-0.5-0.2-1-0.4-1.5c-1-2.6-2.7-5.1-5-6.9
			c6.4-1.9,12.2-5.8,15.9-11.4c18.8-28.6-15.9-56.1-40.9-62.3c-8.7-2.1-20.6-1.7-27.6,4.5c-3.1-7.4-10.7-13.6-18.5-12.3
			c0.7-9.6-9.4-19.8-17.2-23.1c-7.4-3.2-15.6-3-21.6,0.8c-1.6-1-3.3-1.8-4.8-2.1c-5.6-1.5-12.5-0.8-15.6,4.9
			c-1.3,2.3-2.1,5.1-2.1,7.9c-2.6-0.3-5-0.4-6.9-0.3c-6.2,0.4-11.8,1.9-15.9,6.9C98.9,26.2,96.1,33.2,95.6,40.7L95.6,40.7z"/>
		<path opacity="0.5" fill="#D8D8D8" enable-background="new    " d="M103.5,20.4c4-5.1,9.7-6.5,15.9-6.9c1.9-0.1,4.3,0,6.9,0.3
			c0.1-2.8,0.9-5.6,2.1-7.9c3.1-5.7,10-6.5,15.6-4.9c1.4,0.4,3.1,1.1,4.8,2.1c6-3.8,14.3-4,21.6-0.8c7.8,3.3,17.9,13.5,17.2,23.1
			c7.9-1.4,15.4,4.9,18.5,12.3c7.1-6.2,18.9-6.6,27.6-4.5c25,6.1,59.6,33.7,40.9,62.3c-3.7,5.7-9.5,9.6-15.9,11.4
			c2.3,1.8,3.9,4.3,5,6.9c0.2,0.5,0.3,1,0.4,1.5c1.3,0,2.7,0.2,4.2,0.6c7.2,2.1,13.5,6.8,17.4,13.2c1.6,2.7,3,6.3,3.9,10
			c2.8-2,6.2-2.6,11-1.4c5.1,1.3,9.6,4.2,13.3,8c-8.1-5-19.2-5.8-24.1,2.5c-3.5-14-14.8-24.7-27.9-28.1c-1.9-6.2-6.9-12.4-12.8-16.2
			c7.7-1.2,14.7-4.7,18.4-12.3c5.2-10.8,4.1-24.3-3-34.1c-10.8-14.9-40.8-27.6-55.6-12.9c-1.4-2.5-3-4.7-4.4-6.4c-3-3.7-7-8-12-8.6
			c-2.1-0.3-3.9,0-5.5,0.6C185.2,23,181,16,175.9,11.4c-5.4-4.8-11.7-7.1-18.9-6.6c-2.6,0.1-4.7,0.9-6.4,2.1
			c-6.1-2.8-13.7-2.6-16.7,3.3c-2.2,4.3-2.6,8.8-1.9,13c-1.6-0.4-3.2-0.6-4.8-0.6c-10.7-0.2-22.2,5.8-23.1,17.6
			c-0.9,12.1,8.8,20.6,20.1,22.4c2.3,0.4,4.7,0.6,7.2,0.7c-1,5.3-0.7,10.7,2.4,15.4c4.7,7.1,11.3,12.9,18.9,16.6
			c7.5,3.6,15.6,3.3,23.6,2.4c1.3-0.2,2.6-0.3,3.9-0.6c-4,3.2-9.9,4.4-14.7,4.8c-2.7,0.2-5.8-0.2-6.9,2.9
			c-3.8,10.7,1.3,22.2,9.3,29.5c9.7,8.8,21.3,14,34.3,15.3c5.9,0.6,12.6,1.7,18.3-0.7c1-0.4,1.9-0.9,2.8-1.5
			c1.6,2.7,4.2,4.7,8.4,5.1c4.2,0.4,8.7-0.6,11.8-3.1c1.1,5.3,3.7,10.2,8.7,12.8c5.4,2.8,12.2,1.7,17.5-1.5
			c0.5,4.9,1.3,9.4,5.4,13.9c3.9,4.5,8.7,8.1,13.9,10.9c0.8,0.4,1.7,0.9,2.6,1.4c-3.2-0.3-6.2-1-8.5-1.9
			c-7.7-2.9-13.5-9.8-16.5-17.3c-0.3-0.7-0.5-1.5-0.7-2.4c-5.8,4.2-15.9,4.2-22.1,0.2c-2.9-1.9-5.6-4.4-7.5-7.4
			c-1.6,1.8-3.7,3.1-6.2,2.9c-3.7-0.2-7.2-1.9-9.6-4.7c-5.7,3-12.8,3.5-19.1,3c-13.7-1.2-25.9-9.8-35.6-18.9
			c-9.3-8.8-17-20.2-18.2-33.2c-0.4-3.7,0.1-7.1,1.2-10.3c-5.6-1.3-11.1-4.3-15.2-7.7c-5.8-4.7-9-10.5-9.2-18c0-1.8,0.3-3.7,0.8-5.5
			c-12.8,2.1-30.7-10.2-29.8-25.1C96.1,33.2,98.8,26.2,103.5,20.4L103.5,20.4z"/>
		<path opacity="0.5" fill="#D8D8D8" enable-background="new    " d="M128,107.4c5.4,5.5,13,9.2,21.2,11c5.1,1.1,9.4,0.5,13.5-1
			c-2.9,4.9-2.1,11.9,0.8,16.3c1.7,2.5,5.2,4.9,8.7,4.8c3,0,6.1-0.9,6.7-3.3c1.8,2,4.2,3.9,7.3,3.2c3.6-0.8,3.4-4.3,2.3-6.7
			c6.8,2.2,15.2,4.6,21.4,0.1c4.8-3.5,7.1-9.1,6.3-14.3c-1.1-6.8-4.5-14.1-10.5-19c-3.1-2.5-7.7-5.4-12.4-5.8
			c1.2-2.4-0.9-6.1-3.3-7.1c2.5-3.3,1.3-8.2-2.5-10.7c-3.9-2.5-9.7-3.9-14.4-2.5c-2.7-2.6-8.8-3.9-11.9-4.6
			c-7.7-1.7-17.5-1.4-24.6,1.8c-6.2,2.8-10.2,8.1-6.7,14c0.8,1.4,1.9,2.6,3.2,3.6c-3.1,0.8-5.8,2.5-7.5,4.9
			C122.3,97.2,123.7,103,128,107.4z"/>
		<path opacity="0.5" fill="#D8D8D8" enable-background="new    " d="M125.8,92.2c1.7-2.4,4.4-4.1,7.5-4.9c-1.3-1-2.4-2.2-3.2-3.6
			c-3.6-5.8,0.5-11.1,6.7-14c7.1-3.3,16.9-3.5,24.6-1.8c3.1,0.7,9.1,2,11.9,4.6c4.7-1.4,10.5-0.1,14.4,2.5c3.8,2.4,5,7.4,2.5,10.7
			c2.4,1,4.5,4.6,3.3,7.1c4.6,0.3,9.3,3.2,12.4,5.8c5.9,4.9,9.4,12.2,10.5,19c0.4,2.6,0.1,5.2-0.9,7.6c0.3-1.8,0.4-3.5,0.2-5
			c-0.6-6.1-3.7-12-9-16.2c-3.9-3.1-9.5-5.8-14.9-6.4c0.7-2.2,0.5-4.8-0.6-6.6c-1.1-1.6-2.9-2.9-5-3.7c2.5-3.3,1.4-8.5-2.6-11
			c-3.2-2-7.9-2.3-11.2-0.3c-1.8-1.2-3.8-2.3-5.8-3c-6.8-2.4-15.8-3.3-22.2,0.3c-6.3,3.5-6.3,10.4-3,16c-2.3,0.2-4.6,1-6.3,2.7
			c-4.7,4.6-3.8,11.1,1.1,15.3c7.3,6.3,19.6,10.1,30.5,9c-2.1,3.7-2.3,7.9,1.4,11.2c2.7,2.4,6.4,3.5,10,1.8c0.5-0.2,0.9-0.5,1.2-0.8
			c0.1,0.1,0.1,0.2,0.1,0.3c1,1.7,3.3,2.8,5.4,1.7c1.6-0.8,2.7-2.6,3.2-4.5c1.1,1.7,2.8,3.3,4.5,4.3c3.2,2,7.5,3.5,11.7,3.8
			c-5.1,0.8-10.8-0.9-15.6-2.4c1.1,2.4,1.4,5.9-2.3,6.7c-3.1,0.7-5.5-1.2-7.3-3.2c-0.6,2.4-3.7,3.3-6.7,3.3c-3.6,0-7.1-2.3-8.7-4.8
			c-2.9-4.4-3.7-11.4-0.8-16.3c-4.1,1.5-8.4,2.1-13.5,1c-8.2-1.8-15.8-5.5-21.2-11C123.7,103,122.3,97.2,125.8,92.2L125.8,92.2z"/>
		<path fill="#A32F00" d="M536.3,147.3c0,0-127.9-72.7-232.8-59.8c-175.3,21.6-186.6,45.2-186.6,45.2l83.3,83.6L454,276.8
			L536.3,147.3L536.3,147.3z"/>
		<path d="M199.5,217.5L115.3,133l0.4-0.8c0.5-1,13.6-24.5,187.6-45.9c54.5-6.7,115.1,10,156.4,25.1c44.7,16.4,76.9,34.6,77.2,34.8
			l1.2,0.7l-83.5,131.4L199.5,217.5L199.5,217.5z M458.8,113.8c-41-15.1-101.2-31.6-155.1-25c-49,6-116.1,16.1-157.1,30
			c-20,6.8-26.2,12-27.9,13.7l82.2,82.5l252.5,60.2l81-127.6C528.2,144.3,498.4,128.3,458.8,113.8L458.8,113.8z"/>
		<path fill="#2F313C" d="M514,148.2c0,0-126.2-56.1-166-54.6c-121,4.4-166,29.5-166,29.5l64.4,41.6l85.3,16l198.4-14.8L514,148.2
			L514,148.2z"/>
		<path d="M246.2,165.9l-0.2-0.1L179.5,123l1.9-1.1c0.4-0.2,46.7-25.3,166.6-29.7c39.6-1.4,161.4,52.4,166.6,54.7l0.2,0.1L533,167
			l-201.1,14.9h-0.2L246.2,165.9L246.2,165.9z M513.2,149.2c-6.3-2.8-126.9-55.8-165.2-54.4c-105.4,3.9-153.4,23.7-163.4,28.3
			l62.3,40.2l84.9,15.9l195.6-14.5L513.2,149.2L513.2,149.2z"/>
		<path fill="#6D6D6D" d="M332,168.2l-2,29.6c-6.5-2.8-18-7.8-32.2-14C313.7,178.4,331.8,171.3,332,168.2L332,168.2z"/>
		<path fill="#4A4A4A" d="M329.7,198.5c-5.8-2.5-15.6-6.8-27.8-12.1l-4.4-1.9c-0.3-0.1-0.4-0.4-0.4-0.7c0-0.3,0.2-0.6,0.5-0.7
			c21.8-7.4,33.5-13,33.7-14.8c0-0.4,0.4-0.8,0.8-0.7l0,0c0.4,0,0.7,0.4,0.6,0.8c0,0.3,0,0.3,0,0l-2,29.6c0,0.2-0.1,0.5-0.3,0.6
			c-0.1,0.1-0.3,0.1-0.4,0.1C329.9,198.6,329.8,198.5,329.7,198.5L329.7,198.5z M299.9,183.8l2.5,1.1c11.6,5.1,21,9.2,26.9,11.7
			l1.8-26.3C328.1,172.9,319.7,177.1,299.9,183.8L299.9,183.8z M331.3,168.2L331.3,168.2L331.3,168.2z"/>
		<path opacity="0.6" fill="#6D6D6D" enable-background="new    " d="M332,168.2l-2,29.6c-6.5-2.8-18-7.8-32.2-14
			C313.7,178.4,331.8,171.3,332,168.2L332,168.2z"/>
		<path opacity="0.6" fill="#6D6D6D" enable-background="new    " d="M327.9,184.9c-4.2-6.3-12.8-5-18-0.6c-1.2,1-2.2,2.2-3,3.4
			c-2.9-1.3-5.9-2.6-9.1-4c15.9-5.4,34-12.5,34.2-15.5l-1.7,24.7C330.1,190.1,329.5,187.3,327.9,184.9L327.9,184.9z"/>
		<path fill="#616161" d="M189.4,109.6c5.1-3.4,12.1,1.8,14.1,10.8c1.4,6.3,1.9,16.3,2.1,23.5c-8.2-3.5-16.1-6.9-23.4-9.9
			C181.6,126.2,182.4,115.6,189.4,109.6L189.4,109.6z"/>
		<path fill="#4A4A4A" d="M205.3,144.5c-8.2-3.5-16.1-6.9-23.4-9.9c-0.2-0.1-0.4-0.4-0.4-0.6c-0.5-7.9,0.3-18.7,7.5-25
			c0,0,0.1,0,0.1-0.1c2.1-1.3,4.5-1.5,6.9-0.4c3.8,1.7,7,6.2,8.2,11.7c1.4,6.4,1.9,16.4,2.1,23.6c0,0.3-0.1,0.5-0.3,0.7
			c-0.1,0.1-0.3,0.2-0.4,0.1C205.5,144.6,205.4,144.5,205.3,144.5L205.3,144.5z M189.8,110.2c-6.5,5.7-7.4,15.6-7,23.1
			c6.9,2.9,14.3,6,22,9.3c-0.2-7.1-0.7-16.2-2.1-22.1c-1.1-5-4-9.1-7.4-10.6c-0.8-0.3-1.6-0.5-2.3-0.6
			C191.9,109.2,190.8,109.5,189.8,110.2L189.8,110.2z"/>
		<path opacity="0.4" fill="#6D6D6D" enable-background="new    " d="M189.4,109.6c5.1-3.4,12.1,1.8,14.1,10.8
			c1.4,6.3,1.9,16.3,2.1,23.5c-8.2-3.5-16.1-6.9-23.4-9.9C181.6,126.2,182.4,115.6,189.4,109.6L189.4,109.6z"/>
		<path opacity="0.4" fill="#6D6D6D" enable-background="new    " d="M199.4,120.1c-1.3-5.8-4.7-10-8.3-11.3
			c4.9-1.4,10.6,3.6,12.4,11.5c1.4,6.3,1.9,16.3,2.1,23.5c-1.4-0.6-2.8-1.2-4.1-1.8C201.2,135.1,200.7,126,199.4,120.1L199.4,120.1z
			"/>
		<path fill="#6D6D6D" d="M191.6,107.9c16.6-10.3,66.6-13.2,79.5-11.8c8.3,0.9,13,7.9,15.3,12.8c1.8,4.8,1.8,4.9,1.8,4.9l13.7,40.9
			L261.7,168c-18.4-8-38.1-16.5-56.1-24.2c-0.2-7.1-0.7-17.1-2.1-23.5c-2-8.9-8.9-14.1-14.1-10.8
			C190.1,108.9,190.8,108.4,191.6,107.9L191.6,107.9z"/>
		<path fill="#4A4A4A" d="M261.4,168.7c-22-9.6-40.3-17.5-56.1-24.2c-0.2-0.1-0.4-0.4-0.4-0.7c-0.2-7.2-0.7-17.1-2.1-23.3
			c-1.1-5-4-9.1-7.4-10.6c-2-0.9-2.1-2.2-3.8-1.1c-0.3,0.2-0.2,0.3-0.4,0c-0.2-0.3-1.1-0.2-0.8-0.4c0.8-0.7,0.2-0.3,0.9-0.8l0.3-0.1
			c16.8-10.4,66.7-13.5,79.6-12.1c8.4,0.9,13.2,7.7,15.9,13.3l1.9,4.9l13.7,40.9c0.1,0.2,0,0.4,0,0.6c-0.1,0.2-0.2,0.3-0.4,0.4
			l-40.3,13.3c-0.1,0-0.2,0-0.2,0C261.6,168.8,261.5,168.7,261.4,168.7L261.4,168.7z M287.7,114.1l-1.8-4.8
			c-2.5-5.2-7-11.6-14.8-12.4c-12.5-1.3-60,1.3-77.8,10.9c0.9,0.1,1.8,0.3,2.6,0.7c3.8,1.7,7,6.2,8.2,11.7
			c1.4,6.2,1.9,15.9,2.1,23.1c15.6,6.7,33.8,14.5,55.5,24l39.3-13L287.7,114.1L287.7,114.1z"/>
		<path fill="#4A4A4A" d="M202,116.8c0,0,0.1,0,0.1,0l82.1-11.3c0.4-0.1,0.7-0.4,0.6-0.9c0-0.4-0.4-0.7-0.8-0.7L202,115.3
			c-0.4,0.1-0.7,0.4-0.6,0.9C201.4,116.5,201.6,116.8,202,116.8L202,116.8z"/>
		<path fill="#4A4A4A" d="M204.3,126.2c0,0,0.1,0,0.1,0l84-11.6c0.4-0.1,0.7-0.4,0.6-0.9c0-0.4-0.4-0.7-0.8-0.7l-84,11.6
			c-0.4,0.1-0.7,0.4-0.6,0.9C203.7,125.9,204,126.1,204.3,126.2z"/>
		<path fill="#4A4A4A" d="M205.3,138.8c0,0,0.1,0,0.1,0l86-15.2c0.4-0.1,0.6-0.5,0.6-0.9s-0.4-0.7-0.8-0.6l-86,15.2
			c-0.4,0.1-0.6,0.5-0.6,0.9C204.7,138.5,205,138.8,205.3,138.8L205.3,138.8z"/>
		<path fill="#4A4A4A" d="M215,148.6c0,0,0.1,0,0.1,0l79.6-15.1c0.4-0.1,0.6-0.5,0.6-0.9c0-0.4-0.4-0.7-0.8-0.6l-79.6,15.1
			c-0.4,0.1-0.6,0.5-0.6,0.9C214.4,148.3,214.6,148.6,215,148.6L215,148.6z"/>
		<path fill="#4A4A4A" d="M232.9,156.3c0.1,0,0.1,0,0.2,0l64.4-14.7c0.4-0.1,0.6-0.5,0.6-0.9c-0.1-0.4-0.4-0.7-0.8-0.6l-64.4,14.7
			c-0.4,0.1-0.6,0.5-0.6,0.9C232.3,156,232.6,156.3,232.9,156.3L232.9,156.3z"/>
		<path fill="#4A4A4A" d="M247.9,162.8c0.1,0,0.1,0,0.2,0l52.1-12.9c0.4-0.1,0.6-0.5,0.5-0.9c-0.1-0.4-0.4-0.7-0.8-0.6l-52.1,12.9
			c-0.4,0.1-0.6,0.5-0.6,0.9C247.3,162.5,247.6,162.8,247.9,162.8L247.9,162.8z"/>
		<path opacity="0.4" fill="#6D6D6D" enable-background="new    " d="M189.4,109.6c5.1-3.4,12.1,1.8,14.1,10.8
			c1.4,6.3,1.9,16.3,2.1,23.5c18.1,7.7,37.7,16.2,56.1,24.2l40.3-13.3l-13.7-40.9c0,0,0,0-1.8-4.9c-2.3-4.9-7-11.9-15.3-12.8
			c-12.9-1.4-62.9,1.5-79.5,11.8C190.8,108.4,190.1,109,189.4,109.6L189.4,109.6z M255.1,99.3c21.6-1.3,25.1,0.7,34.3,23
			c3.5,8.5,5.7,15.7,7,20.7c1.3,4.9-0.9,8.6-4.8,9.9c-10.2,3.2-29.1,8.9-32,7.8c-4-1.7-20.6-7.4-30.1-11.9
			c-9.5-4.5-10.5-11.6-14.4-28.9C211.2,102.4,233.5,100.5,255.1,99.3L255.1,99.3z"/>
		<path opacity="0.3" fill="#6D6D6D" enable-background="new    " d="M268.3,101.8c9.8,1.1,17,12.1,22.4,29.6s-6,21.6-9,22.3
			c0,0,7.1-7.3,3.1-20.7C280.8,119.5,275,104.5,268.3,101.8L268.3,101.8z"/>
		<path d="M262.3,169.8c-0.2,0-0.4-0.1-0.5-0.1c-21.6-9.5-39.7-17.5-55.4-24.2c-0.6-0.2-0.9-0.8-0.9-1.4c-0.2-7.2-0.7-17-2-23.1
			c-1.1-4.8-3.7-8.6-6.8-10c-1.6-0.7-4.2-1.9-5.5-1l-1.1-1.4c0.9-0.8,1.6-1.3,2.4-1.8c16.8-10.6,66.6-13.4,79.4-12
			c8.7,0.9,13.7,8,16.4,13.8l1.8,4.9l13.5,40.9c0.1,0.4,0.1,0.9-0.1,1.2c-0.2,0.4-0.5,0.7-0.9,0.9l-39.8,13.3
			C262.7,169.8,262.5,169.8,262.3,169.8C262.4,169.8,262.3,169.8,262.3,169.8L262.3,169.8z M262.5,168.1L262.5,168.1L262.5,168.1z
			 M288.5,113.9l-1.8-4.8c-2.5-5.4-7.1-11.9-15-12.8c-6.1-0.7-21.4-0.4-37.8,1.5c-18.9,2.2-33.1,5.7-40.2,10.1
			c1.3,0.3,2.6,0.8,3.6,1.3c3.6,1.6,6.6,5.9,7.8,11.2c1.4,6.3,1.9,16.2,2.1,23.4c15.6,6.8,33.6,14.7,55.2,24.2l39.6-13.3
			L288.5,113.9L288.5,113.9z"/>
		<path fill="#707070" d="M331.5,167.4c4.1,2.3-16.1,10.4-33.7,16.3c-10.8-4.7-23.1-10.1-36.1-15.7l40.3-13.3
			C302,154.7,325.3,164,331.5,167.4L331.5,167.4z"/>
		<path fill="#4A4A4A" d="M297.5,184.5c-10.8-4.7-23.1-10.1-36.1-15.7c-0.3-0.1-0.4-0.4-0.4-0.8s0.2-0.6,0.5-0.7l40.3-13.3
			c0.1-0.1,0.3-0.1,0.4,0c1,0.4,23.4,9.3,29.5,12.8c0.9,0.5,0.9,1.2,0.9,1.6c-0.4,3.8-19.1,10.9-34.7,16.1c-0.1,0-0.2,0-0.2,0
			C297.7,184.5,297.6,184.5,297.5,184.5L297.5,184.5z M263.8,168.1c12.2,5.3,23.8,10.4,34,14.8c21.6-7.3,33.2-13,33.5-14.7
			c0,0,0-0.1-0.2-0.1l0,0c-5.7-3.2-26.8-11.7-29.2-12.6L263.8,168.1L263.8,168.1z M331.5,167.4L331.5,167.4L331.5,167.4z"/>
		<path opacity="0.4" fill="#6D6D6D" enable-background="new    " d="M261.5,167.7c13,5.6,25.3,11,36.1,15.7
			c17.6-5.9,37.8-14,33.7-16.3c-6.1-3.5-29.5-12.8-29.5-12.8L261.5,167.7L261.5,167.7z M292.6,159.4c11.1-5.1,11.7-2.3,30.9,6.1
			c11.6,5.1-25.9,16-38.3,10.1C277.9,172.2,281.4,164.6,292.6,159.4z"/>
		<path opacity="0.3" fill="#6D6D6D" enable-background="new    " d="M310.5,161.9c5.6,4.2,5.3,9.4-6.1,12.4
			c-11.5,3,14.2-0.7,15.9-4.1C323.3,163.9,304,157,310.5,161.9L310.5,161.9z"/>
		<path d="M205.7,146.6c-0.2,0-0.4-0.1-0.5-0.1c-8.4-3.6-16.3-7-23.4-10c-0.6-0.2-0.9-0.8-1-1.4c-0.6-8.2,0.4-19.4,7.8-26l0,0
			c0.1-0.1,0.1-0.1,0.2-0.1c2.3-1.5,5.1-1.7,7.7-0.5c4.1,1.8,7.4,6.6,8.7,12.4c1.5,6.5,2,16.7,2.1,24.1c0,0.5-0.2,1.1-0.6,1.4
			C206.5,146.5,206.1,146.6,205.7,146.6C205.8,146.6,205.7,146.6,205.7,146.6L205.7,146.6z M189.8,110.4L189.8,110.4
			c-6.9,6.1-7.8,16.7-7.2,24.5c7.1,3,14.8,6.3,23.1,9.9c-0.2-7.3-0.7-17.3-2.1-23.6c-1.2-5.3-4.1-9.6-7.7-11.2
			c-0.9-0.4-1.9-0.6-2.8-0.6C191.9,109.4,190.8,109.7,189.8,110.4L189.8,110.4z M182.6,134.9L182.6,134.9L182.6,134.9z"/>
		<path fill="#3C404C" d="M427.3,267.3c1.5,29.6-9.5,66-40.7,66c-3.1,0-19.4,0.7-22.2-0.1c-25.7-7-43.8-45.6-43.8-79.6
			c0-26.5,7.5-56.1,33.5-59.7c1.7-0.2,20.3,0,22.2,0C407.8,193.9,425.7,235.4,427.3,267.3L427.3,267.3z"/>
		<path d="M364,334.4c-12.4-3.4-23.9-14.2-32.4-30.3c-7.9-15.1-12.4-33.5-12.4-50.5c0-16.9,3.4-56.7,34.7-61c1.2-0.2,8.6-0.1,19.4,0
			c1.5,0,2.6,0,3,0c10.3,0,25.2,4.4,37.8,25.4c8.2,13.7,13.6,32.1,14.5,49.3l0,0c0.9,18-2.9,42.3-16.2,56.3
			c-6.9,7.3-15.6,11-25.8,11c-0.7,0-2.2,0-4,0.1c-4,0.1-7.9,0.2-11.2,0.2C367.9,334.8,365.1,334.7,364,334.4L364,334.4z M426,267.3
			c-0.8-16.8-6.1-34.7-14.1-48.1c-6.6-11-18.1-24.1-35.6-24.1c-0.4,0-1.5,0-3.1,0c-4.9,0-17.7-0.2-19,0c-29.3,4-32.4,42.2-32.4,58.4
			c0,32.2,17.2,71.3,42.9,78.3c2,0.5,12.7,0.3,17.8,0.1c1.9,0,3.3-0.1,4-0.1c9.4,0,17.4-3.4,23.9-10.2
			C423.2,308.3,426.8,284.8,426,267.3L426,267.3L426,267.3z"/>
		<path fill="#2C2E39" d="M402.5,267.3c1.5,29.6-9.5,66-40.7,66s-49-42-49-79.7c0-28.2,8.2-59.7,38.7-59.7
			C383.1,193.9,401,235.4,402.5,267.3L402.5,267.3z"/>
		<path d="M324.5,308.2c-8.2-15-12.9-34.9-12.9-54.6c0-11.6,1.4-28.1,8.1-41c6.8-13.2,17.6-20,31.9-20c10.3,0,25.2,4.4,37.8,25.4
			c8.2,13.7,13.6,32.1,14.5,49.3c0.9,18-2.9,42.3-16.2,56.3c-6.9,7.3-15.6,11-25.8,11C346.9,334.6,334,325.4,324.5,308.2
			L324.5,308.2z M322,213.7c-6.4,12.5-7.8,28.6-7.8,39.8c0,19.3,4.6,38.7,12.6,53.4c11.4,20.7,25.3,25,35,25
			c9.4,0,17.5-3.4,23.9-10.2c12.8-13.4,16.4-36.9,15.5-54.4c-0.8-16.8-6.1-34.7-14.1-48.1c-6.6-11-18.1-24.1-35.6-24.1
			C338.3,195.2,328.3,201.4,322,213.7L322,213.7z"/>
		<path fill="#FFFFFF" d="M389.5,266.4c1.1,22.8-7,50.8-30.1,50.8s-36.2-32.3-36.2-61.4c0-21.8,6.1-46,28.6-46
			C375.1,209.9,388.3,241.9,389.5,266.4L389.5,266.4z"/>
		<path fill="#2C2E39" d="M344.9,214.8c1.2,9.3,5.4,38.8,7.8,38.8c2,0,5.6-27.9,6.9-38c-2.6-1.1-5.4-1.7-8.3-1.7
			C348.9,214,346.8,214.3,344.9,214.8L344.9,214.8z"/>
		<path fill="#2C2E39" d="M357.1,255.4c1.3,0.8,11.5-12.5,18.9-22.5c-2.3-4.5-5.1-8.5-8.4-11.6C363.2,232.7,355.3,254.3,357.1,255.4
			L357.1,255.4z"/>
		<path fill="#2C2E39" d="M359.5,258.8c0.7,1.2,12.4-3.5,23-7.9c-0.9-3.8-2-7.5-3.4-11C369.7,247.6,358.7,257.3,359.5,258.8z"/>
		<path fill="#2C2E39" d="M361,263c0,1.4,12.5,3.4,23.7,4.9c0-0.5,0-1.1,0-1.6c-0.1-3-0.5-6-1-9.2C372.7,259,361,261.4,361,263z"/>
		<path fill="#2C2E39" d="M382.9,287.2c1-4.1,1.5-8.4,1.8-12.6c-11-4.2-23.9-8.7-24.7-7.2C359.1,268.7,372.9,279.6,382.9,287.2
			L382.9,287.2z"/>
		<path fill="#2C2E39" d="M371.4,308.4c3.8-3.1,6.7-7.6,8.8-12.7c-7.7-9.9-20.8-26.2-22.6-25.2C355.8,271.6,367.7,299.7,371.4,308.4
			L371.4,308.4z"/>
		<path fill="#2C2E39" d="M347.4,310.3c3.2,1.9,6.7,2.9,10.5,2.9c1.5,0,2.9-0.1,4.2-0.4c-1-7.8-5.4-39.9-7.9-39.9
			C352.3,272.9,348.7,299.7,347.4,310.3L347.4,310.3z"/>
		<path fill="#2C2E39" d="M332.6,291.5c2,4.6,4.4,8.8,7.3,12.2c4.4-11.5,11.4-30.6,9.7-31.7C348.3,271.2,339.6,282.2,332.6,291.5
			L332.6,291.5z"/>
		<path fill="#2C2E39" d="M327.5,274.5c0.7,3.5,1.5,6.9,2.6,10.1c8.2-7,16.5-14.5,15.8-15.9C345.2,267.7,336.5,270.9,327.5,274.5
			L327.5,274.5z"/>
		<path fill="#2C2E39" d="M325.8,259.6c0.1,3.1,0.4,6.3,0.8,9.4c9.1-1.6,17.6-3.5,17.6-4.9S335.2,261.1,325.8,259.6L325.8,259.6z"/>
		<path fill="#2C2E39" d="M325.8,253.6c9.3,3.6,18.5,6.8,19.2,5.5c0.7-1.2-9.4-9.9-18.2-17.1C326.2,245.8,325.9,249.8,325.8,253.6
			L325.8,253.6z"/>
		<path fill="#2C2E39" d="M328.7,233.6C328.7,233.6,328.7,233.6,328.7,233.6c7.4,9.7,17.9,22.6,19.4,21.7c1.7-1-7.8-25.2-11.9-35.3
			C332.8,223.5,330.3,228.2,328.7,233.6L328.7,233.6z"/>
		<path fill="#3C404C" d="M169.9,190.3c2.8,18.4-0.3,41.8-16.3,43.5c-1.6,0.2-9.9,1.5-11.4,1.2c-13.6-2.9-25.6-26.1-27.9-47.3
			c-1.8-16.6,0-35.5,13.1-39.2c0.9-0.2,10.4-1.1,11.4-1.2C154.9,145.5,166.9,170.4,169.9,190.3L169.9,190.3z"/>
		<path d="M141.9,236.2c-6.8-1.5-13.5-7.6-19-17.4c-5.1-9-8.7-20.3-9.8-31c-1.2-10.7-2.1-36.1,14-40.6c0.6-0.2,3.2-0.5,10.1-1.1
			c0.8-0.1,1.3-0.1,1.5-0.1c17.5-1.9,29.6,24.7,32.5,44.2c1.9,12.4,1.3,29-5.9,38.3c-3,3.9-6.9,6.2-11.6,6.7c-0.4,0-1.1,0.1-2,0.3
			c-4.3,0.6-7.2,1-8.8,1C142.5,236.3,142.1,236.3,141.9,236.2L141.9,236.2z M138.9,148.5c-0.2,0-0.8,0.1-1.6,0.1
			c-2.4,0.2-8.9,0.9-9.6,1.1c-14.2,4-13.2,27.8-12.1,37.8c1.1,10.4,4.6,21.3,9.5,30c5.1,9.1,11.3,14.9,17.3,16.2
			c1,0.2,6.7-0.6,8.9-0.9c1-0.1,1.7-0.2,2.1-0.3c3.9-0.4,7.2-2.3,9.8-5.7c6.7-8.7,7.1-25,5.3-36.3l0,0c-2.6-17.4-13.3-42-28.2-42
			C139.9,148.4,139.4,148.5,138.9,148.5L138.9,148.5z"/>
		<path fill="#2C2E39" d="M157.2,191.6c2.8,18.4-0.3,41.8-16.3,43.5s-27.9-23.5-30.5-47.1c-1.9-17.7,0.1-37.8,15.7-39.5
			C142.2,146.8,154.2,171.8,157.2,191.6L157.2,191.6z"/>
		<path d="M119.5,221.8c-5.3-9-9.1-21.2-10.4-33.6c-1.3-11.6-2.2-38.9,16.9-40.9c17.5-1.9,29.6,24.7,32.5,44.2l0,0
			c1.9,12.4,1.3,29-5.9,38.3c-3,3.9-6.9,6.2-11.6,6.7c-0.6,0.1-1.2,0.1-1.7,0.1C132,236.6,125.2,231.5,119.5,221.8L119.5,221.8z
			 M126.3,149.9c-16.7,1.8-15.7,27.2-14.6,38.1c1.3,12,5,23.9,10.1,32.5c3.9,6.6,10.3,14.4,19,13.4c3.9-0.4,7.2-2.3,9.8-5.7
			c6.7-8.7,7.1-25,5.3-36.3l0,0C153.2,173.9,141.9,148.2,126.3,149.9L126.3,149.9z"/>
		<path fill="#FFFFFF" d="M150.5,191.8c2.1,14.2-0.1,32.2-11.9,33.4c-11.8,1.3-20.7-18.2-22.7-36.3c-1.5-13.6,0-29.1,11.5-30.4
			C139.2,157.3,148.2,176.6,150.5,191.8z"/>
		<path fill="#2C2E39" d="M124.1,162.1c1.3,5.7,5.4,24,6.6,23.8c1-0.1,1-17.8,0.9-24.1c-1.4-0.5-2.9-0.8-4.4-0.6
			C126.1,161.3,125.1,161.6,124.1,162.1L124.1,162.1z"/>
		<path fill="#2C2E39" d="M133.1,186.8c0.7,0.4,5-8.5,8.1-15.1c-1.5-2.7-3.2-5-5.1-6.8C134.7,172.2,132.1,186.2,133.1,186.8z"/>
		<path fill="#2C2E39" d="M134.6,188.8c0.4,0.7,6.1-2.9,11.2-6.3c-0.7-2.3-1.5-4.6-2.5-6.7C139.1,181.2,134.1,187.9,134.6,188.8
			L134.6,188.8z"/>
		<path fill="#2C2E39" d="M135.7,191.3c0.1,0.9,6.6,1.4,12.5,1.7c0-0.3-0.1-0.7-0.1-1c-0.3-1.9-0.6-3.8-1.1-5.7
			C141.4,188.1,135.6,190.3,135.7,191.3L135.7,191.3z"/>
		<path fill="#2C2E39" d="M148.5,205.2c0.2-2.6,0.2-5.3,0-8c-5.9-2-12.8-4.1-13.1-3.1C135.1,195,142.9,201,148.5,205.2L148.5,205.2z
			"/>
		<path fill="#2C2E39" d="M144.1,219.1c1.7-2.2,2.9-5.1,3.6-8.4c-4.6-5.7-12.4-15.2-13.3-14.5C133.6,196.9,141.6,213.9,144.1,219.1
			L144.1,219.1z"/>
		<path fill="#2C2E39" d="M132,221.6c1.8,1,3.6,1.4,5.6,1.2c0.8-0.1,1.5-0.2,2.1-0.5c-1.1-4.8-5.5-24.6-6.8-24.5
			C131.9,198,131.9,215,132,221.6L132,221.6z"/>
		<path fill="#2C2E39" d="M123.1,210.7c1.3,2.8,2.9,5.2,4.6,7.2c1.5-7.4,3.7-19.8,2.8-20.4C129.7,197.2,126.1,204.5,123.1,210.7z"/>
		<path fill="#2C2E39" d="M119.3,200.4c0.6,2.1,1.2,4.2,2,6.2c3.7-4.8,7.5-10,7-10.8C127.9,195.1,123.7,197.6,119.3,200.4z"/>
		<path fill="#2C2E39" d="M117.4,191.1c0.3,1.9,0.6,3.9,1,5.8c4.6-1.5,8.8-3.2,8.7-4.1C127.1,192.2,122.4,191.6,117.4,191.1
			L117.4,191.1z"/>
		<path fill="#2C2E39" d="M117,187.4c5,1.7,9.9,3.2,10.2,2.4c0.3-0.8-5.5-5.7-10.5-9.7C116.7,182.5,116.8,185,117,187.4L117,187.4z"
			/>
		<path fill="#2C2E39" d="M117.1,174.7L117.1,174.7c4.5,5.6,10.7,13.1,11.4,12.5c0.8-0.7-5.7-15.3-8.5-21.4
			C118.5,168.1,117.6,171.2,117.1,174.7L117.1,174.7z"/>
		<path fill-rule="evenodd" clip-rule="evenodd" fill="#D64B00" d="M243.2,151l-44.1-27.1c0,0-46.5-4.6-65.4,0.9s-16.5,5.9-16.8,7.8
			c-0.3,1.9,3.7,13.8,3.7,13.8s9.6,0.2,17.2,5.7c12.4,8.9,25.7,24.6,30.7,22.7c8.2-3.1,53.3,27.6,59.8,9.4"/>
		<path fill-rule="evenodd" clip-rule="evenodd" fill="#A32F00" d="M125.5,145.3c-0.2,1.1-8.7-12.6-8.7-12.6s-2.1,2.2-5,14.5
			c-2.9,12.3-3.4,19.4-3.2,31s2.4,13.7,2.4,13.7s-0.8-16.1-0.8-18.5s0.7-11.3,1.7-14.9C113,154.9,125.5,145.3,125.5,145.3
			L125.5,145.3L125.5,145.3z"/>
		<path fill-rule="evenodd" clip-rule="evenodd" fill="#B23904" d="M204.6,165.8l-16-9.9c0,0-11.3-7.3-18.3-13.6
			c-7-6.3-9.7-9.7-9.7-9.7l-37.5,15.7c0,0,7.5-3,17.2,12.5c9.7,15.5,11.8,32,11.8,32s2,7.2,3.3,18.2c1.4,11,46.4,20.8,46.4,20.8
			l50.4-29L204.6,165.8L204.6,165.8L204.6,165.8z"/>
		<path fill-rule="evenodd" clip-rule="evenodd" fill="#D15000" d="M184.8,153.4c-1.3,2.8-2.4,7-2.1,13.6c0.7,15,14,34.1,14,34.1
			l-42.2,4.4c-1.2-7.9-2.6-12.7-2.6-12.7s-2.1-16.5-11.8-32c-9.7-15.5-17.2-12.5-17.2-12.5l37.5-15.7c0,0,2.7,3.4,9.7,9.7
			C174.7,146.3,180.9,150.7,184.8,153.4L184.8,153.4L184.8,153.4z"/>
		<path fill-rule="evenodd" clip-rule="evenodd" fill="#D64B00" d="M165.2,137.6L165.2,137.6c0,0,5.4,18.2,13.1,38.3
			c7.7,20.1,11.9,23.5,11.9,23.5l-35.8,5.7c-1.2-7.6-2.5-12.3-2.5-12.3s-2.1-16.5-11.8-32s-17.2-12.5-17.2-12.5l37.5-15.7
			C160.6,132.6,161.9,134.3,165.2,137.6L165.2,137.6L165.2,137.6z"/>
		<path fill-rule="evenodd" clip-rule="evenodd" fill="#B23904" d="M311,190.6l5.1,5.5c0,0-5,21-6.3,48.1s5.1,35.7,5.1,35.7
			l-107.1-45.9l-1.5-22.4l-9.7-20.4c0,0-4.2-8.7-5.1-12.6s-1.9-14.7-2.4-17.2c-0.5-2.5,0-5.2,0-5.2l43.2-3.3L311,190.6L311,190.6
			L311,190.6z"/>
		<path fill-rule="evenodd" clip-rule="evenodd" fill="#D15000" d="M308,206.1c2-4.2-2,43.6-2,43.6l-106.2-51.9l6.5,13.7l1.5,22.4
			l107.1,46c0,0-6.4-8.6-5.1-35.7c0.9-18.1,3.4-33.4,4.9-41.6C311.9,198.1,314.6,209.3,308,206.1L308,206.1L308,206.1z"/>
		<polygon fill-rule="evenodd" clip-rule="evenodd" fill="#D64B00" points="193.3,211.7 189.7,206.1 208.7,208.8 270.8,262.4 
			193.3,211.7 		"/>
		<path fill-rule="evenodd" clip-rule="evenodd" fill="#D64B00" d="M204.6,165.8l6.9,4.4c0,0,0,4.7-2.9,4.5
			c-2.8-0.2-14.4-6.7-14.4-6.7s-1.4-6.1,1.7-6.1C199,162,204.6,165.8,204.6,165.8L204.6,165.8z"/>
		<path fill-rule="evenodd" clip-rule="evenodd" fill="#A32F00" d="M183.9,210.7c-0.3-0.8,19.1-0.8,19.1-0.8l66,47.3
			C269,257.2,180,234.1,183.9,210.7L183.9,210.7L183.9,210.7z"/>
		<path fill-rule="evenodd" clip-rule="evenodd" fill="#D64B00" d="M179.8,201c0,0-13-33.7-24.4-51.2
			c-12.6-19.4-38.4-17.2-38.4-17.2l-2.6,19c0,0,4.7-6.9,14.2-2.1S179.8,201,179.8,201L179.8,201z"/>
		<path fill-rule="evenodd" clip-rule="evenodd" fill="#D64B00" d="M313.9,205.7l-124.1-49.3l0.2-1.6c0,0,14.3-6,20.5-8.3
			c6.3-2.3,11.7-3.2,11.7-3.2s52.9,20,92.1,32.8C353.5,188.9,313.9,205.7,313.9,205.7L313.9,205.7L313.9,205.7z"/>
		<path fill-rule="evenodd" clip-rule="evenodd" fill="#D15000" d="M322.2,182.1l-2.4-3.9c-1.6-0.7-3.5-1.4-5.5-2
			c-4.3-1.4-8.8-2.9-13.4-4.4c-10,2.2-23.5,5.2-31.3,7.3c-12.6,3.4-70.5-19-79.9-22.6v0l124.7,49.8l-0.5-0.7
			C317.6,199.7,320.3,191.9,322.2,182.1L322.2,182.1L322.2,182.1z"/>
		<path fill-rule="evenodd" clip-rule="evenodd" d="M314.3,176.2c0,0-1,6.8-3.3,14.4s-3.9,18.3-4.7,39.4s0.2,39.4,0.2,39.4
			l-90.4-42.6c0,0-19-32.8-22.9-44.6c-3.9-11.9-3.4-25.6-3.4-25.6s6.5-4.8,16.7-8c10.2-3.1,15.7-5.1,15.7-5.1l-2-0.5
			c0,0-18,5.6-24.2,8.4s-7.5,4.7-7.5,4.7s-0.7,14.9,4.1,27.6c4.8,12.7,22.7,44.6,22.7,44.6l82.2,38.5c0,0,8.6,9.1,10.9,4.6
			c2.3-4.4,0.8-48.2,6.6-71s0.8-24.6,0.8-24.6L314.3,176.2L314.3,176.2L314.3,176.2z"/>
		<path fill="#38A9B4" d="M398.2,136c-5.8,30.8-34.5,42.3-66.1,36.4c-31.7-5.9-52.7-26.7-46.9-57.5s34-49,65.7-43.1
			C382.5,77.7,403.9,105.2,398.2,136L398.2,136z"/>
		<path d="M330.9,174.8c-16.8-3.1-30.3-10.1-39.1-20.3c-9.5-10.9-12.9-24.8-10-40.2c5.4-28.8,30.6-52.3,68.9-45.2
			c38.7,7.2,54.8,38.8,49.5,67.2c-2.9,15.4-11.4,27.1-24.7,33.8C363.3,176.2,347.5,177.9,330.9,174.8L330.9,174.8z M349.6,74.2
			c-35.2-6.6-57.8,15.2-62.6,41.1c-5.1,27.5,12,48.4,44.8,54.4c33.2,6.2,57.9-7.3,63-34.4C400.8,103.2,374.6,78.9,349.6,74.2
			L349.6,74.2z"/>
		
			<ellipse transform="matrix(0.9994 -3.420178e-02 3.420178e-02 0.9994 -3.4284 13.5665)" fill="#FFFFFF" cx="394.8" cy="107" rx="14.7" ry="27.5"/>
		<path d="M382.9,126.4c-2.6-5-4.2-11.5-4.5-18.8c-0.6-16.4,6.2-29.5,15.4-29.8c9.2-0.3,16.9,12.3,17.4,28.7s-6.2,29.5-15.4,29.8
			C390.7,136.4,386.1,132.6,382.9,126.4z M403.6,89.2c-2.5-5-6-8.1-9.7-7.9c-7,0.2-12.5,12.2-12,26.2c0.5,14,6.8,25.5,13.8,25.3
			s12.5-12.2,12-26.2l0,0C407.5,99.9,405.9,93.8,403.6,89.2L403.6,89.2z"/>
		
			<ellipse transform="matrix(0.9988 -4.850112e-02 4.850112e-02 0.9988 -4.604 19.4534)" cx="398.6" cy="104.6" rx="5.6" ry="12.1"/>
		
			<ellipse transform="matrix(6.575139e-02 -0.9978 0.9978 6.575139e-02 269.884 493.108)" fill="#FFFFFF" cx="398.3" cy="102.4" rx="3.6" ry="2.6"/>
		
			<ellipse transform="matrix(0.9994 -3.420178e-02 3.420178e-02 0.9994 -3.5235 12.6723)" fill="#FFFFFF" cx="368.6" cy="109.3" rx="20.7" ry="36.2"/>
		<path d="M351.8,133.6c-3.4-6.6-5.4-14.8-5.7-23.5c-0.3-10,1.6-19.4,5.4-26.6c4-7.5,9.6-11.8,15.8-12c6.2-0.2,12.1,3.7,16.6,10.9
			c4.3,6.9,6.9,16.3,7.2,26.2c0.3,10-1.6,19.4-5.4,26.6c-4,7.5-9.6,11.8-15.8,12c-6.2,0.2-12.1-3.7-16.6-10.9
			C352.8,135.4,352.3,134.5,351.8,133.6L351.8,133.6z M382.4,86.7c-0.4-0.9-0.9-1.7-1.4-2.5c-3.8-6.1-8.6-9.4-13.5-9.3
			s-9.4,3.8-12.8,10.2c-3.5,6.7-5.3,15.5-5,24.9c0.3,9.4,2.7,18.1,6.7,24.5c3.8,6.1,8.6,9.4,13.5,9.3s9.4-3.8,12.8-10.2
			c3.5-6.7,5.3-15.5,5-24.9l0,0C387.3,100.5,385.5,92.8,382.4,86.7L382.4,86.7z"/>
		<ellipse transform="matrix(0.9988 -4.850112e-02 4.850112e-02 0.9988 -4.7306 18.2003)" cx="372.7" cy="106.6" rx="8" ry="17.4"/>
		
			<ellipse transform="matrix(6.575139e-02 -0.9978 0.9978 6.575139e-02 247.1563 467.3887)" fill="#FFFFFF" cx="373.2" cy="101.7" rx="4.5" ry="3.3"/>
		<path fill="none" d="M258.8,137.9c2.8-7.7,6.5-15.1,9.8-22.7c1.5-3.6,3-7.3,4.7-11l0,0l0,0c1.7-3.6,3.6-7.1,6.2-10.1
			c0.8-1,1.7-1.9,2.6-2.7c1.8-31.2,26.2-56,56.1-56c31.1,0,56.3,26.7,56.3,59.6c0,4.2-0.4,8.2-1.2,12.1c9.9,6.7,16.2,16.9,16.2,28.4
			c0,19.5-18.2,35.4-41,36.3c0.5,0.5,1,0.9,1.5,1.4c-5.9-1.6-12.4-1.6-18.4-0.4l0,0c-1.5,0.3-3.1,0.7-4.5,1.1c-0.1,0-0.1,0-0.2,0.1
			c-0.6,0.2-1.2,0.4-1.8,0.6c-0.1,0.1-0.3,0.1-0.5,0.2c-0.6,0.2-1.3,0.5-1.9,0.8c-6.7,2.9-12.2,8.3-19.6,4.2
			c-6.1-3.4-11.8-7.5-18-10.8c-6.1-3.2-12.4-6-18.8-8.5c-6.4-2.4-13.1-4-19.5-6.3c-2.9-1.1-5.9-2.5-7.8-5.1
			C256.6,145.8,257.5,141.6,258.8,137.9L258.8,137.9z"/>
		<path fill-rule="evenodd" clip-rule="evenodd" fill="#D15000" d="M325.2,180.4l-12,6.9c0,0-2.5,5.9-5,28.4
			c-2.4,22.5,0.2,55.5,0.2,55.5l-108.7-46.1l75.2,40.2l38.7,13.9l-2.9-30.2c0,0-2.2-24.4,8.5-41.6S345.9,200.3,325.2,180.4
			L325.2,180.4L325.2,180.4z"/>
		<path fill-rule="evenodd" clip-rule="evenodd" fill="#D15000" d="M590.9,235.7l58.3,9.5l-1.1-24.7c0,0-20.6-34.3-76.2-62.4
			L590.9,235.7L590.9,235.7z"/>
		<path fill-rule="evenodd" clip-rule="evenodd" fill="#D15000" d="M603.8,205.2l25.9,10.4l-14-26.4l-12.8-12.5
			c0,0-25.7-20.7-70.4-34.2L603.8,205.2L603.8,205.2L603.8,205.2z"/>
		<path fill-rule="evenodd" clip-rule="evenodd" fill="#B23904" d="M507.6,171.3l-5.2-9l23.2-6.3c0,0,7.5-6.8,8.2-8.9
			c0.7-2.2-1.2-4.6-1.2-4.6s65,15.5,94.9,65.1l-20.1,40.9L507.6,171.3L507.6,171.3L507.6,171.3z"/>
		<path fill-rule="evenodd" clip-rule="evenodd" fill="#D64B00" d="M402,216.1l-23.6-7.8c0,0-12.6-13-26.9-13.2s-26.4,3-26.4,3
			l-11.9-10.7l2.7-11.6l36.5-8.3l20.3,3.4l89.4,7.1l103.1,57.7l-51.8,24.1L402,216.1L402,216.1L402,216.1z"/>
		<path fill-rule="evenodd" clip-rule="evenodd" fill="#D15000" d="M644.4,251.2l4.8-6c0,0-12.8-29.7-24-39.8l-1.6-2.8
			c0,0,1.1,1.1-0.5,5.6c-1.6,4.5-4.6,9.1-6.6,11.9c-2,2.8-6.2,4-6.2,4s-8.7-2.6-9.1-2.5c-0.4,0.1-9.6,3.5-9.6,3.5l23.2,34.5
			C614.7,259.4,618.4,266.6,644.4,251.2L644.4,251.2L644.4,251.2z"/>
		<path fill="#D15000" d="M616.8,260.9c-1.7-0.5-2.1-1.4-2.1-1.4L591.4,225l-0.1-0.1l0.1,0c0.4-0.1,9.2-3.4,9.6-3.5
			c0.4-0.1,7.6,2.1,9.2,2.5c0.3-0.1,4.2-1.2,6.1-3.9c1.7-2.4,4.9-7.2,6.6-11.9c1.2-3.3,0.9-4.8,0.7-5.3l-0.5-0.9l0.5,0.5
			c0,0,0.1,0.1,0.2,0.3l1.4,2.5c11.1,10,23.9,39.5,24,39.8l0,0.1l-4.9,6l0,0c-13.2,7.8-20.7,9.9-25,9.9
			C618.3,261.2,617.5,261,616.8,260.9L616.8,260.9z M649.1,245.2c-0.6-1.4-13.1-29.9-23.9-39.7l-1.1-2c0.1,0.8,0,2.3-0.9,4.7
			c-1.7,4.7-4.9,9.5-6.6,11.9c-2,2.8-6.2,4-6.2,4h0h0c-3.4-1-8.6-2.5-9.1-2.5c0,0,0,0,0,0c-0.3,0.1-6.3,2.2-9.5,3.4l23.2,34.4
			c0,0,0.5,0.8,2,1.3c6.6,1.9,20-5.2,27.4-9.6L649.1,245.2L649.1,245.2z"/>
		<path fill-rule="evenodd" clip-rule="evenodd" fill="#A32F00" d="M642.8,250.7l3.1,1c0,0,12.2,21.1,11.9,22.2s-1.9,1.1-3.6,1.1
			s-4.6-1.2-4.6-1.2l-22-8.2C627.6,265.6,642,253.3,642.8,250.7L642.8,250.7z"/>
		<polygon fill-rule="evenodd" clip-rule="evenodd" points="639.7,256 644.5,265.1 632.4,260.6 639.7,256 		"/>
		<path fill-rule="evenodd" clip-rule="evenodd" fill="#2C2927" d="M636.5,276.8c0-1.8,13.8-2.6,13.8-2.6l-26.8-13.5l-12.9,26.1
			L636.5,276.8L636.5,276.8L636.5,276.8z"/>
		<path fill-rule="evenodd" clip-rule="evenodd" fill="#D64B00" d="M598.2,246.1l-0.9-22.6c0,0-41.2-36.7-94.9-61.1l-45,6.8l-87,1.7
			l4.9,1l19.4,5.2l42.2,13l34.5,13.4l77.8,36.1L598.2,246.1L598.2,246.1L598.2,246.1z"/>
		<path fill-rule="evenodd" clip-rule="evenodd" fill="#D64B00" d="M613.6,282.8l1.1-7.4l35.7-1.2c0,0-3.6,9.7-22,22.8s-55,18-55,18
			S578,281.4,613.6,282.8L613.6,282.8L613.6,282.8z"/>
		<path d="M572.2,314.8c0-0.3,5-34,40.3-33.4l1.1-7.3l38.8-1.3l-0.7,1.8c-0.2,0.4-3.9,10.3-22.4,23.4c-7.8,5.5-19.5,10.3-34.8,14.1
			c-11.4,2.9-20.7,4.1-20.7,4.1l-1.7,0.2L572.2,314.8L572.2,314.8z M615.8,276.7l-1.1,7.4l-1.2,0c-29.8-1.1-37,22.6-38.5,29.4
			c7.5-1.2,37-6.4,52.6-17.5c13.2-9.4,18.6-17,20.6-20.4L615.8,276.7z"/>
		<path fill-rule="evenodd" clip-rule="evenodd" fill="#16151A" d="M592.8,245.4l-2.7,28.3L573.4,315l11.6-8.4c0,0,23-6,38-15.7
			c15-9.7,18.9-16,18.9-16l-27.3,0.5L592.8,245.4L592.8,245.4L592.8,245.4z"/>
		<path fill-rule="evenodd" clip-rule="evenodd" fill="#D64B00" d="M472.9,254.1l-2.1-18.8l51,6.9l11.9-5.9l41.4-2.2
			c0,0,12.1-1.4,13.5-1.8s0.5-3.4,0.7-4.7s2.7-3,3.3-3.2c0.6-0.2,4.7-0.9,4.7-0.9s22.1,23.1,31.3,37.4c0,0-27.9,17.6-55.1,20
			C546.3,283.2,465,290.9,472.9,254.1L472.9,254.1L472.9,254.1z"/>
		<path fill-rule="evenodd" clip-rule="evenodd" fill="#F7F2EC" d="M531.5,237.3l3.5-1.2l3.5-0.2c0,0-5.3,13.2-7.6,15.9
			s-59-7.1-59-7.1l-10.6-15.3L531.5,237.3L531.5,237.3L531.5,237.3z"/>
		<path fill-rule="evenodd" clip-rule="evenodd" fill="#D64B00" d="M491.7,287.2l24.3-16.5l-55.8-43.6l-19.5-12.3l-65.6-9.4
			c0,0,18.2,15.8,21.7,26.6s14.6,26.5,16.8,27.5C415.8,260.3,491.7,287.2,491.7,287.2L491.7,287.2L491.7,287.2z"/>
		<path fill-rule="evenodd" clip-rule="evenodd" fill="#D15000" d="M515.4,271.1l-125-50c2.9,3.7,5.4,7.5,6.5,10.8
			c3.5,10.8,14.6,26.5,16.8,27.5c2.2,1,78.1,27.8,78.1,27.8L515.4,271.1L515.4,271.1L515.4,271.1z"/>
		<path fill-rule="evenodd" clip-rule="evenodd" fill="#B23904" d="M523.4,284.8l-12.8-10.2L406,247.7c0,0,3.4,48.5,2.7,55.4
			s32.2,9.5,32.2,9.5S512.5,308.9,523.4,284.8L523.4,284.8z"/>
		<path fill-rule="evenodd" clip-rule="evenodd" fill="#D15000" d="M570.7,323.7c0,0,18.6-24.8,20.9-29.7s8.5-11,8.5-11l-32.3-2.4
			L542.3,315C542.3,315,547.2,318.1,570.7,323.7L570.7,323.7L570.7,323.7z"/>
		<path fill-rule="evenodd" clip-rule="evenodd" fill="#F1B706" d="M596.6,286.8l-2.7,2.2l-26.7,33.9c1.1,0.3,2.3,0.5,3.5,0.8
			c0,0,18.6-24.8,20.9-29.7C592.8,291.6,594.8,288.9,596.6,286.8L596.6,286.8L596.6,286.8z"/>
		<path fill-rule="evenodd" clip-rule="evenodd" fill="#A32F00" d="M553.1,315.8c0.3-0.7,38.4-29.7,38.4-29.7s-4.6-2.7-7.9-1.9
			s-37.4,28.1-37.4,28.1S545,317.9,553.1,315.8L553.1,315.8L553.1,315.8z"/>
		<polygon fill-rule="evenodd" clip-rule="evenodd" fill="#D64B00" points="495.9,301.5 470.1,304.6 408.7,302.2 408,316.3 
			492.6,329.5 570.7,323.7 571.3,322.2 495.9,301.5 		"/>
		<polygon fill-rule="evenodd" clip-rule="evenodd" fill="#D15000" points="541.6,300.5 552.3,314.7 571.6,322.3 497.2,326.3 
			478,311.9 541.6,300.5 		"/>
		<path fill-rule="evenodd" clip-rule="evenodd" fill="#F1B706" d="M490.8,309.1c-0.1-1-20.1-5.3-20.1-5.3l-0.6,0.8l27.7,22.1
			l64.4-3.5l-63.8,1.9l-12.4-9.5L490.8,309.1L490.8,309.1L490.8,309.1z"/>
		<path fill-rule="evenodd" clip-rule="evenodd" fill="#D15000" d="M649.2,245.2c0,0-5.8,6.1-13.5,9.9c-7.7,3.9-32.9,14.8-40.9,16.2
			c-8,1.5-82-0.7-82-0.7l-42,33.2l140.1-26l28.5-18.3C639.4,259.5,646.3,253.3,649.2,245.2L649.2,245.2L649.2,245.2z"/>
		<path fill-rule="evenodd" clip-rule="evenodd" fill="#2E2E31" d="M624.9,269.5l1.9,1.1c0,0-3.4,4.8-9.8,9.8
			c-6.4,5-25.4,13.5-25.4,13.5l2.3-5l-5-5.8L624.9,269.5L624.9,269.5L624.9,269.5z"/>
		<path fill-rule="evenodd" clip-rule="evenodd" d="M639.4,259.5l-12.6,11.1l-36.5,14.3l-38,29.8l-64.6,2.2l-16.9-13.1l42.2-28.2
			l82.2,2.4C595.1,277.9,623.4,269.2,639.4,259.5L639.4,259.5L639.4,259.5z"/>
		<polygon fill-rule="evenodd" clip-rule="evenodd" fill="#232329" points="482.2,308.9 545.3,302.6 581.3,279.2 515.9,276.9 
			475.9,304.2 482.2,308.9 		"/>
		<path fill-rule="evenodd" clip-rule="evenodd" d="M550.3,281.2l1.9-0.3l0.7-0.8l2,0.1l-0.3,0.4l-0.9,1l1,0.7l1,0.7l1.9-0.3
			l1.9-0.3l0.9-1l0.8-0.9l4.7,0.2l-1.5,0.2l-1.9,0.3l-0.9,1l-0.9,1l1,0.7l1,0.7l1.9-0.3l1.9-0.3l0.9-1l0.9-1l-1-0.7l-0.9-0.6
			l2.6,0.1l0.5,0.4l1.8-0.3l2,0.1l-2.3,1.5l-1.4,0.2l-0.9,1l-0.6,0.6l-1.8,1.2l-1.6,0.2l-1.9,0.3l-0.9,1l-0.9,1l0.7,0.5l-1.2,0.8
			l-0.7-0.5l-1.9,0.3l-1.9,0.3l-0.9,1l-0.9,1l1,0.7l0.5,0.3l-1.3,0.9l-0.5-0.3l-1-0.7l-1.9,0.3l-1.9,0.3l-0.9,1l-0.9,1l1,0.7l1,0.7
			l0.8-0.1l-2.8,1.8l0.8-0.9l-1-0.7l-1-0.7l-1.9,0.3l-1.9,0.3l-0.9,1l-0.9,1l1,0.7l1,0.7l1.9-0.3l1-0.2l-3.2,2.1l-1.6,0.2l0.8-0.8
			l-1-0.7l-1-0.7l-1.9,0.3l-1.9,0.3l-0.9,1l-0.9,1l0.5,0.3l-7.3,0.7l0.3-0.4l-1-0.7l-1-0.7l-1.9,0.3l-1.9,0.3l-0.9,1l-0.8,0.9
			l-10.2,1l-1-0.8l-1-0.8l-1.9,0.1l-1.9,0.1l-0.9,0.9l-0.9,0.9l0.6,0.4l-7.8,0.8l0.7-0.7l-1-0.8l-1-0.8l-1.9,0.1l-1.9,0.1l-0.9,0.9
			l-0.9,0.9l1,0.8l0.3,0.2l-1.9,0.2l-0.5-0.4l-1.9,0.1l-1.9,0.1l-0.8,0.8l-1.7,0.2l-0.2-0.1l0.5-0.5l0.9-0.9l-1-0.8l-1-0.8l-1.9,0.1
			l-0.5,0l6.3-4.3l0.8,0l1.9-0.1l0.9-0.9l0.9-0.9l-0.9-0.7l1.1-0.8l0.8,0.6l1.9-0.1l1.9-0.1l0.9-0.9l0.9-0.9l-1-0.8l-1-0.8h-0.2
			l1.5-1l0,0l1,0.8l1,0.8l1.9-0.1l1.9-0.1l0.9-0.9l0.9-0.9l-1-0.8l-1-0.8l-1.9,0.1l-1.1,0l2.3-1.6l0.6,0l0.9-0.9l0.4-0.4l2-1.3
			l1.7-0.1l1.9-0.1l0.9-0.9l0.9-0.9l-1-0.8l-0.2-0.2l1.3-0.9l0.1,0.1l1,0.8l1.9-0.1l1.9-0.1h0h0l1.9-0.3l1.9-0.3l0.9-1l0.9-1l-1-0.7
			l-1-0.7l-1.9,0.3l-1.9,0.3h0h0l-1,0l2.5-1.7l3.7,0.1l-0.2,0.2l1,0.7l1,0.7l1.9-0.3l1.9-0.3l0.7-0.7l2,0.1l-0.3,0.3l-0.9,1l1,0.7
			l1,0.7l1.9-0.3l1.9-0.3l0.9-1l0.8-0.9l4.7,0.2l-1.4,0.2l-1.9,0.3l-0.9,1l-0.9,1l1,0.7l1,0.7l1.9-0.3l1.9-0.3l0.9-1l0.9-1l-1-0.7
			l-0.9-0.6l2.6,0.1l0.4,0.2l1.2-0.2l4.1,0.1l-0.2,0.2l1,0.7l1,0.7L550.3,281.2L550.3,281.2L550.3,281.2z M546.3,283.2l0.9-1l-1-0.7
			l-1-0.7l-1.9,0.3l-1.9,0.3l-0.9,1l-0.9,1l1,0.7l1,0.7l1.9-0.3l1.9-0.3L546.3,283.2L546.3,283.2z M531.6,286.1l0.9-1l0.9-1l-1-0.7
			l-1-0.7l-1.9,0.3l-1.9,0.3l-0.9,1l-0.9,1l1,0.7l1,0.7l1.9-0.3L531.6,286.1L531.6,286.1z M525.5,286.8l-1-0.7l-1.9,0.3l-1.9,0.3
			l-0.9,1l-0.9,1l1,0.7l1,0.7l1.9-0.3l1.9-0.3l0.9-1l0.9-1L525.5,286.8L525.5,286.8z M517.6,288l0.9-1l0.9-1l-1-0.7l-1-0.7l-1.9,0.3
			l-1.9,0.3h0h0l-1.9,0.1l-1.9,0.1l-0.9,0.9l-0.9,0.9l1,0.8l1,0.8l1.9-0.1l1.9-0.1h0h0l1.9-0.3L517.6,288L517.6,288L517.6,288z
			 M540.6,285.7l-1-0.7l-1-0.7l-1.9,0.3l-1.9,0.3l-0.9,1l-0.9,1l1,0.7l1,0.7l1.9-0.3l1.9-0.3l0.9-1L540.6,285.7L540.6,285.7z
			 M532.8,288.3l-1-0.7l-1.9,0.3l-1.9,0.3l-0.9,1l-0.9,1l1,0.7l1,0.7l1.9-0.3l1.9-0.3l0.9-1l0.9-1L532.8,288.3L532.8,288.3z
			 M518,292.8l0.9-1l0.9-1l-1-0.7l-1-0.7l-1.9,0.3l-1.9,0.3h0h0l-1.9,0.1l-1.9,0.1l-0.9,0.9l-0.9,0.9l1,0.8l1,0.8l1.9-0.1l1.9-0.1h0
			h0l1.9-0.3L518,292.8L518,292.8L518,292.8z M526.1,293.3l0.9-1l-1-0.7l-1-0.7l-1.9,0.3l-1.9,0.3l-0.9,1l-0.9,1l1,0.7l1,0.7
			l1.9-0.3l1.9-0.3L526.1,293.3L526.1,293.3z M520.2,295.6l-1-0.7l-1-0.7l-1.9,0.3l-1.9,0.3h0h0l-1.9,0.1l-1.9,0.1l-0.9,0.9
			l-0.9,0.9l1,0.8l1,0.8l1.9-0.1l1.9-0.1h0h0l1.9-0.3l1.9-0.3l0.9-1L520.2,295.6L520.2,295.6L520.2,295.6z M543.7,285.9l-1.9,0.3
			l-0.9,1l-0.9,1l1,0.7l1,0.7l1.9-0.3l1.9-0.3l0.9-1l0.9-1l-1-0.7l-1-0.7L543.7,285.9L543.7,285.9z M539,289.1l-1.9,0.3l-1.9,0.3
			l-0.9,1l-0.9,1l1,0.7l1,0.7l1.9-0.3l1.9-0.3l0.9-1l0.9-1l-1-0.7L539,289.1L539,289.1z M533.3,293.1l-1-0.7l-1.9,0.3l-1.9,0.3
			l-0.9,1l-0.9,1l1,0.7l1,0.7l1.9-0.3l1.9-0.3l0.9-1l0.9-1L533.3,293.1L533.3,293.1z M526.4,296.5l-1-0.7l-1.9,0.3l-1.9,0.3l-0.9,1
			l-0.9,1l1,0.7l1,0.7l1.9-0.3l1.9-0.3l0.9-1l0.9-1L526.4,296.5L526.4,296.5z M520.7,300.5l-1-0.7l-1-0.7l-1.9,0.3l-1.9,0.3h0h0
			l-1.9,0.1l-1.9,0.1l-0.9,0.9l-0.9,0.9l1,0.8l1,0.8l1.9-0.1l1.9-0.1h0h0l1.9-0.3l1.9-0.3l0.9-1L520.7,300.5L520.7,300.5
			L520.7,300.5z M508.6,298.5l-1-0.8l-1.9,0.1l-1.9,0.1l-0.9,0.9l-0.9,0.9l1,0.8l1,0.8l1.9-0.1l1.9-0.1l0.9-0.9l0.9-0.9L508.6,298.5
			L508.6,298.5z M501.8,302.9l0.9-0.9l-1-0.8l-1-0.8l-1.9,0.1l-1.9,0.1l-0.9,0.9l-0.9,0.9l1,0.8l1,0.8l1.9-0.1l1.9-0.1L501.8,302.9
			L501.8,302.9z M508.3,295.3l0.9-0.9l-1-0.8l-1-0.8l-1.9,0.1l-1.9,0.1l-0.9,0.9l-0.9,0.9l1,0.8l1,0.8l1.9-0.1l1.9-0.1L508.3,295.3
			L508.3,295.3z M501.2,296.4l-1-0.8l-1.9,0.1l-1.9,0.1l-0.9,0.9l-0.9,0.9l1,0.8l1,0.8l1.9-0.1l1.9-0.1l0.9-0.9l0.9-0.9L501.2,296.4
			L501.2,296.4z M495.5,300l-1-0.8l-1-0.8l-1.9,0.1l-1.9,0.1l-0.9,0.9l-0.9,0.9l1,0.8l1,0.8l1.9-0.1l1.9-0.1l0.9-0.9L495.5,300
			L495.5,300z M488.8,302.7l-1-0.8l-1-0.8l-1.9,0.1l-1.9,0.1l-0.9,0.9l-0.9,0.9l1,0.8l1,0.8l1.9-0.1l1.9-0.1l0.9-0.9L488.8,302.7
			L488.8,302.7z M507.9,290.5l0.9-0.9l-1-0.8l-1-0.8l-1.9,0.1l-1.9,0.1L502,289l-0.9,0.9l1,0.8l1,0.8l1.9-0.1l1.9-0.1L507.9,290.5
			L507.9,290.5z M530.8,297.5l-1.9,0.3l-0.9,1l-0.9,1l1,0.7l1,0.7l1.9-0.3l1.9-0.3l0.9-1l0.9-1l-1-0.7l-1-0.7L530.8,297.5
			L530.8,297.5z M537.5,294.2l-1.9,0.3l-0.9,1l-0.9,1l1,0.7l1,0.7l1.9-0.3l1.9-0.3l0.9-1l0.9-1l-1-0.7l-1-0.7L537.5,294.2
			L537.5,294.2z M541.4,292l-0.9,1l1,0.7l1,0.7l1.9-0.3l1.9-0.3l0.9-1l0.9-1l-1-0.7l-1-0.7l-1.9,0.3l-1.9,0.3L541.4,292L541.4,292z
			 M525.2,283.7l0.9-1l-1-0.7l-1-0.7l-1.9,0.3l-1.9,0.3l-0.9,1l-0.9,1l1,0.7l1,0.7l1.9-0.3l1.9-0.3L525.2,283.7L525.2,283.7z
			 M548.5,282.9l-0.9,1l-0.9,1l1,0.7l1,0.7l1.9-0.3l1.9-0.3l0.9-1l0.9-1l-1-0.7l-1-0.7l-1.9,0.3L548.5,282.9L548.5,282.9z
			 M548.1,288.7l-0.9,1l1,0.7l1,0.7l1.9-0.3l1.9-0.3l0.9-1l0.9-1l-1-0.7l-1-0.7l-1.9,0.3l-1.9,0.3L548.1,288.7L548.1,288.7z
			 M555,285.3l-0.9,1l1,0.7l1,0.7l1.9-0.3l1.9-0.3l0.9-1l0.9-1l-1-0.7l-1-0.7l-1.9,0.3l-1.9,0.3L555,285.3L555,285.3z"/>
		<path fill-rule="evenodd" clip-rule="evenodd" d="M538.7,234.9c0,0-55.4-26.4-86.7-38.9l2-0.6c31,12.2,88.2,39.5,88.2,39.5H538.7z
			 M533,234.9c24.2,0.9,55.1-2.8,55.8-3.1c0.7-0.4-0.1-5.6,0.8-6.4c1-0.9,9.3-4.1,11.7-4.5c2.4-0.4,9.4,2.7,9.4,2.7s5.8-3.4,9.3-9.6
			c2.3-4.1,3.4-7.8,3.8-9.9l0,0l-0.3-0.3l-20.6-27l14.1,12.5l10.1,12.3l3.4,9.2l-6.2-6.3c-0.5,2.1-1.6,6.5-3.7,10.8
			c-2.9,5.9-9.6,9.4-9.6,9.4s-6.8-2.9-9.2-2.6c-2.4,0.4-10.8,3.6-11.7,4.5c-1,0.9-0.1,6.1-0.8,6.4c-0.7,0.4-29.8,4.1-53.8,3.4
			c0.2-0.5,0.3-0.9,0.3-0.9C534.8,235.3,533.9,235.1,533,234.9L533,234.9L533,234.9z"/>
		<path fill-rule="evenodd" clip-rule="evenodd" d="M457.9,198.4c-4-1.6-7.7-3.1-11-4.4c-29.9-11.4-76.5-23.2-76.5-23.2h2.2
			c7,1.8,50.3,12.8,77.7,23.2c3.4,1.3,7.1,2.8,11.1,4.4L457.9,198.4L457.9,198.4z"/>
		<path fill-rule="evenodd" clip-rule="evenodd" d="M535.7,235.5c0,0-3,8.7-4.6,10.9c-1.6,2.2-0.8,2.8-10.4,2.2
			c-9.6-0.6-31.8-3-35.1-4.5s-41.8-25.3-43.3-26.9s-1.6-2.5-1.6-2.5S476.1,221.3,535.7,235.5L535.7,235.5L535.7,235.5z"/>
		<path fill-rule="evenodd" clip-rule="evenodd" fill="#232329" d="M527.5,238.3c0,0-1.9,5.6-3,7s-0.5,1.8-6.7,1.4
			c-4.3-0.3-23.7-2.6-35.3-4.3c-9.1-5.3-34.7-21.2-39.5-24.6C461.1,222.3,499.3,231.6,527.5,238.3L527.5,238.3L527.5,238.3z"/>
		<path fill-rule="evenodd" clip-rule="evenodd" fill="#D1CFCC" d="M483.9,230.1l2.5,8.1l1.3,2.4l-35.5-19.6l-4.8-1.7l39.1,23.8
			l18,2.2l-14-5.4l-2.4-7L483.9,230.1L483.9,230.1L483.9,230.1z M510.1,231.3l4.5,10.9l7.7,4.4l5.9,0.3l0.8-1.5l-4.8-0.2l-5.3-2.4
			l-5.3-10.8L510.1,231.3L510.1,231.3L510.1,231.3z M478.4,224.8c0,0,12.7,8.2,18.1,12.2c5.5,4,16.5,9.3,16.5,9.3l8.5,0.6
			c0,0-7.9-4.2-15.9-8.6c-8-4.4-18.6-11.7-18.6-11.7L478.4,224.8L478.4,224.8L478.4,224.8z"/>
		<path fill-rule="evenodd" clip-rule="evenodd" fill="#BBB7B4" d="M516.9,238.6l-4.2-0.9l1.9,4.5l7.7,4.4l5.9,0.3l0.8-1.5l-4.8-0.2
			l-5.3-2.4L516.9,238.6L516.9,238.6L516.9,238.6z M500.1,235.2l-8.8-1.8c2,1.4,3.8,2.6,5.2,3.6c5.5,4,16.5,9.3,16.5,9.3l8.5,0.6
			c0,0-7.9-4.2-15.9-8.6C503.8,237.4,502,236.3,500.1,235.2L500.1,235.2L500.1,235.2z M487.8,232.7l-3.4-0.7l1.9,6.2l1.3,2.4
			l-22.6-12.5l-4.9-1l26.3,16l18,2.2l-14-5.4l-2.4-7L487.8,232.7L487.8,232.7L487.8,232.7z"/>
		<path fill-rule="evenodd" clip-rule="evenodd" fill="#F0ECEA" d="M484.9,230.8l2.1,6.7l1.3,2.4l-1.4-0.8l0.8,1.5l-35.5-19.6
			l-0.7-0.3l35.6,21.7l14.5,1.8l-11.1-4.3l-2.4-7L484.9,230.8L484.9,230.8L484.9,230.8z M514.6,242.2L514.6,242.2l7,4l0.5,0
			C522,246.2,518.9,244.6,514.6,242.2L514.6,242.2L514.6,242.2z M528.6,246.2l0.4-0.8l-4.8-0.2l-5.3-2.4l-5.3-10.8l-2.7-0.5
			l4.2,10.1l7.7,4.4L528.6,246.2L528.6,246.2L528.6,246.2z M519.8,246.1c-2.7-1.5-8.5-4.6-14.3-7.7c-8-4.4-18.6-11.7-18.6-11.7
			l-6.1-1.3c3.7,2.4,12.1,7.9,16.3,11c5.5,4,16.5,9.3,16.5,9.3L519.8,246.1L519.8,246.1L519.8,246.1z"/>
		<path fill-rule="evenodd" clip-rule="evenodd" fill="#FFFCF8" d="M484.9,230.8l0.5,1.5l2.7,0.5L484.9,230.8L484.9,230.8
			L484.9,230.8z M465.6,228.3l-13.4-7.4l-0.7-0.3l11.8,7.2L465.6,228.3L465.6,228.3z M516.9,238.6l-3.2-0.6l-2.7-6.4l2.7,0.5
			L516.9,238.6L516.9,238.6L516.9,238.6z M500.3,235.3l-6.5-1.3c-4.4-3-10-6.8-13-8.6l6.1,1.3C486.9,226.6,493.5,231.2,500.3,235.3
			L500.3,235.3L500.3,235.3z"/>
		<polygon fill-rule="evenodd" clip-rule="evenodd" fill="#FFFCF8" points="615.8,189.2 622.7,200.7 626.2,204.7 626.1,204.6 
			627,205.7 627.4,205.9 627.7,206.1 625.6,201 620.6,194.1 624.9,201.1 626.1,204.6 615.8,189.2 		"/>
		<path fill-rule="evenodd" clip-rule="evenodd" d="M600.8,234.5c0,0,9.7,13,22.8,19.4c0,0,0.5-6.1-3.6-13c-4-7-8.5-11-8.5-11
			S605.1,227.8,600.8,234.5L600.8,234.5z"/>
		<path fill-rule="evenodd" clip-rule="evenodd" fill="#E07000" d="M329.2,197.1l16.9-28.3l-30.2,6.8l-2.7,11.6l11.9,10.7
			C325.1,198,326.6,197.6,329.2,197.1L329.2,197.1L329.2,197.1z"/>
		<path fill-rule="evenodd" clip-rule="evenodd" fill="#A32F00" d="M408,314.6c0,0,1.4-25.2-2.3-52.6c-4.1-29.9-29.9-63.6-57.5-65.3
			c-27.6-1.7-38,30.5-36.5,50.8c1.5,20.3,6,38,6,38l-4.1-6.3l-1.5-0.7c0,0-13.4-53.7,7.7-75.9c21-22.3,53.2-10.4,76,22.5
			C418.6,258.1,408,314.6,408,314.6L408,314.6L408,314.6z"/>
		<polygon fill-rule="evenodd" clip-rule="evenodd" fill="#5B1E00" points="374.8,208.1 379.3,206.4 441.1,215.8 441.3,214.8 
			378.3,205.5 373.8,207.3 374.8,208.1 		"/>
		<path fill-rule="evenodd" clip-rule="evenodd" fill="#4B4E56" d="M409,249.8l-8.1-5.6l-0.6-1.5l28.6,8.9c0,0-1.6,2.7-2.7,3.2
			c-1.1,0.5-22.6-3-22.6-3L409,249.8L409,249.8L409,249.8z"/>
		<path fill-rule="evenodd" clip-rule="evenodd" fill="#F1B706" d="M427.9,252.5c0,0-1.1,1.7-2.1,1.9c-1,0.2-22.3-2.7-22.3-2.7
			l-2.6-7.6L427.9,252.5L427.9,252.5L427.9,252.5z"/>
		<path fill-rule="evenodd" clip-rule="evenodd" fill="#D64B00" d="M316.3,279.1l-116.5-53.9l-29.1-4.6l1,5.4l27.6,14.3l110.4,42.4
			C309.6,282.7,316.1,285,316.3,279.1L316.3,279.1L316.3,279.1z"/>
		<path fill-rule="evenodd" clip-rule="evenodd" fill="#D15000" d="M165,228.2c-0.7,1.8,118.6,39.9,118.6,39.9l-92.8-42
			C190.8,226.2,165.2,217.2,165,228.2L165,228.2L165,228.2z"/>
		<polygon fill-rule="evenodd" clip-rule="evenodd" fill="#B23904" points="166.7,214.3 155.3,211 156.3,229.1 317.8,285.6 
			315.7,282.5 205.1,241.4 181.1,227.1 166.7,214.3 		"/>
		<polygon fill-rule="evenodd" clip-rule="evenodd" fill="#D64B00" points="155.9,211.1 157.6,227.6 317.8,285.6 156.3,229.1 
			155.3,211 155.9,211.1 		"/>
		<polygon fill-rule="evenodd" clip-rule="evenodd" fill="#D64B00" points="192,213.5 194.6,209.9 203,209.9 189.7,206.1 155.3,211 
			194.5,235.5 176.1,220.6 192,213.5 		"/>
		<path fill-rule="evenodd" clip-rule="evenodd" fill="#D15000" d="M191.5,206.7c-7.1,2.9-21.3,8.6-22.4,9.3
			c-0.7,0.4-1.3,1.4-1.4,2.8l26.8,16.8l-18.4-14.9l15.9-7.1l2.7-3.6h8.4L191.5,206.7L191.5,206.7L191.5,206.7z"/>
		<path fill-rule="evenodd" clip-rule="evenodd" d="M194.6,209.9l6.1,14.3l-1.8,2.1h-16.2l-8.7-5.9c0,0-0.6-0.9,0.7-1.7
			C176,217.8,194.6,209.9,194.6,209.9L194.6,209.9L194.6,209.9z"/>
		<path fill-rule="evenodd" clip-rule="evenodd" d="M195.9,161.9l15.6,8.2C211.5,170.2,205.6,162.4,195.9,161.9L195.9,161.9z
			 M194.2,168c0,0,13.8,6.5,14.4,6.7C209.2,174.8,199.1,174.8,194.2,168L194.2,168z"/>
		<path fill-rule="evenodd" clip-rule="evenodd" fill="#F1B706" d="M211.2,172l-17.4-7.5c0.1-1.4,0.6-2.6,2-2.6l15.6,8.2
			C211.5,170.2,211.5,171,211.2,172L211.2,172L211.2,172z"/>
		<path fill-rule="evenodd" clip-rule="evenodd" fill="#A32F00" d="M111,191.9c0,0-1.4-20,0.5-29.8c1.9-9.8,10.2-15.7,19-9.3
			c8.8,6.4,19.9,25,24.8,58.2c0,0-3.4-30.7-13.5-49.8C131.6,142,104.3,131.4,111,191.9L111,191.9L111,191.9z"/>
		<path fill-rule="evenodd" clip-rule="evenodd" fill="#D64B00" d="M154.5,205c-1.5-9.9-5.3-30-12.7-43.9c-0.1-0.2-0.2-0.4-0.3-0.5
			c15.7,15.2,38.3,40.4,38.3,40.4L154.5,205L154.5,205L154.5,205z"/>
		<path fill-rule="evenodd" clip-rule="evenodd" fill="#D15000" d="M199.9,127.3c-1.8,0.2-1.8,1.9-2.4,2c-1.7,0.3-16.1,4.8-24.9,7.5
			c2.6,2.9,8.9,8.8,14.9,13.3c9.2-2.2,20.5-7.4,28.6-10.1c-4.1-2.7-10.4-7.1-14.7-11.2L199.9,127.3L199.9,127.3z"/>
		<path fill-rule="evenodd" clip-rule="evenodd" fill="#A32F00" d="M199.1,127.9c-1.8,0.2-1,1.3-1.6,1.4c-1.7,0.3-16.1,4.8-24.9,7.5
			c-2.2-2.4-3.2-3.8-3.2-3.8l28.6-8c0.9,1.2,0.6,0.9,2,2.2L199.1,127.9L199.1,127.9z"/>
		<path d="M305.5,282.7l-0.1-1.1c-0.2-3.6-5.8-87.6,9.1-107l0.4-0.5l37.5-8.5l0.3,0.1c0.4,0.1,36.7,5.3,97.5,1.3
			c25-1.6,68.5-6.2,78.8-18.7c1.5-1.8,2.1-3.6,1.9-5.6l-0.3-2.7l2.6,0.9c1.9,0.6,47.5,15.6,70.9,34.5c23.3,18.8,45.2,43.7,45.4,43.9
			l0.4,0.5l1.1,25.9L640.5,261l-45.1,18.7l-79.6-1h-0.2l-115.2-32.8l-0.7-0.2l-0.4-0.6c-0.2-0.4-20.5-36.6-39.8-43.5
			c-8.6-3.1-16.8-2.9-23.8,0.5c-7.9,3.8-13.9,11.6-17.5,22.4c-7.4,22.4,0,59.7,0,60.1l0.6,3L305.5,282.7L305.5,282.7z M360.8,198.3
			c8.7,3.1,18.3,11.7,28.7,25.4c6.5,8.6,11.3,16.7,12.6,19l114.1,32.4l78.6,1l43.5-18.1l9.2-13.4l-1-23.5
			c-3.1-3.5-23.2-25.8-44.6-43c-20-16.1-58-29.9-67.6-33.2c-0.3,1.9-1.2,3.8-2.6,5.6c-8.3,10.1-36.4,17-81.2,19.9
			c-58.1,3.8-94.1-0.8-97.9-1.3l-35.6,8.1c-12.8,18.1-8.7,92.9-8.1,103l5.6,2c-0.6-3.8-1.7-10.8-2.4-19c-1.3-16.6-0.3-30,3-39.8
			c3.9-11.7,10.6-20.2,19.3-24.4c4.2-2,8.7-3.1,13.5-3.1C352,195.9,356.4,196.7,360.8,198.3L360.8,198.3z"/>
		<path d="M316,286.6l1.1-3.3l-157.9-55.1l-0.9-17.1c-3.2-22.1-11.6-49.3-25.5-59.3c-5-3.6-10.3-4-14.8-1l-0.2,0.2
			c-1.3,1.1-2.4,2.2-3.2,3.2l-0.1,0.2c-0.5,0.7-1,1.4-1.4,2.2c0.4-2.6,1-5.3,1.7-8.4c2.7-11.3,4.6-13.7,4.6-13.8l0.4-0.4l0-0.5
			c0.1-0.3,0-0.6,0-0.8c0,0,0-0.1,0-0.1c1.4-1.3,12-4.4,15.5-5.5c17.4-5.1,59.8-1.3,64.3-0.9l42.4,26l-0.2,0.4l1.8,0.6
			c15,5.5,37.2,13.6,57.9,20.6c1.1,0.4,2.2,0.8,3.4,1.1l0.1,0c1.1,0.4,2.2,0.7,3.2,1.1l3.5,1.2l0.6-1.6l0.5-1.7l-3.5-1.2
			c-1.1-0.4-2.1-0.7-3.2-1.1l-0.1,0c-1.1-0.4-2.2-0.8-3.3-1.1c-20.2-6.9-42-14.7-56.9-20.2L201,122.6l-0.4,0
			c-1.9-0.2-47.1-4.6-66.1,1c-16.4,4.8-18.1,6-18,8.9c-0.9,1.3-2.7,5-5,14.7c-3,12.8-3.4,20-3.2,31.4c0.2,11.5,2.3,14.3,2.9,14.9
			l3.1,2.9l-0.2-4.3c0,0-0.2-4.5-0.4-9.1c-0.2-6.3-0.2-14.9,0.9-20.2c0.5-2.5,1.4-4.7,2.7-6.5c0.8-0.8,1.8-1.8,2.9-2.8
			c3.2-2,7-1.7,10.7,1c8.5,6.2,19.3,24.4,24.1,56.9l1,19.2L316,286.6L316,286.6z"/>
		<polygon points="407,172.5 421.3,152.9 397,143.5 395.4,147.5 414.5,154.9 403.5,169.9 		"/>
		<path d="M492.6,331.3l0.2,0l79.8-7.3l26.8-38.1l-9.5-2.8l-38.2,30l-63.4,2.1l-14.5-11.2l40.2-26.9l-1.9-2.9l-44.2,29.6l19.4,14.9
			l65.8-2.2l37.7-29.6l3.1,0.9l-23.1,32.9l-78,7.1l-82.9-14.6c0.1-3.7,0.5-13.8,0.1-26.8c-0.4-16.7-7.1-41.6-7.4-42.6l-3.4,0.9
			c0.1,0.2,6.9,25.6,7.3,41.8c0.4,16.4-0.2,28-0.2,28.1l-0.1,1.5L492.6,331.3L492.6,331.3z"/>
		<polygon points="614.7,277.1 660.7,275.5 647.5,250.9 644.4,252.5 655,272.3 614.6,273.7 		"/>
		<g opacity="0.32">
			<path fill="#303742" d="M335.5,134.6c-1.6-7.9-6.4-40.8-6.4-40.8c0-2.6,2.1-3,2.1-3s98.3-3.1,113.3-5.6
				c15.7-2.6,44.8-9.5,48-10.4c3.2-0.9,4.4,1.4,4.4,1.4c2.4,2.9,18.1,29.7,22.3,37.5c8.6,16,13.6,29.6,10.3,35.3
				c-2.8,4.9-18.4,7.9-38.3,12.4c-20.4,4.6-129.9,14.5-140.9,8.2C340.1,163.8,337.9,145.9,335.5,134.6L335.5,134.6z"/>
		</g>
		<path fill="#202129" d="M494.1,69.1c-6,1.4-28.4,6-43.1,9.3c-17.3,3.8-109.8,8.6-119.4,10.1c-2.4,0.4-1.9,2.9-1.9,2.9
			c2.5,11.7,6.2,31.7,8,41.9c2.1,12.1,4.9,30.9,15.7,37.1c11.7,6.7,118.1-1.7,139.7-6.6c21.1-4.8,37.6-8,40.6-13.2
			c3.5-6-4.7-25.3-13.8-42.2c-1.4-2.5-2.8-4.9-3.9-6.8c-4.5-7.7-13.5-22.5-19.1-31.2C496.8,70.4,495.9,68.7,494.1,69.1L494.1,69.1z
			 M491.1,161.5c-20.4,4.6-124.2,12.6-135.2,6.3c-10.2-5.9-12.4-23.7-14.8-35c-1.6-7.9-6.4-36.4-6.4-36.4c0-2.6,2.1-3,2.1-3
			s92.6-5.6,107.6-8c15.7-2.6,44.8-9.5,48-10.4c3.2-0.9,4.4,1.4,4.4,1.4c2.4,2.9,18.1,29.7,22.3,37.5c8.6,16,13.6,29.6,10.3,35.3
			C526.7,153.9,511.1,156.9,491.1,161.5L491.1,161.5z"/>
		<g opacity="0.2">
			<path fill="#FFFFFF" d="M444.5,85.3c15.7-2.6,44.8-9.5,48-10.4c3.2-0.9,4.4,1.4,4.4,1.4c2.4,2.9,18.1,29.7,22.3,37.5
				c8.6,16,13.6,29.6,10.3,35.3c-1.6,2.8-7.3,4.9-15.5,7.1c-9.8-16-32.4-44.6-78.1-69.5C439.1,86.1,442,85.7,444.5,85.3L444.5,85.3z
				"/>
		</g>
		<path d="M316.8,174.6c0,0,18.4-1.3,18.8,12.6s-12.4,15.4-12.4,15.4s-4.8-0.9-12.5-10.9c-9.9-13-5.9-16.3-3.1-18.5"/>
		<polygon points="309.8,181.4 310,177 276.3,175.7 289.3,146.6 285.3,144.9 269.7,179.8 		"/>
		<path fill-rule="evenodd" clip-rule="evenodd" fill="#E25A00" d="M248.1,167.1l-1.7-2.4l-2.3-2.8c0,0,4.1-6.9,5.4-8
			c1.3-1.1,28.8-2.2,28.8-2.2s10.2,2.8,15.9,7.1s4.4,8.2,4.4,8.2l-3.6,1.5l-41.9,1.1L248.1,167.1L248.1,167.1L248.1,167.1z"/>
		<path fill-rule="evenodd" clip-rule="evenodd" fill="#BF2C00" d="M265.7,169.6l-6.3-2.8c0,0-5.3-1.6-9.6-2.7
			c-4.2-1.1-5.7-2.3-5.7-2.3s2.7,8.2,8.1,11.1L265.7,169.6L265.7,169.6z"/>
		<polygon fill-rule="evenodd" clip-rule="evenodd" fill="#993300" points="293.1,170.4 295.3,171.1 293.9,181.1 285.3,186.9 
			281.3,185.4 285.4,175.1 293.1,170.4 		"/>
		<polygon fill-rule="evenodd" clip-rule="evenodd" fill="#B74600" points="282.5,170.1 282.6,172.9 277.3,183 281.3,185.4 
			290,171.8 282.5,170.1 		"/>
		<path d="M281,186.2l-4.9-2.9l5.6-10.6l-0.2-3.8l7.2,1.6l-0.8-2.8l5.5,1.8l2.9,0.9l-1.6,11.1l-9.3,6.3L281,186.2L281,186.2z
			 M294.3,171.7l-3.8-1.3l0.7,2.5l-7.8-1.8l0.1,2l-5.1,9.6l3.2,1.9l3.5,1.3l7.9-5.3L294.3,171.7L294.3,171.7z"/>
		<path fill-rule="evenodd" clip-rule="evenodd" fill="#D15000" d="M298.6,166.9c0,0-2.8,4.2-4.4,5.1c-1.6,0.9-37,2.1-39.3,1.7
			c-2.3-0.4-2.7-0.7-2.7-0.7s2.2-0.4,4.6-3c2.4-2.7,2.5-3.1,2.5-3.1S292.3,167.2,298.6,166.9L298.6,166.9L298.6,166.9z"/>
		<path d="M254.8,174.5c-1.5-0.2-2.5-0.5-3-0.9c-5.6-3.1-8.4-11.2-8.5-11.6l-0.1-0.4l0.2-0.3c0.4-0.7,4.2-7.1,5.6-8.2
			c1.4-1.1,19-2,29.3-2.4h0.1l0.1,0c0.4,0.1,10.4,2.9,16.2,7.2c6.2,4.6,4.7,9,4.7,9.2l-0.1,0.2c-0.3,0.4-3,4.4-4.7,5.4
			c-0.9,0.5-7.5,0.9-19.8,1.4c-6.6,0.3-13.8,0.5-17.6,0.5C256,174.6,255.1,174.6,254.8,174.5L254.8,174.5z M293.7,159.4
			c-5.2-3.8-14.3-6.6-15.5-6.9c-10.1,0.4-26.5,1.3-28.2,2c-0.9,0.8-3.4,4.8-4.9,7.4c0.6,1.6,3.1,7.9,7.6,10.3l-0.2,0.3l0,0.1
			l0.2-0.4c0,0,0.5,0.3,2.3,0.6c2.9,0.5,37-1,38.8-1.6c1-0.5,2.9-3.1,4-4.7C297.9,166,298.4,162.9,293.7,159.4L293.7,159.4z
			 M250.1,154.5L250.1,154.5L250.1,154.5L250.1,154.5z"/>
		<polygon fill="#000104" points="199.1,127.9 175.9,134.7 179.7,138 194.3,133.7 		"/>
		<polygon fill="#E25A00" points="197.9,125.1 169.3,133.1 135,130.9 160.6,123.9 		"/>
		<path fill="#FFFFFF" d="M372.4,266.3c0,10.2-4.8,22.5-16.6,21.8c-11.7-0.7-17.6-15.5-16.9-28.4c0.5-9.7,4.2-20.3,15.7-19.7
			C366.5,240.6,372.4,255.3,372.4,266.3L372.4,266.3z"/>
		<path fill="#FFFFFF" d="M142.4,192.6c0,5.7-2.7,12.6-9.3,12.3c-6.6-0.4-9.9-8.7-9.5-16c0.3-5.5,2.4-11.4,8.8-11.1
			C139.1,178.2,142.4,186.4,142.4,192.6L142.4,192.6z"/>
		<path fill="#FF2D20" d="M132.6,199.4L132.6,199.4l-6.3-2.8c-0.1,0-0.2-0.1-0.2-0.3l-1.1-10l0-0.1l0-0.1l0-0.1l0.1-0.1l2.7-2
			c0,0,0.1-0.1,0.2-0.1c0,0,0.1,0,0.1,0l3.1,1.4l0.1,0l0.1,0.1l0,0.1c0,0,0,0.1,0,0.1l0.6,6.1l2.2-1.6l-0.3-3.2l0-0.1l0-0.1l0-0.1
			l0.1-0.1l2.8-2c0,0,0.1-0.1,0.2-0.1c0,0,0.1,0,0.1,0l3.1,1.4l0.1,0l0.1,0.1l0,0.1c0,0,0,0.1,0,0.1l0.3,3.3c0,0.1,0,0.2-0.1,0.3
			l-2.6,1.9l0.3,3.2c0,0.1,0,0.2-0.1,0.3l-5.5,4l-0.1,0C132.7,199.4,132.7,199.4,132.6,199.4L132.6,199.4z M132.3,198.6L132,196
			l-2.9-1.3l-0.1,0l-0.1-0.1l0-0.1l0-0.1l-0.7-6.5l-2.4-1.1l1,9.3L132.3,198.6z M132.9,198.5l4.9-3.6l-0.3-2.6l-4.9,3.5L132.9,198.5
			z M132.3,195.4l3.3-2.4l1.6-1.1l-2.4-1.1l-4.9,3.5L132.3,195.4z M129.5,193.8l2.2-1.6l-0.6-6l-2.2,1.6L129.5,193.8z M137.4,191.3
			l-0.3-2.6l-2.4-1.1l0.3,2.6L137.4,191.3z M138.1,191.2l2.2-1.6l-0.3-2.6l-2.2,1.6L138.1,191.2z M137.5,188.1l2.1-1.6l-2.4-1.1
			L135,187L137.5,188.1z M128.5,187.4l2.1-1.6l-2.4-1.1l-2.2,1.6L128.5,187.4z"/>
		<g opacity="0.6">
			<path fill="#D8D8D8" d="M62.5,81.7c58.8,28.6,119.9,52.2,177,84.2c0.9,0.5,1.2,2.5-0.2,1.7c-57.9-30.7-118.4-55.3-177-84.6
				C61.6,82.7,61.3,81.1,62.5,81.7L62.5,81.7z"/>
			<path fill="#D8D8D8" d="M81.8,100.9c9.9,5.1,20.9,8.6,31.3,12.9c11.3,4.8,73.9,34.2,93.3,45.1c0.9,0.5,1.2,2.5-0.2,1.7
				c-21.5-11.5-85.6-42.3-96-46.8c-9.4-4.1-19.4-7.2-28.5-12C81.2,101.6,81,100.5,81.8,100.9L81.8,100.9z"/>
			<path fill="#D8D8D8" d="M52.1,150.4c31.9,14.2,63.1,29.1,94.5,44.4c0.8,0.4,1.4,2.6,0,2c-14.6-6.3-28.4-13.9-42.6-21
				c-17-8.6-34.6-15.8-51.7-24C51.8,151.5,51.2,150,52.1,150.4z"/>
			<path fill="#D8D8D8" d="M96.6,178.7c13.1,7.2,27.1,12.5,40.3,19.6c0.5,0.3,0.9,1.7,0,1.3c-13.5-6.2-27.5-12.2-40.4-19.4
				C95.6,179.7,95.4,178.1,96.6,178.7z"/>
		</g>
		<path fill="#FF2D20" d="M354.9,278.5l-0.1,0l-11-4.9c-0.2-0.1-0.3-0.3-0.3-0.5l-1.9-17.9l0-0.1l0-0.1l0.1-0.1l0.1-0.1l4.9-3.5
			c0.1-0.1,0.2-0.1,0.3-0.1c0.1,0,0.2,0,0.3,0l5.5,2.5l0.1,0.1l0.1,0.1l0.1,0.1c0,0,0,0.1,0,0.1l1.1,10.9l3.8-2.8l-0.6-5.6l0-0.1
			l0-0.1l0.1-0.1l0.1-0.1l4.9-3.5c0.1-0.1,0.2-0.1,0.3-0.1c0.1,0,0.2,0,0.3,0l5.5,2.5l0.1,0.1l0.1,0.1l0.1,0.1c0,0.1,0,0.1,0,0.2
			l0.6,5.9c0,0.2-0.1,0.4-0.2,0.5l-4.6,3.4l0.6,5.6c0,0.2-0.1,0.4-0.2,0.5l-9.8,7.1l-0.1,0.1c0,0-0.1,0-0.2,0L354.9,278.5z
			 M354.4,277l-0.5-4.7l-5.2-2.3l-0.1-0.1l-0.1-0.1l-0.1-0.1l0-0.1l-1.2-11.6l-4.3-1.9l1.7,16.5L354.4,277z M355.5,276.9l8.7-6.3
			l-0.5-4.7l-8.7,6.3L355.5,276.9z M354.4,271.3l5.9-4.3l2.8-2l-4.3-1.9l-8.7,6.3L354.4,271.3z M349.3,268.5l3.8-2.8l-1.1-10.6
			l-3.8,2.8L349.3,268.5z M363.5,264l-0.5-4.7l-4.3-1.9l0.5,4.7L363.5,264z M364.6,263.9l3.8-2.8l-0.5-4.7l-3.8,2.8L364.6,263.9z
			 M363.6,258.4l3.8-2.8l-4.3-1.9l-3.8,2.8L363.6,258.4z M347.6,257l3.8-2.8l-4.3-1.9l-3.8,2.8L347.6,257z"/>
	</g>
</g>
</svg>
