<?xml version="1.0" encoding="UTF-8"?><svg xmlns="http://www.w3.org/2000/svg" viewBox="0 0 660.7 334.84"><g isolation="isolate"><g id="Calque_1"><path d="m.04,79.62c-.97,14.94,16.98,27.19,29.76,25.11-.56,1.85-.87,3.74-.83,5.52.19,7.51,3.44,13.28,9.19,17.99,4.16,3.41,9.63,6.36,15.21,7.7-1.07,3.19-1.54,6.66-1.2,10.32,1.22,13.01,8.88,24.4,18.19,33.21,9.65,9.13,21.92,17.76,35.58,18.93,6.24.54,13.4.06,19.08-2.98,2.46,2.74,5.98,4.47,9.64,4.67,2.51.15,4.6-1.13,6.22-2.94,1.95,2.98,4.65,5.52,7.53,7.38,6.22,4,16.33,3.96,22.09-.22.2.87.43,1.69.7,2.39,2.96,7.49,8.73,14.42,16.45,17.32,6.37,2.41,18.88,3.83,23.54-2.86.28-.41.52-.86.73-1.32,2.93.62,5.86.43,8.21-1.08,7.05-4.54,7.79-16.91,4.77-24.1-3.5-8.33-10.87-15.7-19.91-17.98-4.78-1.2-8.23-.57-10.99,1.39-.87-3.73-2.23-7.29-3.88-10.03-3.88-6.45-10.18-11.12-17.35-13.22-1.49-.43-2.87-.61-4.16-.59-.1-.52-.24-1.03-.44-1.54-1.05-2.63-2.73-5.12-4.99-6.89,6.38-1.88,12.18-5.77,15.89-11.43,18.75-28.58-15.88-56.14-40.87-62.28-8.74-2.15-20.58-1.73-27.64,4.49-3.08-7.43-10.65-13.65-18.52-12.27.7-9.64-9.38-19.84-17.16-23.14-7.38-3.15-15.61-3-21.65.82-1.62-1-3.32-1.75-4.76-2.14-5.64-1.53-12.54-.78-15.63,4.93-1.26,2.32-2.05,5.12-2.14,7.93-2.6-.34-5.01-.42-6.88-.3-6.2.4-11.85,1.85-15.89,6.93C3.29,65.18.52,72.17.04,79.62Z" fill="#b2b2b2" opacity=".5" stroke-width="0"/><path d="m7.93,59.33c4.04-5.08,9.69-6.53,15.89-6.93,1.87-.12,4.28-.04,6.88.3.1-2.8.88-5.61,2.14-7.93,3.09-5.71,9.99-6.46,15.63-4.93,1.44.39,3.14,1.13,4.76,2.14,6.04-3.82,14.26-3.96,21.65-.82,7.79,3.3,17.86,13.5,17.16,23.14,7.86-1.38,15.43,4.85,18.52,12.27,7.06-6.22,18.91-6.64,27.64-4.49,24.99,6.14,59.62,33.69,40.87,62.28-3.71,5.66-9.51,9.55-15.89,11.43,2.26,1.77,3.94,4.26,4.99,6.89.21.51.34,1.02.44,1.54,1.29-.02,2.67.15,4.16.59,7.18,2.1,13.48,6.76,17.35,13.22,1.65,2.74,3.01,6.3,3.88,10.03,2.76-1.96,6.2-2.59,10.99-1.39,5.1,1.29,9.64,4.23,13.28,8.01-8.1-5-19.17-5.84-24.12,2.48-3.48-14.01-14.75-24.67-27.87-28.07-1.94-6.21-6.9-12.38-12.8-16.15,7.68-1.22,14.74-4.74,18.36-12.34,5.16-10.78,4.11-24.3-2.95-34.08-10.75-14.89-40.79-27.59-55.65-12.88-1.42-2.46-3-4.68-4.38-6.38-3.01-3.71-6.99-7.94-12.03-8.6-2.06-.27-3.87,0-5.52.61-1.68-7.32-5.86-14.33-10.95-18.88-5.35-4.77-11.74-7.05-18.92-6.64-2.64.15-4.68.92-6.39,2.09-6.08-2.77-13.71-2.55-16.66,3.35-2.16,4.33-2.63,8.81-1.86,13.03-1.58-.37-3.18-.61-4.81-.64-10.66-.17-22.22,5.76-23.08,17.58-.89,12.14,8.76,20.6,20.14,22.42,2.28.37,4.72.63,7.18.7-.99,5.28-.69,10.66,2.44,15.39,4.67,7.05,11.29,12.87,18.91,16.55,7.47,3.6,15.61,3.29,23.61,2.36,1.26-.15,2.57-.34,3.86-.62-3.96,3.21-9.85,4.37-14.72,4.82-2.73.25-5.83-.23-6.94,2.91-3.78,10.69,1.33,22.2,9.31,29.5,9.66,8.84,21.26,14.03,34.3,15.25,5.95.56,12.57,1.72,18.26-.74.99-.43,1.88-.95,2.78-1.47,1.65,2.72,4.25,4.69,8.38,5.12,4.16.44,8.73-.56,11.83-3.1,1.09,5.35,3.68,10.23,8.71,12.8,5.36,2.74,12.21,1.67,17.49-1.47.45,4.94,1.32,9.36,5.35,13.93,3.94,4.47,8.66,8.12,13.9,10.94.84.45,1.74.91,2.66,1.38-3.17-.29-6.2-1.01-8.45-1.86-7.72-2.9-13.49-9.83-16.45-17.32-.27-.7-.5-1.52-.7-2.39-5.77,4.18-15.87,4.22-22.09.22-2.88-1.85-5.58-4.4-7.53-7.38-1.62,1.8-3.71,3.08-6.22,2.94-3.66-.2-7.18-1.93-9.64-4.67-5.68,3.04-12.83,3.52-19.08,2.98-13.66-1.17-25.93-9.8-35.58-18.93-9.31-8.81-16.98-20.2-18.19-33.21-.35-3.66.12-7.13,1.2-10.32-5.58-1.34-11.05-4.28-15.21-7.7-5.75-4.71-9-10.48-9.19-17.99-.04-1.78.27-3.66.83-5.52C17.02,106.82-.94,94.56.04,79.62c.49-7.45,3.25-14.44,7.9-20.29Z" fill="#b2b2b2" opacity=".5" stroke-width="0"/><path d="m142.51,179.8c7.09,8.51,16.95,14.3,27.67,17.04,6.63,1.69,12.29.71,17.65-1.63-3.77,7.63-2.79,18.49,1.05,25.37,2.18,3.89,6.76,7.54,11.41,7.49,3.98-.05,7.92-1.44,8.77-5.18,2.32,3.15,5.5,6.06,9.56,4.97,4.77-1.29,4.41-6.7,2.99-10.39,8.9,3.37,19.84,7.18,27.98.13,6.26-5.43,9.33-14.1,8.23-22.31-1.43-10.61-5.9-21.85-13.63-29.48-4-3.94-10.11-8.44-16.14-8.94,1.6-3.81-1.18-9.42-4.26-10.97,3.3-5.12,1.69-12.82-3.22-16.61-5.08-3.93-12.63-5.98-18.78-3.81-3.53-4.07-11.46-6.07-15.48-7.12-10.09-2.63-22.9-2.22-32.23,2.88-8.08,4.42-13.43,12.67-8.76,21.73,1.1,2.11,2.52,4.02,4.16,5.54-4.04,1.33-7.63,3.85-9.85,7.66-4.53,7.78-2.74,16.84,2.89,23.61Z" fill="#b2b2b2" opacity=".5" stroke-width="0"/><path d="m139.62,156.18c2.22-3.81,5.81-6.33,9.85-7.66-1.64-1.52-3.06-3.42-4.16-5.54-4.67-9.06.68-17.31,8.76-21.73,9.33-5.1,22.13-5.51,32.23-2.88,4.02,1.05,11.95,3.04,15.48,7.12,6.15-2.17,13.7-.12,18.78,3.81,4.91,3.79,6.53,11.49,3.22,16.61,3.08,1.55,5.86,7.16,4.26,10.97,6.03.5,12.14,5,16.14,8.94,7.73,7.63,12.2,18.88,13.63,29.48.53,3.99.07,8.09-1.26,11.87.44-2.74.5-5.48.31-7.75-.78-9.45-4.79-18.59-11.72-25.18-5.11-4.86-12.42-9.01-19.53-9.92.95-3.45.66-7.42-.83-10.19-1.36-2.54-3.73-4.56-6.46-5.77,3.26-5.08,1.89-13.19-3.35-17.16-4.14-3.14-10.31-3.5-14.63-.48-2.32-1.94-4.95-3.51-7.55-4.61-8.83-3.74-20.63-5.06-29.01.5-8.22,5.45-8.28,16.24-4,24.88-3.06.3-5.95,1.57-8.25,4.22-6.13,7.11-4.98,17.26,1.45,23.85,9.56,9.79,25.59,15.7,39.91,13.96-2.75,5.69-3.01,12.25,1.87,17.44,3.55,3.77,8.37,5.43,13.11,2.81.59-.32,1.12-.74,1.62-1.2.08.17.13.35.21.51,1.27,2.62,4.27,4.38,7.07,2.63,2.12-1.31,3.55-4.01,4.14-6.96,1.49,2.71,3.7,5.12,5.83,6.66,4.2,3.03,9.78,5.41,15.27,5.81-6.68,1.27-14.08-1.35-20.44-3.76,1.42,3.69,1.78,9.1-2.99,10.39-4.06,1.09-7.23-1.83-9.56-4.97-.85,3.74-4.79,5.13-8.77,5.18-4.65.06-9.23-3.6-11.41-7.49-3.84-6.88-4.83-17.74-1.05-25.37-5.37,2.34-11.02,3.31-17.65,1.63-10.72-2.73-20.58-8.53-27.67-17.04-5.64-6.78-7.43-15.84-2.89-23.61Z" fill="#b2b2b2" opacity=".5" stroke-width="0"/><path d="m90.23,184.1c5.44,5.48,12.98,9.22,21.19,10.99,5.07,1.09,9.4.47,13.5-1.02-2.88,4.9-2.11,11.89.84,16.32,1.67,2.5,5.18,4.86,8.73,4.83,3.04-.02,6.05-.91,6.7-3.31,1.78,2.02,4.21,3.9,7.32,3.21,3.64-.82,3.36-4.3,2.27-6.67,6.81,2.17,15.18,4.64,21.4.12,4.78-3.49,7.12-9.06,6.26-14.34-1.11-6.82-4.54-14.06-10.46-18.97-3.06-2.54-7.74-5.44-12.36-5.77,1.22-2.45-.92-6.06-3.28-7.06,2.52-3.29,1.28-8.24-2.48-10.69-3.89-2.53-9.67-3.86-14.36-2.47-2.71-2.63-8.77-3.92-11.85-4.6-7.73-1.7-17.52-1.46-24.64,1.81-6.18,2.84-10.26,8.13-6.67,13.96.84,1.37,1.93,2.59,3.19,3.57-3.08.85-5.83,2.46-7.52,4.91-3.46,5-2.07,10.82,2.24,15.19Z" fill="#b2b2b2" opacity=".5" stroke-width="0"/><path d="m87.99,168.91c1.69-2.45,4.44-4.06,7.52-4.91-1.26-.98-2.34-2.21-3.19-3.57-3.59-5.83.49-11.13,6.67-13.96,7.12-3.27,16.91-3.51,24.64-1.81,3.08.68,9.14,1.97,11.85,4.6,4.69-1.39,10.47-.06,14.36,2.47,3.76,2.45,5.01,7.4,2.48,10.69,2.36,1,4.49,4.61,3.28,7.06,4.61.33,9.29,3.23,12.36,5.77,5.92,4.92,9.36,12.16,10.46,18.97.41,2.57.06,5.21-.95,7.64.33-1.76.38-3.53.23-4.99-.61-6.07-3.69-11.95-9-16.2-3.91-3.14-9.51-5.81-14.94-6.4.72-2.22.5-4.78-.65-6.56-1.04-1.64-2.86-2.93-4.96-3.72,2.5-3.26,1.43-8.48-2.57-11.04-3.17-2.02-7.89-2.26-11.19-.32-1.78-1.24-3.79-2.26-5.78-2.97-6.76-2.42-15.79-3.28-22.18.28-6.27,3.5-6.31,10.44-3.02,16-2.34.19-4.56,1-6.31,2.71-4.68,4.56-3.78,11.08,1.15,15.34,7.32,6.31,19.59,10.13,30.53,9.03-2.09,3.65-2.28,7.87,1.46,11.22,2.71,2.43,6.4,3.5,10.03,1.83.45-.21.86-.48,1.24-.77.06.11.1.22.16.33.97,1.69,3.27,2.82,5.41,1.7,1.62-.84,2.72-2.58,3.17-4.47,1.14,1.74,2.83,3.3,4.46,4.29,3.22,1.96,7.49,3.49,11.69,3.76-5.1.82-10.77-.89-15.63-2.43,1.09,2.37,1.38,5.85-2.27,6.67-3.1.69-5.53-1.19-7.32-3.21-.65,2.4-3.66,3.29-6.7,3.31-3.55.04-7.06-2.32-8.73-4.83-2.95-4.43-3.71-11.42-.84-16.32-4.1,1.49-8.43,2.12-13.5,1.02-8.2-1.77-15.75-5.51-21.19-10.99-4.31-4.37-5.7-10.19-2.24-15.19Z" fill="#b2b2b2" opacity=".5" stroke-width="0"/><path d="m95.62,40.68c-.97,14.94,16.98,27.2,29.76,25.11-.56,1.85-.87,3.74-.83,5.52.19,7.51,3.44,13.28,9.19,17.99,4.16,3.42,9.63,6.36,15.21,7.7-1.07,3.19-1.54,6.66-1.19,10.32,1.22,13.01,8.88,24.4,18.19,33.21,9.65,9.13,21.92,17.76,35.58,18.92,6.24.54,13.4.06,19.08-2.98,2.46,2.74,5.98,4.47,9.64,4.67,2.51.15,4.6-1.13,6.22-2.94,1.95,2.98,4.65,5.53,7.53,7.38,6.22,4,16.33,3.96,22.09-.22.2.87.43,1.69.7,2.39,2.96,7.49,8.73,14.42,16.45,17.32,6.37,2.41,18.88,3.83,23.54-2.86.28-.41.52-.86.73-1.32,2.93.61,5.86.43,8.21-1.08,7.05-4.53,7.79-16.91,4.77-24.1-3.5-8.33-10.87-15.7-19.91-17.99-4.78-1.2-8.23-.57-10.99,1.39-.87-3.73-2.23-7.3-3.88-10.03-3.88-6.45-10.18-11.12-17.35-13.21-1.49-.44-2.87-.61-4.16-.59-.1-.52-.24-1.03-.44-1.54-1.05-2.63-2.73-5.12-4.99-6.89,6.38-1.88,12.18-5.77,15.89-11.43,18.75-28.59-15.88-56.14-40.87-62.28-8.74-2.15-20.58-1.73-27.64,4.49-3.08-7.43-10.66-13.65-18.52-12.27.7-9.65-9.38-19.84-17.16-23.14-7.38-3.15-15.61-3-21.65.82-1.62-1-3.32-1.75-4.76-2.14-5.64-1.53-12.54-.78-15.63,4.93-1.26,2.32-2.05,5.12-2.14,7.93-2.6-.34-5.01-.41-6.88-.3-6.2.4-11.85,1.85-15.89,6.93-4.65,5.85-7.41,12.84-7.9,20.29Z" fill="#d8d8d8" opacity=".5" stroke-width="0"/><path d="m103.52,20.39c4.04-5.08,9.69-6.53,15.89-6.93,1.87-.12,4.28-.04,6.88.3.1-2.8.88-5.61,2.14-7.93,3.09-5.71,9.99-6.46,15.63-4.93,1.44.39,3.14,1.13,4.76,2.14,6.04-3.82,14.27-3.96,21.65-.82,7.79,3.3,17.86,13.5,17.16,23.14,7.86-1.38,15.43,4.85,18.52,12.27,7.06-6.21,18.9-6.64,27.64-4.49,24.99,6.14,59.62,33.69,40.87,62.28-3.71,5.66-9.51,9.55-15.89,11.43,2.26,1.77,3.94,4.26,4.99,6.89.21.51.34,1.02.44,1.54,1.29-.02,2.67.15,4.16.59,7.18,2.09,13.48,6.76,17.35,13.21,1.65,2.74,3.01,6.3,3.88,10.03,2.76-1.97,6.2-2.59,10.99-1.39,5.1,1.29,9.64,4.23,13.28,8.01-8.1-5-19.17-5.84-24.12,2.48-3.48-14.01-14.75-24.67-27.87-28.07-1.94-6.21-6.9-12.38-12.8-16.15,7.68-1.22,14.74-4.74,18.36-12.33,5.16-10.78,4.11-24.31-2.95-34.08-10.75-14.9-40.79-27.6-55.65-12.88-1.42-2.46-3-4.68-4.38-6.38-3.01-3.71-6.99-7.95-12.03-8.6-2.06-.27-3.87,0-5.52.61-1.68-7.32-5.86-14.33-10.95-18.88-5.35-4.77-11.74-7.05-18.93-6.64-2.64.14-4.68.92-6.39,2.09-6.08-2.77-13.71-2.55-16.66,3.35-2.16,4.33-2.63,8.81-1.86,13.03-1.58-.37-3.18-.61-4.81-.64-10.66-.17-22.22,5.76-23.08,17.58-.89,12.14,8.76,20.6,20.14,22.42,2.28.37,4.72.63,7.18.7-.99,5.28-.69,10.66,2.44,15.38,4.67,7.05,11.29,12.87,18.9,16.55,7.47,3.6,15.61,3.29,23.61,2.36,1.26-.15,2.57-.34,3.86-.62-3.96,3.21-9.85,4.37-14.72,4.82-2.73.25-5.83-.23-6.93,2.91-3.78,10.69,1.33,22.2,9.31,29.5,9.66,8.84,21.26,14.03,34.3,15.26,5.95.56,12.57,1.71,18.26-.74.99-.43,1.88-.95,2.78-1.47,1.65,2.72,4.25,4.69,8.38,5.12,4.16.44,8.73-.56,11.83-3.1,1.09,5.34,3.68,10.23,8.71,12.8,5.36,2.75,12.21,1.67,17.49-1.47.45,4.94,1.32,9.36,5.35,13.93,3.94,4.47,8.66,8.12,13.9,10.95.84.45,1.74.91,2.65,1.38-3.17-.29-6.19-1.01-8.45-1.86-7.73-2.9-13.49-9.83-16.45-17.32-.27-.7-.5-1.52-.7-2.39-5.77,4.18-15.88,4.22-22.09.22-2.88-1.85-5.58-4.4-7.53-7.38-1.62,1.81-3.71,3.08-6.22,2.94-3.66-.2-7.18-1.93-9.64-4.67-5.68,3.04-12.83,3.52-19.08,2.98-13.66-1.17-25.93-9.8-35.58-18.92-9.31-8.81-16.98-20.2-18.19-33.21-.35-3.66.12-7.13,1.19-10.32-5.58-1.34-11.05-4.28-15.21-7.7-5.75-4.71-9-10.48-9.19-17.99-.04-1.78.27-3.66.83-5.52-12.78,2.08-30.73-10.18-29.76-25.11.48-7.45,3.25-14.44,7.9-20.29Z" fill="#d8d8d8" opacity=".5" stroke-width="0"/><path d="m127.99,107.39c5.43,5.49,12.99,9.23,21.18,10.99,5.07,1.1,9.4.48,13.5-1.02-2.88,4.9-2.12,11.89.84,16.32,1.67,2.5,5.17,4.86,8.73,4.83,3.03-.03,6.05-.92,6.69-3.32,1.78,2.03,4.21,3.91,7.32,3.21,3.65-.82,3.37-4.3,2.27-6.67,6.82,2.17,15.19,4.65,21.4.12,4.78-3.49,7.12-9.05,6.26-14.33-1.11-6.82-4.54-14.06-10.46-18.98-3.06-2.54-7.74-5.44-12.35-5.77,1.22-2.45-.92-6.06-3.28-7.07,2.52-3.28,1.27-8.24-2.48-10.68-3.89-2.53-9.67-3.87-14.37-2.48-2.71-2.62-8.77-3.92-11.85-4.6-7.72-1.7-17.51-1.45-24.64,1.82-6.17,2.84-10.25,8.13-6.67,13.96.84,1.36,1.93,2.59,3.19,3.57-3.09.85-5.83,2.47-7.52,4.92-3.46,5-2.08,10.82,2.24,15.18Z" fill="#d8d8d8" opacity=".5" stroke-width="0"/><path d="m125.75,92.21c1.69-2.45,4.43-4.07,7.52-4.92-1.26-.98-2.35-2.21-3.19-3.57-3.59-5.83.49-11.12,6.67-13.96,7.13-3.27,16.92-3.52,24.64-1.82,3.08.68,9.14,1.98,11.85,4.6,4.7-1.39,10.48-.06,14.37,2.48,3.76,2.44,5.01,7.4,2.48,10.68,2.36,1,4.49,4.62,3.28,7.07,4.61.32,9.29,3.23,12.35,5.77,5.92,4.92,9.36,12.16,10.46,18.98.42,2.57.07,5.2-.94,7.63.32-1.76.37-3.52.23-4.98-.62-6.08-3.69-11.96-9-16.21-3.92-3.13-9.51-5.81-14.95-6.4.72-2.22.5-4.78-.64-6.56-1.05-1.64-2.87-2.93-4.96-3.72,2.5-3.26,1.43-8.48-2.58-11.04-3.17-2.03-7.89-2.26-11.19-.33-1.77-1.25-3.79-2.26-5.77-2.97-6.76-2.42-15.79-3.29-22.18.28-6.28,3.5-6.32,10.43-3.03,15.99-2.34.19-4.55,1-6.3,2.71-4.69,4.56-3.79,11.09,1.14,15.34,7.32,6.31,19.59,10.13,30.54,9.03-2.1,3.66-2.29,7.87,1.45,11.22,2.72,2.42,6.41,3.5,10.03,1.83.46-.21.86-.48,1.25-.77.05.1.09.22.15.32.97,1.69,3.27,2.82,5.41,1.71,1.61-.84,2.72-2.58,3.16-4.47,1.15,1.74,2.83,3.29,4.47,4.29,3.21,1.96,7.49,3.49,11.69,3.76-5.1.81-10.77-.89-15.64-2.44,1.1,2.37,1.38,5.85-2.27,6.67-3.1.7-5.53-1.18-7.32-3.21-.64,2.4-3.66,3.29-6.69,3.32-3.56.04-7.07-2.32-8.73-4.83-2.95-4.43-3.71-11.42-.84-16.32-4.11,1.5-8.43,2.12-13.5,1.02-8.19-1.76-15.75-5.5-21.18-10.99-4.32-4.36-5.7-10.18-2.24-15.18Z" fill="#d8d8d8" opacity=".5" stroke-width="0"/><path d="m536.26,147.27s-127.85-72.65-232.79-59.75c-175.33,21.56-186.58,45.19-186.58,45.19l83.3,83.59,253.77,60.49,82.3-129.51Z" fill="#a32f00" stroke-width="0"/><path d="m199.53,217.48l-84.21-84.5.4-.83c.47-.99,13.56-24.53,187.6-45.92,54.46-6.7,115.09,9.96,156.36,25.11,44.66,16.4,76.92,34.62,77.24,34.81l1.19.68-83.53,131.45-255.04-60.79Zm259.24-103.7c-40.99-15.05-101.18-31.6-155.14-24.97-49.03,6.03-116.09,16.13-157.09,30.04-20.02,6.79-26.24,11.96-27.92,13.74l82.23,82.52,252.51,60.18,81.05-127.55c-6.22-3.42-36.01-19.4-75.65-33.96Z" stroke-width="0"/><path d="m513.96,148.17s-126.17-56.05-165.98-54.59c-120.98,4.43-165.98,29.51-165.98,29.51l64.44,41.57,85.31,15.97,198.44-14.75-16.23-17.71Z" fill="#2f313c" stroke-width="0"/><path d="m246.19,165.94l-.25-.05-66.48-42.89,1.9-1.06c.45-.25,46.66-25.29,166.57-29.67,39.65-1.45,161.4,52.41,166.56,54.7l.25.11,18.23,19.89-201.13,14.95h-.17s-85.48-15.99-85.48-15.99Zm266.99-16.69c-6.32-2.79-126.94-55.78-165.16-54.37-105.43,3.86-153.42,23.66-163.39,28.35l62.29,40.18,84.89,15.89,195.59-14.54-14.22-15.52Z" stroke-width="0"/><path d="m332.02,168.24l-2.02,29.55c-6.53-2.81-18.01-7.83-32.21-14.04,15.92-5.39,34.03-12.5,34.23-15.51Z" fill="#6d6d6d" stroke-width="0"/><path d="m329.73,198.51c-5.84-2.52-15.65-6.81-27.83-12.13l-4.38-1.91c-.27-.12-.44-.42-.42-.74.02-.33.22-.61.51-.71,21.78-7.38,33.45-13.03,33.72-14.81.03-.42.36-.75.75-.73h0c.38.02.67.38.64.8t0,0l-2.02,29.55c-.02.25-.14.47-.33.61-.13.09-.27.13-.42.12-.07,0-.15-.02-.22-.05Zm-29.84-14.67l2.55,1.12c11.58,5.06,21.01,9.18,26.94,11.74l1.79-26.31c-3.07,2.52-11.44,6.67-31.28,13.46Zm31.42-15.63h.01s-.01,0-.01,0Z" fill="#4a4a4a" stroke-width="0"/><path d="m332.02,168.24l-2.02,29.55c-6.53-2.81-18.01-7.83-32.21-14.04,15.92-5.39,34.03-12.5,34.23-15.51Z" fill="#6d6d6d" mix-blend-mode="multiply" opacity=".6" stroke-width="0"/><path d="m327.93,184.92c-4.22-6.27-12.78-5.01-18.04-.59-1.2,1.01-2.17,2.16-2.97,3.42-2.89-1.26-5.94-2.59-9.13-3.99,15.92-5.39,34.03-12.5,34.23-15.51l-1.69,24.74c-.21-2.87-.78-5.65-2.4-8.06Z" fill="#6d6d6d" mix-blend-mode="multiply" opacity=".6" stroke-width="0"/><path d="m189.41,109.56c5.14-3.37,12.05,1.83,14.06,10.75,1.43,6.33,1.93,16.33,2.11,23.48-8.22-3.51-16.12-6.86-23.43-9.92-.51-7.65.3-18.22,7.26-24.3Z" fill="#616161" stroke-width="0"/><path d="m205.31,144.5c-8.22-3.51-16.12-6.86-23.43-9.92-.25-.1-.41-.35-.43-.64-.53-7.93.34-18.7,7.53-24.98.02-.02.05-.04.08-.06,2.05-1.35,4.49-1.51,6.88-.45,3.82,1.69,6.97,6.15,8.21,11.65,1.44,6.37,1.95,16.37,2.13,23.64,0,.26-.11.51-.3.66-.13.1-.29.16-.45.15-.07,0-.15-.02-.22-.05Zm-15.52-34.31c-6.52,5.73-7.42,15.63-6.98,23.12,6.9,2.89,14.32,6.04,22.03,9.33-.2-7.06-.72-16.22-2.06-22.12-1.14-5.04-3.98-9.12-7.41-10.64-.79-.35-1.57-.54-2.33-.58-1.15-.06-2.25.24-3.26.89Z" fill="#4a4a4a" stroke-width="0"/><path d="m189.41,109.56c5.14-3.37,12.05,1.83,14.06,10.75,1.43,6.33,1.93,16.33,2.11,23.48-8.22-3.51-16.12-6.86-23.43-9.92-.51-7.65.3-18.22,7.26-24.3Z" fill="#6d6d6d" mix-blend-mode="multiply" opacity=".4" stroke-width="0"/><path d="m199.38,120.1c-1.31-5.78-4.67-9.98-8.27-11.31,4.86-1.43,10.57,3.55,12.37,11.52,1.43,6.33,1.93,16.33,2.11,23.48-1.39-.59-2.76-1.18-4.14-1.76-.21-6.98-.74-16.03-2.07-21.92Z" fill="#6d6d6d" mix-blend-mode="multiply" opacity=".4" stroke-width="0"/><path d="m191.65,107.87c16.61-10.3,66.58-13.18,79.51-11.78,8.29.9,13,7.92,15.31,12.84,1.84,4.85,1.84,4.86,1.84,4.86l13.7,40.88-40.29,13.33c-18.43-8.02-38.06-16.52-56.13-24.23-.17-7.14-.68-17.14-2.11-23.48-2.01-8.91-8.93-14.12-14.06-10.75.69-.6,1.42-1.18,2.24-1.68Z" fill="#6d6d6d" stroke-width="0"/><path d="m261.44,168.73c-21.97-9.56-40.33-17.49-56.13-24.23-.25-.11-.42-.37-.43-.68-.18-7.19-.68-17.07-2.09-23.31-1.14-5.04-3.98-9.12-7.41-10.64-2-.88-2.13-2.2-3.82-1.09-.32.21-.17.32-.37-.02-.2-.33-1.06-.16-.77-.41.83-.72.17-.35.94-.83l.29-.11c16.81-10.43,66.69-13.5,79.59-12.09,8.38.91,13.24,7.7,15.86,13.29l1.85,4.89,13.7,40.88c.07.2.05.42-.04.62-.09.19-.25.34-.44.4l-40.29,13.33c-.08.02-.16.04-.23.03-.08,0-.15-.02-.22-.05Zm26.22-54.62l-1.82-4.81c-2.45-5.21-7-11.6-14.78-12.45-12.47-1.35-60.03,1.26-77.77,10.91.87.06,1.76.28,2.64.67,3.82,1.69,6.97,6.15,8.21,11.65,1.41,6.23,1.93,15.92,2.12,23.14,15.65,6.69,33.81,14.53,55.5,23.96l39.33-13.01-13.42-40.08Z" fill="#4a4a4a" stroke-width="0"/><path d="m201.98,116.83s.08,0,.12,0l82.07-11.32c.38-.05.66-.44.63-.86-.04-.42-.37-.72-.76-.67l-82.07,11.32c-.38.05-.66.44-.63.86.03.38.31.66.64.67Z" fill="#4a4a4a" stroke-width="0"/><path d="m204.29,126.15s.08,0,.12,0l83.96-11.58c.38-.05.66-.44.63-.86-.04-.42-.37-.72-.76-.67l-83.96,11.58c-.38.05-.66.44-.63.86.03.38.31.66.64.67Z" fill="#4a4a4a" stroke-width="0"/><path d="m205.33,138.76s.1,0,.14,0l85.96-15.16c.38-.07.65-.46.6-.88-.05-.42-.41-.71-.78-.64l-85.96,15.16c-.38.07-.65.46-.6.88.04.37.32.63.64.65Z" fill="#4a4a4a" stroke-width="0"/><path d="m214.97,148.59s.1,0,.15-.01l79.62-15.1c.38-.07.65-.47.59-.89-.05-.42-.41-.69-.79-.63l-79.62,15.1c-.38.07-.65.47-.59.89.05.36.32.62.64.64Z" fill="#4a4a4a" stroke-width="0"/><path d="m232.89,156.31c.06,0,.11,0,.17-.02l64.43-14.7c.38-.09.63-.49.57-.91-.07-.41-.42-.69-.81-.6l-64.43,14.7c-.38.09-.63.49-.57.91.06.35.32.6.63.61Z" fill="#4a4a4a" stroke-width="0"/><path d="m247.88,162.79c.06,0,.12,0,.19-.02l52.11-12.87c.38-.09.63-.5.55-.92-.07-.41-.44-.67-.82-.58l-52.11,12.87c-.38.09-.63.51-.55.92.06.35.33.58.63.6Z" fill="#4a4a4a" stroke-width="0"/><path d="m189.41,109.56c5.14-3.37,12.05,1.83,14.06,10.75,1.43,6.33,1.93,16.33,2.11,23.48,18.07,7.72,37.71,16.22,56.13,24.23l40.29-13.33-13.7-40.88s0,0-1.84-4.86c-2.31-4.93-7.02-11.94-15.31-12.84-12.93-1.4-62.9,1.47-79.51,11.78-.82.51-1.55,1.08-2.24,1.68Zm65.72-10.3c21.61-1.28,25.08.65,34.27,23.02,3.49,8.48,5.69,15.67,7.02,20.69,1.29,4.89-.88,8.61-4.78,9.85-10.21,3.24-29.09,8.95-31.99,7.75-4.01-1.66-20.56-7.41-30.06-11.93-9.49-4.52-10.47-11.65-14.43-28.93-3.96-17.28,18.36-19.17,39.97-20.45Z" fill="#6d6d6d" mix-blend-mode="multiply" opacity=".4" stroke-width="0"/><path d="m268.32,101.76c9.82,1.07,17.05,12.05,22.43,29.61,5.38,17.56-6.02,21.57-9,22.31,0,0,7.09-7.32,3.08-20.73-4.01-13.42-9.86-28.4-16.51-31.18Z" fill="#6d6d6d" mix-blend-mode="screen" opacity=".3" stroke-width="0"/><path d="m262.3,169.78c-.18,0-.36-.05-.53-.12-21.61-9.53-39.72-17.46-55.36-24.23-.56-.24-.93-.81-.94-1.45-.17-7.16-.66-16.98-2.04-23.14-1.07-4.78-3.68-8.63-6.81-10.03-1.56-.7-4.17-1.86-5.48-.99l-1.05-1.37c.85-.75,1.62-1.34,2.41-1.84,16.78-10.55,66.62-13.42,79.39-12,8.67.95,13.67,8.02,16.36,13.85l1.84,4.92,13.51,40.88c.14.4.11.86-.07,1.25-.19.41-.53.73-.94.86l-39.75,13.33c-.15.05-.31.07-.46.07-.03,0-.05,0-.07,0Zm.17-1.71s0,0,0,0h0Zm25.99-54.12l-1.8-4.83c-2.48-5.36-7.09-11.93-14.96-12.8-6.1-.68-21.4-.38-37.78,1.5-18.86,2.16-33.13,5.74-40.25,10.09,1.31.27,2.61.85,3.65,1.31,3.63,1.62,6.61,5.93,7.8,11.24,1.4,6.28,1.9,16.19,2.08,23.42,15.6,6.75,33.65,14.66,55.18,24.16l39.56-13.27-13.49-40.81Z" stroke-width="0"/><path d="m331.48,167.44c4.11,2.33-16.13,10.36-33.69,16.31-10.78-4.71-23.13-10.1-36.08-15.74l40.29-13.33s23.32,9.28,29.48,12.76Z" fill="#707070" stroke-width="0"/><path d="m297.52,184.47c-10.78-4.71-23.13-10.1-36.08-15.74-.27-.12-.44-.42-.42-.75.02-.33.23-.61.51-.71l40.29-13.33c.14-.05.3-.05.44.01.95.38,23.44,9.33,29.55,12.79.87.49.93,1.2.89,1.58-.39,3.76-19.1,10.86-34.73,16.15-.08.03-.16.04-.24.03-.08,0-.15-.02-.22-.05Zm-33.67-16.36c12.18,5.3,23.79,10.37,34,14.83,21.64-7.34,33.22-12.96,33.5-14.67,0,0-.04-.06-.19-.14h0c-5.73-3.24-26.82-11.69-29.18-12.63l-38.12,12.61Zm67.63-.67h.01s-.01,0-.01,0Z" fill="#4a4a4a" stroke-width="0"/><path d="m261.48,167.72c12.95,5.63,25.3,11.03,36.08,15.74,17.56-5.95,37.8-13.99,33.69-16.31-6.15-3.48-29.48-12.76-29.48-12.76l-40.29,13.33Zm31.1-8.31c11.15-5.14,11.72-2.31,30.88,6.11,11.58,5.08-25.85,15.99-38.31,10.09-7.23-3.42-3.72-11.06,7.43-16.2Z" fill="#6d6d6d" mix-blend-mode="multiply" opacity=".4" stroke-width="0"/><path d="m310.54,161.89c5.65,4.22,5.32,9.44-6.14,12.45-11.46,3.01,14.21-.69,15.85-4.1,3.06-6.37-16.22-13.21-9.71-8.35Z" fill="#6d6d6d" mix-blend-mode="screen" opacity=".3" stroke-width="0"/><path d="m205.72,146.61c-.18,0-.35-.05-.52-.12-8.42-3.64-16.3-7.01-23.42-10.03-.55-.23-.92-.77-.96-1.39-.55-8.21.37-19.39,7.82-25.97h0c.05-.05.11-.09.17-.13,2.31-1.53,5.05-1.72,7.71-.53,4.07,1.82,7.4,6.57,8.7,12.39,1.46,6.52,1.97,16.69,2.15,24.07.01.54-.22,1.05-.63,1.38-.28.22-.61.34-.95.34-.03,0-.05,0-.08,0Zm-15.93-36.21h0c-6.91,6.1-7.75,16.67-7.24,24.49,7.05,2.99,14.84,6.33,23.09,9.9-.18-7.3-.69-17.26-2.1-23.6-1.18-5.3-4.14-9.58-7.71-11.18-.92-.41-1.85-.62-2.76-.62-1.16,0-2.27.33-3.27,1Zm-7.24,24.55h0s0,0,0,0Z" stroke-width="0"/><path d="m427.27,267.29c1.49,29.63-9.49,65.97-40.69,65.97-3.06,0-19.43.68-22.22-.08-25.73-7.02-43.84-45.6-43.84-79.6,0-26.48,7.54-56.14,33.55-59.7,1.73-.24,20.34,0,22.24,0,31.5,0,49.36,41.54,50.96,73.42Z" fill="#3c404c" stroke-width="0"/><path d="m364.02,334.43c-12.4-3.38-23.9-14.16-32.39-30.34-7.89-15.06-12.42-33.47-12.42-50.52,0-16.91,3.38-56.71,34.68-61,1.22-.17,8.63-.13,19.38-.04,1.53.01,2.65.02,3.04.02,10.32,0,25.25,4.4,37.81,25.39,8.19,13.67,13.59,32.09,14.45,49.27h0c.91,18.03-2.88,42.3-16.23,56.34-6.94,7.3-15.61,11-25.76,11-.71,0-2.16.04-3.98.09-3.97.1-7.93.19-11.21.19-3.52,0-6.26-.1-7.37-.41Zm61.95-67.08c-.84-16.77-6.11-34.73-14.09-48.05-6.59-11-18.11-24.12-35.57-24.12-.4,0-1.52-.01-3.07-.02-4.85-.04-17.72-.16-19,.01-29.26,4-32.42,42.18-32.42,58.41,0,32.18,17.23,71.34,42.88,78.34,1.95.53,12.67.26,17.83.12,1.86-.05,3.32-.09,4.05-.09,9.41,0,17.44-3.43,23.87-10.18,12.78-13.44,16.4-36.92,15.52-54.41h0Z" stroke-width="0"/><path d="m402.55,267.29c1.49,29.63-9.49,65.97-40.69,65.97-31.2,0-48.97-41.99-48.97-79.68,0-28.25,8.23-59.7,38.7-59.7,31.5,0,49.36,41.54,50.96,73.42Z" fill="#2c2e39" stroke-width="0"/><path d="m324.53,308.17c-8.23-15-12.94-34.9-12.94-54.6,0-11.57,1.4-28.09,8.07-41.04,6.82-13.25,17.56-19.97,31.94-19.97,10.32,0,25.25,4.4,37.81,25.39,8.19,13.67,13.59,32.09,14.45,49.27.91,18.03-2.88,42.3-16.23,56.34-6.94,7.3-15.61,11-25.76,11-14.96,0-27.86-9.12-37.33-26.38Zm-2.55-94.45c-6.43,12.49-7.78,28.56-7.78,39.85,0,19.28,4.6,38.72,12.62,53.35,11.35,20.69,25.32,25.03,35.04,25.03,9.41,0,17.45-3.43,23.87-10.18,12.78-13.44,16.4-36.92,15.52-54.41-.84-16.77-6.11-34.73-14.09-48.05-6.59-11-18.11-24.12-35.57-24.12-13.31,0-23.28,6.24-29.61,18.55Z" stroke-width="0"/><path d="m389.49,266.43c1.1,22.81-7.01,50.79-30.08,50.79s-36.2-32.33-36.2-61.35c0-21.75,6.08-45.97,28.6-45.97,23.28,0,36.48,31.99,37.67,56.53Z" fill="#cbc7c4" stroke-width="0"/><path d="m344.85,214.83c1.25,9.27,5.36,38.81,7.76,38.81,2.02,0,5.62-27.88,6.86-37.96-2.59-1.08-5.35-1.69-8.3-1.69-2.29,0-4.4.3-6.32.84Z" fill="#2c2e39" stroke-width="0"/><path d="m357.08,255.39c1.34.8,11.53-12.52,18.91-22.5-2.34-4.49-5.13-8.48-8.37-11.63-4.37,11.44-12.36,33.05-10.54,34.14Z" fill="#2c2e39" stroke-width="0"/><path d="m359.5,258.82c.68,1.21,12.44-3.46,23.01-7.95-.88-3.76-2.02-7.48-3.4-11.04-9.37,7.81-20.44,17.5-19.61,18.99Z" fill="#2c2e39" stroke-width="0"/><path d="m360.99,262.99c0,1.39,12.45,3.36,23.74,4.85-.01-.55-.03-1.08-.05-1.63-.14-2.97-.46-6.05-.96-9.17-11,1.94-22.73,4.39-22.73,5.95Z" fill="#2c2e39" stroke-width="0"/><path d="m382.86,287.18c.95-4.09,1.53-8.38,1.77-12.63-11.05-4.18-23.92-8.68-24.73-7.23-.78,1.42,12.98,12.27,22.96,19.86Z" fill="#2c2e39" stroke-width="0"/><path d="m371.36,308.41c3.8-3.11,6.71-7.57,8.83-12.73-7.7-9.87-20.83-26.23-22.56-25.19-1.8,1.07,10.03,29.23,13.74,37.92Z" fill="#2c2e39" stroke-width="0"/><path d="m347.44,310.26c3.18,1.86,6.69,2.88,10.49,2.88,1.46,0,2.87-.13,4.2-.39-1.02-7.75-5.37-39.89-7.89-39.89-1.98,0-5.5,26.88-6.8,37.4Z" fill="#2c2e39" stroke-width="0"/><path d="m332.58,291.5c2,4.63,4.44,8.79,7.27,12.18,4.39-11.49,11.38-30.65,9.66-31.68-1.25-.75-9.88,10.18-16.93,19.49Z" fill="#2c2e39" stroke-width="0"/><path d="m327.47,274.55c.66,3.47,1.52,6.86,2.56,10.11,8.18-6.95,16.53-14.53,15.78-15.88-.58-1.05-9.34,2.14-18.34,5.77Z" fill="#2c2e39" stroke-width="0"/><path d="m325.81,259.6c.09,3.12.35,6.27.76,9.4,9.14-1.65,17.61-3.53,17.61-4.89s-8.95-2.97-18.37-4.5Z" fill="#2c2e39" stroke-width="0"/><path d="m325.78,253.65c9.27,3.59,18.53,6.78,19.22,5.53.7-1.25-9.37-9.89-18.21-17.13-.61,3.78-.92,7.72-1.02,11.6Z" fill="#2c2e39" stroke-width="0"/><path d="m328.68,233.63s.01,0,0,.01c7.44,9.65,17.85,22.63,19.41,21.69,1.69-1-7.8-25.19-11.87-35.35-3.47,3.47-5.9,8.24-7.54,13.64Z" fill="#2c2e39" stroke-width="0"/><path d="m169.87,190.26c2.79,18.44-.34,41.78-16.31,43.53-1.56.17-9.89,1.51-11.38,1.19-13.65-2.95-25.55-26.06-27.88-47.32-1.81-16.56.02-35.53,13.08-39.21.87-.25,10.41-1.14,11.38-1.24,16.12-1.76,28.1,23.22,31.1,43.06Z" fill="#3c404c" stroke-width="0"/><path d="m141.91,236.25c-6.76-1.46-13.52-7.65-19.04-17.43-5.09-9.01-8.68-20.32-9.85-31.03-1.17-10.69-2.14-36.05,14.03-40.61.59-.17,3.23-.46,10.06-1.13.77-.08,1.33-.13,1.53-.15,17.53-1.92,29.58,24.67,32.53,44.16,1.88,12.42,1.33,29.01-5.85,38.33-3.02,3.93-6.93,6.18-11.61,6.69-.36.04-1.09.14-2.01.27-4.33.61-7.22.97-8.81.97-.42,0-.74-.02-.98-.08Zm-2.99-87.75c-.2.02-.77.08-1.56.15-2.43.24-8.87.87-9.61,1.05-14.25,4.01-13.24,27.78-12.14,37.81,1.13,10.37,4.61,21.31,9.53,30.03,5.15,9.12,11.3,14.86,17.32,16.16.97.19,6.71-.62,8.87-.93.96-.14,1.71-.24,2.09-.28,3.95-.43,7.25-2.34,9.82-5.68,6.68-8.68,7.05-25.01,5.33-36.35h0c-2.63-17.36-13.3-42.03-28.18-42.03-.49,0-.98.03-1.48.08Z" stroke-width="0"/><path d="m157.22,191.64c2.79,18.44-.34,41.78-16.31,43.53-15.97,1.75-27.93-23.52-30.5-47.09-1.93-17.66.13-37.79,15.72-39.5,16.12-1.76,28.1,23.22,31.1,43.06Z" fill="#2c2e39" stroke-width="0"/><path d="m119.52,221.78c-5.26-8.96-9.05-21.19-10.4-33.56-1.27-11.62-2.17-38.86,16.87-40.94,17.55-1.93,29.58,24.67,32.53,44.16h0c1.88,12.42,1.33,29.01-5.85,38.33-3.02,3.92-6.93,6.17-11.61,6.69-.58.06-1.16.1-1.74.1-7.29,0-14.1-5.07-19.8-14.78Zm6.75-71.9c-16.7,1.83-15.74,27.22-14.56,38.06,1.31,12.01,4.98,23.86,10.06,32.52,3.9,6.64,10.35,14.36,19,13.41,3.95-.43,7.25-2.34,9.82-5.68,6.68-8.68,7.05-25.01,5.34-36.35h0c-2.71-17.93-14.03-43.67-29.66-41.95Z" stroke-width="0"/><path d="m150.48,191.84c2.12,14.2-.11,32.16-11.92,33.45-11.8,1.29-20.73-18.19-22.71-36.34-1.49-13.6-.03-29.09,11.49-30.35,11.91-1.3,20.85,17.96,23.14,33.24Z" fill="#cbc7c4" stroke-width="0"/><path d="m124.12,162.07c1.27,5.73,5.4,23.97,6.62,23.83,1.03-.11.97-17.75.92-24.12-1.4-.53-2.85-.76-4.36-.59-1.17.13-2.23.43-3.18.88Z" fill="#2c2e39" stroke-width="0"/><path d="m133.14,186.75c.74.43,5.04-8.47,8.14-15.13-1.5-2.67-3.2-5.02-5.08-6.81-1.46,7.4-4.06,21.36-3.06,21.94Z" fill="#2c2e39" stroke-width="0"/><path d="m134.62,188.76c.43.72,6.13-2.86,11.23-6.26-.71-2.3-1.54-4.57-2.49-6.71-4.26,5.41-9.26,12.09-8.74,12.97Z" fill="#2c2e39" stroke-width="0"/><path d="m135.66,191.28c.1.87,6.6,1.41,12.48,1.71-.04-.34-.09-.68-.14-1.02-.27-1.85-.65-3.76-1.12-5.68-5.5,1.83-11.33,4.02-11.22,4.99Z" fill="#2c2e39" stroke-width="0"/><path d="m148.51,205.18c.2-2.61.21-5.33.04-8-5.94-1.99-12.83-4.09-13.15-3.14-.3.93,7.48,6.94,13.1,11.13Z" fill="#2c2e39" stroke-width="0"/><path d="m144.07,219.1c1.73-2.16,2.92-5.11,3.65-8.45-4.62-5.74-12.45-15.24-13.27-14.49-.85.77,7.13,17.72,9.62,22.94Z" fill="#2c2e39" stroke-width="0"/><path d="m131.96,221.6c1.75.98,3.62,1.43,5.56,1.22.75-.08,1.46-.24,2.12-.48-1.05-4.79-5.48-24.64-6.77-24.5-1.01.11-.97,17.12-.92,23.77Z" fill="#2c2e39" stroke-width="0"/><path d="m123.08,210.7c1.34,2.78,2.87,5.25,4.55,7.21,1.46-7.43,3.73-19.8,2.78-20.35-.69-.4-4.36,6.92-7.33,13.14Z" fill="#2c2e39" stroke-width="0"/><path d="m119.31,200.38c.58,2.14,1.25,4.21,2,6.18,3.71-4.8,7.46-10.01,6.99-10.81-.37-.63-4.63,1.86-8.99,4.63Z" fill="#2c2e39" stroke-width="0"/><path d="m117.43,191.13c.26,1.95.61,3.9,1.03,5.83,4.56-1.54,8.77-3.19,8.68-4.05-.08-.76-4.78-1.36-9.71-1.79Z" fill="#2c2e39" stroke-width="0"/><path d="m117.01,187.41c4.99,1.72,9.94,3.2,10.21,2.38.27-.82-5.47-5.66-10.49-9.69-.05,2.4.06,4.88.27,7.31Z" fill="#2c2e39" stroke-width="0"/><path d="m117.12,174.73s0,0,0,0c4.47,5.62,10.68,13.15,11.41,12.48.8-.72-5.71-15.32-8.49-21.44-1.54,2.37-2.46,5.48-2.92,8.95Z" fill="#2c2e39" stroke-width="0"/><path d="m243.18,151l-44.1-27.05s-46.52-4.64-65.4.93c-18.88,5.57-16.54,5.93-16.79,7.83-.26,1.9,3.74,13.77,3.74,13.77,0,0,9.65.22,17.25,5.72,12.35,8.93,25.66,24.65,30.74,22.74,8.21-3.08,53.28,27.64,59.75,9.36" fill="#d64b00" fill-rule="evenodd" stroke-width="0"/><path d="m125.54,145.29c-.23,1.11-8.65-12.58-8.65-12.58,0,0-2.12,2.18-5.02,14.52-2.9,12.34-3.39,19.36-3.21,30.98.18,11.62,2.38,13.67,2.38,13.67,0,0-.79-16.08-.81-18.47-.02-2.39.73-11.27,1.72-14.87,1-3.6,13.58-13.25,13.58-13.25h0Z" fill="#a32f00" fill-rule="evenodd" stroke-width="0"/><path d="m204.57,165.83l-16.03-9.94s-11.28-7.33-18.3-13.63c-7.02-6.29-9.68-9.68-9.68-9.68l-37.51,15.73s7.5-3.03,17.18,12.46c9.68,15.49,11.76,32,11.76,32,0,0,1.96,7.17,3.31,18.2,1.35,11.04,46.43,20.8,46.43,20.8l50.44-29.01-47.6-36.94h0Z" fill="#b23904" fill-rule="evenodd" stroke-width="0"/><path d="m184.84,153.4c-1.34,2.76-2.44,7.03-2.13,13.55.73,15,14.04,34.12,14.04,34.12l-42.22,4.42c-1.22-7.87-2.55-12.72-2.55-12.72,0,0-2.08-16.51-11.76-32-9.68-15.49-17.18-12.46-17.18-12.46l37.51-15.73s2.66,3.39,9.68,9.68c4.48,4.02,10.69,8.46,14.61,11.14h0Z" fill="#d15000" fill-rule="evenodd" stroke-width="0"/><path d="m165.24,137.58h0s5.38,18.24,13.12,38.33c7.74,20.09,11.86,23.47,11.86,23.47l-35.75,5.67c-1.2-7.6-2.48-12.27-2.48-12.27,0,0-2.08-16.51-11.76-32-9.68-15.49-17.18-12.46-17.18-12.46l37.51-15.73s1.36,1.72,4.68,5h0Z" fill="#d64b00" fill-rule="evenodd" stroke-width="0"/><path d="m310.99,190.55l5.06,5.54s-4.97,20.98-6.27,48.08c-1.3,27.1,5.08,35.7,5.08,35.7l-107.09-45.95-1.5-22.44-9.73-20.36s-4.17-8.68-5.11-12.64c-.94-3.96-1.9-14.73-2.42-17.24-.52-2.51-.03-5.23-.03-5.23l43.2-3.33,78.8,37.89h0Z" fill="#b23904" fill-rule="evenodd" stroke-width="0"/><path d="m307.97,206.11c2.03-4.22-2.01,43.59-2.01,43.59l-106.2-51.89,6.53,13.66,1.5,22.44,107.09,45.95s-6.38-8.59-5.08-35.7c.87-18.05,3.36-33.39,4.93-41.62-2.82-4.49-.15,6.77-6.74,3.56h0Z" fill="#d15000" fill-rule="evenodd" stroke-width="0"/><polygon points="193.29 211.7 189.66 206.13 208.74 208.84 270.78 262.4 193.29 211.7 193.29 211.7" fill="#d64b00" fill-rule="evenodd" stroke-width="0"/><path d="m204.57,165.83l6.9,4.36s-.04,4.74-2.88,4.49c-2.84-.25-14.42-6.67-14.42-6.67,0,0-1.45-6.11,1.69-6.05,3.15.06,8.71,3.87,8.71,3.87h0Z" fill="#d64b00" fill-rule="evenodd" stroke-width="0"/><path d="m183.88,210.72c-.34-.84,19.09-.84,19.09-.84l66,47.31s-88.95-23.06-85.09-46.48h0Z" fill="#a32f00" fill-rule="evenodd" stroke-width="0"/><path d="m179.75,201.04s-13.02-33.65-24.4-51.16c-12.58-19.36-38.45-17.17-38.45-17.17l-2.56,18.99s4.67-6.95,14.23-2.05c9.56,4.9,51.18,51.39,51.18,51.39h0Z" fill="#d64b00" fill-rule="evenodd" stroke-width="0"/><path d="m313.87,205.69l-124.06-49.26.18-1.58s14.28-5.99,20.54-8.26c6.26-2.27,11.71-3.23,11.71-3.23,0,0,52.88,20.01,92.08,32.79,39.2,12.78-.45,29.53-.45,29.53h0Z" fill="#d64b00" fill-rule="evenodd" stroke-width="0"/><path d="m322.19,182.13l-2.37-3.94c-1.63-.69-3.45-1.36-5.5-2.03-4.31-1.41-8.79-2.9-13.35-4.45-10.05,2.2-23.45,5.22-31.3,7.31-12.63,3.36-70.53-18.98-79.85-22.63v.04s124.71,49.84,124.71,49.84l-.49-.66c3.59-5.95,6.3-13.67,8.16-23.49h0Z" fill="#d15000" fill-rule="evenodd" stroke-width="0"/><path d="m314.32,176.16s-1.03,6.84-3.33,14.4c-2.3,7.56-3.87,18.27-4.72,39.45-.85,21.18.24,39.39.24,39.39l-90.45-42.65s-19-32.79-22.87-44.65c-3.87-11.86-3.39-25.65-3.39-25.65,0,0,6.53-4.84,16.7-7.99,10.16-3.15,15.73-5.08,15.73-5.08l-2-.54s-18.03,5.63-24.2,8.41c-6.17,2.78-7.5,4.66-7.5,4.66,0,0-.73,14.94,4.11,27.65,4.84,12.71,22.69,44.59,22.69,44.59l82.23,38.52s8.59,9.06,10.92,4.63c2.33-4.43.76-48.23,6.57-70.98,5.81-22.75.82-24.61.82-24.61l-1.55.47h0Z" fill-rule="evenodd" stroke-width="0"/><path d="m398.18,135.99c-5.75,30.81-34.45,42.32-66.11,36.41-31.66-5.91-52.69-26.69-46.94-57.5,5.75-30.81,34.05-49.02,65.71-43.12,31.66,5.91,53.09,33.4,47.35,64.2Z" fill="#38a9b4" stroke-width="0"/><path d="m330.87,174.82c-16.75-3.12-30.26-10.15-39.09-20.32-9.45-10.88-12.92-24.79-10.04-40.23,5.37-28.81,30.65-52.3,68.85-45.17,38.69,7.22,54.84,38.85,49.54,67.25-2.87,15.38-11.41,27.06-24.71,33.78-12.11,6.12-27.93,7.79-44.54,4.69Zm18.77-100.62c-35.21-6.57-57.75,15.23-62.57,41.06-5.13,27.48,12.02,48.35,44.75,54.45,33.21,6.19,57.92-7.29,62.97-34.36,6-32.18-20.22-56.5-45.16-61.16Z" stroke-width="0"/><ellipse cx="394.82" cy="107.02" rx="14.68" ry="27.5" transform="translate(-3.42 13.54) rotate(-1.96)" fill="#fff" stroke-width="0"/><path d="m382.86,126.38c-2.56-4.98-4.21-11.52-4.46-18.8-.56-16.39,6.21-29.48,15.42-29.79,9.2-.31,16.85,12.28,17.41,28.67.56,16.39-6.21,29.48-15.42,29.79-5.11.17-9.75-3.64-12.95-9.87Zm20.74-37.18c-2.55-4.96-6.01-8.05-9.67-7.92-7.01.24-12.52,12.23-12.05,26.19.48,13.96,6.8,25.54,13.81,25.3,7.01-.24,12.52-12.23,12.05-26.19h0c-.23-6.68-1.8-12.82-4.14-17.38Z" stroke-width="0"/><ellipse cx="398.56" cy="104.58" rx="5.6" ry="12.1" transform="translate(-4.61 19.47) rotate(-2.78)" stroke-width="0"/><ellipse cx="398.3" cy="102.44" rx="3.56" ry="2.64" transform="translate(269.87 493.13) rotate(-86.23)" fill="#fff" stroke-width="0"/><ellipse cx="368.64" cy="109.35" rx="20.74" ry="36.17" transform="translate(-3.52 12.65) rotate(-1.96)" fill="#fff" stroke-width="0"/><path d="m351.84,133.61c-3.38-6.57-5.37-14.79-5.67-23.5-.34-9.96,1.58-19.42,5.4-26.64,3.99-7.54,9.59-11.8,15.78-12.02,6.19-.21,12.07,3.66,16.56,10.91,4.31,6.95,6.87,16.26,7.21,26.21.34,9.96-1.58,19.42-5.4,26.64-3.99,7.54-9.59,11.8-15.78,12.02-6.19.21-12.07-3.66-16.56-10.91-.54-.87-1.05-1.78-1.53-2.72Zm30.51-46.92c-.44-.86-.91-1.69-1.41-2.49-3.81-6.14-8.59-9.43-13.48-9.26-4.89.17-9.44,3.77-12.81,10.16-3.54,6.7-5.32,15.54-5,24.89.32,9.36,2.69,18.05,6.68,24.49,3.81,6.14,8.59,9.43,13.48,9.26,4.89-.17,9.44-3.78,12.81-10.16,3.54-6.7,5.32-15.54,5-24.89h0c-.28-8.2-2.14-15.89-5.28-22Z" stroke-width="0"/><ellipse cx="372.67" cy="106.56" rx="8.05" ry="17.42" transform="translate(-4.73 18.22) rotate(-2.78)" stroke-width="0"/><ellipse cx="373.2" cy="101.71" rx="4.51" ry="3.34" transform="translate(247.15 467.41) rotate(-86.23)" fill="#fff" stroke-width="0"/><path d="m258.78,137.92c2.78-7.7,6.53-15.14,9.77-22.65,1.54-3.58,3-7.34,4.7-10.96,0,0,0,0,0,0h0c1.7-3.61,3.64-7.08,6.16-10.1.81-.96,1.7-1.87,2.65-2.71,1.78-31.22,26.23-55.96,56.14-55.96,31.07,0,56.26,26.69,56.26,59.6,0,4.16-.4,8.21-1.17,12.13,9.88,6.67,16.22,16.91,16.22,28.4,0,19.47-18.16,35.37-41.01,36.34.51.47,1.03.94,1.53,1.43-5.88-1.59-12.39-1.58-18.43-.41h0c-1.54.3-3.06.68-4.52,1.12-.07.02-.13.04-.2.06-.6.19-1.2.39-1.78.6-.15.05-.3.11-.45.16-.65.24-1.29.49-1.91.76-6.71,2.89-12.16,8.26-19.65,4.16-6.14-3.37-11.8-7.53-18.02-10.8-6.1-3.2-12.38-6.04-18.82-8.48-6.4-2.43-13.09-3.97-19.49-6.32-2.86-1.05-5.93-2.5-7.75-5.06-2.43-3.42-1.55-7.65-.23-11.32Z" fill="none" stroke-width="0"/><path d="m325.18,180.4l-11.98,6.9s-2.54,5.93-4.96,28.43c-2.42,22.51.24,55.54.24,55.54l-108.72-46.08,75.21,40.24,38.7,13.89-2.88-30.18s-2.18-24.44,8.47-41.62c10.65-17.18,26.62-7.26,5.93-27.1h0Z" fill="#d15000" fill-rule="evenodd" stroke-width="0"/><path d="m590.87,235.73l58.33,9.46-1.07-24.74s-20.57-34.33-76.23-62.42l18.97,77.7h0Z" fill="#d15000" fill-rule="evenodd" stroke-width="0"/><path d="m603.85,205.21l25.89,10.41-13.97-26.38-12.83-12.48s-25.71-20.67-70.37-34.22l71.27,62.68h0Z" fill="#d15000" fill-rule="evenodd" stroke-width="0"/><path d="m507.65,171.33l-5.25-8.96,23.16-6.28s7.5-6.78,8.23-8.95c.73-2.18-1.21-4.6-1.21-4.6,0,0,65,15.51,94.88,65.12l-20.07,40.86-99.74-77.19h0Z" fill="#b23904" fill-rule="evenodd" stroke-width="0"/><path d="m402.02,216.1l-23.65-7.8s-12.65-13.01-26.93-13.25c-14.28-.24-26.37,3-26.37,3l-11.87-10.74,2.66-11.62,36.53-8.27,20.27,3.38,89.37,7.07,103.07,57.74-51.76,24.06-111.32-43.56h0Z" fill="#d64b00" fill-rule="evenodd" stroke-width="0"/><path d="m644.36,251.18l4.84-5.99s-12.82-29.67-23.99-39.8l-1.61-2.81s1.07,1.1-.54,5.58c-1.62,4.48-4.57,9.06-6.59,11.9-2.03,2.84-6.2,3.96-6.2,3.96,0,0-8.74-2.63-9.14-2.54-.39.09-9.61,3.46-9.61,3.46l23.22,34.48s3.63,7.14,29.62-8.24h0Z" fill="#d15000" fill-rule="evenodd" stroke-width="0"/><path d="m616.8,260.85c-1.67-.49-2.13-1.35-2.14-1.38l-23.22-34.48-.07-.1.11-.04c.38-.14,9.23-3.37,9.62-3.46.39-.1,7.63,2.08,9.16,2.54.35-.1,4.22-1.25,6.12-3.92,1.73-2.43,4.89-7.21,6.58-11.88,1.2-3.31.9-4.75.69-5.26l-.51-.89.52.53s.09.1.17.3l1.44,2.52c11.06,10.03,23.87,39.53,24,39.82l.02.05-4.88,6.03-.03.02c-13.22,7.83-20.74,9.92-25,9.92-1.05,0-1.91-.13-2.6-.33Zm32.29-15.67c-.61-1.41-13.13-29.92-23.94-39.72l-1.14-1.98c.11.83.02,2.28-.86,4.71-1.7,4.69-4.87,9.48-6.61,11.92-2.02,2.84-6.21,3.99-6.25,4h-.03s-.03,0-.03,0c-3.42-1.03-8.61-2.54-9.07-2.54,0,0-.01,0-.02,0-.3.07-6.27,2.24-9.49,3.41l23.16,34.39s.45.84,2.05,1.3c6.59,1.89,20-5.18,27.42-9.57l4.79-5.93Z" fill="#d15000" stroke-width="0"/><path d="m642.8,250.67l3.11,1.01s12.17,21.14,11.93,22.23c-.24,1.09-1.94,1.09-3.63,1.09-1.69,0-4.6-1.21-4.6-1.21l-21.98-8.16s14.36-12.29,15.17-14.96h0Z" fill="#a32f00" fill-rule="evenodd" stroke-width="0"/><polygon points="639.7 256 644.54 265.08 632.44 260.6 639.7 256 639.7 256" fill-rule="evenodd" stroke-width="0"/><path d="m636.55,276.81c-.03-1.81,13.84-2.64,13.84-2.64l-26.83-13.54-12.91,26.1,25.89-9.92h0Z" fill="#2c2927" fill-rule="evenodd" stroke-width="0"/><path d="m598.24,246.1l-.92-22.63s-41.19-36.66-94.91-61.11l-45.01,6.78-86.96,1.66,4.92,1.02,19.41,5.17,42.23,12.98,34.52,13.4,77.8,36.06,48.93,6.67h0Z" fill="#d64b00" fill-rule="evenodd" stroke-width="0"/><path d="m613.58,282.76l1.08-7.35,35.73-1.23s-3.57,9.74-21.96,22.81c-18.39,13.07-54.98,18-54.98,18,0,0,4.53-33.59,40.13-32.23h0Z" fill="#d64b00" fill-rule="evenodd" stroke-width="0"/><path d="m572.15,314.81c.05-.34,5-34.03,40.3-33.39l1.07-7.28,38.76-1.34-.67,1.82c-.15.41-3.92,10.27-22.43,23.42-7.76,5.51-19.48,10.26-34.83,14.1-11.39,2.85-20.65,4.11-20.74,4.13l-1.7.23.23-1.7Zm43.64-38.13l-1.09,7.43-1.17-.05c-29.78-1.13-37.01,22.58-38.47,29.36,7.54-1.19,37-6.4,52.61-17.5,13.18-9.36,18.62-17.01,20.56-20.36l-32.44,1.12Z" stroke-width="0"/><path d="m592.79,245.38l-2.66,28.31-16.69,41.29,11.6-8.38s22.99-6.05,37.99-15.73c15-9.68,18.88-15.97,18.88-15.97l-27.26.51-21.87-30.03h0Z" fill="#16151a" fill-rule="evenodd" stroke-width="0"/><path d="m472.93,254.13l-2.15-18.8,51,6.85,11.92-5.93,41.41-2.24s12.13-1.38,13.52-1.8c1.39-.42.48-3.39.68-4.69.2-1.3,2.66-3.02,3.28-3.19.62-.17,4.72-.86,4.72-.86,0,0,22.09,23.12,31.29,37.4,0,0-27.89,17.64-55.09,19.98-27.19,2.34-108.51,10.03-100.59-26.72h0Z" fill="#d64b00" fill-rule="evenodd" stroke-width="0"/><path d="m531.51,237.34l3.52-1.16,3.49-.19s-5.31,13.2-7.61,15.86c-2.3,2.66-59.04-7.12-59.04-7.12l-10.63-15.3,70.28,7.91h0Z" fill="#f7f2ec" fill-rule="evenodd" stroke-width="0"/><path d="m491.71,287.21l24.28-16.52-55.79-43.64-19.46-12.33-65.6-9.39s18.18,15.81,21.66,26.56c3.48,10.75,14.64,26.5,16.82,27.47,2.18.97,78.1,27.84,78.1,27.84h0Z" fill="#d64b00" fill-rule="evenodd" stroke-width="0"/><path d="m515.39,271.1l-125.04-49.98c2.9,3.67,5.38,7.46,6.45,10.78,3.48,10.75,14.64,26.5,16.82,27.47,2.18.97,78.1,27.84,78.1,27.84l23.68-16.1h0Z" fill="#d15000" fill-rule="evenodd" stroke-width="0"/><path d="m523.38,284.81l-12.82-10.2-104.58-26.92s3.44,48.49,2.66,55.36c-.78,6.87,32.2,9.51,32.2,9.51,0,0,71.63-3.63,82.54-27.75h0Z" fill="#b23904" fill-rule="evenodd" stroke-width="0"/><path d="m570.7,323.71s18.63-24.78,20.93-29.74c2.3-4.96,8.52-10.95,8.52-10.95l-32.29-2.38-25.56,34.4s4.85,3.08,28.41,8.67h0Z" fill="#d15000" fill-rule="evenodd" stroke-width="0"/><path d="m596.6,286.81l-2.67,2.2-26.7,33.86c1.11.27,2.27.55,3.48.84,0,0,18.63-24.78,20.93-29.74,1.12-2.41,3.17-5.07,4.97-7.16h0Z" fill="#f1b706" fill-rule="evenodd" stroke-width="0"/><path d="m553.07,315.82c.27-.69,38.37-29.71,38.37-29.71,0,0-4.61-2.72-7.88-1.87-3.27.85-37.39,28.07-37.39,28.07,0,0-1.21,5.57,6.9,3.51h0Z" fill="#a32f00" fill-rule="evenodd" stroke-width="0"/><polygon points="495.92 301.45 470.11 304.63 408.69 302.18 407.95 316.33 492.65 329.52 570.7 323.71 571.3 322.19 495.92 301.45 495.92 301.45" fill="#d64b00" fill-rule="evenodd" stroke-width="0"/><polygon points="541.56 300.55 552.27 314.71 571.64 322.32 497.25 326.31 478.05 311.87 541.56 300.55 541.56 300.55" fill="#d15000" fill-rule="evenodd" stroke-width="0"/><path d="m490.81,309.08c-.1-1.02-20.09-5.26-20.09-5.26l-.6.81,27.71,22.11,64.37-3.51-63.77,1.94-12.41-9.54,4.79-6.55h0Z" fill="#f1b706" fill-rule="evenodd" stroke-width="0"/><path d="m649.2,245.19s-5.81,6.05-13.55,9.92c-7.74,3.87-32.91,14.76-40.9,16.21-7.99,1.45-82.04-.73-82.04-.73l-42,33.22,140.13-25.96,28.55-18.33s6.91-6.24,9.81-14.34h0Z" fill="#d15000" fill-rule="evenodd" stroke-width="0"/><path d="m624.9,269.53l1.91,1.13s-3.36,4.8-9.77,9.76c-6.41,4.96-25.41,13.55-25.41,13.55l2.3-4.96-4.96-5.81,35.94-13.67h0Z" fill="#2e2e31" fill-rule="evenodd" stroke-width="0"/><path d="m639.39,259.53l-12.58,11.13-36.54,14.28-37.99,29.77-64.62,2.18-16.94-13.07,42.23-28.25,82.16,2.36s28.31-8.71,44.29-18.39h0Z" fill-rule="evenodd" stroke-width="0"/><polygon points="482.25 308.9 545.33 302.59 581.31 279.23 515.89 276.89 475.94 304.23 482.25 308.9 482.25 308.9" fill="#232329" fill-rule="evenodd" stroke-width="0"/><path d="m550.29,281.16l1.9-.29.68-.76,1.98.07-.32.36-.87.98,1.03.69,1.03.69,1.9-.29,1.9-.29.87-.98.83-.93,4.72.17-1.45.22-1.9.29-.87.98-.87.98,1.03.69,1.03.69,1.9-.29,1.9-.29.87-.98.87-.98-1.03-.69-.89-.6,2.64.09.55.37,1.85-.28,1.95.07-2.3,1.49-1.36.21-.87.98-.58.64-1.85,1.2-1.62.24-1.9.29-.87.98-.87.98.71.47-1.19.77-.71-.48-1.9.29-1.9.29-.87.98-.87.98,1.03.69.5.33-1.31.85-.51-.34-1.03-.69-1.9.29-1.9.29-.87.98-.87.98,1.03.69,1.03.69.78-.12-2.81,1.82.84-.93-1.03-.69-1.03-.69-1.9.29-1.9.29-.87.98-.87.98,1.03.69,1.03.69,1.9-.29,1.04-.16-3.18,2.06-1.59.16.75-.84-1.03-.69-1.03-.69-1.9.29-1.9.29-.87.98-.87.98.49.33-7.26.73.31-.35-1.03-.69-1.03-.69-1.9.29-1.9.29-.87.98-.8.9-10.24,1.03-1.04-.8-1.04-.8-1.92.07-1.92.07-.88.87-.88.87.56.43-7.75.78.72-.7-1.04-.8-1.04-.8-1.92.07-1.92.07-.88.87-.88.87,1.04.8.26.2-1.85.18-.53-.41-1.92.07-1.92.07-.8.79-1.69.17-.2-.14.49-.48.88-.87-1.04-.8-1.04-.8-1.92.07-.45.02,6.29-4.3.8-.03,1.92-.07.88-.87.88-.87-.85-.66,1.1-.76.84.64,1.92-.07,1.92-.07.88-.87.88-.87-1.04-.8-1.04-.8h-.25s1.48-1,1.48-1l-.05.05,1.04.8,1.04.8,1.92-.07,1.92-.07.88-.87.88-.87-1.04-.8-1.04-.8-1.92.07-1.13.04,2.31-1.58.61-.02.88-.87.44-.44,1.96-1.34,1.72-.06,1.92-.07.88-.87.88-.87-1.04-.8-.22-.17,1.28-.87.12.09,1.04.8,1.92-.07,1.92-.07h.01s.01,0,.01,0l1.9-.29,1.9-.29.87-.98.87-.98-1.03-.69-1.03-.69-1.9.29-1.9.29h-.01s-.01,0-.01,0l-.98.04,2.46-1.69,3.68.13-.15.17,1.03.69,1.03.69,1.9-.29,1.9-.29.67-.74,1.98.07-.31.34-.87.98,1.03.69,1.03.69,1.9-.29,1.9-.29.87-.98.82-.92,4.65.17-1.36.21-1.9.29-.87.98-.87.98,1.03.69,1.03.69,1.9-.29,1.9-.29.87-.98.87-.98-1.03-.69-.87-.58,2.61.09.36.24,1.23-.19,4.07.15-.16.18,1.03.69,1.03.69,1.9-.29h0Zm-3.97,2.03l.87-.98-1.03-.69-1.03-.69-1.9.29-1.9.29-.87.98-.87.98,1.03.69,1.03.69,1.9-.29,1.9-.29.87-.98h0Zm-14.68,2.92l.87-.98.87-.98-1.03-.69-1.03-.69-1.9.29-1.9.29-.87.98-.87.98,1.03.69,1.03.69,1.9-.29,1.9-.29h0Zm-6.15.73l-1.03-.69-1.9.29-1.9.29-.87.98-.87.98,1.03.69,1.03.69,1.9-.29,1.9-.29.87-.98.87-.98-1.03-.69h0Zm-7.9,1.12l.87-.98.87-.98-1.03-.69-1.03-.69-1.9.29-1.9.29h-.01s-.01,0-.01,0l-1.92.07-1.92.07-.88.87-.88.87,1.04.8,1.04.8,1.92-.07,1.92-.07h.01s.01,0,.01,0l1.9-.29,1.9-.29h0Zm22.99-2.28l-1.03-.69-1.03-.69-1.9.29-1.9.29-.87.98-.87.98,1.03.69,1.03.69,1.9-.29,1.9-.29.87-.98.87-.98h0Zm-7.77,2.61l-1.03-.69-1.9.29-1.9.29-.87.98-.87.98,1.03.69,1.03.69,1.9-.29,1.9-.29.87-.98.87-.98-1.03-.69h0Zm-14.78,4.49l.87-.98.87-.98-1.03-.69-1.03-.69-1.9.29-1.9.29h-.01s-.01,0-.01,0l-1.92.07-1.92.07-.88.87-.88.87,1.04.8,1.04.8,1.92-.07,1.92-.07h.01s.01,0,.01,0l1.9-.29,1.9-.29h0Zm8.06.54l.87-.98-1.03-.69-1.03-.69-1.9.29-1.9.29-.87.98-.87.98,1.03.69,1.03.69,1.9-.29,1.9-.29.87-.98h0Zm-5.86,2.32l-1.03-.69-1.03-.69-1.9.29-1.9.29h-.01s-.01,0-.01,0l-1.92.07-1.92.07-.88.87-.88.87,1.04.8,1.04.8,1.92-.07,1.92-.07h.01s.01,0,.01,0l1.9-.29,1.9-.29.87-.98.87-.98h0Zm23.46-9.7l-1.9.29-.87.98-.87.98,1.03.69,1.03.69,1.9-.29,1.9-.29.87-.98.87-.98-1.03-.69-1.03-.69-1.9.29h0Zm-4.72,3.17l-1.9.29-1.9.29-.87.98-.87.98,1.03.69,1.03.69,1.9-.29,1.9-.29.87-.98.87-.98-1.03-.69-1.03-.69h0Zm-5.71,3.99l-1.03-.69-1.9.29-1.9.29-.87.98-.87.98,1.03.69,1.03.69,1.9-.29,1.9-.29.87-.98.87-.98-1.03-.69h0Zm-6.87,3.37l-1.03-.69-1.9.29-1.9.29-.87.98-.87.98,1.03.69,1.03.69,1.9-.29,1.9-.29.87-.98.87-.98-1.03-.69h0Zm-5.71,3.99l-1.03-.69-1.03-.69-1.9.29-1.9.29h-.01s-.01,0-.01,0l-1.92.07-1.92.07-.88.87-.88.87,1.04.8,1.04.8,1.92-.07,1.92-.07h.01s.01,0,.01,0l1.9-.29,1.9-.29.87-.98.87-.98h0Zm-12.07-2l-1.04-.8-1.92.07-1.92.07-.88.87-.88.87,1.04.8,1.04.8,1.92-.07,1.92-.07.88-.87.88-.87-1.04-.8h0Zm-6.77,4.44l.88-.87-1.04-.8-1.04-.8-1.92.07-1.92.07-.88.87-.88.87,1.04.8,1.04.8,1.92-.07,1.92-.07.88-.87h0Zm6.48-7.6l.88-.87-1.04-.8-1.04-.8-1.92.07-1.92.07-.88.87-.88.87,1.04.8,1.04.8,1.92-.07,1.92-.07.88-.87h0Zm-7.08,1.11l-1.04-.8-1.92.07-1.92.07-.88.87-.88.87,1.04.8,1.04.8,1.92-.07,1.92-.07.88-.87.88-.87-1.04-.8h0Zm-5.74,3.62l-1.04-.8-1.04-.8-1.92.07-1.92.07-.88.87-.88.87,1.04.8,1.04.8,1.92-.07,1.92-.07.88-.87.88-.87h0Zm-6.69,2.64l-1.04-.8-1.04-.8-1.92.07-1.92.07-.88.87-.88.87,1.04.8,1.04.8,1.92-.07,1.92-.07.88-.87.88-.87h0Zm19.07-12.19l.88-.87-1.04-.8-1.04-.8-1.92.07-1.92.07-.88.87-.88.87,1.04.8,1.04.8,1.92-.07,1.92-.07.88-.87h0Zm22.92,7.03l-1.9.29-.87.98-.87.98,1.03.69,1.03.69,1.9-.29,1.9-.29.87-.98.87-.98-1.03-.69-1.03-.69-1.9.29h0Zm6.74-3.3l-1.9.29-.87.98-.87.98,1.03.69,1.03.69,1.9-.29,1.9-.29.87-.98.87-.98-1.03-.69-1.03-.69-1.9.29h0Zm3.84-2.2l-.87.98,1.03.69,1.03.69,1.9-.29,1.9-.29.87-.98.87-.98-1.03-.69-1.03-.69-1.9.29-1.9.29-.87.98h0Zm-16.17-8.34l.87-.98-1.03-.69-1.03-.69-1.9.29-1.9.29-.87.98-.87.98,1.03.69,1.03.69,1.9-.29,1.9-.29.87-.98h0Zm23.33-.75l-.87.98-.87.98,1.03.69,1.03.69,1.9-.29,1.9-.29.87-.98.87-.98-1.03-.69-1.03-.69-1.9.29-1.9.29h0Zm-.42,5.79l-.87.98,1.03.69,1.03.69,1.9-.29,1.9-.29.87-.98.87-.98-1.03-.69-1.03-.69-1.9.29-1.9.29-.87.98h0Zm6.87-3.37l-.87.98,1.03.69,1.03.69,1.9-.29,1.9-.29.87-.98.87-.98-1.03-.69-1.03-.69-1.9.29-1.9.29-.87.98h0Z" fill-rule="evenodd" stroke-width="0"/><path d="m538.74,234.93s-55.42-26.41-86.71-38.89l1.99-.58c30.99,12.23,88.17,39.47,88.17,39.47h-3.45Zm-5.77-.05c24.16.85,55.08-2.77,55.79-3.13.73-.36-.12-5.57.85-6.41.97-.85,9.32-4.11,11.74-4.48,2.42-.36,9.44,2.66,9.44,2.66,0,0,5.81-3.39,9.32-9.56,2.31-4.06,3.36-7.8,3.81-9.89h0s-.33-.34-.33-.34l-20.63-26.98,14.1,12.46,10.1,12.34,3.39,9.2-6.24-6.29c-.46,2.07-1.6,6.46-3.71,10.77-2.9,5.9-9.57,9.45-9.57,9.45,0,0-6.76-2.92-9.18-2.55-2.42.36-10.77,3.63-11.74,4.48-.97.85-.12,6.05-.85,6.41-.7.35-29.82,4.15-53.82,3.38.19-.54.31-.86.31-.86-.92-.22-1.84-.44-2.76-.66h0Z" fill-rule="evenodd" stroke-width="0"/><path d="m457.94,198.43c-3.99-1.65-7.71-3.14-11.04-4.41-29.89-11.37-76.47-23.23-76.47-23.23h2.24c6.99,1.76,50.27,12.8,77.68,23.23,3.35,1.28,7.11,2.78,11.14,4.45l-3.55-.04h0Z" fill-rule="evenodd" stroke-width="0"/><path d="m535.72,235.54s-3.02,8.71-4.6,10.89c-1.57,2.18-.85,2.78-10.41,2.18-9.56-.61-31.82-3.03-35.09-4.48-3.27-1.45-41.75-25.29-43.32-26.86-1.57-1.57-1.57-2.54-1.57-2.54,0,0,35.33,6.53,94.99,20.81h0Z" fill-rule="evenodd" stroke-width="0"/><path d="m527.47,238.32s-1.94,5.58-2.95,6.98c-1.01,1.4-.54,1.78-6.67,1.4-4.35-.28-23.71-2.61-35.29-4.27-9.15-5.34-34.67-21.18-39.51-24.59,18.08,4.43,56.22,13.74,84.41,20.48h0Z" fill="#232329" fill-rule="evenodd" stroke-width="0"/><path d="m483.92,230.12l2.48,8.05,1.27,2.36-35.45-19.6-4.84-1.69,39.08,23.84,17.97,2.18-13.98-5.45-2.36-6.96-4.17-2.72h0Zm26.14,1.21l4.54,10.95,7.74,4.36,5.93.3.79-1.51-4.84-.18-5.26-2.42-5.26-10.77-3.63-.73h0Zm-31.7-6.53s12.71,8.23,18.15,12.22c5.45,3.99,16.46,9.32,16.46,9.32l8.47.61s-7.87-4.24-15.85-8.59c-7.99-4.36-18.63-11.74-18.63-11.74l-8.59-1.82h0Z" fill="#d1cfcc" fill-rule="evenodd" stroke-width="0"/><path d="m516.88,238.6l-4.17-.85,1.88,4.54,7.74,4.36,5.93.3.79-1.51-4.84-.18-5.26-2.42-2.07-4.23h0Zm-16.76-3.41l-8.8-1.79c1.98,1.35,3.81,2.62,5.18,3.63,5.45,3.99,16.46,9.32,16.46,9.32l8.47.61s-7.87-4.24-15.85-8.59c-1.74-.95-3.6-2.04-5.46-3.17h0Zm-12.28-2.5l-3.35-.68,1.9,6.17,1.27,2.36-22.56-12.48-4.91-1,26.26,16.01,17.97,2.18-13.98-5.45-2.36-6.96-.24-.16h0Z" fill="#bbb7b4" fill-rule="evenodd" stroke-width="0"/><path d="m484.94,230.79l2.06,6.68,1.27,2.36-1.39-.77.79,1.47-35.45-19.6-.74-.26,35.58,21.7,14.49,1.76-11.1-4.32-2.36-6.96-3.16-2.06h0Zm29.63,11.42l.03.08,6.98,3.93.46.03s-3.14-1.69-7.47-4.03h0Zm14.07,4.02l.42-.8-4.84-.18-5.26-2.42-5.26-10.77-2.66-.53,4.17,10.06,7.74,4.36,5.7.29h0Zm-8.8-.14c-2.7-1.46-8.45-4.56-14.26-7.73-7.99-4.36-18.63-11.74-18.63-11.74l-6.11-1.29c3.74,2.44,12.12,7.95,16.27,11,5.45,3.99,16.46,9.32,16.46,9.32l6.28.45h0Z" fill="#f0ecea" fill-rule="evenodd" stroke-width="0"/><path d="m484.94,230.79l.47,1.51,2.67.53-3.13-2.04h0Zm-19.32-2.45l-13.4-7.41-.74-.26,11.81,7.2,2.33.47h0Zm51.27,10.26l-3.19-.64-2.66-6.43,2.66.53,3.2,6.54h0Zm-16.62-3.33l-6.48-1.3c-4.35-3.01-10.05-6.75-12.96-8.65l6.11,1.29s6.61,4.58,13.32,8.66h0Z" fill="#fffcf8" fill-rule="evenodd" stroke-width="0"/><polygon points="615.77 189.23 622.67 200.66 626.18 204.72 626.1 204.59 626.98 205.69 627.36 205.93 627.69 206.05 625.58 200.97 620.62 194.07 624.91 201.06 626.09 204.59 615.77 189.23 615.77 189.23" fill="#fffcf8" fill-rule="evenodd" stroke-width="0"/><path d="m600.85,234.51s9.73,13.04,22.79,19.42c0,0,.47-6.09-3.56-13.04-4.04-6.96-8.55-11.02-8.55-11.02,0,0-6.41-2.03-10.68,4.64h0Z" fill-rule="evenodd" stroke-width="0"/><path d="m329.19,197.12l16.85-28.27-30.18,6.83-2.66,11.62,11.87,10.74s1.52-.41,4.13-.92h0Z" fill="#e07000" fill-rule="evenodd" stroke-width="0"/><path d="m408.04,314.65s1.44-25.18-2.33-52.58c-4.11-29.89-29.86-63.59-57.45-65.28-27.59-1.69-37.99,30.49-36.54,50.82,1.45,20.33,6.05,37.99,6.05,37.99l-4.12-6.29-1.51-.67s-13.37-53.66,7.68-75.93c21.05-22.26,53.24-10.41,75.99,22.51,22.75,32.91,12.22,89.42,12.22,89.42h0Z" fill="#a32f00" fill-rule="evenodd" stroke-width="0"/><polygon points="374.83 208.08 379.3 206.38 441.12 215.77 441.3 214.83 378.31 205.53 373.81 207.28 374.83 208.08 374.83 208.08" fill="#5b1e00" fill-rule="evenodd" stroke-width="0"/><path d="m408.97,249.75l-8.07-5.56-.63-1.54,28.58,8.92s-1.57,2.72-2.72,3.24c-1.15.51-22.63-3.04-22.63-3.04l5.48-2.01h0Z" fill="#4b4e56" fill-rule="evenodd" stroke-width="0"/><path d="m427.85,252.53s-1.09,1.69-2.06,1.94c-.97.24-22.3-2.7-22.3-2.7l-2.6-7.57,26.95,8.34h0Z" fill="#f1b706" fill-rule="evenodd" stroke-width="0"/><path d="m316.27,279.07l-116.51-53.88-29.12-4.6,1,5.37,27.59,14.28,110.39,42.42s6.49,2.37,6.65-3.59h0Z" fill="#d64b00" fill-rule="evenodd" stroke-width="0"/><path d="m164.99,228.25c-.66,1.81,118.58,39.93,118.58,39.93l-92.82-41.97s-25.51-9.01-25.76,2.04h0Z" fill="#d15000" fill-rule="evenodd" stroke-width="0"/><polygon points="166.66 214.31 155.29 210.97 156.26 229.08 317.78 285.61 315.72 282.46 205.14 241.42 181.11 227.15 166.66 214.31 166.66 214.31" fill="#b23904" fill-rule="evenodd" stroke-width="0"/><polygon points="155.91 211.15 157.59 227.62 317.78 285.61 156.26 229.08 155.29 210.97 155.91 211.15 155.91 211.15" fill="#d64b00" fill-rule="evenodd" stroke-width="0"/><polygon points="191.96 213.51 194.62 209.88 202.97 209.88 189.66 206.13 155.29 210.97 194.5 235.54 176.1 220.65 191.96 213.51 191.96 213.51" fill="#d64b00" fill-rule="evenodd" stroke-width="0"/><path d="m191.54,206.66c-7.13,2.85-21.28,8.55-22.45,9.27-.73.45-1.3,1.39-1.36,2.83l26.77,16.77-18.39-14.88,15.85-7.14,2.66-3.63h8.35l-11.43-3.22h0Z" fill="#d15000" fill-rule="evenodd" stroke-width="0"/><path d="m194.62,209.88l6.05,14.28-1.81,2.06h-16.21s-8.71-5.93-8.71-5.93c0,0-.61-.85.73-1.69,1.33-.85,19.97-8.71,19.97-8.71h0Z" fill-rule="evenodd" stroke-width="0"/><path d="m195.86,161.95l15.61,8.23s-5.84-7.81-15.61-8.23h0Zm-1.69,6.05s13.79,6.53,14.4,6.66c.6.12-9.44.12-14.4-6.66h0Z" fill-rule="evenodd" stroke-width="0"/><path d="m211.23,172l-17.38-7.46c.1-1.37.58-2.62,2.01-2.59l15.61,8.23s0,.85-.23,1.82h0Z" fill="#f1b706" fill-rule="evenodd" stroke-width="0"/><path d="m111.04,191.88s-1.45-19.97.48-29.77c1.94-9.8,10.16-15.73,19-9.32,8.83,6.41,19.9,25,24.77,58.18,0,0-3.35-30.71-13.52-49.83-10.16-19.12-37.51-29.77-30.74,30.73h0Z" fill="#a32f00" fill-rule="evenodd" stroke-width="0"/><path d="m154.48,205.04c-1.51-9.87-5.3-29.97-12.71-43.9-.1-.18-.19-.36-.29-.54,15.72,15.25,38.27,40.44,38.27,40.44l-25.26,4h0Z" fill="#d64b00" fill-rule="evenodd" stroke-width="0"/><path d="m199.86,127.31c-1.82.17-1.77,1.9-2.35,2.01-1.66.33-16.09,4.78-24.95,7.53,2.63,2.85,8.95,8.77,14.88,13.33,9.2-2.25,20.46-7.38,28.58-10.07-4.11-2.72-10.35-7.1-14.7-11.24l-1.47-1.57Z" fill="#d15000" fill-rule="evenodd" stroke-width="0"/><path d="m199.06,127.92c-1.82.17-.97,1.28-1.55,1.4-1.66.33-16.09,4.78-24.95,7.53-2.17-2.35-3.24-3.8-3.24-3.8l28.56-8c.87,1.21.59.94,1.98,2.25l-.8.61Z" fill="#a32f00" fill-rule="evenodd" stroke-width="0"/><path d="m305.45,282.74l-.08-1.13c-.24-3.57-5.81-87.57,9.11-106.98l.38-.5,37.46-8.48.32.05c.36.05,36.69,5.3,97.53,1.3,25.02-1.64,68.53-6.25,78.79-18.67,1.51-1.83,2.12-3.65,1.88-5.58l-.34-2.72,2.61.85c1.93.63,47.51,15.62,70.92,34.52,23.28,18.79,45.19,43.66,45.4,43.91l.4.46,1.12,25.93-10.43,15.25-45.1,18.73-79.57-1.04h-.23s-115.22-32.77-115.22-32.77l-.69-.2-.35-.63c-.2-.36-20.52-36.56-39.78-43.47-8.56-3.07-16.78-2.89-23.78.52-7.88,3.83-13.94,11.58-17.54,22.41-7.44,22.39-.02,59.71.05,60.09l.61,3.04-13.49-4.89Zm55.32-84.45c8.67,3.11,18.32,11.66,28.7,25.43,6.51,8.63,11.28,16.72,12.59,18.99l114.09,32.44,78.62,1.02,43.48-18.06,9.19-13.44-1.02-23.54c-3.08-3.46-23.25-25.83-44.57-43.04-20.01-16.15-57.96-29.85-67.56-33.16-.28,1.95-1.16,3.82-2.63,5.6-8.34,10.1-36.43,16.99-81.24,19.93-58.13,3.81-94.15-.77-97.94-1.29l-35.59,8.06c-12.79,18.13-8.72,92.87-8.1,103l5.59,2.02c-.65-3.79-1.72-10.81-2.36-19.02-1.29-16.63-.3-30.04,2.96-39.84,3.9-11.73,10.58-20.19,19.32-24.44,4.18-2.03,8.72-3.05,13.48-3.05,4.2,0,8.57.79,13,2.38Z" stroke-width="0"/><path d="m316.04,286.58l1.15-3.29-157.93-55.13-.92-17.1c-3.25-22.1-11.64-49.3-25.47-59.34-4.96-3.6-10.34-3.98-14.76-1.04l-.21.16c-1.27,1.15-2.36,2.21-3.25,3.16l-.14.16c-.5.68-.96,1.41-1.36,2.19.44-2.56,1.02-5.31,1.74-8.39,2.65-11.26,4.55-13.67,4.63-13.76l.4-.41.02-.51c.05-.34.04-.63.04-.84,0-.03,0-.06,0-.09,1.41-1.3,11.99-4.42,15.52-5.46,17.43-5.14,59.78-1.33,64.34-.9l42.45,26.04-.2.44,1.75.64c15.01,5.53,37.24,13.58,57.9,20.59,1.12.38,2.24.76,3.35,1.13l.09.03c1.08.36,2.16.73,3.24,1.08l3.49,1.16.61-1.63.54-1.66-3.53-1.17c-1.07-.36-2.15-.72-3.23-1.08l-.08-.03c-1.11-.37-2.22-.75-3.34-1.13-20.22-6.86-41.96-14.73-56.94-20.24l-44.95-27.57-.4-.04c-1.91-.19-47.08-4.61-66.06.99-16.43,4.85-18.05,5.96-18.02,8.9-.87,1.33-2.72,5.04-5,14.72-3,12.77-3.43,20.01-3.25,31.4.18,11.46,2.29,14.32,2.93,14.92l3.14,2.94-.21-4.3s-.22-4.51-.43-9.1c-.18-6.26-.17-14.88.89-20.25.49-2.46,1.42-4.7,2.7-6.47.79-.83,1.76-1.77,2.88-2.8,3.17-2.04,6.96-1.68,10.68,1.02,8.49,6.16,19.26,24.35,24.06,56.94l1.02,19.19,160.13,55.9Z" stroke-width="0"/><polygon points="406.99 172.47 421.31 152.88 396.99 143.47 395.42 147.54 414.45 154.89 403.48 169.9 406.99 172.47" stroke-width="0"/><path d="m492.58,331.28l.23-.02,79.79-7.27,26.82-38.15-9.52-2.81-38.25,29.97-63.42,2.14-14.53-11.21,40.22-26.91-1.94-2.9-44.24,29.6,19.36,14.93,65.81-2.22,37.74-29.56,3.14.93-23.1,32.87-77.95,7.1-82.87-14.57c.14-3.7.45-13.78.15-26.83-.38-16.66-7.14-41.58-7.42-42.63l-3.36.92c.07.25,6.93,25.57,7.3,41.8.38,16.37-.21,28-.21,28.11l-.08,1.54,86.35,15.18Z" stroke-width="0"/><polygon points="614.72 277.15 660.7 275.55 647.45 250.86 644.38 252.51 654.99 272.27 614.6 273.67 614.72 277.15" stroke-width="0"/><g opacity=".32"><path d="m335.48,134.62c-1.65-7.89-6.42-40.76-6.42-40.76-.03-2.56,2.13-3.03,2.13-3.03,0,0,98.31-3.11,113.3-5.57,15.7-2.57,44.82-9.52,47.99-10.41,3.17-.88,4.39,1.36,4.39,1.36,2.37,2.9,18.12,29.67,22.32,37.49,8.58,15.99,13.58,29.65,10.3,35.32-2.82,4.87-18.4,7.92-38.34,12.44-20.36,4.62-129.88,14.53-140.89,8.18-10.16-5.86-12.41-23.7-14.78-35.04Z" fill="#303742" stroke-width="0"/></g><path d="m494.07,69.07c-6.01,1.37-28.39,6.02-43.13,9.27-17.3,3.81-109.8,8.6-119.41,10.06-2.4.37-1.94,2.95-1.94,2.95,2.51,11.69,6.23,31.69,7.99,41.89,2.09,12.1,4.9,30.92,15.67,37.13,11.66,6.73,118.08-1.71,139.66-6.6,21.14-4.79,37.65-8.03,40.64-13.19,3.48-6-4.72-25.3-13.81-42.24-1.42-2.5-2.84-4.95-3.91-6.78-4.52-7.74-13.49-22.54-19.06-31.16,0,0-.83-1.74-2.68-1.32Zm-2.92,92.4c-20.36,4.62-124.2,12.63-135.2,6.28-10.16-5.86-12.41-23.7-14.78-35.04-1.65-7.89-6.43-36.41-6.43-36.41-.03-2.56,2.13-3.03,2.13-3.03,0,0,92.64-5.56,107.63-8.02,15.7-2.57,44.82-9.52,47.99-10.41,3.17-.88,4.39,1.36,4.39,1.36,2.37,2.9,18.12,29.67,22.32,37.49,8.58,15.99,13.58,29.65,10.3,35.32-2.82,4.87-18.4,7.92-38.34,12.44Z" fill="#202129" stroke-width="0"/><g opacity=".2"><path d="m444.49,85.27c15.7-2.57,44.82-9.52,47.99-10.41,3.17-.88,4.39,1.36,4.39,1.36,2.37,2.9,18.12,29.67,22.32,37.49,8.58,15.99,13.58,29.65,10.3,35.32-1.59,2.75-7.26,4.92-15.48,7.1-9.84-15.96-32.43-44.63-78.12-69.49,3.18-.5,6.12-.96,8.59-1.37Z" fill="#fff" stroke-width="0"/></g><path d="m316.84,174.57s18.41-1.28,18.84,12.56c.43,13.84-12.37,15.4-12.37,15.4,0,0-4.84-.95-12.45-10.91-9.91-12.96-5.86-16.33-3.06-18.54" stroke-width="0"/><polygon points="309.81 181.37 309.98 177.02 276.31 175.67 289.26 146.64 285.29 144.86 269.71 179.76 309.81 181.37" stroke-width="0"/><path d="m248.1,167.05l-1.67-2.39-2.3-2.84s4.05-6.9,5.39-7.99c1.33-1.09,28.8-2.18,28.8-2.18,0,0,10.16,2.84,15.91,7.08,5.75,4.24,4.36,8.17,4.36,8.17l-3.63,1.51-41.87,1.09-4.99-2.45h0Z" fill="#e25a00" fill-rule="evenodd" stroke-width="0"/><path d="m265.67,169.56l-6.29-2.78s-5.32-1.57-9.56-2.66c-4.24-1.09-5.69-2.3-5.69-2.3,0,0,2.66,8.23,8.11,11.13l13.43-3.39h0Z" fill="#bf2c00" fill-rule="evenodd" stroke-width="0"/><polygon points="293.14 170.43 295.29 171.12 293.87 181.08 285.27 186.88 281.28 185.43 285.4 175.15 293.14 170.43 293.14 170.43" fill="#930" fill-rule="evenodd" stroke-width="0"/><polygon points="282.49 170.06 282.63 172.94 277.29 183.01 281.28 185.43 289.99 171.76 282.49 170.06 282.49 170.06" fill="#b74600" fill-rule="evenodd" stroke-width="0"/><path d="m280.98,186.25l-4.85-2.92,5.62-10.59-.19-3.78,7.19,1.62-.8-2.83,5.46,1.84,2.85.92-1.58,11.06-9.28,6.27-4.41-1.6Zm13.34-14.52l-3.79-1.26.7,2.47-7.81-1.76.1,1.97-5.07,9.56,3.22,1.95,3.49,1.27,7.9-5.34,1.26-8.84Z" stroke-width="0"/><path d="m298.59,166.9s-2.78,4.24-4.36,5.08c-1.57.85-37.03,2.06-39.33,1.69-2.3-.36-2.66-.73-2.66-.73,0,0,2.18-.36,4.6-3.02,2.42-2.66,2.54-3.15,2.54-3.15,0,0,32.91.48,39.2.12h0Z" fill="#d15000" fill-rule="evenodd" stroke-width="0"/><path d="m254.77,174.53c-1.52-.24-2.53-.53-2.99-.85-5.65-3.06-8.36-11.25-8.47-11.6l-.12-.37.2-.34c.42-.72,4.18-7.06,5.58-8.22,1.35-1.11,18.95-1.96,29.32-2.37h.14s.13.03.13.03c.42.12,10.38,2.94,16.19,7.22,6.2,4.56,4.73,8.97,4.66,9.16l-.09.19c-.3.45-2.95,4.45-4.67,5.37-.85.46-7.5.93-19.77,1.4-6.56.26-13.82.46-17.61.46-1.28,0-2.16-.02-2.49-.08Zm38.95-15.1c-5.21-3.84-14.31-6.56-15.5-6.9-10.11.4-26.49,1.3-28.18,2.01-.88.79-3.4,4.77-4.94,7.37.58,1.58,3.12,7.9,7.56,10.27l-.18.34.04.14.25-.41s.47.28,2.28.56c2.91.46,37.01-.97,38.78-1.6.98-.53,2.92-3.11,3.97-4.68.14-.57.62-3.64-4.07-7.1Zm-43.64-4.93s0,0,0,0c0,0,0,0,0,0h0Z" stroke-width="0"/><polygon points="199.06 127.92 175.9 134.72 179.67 137.99 194.28 133.71 199.06 127.92" fill="#000104" stroke-width="0"/><polygon points="197.88 125.05 169.32 133.05 135 130.94 160.63 123.86 197.88 125.05" fill="#e25a00" stroke-width="0"/><g mix-blend-mode="screen" opacity=".6"><path d="m62.48,81.68c58.77,28.59,119.93,52.18,177.03,84.2.91.51,1.18,2.48-.22,1.74-57.86-30.66-118.44-55.34-176.98-84.56-.75-.37-.96-1.92.17-1.38Z" fill="#d8d8d8" stroke-width="0"/><path d="m80.15,104.29c9.94,5.13,20.94,8.55,31.26,12.9,11.33,4.78,73.92,34.18,93.28,45.14.91.51,1.18,2.49-.21,1.73-21.49-11.46-85.65-42.29-95.97-46.78-9.42-4.11-19.38-7.23-28.48-12-.53-.28-.68-1.42.12-1Z" fill="#d8d8d8" stroke-width="0"/><path d="m144.78,136.81c29.29,15.26,60.02,27.65,88.53,44.43.86.5,1.14,2.41-.21,1.68-29.08-15.81-59.35-29.26-88.47-44.95-.61-.33-.8-1.65.15-1.16Z" fill="#d8d8d8" stroke-width="0"/><path d="m52.12,150.42c31.9,14.18,63.11,29.1,94.47,44.44.8.39,1.35,2.57.03,2-14.55-6.27-28.45-13.92-42.59-21.04-16.98-8.56-34.57-15.83-51.73-24.04-.54-.26-1.09-1.76-.18-1.36Z" fill="#d8d8d8" stroke-width="0"/><path d="m96.55,178.72c13.06,7.2,27.11,12.49,40.26,19.58.49.26.86,1.67.01,1.28-13.5-6.21-27.47-12.18-40.45-19.44-.74-.41-.96-2.04.18-1.42Z" fill="#d8d8d8" stroke-width="0"/></g></g></g></svg>