<?xml version="1.0" encoding="UTF-8"?><svg xmlns="http://www.w3.org/2000/svg" xmlns:xlink="http://www.w3.org/1999/xlink" viewBox="0 0 375.22 469.51"><defs><clipPath id="clippath"><path d="m130.11,118.26c-7.15,17.47-12.87,25.52-19.05,40.62-.44-23.1-1.87-25.42-4.81-53.74-3.55,24.97-3.8,36.36-7.75,58.05-5.81-23.49-7.34-20.59-14.76-57.69-1.97,33.8-1.65,30.58-1.21,63.03-7.63-22.6-15.3-42.08-22.91-70.61,3.99,41.95,3.19,57.29,5.72,83.87-6.95-14.37-20.18-29.02-25.58-41.87,3.76,19.89,9.43,38.05,12.66,59.94-13.63-16.96-23.82-39.55-32.2-50.9,12.67,42.96,30.71,101.19,43.09,130.16,1.75-20.38,15.32-41.38,40.09-18.75" fill="none" stroke-width="0"/></clipPath></defs><g isolation="isolate"><g id="Calque_1"><path d="m273.88,339.08c-.65-.79-60.06-1.96-60.97-1.26-.91.69-7.94,129.74-7.94,129.74,0,0,76.94-.02,77.61-1.63.67-1.6-7.78-125.72-8.7-126.85Z" fill="#00bcb2" stroke-width="0"/><path d="m209,396.19c1.75-29.96,3.49-58.05,3.92-58.38.91-.69,60.32.47,60.97,1.26.27.33,1.18,11.17,2.32,26.39-10.32,7.6-21.8,13.49-33.64,18.3-11.13,4.46-22.25,8.81-33.56,12.42Z" fill="#008082" stroke-width="0"/><path d="m187.83,464.75s16.24,3.05,17.15,2.81c.91-.24,9.25-129.3,8.16-129.75-.67-.27-14.7,14.98-14.92,16.12-.22,1.14-11.77,109.92-10.39,110.82Z" fill="#007171" stroke="#000" stroke-miterlimit="10" stroke-width="3.74"/><path d="m227.68,368.51c.1,11.19,8.37,20.19,19.56,20.09,11.19-.1,18.4-9.24,18.29-20.44-.11-11.19-7.47-20.2-18.67-20.1-11.19.1-19.29,9.25-19.19,20.45Z" fill="#39322f" stroke-width="0"/><path d="m260.8,368.21c-.08-8.4-6.27-15.14-14.67-15.07-8.4.08-13.8,6.93-13.72,15.33.08,8.39,5.6,15.15,14,15.07,8.4-.08,14.47-6.94,14.39-15.33Z" fill="#e6e1d6" stroke-width="0"/><path d="m256.35,368.25c-.05-5.76-4.31-10.4-10.07-10.34-5.76.05-9.47,4.76-9.41,10.52.05,5.76,3.85,10.4,9.61,10.34,5.76-.05,9.93-4.76,9.88-10.52Z" fill="#39322f" stroke-width="0"/><path d="m242.71,368.37c.02,2.3,1.72,4.16,4.03,4.14,2.3-.02,3.79-1.9,3.77-4.21-.02-2.3-1.54-4.16-3.84-4.14-2.3.02-3.97,1.9-3.95,4.21Z" fill="#e6e1d6" stroke-width="0"/><path d="m223.91,425.07c.13,13.57,10.14,24.47,23.71,24.35,13.57-.12,22.3-11.2,22.17-24.77-.12-13.56-9.06-24.48-22.62-24.36-13.57.13-23.38,11.21-23.25,24.78Z" fill="#39322f" stroke-width="0"/><path d="m264.05,424.7c-.09-10.17-7.6-18.35-17.78-18.26-10.17.09-16.72,8.4-16.63,18.58.09,10.17,6.79,18.36,16.97,18.27,10.17-.09,17.53-8.41,17.44-18.58Z" fill="#e6e1d6" stroke-width="0"/><path d="m258.66,424.75c-.06-6.98-5.22-12.59-12.2-12.53-6.98.06-11.47,5.77-11.41,12.75.06,6.98,4.66,12.6,11.64,12.54,6.98-.06,12.03-5.77,11.97-12.76Z" fill="#39322f" stroke-width="0"/><path d="m242.13,424.9c.03,2.79,2.09,5.04,4.88,5.01,2.79-.03,4.59-2.31,4.56-5.1-.03-2.79-1.86-5.04-4.66-5.01-2.79.03-4.81,2.31-4.79,5.1Z" fill="#e6e1d6" stroke-width="0"/><path d="m217.41,350.04c.02,1.77,1.32,3.18,3.08,3.17,1.77-.02,2.9-1.46,2.88-3.22-.02-1.77-1.18-3.19-2.94-3.17-1.77.02-3.04,1.46-3.02,3.22Z" fill="#fcb80e" stroke-width="0"/><path d="m217.56,367.16c.02,1.76,1.32,3.19,3.08,3.17,1.77-.02,2.9-1.46,2.88-3.22-.02-1.77-1.18-3.19-2.94-3.17-1.77.02-3.04,1.46-3.02,3.22Z" fill="#fcb80e" stroke-width="0"/><path d="m217.72,384.28c.02,1.77,1.32,3.18,3.08,3.17,1.77-.02,2.9-1.46,2.88-3.22-.02-1.76-1.18-3.19-2.94-3.17-1.77.02-3.04,1.46-3.03,3.22Z" fill="#fcb80e" stroke-width="0"/><path d="m274.36,339.16c-.65-.79-60.06-1.96-60.97-1.26-.91.69-7.94,129.74-7.94,129.74,0,0,76.94-.02,77.61-1.63.67-1.6-7.78-125.72-8.7-126.85Z" fill="none" stroke="#000" stroke-miterlimit="10" stroke-width="3.74"/><polygon points="267.28 377.25 283.31 348.4 284.42 362.94 305.93 335.42 284.42 373.01 280.97 361.96 267.28 377.25" fill="#fff" stroke-width="0"/><polygon points="270.92 398.67 301.33 385.83 293.24 397.96 327.15 389.55 287.03 405.89 291.13 395.07 270.92 398.67" fill="#fff" stroke-width="0"/><polygon points="343.45 440.77 358.79 242.69 354.1 242.34 338.8 439.9 294.61 464.19 375.22 464.19 343.45 440.77" fill="#2d2d2d" stroke-width="0"/><path d="m357.38,231.97c-8.18-6.34-16.42-12.87-16.42-12.87,0,0-12.72,6.37-10.32,11.69,1.31,2.9,11.18,8.92,20.57,13.72,2.76-2.51,6.12-6.76,6.17-12.54Z" fill="#424243" stroke-width="0"/><path d="m372.55,243.27c-1.39-.87-4.25-2.96-7.7-5.57-.16,5.81-3.52,8.83-6.36,10.34,4.82,2.18,8.69,3.59,9.96,3.43,4.09-.52,5.07-7.59,4.09-8.2Z" fill="#424243" stroke-width="0"/><path d="m364.86,237.7c-2.31-1.75-4.89-3.73-7.47-5.73-.05,5.79-3.41,10.03-6.17,12.54,2.52,1.29,5.01,2.49,7.28,3.52,2.84-1.51,6.2-4.54,6.36-10.34Z" fill="#2d2d2d" stroke-width="0"/><path d="m352.44,236.12c1.8-2.73-7.47-10.12-10.05-7.68-2.58,2.44,9.08,9.16,10.05,7.68Z" fill="#2d2d2d" stroke-width="0"/><path d="m329.49,220.32c3.38-4.4,5.15-9.7,6.03-14.8-1.59-1.44-3.45-2.59-5.51-3.36-.28,4.15-1.44,9.44-4.79,14.76-3.73,5.91-9.03,10-13.28,12.58,1.21,1.19,2.62,2.2,4.15,2.99,3.94-2.38,8.8-6.18,13.4-12.16Z" fill="#8b9595" stroke-width="0"/><path d="m325.22,216.92c3.35-5.32,4.51-10.61,4.79-14.76-1.88-.7-3.91-1.1-6.03-1.1-9.39,0-16.99,7.46-16.99,16.67,0,4.59,1.9,8.75,4.96,11.77,4.25-2.57,9.55-6.66,13.28-12.58Z" fill="#c9c9c9" stroke-width="0"/><path d="m335.52,205.52c-.88,5.1-2.65,10.4-6.03,14.8-4.59,5.98-9.46,9.78-13.4,12.16,2.36,1.21,5.03,1.91,7.88,1.91,9.39,0,16.99-7.46,16.99-16.67,0-4.83-2.1-9.16-5.45-12.2Z" fill="#c9c9c9" stroke-width="0"/><polyline points="112.47 321.43 60.89 453.39 55.89 452.71 106.3 317.06" fill="#1e1e1c" stroke-width="0"/><path d="m62.59,451.16s6.8-12.37,14.41-4.6c7.61,7.77,3.33,18.62,3.33,18.62,0,0-2.44,3.38-10.84,3.82-8.39.44-10.38.09-11.98-2.51-1.6-2.6-1.44-14.35-1.44-14.35l6.52-.99Z" fill="#1e1e1c" stroke-width="0"/><path d="m24.59,439.58s8.21-14.51,18.4-5.81c10.19,8.69,2.85,20.09,2.85,20.09,0,0-3.28,3.59-14.55,3.7-14.66.14-16.02-7.32-15.01-11.05,3.54-12.96,6.01-7.11,5.86-7.4l2.44.47Z" fill="#1e1e1c" stroke-width="0"/><line x1="79.36" y1="314.58" x2="22.15" y2="439.11" fill="none" stroke="#1e1e1c" stroke-miterlimit="10" stroke-width="4.75"/><line x1="235.83" y1="273.09" x2="144.58" y2="278.78" fill="none" stroke="#1e1e1c" stroke-miterlimit="10" stroke-width="4.75"/><polyline points="150.49 314.07 228.86 282.04 253.01 331.7" fill="none" stroke="#1e1e1c" stroke-miterlimit="10" stroke-width="4.75"/><polygon points="79.73 424.47 77.64 431.57 39.5 308.59 103.38 320.7 99.42 323.81 47 315.56 79.73 424.47" fill="#1e1e1c" stroke-width="0"/><path d="m78.26,422.7c-1.71,2.67,11.6-13.93,19.81-6.76,9.95,8.7,4.33,20.87,4.33,20.87,0,0-3.21,2.99-14.21,3.1-14.32.14-13.28-3.63-14.32-7.31-1.74-6.17,2.82-18.23,2.82-18.23l1.56,8.34Z" fill="#1e1e1c" stroke-width="0"/><path d="m130.11,118.26c-7.15,17.47-12.87,25.52-19.05,40.62-.44-23.1-1.87-25.42-4.81-53.74-3.55,24.97-3.8,36.36-7.75,58.05-5.81-23.49-7.34-20.59-14.76-57.69-1.97,33.8-1.65,30.58-1.21,63.03-7.63-22.6-15.3-42.08-22.91-70.61,3.99,41.95,3.19,57.29,5.72,83.87-6.95-14.37-20.18-29.02-25.58-41.87,3.76,19.89,9.43,38.05,12.66,59.94-13.63-16.96-23.82-39.55-32.2-50.9,12.67,42.96,30.71,101.19,43.09,130.16,1.75-20.38,15.32-41.38,40.09-18.75" fill="#008082" stroke-width="0"/><g clip-path="url(#clippath)"><path d="m11.24,126.75c24.7,19.52,41.77,48.43,46.94,79.48,2.17,13.03,3.17,28.01,13.6,36.11,2.3,1.79,5.53,3.11,8.06,1.67,1.35-.77,2.2-2.18,2.8-3.62,5-12-4.39-25.27-3.57-38.24.22-3.46,1.99-7.57,5.45-7.74,3-.15,5.21,2.88,6.02,5.78.81,2.9.89,6.08,2.51,8.62,1.61,2.54,5.73,3.83,7.54,1.43,1.17-1.55.78-3.76,1.46-5.58,1.51-4,7.71-4.09,10.75-1.08,3.04,3.01,3.71,7.61,4.08,11.87,1.37,15.56.99,31.56-4.08,46.34-2.91,8.51-7.82,16.94-15.85,20.98-8.07,4.05-17.65,2.94-26.6,1.73-8.96-1.21-18.52-2.69-25.19-8.79-3.55-3.24-5.95-7.53-8.11-11.83-20.94-41.76-23.51-90.01-25.69-136.67" fill="#5b2970" mix-blend-mode="multiply" opacity=".35" stroke-width="0"/></g><path d="m130.21,119.86c-.67-.16-.1-1.6-9.89,21.2-3.29,7.65-6.59,14.13-9.16,19.42-.44-23.1-1.87-25.42-4.81-53.74-3.55,24.97-3.8,36.36-7.75,58.05-5.81-23.49-7.34-20.59-14.76-57.69-1.97,33.8-1.65,30.58-1.21,63.03-7.63-22.6-15.3-42.08-22.91-70.61,3.99,41.95,3.19,57.29,5.72,83.87-6.95-14.37-20.18-29.02-25.58-41.87,3.76,19.89,9.43,38.05,12.66,59.94-13.63-16.96-23.82-39.55-32.2-50.9,12.67,42.96,30.71,101.19,43.09,130.16-2.37-13.22,5.57-25.37,16.56-28.03,8.38-2.03,17.71,1.66,23.53,9.28,22.94-108.31,28.52-141.69,26.71-142.11Z" fill="none" stroke="#000" stroke-miterlimit="10" stroke-width="3.74"/><polygon points="226.62 332.53 231.39 332.53 218.13 249.43 170.25 283.19 173.32 286.35 215.01 257.02 226.62 332.53" fill="#1e1e1c" stroke-width="0"/><polyline points="133.54 337.18 157.97 445.96 163.05 444.06 138.96 331.13" fill="#1e1e1c" stroke-width="0"/><path d="m163.76,439.53s6.46-10.38,12.68-3.31c6.22,7.08,2.02,16.27,2.02,16.27,0,0-2.27,2.81-9.55,2.8s-8.99-.41-10.25-2.73c-1.26-2.32-.58-12.48-.58-12.48l5.69-.55Z" fill="#1e1e1c" stroke-width="0"/><path d="m230.57,332.17s2.78-9.92,9.8-3.63c4.17,3.74,4.43,8.32,3.95,11.42-.38,2.48-2.23,4.48-4.68,5.04-1.53.35-3.63.75-6.43.63-10.22-.45-8.81-3.66-8.84-5.15-.18-8.62,3.05-13.87,3.05-13.87l3.15,5.56Z" fill="#1e1e1c" stroke-width="0"/><path d="m254.41,329.75s6.9-11.96,15.28-4.69c8.38,7.27,2.22,16.66,2.22,16.66,0,0-2.74,2.95-12.08,2.96-12.15.02-13.22-6.17-12.35-9.26,3.02-10.71,5.02-5.85,4.9-6.09l2.02.41Z" fill="#1e1e1c" stroke-width="0"/><path d="m57.99,294.69c14.56,45.78,35.69,51.25,76.62,38.22,32.33-10.28,50.65-37.77,38.82-74.95-11.83-37.18-40.5-42.25-72.83-31.97-32.33,10.28-54.44,31.51-42.61,68.69Z" fill="#3ba7b2" stroke-width="0"/><path d="m86.29,338.55c-15.3-6.95-24.31-24.69-30.21-43.24-10.9-34.27,4.85-60.07,44.35-72.64,39.01-12.41,65.47-.59,76.53,34.18,5.93,18.63,4.86,36-3.08,50.24-7.42,13.31-20.38,23.21-37.48,28.65-16.96,5.4-36.18,9.14-50.11,2.81Zm-24.77-44.98c13.13,41.26,30.41,49.53,72.92,36.01,33.42-10.63,47.63-37.84,37.08-71-9.92-31.18-33.18-41.19-69.13-29.76-25.46,8.1-53.22,25.91-40.87,64.75Z" fill="#1e1e1c" stroke-width="0"/><path d="m120.13,246.18c17.02,15.52,37.63,20.06,46.86,9.94,9.23-10.12,2.92-30.91-14.1-46.43-17.02-15.52-31.91-17.66-41.14-7.54s-8.63,28.51,8.39,44.03Z" fill="#fff" stroke-width="0"/><path d="m119.78,247.19c14.37,13.11,31.09,18.7,42.31,15.13,2.96-.94,5.53-2.52,7.58-4.76,4.8-5.26,5.87-13.32,3.03-22.69-2.82-9.3-9.15-18.79-17.84-26.71-8.69-7.92-12.33-11.12-21.85-13.07-9.6-1.97-17.52-.16-22.32,5.1-9.64,10.57-9.09,30.42,9.1,47.01Zm2.32-2.54c-7.81-7.13-7.2-13.3-9.87-21.45-2.67-8.17-1.89-15.13,2.19-19.61,1.72-1.89,3.93-3.25,6.52-4.08,3.61-1.15,7.98-1.25,12.86-.24,8.45,1.75,10.99,4.36,18.74,11.42,15.96,14.56,21.97,34.05,13.39,43.46-8.51,9.33-27.76,5.15-43.83-9.5Z" stroke-width="0"/><ellipse cx="154.02" cy="230.75" rx="8.63" ry="18.58" transform="translate(-97.78 114.28) rotate(-31.45)" fill="#1e1e1c" stroke-width="0"/><ellipse cx="156.86" cy="235.55" rx="3.8" ry="5.12" transform="translate(-97.32 111.13) rotate(-30.26)" fill="#fff" stroke-width="0"/><path d="m108.28,265.17c14.3,13.04,32.34,16.54,40.3,7.81,7.96-8.73,2.82-26.37-11.48-39.41-14.3-13.04-28.35-15.13-36.31-6.41-7.96,8.73-6.81,24.97,7.48,38.01Z" fill="#fff" stroke-width="0"/><path d="m107.89,266.22c12.11,11.05,26.8,15.71,36.69,12.56,2.66-.85,4.97-2.25,6.79-4.25,4.19-4.59,5.2-11.57,2.84-19.65-2.33-8-7.7-16.13-15.11-22.89-7.41-6.76-12-9.95-20.18-11.54-8.26-1.61-15.12.04-19.3,4.63-8.61,9.44-7.1,27.11,8.27,41.13Zm-7.73-20.46c-1.98-6.83-.07-13.22,3.43-17.05,1.52-1.67,3.46-2.85,5.68-3.55,8.42-2.68,17.02-.04,27.44,9.47,6.4,5.84,11.03,12.85,13.04,19.76,1.98,6.83,1.15,12.7-2.35,16.53-1.52,1.67-3.46,2.85-5.68,3.55-8.42,2.68-21.01-1.36-31.44-10.87-6.4-5.84-8.12-10.93-10.12-17.83Z" stroke-width="0"/><ellipse cx="138.31" cy="252.72" rx="7.87" ry="15.51" transform="translate(-104.19 97.19) rotate(-28.63)" fill="#1e1e1c" stroke-width="0"/><ellipse cx="140.08" cy="255.78" rx="3.3" ry="4.45" transform="translate(-109.36 104.7) rotate(-30.09)" fill="#fff" stroke-width="0"/><path d="m142.81,297.51l24.15,17.6,52.79-17.02c2.62-.84,4.45,2.59,2.28,4.29l-46.18,36.31c-5.75,4.52-10.15,10.52-12.74,17.35l-32.92,86.89c-1.42,3.74-6.76,3.55-7.91-.28l-14.01-46.8c-1.3-4.34-5.34-7.27-9.87-7.17l-52.65,1.25c-4.04.1-5.85-5.04-2.64-7.49l77.9-59.67c6.2-4.75,10.88-11.2,13.47-18.56l1.62-4.61c.97-2.76,4.33-3.81,6.7-2.08Z" fill="#f55117" stroke="#000" stroke-miterlimit="10" stroke-width="4.49"/><path d="m142.81,297.51c-2.37-1.73-5.73-.68-6.7,2.08l-1.62,4.61c-2.59,7.36-7.27,13.81-13.47,18.56l-25.64,19.64c-1.28,2.5-4,5.78-9.23,10.02-16.33,13.25-18.65,19.25-10.75,14.75,7.9-4.5,57.97-42.93,59.44-50.58,1.47-7.65,6.27-14.93,14.06-8.74,26.54,17.8,31.49,9.61,47.73,4,16.24-5.61,23.11-13.75,23.11-13.75l-52.79,17.02-24.15-17.6Z" fill="#b91203" stroke-width="0"/><path d="m142.81,297.51l24.15,17.6,52.79-17.02c2.62-.84,4.45,2.59,2.28,4.29l-46.18,36.31c-5.75,4.52-10.15,10.52-12.74,17.35l-32.92,86.89c-1.42,3.74-6.76,3.55-7.91-.28l-14.01-46.8c-1.3-4.34-5.34-7.27-9.87-7.17l-52.65,1.25c-4.04.1-5.85-5.04-2.64-7.49l77.9-59.67c6.2-4.75,10.88-11.2,13.47-18.56l1.62-4.61c.97-2.76,4.33-3.81,6.7-2.08Z" fill="none" stroke="#000" stroke-miterlimit="10" stroke-width="4.49"/><path d="m137.89,328.81h8.53c1.94,0,3.51,1.57,3.51,3.51v15.37c0,1.94-1.57,3.51-3.51,3.51h-8.53c-1.94,0-3.51-1.57-3.51-3.51v-15.37c0-1.94,1.57-3.51,3.51-3.51Z" transform="translate(-216.35 254.63) rotate(-53.92)" fill="#008082" stroke-width="0"/><path d="m137.9,360.64l-14.08-10.26c-1.11-.81-1.35-2.37-.55-3.48h0c.81-1.11,2.37-1.35,3.48-.55l14.08,10.26c1.11.81,1.35,2.37.55,3.48h0c-.81,1.11-2.37,1.35-3.48.55Z" fill="#008082" stroke-width="0"/><path d="m134.39,379.6l-5.98,40.69c-.07,2.08-2.94,2.58-3.71.64l-9.99-25.34c-3.37-8.55-11.45-14.33-20.63-14.77l-25.04-1.2c-2.12-.1-2.53-3.06-.53-3.74l42.31-17.25,20.71,15.09c1.87,1.36,2.94,3.56,2.87,5.87Z" fill="#fff" stroke-width="0"/><path d="m144.28,320.9l90.15-117.88-.04-7.34s36.09-26.81,39.04-25.05c.53.32,1.01.89,1.45,1.63,2.69,4.52,1.35,10.42-2.92,13.49-4.53,3.25-10.85,9.33-16.14,20.15-7.23-.65-11.14,4.2-11.69,4.95-.55.75-84.75,121.04-84.75,121.04l-15.08-10.99Z" fill="#008082" stroke-width="0"/><path d="m242.84,198.06c-.73.99-2.12,1.21-3.11.49-.99-.72-1.21-2.12-.49-3.11.73-.99,2.12-1.21,3.11-.49.99.72,1.21,2.12.49,3.11Z" fill="#fff" stroke-width="0"/><path d="m148.08,377.29c-1.21,1.67-3.55,2.03-5.21.82-1.67-1.21-2.03-3.55-.82-5.21,1.21-1.67,3.55-2.03,5.21-.82,1.67,1.21,2.03,3.55.82,5.21Z" fill="#fcb80e" stroke-width="0"/><path d="m144.5,388.54c-1.21,1.67-3.55,2.03-5.21.82-1.67-1.21-2.03-3.55-.82-5.21,1.21-1.67,3.55-2.03,5.21-.82,1.67,1.21,2.03,3.55.82,5.21Z" fill="#fcb80e" stroke-width="0"/><path d="m139.78,398.31c-.81,1.11-2.36,1.35-3.47.54-1.11-.81-1.35-2.36-.54-3.47.81-1.11,2.36-1.35,3.47-.54,1.11.81,1.35,2.36.54,3.47Z" fill="#fcb80e" stroke-width="0"/><path d="m240.31,198.96c-40.52,54.64-86.29,115.69-127.4,169.89,40.52-54.64,86.3-115.69,127.4-169.89h0Z" fill="#f0efe4" stroke-width="0"/><path d="m248.41,192.76c-42.1,57.37-89.65,121.47-132.33,178.4,42.09-57.37,89.65-121.47,132.33-178.4h0Z" fill="#f0efe4" stroke-width="0"/><path d="m254.42,189.26c-43,59.23-91.57,125.43-135.16,184.22,43-59.23,91.57-125.43,135.16-184.22h0Z" fill="#f0efe4" stroke-width="0"/><path d="m262.16,183.79c-44.46,61.72-94.67,130.71-139.72,192,44.46-61.72,94.67-130.71,139.72-192h0Z" fill="#f0efe4" stroke-width="0"/><path d="m249.51,193.13c-.73.99-2.12,1.21-3.11.49-.99-.73-1.21-2.12-.49-3.11.73-.99,2.12-1.21,3.11-.49.99.73,1.21,2.12.49,3.11Z" fill="#fff" stroke-width="0"/><path d="m255.75,189.39c-.72.99-2.12,1.21-3.11.49-.99-.73-1.21-2.12-.49-3.11.72-.99,2.12-1.21,3.11-.49.99.73,1.21,2.12.49,3.11Z" fill="#fff" stroke-width="0"/><path d="m262.89,184.33c-.72.99-2.12,1.21-3.11.49-.99-.72-1.21-2.12-.49-3.11.72-.99,2.12-1.21,3.11-.49.99.73,1.21,2.12.49,3.11Z" fill="#fff" stroke-width="0"/><path d="m65.05,354.55l11.61-16.45,4.99,3.31c-1.16,2.7-2.87,6.02-5.41,9.5-2.12,2.9-4.29,5.19-6.2,6.95-1.66-1.1-3.33-2.21-4.99-3.31Z" fill="#ba3550" stroke-width="0"/><polyline points="72.3 279.97 5.28 317.95 87.79 354.29" fill="none" stroke="#1e1e1c" stroke-miterlimit="10" stroke-width="4.75"/><path d="m91.02,364.43s12.19,12.48,21.19,2.98c9-9.5.95-18.65.95-18.65,0,0-3.36-4.05-15-1.81-15.15,2.92-15.06,9.52-14.47,12.84" fill="#1e1e1c" stroke-width="0"/><line x1="234.14" y1="240.12" x2="236.67" y2="275.06" fill="none" stroke="#1e1e1c" stroke-miterlimit="10" stroke-width="4.75"/><path d="m238.74,232.8s4.27-16.91-8.53-19.63c-12.8-2.71-16.4,8.93-16.4,8.93,0,0-1.7,4.98,6.29,13.74,10.4,11.39,15.98,7.87,18.51,5.63" fill="#1e1e1c" stroke-width="0"/><polygon points="171.63 202.14 225.14 110.65 198.06 122 233.82 20.81 158.41 149.83 189.79 137.58 171.63 202.14" fill="#fff" stroke-width="0"/><polygon points="156.97 110.2 170.75 50.83 157.81 61.68 160.19 0 140.78 83.73 155.93 71.65 156.97 110.2" fill="#fff" stroke-width="0"/><polygon points="209.96 186.81 262.78 156.39 246.02 154.33 292.74 114 218.28 156.92 237.44 159.75 209.96 186.81" fill="#fff" stroke-width="0"/><circle cx="122.16" cy="382.87" r="8.44" stroke-width="0"/><path d="m122.89,377.04c-.69.42-1.1,1.15-1.26,1.94-.18.87-.13,1.76.02,2.61-.63-.12-1.23-.39-2.04-.21-.63.14-1.16.52-1.47,1.2-.15.32-.16.7-.1,1,.17.8.93,1.17,1.25,1.28l.68.22c.14.04.48.16.56.55.09.43-.22.91-.75,1.02-.24.05-.61.06-.66-.19-.02-.1,0-.2,0-.29,0-.08-.02-.14-.02-.17-.07-.32-.37-.6-.71-.53-.32.07-.55.28-.47.69.1.46.68,1.07,1.86.83,1.38-.29,2.03-1.49,1.71-2.41-.2-.58-.66-.84-1.37-1.1l-.57-.2c-.33-.1-.61-.42-.54-.83.06-.34.27-.59.77-.71.73-.18,1.26.11,1.94.2.16.75.39,1.47.59,2.11l.17.47c.65,1.97.93,3.09.56,4.03-.08.17-.2.42-.48.6-.15.09-.26.01-.29-.03-.06-.11,0-.21.03-.29.06-.1.15-.26,0-.51-.18-.3-.58-.43-.95-.21-.27.16-.55.66-.27,1.12.29.48.95.6,1.63.19.36-.22,1.11-.82,1.38-2.24.33-1.63-.1-3.05-.42-4.09l-.46-1.35c.13-.05.27-.12.42-.19,1.19-.63,1.45-1.56,1.21-2.01-.14-.27-.47-.44-.72-.29-.18.11-.34.35-.26.64.08.28.64.26.42.67-.15.29-.52.63-1.17.88l-.22-.67c-.41-1.27-.92-2.83.11-3.45.07-.05.36-.19.46-.01.04.06.03.08.04.27-.01.15.01.26.07.36.17.29.5.36.82.17.42-.25.32-.74.19-.95-.3-.5-1.01-.52-1.7-.11Z" fill="#fff" stroke-width="0"/><path d="m68.01,355.24l-1.02,5.01,3.33-3.86s-.05-.95-.84-1.29c-.7-.3-1.39.09-1.47.13Z" fill="#fff" stroke-width="0"/><polygon points="79.36 340.16 80.25 335.88 77.21 339.4 79.36 340.16" fill="#fff" stroke-width="0"/><polygon points="79.84 342.21 82.58 338.63 78.44 340.45 79.84 342.21" fill="#fff" stroke-width="0"/><path d="m64.09,353.58c.92-2.45,2.4-5.65,4.78-9.02,2.35-3.32,4.84-5.75,6.83-7.43,1.66,1.1,4.29,3.18,5.96,4.28-2.05,2.01-4.38,4.61-6.65,7.84-2.18,3.11-3.79,6.07-4.97,8.61-1.66-1.1-4.29-3.18-5.96-4.28Z" fill="#e04668" stroke-width="0"/><path d="m78.09,340.29l-3.09-3.93-.21,5.76c.47.58,1.4.72,2.24.16.53-.36,1.18-1.36,1.06-1.99Z" fill="#fff" stroke-width="0"/><path d="m74.64,344.21c.02.21.11,1.17-.55,2.15-.72,1.06-2.21,1.13-2.21,1.13l-1.92-4.48,4.68,1.21Z" fill="#fff" stroke-width="0"/><path d="m70.68,349.06l-5.82.59,4.27,2.65c.06-.01,1.18-.37,1.65-1.3.33-.65.29-1.4-.11-1.93Z" fill="#fff" stroke-width="0"/><path d="m70.68,349.06l-5.82.59,6.11.83c.11-.51,0-1.02-.29-1.42Z" fill="#e6e6e4" stroke-width="0"/><path d="m67.12,352.17l-4.08,3.33,5.07-2.47c-.26-.67-.91-.84-.99-.85Z" fill="#e6e6e4" stroke-width="0"/><path d="m74.64,344.21l-4.68-1.21,4.5,2.62c.25-.69.19-1.26.18-1.41Z" fill="#e6e6e4" stroke-width="0"/><path d="m76.37,342.57l-1.36-6.22-.21,5.76c.34.42.94.61,1.57.46Z" fill="#e6e6e4" stroke-width="0"/><path d="m67.12,352.17l-4.08,3.33,4.75-.75s.62-.81.35-1.64c-.23-.74-.94-.92-1.02-.94Z" fill="#fff" stroke-width="0"/></g></g></svg>