<?xml version="1.0" encoding="UTF-8"?><svg id="Calque_1" xmlns="http://www.w3.org/2000/svg" viewBox="0 0 904.01 608.49"><path d="m626.56,58.44c62.25,38.95,89.23,56.28,157.03,257.77,67.8,201.49-104.62,350.63-214.35,269.98-91.25-67.06-172.83-102.83-286.35-89.79-113.52,13.04-231.16-5.92-273.17-112.5C-32.29,277.32,67.17,61.36,204.92,86.58c137.76,25.22,185.71,25.69,206.78-16.36,30.45-60.78,135.53-61.41,214.86-11.78Z" fill="#00bcbc" stroke-width="0"/><path d="m775.45,364.96c-192.21,48.54-290.52,265.54-378.01,224.4-87.49-41.14-117.74-249.5-227.41-377.7C60.36,83.46,172.54-7.2,240.97.45c109.05,12.19,146.25,130.94,236.87,146.24,90.61,15.3,184.85,8.99,280.37,23.93,109.84,17.18,128.95,166.14,17.24,194.35Z" fill="#83d2cc" opacity=".47" stroke-width="0"/><path d="m581.24,297.33c-1.44,5.36-2.07,10.6-2.23,15.35-.06,1.63-.06,3.21-.02,4.71.26,9.56,2.18,16.22,2.18,16.22-.2.84-.44,2.61-.6,5.02-.54,7.81-.31,22.39,4.68,34.23.42,1,1.1,2.52,1.88,4.3,1.45,3.29,3.28,7.47,4.6,10.88.31.79.58,1.54.83,2.22.08.24.16.47.23.7,0,1.03,0,2.06.05,3.09.41,2.76.81,5.68,1.13,8.31.13,1.1.25,2.15.36,3.1.07.65.13,1.26.17,1.8.23,2.59-.38,7.59-1.22,12.68-.92,5.65-2.1,11.39-2.67,14.09-.05.24-.1.45-.14.64-.3-.09-.47-.14-.47-.14-.19.56-.62,1.8-.62,1.8.16.06.33.12.5.18-.16.48-.32,1-.53,1.52-1.4,3.52-2.5,7.18-3.39,10.93-.47,1.96-.87,3.96-1.23,5.97-.23,1.36-.45,2.73-.65,4.1-.2,1.39-.27,3.98-.27,7.41,0,3.29.08,7.36.18,11.88l24.34,1.9c1.17-8.6,1.96-15.67,1.98-15.9.12.01.24.03.37.04l.25.02c.13,0,.25.01.37.02,0,.23-.33,7.34-.51,16.01l24.34,1.9c1.63-9.07,2.87-16.31,2.9-19.08.1-7.39-.38-14.64-1.94-21.57-.13-.54-.2-1.06-.28-1.56.18-.04.36-.08.53-.13,0,0-.23-1.29-.34-1.88,0,0-.17.03-.48.09,0-.16-.02-.35-.03-.55,0-.04,0-.09,0-.13-.28-5.25-1.03-21.72.3-27.04.09-.36.19-.74.29-1.15.28-1.06.6-2.25.96-3.52.95-3.35,2.13-7.23,3.2-10.55,1.53-3.13,4.87-8.41,7.51-12.53,1.27-1.98,2.38-3.7,3.04-4.76,2.01-3.25,3.64-6.8,4.97-10.39,1.5-4.07,2.59-8.18,3.38-11.98,1.58-7.62,1.92-13.91,1.77-15.78,0,0,2.94-6.27,4.67-15.68,1.07-5.78,1.69-12.75.89-20.17.1-1.24.18-2.48.3-3.73-.05-.09-.23.02-.24-.02-1.17-2.52,3.43-6.67,4.49-8.54,1.18-2.07,3.37-6.86,1.49-8.88-1.85-1.99-5.21-4.43-7.56-1.63-2.46,2.94,1,8.37-1.6,11.23-.35-.1-.52-.33-.62-.66-.02-.07-.03-.15-.05-.22,0-.03-.02-.06-.02-.09-.22-1.24.13-3.31.3-4.6.04-.34,0-.51-.08-.65-.14-.23-.38-.38-.65-.4-.2.01-.25.02-.3.04-.1.03-.19.08-.28.16-.04.04-.08.08-.11.12,0,0-1.78,4.15-2.05,6.9-.01.16-.02.31-.03.45,0,.13,0,.27,0,.39.03.81.08,1.46.15,2.02.15,1.22.41,1.97.89,2.71.02.03.04.06.06.1.16.24.22.63.22,1.09l-.31-.02-.28,3.35c-.04.16-.08.3-.11.42-.66,1.67-4.34,11.04-6.78,19.69-1.03,3.64-1.84,7.16-2.11,9.91,0,0-.03.13-.07.36-.66,3.2-5.78,26.67-12.7,26.79-.1,0-.15.11-.16.32-2.91-1-7.65-2.69-8.48-2.99-.05-.14.09-.24.21-.35-.94-1.89-2.78-3.77-3.66-4.85-.13.08-.26.16-.4.24-.11.06-.23.13-.34.19-.08-.41-.1-.83-.07-1.26.01-.17,0-.33.01-.5.07-.7.49-2.39.98-3.01,1.08-.41,1.68-.7,1.68-.7,0,0,1.12-2.12,2.45-4.76.31-.56.59-1.13.86-1.7.35-.71.71-1.43,1.05-2.14.13.09.28.16.44.15.47-.02,1.02-.48,1.12-.88.5-1.97.28-1.16.78-3.13.06-.24.7-1.48.97-2.56.18-.71.2-1.36-.22-1.58.37-1.73.56-3.68.2-6.47.01-.76,0-1.58-.06-2.43-.12-1.91-.45-3.95-1.16-5.83-1.86-4.99-4.72-7.4-10.41-8.23-.2-.04-.41-.06-.62-.08-.44-.06-.89-.11-1.36-.14-8.63-.69-8.14,3.77-11.58,3.06-1.53-.31-1.63,1.49-.24,3.35-1.02,1.81-1.45,3.41-1.51,3.56-.32.74-.6,1.47-.84,2.16-1.2,3.44-1.48,6.33-1.36,8.77-.04,0-.08,0-.11.02-1.12.39.06,3.8.1,4.21.19,2.03.1,1.19.28,3.21.04.41.51.95.98,1.05.22.04.44-.03.6-.16,1.4,4.4,3.18,9.28,3.18,9.28,0,0,.57.5,1.68,1.09.13.38.22.88.29,1.36.07.53.1,1.04.1,1.34,0,.33-.05.57-.07.8-.03.43-.13.83-.28,1.22-.2-.15-.41-.32-.6-.49-1.09.9-3.2,2.47-4.41,4.19.12.12.24.24.36.36-.09,0-.13.01-.21.02-.77.15-5.23.99-8.3,1.54,0-.12-.04-.19-.11-.2-7.31-1.28-8.41-28.81-8.41-28.81.15-2.76-.1-6.36-.55-10.12-1.07-8.92-3.25-18.75-3.64-20.5-.02-.12-.04-.26-.05-.42,0-.01.25-3.36.25-3.36l-.32-.02c.07-.46.19-.84.38-1.05.03-.03.06-.06.08-.09.6-.66.97-1.36,1.31-2.54.15-.55.3-1.18.46-1.98.03-.13.05-.27.06-.41.02-.14.03-.27.03-.42.16-2.76-.95-7.13-.95-7.13-.03-.05-.06-.1-.1-.14-.07-.08-.15-.15-.25-.19-.04-.02-.09-.04-.14-.05-.41-.05-.68.06-.85.27-.1.13-.17.29-.17.48-.08,1.24.39,4.59-.71,5.32-1.22.81-2.02-3.01-2.16-4.15-.33-2.84,1.55-6.74-.86-8.34-.5-.33-1.18-.56-2.1-.67-9.67-1.08,2.28,17.33-.03,20.64-.02.35-.25,3.72-.28,3.73Z" fill="#007171" stroke-width="0"/><path d="m394.62,272.5c-.33,3.41-.85,9.01-1.61,18.15-.38,4.5.11,8.69.78,12.29.48,2.59,1.05,4.86,1.46,6.74l-1.04.44c-.7,2.98-1.84,16.7,1.67,30.2.67,2.6,1.52,5.2,2.58,7.71.11.26.24.56.38.89,1.72,3.97,5.6,12.48,7.16,17.21,0,1.03,0,2.06.05,3.08.41,2.76.81,5.69,1.13,8.31.13,1.1.25,2.15.35,3.1.07.65.13,1.26.18,1.8.49,5.47-2.81,21.63-3.89,26.77-.05.24-.1.45-.14.64-.3-.09-.47-.14-.47-.14-.2.56-.62,1.8-.62,1.8.17.06.34.12.5.18-.16.48-.31,1-.52,1.52-.25.62-.49,1.25-.72,1.89-.11.29-.21.58-.31.88-2.03,5.8-3.34,11.94-4.24,18.24-.17,1.23-.35,3.55-.53,6.64-.04.66-.07,1.37-.1,2.11-.19,3.97-.36,8.87-.48,14.18-.05,2.12-.09,4.31-.11,6.54l24.01,1.87c1.93-12.4,3.42-25.74,3.45-26.04.12.01.24.03.37.04l.26.02c.12,0,.25.01.37.02-.01.3-.61,13.71-.63,26.26l24,1.87c1.13-7.84,2.07-15.3,2.66-20.85.43-3.97.68-6.97.7-8.44.07-4.61-.1-9.15-.61-13.6-.28-2.39-.65-4.74-1.14-7.06-.06-.3-.13-.61-.2-.9-.12-.54-.2-1.06-.28-1.56.18-.04.35-.08.53-.13,0,0-.23-1.29-.33-1.88,0,0-.18.03-.48.09,0-.16-.02-.35-.03-.55,0-.04,0-.09-.01-.13-.04-.78-.09-1.82-.15-3.03-.06-1.27-.12-2.73-.17-4.3-.23-6.95-.3-16.02.62-19.72.09-.36.19-.74.29-1.15.28-1.06.61-2.25.97-3.52.29-1.03.61-2.11.93-3.21.27-.92.55-1.86.84-2.78.4-1.32.8-2.63,1.21-3.86.07-.24.15-.47.22-.7,2.25-4.64,8.51-14.01,10.55-17.29,4.04-6.53,6.8-14.27,8.58-21.1,2.12-8.16,2.86-15.02,2.71-17l-1.12-.35c.54-1.56,1.16-3.35,1.76-5.34,1.04-3.46,2-7.54,2.33-12.05.67-9.14,1.02-14.76,1.22-18.18.1-1.8.17-2.99.22-3.76.06-.84.09-1.18.14-1.28,2.19-4.68,7.88-9.78,5.04-15.33-.93-1.83-2.82-3.72-5.13-3.53-4.07.33-.62,7.8-1.97,10.28-.49.91-.58,2.22-1.22,2.12-.23-.04-.41-.2-.53-.44-.05-.11-.08-.18-.11-.26-.02-.07-.03-.15-.05-.23-.03-.18-.04-.29-.06-.39-.11-1.3.18-3.12.34-4.3.05-.33,0-.49-.07-.63-.13-.25-.38-.4-.65-.43-.2.01-.25.02-.3.04-.1.03-.19.08-.28.15-.04.04-.08.08-.12.12,0,0-1.78,4.15-2.05,6.9-.02.15-.03.29-.03.42,0,.14,0,.28,0,.42.03.81.08,1.46.15,2.02.15,1.23.4,1.98.89,2.72.02.03.04.06.06.09.17.24.23.63.22,1.09-.01,1.03-.34,2.41-.59,3.33-.04.16-.08.29-.11.41-.1.36-.18.58-.18.58,0,0-2.14,6.38-4.43,13.37-1.77,5.4-2.88,12.27-3.79,15.87-.07.29-.14.56-.21.8-.14.48-.32,1.27-.53,2.26l-.9-.28s-4.2,24.02-11.62,24.15c-.1,0-.15.11-.16.32-2.04-.7-4.96-1.74-6.82-2.4-.8-.29-1.4-.5-1.65-.59-.08-.03-.13-.04-.13-.04-.04,0-.31.04-.31.04-1.88-1.27-3.39-2.85-3.75-4.77-.08-.41-.1-.83-.07-1.26.01-.17,0-.33.01-.5.07-.72.52-2.52,1.04-3.07,1.02-.34,1.62-.63,1.62-.63,0,0,1.12-2.12,2.45-4.76.31-.57.59-1.14.85-1.7.15-.31.31-.62.46-.94.2-.4.4-.81.59-1.21.13.09.28.16.44.15.47-.02,1.02-.48,1.13-.88.5-1.97.28-1.16.77-3.13.07-.26.79-1.65,1.02-2.77.14-.63.12-1.17-.26-1.37.37-1.73.56-3.68.2-6.47.04-2.49-.2-5.55-1.21-8.27-2.06-5.54-5.36-7.89-12.39-8.46-8.62-.69-8.14,3.77-11.58,3.06-1.53-.31-1.63,1.49-.24,3.35-1.03,1.81-1.46,3.41-1.52,3.56-1.9,4.4-2.35,7.99-2.2,10.93-.04,0-.08,0-.11.02-.41.14-.51.67-.47,1.31.05,1.14.55,2.63.57,2.9.19,2.03.09,1.19.28,3.21.03.41.51.95.97,1.05.22.04.44-.03.6-.16,1.4,4.4,3.19,9.28,3.19,9.28,0,0,.56.5,1.68,1.09.27.81.39,2.13.38,2.7,0,.33-.05.57-.07.8-.03.43-.13.84-.28,1.22-.5,1.27-1.59,2.32-2.96,3.16-.53.33-1.1.63-1.69.89-.09,0-.13,0-.2.03-.77.15-5.24.99-8.31,1.54,0-.12-.04-.19-.11-.2-2.14-.37-3.63-2.86-4.68-6.2-2.56-8.09-2.5-21.18-2.5-21.18l-1.56.65c-.03-.45-.07-.83-.1-1.11-.03-.25-.06-.53-.08-.83-.34-3.7-.37-10.66-1.29-16.27-1.18-7.26-2.31-13.9-2.31-13.9,0,0-.04-.23-.09-.6-.02-.12-.03-.26-.05-.42-.11-.96-.21-2.37-.06-3.39.07-.46.18-.83.38-1.05.03-.02.05-.05.08-.08.59-.66.96-1.36,1.3-2.55.16-.54.3-1.18.46-1.97.02-.12.05-.25.06-.39.02-.14.03-.29.04-.45.16-2.76-.96-7.13-.96-7.13-.03-.05-.06-.1-.1-.14-.07-.09-.16-.16-.25-.2-.05-.02-.09-.04-.14-.05-.42-.05-.69.06-.85.27-.1.13-.17.29-.18.48-.03,1.57,0,3.93-.54,5.04-.03.06-.07.11-.1.17-1.44,2.01-1.33-4.03-1.31-4.5.06-1.84.6-4.39-.9-5.85-.29-.28-.61-.51-.94-.69-1.79-.97-4.03-.5-5.07,1.55-2.41,4.74,2.05,11.33,3.34,15.8.03.1.01.45-.06,1.29-.07.77-.19,1.95-.36,3.75Z" fill="#007171" stroke-width="0"/><path d="m185.85,264.99c.03.09,0,.4-.06,1.15-.06.68-.17,1.73-.32,3.32h-.17c-1.34,4.96-1.89,9.81-2,14.18-.03.99-.03,1.95-.01,2.88.14,8.89,1.95,15.15,1.95,15.15-.02.08-.03.16-.05.25-.23,1.36-.28,4.49,0,8.57.52,7.28,2.14,17.59,5.77,26.2,1.49,3.53,7.47,10.99,7.94,16.38.05-.29.11-.62.19-.98.61,5.11,1.33,8.27,1.79,9.31-.64-.2-1-.32-1-.32l.84,2-15.08,45.41s-2.96,8.9-2.96,8.9l-6.86,20.66s4.21,1.45,10.73,3.08c.19,1.65.44,3.3.74,4.95.08.43.16.86.25,1.29l20.4,1.59c.03-.18.06-.36.09-.54.19-1.13.38-2.25.56-3.38.46.05.93.09,1.4.13.34.03.68.06,1.02.08.79.06,1.57.12,2.33.17,0,1.32.01,2.64.03,3.96l20.41,1.59c.15-.41.31-.82.45-1.24.54-1.54,1.02-3.08,1.46-4.63,6.32-.68,9.57-1.65,9.57-1.65l-8.6-58.58-2.45-16.71-.11-.74-.25-1.72.32-.95c.21.19.47.42.79.7.51.45,1.15,1.02,1.87,1.67.17.15.34.3.51.46,5.2,4.65,14.06,12.58,14.06,12.58-.05,0-1.64-41.26-6.39-51.19-.78-1.64-4.27-1.24-6.74-1.52-1.54-.16-2.68-.58-2.56-1.9-.15-.02-.29-.04-.44-.06s-.28-.04-.42-.06c-.11-.02-.21-.04-.31-.06-.05,0-.09-.01-.13-.02-.14-.03-.28-.05-.42-.08-1.18-.25-2.25-.6-3.14-1.18-1.17-.76-2.01-1.59-2.62-2.5,11.07-2.52,14.55-12.76,13.12-19.06,0,0-.83-5.93-1.8-11.67-.76-4.55-1.62-8.98-2.21-10.24-.68-1.45-1.61-2.74-2.79-3.71-.8-.67-1.7-1.25-2.66-1.74-1.76-.9-3.74-1.51-5.78-1.81-.06,0-.11-.02-.16-.03-3.06-.43-6.25-.18-9.05.79-1.06.37-2.17.84-3.1,1.42-1.77,1.12-3.02,2.68-3.81,4.46-.19.4-1.59,4.16-3.12,8.31-2,5.44-4.22,11.54-4.22,11.54-2.13,5.86,1.19,16.18,10.58,20.41-.74.87-1.76,1.6-3.11,2.21-.92.41-1.97.6-3.1.66-.06,0-.12.01-.18.01-.28.01-.56.02-.84.02-.05,0-.11,0-.16,0-.22,0-.45,0-.67,0-1.24-.58-2.68-.47-3.02-.53-3.04-.53-4.87-6.18-5.96-12.03-1.23-6.64-1.51-13.55-1.51-13.55.15-2.64-.13-6.13-.58-9.74-.97-7.71-2.8-15.95-3.14-17.45-.01-.11-.03-.23-.04-.37-.1-.85-.19-2.11-.06-3.01.06-.41.17-.74.34-.93.02-.02.04-.05.07-.07.53-.58.86-1.21,1.16-2.26.13-.48.26-1.05.4-1.75.02-.12.04-.24.05-.37.01-.12.02-.24.03-.37.14-2.45-.85-6.33-.85-6.33-.05-.09-.12-.17-.19-.22-.08-.06-.16-.1-.24-.12-.37-.04-.61.06-.76.25-.09.11-.15.26-.15.42-.03,1.29-.02,3.15-.37,4.21-.04.11-.07.19-.1.26-.07.12-.1.18-.13.22-.14.19-.31.3-.53.31-.57,0-.47-1.16-.77-2.03-.74-2.08,3.39-13.2-1.67-11.26-3.73,1.43-3.77,10.63-3.19,13.81.38,2.07,1.73,4.22,1.87,4.69Z" fill="#007171" stroke-width="0"/><path d="m209.64,425.33c.1,2.54,1.85,7.33,3.31,10.23.36.71.69,1.29.97,1.72.26.38.85.18.82-.27-.05-1.29.2-4.17.14-7.38,0-.35,0-.7-.01-1.04,0-2.33.15-4.14.58-4.93.42-.73.56-1.73.93-2.03.03-.02.06-.04.09-.05.04-.02.08-.03.13-.03.03,0,.06,0,.1,0,1.26.23.62,3.74.36,5.61,0,.05-.02.1-.02.15-.04.47.25.79.6.89.5,0,.7-.09.85-.28,0,0,1.81-4.13,2.1-6.88.03-.3.05-.58.03-.84-.02-.61-.05-1.12-.09-1.58-.01-.15-.03-.29-.04-.44-.14-1.23-.39-1.98-.88-2.72-.03-.03-.05-.07-.07-.1-.16-.24-.22-.63-.21-1.1.01-1.01.34-2.38.6-3.3.02-.09.05-.15.07-.22.02-.09.04-.16.06-.23.11-.36.18-.57.18-.57,0,0,.77-2.24,1.88-5.51.77-2.25,1.69-4.99,2.64-7.83,1.95-5.82,3.14-13.35,4.11-16.65.93-3.17,2.91-6.01,4.37-11.55.09-.33.17-.66.25-1,.01-.05.64.06.64.06l.45.08c.09-.13.24-.93.41-2.05.43-2.85.98-7.78.9-9.14,0-.06.01-.11.02-.16.53,3.12.64,7.19.95,10.98.01.18.03.37.04.54.06.7.12,1.39.2,2.06.12,1.1.24,2.15.33,3.1.06.65.12,1.25.17,1.8.08.91.05,2.11-.06,3.51-.15,1.95-.46,4.29-.84,6.73-.99,6.34-2.49,13.42-3.17,16.51-.07.19-.14.4-.21.61-.26-.08-.4-.13-.4-.13-.2.56-.63,1.8-.63,1.8.13.05.26.1.38.14-.17.49-.35,1.01-.54,1.55-.78,2.23-1.68,4.87-2.5,7.6-1.5,4.57-3.05,9.81-3.58,13.32-.45,3.01-1.3,12.64-1.85,23.94l26.11,2.04c1.58-10.56,2.74-20.27,2.75-20.44.16.02.32.05.49.06.31.02.47.03.63.04,0,.13-.32,6.22-.55,14.01-.06,2.1-.12,4.32-.16,6.58l26.12,2.04c1.34-11.08,2.1-20.55,2.16-23.55.15-6.93-2.47-21.03-2.88-23.25.13-.03.26-.06.4-.09,0,0-.22-1.29-.32-1.88,0,0-.15.03-.41.07-.04-.23-.08-.45-.11-.66-.11-2.39-.3-7.1-.35-12.02-.06-5.91.09-12.12.84-15.03.09-.36.19-.74.3-1.14.12-.45.25-.92.39-1.41.19-.66.38-1.37.59-2.1.63-2.16,1.18-4.55,1.73-6.88.56-2.32,1.12-4.57,1.76-6.42v.14c-.37,1.52-.67,11.14-.67,11.14l1.15.06c.02.39.05.77.08,1.15.15,1.67.37,3.11.64,4.4.63,3.14,1.45,5.39,1.73,7.72.2,1.71.28,4.46.42,7.55.14,3.09.36,6.52.83,9.55,1.13,7.26,2.22,13.91,2.22,13.91,0,0,.04.23.08.6.02.12.03.27.05.42.1.96.2,2.38.04,3.39-.07.46-.19.83-.39,1.04-.03.03-.05.06-.08.08-.6.66-.97,1.35-1.32,2.54-.15.54-.3,1.18-.47,1.96-.03.13-.05.27-.07.42-.02.13-.03.27-.04.42-.18,2.76.91,7.14.91,7.14.03.06.07.12.12.16.07.08.14.13.23.18.04.02.09.04.14.06.41.05.69-.06.86-.28.1-.13.17-.28.17-.47.04-1.45.04-3.55.45-4.74.06-.15.09-.23.12-.3.04-.08.08-.15.13-.22.17-.24.37-.37.61-.37.65.05.53,1.33.86,2.29.34.98.08,3.2-.44,5.98-.6,3.16-.84,6.04-1.11,7.3-.1.45.46.74.77.41,1.83-1.9,5.58-7.97,6.23-11.05.34-1.61.3-3.99.03-5.47-.41-2.33-1.92-4.77-2.06-5.3-.03-.1,0-.45.08-1.29.08-.77.2-1.95.38-3.74.35-3.4.91-9.01,1.73-18.14.23-2.5.21-4.58.07-6.36-.41-5.15-1.96-7.74-2.18-10.73.04-.34.05-1.54.04-3.36-.02-1.65-.04-3.8-.09-6.28l1.87.09s.24-8.39-.31-17.63c-.19-3.3-.49-6.7-.94-9.87-.56-3.99-1.35-7.61-2.47-10.16-.01-.05-.03-.09-.04-.13-.22-.5-.46-.95-.72-1.36-.31-.51-.65-.95-1.01-1.31-2.18-2.14-5.83-1.92-8.85-2.9-1.53-.5-5.91-2.08-8.44-3-.85-.31-1.5-.54-1.76-.64-.08-.03-.12-.05-.12-.05-.04,0-.31.04-.31.04-.93-.64-1.78-1.36-2.43-2.15-.65-.8-1.12-1.68-1.29-2.64-.07-.41-.09-.83-.06-1.27.01-.16,0-.33.02-.5.08-.72.53-2.51,1.05-3.06,1.03-.34,1.63-.63,1.63-.63,0,0,1.13-2.11,2.49-4.74.31-.57.6-1.13.86-1.69.36-.71.72-1.43,1.06-2.14.13.1.28.16.44.15.47-.01,1.03-.47,1.13-.87.51-1.98.29-1.16.8-3.13.1-.4,1.82-3.57.78-4.14.2-.96.36-2,.4-3.21.14-.38.27-.76.39-1.14,1.25-3.89,1.44-8.12.5-12.1-.53.54-1.06,1.09-1.6,1.63.14-.92.09-1.87-.14-2.77-.48.18-.95.36-1.42.54-.12-2.19-.53-4.37-1.2-6.45-.59.49-1.18.99-1.77,1.48-.46-.54-.93-1.08-1.39-1.62-.02.58-.72,1.01-1.25.78-.43-.19-.64-.66-1.01-.95-.37-.29-1.1-.18-1.06.28-.69-1.07-2.59-.97-3.16.17-.5-.64-1.04-1.31-1.81-1.58-.76-.26-1.8.08-1.96.88-.34-.79-1.52-1.03-2.15-.44-.23.22-.4.52-.7.61-.49.15-.91-.36-1.16-.79-.23.53-.46,1.06-.69,1.58-.86-.39-1.89-.39-2.75,0-.21.96-.41,1.91-.62,2.87-.1-.01-.21-.03-.32-.05-1.05-.22-1.43.57-1.12,1.69-.51-.39-1.08-.7-1.69-.91-.1,3.21-.2,6.42-.29,9.62-.34,1.14-.58,2.22-.74,3.24-.24,1.51-.3,2.9-.24,4.17-.04,0-.08,0-.11.02-1.13.38.04,3.8.07,4.21.17,2.03.09,1.19.26,3.22.03.41.5.96.96,1.05.22.04.44-.03.61-.16,1.37,4.41,3.12,9.3,3.12,9.3,0,0,.56.51,1.68,1.1.27.81.37,2.14.37,2.71,0,.24-.03.39-.05.55-.01.09-.02.17-.03.25-.03.43-.13.84-.29,1.22-.7,1.76-2.53,3.07-4.68,4.02-.09,0-.12.01-.2.03-1.01.19-8.54,1.56-10.69,1.87-.49.07-1,.11-1.54.12-1.61.04-3.37-.1-4.97.04-1.31.11-2.51.41-3.41,1.15-6.54,5.38-10.87,38.51-10.87,38.51l1.31.22c-.32,1.69-.61,3.25-.86,4.6-.53,2.89-.86,4.89-.89,5.41-.44,1.77-1.34,3.32-2.26,5.38-1.11,2.5-2.26,5.76-2.69,11.1-.73,9.14-1.12,14.76-1.35,18.17-.12,1.8-.2,2.99-.25,3.76-.06.84-.09,1.19-.14,1.29-.21.45-1.82,2.28-2.7,4.31-.09.19-.16.38-.23.57-.51,1.42-.94,3.76-.88,5.39Z" fill="#007171" stroke-width="0"/><path d="m453.3,428.57c.12,2.68,1.6,7.26,2.98,9.98.27.53.53.99.78,1.35.26.38.86.18.84-.28-.04-.87-.02-1.59-.03-2.94,0-.68,0-1.51-.03-2.61-.07-2.88-.64-5.94-.14-6.87.5-.93.58-2.26,1.23-2.15,1.3.21.67,3.8.42,5.71,0,.05-.01.1-.02.15-.12.83.94,1.26,1.46.61,0,0,1.82-4.22,2.08-7.01v-.16c.03-.25.04-.49.04-.7-.11-2.68-.35-3.78-1.12-4.91-.77-1.13.37-4.79.37-4.79,0,0,8.64-21.04,10.31-32.15,1.35-3.73,2.81-8.19,4.18-12.53,1.26-4.01,2.43-7.91,3.34-11.01.78-2.66,1.36-4.72,1.63-5.76.57,5.14-.82,15.27-2.54,24.89-.16.92-.33,1.83-.5,2.73-2.06,11.14-4.38,21.04-4.39,21.2.34.07.71.15,1.1.22-1.07,2.93-2.2,6.14-2.74,7.9-1.83,5.83-2.91,10.48-3.38,15.82-.17,1.95-.26,4-.28,6.23-.04,6.68.22,13.2,1.41,19.77,0,.06.02.13.03.19,1.09,5.98,3.29,11.79,2.77,17.87,0,.13-.02.26-.04.39l15.2,1.19c.25-1.71.52-3.43.8-5.15,1.84-11.32,4.14-22.72,4.82-33.96.1-1.57.18-3.22.41-4.81.06-.41.13-.82.21-1.22.12,0,.38.14.81.24.17.04.37.07.59.09h.1c.69.06,1.13-.07,1.35-.1,0,.04,0,.09,0,.14.01.35.02.72.01,1.08-.01,1.6-.19,3.24-.34,4.81-.06.69-.12,1.38-.18,2.07-.52,6.61-.53,13.36-.46,20.12.01,1.37.03,2.74.05,4.1.04,2.97.09,5.93.09,8.89.01,1.45,0,2.89,0,4.32l15.19,1.18c0-.13.02-.26.03-.39.19-2.62.87-5.12,1.74-7.57,1.14-3.23,2.63-6.38,3.76-9.65,2.22-6.36,3.52-12.83,4.52-19.5.33-2.21.56-4.24.69-6.19.37-5.35.02-10.11-.88-16.15-.29-1.94-.86-5.22-1.35-7.89,0-.13-.02-.24-.05-.36.39-.01.75-.02,1.1-.04.11,0,.07-2.06-.02-5.34-.13-4.02-.35-9.89-.49-16.1-.27-10.96-.33-23.02.69-27.99.11.93.4,2.78.78,5.17.6,3.77,1.43,8.85,2.2,13.67.16,1.01.31,2,.46,2.98.52,3.31.95,6.31,1.22,8.45-.09,3.42.56,8.63,1.43,13.91.03.17.06.33.08.49.04.25.08.5.13.75,1.04,6.11,2.33,12.16,3.09,15.57.39,1.77.64,2.83.64,2.83,0,0,.56,3.79-.37,4.79-.81.87-1.22,1.77-1.66,3.7-.07.3-.14.62-.21.97-.05.26-.08.55-.1.85-.16,2.8.97,7.25.97,7.25.15.27.4.41.64.42.07,0,.15,0,.22-.01.35-.06.67-.35.68-.78,0-.05,0-.1,0-.15.05-1.92-.01-5.57,1.29-5.58.66,0,.54,1.32.89,2.32.35,1-.69,3.94-1.21,6.77-.34,1.87-.5,2.98-.63,3.83-.1.62-.18,1.1-.29,1.64-.08.38.3.65.62.52.06-.02.12-.06.17-.11,1.84-1.94,4.82-7.47,5.46-10.61.33-1.64.22-3.32-.06-4.83-.44-2.38-1.28-4.29-1.44-4.83-.14-.51.14-10.62.07-21.14,0-1.99-.03-3.99-.07-5.95-.11-5.45-.37-10.54-.87-13.92-.06-1.54-.13-3.12-.2-4.77-.33-7.91-.81-17.21-1.99-28.97-.06-.58-.11-1.16-.17-1.72-.46-4.3-1.04-8.1-2.29-10.83-2.18-4.76-6.62-6.4-11.02-7.13,1.36-5.91,1.91-12.4,2.18-18.14.21-4.57.25-8.66.37-11.57.31-6.82,2.2-21.34-15.16-22.7-16.13-1.26-17.11,13.16-17.87,19.77-.34,2.96-.91,7.14-1.33,11.84-.53,5.71-.86,12.19-.36,18.22-4.06-.07-8.38.5-11.46,3.65-.5.49-.95,1.05-1.37,1.68-1.88,2.83-4.08,10.94-5.35,15.81-2.86,10.98-4.82,21.26-5.67,26.37-.22,1.33-.36,2.31-.43,2.85-.08.36-.17.76-.26,1.16-1.58,7.31-3.91,21.55-5.45,30.71-.8,4.81-1.38,8.23-1.51,8.5-.24.51-1.37,2.27-2.18,4.55-.51,1.44-.88,3.09-.8,4.76Z" fill="#007171" stroke-width="0"/><path d="m138.17,425.91c1.48,2.84,5.87,7.33,8.18,8.69.4.24.85-.2.64-.61-.61-1.17-.95-2.08-2.39-5.01-1.27-2.58-3.09-5.12-3.02-6.18.06-1.05-.42-2.29.21-2.47,1.26-.36,2.21,3.17,2.78,5,.01.05.03.09.05.14.24.8,1.39.75,1.58-.06,0,0-.02-.83-.13-1.98-.03-.39-.07-.81-.12-1.26-.16-1.34-.42-2.86-.82-4l-.06-.15c-.09-.23-.18-.45-.27-.65-1.23-2.38-1.91-3.28-3.08-3.98-1.17-.7-1.68-4.5-1.68-4.5,0,0-.18-4.07-.63-9.58-.46-5.56-1.18-12.58-2.27-18.37-.38-2.05-.81-3.93-1.28-5.55-.16-1.86-.37-3.88-.61-5.97-.48-4.28-1.09-8.85-1.65-12.9-.29-2.05-.57-3.97-.83-5.66-.41-2.74-.75-4.85-.95-5.91,1.71,2.82,3.55,7.81,5.3,13.5.62,2.03,1.24,4.14,1.83,6.29,3.67,13.21,6.62,27.44,6.68,27.61.34-.08.71-.17,1.09-.26.26,3.11.59,6.5.83,8.32.25,1.87.5,3.57.8,5.19.11.59.22,1.17.33,1.74.63,3.06,1.4,5.88,2.47,8.83.24.66.49,1.33.77,2.01.42,1.05.87,2.12,1.36,3.23.08.17.16.35.24.53,2.8,6.13,5.82,12,9.72,17.5.93,1.32,1.93,2.6,2.93,3.87.02.03,17.92-6.64,17.92-6.64-2.3-8.49-4.63-16.98-7.77-25-.57-1.47-1.19-3-1.65-4.53-.12-.4-.23-.8-.32-1.2.11-.04.41-.03.84-.12.17-.04.37-.09.58-.17l.09-.03c.65-.24,1-.55,1.18-.66.02.04.04.08.07.13.16.32.32.64.47.98.66,1.46,1.2,3.02,1.72,4.51.23.65.47,1.3.71,1.96l.1.28c2.3,6.12,5.08,12.16,7.95,18.17.57,1.2,1.14,2.39,1.72,3.58l17.89-6.67c-.07-1.63-.15-3.26-.32-4.89-.66-6.71-2.21-13.12-4.11-19.59-.63-2.14-1.28-4.09-1.98-5.91-1.92-5-4.23-9.18-7.6-14.28-1.08-1.64-2.98-4.37-4.55-6.58-.05-.12-.12-.21-.2-.3.35-.17.67-.34.98-.5.16-.08-2.21-4.69-5.39-11.01-2.53-5.02-5.58-11.12-8.31-16.88-3.3-7-6.13-13.51-6.96-17.02.49.79,1.53,2.35,2.89,4.36.71,1.07,1.51,2.25,2.37,3.51,2.22,3.29,4.78,7.06,7.05,10.47.78,1.16,1.52,2.28,2.2,3.33.96,1.45,1.8,2.76,2.46,3.82,3.86,8.89,19,28.18,19,28.18,0,0,2.11,3.2,1.68,4.5-.43,1.3-.35,2.42.27,5.03.06.26.15.53.27.82,1.03,2.61,3.94,6.17,3.94,6.17.25.18.53.2.76.11.4-.15.69-.62.47-1.1-.02-.05-.04-.09-.06-.14-.77-1.77-2.36-5.05-1.18-5.6.6-.28,1.05.97,1.78,1.73.74.76,1.03,3.86,1.76,6.65.83,3.16,1.17,4.07,1.47,5.35.1.45.74.48.89.04.85-2.54,1.23-8.81.49-11.92-.39-1.63-1.2-3.11-2.09-4.35-1.4-1.97-2.97-3.35-3.34-3.78-.6-.69-11.95-27.55-18.05-36.83-4.08-7.93-8.91-17.39-16.19-29.69-1.44-2.43-2.82-4.7-4.21-6.61-1.08-1.49-2.18-2.76-3.32-3.73-1.79-1.53-3.74-2.3-5.73-2.56-.86-.12-1.72-.14-2.58-.09-1.58.08-3.16.4-4.68.83-2.25-10.67-7.69-21.95-10.19-28.02-.2-.5-.42-1.03-.65-1.61-2.7-6.77-7.62-18.2-22.65-12.59-14.17,5.28-10.57,17.42-8.33,24.14.16.47.31.91.44,1.32,2.01,6.06,5.42,17.55,10.55,26.96.19.34.37.68.56,1.01-1.84.82-3.68,1.81-5.24,3.11-.93.78-1.77,1.67-2.46,2.69-.33.5-.62,1.03-.87,1.6-.38.86-.66,1.79-.82,2.83-.51,3.36.91,11.64,1.8,16.59,1.65,9.06,3.64,17.47,5.07,22.97.14.54.27,1.04.4,1.53.6,2.24,1.06,3.83,1.31,4.58.29,1.39.7,3.12,1.19,5.05,1.57,6.33,3.95,14.97,5.89,22.03.39,1.38.75,2.71,1.09,3.95,1.34,4.84,2.28,8.31,2.29,8.62,0,.56-.29,2.63-.06,5.04.15,1.52.5,3.17,1.28,4.65Z" fill="#007171" stroke-width="0"/><path d="m318.41,448.39c.1,2.12,1.04,5.43,2.12,8.07.19.48.39.94.59,1.36l1.85.14c0-.33,0-.71,0-1.15,0-.74,0-1.67-.03-2.93-.07-2.88-.65-5.94-.15-6.87.5-.92.59-2.26,1.24-2.16,1.3.21.66,3.81.41,5.72,0,.05-.01.1-.02.15-.11.83.94,1.26,1.46.61,0,0,1.82-4.22,2.09-7.01v-.16c.03-.25.04-.49.03-.7-.11-2.69-.35-3.78-1.12-4.91-.76-1.13.37-4.79.37-4.79,0,0,8.64-21.04,10.32-32.15,1.8-4.98,3.81-11.29,5.52-16.85.74-2.43,1.43-4.73,2-6.69.78-2.66,1.36-4.72,1.63-5.76.59,5.25-.87,15.67-2.63,25.46-2.15,11.99-4.78,23.19-4.79,23.35.34.07.71.15,1.1.22-1.07,2.93-2.19,6.14-2.74,7.9-1.83,5.83-2.91,10.48-3.38,15.82-.17,1.95-.26,4-.28,6.23-.02,2.53,0,5.05.11,7.55l24.01,1.87c.38-3.05.69-6.1.87-9.14.1-1.57.18-3.22.42-4.8.06-.41.13-.82.21-1.22.12,0,.4.16.87.26.16.03.33.06.53.08h.1c.69.06,1.13-.07,1.35-.1,0,.04,0,.09.01.14,0,.35.02.72.01,1.08-.02,1.6-.19,3.24-.34,4.81-.29,3.03-.46,6.09-.56,9.16l24,1.87c.49-2.45.91-4.94,1.29-7.44.33-2.21.56-4.24.69-6.19.36-5.35.02-10.11-.88-16.15-.29-1.94-.86-5.22-1.36-7.89,0-.13-.02-.24-.04-.36.38-.01.75-.02,1.09-.04.15,0,.03-3.77-.15-9.27-.1-3.15-.22-6.86-.32-10.76-.27-10.29-.39-21.89.4-27.81.08-.59.17-1.13.26-1.6.04.36.11.85.2,1.45.14.97.34,2.24.58,3.72.73,4.56,1.79,11.03,2.66,16.65.51,3.31.95,6.31,1.21,8.45-.24,9.69,5.37,33.56,5.37,33.56,0,0,.11.76.15,1.68.03.69.02,1.47-.1,2.11-.08.42-.22.78-.42,1-.94.99-1.34,2.04-1.87,4.68-.05.26-.08.55-.1.85-.16,2.8.97,7.25.97,7.25.15.27.39.41.64.42.1,0,.2,0,.3-.03.32-.09.58-.37.59-.77,0-.05,0-.1,0-.15.04-1.93-.02-5.57,1.29-5.58.66,0,.54,1.33.89,2.32.36,1-.69,3.94-1.2,6.77-.37,2.01-.53,3.14-.67,4.03l1.86.14c1.7-2.52,3.64-6.45,4.14-8.9.34-1.64.23-3.32-.05-4.83-.44-2.38-1.29-4.29-1.44-4.83-.19-.65.32-16.62-.06-29.38-.03-1.09-.07-2.16-.11-3.2-.15-3.29-.37-6.23-.7-8.43-.35-8.77-.75-19.2-2.12-33.09-.02-.22-.04-.43-.06-.66-.5-5-1.05-9.46-2.47-12.55-.55-1.19-1.23-2.18-2.02-3.01-1.75-1.85-4-2.91-6.39-3.56-.86-.23-1.74-.41-2.61-.56,2.45-10.62,2.27-23.15,2.56-29.71.05-1.2.15-2.63.19-4.19.12-4.92-.39-11.09-5.09-14.94-2.29-1.87-5.57-3.2-10.26-3.56-1.5-.12-2.86-.1-4.11.04-2.41.26-4.37.95-5.98,1.94-6.56,4.02-7.23,12.98-7.78,17.8-.29,2.49-.73,5.82-1.12,9.6-.46,4.42-.84,9.44-.82,14.44,0,2.03.08,4.04.24,6.01-1.85-.03-3.75.07-5.57.49-2.79.64-5.39,2.03-7.25,4.84-1.88,2.83-4.08,10.94-5.35,15.81-3.61,13.83-5.79,26.56-6.1,29.23-1.53,6.69-3.97,21.44-5.58,31.14-.87,5.2-1.5,8.94-1.63,9.23-.13.28-.53.93-1,1.85-.39.75-.82,1.68-1.18,2.7-.51,1.44-.88,3.09-.8,4.76Z" fill="#007171" stroke-width="0"/><path d="m24.53,310.4c1.5,1.55,1.83,2.99,2.59,5.13l-.16.06c.73,4.64,2.01,8.93,3.5,12.7,3.89,9.88,9.16,16.32,9.51,16.74.27,1.32,1.73,4.77,4.11,9.11,2.49,4.53,5.97,9.99,10.11,14.97,1.61,1.94,3.31,3.78,5.09,5.46.06.06.11.11.17.16.71.66,1.81,1.57,3.1,2.62,1.55,1.26,3.37,2.73,5.12,4.28-.02.08-.03.12-.03.12,2.18,3.35,8.6,9,10.79,16.71,1,3.54,1.72,7.28,2.23,10.91.58,4.03.9,7.91,1.09,11.16.3,5.25.23,8.89.24,8.92.31-.07.64-.14.98-.22l2.01,16.31.54,4.38,2.61,21.15s2.42-.26,6.44-.99c.14-.03.27-.05.41-.07,1.26,2.29,2.62,4.53,4.11,6.72,1.6,2.34,3.39,4.53,5.07,6.81,1.64,2.24,3.15,4.54,4.22,7.08l14.52-5.15c-1.92-7.04-3.61-14.23-5.54-21.28.55-.19,1.11-.38,1.67-.58.8-.28,1.58-.57,2.36-.86.87,1.98,1.76,3.95,2.66,5.92.57,1.25,1.14,2.49,1.72,3.73,1.24,2.7,2.49,5.39,3.7,8.09.34.77.69,1.54,1.03,2.31l14.51-5.14c-.08-.29-.16-.58-.23-.87-.45-1.78-.69-3.59-.83-5.42-.27-3.42-.19-6.9-.48-10.34-.18-2.23-.46-4.42-.82-6.6-.07-.43-.14-.81-.21-1.19,3.01-1.6,5.15-2.85,6.1-3.41.37-.22.56-.33.56-.33l-1.87-2.92-12.22-19.08-8.76-13.68c.09-.04.18-.09.26-.13.1-.05-1.1-1.58-2.94-4.1-1.88-2.59-4.45-6.21-6.98-10.33-2.06-3.35-4.1-7.04-5.74-10.75-1.09-2.47-1.76-5.04-2.18-7.52-.94-5.47-.7-10.51-1.1-13.13.93-4.29,2.62-8.75,2.94-11.18,2.03-14.82-2.04-32.46-3.57-35.31.01-.78.1-16.4-8.42-31.09,0,0-.16.05-.16.05-.56-1.5-.94-2.49-1.17-3.13-.26-.71-.35-1-.36-1.09.06-3.84,1.97-15.03-2.39-17.25-1.87-.95-4.79.07-5.32,2.09-.4,1.52,4.77,10.55,2.72,11.09-.2.06-.4-.01-.58-.16-.08-.08-.13-.12-.18-.18-.71-.82-1.23-2.86-1.58-4.07-.09-.29-.19-.42-.3-.51-.19-.14-.45-.17-.67-.09-.2.1-.27.17-.32.24-.06.07-.1.16-.13.27,0,0,.05,4.01.83,6.34.04.12.08.24.12.35.05.12.1.23.15.34.32.64.59,1.16.85,1.59.56.94,1.04,1.45,1.7,1.88.03.02.06.03.09.05.22.13.41.43.57.81.37.83.6,2.07.72,2.92.02.14.04.26.06.37.09,2.27.87,19.34,3.47,27.23,0,0,.49,2.14,1,5.22.89,5.28,1.88,13.31.68,17.97-2.62-3.17-4.57-6.9-5.63-10.88,1.21.89,2.85,1.17,4.29.74-1.97-1.71-3.77-3.63-5.34-5.71-.89-1.17-1.71-2.39-2.46-3.65,1.23.32,2.53.39,3.78.2-3.2-2.45-6.09-5.3-8.59-8.46-2.78-6.8-7.94-15.82-21.66-10.96-14.57,5.16-10.7,17.78-8.58,24.44.35,3.85.48,7.72.39,11.59-.04,1.72-.12,3.43-.25,5.15,1.5-1.04,2.63-2.61,3.12-4.38.94,1.94,1.64,4,2.1,6.11.53,2.46.73,5,.57,7.53,1.48-1.16,2.57-2.81,3.05-4.63-.09.35,1.42,2.36,1.63,2.8.52,1.1.94,2.25,1.24,3.43.09.33.16.65.23.95-.21.1-.42.19-.64.29-.8.06-1.37.23-1.59.28-4.48,1.13-11.13-9.3-14.71-15.65-1.53-2.72-2.51-4.69-2.51-4.69-2.94-7.76-13.09-21.52-14.45-23.34-.06-.09-.12-.2-.19-.32-.44-.74-1.04-1.85-1.28-2.73-.11-.4-.15-.75-.07-.99.02-.03.03-.06.03-.09.25-.75.29-1.45.14-2.54-.07-.5-.19-1.07-.34-1.77-.02-.12-.06-.23-.1-.36-.04-.12-.08-.23-.12-.35-.86-2.3-3.35-5.44-3.35-5.44-.08-.07-.17-.11-.26-.13-.09-.02-.18-.03-.27-.01-.35.11-.53.3-.6.53-.04.14-.03.3.04.45.5,1.19,1.27,2.89,1.37,3.99,0,.12,0,.21.01.29,0,.04-.01.07-.02.11,0,.05,0,.1-.01.15-.05.23-.16.4-.36.49-.52.24-.9-.86-1.52-1.53-2.1-2.23-1.34-6.55-3.84-8.48-.28-.22-.66-.36-1.08-.44-1.67-.31-4.11.4-4.99,1.59-2.61,3.49,2.07,7.86,4.32,10.11,1.45,1.47,3.32,2.75,4.69,4.17Zm71.57,35.6c-.26.12-1.14.41-2.01,1.02-.25.08-.51.15-.76.21-.22.03-.43.08-.64.13-.03,0-.06.01-.09.02-.72-1.76-1.14-3.65-1.12-5.49,2.18.59,4.35,1.17,6.54,1.75-.44,1.13-1.06,1.96-1.91,2.36Z" fill="#007171" stroke-width="0"/><path d="m492.43,363.15c-.13,1.6-.12,3.24.4,4.76.3.85,1.5,1.73,2.97,2.51.26.14.52.27.79.4.42.21.86.4,1.3.59,2.08.87,4.08,1.47,4.49,1.45.16,0,.34.04.5.02l-.09.51,4.23,5.8,13.29,18.19c.15.85.5,1.6.97,2.24,1.56,2.13,4.52,2.89,6.49,1.32.22-.17.42-.38.62-.61.32-.4.6-.88.82-1.45,2.05-5.68,4.39-13.1,6.21-19.14.48-1.58.92-3.07,1.31-4.41.78-2.68,1.37-4.75,1.64-5.79,0,.05.01.09.02.14-.01.08.08.69.24,1.65.01.08.03.17.05.26,1.08,7.04,1.82,10.72,2.08,12.03-.21-.09-.42-.17-.64-.26l.37,2.2-1.05,3.4-2.94,9.48-1.43,4.6-4.19,13.49-13.71,44.09s3.06,1.46,9.2,3.11c.19,1.6.43,3.2.72,4.8.33,1.84.77,3.66,1.21,5.47l18.76,1.46c.45-2.65.91-5.3,1.33-7.96.76.07,1.54.14,2.33.2s1.62.12,2.42.16c0,1.14.01,2.28.02,3.43.01,1.37.03,2.74.05,4.11,0,.18,0,.36,0,.54l18.76,1.46c.71-1.73,1.42-3.45,2.03-5.22.55-1.59,1.05-3.18,1.5-4.78,6.7-.6,11.08-1.38,11.08-1.38l-12.98-77.94,1.14-1.84s-.37.06-1.03.16c.8-1.24,2.58-5.91,4.49-13.82.11.92.39,2.79.78,5.2.72,4.55,1.79,11.03,2.66,16.65.51,3.31.95,6.31,1.21,8.45-.24,9.69,5.37,33.56,5.37,33.56,0,0,.56,3.79-.37,4.79-.94.99-1.34,2.04-1.87,4.68-.05.26-.08.54-.1.85-.16,2.8.97,7.25.97,7.25.15.27.39.41.64.42.43.03.88-.28.89-.8,0-.05,0-.09,0-.14.05-1.93-.01-5.57,1.3-5.58.66,0,.54,1.33.89,2.32.36.99-.69,3.94-1.2,6.76-.58,3.22-.66,4.19-.92,5.47-.1.45.46.75.79.41,1.2-1.26,2.86-4.02,4.06-6.66.66-1.44,1.18-2.84,1.4-3.95.34-1.64.23-3.32-.05-4.83-.26-1.42-.67-2.67-.99-3.57-.21-.61-.39-1.05-.45-1.26-.25-.88.76-30.02-.87-41.01-.14-3.55-.29-7.37-.51-11.59-.29-5.65-.71-12.02-1.41-19.38-.08-.91-.17-1.84-.26-2.79-.5-5-1.04-9.45-2.47-12.54-1.39-3.03-3.69-4.8-6.32-5.87.53-3.26.85-6.79.91-10.62.07-4.13-.16-8.61-.76-13.46,0,0-.72-3.65-1.56-7.89-1.11-5.63-2.44-12.3-2.61-12.86-.5-1.89-1.5-3.62-3.08-5-.82-.72-1.84-1.35-2.83-1.88-2.61-1.39-5.72-2.14-8.82-2.19-.06,0-.11,0-.16,0-2.06-.02-4.11.27-5.99.89-1.02.34-1.99.77-2.89,1.3-1.32.78-2.43,1.9-3.33,3.23-.8,1.18-2.39,5.62-3.89,10.12-.27.79-.53,1.59-.79,2.38-.14.44-.28.86-.42,1.28-.31.98-.61,1.91-.87,2.75-.84,2.63-1.4,4.49-1.4,4.49-2.68,9.19-3.79,17.17-3.85,24.09-.32.07-.64.15-.96.25-1.75.51-3.4,1.36-4.81,2.72-.57.54-1.1,1.17-1.58,1.89-.84,1.26-1.74,3.57-2.59,6.18-1.07,3.24-2.05,6.93-2.76,9.62-.68,2.6-1.31,5.16-1.88,7.61-.9,3.86-1.67,7.47-2.3,10.62l-1.37-1.47-11.87-12.65-4.83-5.14c-.43-.59-.56-1.46-.53-2.26.05-1.13.31-2.29,0-3.39-.35-1.24-1.35-2.14-2.28-3.07-.2-.21-.4-.41-.59-.62-.3-.34-.58-.7-.88-1.04-.49-.57-1.03-1.08-1.73-1.31-1.21-.4-2.58.2-3.41,1.17-.78.9-1.18,2.06-1.47,3.21-.02.08-.04.17-.06.25-.36,1.47-.59,2.98-.72,4.49Z" fill="#007171" stroke-width="0"/><path d="m294.43,268.22c-2.9,10.76-2.11,20.94-1.17,26.88.53,3.34,1.11,5.34,1.11,5.34-.15.63-.24,1.85-.24,3.53-.02,6.68,1.32,20.47,5.97,31.5.17.41.4.9.67,1.46,1.3,2.67,3.56,6.82,5.14,10.71.54,3.55,1,6.25,1.36,8.24.17.96.32,1.75.44,2.39.28,1.47.42,2.12.4,2.11.05.04-4.83,16.55-4.83,16.55,0,.01-.52,1.77-.52,1.77,0,0-3.1,10.48-3.1,10.48,0,0,.47.44,1.36,1.11-.23.57-.5,1.25-.79,2.01-.12.3-.2.5-.27.7-.16.42-.32.86-.49,1.3-.44,1.2-.9,2.46-1.33,3.67-.66,1.88-1.25,3.61-1.6,4.73-1.83,5.83-2.91,10.48-3.38,15.81-.17,1.95-.26,4-.28,6.23-.04,5.53.14,10.96.88,16.39.16,1.2.34,2.38.56,3.57.69,3.77,1.81,7.47,2.42,11.21l16.61,1.3c.3-1.82.61-3.64.92-5.46.31-1.85.63-3.7.94-5.54,1.19-7.08,2.24-14.16,2.67-21.17.1-1.57.17-3.22.41-4.8.06-.41.13-.82.21-1.21.12,0,.37.13.79.22.18.04.38.08.61.1.79.06,1.23-.07,1.44-.1,0,.04,0,.09.01.14,0,.35.02.71.01,1.08-.01,1.6-.19,3.24-.34,4.81-.12,1.25-.22,2.5-.3,3.76-.25,3.92-.35,7.89-.37,11.88-.01,2.18,0,4.37.02,6.55.02,1.37.03,2.74.05,4.11.03,1.62.05,3.25.07,4.87,0,.44.01.88.01,1.32l16.6,1.29c.11-.36.23-.7.36-1.05,1.14-3.23,2.63-6.39,3.77-9.65,2.23-6.36,3.52-12.84,4.52-19.5.33-2.21.57-4.24.69-6.2.36-5.34.02-10.1-.88-16.14-.29-1.94-.86-5.23-1.36-7.89-.03-.3-.09-.59-.15-.87-.07-.36-.14-.72-.22-1.07-.08-.39-.15-.7-.21-.99-.17-.8-.4-1.66-.61-2.33.75-.66,1.06-1.13,1.06-1.13l-1.02-7.5-2.83-20.88c.34-.04.4-.93.41-.94.45-.16,1.84-3.3,3.51-9.23.02.36.04.68.04.97.46-1.86,1.65-3.87,3.08-5.84,1.71-2.34,3.75-4.62,5.33-6.5.83-1,1.54-1.88,1.98-2.61,1.78-2.88,3.33-6.01,4.67-9.18,4.57-10.84,6.6-22.04,6.42-24.54,0,0,.88-1.89,1.92-5.1.23-.72.47-1.5.71-2.35,1.67-5.89,3.34-14.7,2.3-24.39l-.16-.02c.09-1.6.16-2.65.2-3.33.05-.75.08-1.06.12-1.14.2-.44,1.88-2.36,2.57-4.34,1.15-3.27,4.78-10.38.77-12.92-7.6-4.8-3.37,11.99-6.25,11.53-.21-.04-.37-.17-.47-.39-.02-.04-.03-.09-.05-.13-.01-.04-.03-.07-.04-.11-.03-.07-.04-.15-.05-.23-.2-1.14.1-2.99.26-4.13.04-.3,0-.45-.07-.57-.12-.21-.34-.34-.58-.36-.22.01-.31.04-.39.09-.09.04-.16.11-.23.19,0,0-1.58,3.68-1.82,6.13,0,.13-.02.25-.02.37,0,.13,0,.26,0,.38.03.71.07,1.29.13,1.79.14,1.09.36,1.75.8,2.41l.06.08c.15.22.2.56.2.97,0,.91-.3,2.14-.53,2.96-.04.14-.07.26-.1.36-.84,2.11-7.07,18.03-7.89,26.29-.26,1.27-4.93,24-11.34,24.11-.29,0-1.87-.02-3.25.02-.16-.02-.31-.04-.46-.07-.06,0-.12-.01-.17-.02-.28-.05-.56-.09-.82-.15-1.17-.24-2.25-.6-3.13-1.17-2.47-1.61-3.53-3.54-3.77-5.8,11.36.27,15.27-4.16,18.53-6.14-1.48-2.21-2.58-4.67-3.23-7.25,1.13.75,2.51,1.14,3.86,1.09-1.37-1.49-2.39-3.23-3.16-5.1-.75-1.81-1.27-3.74-1.66-5.65-.56-2.74-.89-5.51-1.4-8.25-.66-6.39-3.71-13.06-15.21-13.96-8.85-.69-13.13,3.34-15.33,8.2-1.68,3.58-2.64,7.48-4.03,11.21-.68,1.83-1.5,3.65-2.52,5.33-1.05,1.73-2.33,3.3-3.91,4.55,1.33.26,2.75.09,3.99-.47-1.05,2.44-2.51,4.71-4.32,6.66,2.8,2.36,5.85,7.07,16.09,8.75-.4,1.56-1.17,2.89-2.52,3.97-.59.47-1.29.89-2.12,1.27-.74.33-1.56.51-2.44.61-.27.03-.56.05-.84.07-.14,0-.29,0-.43.01-.05,0-.09,0-.13,0-.19,0-.38,0-.58,0-.67-.26-1.23-.33-1.45-.37-6.32-1.1-7.41-24.29-7.46-25.53.46-8.34-3.23-25.03-3.73-27.25-.01-.11-.03-.23-.04-.37-.1-.85-.19-2.11-.06-3.01.06-.41.17-.74.34-.93.03-.02.05-.05.07-.07.53-.58.86-1.21,1.16-2.26.13-.48.26-1.05.4-1.75.02-.11.04-.23.05-.34.02-.13.03-.26.04-.4.14-2.45-.84-6.33-.84-6.33-.05-.09-.12-.17-.19-.23-.07-.06-.16-.1-.24-.12-.37-.04-.61.06-.76.26-.09.11-.14.25-.15.41-.02,1.08-.02,2.5-.21,3.56-.03.15-.05.25-.07.34,0,.06-.03.11-.04.17-.01.05-.03.1-.04.15-.02.04-.04.08-.05.12-.02.05-.04.1-.06.14-.03.07-.07.13-.11.18-.16.23-.33.34-.54.35-.88.01.15-9.25-2.45-10.89-.11-.06-.22-.12-.35-.16-7.09-2.38-1.47,14.58-.98,16.27.02.09,0,.4-.06,1.15-.06.68-.17,1.73-.32,3.32h-.16Z" fill="#007171" stroke-width="0"/><path d="m688.14,366.11c-.13,1.6-.12,3.24.4,4.76.82,2.36,8.7,4.98,9.55,4.96.16,0,.34.04.5.02l-.09.51,4.78,6.55.82,1.12,4.81,6.58,7.12,9.75c.14.78.43,1.46.84,2.06,1.76,2.6,5.56,3.33,7.44.61.24-.34.45-.73.62-1.18,2.59-7.17,5.64-17.09,7.52-23.54.64-2.21,1.15-4,1.46-5.14.07-.25.13-.46.17-.65,0,.05.01.09.02.14-.01.07,0,.18.04.39.05.32.14.85.25,1.52,1.08,7.04,1.82,10.72,2.08,12.03-.21-.09-.42-.17-.64-.26l.37,2.2-18.28,58.81-2.99,9.63-1.6,5.15-.45,1.45s1.1.53,3.29,1.3c1.48.52,3.44,1.15,5.91,1.82.19,1.6.43,3.2.72,4.8,1.09,5.98,3.29,11.78,2.77,17.87,0,.04,15.21,1.22,15.21,1.22.97-6.57,2.2-13.19,3.27-19.79.01-.11.03-.22.05-.33.76.07,1.54.14,2.33.2.63.05,1.25.09,1.87.13.18,0,.36.02.55.03,0,1.14.01,2.28.02,3.43.01,1.37.03,2.74.05,4.11.04,2.97.09,5.93.1,8.89,0,1.33,0,2.65,0,3.97l15.2,1.19c.19-2.66.87-5.16,1.75-7.61,1.14-3.23,2.63-6.39,3.76-9.65.55-1.59,1.05-3.18,1.5-4.78.09,0,.18-.02.26-.03,2.81-.26,5.2-.54,7.01-.78,2.42-.32,3.81-.57,3.81-.57l-1.27-7.61-2.39-14.37-4.61-27.66-4.71-28.3,1.14-1.84s-.37.06-1.03.16c.8-1.24,2.58-5.91,4.49-13.82.11.92.39,2.79.78,5.2.72,4.55,1.79,11.03,2.66,16.65.51,3.31.95,6.31,1.21,8.45-.05,1.96.14,4.5.48,7.31,1.32,11.06,4.89,26.25,4.89,26.25,0,0,.56,3.79-.37,4.79-.96,1.04-1.35,2.09-1.87,4.68-.05.26-.08.54-.1.85-.14,2.35.65,5.87.9,6.93.05.2.08.32.08.32.15.27.39.41.64.42.43.03.88-.28.89-.8,0-.05,0-.09,0-.14.05-1.93-.01-5.57,1.3-5.58.66,0,.54,1.33.89,2.32.36.99-.69,3.94-1.2,6.76-.58,3.22-.66,4.19-.92,5.47-.1.45.46.75.79.41,1.84-1.94,4.82-7.47,5.46-10.61.34-1.64.23-3.32-.05-4.83-.44-2.38-1.29-4.3-1.44-4.83-.25-.88.76-30.02-.87-41.01-.22-5.44-.46-11.52-.93-18.67-.31-4.56-.71-9.54-1.25-15.08-.22-2.26-.46-4.41-.78-6.38-.38-2.37-.9-4.48-1.68-6.17-1.39-3.03-3.69-4.8-6.32-5.87.91-5.64,1.21-12.11.62-19.51-.12-1.49-.27-3.02-.47-4.58,0,0-3.87-19.76-4.17-20.75-.5-1.89-1.5-3.62-3.08-5-.82-.72-1.84-1.35-2.83-1.88-2.61-1.39-5.72-2.14-8.82-2.19-.06,0-.11,0-.16,0-2.06-.02-4.11.27-5.99.89-1.02.34-1.99.77-2.89,1.3-1.32.78-2.43,1.9-3.33,3.23-1.76,2.6-7.36,21.02-7.36,21.02-.48,1.64-.9,3.23-1.28,4.79-1.76,7.2-2.52,13.61-2.57,19.3-2.83.63-5.46,2.02-7.35,4.86-.12.19-.25.4-.37.62-1.79,3.26-3.79,10.64-4.98,15.18-1.74,6.67-3.15,13.08-4.17,18.23l-6.09-6.49-6.21-6.62-1.51-1.61-4.26-4.54c-.43-.59-.56-1.46-.53-2.26.05-1.13.31-2.29,0-3.39-.43-1.52-1.82-2.51-2.87-3.69-.79-.89-1.49-1.98-2.62-2.35-1.21-.4-2.58.2-3.41,1.17-.83.97-1.23,2.22-1.53,3.46-.36,1.47-.59,2.98-.72,4.49Z" fill="#007171" stroke-width="0"/><path d="m664.55,397.48l-18.29,58.83s1.4.67,4.21,1.62c.96.32,2.09.68,3.39,1.05.51.14,1.04.29,1.6.44.08.68.17,1.36.27,2.04.13.92.28,1.84.45,2.76,1.09,5.98,3.29,11.79,2.77,17.87-.06.69-.13,1.38-.21,2.07l15.13,1.18c1.02-7.35,2.42-14.75,3.62-22.14.76.07,1.54.14,2.33.2s1.62.12,2.42.16c0,1.14.01,2.28.02,3.43.01,1.37.03,2.74.05,4.11.04,2.97.09,5.93.1,8.89,0,2.02,0,4.03-.03,6.02l15.12,1.18c.02-.7.06-1.39.11-2.08.19-2.62.87-5.12,1.74-7.57.81-2.3,1.8-4.55,2.7-6.83.38-.93.73-1.87,1.06-2.82.56-1.59,1.05-3.18,1.5-4.78,3.4-.3,6.2-.65,8.14-.93.2-.03.38-.05.55-.07,1.54-.22,2.39-.38,2.39-.38l-.79-4.77-.19-1.14-4.57-27.41-1.69-10.14-3.41-20.45-1.94-11.62-.4-2.41.56-.9.59-.95s-.37.06-1.03.16c.43-.66,1.15-2.32,2.01-4.94.23-.71.48-1.49.73-2.34.16-.52.31-1.07.48-1.65.02.37.03.7.04.99,1.31-5.26,8.37-11.7,10.39-14.95.94-1.52,1.82-3.12,2.64-4.74,4.66-9.33,7.3-19.93,8.16-25.52.07-.48.13-.92.18-1.32.12-.95.15-1.68.12-2.12,0,0,6.79-14.54,4.94-31.84l-.16-.02c.09-1.6.15-2.65.2-3.33.05-.75.08-1.06.12-1.14.2-.44,1.88-2.36,2.57-4.34,1.07-3.06,2.47-12.14-1.01-14.14-4.7-2.71-2.35,8.92-3.4,10.86-.44.81-.51,1.98-1.08,1.89-.21-.04-.37-.17-.47-.39-.02-.05-.04-.11-.06-.16-.05-.15-.07-.24-.09-.32-.19-1.12.11-2.97.26-4.11.04-.29,0-.45-.06-.57-.12-.21-.34-.35-.58-.37-.22.01-.31.04-.39.09-.09.04-.16.11-.23.19,0,0-1.58,3.68-1.82,6.13,0,.13-.02.25-.02.37,0,.13,0,.25,0,.37.03.71.07,1.29.13,1.79.14,1.09.36,1.75.8,2.41.02.03.04.05.06.08.15.22.2.56.2.97,0,.91-.3,2.14-.53,2.96-.04.14-.07.26-.1.36-.84,2.11-7.07,18.03-7.89,26.29,0,0-.78,3.92-2.14,8.6-2,6.9-5.28,15.44-9.21,15.51-.34,0-1.74-.33-3.06.05-.22-.03-.45-.06-.66-.1-.06,0-.11-.01-.16-.02-.28-.05-.56-.09-.83-.15-1.17-.24-2.24-.6-3.13-1.17-1.24-.81-2.12-1.69-2.73-2.66,6.79-1.86,11.22-6.98,12.96-11.98.81-2.32,1.04-4.61.66-6.54,0,0-3.87-19.76-4.17-20.75-.5-1.89-1.49-3.62-3.07-5-.82-.72-1.84-1.35-2.84-1.88-2.61-1.39-5.72-2.14-8.82-2.19-.06,0-.11,0-.16,0-2.07-.02-4.12.27-5.99.89-1.03.34-2,.77-2.9,1.3-1.31.78-2.43,1.9-3.33,3.23-1.76,2.6-7.36,21.02-7.36,21.02-.77,1.94-1.1,4.35-.84,6.87.54,5.33,3.69,11.14,10.84,13.99-.73.8-1.7,1.5-2.97,2.07-.97.43-2.09.62-3.29.68-.14,0-.28,0-.43.01-.05,0-.09,0-.13,0-.24,0-.49,0-.73,0-.15,0-.3,0-.45,0-.21,3.45-8.06-.5-9.72,1.93-1.64,2.39-3.39,6.94-5.09,12.36-1.17,3.72-2.32,7.86-3.38,11.98-1.56,6.04-2.94,12.06-3.95,16.7-1.12,5.11-1.81,8.55-1.83,8.55,0,0,4.47-2.9,9.19-5.95,2.26-1.47,4.58-2.96,6.48-4.2,1.66-1.08,3.01-1.95,3.74-2.41l.16.99-2.41,7.76-.03.09-2.6,8.35Z" fill="#007171" stroke-width="0"/><path d="m237.33,422.97l6.08.47c.09-.17.19-.3.31-.36.04-.02.08-.03.13-.04.03,0,.06,0,.1,0,.25.05.42.22.54.48l3.14.24c.09-.43.16-.85.2-1.24.03-.3.04-.58.03-.84-.03-.8-.07-1.46-.13-2.02-.15-1.23-.39-1.97-.88-2.72-.03-.03-.06-.06-.08-.1-.16-.24-.22-.63-.21-1.09,0-.06,0-.12,0-.18.04-.88.29-1.97.52-2.81.03-.11.05-.21.08-.31.04-.17.09-.32.13-.45.11-.36.18-.57.18-.57,0,0,2.19-6.37,4.52-13.34,1.95-5.82,3.14-13.35,4.11-16.65.93-3.18,2.91-6.01,4.37-11.55l.25-1c.01-.05,1.08.13,1.08.13.25-.37.98-5.81,1.23-9.1.07-.92.1-1.67.08-2.09,0-.06.01-.11.02-.16.65,3.85.68,9.14,1.19,13.58.12,1.1.24,2.15.33,3.1.06.65.12,1.26.16,1.8.46,5.47-2.94,21.62-4.07,26.75-.07.19-.14.4-.21.61-.26-.08-.4-.12-.4-.12-.2.56-.63,1.8-.63,1.8-.26,1.09-2.11,6.76-3.72,12.6-.61,2.21-1.19,4.45-1.64,6.47l54.45,4.25c-.4-7.5-1.92-17.88-2.14-19.33.02,0-.13-.87-.23-1.5-.03-.15-.05-.28-.07-.38,0,0-.15.02-.41.07-.04-.23-.08-.46-.11-.67-.25-5.26-.88-21.73.48-27.04.09-.36.19-.74.3-1.15.28-1.05.62-2.24.99-3.5,1.09-3.75,1.94-8.21,2.99-11.75.17-.54.33-1.06.5-1.55v.15c-.07.25-.13.72-.18,1.34-.28,3.1-.49,9.8-.49,9.8l1.15.05c.03.39.05.78.08,1.16.13,1.48.33,2.78.55,3.95.64,3.38,1.53,5.73,1.81,8.17.4,3.42.31,11.04,1.25,17.1.23,1.44.45,2.87.66,4.22.86,5.43,1.56,9.7,1.56,9.7,0,0,.03.23.08.6,0,.03.01.07.01.1.01.09.02.2.03.32.1.96.2,2.38.05,3.39-.07.46-.19.84-.39,1.05-.03.03-.06.05-.08.08-.21.23-.38.46-.54.71-.31.48-.55,1.04-.78,1.82-.16.54-.3,1.18-.47,1.97-.02.12-.05.25-.07.38-.02.14-.03.3-.04.45-.01.26-.03.53-.02.8l10.22.8c-.03-.36-.07-.69-.13-.99-.01-.06-.02-.11-.04-.17-.46-2.29-1.89-4.61-2.03-5.13-.03-.11-.01-.45.07-1.29.08-.77.2-1.95.39-3.74.33-3.24.85-8.45,1.61-16.8.04-.44.08-.89.12-1.34.42-4.66.03-7.85-.54-10.35-.61-2.73-1.42-4.63-1.57-6.73.01-.12.02-.34.03-.65.02-1.41,0-4.73-.08-8.99l1.86.09s.35-12.27-.77-23.46c-.55-5.54-1.46-10.81-2.95-14.21-.02-.04-.03-.09-.05-.12-.21-.51-.45-.95-.71-1.36-.31-.51-.65-.96-1.01-1.31-.06-.06-.13-.12-.19-.18-2.2-1.95-5.73-1.76-8.66-2.72-.21-.07-.48-.16-.79-.27-.27-.09-.57-.2-.89-.32-2.9-1.02-7.69-2.76-8.52-3.06-.09-.03-.13-.05-.13-.05-.04,0-.31.04-.31.04-.13-.09-.26-.18-.38-.27-1.7-1.24-3.01-2.74-3.34-4.52-.07-.41-.09-.83-.06-1.27.02-.17,0-.33.02-.5.04-.37.18-1,.36-1.6.19-.61.44-1.19.69-1.46.64-.21,1.11-.4,1.38-.51.16-.06.24-.11.24-.11,0,0,1.13-2.11,2.48-4.74.31-.56.6-1.13.86-1.69.22-.42.43-.85.64-1.28.15-.29.29-.58.43-.86.13.09.28.16.44.15.48-.02,1.03-.47,1.14-.88.51-1.97.29-1.16.79-3.13.1-.4,1.83-3.57.78-4.13.2-.97.36-2,.4-3.21,1.59-4.19,1.92-8.87.89-13.24-.53.54-1.06,1.09-1.59,1.63.14-.92.09-1.87-.14-2.77-.48.18-.95.36-1.42.54-.12-2.19-.52-4.36-1.2-6.45-.59.49-1.18.98-1.77,1.47-.47-.54-.93-1.08-1.39-1.62-.02.57-.71,1.01-1.25.78-.43-.18-.65-.66-1.01-.95-.37-.29-1.1-.18-1.06.28-.17-.26-.41-.45-.68-.58-.85-.39-2.05-.12-2.47.75-.5-.64-1.04-1.31-1.81-1.58-.76-.27-1.8.08-1.96.88-.34-.79-1.52-1.03-2.15-.44-.23.21-.4.52-.7.61-.49.15-.91-.36-1.17-.8-.23.53-.46,1.06-.69,1.59-.86-.4-1.89-.39-2.75,0-.2.95-.41,1.91-.61,2.87-.1-.01-.21-.03-.32-.06-1.05-.22-1.43.57-1.11,1.69-.51-.39-1.08-.7-1.69-.91-.1,3.21-.2,6.42-.29,9.63-.85,2.84-1.07,5.29-.98,7.41-.04,0-.08,0-.11.02-.14.05-.24.13-.31.26-.55.91.35,3.59.38,3.94.17,2.03.09,1.19.26,3.22.03.41.5.95.96,1.05.22.05.44-.03.6-.16,1.37,4.41,3.12,9.29,3.12,9.29,0,0,.56.51,1.68,1.1.27.81.37,2.13.37,2.7,0,.33-.06.56-.08.8-.04.43-.14.84-.29,1.22-.7,1.76-2.53,3.07-4.68,4.03-.09,0-.13,0-.2.03-1.01.18-8.54,1.56-10.69,1.87-2.09.3-4.72-.07-6.95.2-1.14.14-2.17.45-2.97,1.11-2.19,1.8-4.13,6.7-5.74,12.42-.81,2.88-1.54,5.96-2.17,8.97-1.89,8.91-2.96,17.11-2.96,17.11l1.31.23c-1.01,5.3-1.7,9.25-1.75,10.01-.73,2.96-2.75,5.29-4.02,10.49-.41,1.67-.74,3.62-.92,5.98-.73,9.15-1.12,14.76-1.35,18.18-.12,1.8-.19,2.99-.25,3.76-.06.84-.1,1.18-.14,1.28-.01.03-.03.06-.05.1-.39.64-2.12,2.67-2.88,4.78-.16.44-.31.97-.44,1.53Z" fill="#008694" stroke-width="0"/><path d="m571.74,452.79l9.8,2.96c.04-.09.07-.18.1-.27.09-.29.17-.56.21-.81.14-.8.25-1.44.31-2,.13-1.23.04-2.01-.27-2.84-.02-.03-.04-.07-.05-.11-.1-.27-.08-.67.03-1.12.23-.99.85-2.25,1.29-3.1.08-.16.16-.29.22-.41.18-.32.3-.52.3-.52,0,0,3.49-5.75,7.27-12.07,3.15-5.27,5.92-12.36,7.58-15.38,1.59-2.91,4.13-5.25,6.74-10.35.15-.3.31-.61.45-.92.02-.05,1.03.36,1.03.36.41-.4,3.37-8.77,3.67-10.65.02-.05.04-.11.05-.16-.19,3.9-1.29,9.08-1.74,13.52-.11,1.1-.23,2.15-.34,3.1-.08.65-.15,1.25-.22,1.8-.12.9-.41,2.07-.81,3.41-2.04,6.74-7.05,17.86-8.88,21.84-.11.18-.22.36-.34.56-.23-.13-.36-.21-.36-.21-.31.51-1,1.63-1,1.63.12.07.23.15.34.22-.27.44-.56.91-.86,1.4-1.24,2.01-2.68,4.4-4.07,6.88-1.53,2.6-3.15,5.47-4.45,8.05l52.35,15.81c.85-6.4,1.18-14.62,1.28-17.59.01-.36.02-.64.03-.84.12,0,.24,0,.36,0,.05,0,.05-.04.06-.11.01-.33.06-1.31.08-1.8,0,0-.15,0-.41-.02,0-.24.02-.46.03-.67.17-1.02.42-2.45.73-4.14.66-3.59,1.58-8.33,2.58-12.62.95-4.02,1.98-7.64,2.94-9.55.16-.33.34-.68.54-1.05.51-.97,1.09-2.06,1.71-3.22,1.08-1.97,2.12-4.2,3.16-6.35,1.04-2.15,2.06-4.22,3.1-5.9l-.04.14c-.67,1.41-3.03,10.74-3.03,10.74l.29.08.83.23c-.06.38-.12.77-.17,1.14-.21,1.64-.3,3.09-.32,4.39-.06,3.23.27,5.61.04,7.95-.34,3.42-2.06,10.85-2.43,16.97-.45,7.34-.81,14.07-.81,14.07,0,0-.01.24-.05.6-.01.12-.03.27-.04.42-.11.96-.31,2.36-.68,3.32-.17.44-.37.78-.61.94-.03.02-.06.04-.09.06-.73.51-1.24,1.11-1.83,2.19-.27.5-.55,1.09-.88,1.82-.05.13-.11.26-.16.4-.03.08-.05.16-.08.24l9.67,2.92c.1-2.39-.85-5.09-.88-5.63,0-.11.09-.44.35-1.25.24-.73.61-1.86,1.18-3.58,1.07-3.25,2.81-8.6,5.57-17.35,2.95-9.35,1.02-13.15,1.59-17.13.21-.61.99-4.33,2.01-9.43l1.8.49s6.63-26.61,4.43-37.59c0-.04,0-.09-.02-.13-.1-.54-.24-1.03-.41-1.48-.2-.57-.43-1.07-.71-1.5-.18-.27-.38-.52-.6-.75-1.83-1.91-4.88-2.52-7.3-3.9-.04-.02-.09-.05-.13-.07-1.18-.69-4.22-2.61-6.51-4.05-1.3-.82-2.35-1.48-2.68-1.69-.07-.04-.11-.07-.11-.07-.04,0-.31-.03-.31-.03-.18-.19-.35-.38-.52-.58-.56-.66-1.04-1.34-1.4-2.05-.47-.92-.73-1.88-.7-2.86.02-.42.08-.83.22-1.25.05-.16.07-.33.13-.49.23-.68,1.06-2.34,1.69-2.77,1.07-.1,1.72-.26,1.72-.26,0,0,1.56-1.82,3.45-4.1.42-.48.82-.97,1.2-1.46.5-.62,1.01-1.25,1.5-1.87.1.12.24.21.4.24.47.08,1.1-.24,1.29-.61.92-1.82.52-1.06,1.45-2.89.18-.36,2.54-3.09,1.64-3.87.4-.9.78-1.87,1.08-3.04,2.45-3.76,3.78-8.26,3.71-12.75-.64.42-1.27.83-1.91,1.25.34-.87.49-1.8.45-2.73-.5.07-1,.15-1.5.22.35-2.16.42-4.38.21-6.56-.27.14-.54.28-.8.41-.41.22-.83.43-1.24.65-.33-.62-.67-1.25-1.01-1.88-.15.56-.92.83-1.39.5-.38-.27-.48-.78-.78-1.14-.3-.36-1.04-.42-1.09.05-.44-1.2-2.32-1.5-3.12-.51-.35-.73-.73-1.5-1.43-1.93-.69-.43-1.78-.31-2.1.44-.16-.84-1.26-1.33-2-.89-.16.1-.32.24-.48.33-.1.07-.21.11-.33.12-.51.04-.81-.54-.97-1.02-.34.46-.68.93-1.02,1.4-.76-.57-1.76-.79-2.69-.59-.41.89-.81,1.78-1.22,2.67-.1-.03-.2-.08-.3-.12-.98-.45-1.52.25-1.45,1.41-.42-.49-.9-.92-1.46-1.25-.78,3.11-1.56,6.22-2.34,9.33-.27.48-.51.95-.73,1.42-.73,1.55-1.23,3-1.55,4.35-.1.43-.19.85-.26,1.26-.04,0-.08,0-.12,0-1.18.13-.78,3.72-.83,4.12-.26,2.02-.17,1.18-.43,3.2-.05.41.28,1.04.72,1.23.2.09.44.07.63-.02.39,4.6,1.06,9.75,1.06,9.75,0,0,.44.61,1.41,1.43.09.84-.09,2.16-.22,2.72-.08.32-.18.54-.25.77-.12.41-.31.79-.54,1.13-1.06,1.57-3.13,2.46-5.43,2.93-.09-.02-.12-.02-.2-.02-.82-.03-5.92-.21-9.01-.36-.76-.03-1.4-.07-1.83-.1-3.18-.22-7.24-2.23-9.97-.84-7.54,3.85-18.85,35.29-18.85,35.29l1.23.5c-2.11,4.97-3.64,8.67-3.85,9.4-.9,1.83-2.3,3.26-3.84,5.46-1.49,2.13-3.11,4.97-4.51,9.58-1.5,4.93-2.66,8.79-3.55,11.81-.7,2.36-1.24,4.21-1.65,5.65-.5,1.73-.83,2.87-1.05,3.61-.23.81-.34,1.14-.41,1.23-.33.43-2.64,2.12-3.9,4.14-.1.16-.2.34-.3.53Z" fill="#008694" stroke-width="0"/><path d="m833,423.89c-.32.63-.59,1.25-.77,1.77-.68,1.99-.55,4.53-.67,5.01-.02.09-.18.35-.61.97-.39.56-1,1.43-1.91,2.74l-.15-.09c-7.34,7.51-11.58,16.18-13.79,21.87-.3.77-.56,1.49-.79,2.14-.87,2.51-1.23,4.06-1.23,4.06-1.72,1.88-7.2,12.24-10.28,23.81-.29,1.09-.56,2.19-.8,3.29-.46,2.08-.82,4.17-1.06,6.25-.29,2.58-.25,8.42-.88,13.46-3.29,8.75-4.28,12.23-4.31,12.2.03.06-16.39,16.04-16.39,16.04l-5.07,4.94s.2.61.64,1.64c-.48.38-1.05.84-1.67,1.36-.2.17-.39.32-.57.48-.35.29-.7.59-1.06.9-2.48,2.11-5.26,4.56-6.67,5.9-1.6,1.51-3.04,2.93-4.36,4.34-2.18,2.31-4.06,4.58-5.85,7.13l20.98,14.01c.14-.18.29-.35.43-.52.1.07.27.33.63.64.12.11.26.22.43.33l.08.05c.57.38,1.02.49,1.23.57-.01.04-.04.08-.06.13-.08.16-.16.3-.24.46l20.97,14.01c.49-.77.96-1.55,1.4-2.32,2.01-3.49,3.6-7.08,5.29-11.51.7-1.83,1.8-4.98,2.67-7.54.23-.64.44-1.27.63-1.88.12-.38.21-.68.3-.97.22-.71.42-1.49.56-2.14.02-.12.03-.16.04-.2,1.01-.23,1.48-.46,1.48-.46l.9-2.27.27-.68,9.36-23.67c.31.13.8-.63.82-.63.47.08,3.22-1.98,7.57-6.33-.15.32-.3.61-.43.86,3.71-3.94,13.02-6.11,16.38-7.96.1-.06.2-.11.3-.17,3.36-1.89,6.63-4.21,9.65-6.65,8.61-6.98,15.2-15,16.21-17.16,0,0,5.6-4.02,11.39-11.29,1.09-1.37,2.19-2.86,3.26-4.46,1.91-2.85,3.72-6.06,5.23-9.59l-.13-.1c.87-1.35,1.43-2.24,1.81-2.81.41-.63.58-.88.66-.94.4-.29,2.79-1.14,4.37-2.54.03-.03.07-.06.1-.09.38-.35.81-.8,1.24-1.3.66-.78,1.28-1.66,1.66-2.43.24-.48.47-1.1.66-1.81.85-2.96,1.31-7.43,1.13-9.31-.04-.41-.58-.51-.76-.14-.51,1.03-1.94,3.16-3.28,5.68-.6,1.12-1.16,2.1-1.67,2.87s-.95,1.29-1.34,1.53c-.3.19-.57.45-.82.67-.41.37-.76.66-1.04.44-.17-.13-.24-.33-.22-.57,0-.04.01-.1.02-.14,0-.04,0-.07.01-.11.02-.07.04-.15.07-.22.03-.08.04-.11.05-.14.4-1.04,1.52-2.45,2.2-3.34.18-.25.23-.4.22-.54,0-.24-.13-.47-.33-.6-.2-.09-.29-.11-.38-.12-.09,0-.19.02-.29.06,0,0-1.98,1.52-3.5,3.15-.41.44-.79.88-1.08,1.31-.07.1-.13.2-.19.3-.07.11-.14.23-.19.34-.32.64-.57,1.16-.76,1.62-.42,1.02-.54,1.7-.48,2.49,0,.03,0,.07,0,.1.02.25-.1.58-.3.94-.45.79-1.31,1.72-1.91,2.32-.1.1-.19.19-.27.27-1.28,1.04-8.61,7.04-14.35,12.85-2.16,2.19-4.09,4.35-5.39,6.21,0,0-15.88,18.6-21.69,15.48-.04-.02-.09-.05-.18-.09-.46-.26-1.62-.93-2.67-1.47-.13-.1-.25-.19-.37-.29-.04-.04-.09-.07-.13-.11-.23-.18-.44-.36-.65-.54-.91-.78-1.66-1.62-2.16-2.55-1.16-2.21-1.32-4.12-.8-5.92.09-.33.21-.66.35-.98.13.07.25.15.38.22,5.48,3.18,9.63,3.89,12.88,3.91,2.4,0,4.31-.37,5.91-.42-.14-1.74-.08-3.49.18-5.21.13-.91.31-1.8.55-2.69.26.52.6,1,.99,1.43.53.57,1.15,1.05,1.85,1.41-.2-.84-.32-1.68-.37-2.53-.2-3.09.47-6.24,1.42-9.21.18-.56.37-1.12.57-1.68.73-2.08,1.54-4.13,2.24-6.21,1.48-3.43,2.31-7.33.86-11.25-.34-.93-.8-1.85-1.42-2.76-1.26-1.91-3.16-3.79-5.88-5.6-7.38-4.93-13.08-3.51-17.38-.35-3.22,2.3-5.95,5.24-8.99,7.81-3.03,2.57-6.51,4.84-10.44,5.47,1.03.88,2.35,1.43,3.71,1.54-2.11,1.62-4.49,2.88-7.02,3.7,1.29,3.43,1.65,9.03,9.75,15.5-1.6,1.67-3.64,2.56-6.61,2.29-1.06-.1-2.13-.48-3.2-1.02-.13-.07-.26-.13-.38-.2-.04-.02-.08-.04-.12-.07-.17-.09-.34-.18-.51-.28-.46-.55-.91-.89-1.08-1.03-5.11-4.16,5.99-25.96,5.99-25.96,2.23-3.5,4.58-9.35,6.46-14.58.35-.97.68-1.93.99-2.84.46-1.35.87-2.61,1.24-3.72.02-.08.05-.16.08-.23.66-2.07,1.12-3.6,1.29-4.16.05-.1.09-.22.14-.35.33-.79.86-1.93,1.42-2.65.25-.33.51-.57.75-.64.04-.01.07-.02.1-.03.75-.25,1.34-.63,2.12-1.4.11-.11.22-.23.34-.35.26-.28.54-.6.87-.98.08-.09.14-.18.21-.28.08-.1.15-.21.23-.33.28-.44.55-.95.8-1.5.09-.2.18-.41.27-.63.77-1.87,1.29-3.82,1.29-3.82,0-.1-.02-.2-.05-.29-.04-.09-.09-.16-.15-.22-.3-.22-.57-.25-.8-.15-.12.06-.24.15-.32.29-.6,1.02-1.39,2.45-2.16,3.26-.03.04-.07.07-.1.1-.08.08-.1.1-.13.12-.04.03-.07.06-.11.08-.03.03-.08.07-.11.1-.06.04-.12.07-.18.1-.26.12-.46.14-.65.03-.3-.2-.17-.62,0-1.13.11-.32.25-.67.31-1.02.16-.9,1.31-2.52,2.91-4.46,1.82-2.21,3.24-4.34,4-5.2.26-.3-.04-.77-.43-.65-1.04.32-2.78,1.15-4.52,2.18-2.03,1.19-4.08,2.61-5.07,3.74-.56.65-1.13,1.56-1.6,2.46Z" fill="#008694" stroke-width="0"/><path d="m617.38,452.41l4.38,2.06s10.17-10.88,16.96-20.22c1.62-2.21,3.04-4.34,4.09-6.22.99-1.15,2.03-2.4,3.1-3.71,3.68-4.48,7.67-9.61,10.77-13.68.53-.69,1.03-1.35,1.5-1.97,1.67-2.21,2.94-3.93,3.56-4.81-.78,3.05-2.89,7.56-5.56,12.53-4.21,7.85-9.83,16.85-13.79,23.02-.84,1.31-1.6,2.5-2.27,3.51-.02.03-.04.07-.07.1-.17.27-.35.53-.51.78-.25.4-.49.76-.71,1.09l-10.06,12.87,50.29,23.65,3.38-16.96,1.33-6.69.27-1.36c3.23-9.45,7.9-22.99,11.49-30.92,2.54-3.11,7.75-5.75,11.45-7.81,1.27-.71,2.36-1.35,3.1-1.92,3.75-2.88,7.27-6.4,10.36-9.95,6.66-7.67,11.31-15.53,11.94-17.66,0,0,9.48-9.22,14.51-23.53.51-1.44.98-2.94,1.38-4.49,0,0-.15-.08-.15-.08.65-1.46,1.08-2.42,1.37-3.05.31-.68.45-.96.52-1.02.35-.34,2.59-1.54,3.94-3.16.86-1.02,1.95-2.84,2.4-4.22.54-1.67.67-4.79.56-7.45-.03-.53-.06-1.04-.1-1.52-.08-.94-.19-1.74-.33-2.3-.09-.39-.65-.41-.77-.03-.2.6-.61,1.57-1.1,2.76-.41.98-.86,2.13-1.29,3.34-.43,1.2-.83,2.25-1.22,3.08s-.75,1.42-1.1,1.71c-.69.6-1.17,1.66-1.68,1.38-.19-.11-.28-.29-.31-.53,0-.07,0-.14,0-.22.08-1.11,1.14-2.93,1.74-4.04.14-.27.17-.42.14-.57-.04-.24-.2-.44-.41-.54-.2-.06-.28-.06-.37-.05-.08.01-.17.04-.25.08-.05.02-2.83,2.9-3.92,5.1-.08.15-.13.29-.19.43-.03.09-.08.17-.11.25-.22.68-.39,1.24-.51,1.72-.26,1.07-.29,1.76-.11,2.54,0,.03.02.06.02.1.06.25,0,.6-.16.98-.33.85-1.04,1.9-1.54,2.58-.08.12-.15.22-.22.31-.46.51-1.82,2.01-3.6,4.07-4.13,4.77-10.51,12.52-13.09,17.72,0,0-1.31,2.11-3.31,4.91-1.63,2.31-3.73,5.08-5.93,7.53-2.06,2.29-4.2,4.31-6.15,5.4-1.38.77-2.67,1.08-3.75.7-.25-.09-1.02-.59-1.98-.87,1.94-2.94,3.69-6.15,5.27-9.36,1-.61,1.93-1.29,2.76-2.02.61-.54,1.17-1.11,1.68-1.7,1.67-1.94,2.77-4.08,3.11-6.1.05-.31.31-1.86.68-4,.42-2.47.96-5.74,1.47-8.74,2.01-5.45,3.22-12.41-2.99-17.87-1.78-1.66-3.95-3.02-6.28-3.95-.06-.01-.11-.03-.16-.05-1-.39-2.03-.7-3.07-.92-9.32-2.27-14.49,4.38-17.59,9.87-3.57,4.39-7.01,8.85-7.01,8.85-1.77,1.93-3.15,4.82-3.61,8.08-.21,1.45-.24,2.97-.04,4.52-.27.64-.54,1.28-.8,1.94-.02.03-.03.07-.04.1-1.03,2.57-1.96,5.2-2.71,7.8-.88-.35-1.78-.67-2.69-.93-3.66-1.06-7.57-1.22-11.19,1.37-2.76,1.99-7.69,8.79-10.59,12.89-8.27,11.66-14.82,22.8-16.05,25.18-4.3,6.47-13.35,22.21-18.06,30.27Z" fill="#008694" stroke-width="0"/><path d="m365.15,432.94l4.83.38s8.66-21.07,10.33-32.18c2.59-7.17,5.64-17.1,7.53-23.55.1-.35.2-.68.29-.99.63-2.18,1.11-3.85,1.34-4.76.39,3.47-.12,9.21-1.02,15.52-2.11,14.87-6.4,33.1-6.41,33.29.34.07.72.15,1.1.22-1.07,2.93-2.2,6.14-2.74,7.89-.58,1.85-1.08,3.58-1.52,5.24l51.26,4c-.17-1.71-.4-3.5-.68-5.41-.3-1.94-.87-5.22-1.36-7.89,0-.12-.02-.24-.04-.36.38-.01.75-.02,1.09-.04.39-.02-1.04-24.91-.6-40.17.03-1.05.07-2.06.12-3.01.13-2.58.34-4.75.66-6.26.11.93.39,2.78.78,5.17.72,4.55,1.79,11.03,2.66,16.65.51,3.31.95,6.31,1.21,8.44-.24,9.69,5.37,33.56,5.37,33.56,0,.04,4.97.42,4.97.42.03-2.73.07-6.2.08-9.95.04-9-.1-19.59-.95-25.3-.23-5.83-.49-12.39-1.03-20.21-.03-.41-.06-.83-.09-1.25-.28-3.78-.62-7.86-1.06-12.29-.5-5-1.04-9.46-2.47-12.55-2.18-4.76-6.62-6.4-11.02-7.13.83-3.59,1.35-7.4,1.7-11.12.68-7.29.66-14.24.86-18.58.21-4.84,1.23-13.57-4.41-18.71-2.3-2.1-5.72-3.6-10.75-3.99-1.55-.12-2.96-.1-4.25.05-8.94,1.03-11.74,8.07-12.87,14.08-.4,2.11-.59,4.09-.76,5.64-.27,2.37-.69,5.51-1.06,9.07-.66,6.32-1.21,13.96-.64,20.99-2.21-.04-4.5.12-6.63.78-.16.04-.31.09-.46.15-2.21.77-4.22,2.11-5.74,4.4-1.88,2.83-4.08,10.94-5.35,15.81-3.61,13.83-5.79,26.57-6.1,29.23-1.21,5.27-2.97,15.53-4.45,24.39-.66,3.89-1.25,7.5-1.73,10.31Z" fill="#008694" stroke-width="0"/><path d="m60.79,501.85l6.23-2.96c-.49-2.5-1.37-7.02-2.34-11.81-1.21-6.02-3.93-13.14-4.73-16.49-.78-3.22-.47-6.66-1.97-12.19-.09-.32-.19-.65-.28-.99-.01-.05,1-.42,1-.42.03-.45-2.05-5.53-3.46-8.5-.4-.84-.74-1.5-.97-1.85-.02-.05-.04-.1-.07-.15,1.3,1.58,2.65,3.59,4.02,5.65,1.25,1.88,2.52,3.81,3.78,5.53.66.89,1.28,1.74,1.83,2.53.38.53.73,1.03,1.04,1.48,1.27,1.84,2.87,5.53,4.43,9.59,2.26,5.93,4.44,12.65,5.37,15.63.04.2.08.42.12.64-.26.06-.41.09-.41.09.11.59.35,1.88.35,1.88.2.57.62,2.54,1.21,5.14l44.53-21.17c-.19-.25-.38-.49-.56-.73-1.26-1.63-2.18-2.8-2.49-3.19.01-.02-.82-1.03-1.2-1.49,0,0-.11.09-.32.26-.15-.18-.3-.35-.43-.52-2.83-4.43-11.59-18.39-13.06-23.68-.1-.35-.2-.74-.31-1.14-.28-1.06-.58-2.26-.89-3.53-.88-3.62-2.27-7.7-3.14-11.19-.18-.72-.34-1.42-.46-2.09l.06.13c.12.42.56,1.36,1.13,2.53,1.48,3.02,3.85,7.46,3.85,7.46l1.03-.52c.21.32.42.65.64.96,3.28,4.7,6.12,6.67,8.09,9.33.8,1.07,1.85,2.75,3.06,4.66,1.92,3.03,4.21,6.63,6.54,9.54,2.88,3.59,5.62,6.97,7.27,9.01l6.33-3.01c-1.41-3.15-3.42-7.57-6.27-13.76-4.1-8.9-8.08-10.42-10.34-13.75-.26-.59-2.18-3.87-4.85-8.33l1.66-.85s-12.76-23.73-21.75-30.62c-.08-.06-.17-.12-.25-.18-.04-.03-.07-.06-.1-.08-.43-.33-.87-.6-1.29-.82-.53-.29-1.04-.51-1.53-.64-1.32-.34-2.67-.13-4.03.27-.99.29-2,.68-3,1.02-.7.24-1.39.46-2.09.6-2.11.44-9.58,1.74-10.66,1.93-.09.02-.14.02-.14.02-.03.02-.11.09-.11.09l-.13.1c-1.14-.09-2.22-.29-3.18-.66-.97-.37-1.8-.9-2.44-1.64-.27-.32-.49-.67-.68-1.07-.07-.15-.16-.29-.23-.45-.29-.66-.79-2.45-.61-3.18.72-.8,1.1-1.35,1.1-1.35,0,0-.07-2.39-.21-5.35,0-.04,0-.08,0-.13-.01-.59-.05-1.19-.09-1.76-.04-.8-.09-1.61-.14-2.4.16.02.32,0,.46-.09.4-.25.65-.92.54-1.32-.54-1.96-.33-1.14-.87-3.1-.1-.4-.19-4.01-1.38-3.98-.3-.94-.68-1.91-1.25-2.98-.72-4.43-2.75-8.65-5.83-11.93-.19.74-.38,1.48-.57,2.21-.34-.87-.85-1.67-1.5-2.33-.32.39-.64.78-.97,1.17-1.19-1.84-2.63-3.52-4.26-5-.26.72-.53,1.44-.8,2.16-.22-.08-.44-.16-.65-.23-.46-.17-.91-.33-1.36-.48.27.51-.12,1.23-.69,1.3-.46.05-.89-.25-1.35-.32-.46-.06-1.05.39-.78.77-1.13-.59-2.73.45-2.65,1.72-.75-.31-1.56-.62-2.35-.47-.8.15-1.52.97-1.26,1.74-.69-.51-1.83-.14-2.08.68-.09.3-.09.65-.31.88-.35.37-.96.14-1.4-.11.06.57.12,1.14.18,1.72-.94.09-1.83.6-2.38,1.37.3.93.6,1.86.89,2.79-.09.04-.19.08-.31.12-1.02.33-.96,1.2-.12,2.02-.64-.08-1.29-.07-1.92.06,1.13,2.11,2.26,4.22,3.39,6.33.39.72.77,1.44,1.15,2.15.68,2.88,1.71,5.12,2.84,6.91-.03.03-.07.05-.09.08-.79.89,1.93,3.27,2.16,3.61,1.16,1.67.67.99,1.83,2.66.24.34.91.58,1.36.43.21-.07.37-.24.44-.44,3.38,3.14,7.34,6.5,7.34,6.5,0,0,.74.16,2,.11.32.29.66.7.97,1.11.31.43.56.81.7,1.05.11.19.15.31.2.43.05.1.09.2.13.3.18.39.3.79.36,1.2.27,1.88-.67,3.92-2.05,5.82-.07.05-.11.07-.16.12-.31.26-1.39,1.18-2.7,2.28-1.57,1.33-3.47,2.92-4.73,3.95-.36.29-.68.54-.91.73-.25.2-.52.39-.8.57-.49.32-1.02.63-1.57.93-2.27,1.27-4.79,2.49-5.58,4.58-2.99,7.92,9.76,38.8,9.76,38.8l1.25-.46c.44,1.28.86,2.47,1.24,3.56,1.14,3.24,1.98,5.48,2.23,5.99,1.01,3.51-.04,7.15,2.9,14.44.3.73.64,1.5,1.02,2.32,3.07,6.48,5.25,11,6.76,14.13Z" fill="#008694" stroke-width="0"/><path d="m147.19,451.51l4.97-1.02c.21-2.09.7-7.14,1.04-12.93.39-6.77.58-14.54-.1-19.78.51-7.61.7-17.99.74-24.71,0-.83,0-1.6,0-2.3,0-1.65,0-2.92-.03-3.68.21.52.42,1.09.61,1.72,4.01,12.64,5.66,47.25,5.71,47.25.35-.02.72-.05,1.12-.09-.23,3.11-.42,6.51-.46,8.34-.04,1.55-.05,3.01-.03,4.42l50-10.22c-.53-1.3-1.12-2.64-1.76-4.05-.81-1.78-2.27-4.78-3.48-7.21-.03-.12-.09-.22-.14-.33.37-.12.72-.23,1.04-.34.22-.08-2.56-8.28-5.65-18.04-3.49-11.04-7.39-24.07-7.81-29.53.36.86,1.15,2.56,2.17,4.76,1.03,2.2,2.29,4.88,3.61,7.68,1.18,2.52,2.41,5.14,3.54,7.59,1.41,3.04,2.66,5.8,3.5,7.78,1.12,4.29,4.22,11.08,7.27,17.2,2.8,5.63,5.55,10.68,6.65,12.68l5.13-1.05c-.78-2.84-1.75-6.38-2.82-10.12-2.37-8.3-5.21-17.6-7.46-22.54-.82-2.49-1.69-5.11-2.64-7.92-2.28-6.75-5.04-14.54-8.77-23.91-.97-2.44-1.91-4.73-2.91-6.73-.91-1.83-1.86-3.42-2.92-4.65-3.41-3.97-8.13-4.33-12.55-3.81-.57-10.88-4.2-22.87-5.74-29.26-.58-2.41-1.23-5.86-2.65-9.1-2.13-4.87-5.98-9.29-13.87-9.06-1.32.04-2.75.21-4.31.53-2.58.53-4.65,1.34-6.31,2.36-.77.47-1.44.98-2.04,1.52-2.9,2.65-4.01,6.14-4.27,9.61-.3,3.91.46,7.79.9,10.45.8,4.78,1.91,12.8,3.98,20.8.76,2.92,1.64,5.81,2.67,8.56-.8.22-1.61.46-2.4.75-3.69,1.33-7.07,3.54-8.46,7.91-1.02,3.24-.9,11.64-.78,16.67.35,14.29,1.77,27.14,2.2,29.78.14,2.55.47,6.23.88,10.33.8,7.91,1.92,17.44,2.64,23.71Z" fill="#008694" stroke-width="0"/><path d="m719.53,428.63c-.95,1.29-1.81,2.7-2.15,4.26-.55,2.44,4.79,8.8,5.53,9.23.14.08.27.21.42.27l-.34.39.2,2.46.82,10.41s.39,4.96.39,4.96l.24,2.98.34,4.33.35,4.48c-1.34,3.43,1.14,7.17,4.28,6.96.81-.05,1.67-.37,2.51-1.02,4.32-3.44,9.6-7.99,14.08-11.94,1.7-1.5,3.3-2.93,4.67-4.16,2.07-1.87,3.65-3.33,4.42-4.07-.02.04-.03.08-.05.13-.06.08-.33.75-.75,1.78-1.13,2.67-2.01,4.84-2.7,6.55-1,2.51-1.57,4.05-1.84,4.78-.14-.19-.27-.37-.41-.55l-.85,2.07-4.28,3.73-3.72,3.25-6.46,5.64-15.02,13.11-3.43,3,43.22,31.5,15.64-38.41.93-2.3,1.94-.97s-.35-.14-.96-.41c1.13-.54,4.17-2.82,8.59-7.01.78-.74,1.61-1.54,2.48-2.4-.25.54-.64,1.45-1.13,2.63-.28.66-.59,1.4-.93,2.21-1.77,4.26-4.26,10.34-6.46,15.57-1.29,3.09-2.5,5.87-3.39,7.83-1.71,2.63-3.68,6.84-5.55,11.34-.93,2.22-1.84,4.52-2.68,6.73-1.3,3.39-2.44,6.57-3.29,8.97l4.89,3.57c5.18-8.23,12.61-20.27,15.37-26.7.83-1.48,1.69-3.01,2.58-4.6,3.81-6.82,8.19-14.87,13.25-25.28,2.2-4.52,4.07-8.6,4.48-11.98.16-1.27.1-2.45-.13-3.55-.37-1.81-1.16-3.36-2.18-4.76,4.48-5.21,8.84-11.87,12.76-20.44,0,0,6.13-16.34,7.18-19.39.08-.23.13-.38.15-.45.56-1.87.63-3.87,0-5.88-.32-1.04-.86-2.11-1.43-3.09-1.49-2.56-3.75-4.82-6.36-6.48-.05-.02-.1-.05-.14-.08-1.05-.66-2.15-1.22-3.27-1.66-.76-.3-1.53-.54-2.3-.73-1.05-.25-2.1-.39-3.15-.41-1.53-.02-3.07.34-4.53,1-2.31,1.05-12.2,9.59-15.9,12.82-.87.77-1.4,1.23-1.4,1.23-7.1,6.41-12.23,12.63-15.9,18.49-1.25-.43-2.54-.7-3.86-.74-1.6-.05-3.25.25-4.94,1.02-.72.34-1.6.9-2.58,1.62-3.22,2.37-7.47,6.37-10.26,9.04-1.22,1.17-2.41,2.33-3.57,3.48-3.58,3.55-6.84,6.95-9.54,9.86l-.44-2.15-2.17-10.63-2.43-11.89-.25-1.2c-.06-.72.29-1.54.74-2.2.64-.94,1.46-1.79,1.78-2.89.43-1.51-.23-3.09-.51-4.64-.21-1.17-.23-2.47-.99-3.38-.82-.97-2.3-1.18-3.52-.8-1.21.39-2.22,1.25-3.12,2.15-1.07,1.07-2.06,2.22-2.96,3.45Z" fill="#008694" stroke-width="0"/><path d="m440.83,296.03c.03.09.01.4-.06,1.14-.06.68-.17,1.73-.32,3.32h-.16c-4.52,16.8-.06,32.21-.06,32.21-.17.74-.27,2.29-.24,4.42.09,6.96,1.52,20.05,5.96,30.61.81,1.94,2.87,5.64,4.64,9.48.42.9.81,1.8,1.17,2.7.06.43.13.85.19,1.25.6,3.84,1.08,6.59,1.42,8.43.4,2.14.61,3.07.58,3.06.05.04-1.12,4.01-1.12,4.01l-7.34,24.8s.47.44,1.36,1.12c-.23.57-.5,1.25-.79,2-.1.24-.18.47-.27.7-.16.42-.32.86-.48,1.3-.32.84-.63,1.72-.94,2.58-.81,2.28-1.57,4.48-1.99,5.83-.42,1.35-.81,2.64-1.16,3.89l50.75,3.96c-.15-1.29-.33-2.62-.54-4.02-.05-.37-.12-.79-.2-1.25-.31-1.93-.76-4.49-1.16-6.64-.11-.67-.24-1.32-.37-1.95-.08-.39-.15-.69-.21-.99-.17-.8-.4-1.66-.62-2.33.75-.66,1.06-1.13,1.06-1.13l-.99-7.29-1.47-10.8-1.39-10.28c.34-.04.4-.94.41-.95.45-.17,1.85-3.3,3.52-9.23.02.36.03.68.04.96,1.31-5.25,8.38-11.7,10.39-14.95,4.05-6.54,6.93-14.41,8.73-20.95.89-3.19,1.51-6.07,1.9-8.32.37-2.12.51-3.68.45-4.44,0,0,3.64-7.77,4.86-18.71.45-4.02.58-8.47.08-13.12,0,0-.17-.02-.17-.02.09-1.6.16-2.65.2-3.33.05-.75.08-1.06.12-1.14.21-.45,1.88-2.36,2.58-4.35.44-1.26.81-3.34.75-4.8-.1-2.11-1.49-5.95-2.75-8.55-.41-.85-.8-1.56-1.13-2.03-.23-.34-.75-.16-.73.25.02.4,0,.96-.01,1.64-.04,1.31-.11,3.04-.07,4.92.06,2.51-.03,4.5-.47,5.3-.44.81-.51,1.97-1.09,1.88-.21-.03-.36-.17-.47-.39-.02-.04-.04-.09-.06-.13-.01-.04-.03-.06-.04-.1-.02-.07-.03-.15-.05-.23-.2-1.15.11-2.99.26-4.13.04-.3,0-.46-.07-.58-.12-.21-.34-.34-.57-.36-.22.02-.31.04-.39.09-.08.05-.16.11-.23.19,0,0-1.58,3.68-1.82,6.13-.01.12-.02.24-.03.36,0,.13,0,.27,0,.39.03.72.07,1.29.13,1.79.13,1.09.36,1.75.79,2.41.02.03.04.05.06.09.14.21.2.56.19.97,0,.91-.3,2.14-.52,2.96-.04.14-.07.26-.1.37-.58,1.46-3.76,9.57-5.92,17.15-.56,1.97-1.06,3.91-1.42,5.69-.26,1.24-.44,2.41-.55,3.45,0,0-1.05,5.31-2.86,10.95-.59,1.85-1.25,3.72-2,5.46-1.8,4.24-4.02,7.65-6.49,7.69-.29,0-1.87-.02-3.26.03-.15-.02-.31-.04-.46-.07-.06,0-.11-.02-.17-.03-.28-.04-.55-.09-.82-.15-1.17-.24-2.24-.6-3.13-1.17-1.41-.92-2.36-1.94-2.96-3.07-.45-.85-.71-1.76-.81-2.74.45,0,.89.01,1.31,0,10.35-.08,14.09-4.25,17.22-6.15-.18-.27-.35-.53-.51-.8-1.22-1.99-2.14-4.17-2.72-6.44,1.14.76,2.51,1.14,3.87,1.09-1.74-1.89-2.91-4.2-3.74-6.65-.46-1.34-.81-2.73-1.09-4.11-.56-2.73-.89-5.51-1.4-8.25-.64-6.24-3.56-12.75-14.4-13.88-.26-.03-.53-.06-.8-.08-1.02-.08-1.99-.1-2.9-.05-6.91.31-10.49,3.95-12.43,8.25-1.69,3.58-2.64,7.48-4.02,11.21-1.39,3.73-3.32,7.4-6.43,9.88,1.33.26,2.75.1,3.99-.47-1.04,2.45-2.51,4.71-4.32,6.66,1.11.93,2.25,2.23,3.87,3.57,2.25,1.86,5.42,3.79,10.66,4.89.5.11,1.02.2,1.56.29-.37,1.44-1.07,2.69-2.25,3.73-.64.57-1.43,1.07-2.4,1.51-.98.43-2.1.62-3.29.68-.14,0-.29,0-.43.01-.05,0-.09,0-.13,0-.2,0-.39,0-.58,0-.66-.25-1.23-.33-1.44-.37-.63-.11-1.21-.44-1.75-.96-.76-.73-1.42-1.81-2-3.14-.97-2.21-1.69-5.09-2.23-8.01-1.22-6.61-1.49-13.47-1.49-13.47.23-4.15-.57-10.4-1.5-15.88-.45-2.65-.92-5.11-1.32-7.08-.43-2.12-.77-3.66-.9-4.23-.02-.11-.03-.24-.04-.37-.1-.85-.19-2.11-.06-3.01.06-.41.17-.74.34-.93.02-.03.05-.05.07-.08.53-.58.86-1.2,1.16-2.26.14-.48.26-1.05.4-1.75.02-.11.04-.22.05-.34.02-.13.03-.26.04-.4.09-1.49-.25-3.51-.52-4.87-.17-.87-.33-1.47-.33-1.47-.05-.09-.12-.17-.19-.22-.08-.06-.16-.09-.24-.12-.38-.04-.62.06-.77.26-.09.11-.14.25-.14.41-.03,1.18,0,2.82-.28,3.9-.01.04-.03.09-.04.14-.01.06-.03.12-.05.17-.01.05-.03.08-.05.13s-.03.09-.06.14c-.03.06-.07.12-.1.18-.16.23-.34.35-.55.35-.57-.04-.47-1.18-.78-2.02-.31-.87-.09-2.84.35-5.31.33-1.85.54-3.57.7-4.87.09-.68.16-1.23.24-1.62.08-.39-.41-.65-.69-.36-.4.42-.9,1.06-1.43,1.83-1.64,2.37-3.61,5.96-4.04,8.02-.29,1.43-.24,3.55,0,4.86.38,2.07,1.73,4.22,1.87,4.7Z" fill="#008694" stroke-width="0"/><path d="m679.49,481.95l8.08,2.74c2.65-4.23,5.11-8.54,6.56-11.98,2.19-3.24,4.69-7.16,7.05-10.99,1.21-1.95,2.38-3.88,3.47-5.68.93-1.55,1.8-3,2.57-4.3,1.41-2.38,2.47-4.23,3-5.18-.09.62-.22,1.3-.39,2.03-.99,4.24-3.32,10.31-6.02,16.56-3.48,8.06-7.56,16.44-10.14,21.6l43.49,14.72c2.03-9.22,5.87-27.36,9.07-37.28.66-2.02,1.29-3.7,1.86-4.89-.12.93-.3,2.79-.52,5.21-.07.77-.15,1.6-.22,2.46-.23,2.59-.49,5.56-.76,8.54-.18,1.95-.35,3.92-.53,5.79-.32,3.33-.63,6.35-.9,8.48-.91,3.28-1.57,8.42-2.02,13.72l8.52,2.88c.35-1.47.68-2.93,1-4.35.96-4.33,1.71-8.3,2-11.15.46-2.16.94-4.42,1.43-6.81.24-1.15.48-2.32.72-3.53,1.3-6.48,2.69-13.94,4.03-22.9.33-2.22.63-4.33.8-6.29.07-.75.12-1.47.14-2.17.05-1.57,0-3.02-.24-4.3-.57-3.1-2.22-5.32-4.33-6.97-1.39-1.09-2.98-1.94-4.6-2.65,4.99-9.69,7.89-21.88,9.79-28.16.83-2.77,2.29-6.81,2.43-10.97.19-5.66-2.04-11.54-11.54-14.76-3.77-1.28-6.88-1.41-9.47-.79-.09.02-.17.04-.25.07-7.76,2.02-10.71,10.85-12.47,15.49-1.05,2.78-2.62,6.66-4.18,11.08-1.93,5.42-3.85,11.65-4.86,17.63-4.54-1.23-9.61-1.72-13.74,2.01-.41.37-.87.88-1.35,1.5-2.47,3.11-5.69,8.83-7.72,12.51-4.09,7.41-7.59,14.57-9.97,19.7-1.64,3.54-2.75,6.11-3.14,7.13-1.66,3.23-4.11,8.6-6.65,14.26Z" fill="#008694" stroke-width="0"/><path d="m469.28,441.06l7.57.59c2.24-6.38,4.55-13.75,5.34-18.95,1.73-4.81,3.68-10.86,5.34-16.27.82-2.65,1.56-5.15,2.18-7.27.78-2.65,1.36-4.71,1.63-5.76.55,4.94-.71,14.49-2.35,23.83-2.18,12.48-5.02,24.61-5.08,24.97l47.1,3.67c.49-.03-1.89-39.33.18-49.44.08.66.25,1.79.48,3.25.09.59.19,1.24.3,1.92.35,2.19.77,4.81,1.22,7.57.34,2.1.69,4.29,1.02,6.41.11.73.23,1.45.33,2.15.03.17.06.34.08.51.51,3.31.95,6.31,1.21,8.45-.12,4.69,1.14,12.72,2.48,19.75l7.96.62c-.02-8.07-.22-16.69-.96-21.64-.36-8.92-.76-19.53-2.18-33.75-.5-5-1.05-9.46-2.47-12.55-.52-1.13-1.18-2.09-1.92-2.9-.46-.51-.97-.96-1.5-1.35-1.94-1.45-4.28-2.23-6.66-2.7-.25-.05-.5-.1-.74-.14-.06,0-.13-.02-.19-.03.04-.16.07-.31.1-.46,2.34-10.52,2.17-22.78,2.46-29.24.15-3.39.7-8.69-.93-13.33-1.65-4.68-5.5-8.69-14.23-9.37-.21-.02-.42-.03-.63-.04-5.4-.29-9.05,1.22-11.52,3.61-1.22,1.17-2.16,2.55-2.89,4.02-2.06,4.14-2.48,9.04-2.83,12.19-.11.98-.25,2.08-.4,3.29-.22,1.8-.47,3.85-.7,6.05-.65,6.26-1.18,13.79-.61,20.71-4.7-.07-9.74.7-12.82,5.33-1.88,2.83-4.09,10.95-5.35,15.81-3.61,13.83-5.79,26.56-6.1,29.23-.22.94-.45,2.05-.7,3.28-.97,4.83-2.14,11.56-3.23,17.98Z" fill="#008694" stroke-width="0"/><path d="m191.09,416.61l7.97.62c.37-1.12.79-2.42,1.25-3.85.91-2.85,1.96-6.21,2.95-9.61.69-2.37,1.35-4.76,1.92-7.01.66-2.57,1.19-4.96,1.51-6.96.11-.66.19-1.29.25-1.85,0,0,1.18-5.98,3.21-12.33.66-2.08,1.41-4.2,2.25-6.16-.01,1.05-.01,2.09.01,3.14,0,.4.02.8.04,1.19.41,2.76.81,5.69,1.13,8.31.13,1.1.26,2.14.36,3.1.07.65.13,1.26.18,1.8.36,4-1.31,13.73-2.66,20.68-.49,2.55-.94,4.72-1.23,6.09-.05.24-.1.45-.14.64-.3-.1-.47-.15-.47-.15-.2.56-.62,1.81-.62,1.81.21.07.42.15.62.22-.16.48-.31.98-.52,1.49-.03.07-.06.14-.08.21l46.9,3.66c-.01-.07-.03-.15-.05-.22-.13-.56-.2-1.09-.29-1.6.14-.03.27-.06.4-.09,0,0-.23-1.29-.33-1.88,0,0-.18.03-.48.09-.02-.2-.03-.43-.04-.68-.28-5.25-1.03-21.72.3-27.04.09-.36.19-.74.29-1.15.28-1.06.61-2.24.96-3.51,1.12-3.92,2.54-8.57,3.74-12.18.67-2.24,1.25-4.49,1.8-6.76,1.64-2.17,3.59-4.12,6.11-5.26,1.82-.83,3.93-1.24,6.44-1.01.84.08,1.68.14,2.53.2,3.8.24,7.64.27,11.13.12,4.01-.16,7.57-.56,10.08-1.09.11-.02.21-.05.32-.07,2.27-.52,3.61-1.14,3.55-1.84,0,0,3.39-13.49,5.06-28.26.85-7.49,1.26-15.32.55-21.87l-.17-.02c.08-.39.17-.78.3-1.17.58-1.74,1.76-2.99,2.81-4.39.25-.33.5-.68.72-1.04,1.35-2.14,1.65-4.76,1.92-7.28.13-1.27.24-2.66-.48-3.71-.65-.94-1.81-1.37-2.89-1.71-1.26-.4-2.52-.75-3.8-1.07-.36-.09-.78-.17-1.08.05-.34.25-.36.73-.36,1.15.04,2.36.08,4.73.12,7.08.03,1.51.1,3.16-.21,4.67-.09.09-.2.14-.34.12-1.12-.18-.77-2.96-.5-4.9.04-.24.08-.48.1-.71.05-.34,0-.51-.07-.65-.14-.24-.39-.38-.65-.4-.24.01-.32.05-.4.08-.08.04-.15.1-.22.17-.03.02-.05.04-.08.07,0,0-1.78,4.14-2.05,6.9-.02.19-.01.37-.02.55,0,.09-.02.2-.01.29.03.8.08,1.46.15,2.02.15,1.23.41,1.97.89,2.72.02.03.04.06.06.09.07.1.12.24.15.39l-.21-.03s-.04.11-.1.26c-.5,1.27-2.56,9.88-4.51,19.05-1.7,8-3.31,16.41-3.75,20.75,0,0-2.51.08-7.06-.27-2.92-.22-6.67-.61-11.13-1.31-.72-.11-1.47-.23-2.23-.36-1.37-.24-2.14-.66-3.06-1.14-.87-.45-1.85-.96-3.61-1.39-2.03-.73-4.47-.81-6.61-1.5-2.05-.65-9.19-3.2-10.23-3.57-.08-.03-.12-.05-.12-.05-.04,0-.31.04-.31.04-1.88-1.27-3.39-2.85-3.75-4.77-.08-.41-.1-.83-.07-1.27.01-.16,0-.33.01-.5.03-.37.16-.99.35-1.6.19-.61.43-1.2.69-1.47,1.02-.34,1.62-.63,1.62-.63,0,0,.84-1.6,1.94-3.74.17-.33.34-.67.52-1.02.31-.57.59-1.13.85-1.7.36-.71.71-1.44,1.05-2.15.13.1.28.16.45.15.47-.02,1.02-.48,1.12-.88.5-1.98.28-1.16.77-3.14.1-.4,1.8-3.58.75-4.14.33-1.55.52-3.28.3-5.64.48-1.83.79-3.71.9-5.6-.39.38-.77.75-1.16,1.13.72-2.13,1.14-4.34,1.25-6.56-.37-.61-1.06.88-1.75.71-.27-.06-.41-.37-.5-.63-.47-1.37-.95-2.73-1.42-4.09-.22.78-1.34.97-2.03.54-.68-.43-1.03-1.23-1.34-1.98-.31-.76-.64-1.56-1.32-2-.2-.13-.43-.22-.66-.27-.67-.13-1.41.06-1.89.56.15-.87-.31-1.87-1.15-2.14-.84-.28-1.9.44-1.8,1.32-.61-.74-1.36-1.37-2.18-1.85-.24.8-.62,1.56-1.13,2.22-.67-.94-1.67-1.64-2.77-1.97-.07,1.06-.32,2.12-.73,3.1-.73-.47-1.47-.94-2.19-1.41.25.61,0,1.39-.57,1.73-.57.34-1.38.21-1.8-.3-.1,1.07-.2,2.14-.3,3.21-.3-.15-.66-.16-.97-.06.03,1.01.06,2.03.09,3.04-.24.42-.43.77-.59,1.1-.39.11-.77.55-1,1.03-.1.2-.18.4-.22.6-.19.87-.34,1.75-.45,2.63-1.35,3.66-1.67,6.72-1.55,9.29-.04,0-.08.01-.11.03-1.12.39.06,3.8.1,4.2.19,2.03.09,1.19.28,3.22.04.41.51.95.98,1.04.22.05.44-.03.6-.16,1.4,4.4,3.19,9.28,3.19,9.28,0,0,.56.51,1.68,1.09.27.81.39,2.13.38,2.7,0,.33-.05.57-.07.8-.03.43-.13.84-.28,1.22-.69,1.77-2.51,3.09-4.65,4.05-.09,0-.13.01-.21.02-.11.02-.32.06-.59.12-.14.02-.3.05-.47.09-.69.13-1.62.3-2.65.5-.32.06-.66.12-.99.18-1.64.3-3.38.62-4.65.84-3.98-.06-6.11.06-7.56.73-1.63.75-2.39,2.18-3.96,4.81-4.83,8.08-7.5,17.85-8.88,25.57-1.11,6.2-1.39,11.09-1.27,12.7,0,0-.63,1.58-1.49,4.29-1.98,6.24-5.17,18.46-4.64,31.1Z" fill="#008694" stroke-width="0"/><path d="m63.45,340.96c.06.09.14.43.29,1.26.14.76.36,1.93.69,3.7.05.29.11.6.17.92.64,3.42,1.65,8.75,3.29,16.97,1.31,6.57,4.24,11.94,6.41,15.88.35.63.68,1.23.98,1.79l-.88.71c.08,1.66.92,6.43,2.81,12.37,2.25,7.06,5.99,15.78,11.72,22.9,1.54,1.91,5.07,6.06,8.17,9.93.19.24.39.49.58.73.23.29.46.58.68.87,1.09,1.4,2.07,2.7,2.81,3.79.28.99.57,1.97.9,2.95,1.15,2.54,2.35,5.25,3.37,7.68.43,1.02.83,1.99,1.2,2.88.24.6.46,1.17.66,1.68.14.36.28.78.41,1.25.32,1.12.62,2.53.9,4.1,1.25,7.11,2.06,17.49,2.34,21.45.01.24.03.46.04.65-.31,0-.49-.01-.49-.01,0,.19-.02.45-.04.72l45.6-9.32c-.12-.24-.23-.48-.32-.65,0,0-.16.08-.44.22-.05-.16-.11-.33-.18-.52,0-.04-.02-.08-.04-.12-.74-2.15-2.14-6.28-3.52-10.73-1.8-5.85-3.54-12.24-3.65-15.35-.01-.37-.03-.76-.03-1.18-.02-1.09-.04-2.32-.04-3.64,0-3.49.05-7.54.17-11.02.67-3.8,2.75-10.77,4.2-15.59.21-.7.41-1.36.59-1.96.23-.78.43-1.46.58-1.99.53-1.87.96-3.8,1.3-5.75.72-4.08,1.05-8.24,1.14-12.21.23-10.51-1.28-19.59-2.09-21.79l-1.17-.03c.23-4.3.56-10.29-.67-16.88-.06-.31-.12-.63-.19-.95-1.62-7.72-2.74-12.87-3.5-16.28-.12-.56-.23-1.07-.34-1.54-.39-1.76-.65-2.91-.82-3.67-.18-.82-.24-1.17-.22-1.27.08-.54,1.3-3.14,1.43-5.5.09-1.5-.15-3.87-.68-5.43-.62-1.83-2.51-4.63-4.36-6.92-1.17-1.45-2.32-2.69-3.12-3.33-.35-.29-.86.06-.71.49.24.7.53,1.94.92,3.44.29,1.12.62,2.38,1.03,3.68.84,2.7,1.36,4.88,1.14,5.89-.22,1.01.06,2.29-.58,2.37-.24.03-.45-.08-.63-.27-.06-.07-.12-.14-.17-.23-.03-.05-.06-.1-.09-.15-.02-.04-.05-.08-.07-.13-.04-.08-.08-.17-.11-.26-.48-1.24-.7-3.07-.87-4.24-.05-.33-.14-.48-.25-.59-.19-.2-.48-.28-.75-.22-.19.06-.23.09-.27.11-.08.06-.16.13-.22.22-.03.05-.06.1-.08.16,0,0-.57,4.47-.07,7.2.03.14.06.28.09.41.03.14.07.28.11.4.25.76.47,1.38.69,1.9.48,1.14.93,1.78,1.61,2.36.03.03.06.05.09.08.22.18.39.54.51.99.27.99.34,2.41.35,3.37,0,.16,0,.3,0,.42,0,.38,0,.61,0,.61,0,0-.17,3.79-.37,8.78-.07,1.66-.14,3.46-.21,5.3-.22,6.13.76,13.69.76,17.13,0,.49.04,1.31.11,2.32l-.94-.02s2.59,24.24-4.51,26.41c-.09.03-.11.15-.06.35-3.08-.16-8.09-.48-8.97-.53-.08,0-.13,0-.13,0-.03.02-.29.13-.29.13-2.16-.7-4.04-1.81-4.92-3.55-.19-.37-.33-.77-.42-1.2-.03-.16-.09-.32-.12-.49-.13-.71-.2-2.56.15-3.24.89-.6,1.39-1.06,1.39-1.06,0,0,.49-2.34,1.05-5.25.14-.63.25-1.26.35-1.87.14-.78.28-1.57.42-2.35.15.06.31.07.46.02.45-.15.86-.74.84-1.15-.07-2.04-.05-1.19-.12-3.23-.01-.41.75-3.94-.42-4.18-.12-1.76-.48-3.69-1.59-6.28-.65-2.4-1.72-5.28-3.44-7.61-3.51-4.75-7.33-6.11-14.25-4.7-.71.15-1.35.31-1.93.48-3.06.92-4.36,2.22-5.26,3.35-.9,1.12-1.39,2.07-2.84,2.28-.08.01-.17.02-.26.03-.88.06-1.13.66-.85,1.42.21.58.74,1.25,1.54,1.86-.48,2.02-.45,3.68-.47,3.84-.61,4.76-.05,8.33.9,11.12-.04.02-.08.04-.1.06-.98.69,1.11,3.63,1.25,4.01.74,1.9.42,1.11,1.16,3.01.15.38.75.77,1.22.73.22-.01.41-.15.53-.32,1.48,2.22,3.12,4.56,4.24,6.14.82,1.15,1.37,1.9,1.37,1.9,0,0,.64.31,1.82.56.03,0,.07.01.1.02.49.7.96,1.94,1.12,2.49.09.32.1.56.15.79.09.43.1.84.06,1.26-.06.66-.27,1.31-.6,1.94-.6,1.16-1.59,2.25-2.75,3.23-.08.03-.12.04-.19.08-.21.11-.74.37-1.44.72-1.33.67-3.29,1.65-5.03,2.52-.37.19-.73.36-1.08.53-.04-.11-.09-.17-.16-.16-1.38.15-2.75-.61-4.06-1.94-.45-.46-.91-.99-1.34-1.57-3.94-5.23-7.21-14.85-8.47-18.92-.37-1.19-.58-1.9-.58-1.9l-1.32,1.06c-.16-.43-.29-.79-.4-1.04-1.35-3.17-3.41-10.5-6.03-16.06-3.13-6.66-6.05-12.73-6.05-12.73,0,0-.1-.21-.25-.55-.05-.12-.11-.24-.16-.38-.37-.89-.87-2.22-1-3.24-.06-.46-.05-.86.08-1.11.02-.04.04-.07.05-.1.4-.8.56-1.56.55-2.8,0-.56-.04-1.22-.1-2.02-.02-.13-.03-.25-.05-.39-.02-.15-.05-.29-.09-.44-.6-2.7-2.88-6.59-2.88-6.59-.04-.04-.08-.07-.12-.1-.1-.06-.2-.11-.31-.13-.05,0-.1-.01-.15-.01-.41.07-.64.25-.74.5-.06.15-.08.32-.03.51.4,1.52,1.08,3.79.87,4.99-.01.08-.03.14-.05.21-.11.32-.26.5-.49.56-.63.18-.87-1.11-1.47-1.95-.6-.84-.98-3.04-1.27-5.86-.14-1.36-.32-2.65-.49-3.79-.23-1.53-.44-2.79-.5-3.53-.04-.45-.65-.58-.85-.17-.48.91-1.05,2.5-1.56,4.29-.81,2.83-1.45,6.15-1.3,8.07.13,1.63.84,3.91,1.51,5.26,1.05,2.12,3.19,4.04,3.48,4.5Z" fill="#008694" stroke-width="0"/><path d="m542.28,295.23c.03.1.01.45-.06,1.29-.07.77-.19,1.95-.36,3.74-.32,3.38-.84,8.91-1.59,17.91l-.02.24c-.64,7.74,1.26,14.54,2.24,19.03l-1.04.44c-.21.9-.46,2.76-.61,5.3-.26,4.38-.23,10.76.8,17.62.74,4.94,2.01,10.13,4.05,14.99,1.44,3.42,5.85,12.98,7.54,18.11,0,1.03,0,2.05.05,3.08.41,2.76.81,5.69,1.13,8.31.13,1.1.26,2.14.36,3.1.07.65.13,1.25.18,1.8.49,5.47-2.81,21.63-3.89,26.77-.05.24-.1.45-.14.64-.3-.1-.47-.15-.47-.15-.2.56-.62,1.81-.62,1.81.17.06.33.12.5.18-.16.48-.32,1-.53,1.52-.81,2.02-1.51,4.1-2.14,6.21l50.07,3.91c-.29-2.18-.67-4.34-1.15-6.47-.12-.54-.2-1.06-.28-1.56.18-.04.35-.08.53-.12,0,0-.23-1.29-.33-1.88,0,0-.18.03-.49.09,0-.16-.02-.35-.03-.55,0-.04,0-.09,0-.13-.13-2.45-.37-7.34-.44-12.4-.06-4.51,0-9.17.36-12.34.11-.9.23-1.68.39-2.3.09-.36.19-.74.29-1.15.28-1.06.61-2.24.96-3.51.95-3.36,2.13-7.24,3.2-10.55,2.26-4.64,8.52-14.02,10.55-17.3,5.06-8.18,8.12-18.25,9.75-26.07,1.23-5.87,1.66-10.48,1.54-12.04l-1.12-.35c1.47-4.27,3.58-10.28,4.09-17.38.67-9.15,1.02-14.77,1.22-18.19.11-1.8.18-2.98.23-3.75.06-.84.09-1.19.14-1.29.23-.5,2.11-2.66,2.9-4.89.36-1.01.68-2.49.8-3.85.05-.55.07-1.08.05-1.56-.14-3.15-2.86-9.75-4.36-11.92-.19-.24-.46-.24-.64-.11-.11.08-.2.22-.18.39.06,1.29-.16,4.17-.09,7.38.05,2.34,0,4.27-.31,5.38-.06.23-.14.43-.22.59-.5.92-.58,2.22-1.22,2.12-.24-.04-.41-.2-.53-.44-.04-.08-.07-.16-.1-.26-.02-.05-.03-.11-.04-.17-.01-.05-.02-.09-.04-.14-.01-.09-.03-.18-.03-.28-.05-.53-.04-1.04,0-1.58.07-.96.23-1.98.33-2.73.05-.33,0-.5-.07-.64-.13-.25-.39-.4-.66-.42-.2.01-.25.02-.3.03-.09.03-.19.08-.27.15-.04.04-.08.08-.12.13,0,0-.65,1.5-1.22,3.3-.38,1.19-.72,2.5-.83,3.6-.01.14-.02.28-.03.42,0,.14,0,.29,0,.42.03.8.08,1.46.15,2.02.15,1.23.41,1.97.89,2.71.02.03.04.06.06.1.16.24.22.63.22,1.09,0,1.03-.34,2.41-.59,3.33-.04.15-.08.29-.11.41-.11.36-.18.58-.18.58,0,0-2.13,6.35-4.42,13.32-.32.96-.59,1.91-.85,2.87-1.43,5.25-2.37,11.06-3.17,13.86-.13.47-.32,1.27-.52,2.26l-.9-.28s-4.2,24.02-11.62,24.15c-.1,0-.15.12-.16.32-1.15-.39-2.6-.9-3.97-1.39-.25-.08-.49-.17-.72-.25-1.79-.64-3.34-1.19-3.78-1.35-.08-.03-.12-.05-.12-.05-.04,0-.31.04-.31.04-1.88-1.27-3.39-2.85-3.75-4.77-.08-.41-.1-.83-.07-1.27.01-.16,0-.33.01-.5.07-.72.52-2.52,1.03-3.07,1.02-.34,1.62-.63,1.62-.63,0,0,.25-.48.66-1.26.45-.87,1.09-2.11,1.8-3.5.31-.57.59-1.14.86-1.7.22-.44.43-.88.65-1.32.14-.28.27-.55.4-.83.13.1.28.16.44.15.47-.02,1.02-.48,1.12-.88.5-1.98.28-1.16.78-3.13.1-.4,1.8-3.58.75-4.14.37-1.73.56-3.68.2-6.47.04-2.49-.2-5.54-1.21-8.27-1.88-5.05-4.79-7.46-10.64-8.26-.54-.08-1.11-.14-1.71-.19-8.67-.69-8.19,3.76-11.63,3.06-1.52-.31-1.63,1.49-.24,3.34-1.02,1.81-1.45,3.42-1.51,3.56-1.9,4.4-2.35,7.99-2.2,10.93-.04,0-.08.01-.11.03-1.12.39.06,3.8.1,4.2.19,2.03.09,1.19.28,3.22.04.41.51.95.98,1.04.22.05.44-.03.6-.16,1.4,4.4,3.18,9.28,3.18,9.28,0,0,.57.51,1.69,1.09.27.81.39,2.13.38,2.7,0,.33-.05.57-.07.8-.03.43-.13.84-.28,1.22-.69,1.77-2.51,3.09-4.65,4.05-.09,0-.13.01-.21.02-.76.15-5.23.99-8.3,1.54,0-.11-.04-.19-.11-.2-7.31-1.28-7.18-27.38-7.18-27.38l-1.56.66c-.04-.46-.07-.84-.1-1.11-.42-3.42-.38-11.04-1.36-17.09-1.18-7.26-2.31-13.9-2.31-13.9,0,0-.04-.23-.09-.6-.02-.12-.03-.26-.05-.41-.11-.96-.22-2.38-.07-3.39.07-.46.19-.84.39-1.05.03-.03.05-.06.08-.09.59-.66.96-1.35,1.3-2.54.15-.54.3-1.18.46-1.97.03-.13.04-.25.06-.39.02-.15.03-.3.03-.45.07-1.1-.07-2.46-.26-3.69-.29-1.86-.69-3.44-.69-3.44-.03-.05-.05-.09-.09-.13-.08-.09-.16-.16-.26-.21-.04-.02-.09-.04-.14-.05-.19-.03-.23-.03-.27-.03-.23.01-.44.12-.58.3-.1.13-.17.29-.17.48-.01.57-.02,1.07-.03,1.59-.01.43-.03.87-.07,1.31-.07.84-.19,1.62-.44,2.14-.04.07-.07.13-.11.19-.19.28-.39.41-.63.41-.64-.07-.54-1.33-.87-2.28-.06-.17-.1-.38-.13-.62-.13-1.14.12-3.06.53-5.37.57-3.16.8-6.04,1.06-7.31.09-.44-.46-.73-.77-.4-1.82,1.91-5.52,8.01-6.16,11.1-.09.46-.15.99-.19,1.54-.09,1.36,0,2.87.19,3.92.43,2.33,1.95,4.76,2.11,5.28Z" fill="#008694" stroke-width="0"/><path d="m302.72,428.07l6.15.48c2.1-5.53,5.14-13.95,6.89-20.89.48-1.93.87-3.74,1.11-5.35,1.23-3.41,2.57-7.45,3.83-11.44.91-2.86,1.77-5.68,2.54-8.24.42-1.38.8-2.69,1.15-3.87.78-2.66,1.36-4.71,1.63-5.76.42,3.73-.2,10.09-1.23,17.01-.54,3.57-1.17,7.29-1.84,10.88-1.46,7.85-3.04,15.04-3.83,18.59l-2.99,9.62,52.51,4.1-1.76-10.59-1.39-8.36c-.33-9.98-.75-24.3-.2-32.99,1.72-5.12,8.24-11.14,10.17-14.25,7.88-12.71,11.33-30.48,11.09-33.71,0,0,1.81-3.87,3.31-9.99,1.4-5.74,2.53-13.47,1.63-21.84,0,0-.17-.02-.17-.02.09-1.6.16-2.65.2-3.33.05-.75.08-1.06.12-1.14.21-.45,1.88-2.36,2.58-4.35.44-1.26.81-3.34.75-4.8-.13-2.79-2.55-8.65-3.88-10.58-.23-.34-.75-.16-.73.25.06,1.15-.14,3.7-.08,6.56.05,2.1,0,3.83-.28,4.81-.05.2-.12.36-.19.49-.44.81-.51,1.97-1.09,1.88-.21-.03-.36-.17-.47-.39-.03-.06-.06-.13-.08-.21-.33-1.07.02-3.14.19-4.39.04-.3,0-.46-.07-.58-.12-.21-.34-.34-.58-.36-.21,0-.29.04-.36.07-.08.04-.15.1-.21.17-.04.03-1.62,3.72-1.86,6.16-.02.17-.01.32-.02.47,0,.09-.02.19-.01.28.03.72.07,1.29.13,1.79.13,1.09.36,1.75.79,2.41.02.03.04.05.06.09.14.21.2.56.19.97,0,.91-.3,2.14-.52,2.96-.04.14-.07.26-.1.37-.84,2.1-7.07,18.02-7.89,26.29,0,0-4.75,23.99-11.34,24.11-.27,0-1.16-.19-2.16-.11.78-3.43,1.28-7.06,1.61-10.62,3-3.83,4.26-8.41,3.59-11.86,0,0-1.34-6.84-2.51-12.68-.04-4.8-.96-10.36-5.63-13.79-.98-.73-2.14-1.36-3.49-1.87-.75-.31-1.54-.57-2.34-.79-1.59-.42-3.27-.66-4.93-.68-.06,0-.11,0-.16,0-1.08,0-2.14.07-3.19.23-9.52,1.18-12,9.22-12.96,15.46-1.78,5.36-3.42,10.76-3.42,10.76-1.4,3.51-1.34,8.6,1.04,13.07-.13,3.48-.12,7.05.16,10.46-2.66-.04-5.44.19-7.9,1.24-1.88.8-3.58,2.09-4.91,4.09-1.88,2.83-4.09,10.95-5.35,15.81-.71,2.73-1.37,5.41-1.96,7.99-2.43,10.47-3.89,19.1-4.13,21.24-.48,2.1-1.05,5-1.66,8.28-1.17,6.32-2.47,14.07-3.52,20.37Z" fill="#008694" stroke-width="0"/><path d="m403.04,329.21c.03.09,0,.4-.06,1.15-.06.68-.17,1.73-.32,3.32h-.16c-.87,3.22-1.41,6.39-1.7,9.41-1.27,12.74,1.64,22.8,1.64,22.8-.46,1.97-.38,9.77,1.17,18.72.13.76.27,1.54.43,2.32.93,4.68,2.26,9.56,4.13,13.99,1,2.39,3.9,7.46,5.82,12.17,1.41,9.24,2.25,12.76,2.2,12.74.05.03-3.14,10.84-3.14,10.84l36.68,2.86-1.38-10.2c.34-.04.4-.94.41-.94.45-.16,1.85-3.3,3.52-9.23.02.36.03.68.04.97.11-.46.27-.93.47-1.41,2.04-4.95,8.08-10.57,9.92-13.54,7.88-12.72,11.33-30.49,11.09-33.71,0,0,6.8-14.53,4.94-31.84,0,0-.17-.02-.17-.02.09-1.6.16-2.65.2-3.33.05-.75.08-1.06.12-1.14.21-.44,1.88-2.36,2.58-4.34.44-1.26.81-3.34.75-4.8-.13-2.8-2.54-8.65-3.87-10.58-.23-.34-.75-.16-.73.25.05,1.14-.15,3.7-.08,6.56.06,2.51-.03,4.5-.47,5.3-.43.81-.51,1.98-1.08,1.89-.21-.04-.36-.17-.47-.39-.02-.04-.04-.09-.06-.13-.01-.04-.03-.07-.04-.11-.02-.07-.04-.15-.05-.23-.2-1.15.1-2.99.26-4.13.04-.3,0-.45-.07-.57-.12-.21-.34-.34-.58-.36-.22.01-.31.04-.39.09-.08.05-.16.11-.23.19,0,0-1.58,3.68-1.82,6.13-.01.12-.02.24-.03.35,0,.14,0,.27,0,.39.03.71.07,1.29.13,1.79.13,1.09.36,1.75.79,2.41.02.03.04.05.06.08.14.22.2.56.19.97,0,.91-.29,2.14-.52,2.96-.04.14-.07.26-.1.36-.84,2.11-7.07,18.03-7.89,26.29,0,0-4.75,24-11.34,24.11-.07,0-.21,0-.41,0-.39,0-1.01,0-1.68,0-.39,0-.79.01-1.18.02-.15-.02-.31-.04-.46-.07-.06,0-.12-.01-.17-.02-.28-.05-.56-.09-.82-.15-1.17-.24-2.24-.6-3.13-1.17-2-1.31-3.07-2.81-3.53-4.55-.11-.4-.19-.83-.23-1.25.05,0,.1,0,.14,0,3.44.07,6.19-.29,8.44-.89.42-.11.82-.23,1.2-.35,4.34-1.41,6.67-3.65,8.74-4.9-1.48-2.21-2.58-4.67-3.23-7.25,1.14.75,2.51,1.14,3.87,1.09-2.69-2.93-4.02-6.86-4.82-10.76-.44-2.18-.75-4.38-1.11-6.57-.09-.56-.19-1.12-.29-1.69-.15-1.42-.41-2.86-.86-4.24-.62-1.9-1.58-3.7-3.07-5.23-2.28-2.35-5.8-4.05-11.19-4.49-4.68-.36-8.04.55-10.52,2.19-2.3,1.52-3.84,3.67-4.9,6.01-1.69,3.58-2.64,7.48-4.02,11.21-1.39,3.73-3.32,7.4-6.43,9.88,1.33.26,2.75.09,3.99-.47-1.04,2.44-2.51,4.71-4.32,6.66,2.69,2.27,5.6,6.69,14.86,8.53.39.08.8.15,1.22.22-.27,1.03-.69,1.96-1.34,2.78-.76.97-1.83,1.8-3.31,2.46-.97.43-2.09.62-3.28.68-.14,0-.29,0-.43.01-.05,0-.09,0-.13,0-.2,0-.39,0-.58,0-.67-.26-1.23-.33-1.44-.37-6.49-1.13-7.47-25.58-7.47-25.58.23-4.14-.57-10.39-1.5-15.87-.93-5.48-1.97-10.21-2.22-11.32-.02-.11-.03-.23-.04-.37-.1-.85-.19-2.11-.06-3.01.06-.41.17-.74.34-.93.02-.02.04-.05.07-.07.53-.58.86-1.2,1.16-2.26.13-.48.27-1.05.41-1.75.02-.11.04-.23.05-.34.02-.13.03-.26.04-.4.14-2.45-.85-6.33-.85-6.33-.05-.09-.12-.17-.19-.22-.08-.06-.16-.1-.24-.12-.38-.04-.62.06-.77.26-.09.11-.14.25-.14.41-.03,1.18-.01,2.82-.28,3.9-.01.05-.03.09-.04.14-.01.06-.03.12-.05.18-.01.05-.03.08-.05.12-.02.05-.03.1-.06.14-.03.07-.07.13-.11.18-.16.23-.33.34-.55.35-.57,0-.47-1.16-.78-2.03-.31-.86-.09-2.84.35-5.31.51-2.81.71-5.37.94-6.49.08-.4-.41-.65-.69-.36-1.62,1.7-4.9,7.11-5.47,9.85-.07.34-.12.71-.15,1.1-.1,1.28-.03,2.75.15,3.76.38,2.07,1.73,4.22,1.87,4.69Z" fill="#008694" stroke-width="0"/></svg>