<?xml version="1.0" encoding="utf-8"?>
<!-- Generator: Adobe Illustrator 28.0.0, SVG Export Plug-In . SVG Version: 6.00 Build 0)  -->
<svg version="1.1" id="Calque_1" xmlns="http://www.w3.org/2000/svg" xmlns:xlink="http://www.w3.org/1999/xlink" x="0px" y="0px"
	 viewBox="0 0 490.4 511.9" enable-background="new 0 0 490.4 511.9" xml:space="preserve">
<g>
	<g id="Calque_1_00000062905639552465415880000006983526934582284425_">
		<path fill="#00BCB2" d="M273.9,339.1c-0.6-0.8-60.1-2-61-1.3c-0.9,0.7-7.9,129.7-7.9,129.7s76.9,0,77.6-1.6
			C283.3,464.3,274.8,340.2,273.9,339.1z"/>
		<path fill="#008082" d="M209,396.2c1.8-30,3.5-58,3.9-58.4c0.9-0.7,60.3,0.5,61,1.3c0.3,0.3,1.2,11.2,2.3,26.4
			c-10.3,7.6-21.8,13.5-33.6,18.3C231.4,388.2,220.3,392.6,209,396.2L209,396.2z"/>
		<path fill="#007171" stroke="#000000" stroke-width="3.74" stroke-miterlimit="10" d="M187.8,464.8c0,0,16.2,3,17.1,2.8
			c0.9-0.2,9.2-129.3,8.2-129.8c-0.7-0.3-14.7,15-14.9,16.1C198,355.1,186.4,463.8,187.8,464.8z"/>
		<path fill="#39322F" d="M227.7,368.5c0.1,11.2,8.4,20.2,19.6,20.1s18.4-9.2,18.3-20.4c-0.1-11.2-7.5-20.2-18.7-20.1
			C235.7,348.2,227.6,357.3,227.7,368.5L227.7,368.5z"/>
		<path fill="#E6E1D6" d="M260.8,368.2c-0.1-8.4-6.3-15.1-14.7-15.1c-8.4,0.1-13.8,6.9-13.7,15.3c0.1,8.4,5.6,15.1,14,15.1
			S260.9,376.6,260.8,368.2z"/>
		<path fill="#39322F" d="M256.4,368.2c0-5.8-4.3-10.4-10.1-10.3c-5.8,0-9.5,4.8-9.4,10.5c0.1,5.8,3.9,10.4,9.6,10.3
			C252.2,378.7,256.4,374,256.4,368.2L256.4,368.2z"/>
		<path fill="#E6E1D6" d="M242.7,368.4c0,2.3,1.7,4.2,4,4.1c2.3,0,3.8-1.9,3.8-4.2c0-2.3-1.5-4.2-3.8-4.1S242.7,366.1,242.7,368.4
			L242.7,368.4z"/>
		<path fill="#39322F" d="M223.9,425.1c0.1,13.6,10.1,24.5,23.7,24.4c13.6-0.1,22.3-11.2,22.2-24.8c-0.1-13.6-9.1-24.5-22.6-24.4
			C233.6,400.4,223.8,411.5,223.9,425.1L223.9,425.1z"/>
		<path fill="#E6E1D6" d="M264,424.7c-0.1-10.2-7.6-18.4-17.8-18.3c-10.2,0.1-16.7,8.4-16.6,18.6c0.1,10.2,6.8,18.4,17,18.3
			C256.8,443.2,264.1,434.9,264,424.7L264,424.7z"/>
		<path fill="#39322F" d="M258.7,424.8c-0.1-7-5.2-12.6-12.2-12.5S235,418,235.1,425s4.7,12.6,11.6,12.5S258.7,431.7,258.7,424.8z"
			/>
		<path fill="#E6E1D6" d="M242.1,424.9c0,2.8,2.1,5,4.9,5c2.8,0,4.6-2.3,4.6-5.1s-1.9-5-4.7-5C244.1,419.8,242.1,422.1,242.1,424.9
			L242.1,424.9z"/>
		<path fill="#FCB80E" d="M217.4,350c0,1.8,1.3,3.2,3.1,3.2c1.8,0,2.9-1.5,2.9-3.2c0-1.8-1.2-3.2-2.9-3.2
			C218.7,346.8,217.4,348.3,217.4,350z"/>
		<path fill="#FCB80E" d="M217.6,367.2c0,1.8,1.3,3.2,3.1,3.2c1.8,0,2.9-1.5,2.9-3.2c0-1.8-1.2-3.2-2.9-3.2
			C218.8,364,217.5,365.4,217.6,367.2z"/>
		<path fill="#FCB80E" d="M217.7,384.3c0,1.8,1.3,3.2,3.1,3.2c1.8,0,2.9-1.5,2.9-3.2c0-1.8-1.2-3.2-2.9-3.2
			C219,381.1,217.7,382.5,217.7,384.3L217.7,384.3z"/>
		<path fill="none" stroke="#000000" stroke-width="3.74" stroke-miterlimit="10" d="M274.4,339.2c-0.6-0.8-60.1-2-61-1.3
			c-0.9,0.7-7.9,129.7-7.9,129.7s76.9,0,77.6-1.6C283.7,464.4,275.3,340.3,274.4,339.2z"/>
		<polygon fill="#FFFFFF" points="267.3,377.2 283.3,348.4 284.4,362.9 305.9,335.4 284.4,373 281,362 		"/>
		<polygon fill="#FFFFFF" points="270.9,398.7 301.3,385.8 293.2,398 327.1,389.5 287,405.9 291.1,395.1 		"/>
		<polyline fill="#1E1E1C" points="112.5,321.4 60.9,453.4 55.9,452.7 106.3,317.1 		"/>
		<path fill="#1E1E1C" d="M62.6,451.2c0,0,6.8-12.4,14.4-4.6s3.3,18.6,3.3,18.6s-2.4,3.4-10.8,3.8c-8.4,0.4-10.4,0.1-12-2.5
			s-1.4-14.4-1.4-14.4L62.6,451.2L62.6,451.2z"/>
		<path fill="#1E1E1C" d="M24.6,439.6c0,0,8.2-14.5,18.4-5.8c10.2,8.7,2.8,20.1,2.8,20.1s-3.3,3.6-14.5,3.7c-14.7,0.1-16-7.3-15-11
			c3.5-13,6-7.1,5.9-7.4L24.6,439.6L24.6,439.6z"/>
		<line fill="none" stroke="#1E1E1C" stroke-width="4.75" stroke-miterlimit="10" x1="79.4" y1="314.6" x2="22.1" y2="439.1"/>
		<line fill="none" stroke="#1E1E1C" stroke-width="4.75" stroke-miterlimit="10" x1="235.8" y1="273.1" x2="144.6" y2="278.8"/>
		<polyline fill="none" stroke="#1E1E1C" stroke-width="4.75" stroke-miterlimit="10" points="150.5,314.1 228.9,282 253,331.7 		
			"/>
		<polygon fill="#1E1E1C" points="79.7,424.5 77.6,431.6 39.5,308.6 103.4,320.7 99.4,323.8 47,315.6 		"/>
		<path fill="#1E1E1C" d="M78.3,422.7c-1.7,2.7,11.6-13.9,19.8-6.8c9.9,8.7,4.3,20.9,4.3,20.9s-3.2,3-14.2,3.1
			c-14.3,0.1-13.3-3.6-14.3-7.3c-1.7-6.2,2.8-18.2,2.8-18.2L78.3,422.7L78.3,422.7z"/>
		<path fill="#008082" d="M130.1,118.3c-7.2,17.5-12.9,25.5-19.1,40.6c-0.4-23.1-1.9-25.4-4.8-53.7c-3.6,25-3.8,36.4-7.8,58.1
			c-5.8-23.5-7.3-20.6-14.8-57.7c-2,33.8-1.7,30.6-1.2,63c-7.6-22.6-15.3-42.1-22.9-70.6c4,41.9,3.2,57.3,5.7,83.9
			c-7-14.4-20.2-29-25.6-41.9c3.8,19.9,9.4,38.1,12.7,59.9c-13.6-17-23.8-39.6-32.2-50.9c12.7,43,30.7,101.2,43.1,130.2
			c1.8-20.4,15.3-41.4,40.1-18.8"/>
		<g>
			<defs>
				<path id="SVGID_1_" d="M130.1,118.3c-7.2,17.5-12.9,25.5-19.1,40.6c-0.4-23.1-1.9-25.4-4.8-53.7c-3.6,25-3.8,36.4-7.8,58.1
					c-5.8-23.5-7.3-20.6-14.8-57.7c-2,33.8-1.7,30.6-1.2,63c-7.6-22.6-15.3-42.1-22.9-70.6c4,41.9,3.2,57.3,5.7,83.9
					c-7-14.4-20.2-29-25.6-41.9c3.8,19.9,9.4,38.1,12.7,59.9c-13.6-17-23.8-39.6-32.2-50.9c12.7,43,30.7,101.2,43.1,130.2
					c1.8-20.4,15.3-41.4,40.1-18.8"/>
			</defs>
			<clipPath id="SVGID_00000181066048728446685100000001355964486576005810_">
				<use xlink:href="#SVGID_1_"  overflow="visible"/>
			</clipPath>
			<g clip-path="url(#SVGID_00000181066048728446685100000001355964486576005810_)">
				<path opacity="0.35" fill="#5B2970" enable-background="new    " d="M11.2,126.8c24.7,19.5,41.8,48.4,46.9,79.5
					c2.2,13,3.2,28,13.6,36.1c2.3,1.8,5.5,3.1,8.1,1.7c1.3-0.8,2.2-2.2,2.8-3.6c5-12-4.4-25.3-3.6-38.2c0.2-3.5,2-7.6,5.4-7.7
					c3-0.1,5.2,2.9,6,5.8s0.9,6.1,2.5,8.6c1.6,2.5,5.7,3.8,7.5,1.4c1.2-1.6,0.8-3.8,1.5-5.6c1.5-4,7.7-4.1,10.8-1.1
					s3.7,7.6,4.1,11.9c1.4,15.6,1,31.6-4.1,46.3c-2.9,8.5-7.8,16.9-15.8,21c-8.1,4-17.7,2.9-26.6,1.7c-9-1.2-18.5-2.7-25.2-8.8
					c-3.5-3.2-6-7.5-8.1-11.8c-20.9-41.8-23.5-90-25.7-136.7"/>
			</g>
		</g>
		<path fill="none" stroke="#000000" stroke-width="3.74" stroke-miterlimit="10" d="M130.2,119.9c-0.7-0.2-0.1-1.6-9.9,21.2
			c-3.3,7.6-6.6,14.1-9.2,19.4c-0.4-23.1-1.9-25.4-4.8-53.7c-3.6,25-3.8,36.4-7.8,58.1c-5.8-23.5-7.3-20.6-14.8-57.7
			c-2,33.8-1.7,30.6-1.2,63C75,147.5,67.3,128,59.7,99.5c4,41.9,3.2,57.3,5.7,83.9c-7-14.4-20.2-29-25.6-41.9
			c3.8,19.9,9.4,38.1,12.7,59.9c-13.6-17-23.8-39.6-32.2-50.9C33,193.5,51,251.8,63.4,280.7c-2.4-13.2,5.6-25.4,16.6-28
			c8.4-2,17.7,1.7,23.5,9.3C126.4,153.7,132,120.3,130.2,119.9L130.2,119.9z"/>
		<polygon fill="#1E1E1C" points="226.6,332.5 231.4,332.5 218.1,249.4 170.2,283.2 173.3,286.4 215,257 		"/>
		<polyline fill="#1E1E1C" points="133.5,337.2 158,446 163.1,444.1 139,331.1 		"/>
		<path fill="#1E1E1C" d="M163.8,439.5c0,0,6.5-10.4,12.7-3.3c6.2,7.1,2,16.3,2,16.3s-2.3,2.8-9.6,2.8s-9-0.4-10.2-2.7
			s-0.6-12.5-0.6-12.5L163.8,439.5L163.8,439.5z"/>
		<path fill="#1E1E1C" d="M230.6,332.2c0,0,2.8-9.9,9.8-3.6c4.2,3.7,4.4,8.3,3.9,11.4c-0.4,2.5-2.2,4.5-4.7,5
			c-1.5,0.4-3.6,0.8-6.4,0.6c-10.2-0.5-8.8-3.7-8.8-5.1c-0.2-8.6,3.1-13.9,3.1-13.9L230.6,332.2L230.6,332.2z"/>
		<path fill="#1E1E1C" d="M254.4,329.8c0,0,6.9-12,15.3-4.7s2.2,16.7,2.2,16.7s-2.7,3-12.1,3c-12.1,0-13.2-6.2-12.4-9.3
			c3-10.7,5-5.9,4.9-6.1L254.4,329.8L254.4,329.8z"/>
		<path fill="#3BA7B2" d="M58,294.7c14.6,45.8,35.7,51.2,76.6,38.2c32.3-10.3,50.7-37.8,38.8-74.9c-11.8-37.2-40.5-42.2-72.8-32
			S46.2,257.5,58,294.7L58,294.7z"/>
		<path fill="#1E1E1C" d="M86.3,338.5c-15.3-7-24.3-24.7-30.2-43.2c-10.9-34.3,4.8-60.1,44.3-72.6c39-12.4,65.5-0.6,76.5,34.2
			c5.9,18.6,4.9,36-3.1,50.2c-7.4,13.3-20.4,23.2-37.5,28.6C119.4,341.1,100.2,344.9,86.3,338.5z M61.5,293.6
			c13.1,41.3,30.4,49.5,72.9,36c33.4-10.6,47.6-37.8,37.1-71c-9.9-31.2-33.2-41.2-69.1-29.8C76.9,236.9,49.2,254.7,61.5,293.6
			L61.5,293.6z"/>
		<path fill="#FFFFFF" d="M120.1,246.2c17,15.5,37.6,20.1,46.9,9.9s2.9-30.9-14.1-46.4s-31.9-17.7-41.1-7.5S103.1,230.7,120.1,246.2
			L120.1,246.2z"/>
		<path d="M119.8,247.2c14.4,13.1,31.1,18.7,42.3,15.1c3-0.9,5.5-2.5,7.6-4.8c4.8-5.3,5.9-13.3,3-22.7c-2.8-9.3-9.1-18.8-17.8-26.7
			c-8.7-7.9-12.3-11.1-21.9-13.1c-9.6-2-17.5-0.2-22.3,5.1C101,210.8,101.6,230.6,119.8,247.2L119.8,247.2z M122.1,244.7
			c-7.8-7.1-7.2-13.3-9.9-21.4c-2.7-8.2-1.9-15.1,2.2-19.6c1.7-1.9,3.9-3.2,6.5-4.1c3.6-1.1,8-1.2,12.9-0.2
			c8.4,1.8,11,4.4,18.7,11.4c16,14.6,22,34.1,13.4,43.5C157.4,263.5,138.2,259.3,122.1,244.7L122.1,244.7z"/>
		
			<ellipse transform="matrix(0.8531 -0.5218 0.5218 0.8531 -97.7814 114.2559)" fill="#1E1E1C" cx="154" cy="230.8" rx="8.6" ry="18.6"/>
		
			<ellipse transform="matrix(0.8637 -0.5039 0.5039 0.8637 -97.321 111.142)" fill="#FFFFFF" cx="156.9" cy="235.5" rx="3.8" ry="5.1"/>
		<path fill="#FFFFFF" d="M108.3,265.2c14.3,13,32.3,16.5,40.3,7.8s2.8-26.4-11.5-39.4c-14.3-13-28.3-15.1-36.3-6.4
			C92.8,235.9,94,252.1,108.3,265.2L108.3,265.2z"/>
		<path d="M107.9,266.2c12.1,11,26.8,15.7,36.7,12.6c2.7-0.9,5-2.2,6.8-4.2c4.2-4.6,5.2-11.6,2.8-19.6c-2.3-8-7.7-16.1-15.1-22.9
			s-12-9.9-20.2-11.5c-8.3-1.6-15.1,0-19.3,4.6C91,234.5,92.5,252.2,107.9,266.2L107.9,266.2z M100.2,245.8
			c-2-6.8-0.1-13.2,3.4-17.1c1.5-1.7,3.5-2.9,5.7-3.6c8.4-2.7,17,0,27.4,9.5c6.4,5.8,11,12.9,13,19.8c2,6.8,1.1,12.7-2.4,16.5
			c-1.5,1.7-3.5,2.9-5.7,3.5c-8.4,2.7-21-1.4-31.4-10.9C103.9,257.8,102.2,252.7,100.2,245.8L100.2,245.8z"/>
		
			<ellipse transform="matrix(0.8777 -0.4792 0.4792 0.8777 -104.1906 97.1686)" fill="#1E1E1C" cx="138.3" cy="252.7" rx="7.9" ry="15.5"/>
		
			<ellipse transform="matrix(0.8652 -0.5014 0.5014 0.8652 -109.3606 104.6999)" fill="#FFFFFF" cx="140.1" cy="255.8" rx="3.3" ry="4.5"/>
		<path fill="#F55117" stroke="#000000" stroke-width="4.49" stroke-miterlimit="10" d="M142.8,297.5l24.1,17.6l52.8-17
			c2.6-0.8,4.4,2.6,2.3,4.3l-46.2,36.3c-5.8,4.5-10.1,10.5-12.7,17.4l-32.9,86.9c-1.4,3.7-6.8,3.5-7.9-0.3l-14-46.8
			c-1.3-4.3-5.3-7.3-9.9-7.2l-52.7,1.2c-4,0.1-5.8-5-2.6-7.5l77.9-59.7c6.2-4.8,10.9-11.2,13.5-18.6l1.6-4.6
			C137.1,296.8,140.4,295.8,142.8,297.5L142.8,297.5z"/>
		<path fill="#B91203" d="M142.8,297.5c-2.4-1.7-5.7-0.7-6.7,2.1l-1.6,4.6c-2.6,7.4-7.3,13.8-13.5,18.6l-25.6,19.6
			c-1.3,2.5-4,5.8-9.2,10c-16.3,13.2-18.7,19.2-10.8,14.8s58-42.9,59.4-50.6s6.3-14.9,14.1-8.7c26.5,17.8,31.5,9.6,47.7,4
			s23.1-13.8,23.1-13.8l-52.8,17L142.8,297.5L142.8,297.5z"/>
		<path fill="none" stroke="#000000" stroke-width="4.49" stroke-miterlimit="10" d="M142.8,297.5l24.1,17.6l52.8-17
			c2.6-0.8,4.4,2.6,2.3,4.3l-46.2,36.3c-5.8,4.5-10.1,10.5-12.7,17.4l-32.9,86.9c-1.4,3.7-6.8,3.5-7.9-0.3l-14-46.8
			c-1.3-4.3-5.3-7.3-9.9-7.2l-52.7,1.2c-4,0.1-5.8-5-2.6-7.5l77.9-59.7c6.2-4.8,10.9-11.2,13.5-18.6l1.6-4.6
			C137.1,296.8,140.4,295.8,142.8,297.5L142.8,297.5z"/>
		<path fill="#008082" d="M130.6,336.8l5-6.9c1.1-1.6,3.3-1.9,4.9-0.8l12.4,9.1c1.6,1.1,1.9,3.3,0.8,4.9l-5,6.9
			c-1.1,1.6-3.3,1.9-4.9,0.8l-12.4-9.1C129.8,340.6,129.5,338.4,130.6,336.8z"/>
		<path fill="#008082" d="M137.9,360.6l-14.1-10.3c-1.1-0.8-1.3-2.4-0.6-3.5l0,0c0.8-1.1,2.4-1.4,3.5-0.5l14.1,10.3
			c1.1,0.8,1.4,2.4,0.6,3.5l0,0C140.6,361.2,139,361.4,137.9,360.6z"/>
		<path fill="#FFFFFF" d="M134.4,379.6l-6,40.7c-0.1,2.1-2.9,2.6-3.7,0.6l-10-25.3c-3.4-8.5-11.4-14.3-20.6-14.8l-25-1.2
			c-2.1-0.1-2.5-3.1-0.5-3.7l42.3-17.2l20.7,15.1C133.4,375.1,134.5,377.3,134.4,379.6L134.4,379.6z"/>
		<path fill="#008082" d="M144.3,320.9L234.4,203l0-7.3c0,0,36.1-26.8,39-25.1c0.5,0.3,1,0.9,1.5,1.6c2.7,4.5,1.4,10.4-2.9,13.5
			c-4.5,3.2-10.9,9.3-16.1,20.1c-7.2-0.6-11.1,4.2-11.7,4.9s-84.8,121-84.8,121L144.3,320.9L144.3,320.9z"/>
		<path fill="#FFFFFF" d="M242.8,198.1c-0.7,1-2.1,1.2-3.1,0.5s-1.2-2.1-0.5-3.1c0.7-1,2.1-1.2,3.1-0.5S243.6,197.1,242.8,198.1z"/>
		<path fill="#FCB80E" d="M148.1,377.3c-1.2,1.7-3.6,2-5.2,0.8c-1.7-1.2-2-3.5-0.8-5.2c1.2-1.7,3.6-2,5.2-0.8
			C148.9,373.3,149.3,375.6,148.1,377.3z"/>
		<path fill="#FCB80E" d="M144.5,388.5c-1.2,1.7-3.6,2-5.2,0.8c-1.7-1.2-2-3.5-0.8-5.2c1.2-1.7,3.6-2,5.2-0.8
			C145.3,384.5,145.7,386.9,144.5,388.5z"/>
		<path fill="#FCB80E" d="M139.8,398.3c-0.8,1.1-2.4,1.4-3.5,0.5s-1.4-2.4-0.5-3.5c0.8-1.1,2.4-1.4,3.5-0.5S140.6,397.2,139.8,398.3
			z"/>
		<path fill="#F0EFE4" d="M240.3,199c-40.5,54.6-86.3,115.7-127.4,169.9C153.4,314.2,199.2,253.2,240.3,199L240.3,199z"/>
		<path fill="#F0EFE4" d="M248.4,192.8c-42.1,57.4-89.6,121.5-132.3,178.4C158.2,313.8,205.7,249.7,248.4,192.8L248.4,192.8
			L248.4,192.8z"/>
		<path fill="#F0EFE4" d="M254.4,189.3c-43,59.2-91.6,125.4-135.2,184.2C162.3,314.2,210.8,248,254.4,189.3L254.4,189.3L254.4,189.3
			z"/>
		<path fill="#F0EFE4" d="M262.2,183.8c-44.5,61.7-94.7,130.7-139.7,192C166.9,314.1,217.1,245.1,262.2,183.8L262.2,183.8
			L262.2,183.8z"/>
		<path fill="#FFFFFF" d="M249.5,193.1c-0.7,1-2.1,1.2-3.1,0.5c-1-0.7-1.2-2.1-0.5-3.1c0.7-1,2.1-1.2,3.1-0.5
			C250,190.8,250.2,192.1,249.5,193.1z"/>
		<path fill="#FFFFFF" d="M255.8,189.4c-0.7,1-2.1,1.2-3.1,0.5c-1-0.7-1.2-2.1-0.5-3.1s2.1-1.2,3.1-0.5
			C256.2,187,256.5,188.4,255.8,189.4z"/>
		<path fill="#FFFFFF" d="M262.9,184.3c-0.7,1-2.1,1.2-3.1,0.5s-1.2-2.1-0.5-3.1s2.1-1.2,3.1-0.5
			C263.4,181.9,263.6,183.3,262.9,184.3z"/>
		<path fill="#BA3550" d="M65.1,354.5l11.6-16.5l5,3.3c-1.2,2.7-2.9,6-5.4,9.5c-2.1,2.9-4.3,5.2-6.2,7
			C68.4,356.8,66.7,355.6,65.1,354.5z"/>
		<polyline fill="none" stroke="#1E1E1C" stroke-width="4.75" stroke-miterlimit="10" points="72.3,280 5.3,318 87.8,354.3 		"/>
		<path fill="#1E1E1C" d="M91,364.4c0,0,12.2,12.5,21.2,3s0.9-18.6,0.9-18.6s-3.4-4-15-1.8c-15.2,2.9-15.1,9.5-14.5,12.8"/>
		<line fill="none" stroke="#1E1E1C" stroke-width="4.75" stroke-miterlimit="10" x1="234.1" y1="240.1" x2="236.7" y2="275.1"/>
		<path fill="#1E1E1C" d="M238.7,232.8c0,0,4.3-16.9-8.5-19.6c-12.8-2.7-16.4,8.9-16.4,8.9s-1.7,5,6.3,13.7
			c10.4,11.4,16,7.9,18.5,5.6"/>
		<polygon fill="#FFFFFF" points="171.6,202.1 225.1,110.7 198.1,122 233.8,20.8 158.4,149.8 189.8,137.6 		"/>
		<polygon fill="#FFFFFF" points="157,110.2 170.8,50.8 157.8,61.7 160.2,0 140.8,83.7 155.9,71.7 		"/>
		<polygon fill="#FFFFFF" points="210,186.8 262.8,156.4 246,154.3 292.7,114 218.3,156.9 237.4,159.8 		"/>
		<path fill="#FFFFFF" d="M68,355.2l-1,5l3.3-3.9c0,0-0.1-1-0.8-1.3C68.8,354.8,68.1,355.2,68,355.2L68,355.2z"/>
		<polygon fill="#FFFFFF" points="79.4,340.2 80.2,335.9 77.2,339.4 		"/>
		<polygon fill="#FFFFFF" points="79.8,342.2 82.6,338.6 78.4,340.5 		"/>
		<path fill="#E04668" d="M64.1,353.6c0.9-2.5,2.4-5.6,4.8-9c2.3-3.3,4.8-5.8,6.8-7.4c1.7,1.1,4.3,3.2,6,4.3c-2.1,2-4.4,4.6-6.7,7.8
			c-2.2,3.1-3.8,6.1-5,8.6C68.4,356.8,65.7,354.7,64.1,353.6L64.1,353.6z"/>
		<path fill="#FFFFFF" d="M78.1,340.3l-3.1-3.9l-0.2,5.8c0.5,0.6,1.4,0.7,2.2,0.2C77.6,341.9,78.2,340.9,78.1,340.3L78.1,340.3z"/>
		<path fill="#FFFFFF" d="M74.6,344.2c0,0.2,0.1,1.2-0.6,2.1c-0.7,1.1-2.2,1.1-2.2,1.1L70,343L74.6,344.2L74.6,344.2z"/>
		<path fill="#FFFFFF" d="M70.7,349.1l-5.8,0.6l4.3,2.6c0.1,0,1.2-0.4,1.7-1.3C71.1,350.4,71.1,349.6,70.7,349.1L70.7,349.1z"/>
		<path fill="#E6E6E4" d="M70.7,349.1l-5.8,0.6l6.1,0.8C71.1,350,71,349.5,70.7,349.1L70.7,349.1z"/>
		<path fill="#E6E6E4" d="M67.1,352.2l-4.1,3.3l5.1-2.5C67.8,352.4,67.2,352.2,67.1,352.2L67.1,352.2z"/>
		<path fill="#E6E6E4" d="M74.6,344.2L70,343l4.5,2.6C74.7,344.9,74.7,344.4,74.6,344.2z"/>
		<path fill="#E6E6E4" d="M76.4,342.6l-1.4-6.2l-0.2,5.8C75.1,342.5,75.7,342.7,76.4,342.6z"/>
		<path fill="#FFFFFF" d="M67.1,352.2l-4.1,3.3l4.8-0.8c0,0,0.6-0.8,0.3-1.6C67.9,352.4,67.2,352.2,67.1,352.2L67.1,352.2z"/>
	</g>
</g>
<g>
	<g>
		<g>
			<polygon fill="#015E63" points="352.4,401.1 411.7,284.9 478.3,306.9 485.3,318.8 467.3,440.7 			"/>
			<polygon fill="#008694" points="357.1,392.2 406.8,283.4 476.5,306.4 458.5,428.2 			"/>
			<polygon fill="#FFFFFF" points="367.8,387.6 452.1,417.6 467.8,311.8 411,293 			"/>
		</g>
		<g>
			<circle cx="424.2" cy="353.2" r="33.2"/>
			<path fill="none" stroke="#89A5B0" stroke-width="0.2922" stroke-miterlimit="10" d="M424.2,353.2"/>
			<g>
				<path fill="#FFFFFF" d="M442.2,338.7c-3.1-0.7-6.2,0.2-8.9,2c-2.9,2-5.2,4.6-7.1,7.4c-1.5-2.1-2.4-4.5-5.2-6.2
					c-2.2-1.3-4.7-1.7-7.4-0.6c-1.3,0.5-2.4,1.5-3,2.6c-1.7,2.7-0.6,5.9,0,7l1.3,2.5c0.3,0.5,0.9,1.8,0.1,3.1
					c-0.9,1.5-3.1,2-4.9,0.8c-0.8-0.5-1.9-1.5-1.4-2.3c0.2-0.3,0.6-0.6,0.8-0.8c0.2-0.2,0.3-0.4,0.4-0.5c0.7-1.1,0.6-2.7-0.6-3.4
					c-1.1-0.7-2.3-0.7-3.2,0.7c-1,1.6-1,4.9,3,7.4c4.7,3,9.8,1.3,11.4-2.1c1-2.2,0.4-4.2-0.9-6.8l-1.1-2.1c-0.7-1.2-0.6-2.9,0.7-3.8
					c1.1-0.8,2.4-0.9,4.1,0.1c2.6,1.5,3.3,3.8,4.9,5.9c-1.6,2.6-2.9,5.2-4.1,7.6l-0.8,1.8c-3.6,7.3-5.8,11.3-9.4,12.9
					c-0.7,0.3-1.7,0.7-3,0.4c-0.7-0.2-0.8-0.7-0.7-0.9c0.1-0.5,0.6-0.6,0.9-0.7c0.4-0.1,1.1-0.3,1.4-1.4c0.3-1.3-0.5-2.8-2.1-3.2
					c-1.2-0.3-3.3,0.4-3.8,2.4c-0.5,2.2,1.1,4.3,4.1,5c1.6,0.4,5.4,0.7,10-2.5c5.4-3.7,8-8.9,10-12.7l2.4-5.1
					c0.5,0.2,1.1,0.4,1.7,0.6c5.1,1.5,8.4-0.5,8.9-2.4c0.3-1.2-0.1-2.5-1.3-2.8c-0.8-0.2-1.9,0.1-2.5,1.1c-0.5,1,1.1,2.5-0.6,3
					c-1.2,0.4-3.2,0.4-5.7-0.7l1.2-2.5c2.3-4.7,5.2-10.5,9.7-9.4c0.3,0.1,1.5,0.4,1.3,1.2c-0.1,0.3-0.1,0.3-0.6,0.8
					c-0.4,0.4-0.7,0.8-0.8,1.2c-0.3,1.3,0.4,2.4,1.9,2.7c1.9,0.4,2.9-1.2,3.1-2.2C447.2,341.5,445.3,339.5,442.2,338.7z"/>
			</g>
		</g>
	</g>
	
		<ellipse transform="matrix(0.4626 -0.8865 0.8865 0.4626 -251.2834 591.5063)" opacity="0.2" cx="362.3" cy="503" rx="3.5" ry="10.7"/>
	<polygon fill-rule="evenodd" clip-rule="evenodd" fill="#9E6A5C" points="416.2,418.3 394.8,412 358.3,502.2 366.8,504 	"/>
	<polygon fill-rule="evenodd" clip-rule="evenodd" fill="#6B3D30" points="401.8,414.1 394.8,412 358.3,502.2 358.7,502.1 	"/>
</g>
</svg>
