<svg xmlns="http://www.w3.org/2000/svg" data-name="Capa 1" viewBox="0 0 490 490"><path fill="#fff" d="M407.57 408.89a25.08 25.08 0 01-18.87-8.57 25.08 25.08 0 01-44-16.53v-85.52a21.6 21.6 0 01-30.7-19.58v-70.62a41.69 41.69 0 0141.64-41.64h66.18a41.73 41.73 0 0141.65 41.64v70.62a21.61 21.61 0 01-30.77 19.58v85.52a25.14 25.14 0 01-25.13 25.1zm-12.64-25.1a12.64 12.64 0 0025.28.56 5.23 5.23 0 000-.56V228.31a6.23 6.23 0 0112.46 0v50.38a9.16 9.16 0 1018.31.48 3.84 3.84 0 000-.48v-70.62a29.23 29.23 0 00-29.19-29.19h-66.18a29.22 29.22 0 00-29.18 29.19v70.62a9.16 9.16 0 1018.31 0v-50.4a6.23 6.23 0 1112.45 0v155.5a12.65 12.65 0 0025.29 0v-78.42a6.23 6.23 0 1112.45 0z"/><path fill="#fff" d="M389.12 178.88h-.88a41.72 41.72 0 01-40.83-42.13v-3.22a41.72 41.72 0 0140.91-42.14h.73A41.73 41.73 0 01430 133.53v3.22a41.73 41.73 0 01-40.88 42.13zm-.1-75h-.67a29.24 29.24 0 00-28.49 29.69v3.22a29.27 29.27 0 0028.48 29.68h.66a29.28 29.28 0 0028.52-29.68v-3.22A29.28 29.28 0 00389 103.84zM121.09 408.89a25.08 25.08 0 01-18.87-8.57 25.09 25.09 0 01-44-16.53v-85.52a21.59 21.59 0 01-30.76-19.58v-70.62a41.69 41.69 0 0141.64-41.64h66.18A41.73 41.73 0 01177 208.07v70.62a21.61 21.61 0 01-30.78 19.58v85.52a25.13 25.13 0 01-25.13 25.1zm-12.64-103.52v78.42a12.64 12.64 0 0025.28.56v-156a6.23 6.23 0 1112.45 0v50.38a9.16 9.16 0 0018.32.48 3.84 3.84 0 000-.48v-70.66a29.23 29.23 0 00-29.19-29.19H69.13a29.23 29.23 0 00-29.19 29.19v70.62a9.16 9.16 0 1018.31 0v-50.38a6.23 6.23 0 1112.46 0v155.48a12.64 12.64 0 0025.28 0v-78.42a6.23 6.23 0 0112.46 0z"/><path fill="#fff" d="M102.63 178.88h-.86a41.72 41.72 0 01-40.84-42.13v-3.22a41.73 41.73 0 0140.91-42.14h.73a41.72 41.72 0 0140.94 42.14v3.22a41.72 41.72 0 01-40.88 42.13zm-.63-12.45h.57a29.27 29.27 0 0028.48-29.68v-3.22a29.28 29.28 0 00-28.52-29.69h-.67a29.24 29.24 0 00-28.48 29.69v3.22a29.27 29.27 0 0028.48 29.68zM319.75 371.84H171.17a6.23 6.23 0 010-12.46h148.58a6.23 6.23 0 110 12.46z"/><path fill="#fff" d="M300 391.63a6.23 6.23 0 01-4.45-10.63l15.39-15.39-15.39-15.39a6.23 6.23 0 018.81-8.8l19.79 19.78a6.23 6.23 0 010 8.81l-19.79 19.81a6.25 6.25 0 01-4.36 1.81zM191 391.63a6.22 6.22 0 01-4.4-1.83L166.77 370a6.23 6.23 0 010-8.81l19.79-19.78a6.23 6.23 0 019 8.65l-.15.15-15.41 15.4L195.37 381a6.24 6.24 0 01-4.37 10.63z"/></svg>