<?xml version="1.0" encoding="utf-8"?>
<!-- Generator: Adobe Illustrator 27.2.0, SVG Export Plug-In . SVG Version: 6.00 Build 0)  -->
<svg version="1.1" id="Calque_1" xmlns="http://www.w3.org/2000/svg" xmlns:xlink="http://www.w3.org/1999/xlink" x="0px" y="0px"
	 viewBox="0 0 581.7 312" enable-background="new 0 0 581.7 312" xml:space="preserve">
<path fill="none" stroke="#2FC1C1" stroke-width="8" stroke-miterlimit="10" d="M451.4,243.5"/>
<path fill="none" stroke="#00A5B7" stroke-miterlimit="10" d="M-22.4,406.3"/>
<path fill="none" stroke="#00A5B7" stroke-miterlimit="10" d="M575.1,406.3"/>
<g>
	<g>
		<defs>
			<path id="SVGID_1_" d="M39.2,6.9v303.8h518.1V6.9H39.2z M275.3,191.9L6.4,225.8v-69.4l269.4-39.1L275.3,191.9z"/>
		</defs>
		<clipPath id="SVGID_00000013170204061051201500000000347901927262626996_">
			<use xlink:href="#SVGID_1_"  overflow="visible"/>
		</clipPath>
		<g clip-path="url(#SVGID_00000013170204061051201500000000347901927262626996_)">
			<g>
				<g>
					<path fill="none" stroke="#2FC1C1" stroke-miterlimit="10" d="M76.8,222.1c0.1-28.8,10.4-47.4,19-57.8
						c16.6-20,37.5-24.2,41.5-24.7l16.6-2.3c0.7-0.1,1.4-0.3,2-0.5"/>
					<path fill="none" stroke="#2FC1C1" stroke-miterlimit="10" d="M126.9,117l-35.7,5c-0.6,0.3-1.2,0.6-1.8,0.8
						c-9.9,3.8-19,9.6-26.5,17.1c-14,14-20.8,32.6-22.5,52c-0.1,1.1-0.2,2.2-0.2,3.3c0,0.6-0.1,1.1-0.1,1.7
						c-0.1,1.7-0.1,3.4-0.1,5.2"/>
					<path fill="none" stroke="#2FC1C1" stroke-miterlimit="10" d="M155.9,136.8L155.9,136.8L155.9,136.8L155.9,136.8
						c5.2-1.8,9.2-7.2,9.2-13.2c0-6.6-5-11.4-11.2-10.5l-34.6,4.9"/>
				</g>
				<path fill="none" stroke="#2FC1C1" stroke-miterlimit="10" d="M84.6,211.5"/>
				<polyline fill="none" stroke="#2FC1C1" stroke-miterlimit="10" points="122.8,205.9 166.3,200.1 178.5,206.7 203.2,220.1 
					121.4,231.6 				"/>
				<g>
					<polyline fill="none" stroke="#2FC1C1" stroke-linejoin="round" stroke-miterlimit="10" points="76.8,222.1 76.6,286.2 
						39.7,266.1 39.9,202.1 					"/>
				</g>
				<polygon fill="none" stroke="#2FC1C1" stroke-linejoin="round" stroke-miterlimit="10" points="81.1,123.4 44.2,103.3 
					44.3,55.1 81.2,75.2 				"/>
				<path fill="none" stroke="#2FC1C1" stroke-linejoin="round" stroke-miterlimit="10" d="M154,64.9c30.8-4.3,55.8,19.2,55.8,52.4
					c-0.1,33.3-25.2,63.9-56,68.2l-16.1,2.3c-10.7,2-16.2,11.5-16.2,28l0,15.8l62.5-8.8l19.2-2.7l-0.1,30.9l0,17.3L76.6,286.2
					l0.1-64c0.1-28.8,10.4-47.4,19-57.8c16.6-20,37.5-24.2,41.5-24.7l16.6-2.3c6.2-0.9,11.2-7,11.2-13.7c0-6.6-5-11.4-11.2-10.5
					l-72.8,10.2l0.1-48.2L154,64.9z"/>
				<g>
					<path fill="none" stroke="#2FC1C1" stroke-miterlimit="10" d="M157.6,64.6c0.3,0,0.7-0.1,1-0.1c0.5,0,0.9,0,1.4,0
						c8.1-0.2,16.3,1.6,23.5,5.4c-6.6-3.6-13.3-7.2-19.9-10.8c-5.4-3-10.9-6.4-16.6-9.2c-2.1-1-4.1-1.9-6.3-2.7
						c-6-2.2-12.5-3.1-18.9-2.8"/>
					<path fill="none" stroke="#2FC1C1" stroke-linejoin="round" stroke-miterlimit="10" d="M121.8,44.4c0,0-0.1,0-0.1,0
						c-1.5,0.1-3.1,0.2-4.6,0.4L44.3,55.1l36.9,20.1L154,64.9c1.2-0.2,2.4-0.3,3.6-0.3"/>
				</g>
			</g>
			<g>
				<path fill="none" stroke="#2FC1C1" stroke-miterlimit="10" d="M266.3,172.3c-0.1-0.9-0.1-1.8-0.1-2.8L266,91.7
					c-4.3-4.4-9.8-7.4-15.8-8.3c-13.8-1.9-25.1,8.6-25,23.6l0.2,84.8c0,14.9,11.3,28.7,25.1,30.6c13.9,1.9,25.1-8.6,25.1-23.5l0-6.9
					C270.2,186.7,267,179.6,266.3,172.3z"/>
				<path fill="none" stroke="#2FC1C1" stroke-miterlimit="10" d="M290.9,7.7c-2.1-0.3-4.1-0.5-6.2-0.6c-0.6,0-1.3,0-1.9,0
					c-1.4,0-2.8,0-4.2,0c-0.7,0-1.4,0.1-2.1,0.1c-1.3,0.1-2.7,0.2-4,0.4c-0.6,0.1-1.3,0.2-1.9,0.3c-1.6,0.3-3.2,0.6-4.7,1
					c-0.3,0.1-0.5,0.1-0.8,0.2c0,0-0.1,0-0.1,0c-1.9,0.5-3.7,1.1-5.5,1.7c-0.5,0.2-1,0.4-1.5,0.6c-1.3,0.5-2.6,1-3.8,1.6
					c-0.3,0.1-0.6,0.2-0.9,0.4c-0.8,0.4-1.5,0.8-2.3,1.2l-40.8,22.2c1-0.6,2.1-1,3.1-1.5c1.2-0.6,2.5-1.1,3.8-1.6
					c0.5-0.2,1-0.4,1.5-0.6c1.8-0.6,3.6-1.2,5.5-1.7c0.3-0.1,0.6-0.1,0.9-0.2c1.6-0.4,3.1-0.7,4.7-1c0.6-0.1,1.3-0.2,1.9-0.3
					c1.3-0.2,2.6-0.3,4-0.4c0.7,0,1.4-0.1,2.1-0.1c1.4-0.1,2.8-0.1,4.2,0c0.6,0,1.3,0,1.9,0c2,0.1,4.1,0.3,6.2,0.6"/>
				<path fill="none" stroke="#2FC1C1" stroke-miterlimit="10" d="M290.4,268.9"/>
				<path fill="none" stroke="#2FC1C1" stroke-miterlimit="10" d="M325,205.7"/>
				<path fill="none" stroke="#2FC1C1" stroke-miterlimit="10" d="M324.9,124"/>
				<path fill="none" stroke="#2FC1C1" stroke-miterlimit="10" d="M354.5,54.9c-0.1-0.1-0.1-0.2-0.2-0.3c-0.1-0.2-0.3-0.5-0.4-0.7
					c-0.7-1.2-1.4-2.4-2.1-3.6c-0.2-0.4-0.4-0.7-0.7-1.1c-0.9-1.4-1.8-2.9-2.8-4.3c0-0.1-0.1-0.1-0.1-0.2c-0.1-0.2-0.3-0.4-0.5-0.6
					c-0.8-1.1-1.5-2.1-2.4-3.2c-0.3-0.4-0.6-0.8-0.9-1.2c-0.8-1-1.7-2-2.5-3c-0.2-0.2-0.3-0.4-0.5-0.6c-0.1-0.1-0.1-0.1-0.2-0.2
					c-1.1-1.2-2.2-2.4-3.3-3.5c-0.3-0.3-0.6-0.6-0.9-0.9c-0.9-0.9-1.8-1.7-2.7-2.6c-0.2-0.2-0.4-0.4-0.6-0.6
					c-0.1-0.1-0.3-0.2-0.4-0.4c-1.3-1.1-2.6-2.2-3.9-3.3c-0.1-0.1-0.2-0.2-0.4-0.3c-1.2-1-2.5-1.9-3.8-2.8c-0.2-0.1-0.4-0.3-0.6-0.4
					c-0.1-0.1-0.3-0.2-0.4-0.3c-1.7-1.1-3.4-2.2-5.1-3.3c-0.3-0.2-0.6-0.3-0.9-0.5c-1.8-1-3.7-2-5.5-2.9c0,0-0.1-0.1-0.1-0.1
					c-0.2-0.1-0.3-0.1-0.5-0.2c-1.3-0.6-2.7-1.2-4.1-1.7c-0.4-0.2-0.8-0.3-1.2-0.5c-1.6-0.6-3.2-1.1-4.8-1.6c-0.1,0-0.3-0.1-0.4-0.1
					c-1.5-0.4-3-0.8-4.5-1.2c-0.4-0.1-0.9-0.2-1.3-0.3c-1.7-0.4-3.3-0.7-5-0.9"/>
				<g>
					<path fill="none" stroke="#2FC1C1" stroke-miterlimit="10" d="M178.7,207.3c-1.9-7.3-2.9-14.9-2.9-22.5l0-7.1 M184.1,222.7
						 M288.4,269.9c-11.1,5.5-24,7.8-37.9,5.8c-18-2.5-34.5-11.8-47.4-25.1 M324.9,124l0,0.4l0.1,29.4 M181.3,70
						c11.2-27.6,37.8-44.3,68.8-40c20.6,2.9,43.4,15,54.1,34.7 M225.3,191.7c0,14.9,11.3,28.7,25.1,30.6
						c13.9,1.9,25.1-8.6,25.1-23.5l-0.2-84.8c0-14.9-11.3-28.7-25.2-30.6c-13.8-1.9-25.1,8.6-25,23.6L225.3,191.7"/>
				</g>
			</g>
			<g>
				<path fill="none" stroke="#2FC1C1" stroke-miterlimit="10" d="M341.3,201.4c-5.4,3-8.2,10.3-8.1,22.1l0,15.7l36.9-20.1l0-15.7"
					/>
				<polyline fill="none" stroke="#2FC1C1" stroke-miterlimit="10" points="415,254.8 415.1,299 451.9,278.9 451.8,261.6 				"/>
				<polyline fill="none" stroke="#2FC1C1" stroke-miterlimit="10" points="391.8,222.2 370.1,219.2 333.2,239.2 406.1,249.5 				
					"/>
				<path fill="none" stroke="#2FC1C1" stroke-miterlimit="10" d="M451.8,259.7"/>
				<polyline fill="none" stroke="#2FC1C1" stroke-miterlimit="10" points="402.1,61.6 329.2,51.3 292.4,71.4 365.2,81.6 				"/>
				<path fill="none" stroke="#2FC1C1" stroke-miterlimit="10" d="M453.7,106.1c0-0.1-0.1-0.1-0.1-0.2c-0.2-0.4-0.3-0.8-0.5-1.2
					c-0.5-1.4-1.1-2.7-1.7-4c-0.3-0.6-0.6-1.2-0.9-1.8c-0.4-0.7-0.7-1.5-1.1-2.2c-0.2-0.4-0.5-0.8-0.7-1.2c-0.3-0.5-0.5-0.9-0.8-1.4
					c-0.8-1.3-1.6-2.6-2.4-3.9c-0.2-0.2-0.3-0.5-0.5-0.7c-0.1-0.1-0.1-0.2-0.1-0.2c-0.2-0.2-0.4-0.4-0.5-0.6c-1.2-1.7-2.5-3.4-3.9-5
					c-0.2-0.3-0.4-0.5-0.6-0.8c-0.6-0.7-1.2-1.3-1.8-1.9c-0.2-0.2-0.4-0.5-0.7-0.7c-1.1-1.1-2.1-2.1-3.2-3.1
					c-0.2-0.2-0.4-0.3-0.5-0.5c-0.4-0.3-0.7-0.6-1.1-0.9c-1-0.9-2.1-1.7-3.2-2.5c-0.4-0.3-0.8-0.6-1.2-0.9c-0.3-0.2-0.5-0.4-0.8-0.6
					c-0.7-0.5-1.5-0.9-2.2-1.4c-0.6-0.4-1.2-0.8-1.8-1.1c-1.2-0.7-2.4-1.3-3.6-1.9c-0.5-0.2-0.9-0.5-1.4-0.7c-0.1,0-0.1-0.1-0.2-0.1
					c-1.5-0.7-3-1.3-4.6-1.9c-0.4-0.2-0.9-0.3-1.3-0.5c-1.2-0.4-2.5-0.8-3.8-1.2c-0.5-0.1-1-0.3-1.5-0.4c-1.7-0.4-3.4-0.8-5.1-1"/>
				<path fill="none" stroke="#2FC1C1" stroke-miterlimit="10" d="M395.2,197.1"/>
				<path fill="none" stroke="#2FC1C1" stroke-miterlimit="10" d="M365.2,81.6c1.7,0.2,3.4,0.6,5.1,1c0.5,0.1,1,0.3,1.5,0.4
					c1.3,0.3,2.5,0.7,3.8,1.2c0.4,0.2,0.9,0.3,1.3,0.5c1.6,0.6,3.2,1.3,4.8,2c0.5,0.2,0.9,0.5,1.4,0.7c1.2,0.6,2.4,1.2,3.6,1.9
					c0.6,0.4,1.2,0.7,1.8,1.1c1,0.6,2,1.3,3,2c0.4,0.3,0.8,0.6,1.2,0.9c1.1,0.8,2.1,1.6,3.2,2.5c0.4,0.3,0.7,0.6,1.1,0.9
					c1.3,1.1,2.6,2.3,3.8,3.6c0.2,0.2,0.5,0.5,0.7,0.7c0.8,0.9,1.6,1.8,2.4,2.7c1.4,1.6,2.7,3.3,3.9,5c0.2,0.3,0.5,0.6,0.7,0.9
					c0.2,0.2,0.3,0.5,0.5,0.7c0.9,1.3,1.7,2.5,2.4,3.9c0.3,0.4,0.5,0.9,0.8,1.4c0.6,1.1,1.2,2.3,1.8,3.4c0.3,0.6,0.6,1.2,0.9,1.8
					c0.6,1.3,1.2,2.7,1.7,4c0.2,0.4,0.3,0.8,0.5,1.2c0.4,1.1,0.7,2.2,1.1,3.3c0.3,0.8,0.6,1.6,0.8,2.5c0.3,1.2,0.6,2.4,0.8,3.6
					c0.2,0.8,0.4,1.6,0.5,2.4c0.2,1.3,0.4,2.7,0.6,4c0.1,0.7,0.2,1.4,0.3,2.1c0.2,2,0.3,4.1,0.3,6.1"/>
				<g>
					<path fill="none" stroke="#2FC1C1" stroke-miterlimit="10" d="M333.2,239.2l0-15.7c0-16.6,5.4-24.5,16.1-23.5l16.1,2.3
						c14.4,2,27.6-2.1,37.5-10.4"/>
					<path fill="none" stroke="#2FC1C1" stroke-miterlimit="10" d="M419.9,162.6c0.8-4.1,1.3-8.3,1.3-12.8
						c-0.1-33.3-25.2-63.9-56-68.2l-72.8-10.2l0.1,48.2l72.8,10.2c6.1,0.9,11.2,7,11.2,13.7c0,6.6-5,11.3-11.1,10.5l-16.1-2.3
						c-4.5-0.6-25.4-2.4-41.9,13c-8.6,8-18.8,23.6-18.8,52.5l0.1,64L415.1,299"/>
				</g>
				<path fill="none" stroke="#2FC1C1" stroke-miterlimit="10" d="M349.2,151.8l16.1,2.3c6.1,0.9,11.2-3.9,11.1-10.5
					c0-4.6-2.5-8.9-6-11.5c-5,0.8-9.9,2.2-14.5,4.5c-0.1,0-0.2,0.1-0.3,0.1c-0.6,0.3-1.2,0.6-1.8,0.9l-36.9,20.1c0,0,0,0,0,0
					C331.2,150,345.6,151.2,349.2,151.8z"/>
			</g>
			<g>
				<g enable-background="new    ">
					<g>
						<polyline fill="none" stroke="#2FC1C1" stroke-miterlimit="10" points="469.3,218.8 469.4,263.4 480.2,257.1 						"/>
					</g>
					<g>
						<polyline fill="none" stroke="#2FC1C1" stroke-miterlimit="10" points="479.6,196.9 475.5,196.3 441.4,214.8 469.3,218.8 
							479.6,213.2 						"/>
					</g>
					<g>
						<polyline fill="none" stroke="#2FC1C1" stroke-miterlimit="10" points="478.9,149.6 441.4,214.8 475.5,196.3 						"/>
						<path fill="none" stroke="#2FC1C1" stroke-miterlimit="10" d="M513,131"/>
					</g>
					<g>
						<path fill="none" stroke="#2FC1C1" stroke-miterlimit="10" d="M454.9,101.6l-58.1,101.1c-5.9,9.1-6.5,21.4-1.4,32.7
							c5.3,11.6,15.6,19.8,27,21.4l47,6.6l-0.1-44.6l-27.9-3.9l37.5-65.3l1,0.1l0.3,150.9l41.4,5.8l-0.4-195.6L454.9,101.6z"/>
					</g>
					<g>
						<polygon fill="none" stroke="#2FC1C1" stroke-miterlimit="10" points="521.5,306.5 555.7,287.9 555.3,92.3 521.2,110.9 						
							"/>
					</g>
					<g>
						<polygon fill="none" stroke="#2FC1C1" stroke-miterlimit="10" points="521.2,110.9 555.3,92.3 489,83 454.9,101.6 						"/>
					</g>
				</g>
			</g>
			<path opacity="0.3" fill="#2FC1C1" d="M401,279.5l-95.4-13.7l0.2-5.8c0-0.3,1.1-30.8,1.7-58.6l0-0.1c0.4-10.6,4-18.7,10.7-24.1
				c8.9-7.3,22.7-9.2,42.2-6.1c12,2,20.7-0.5,26-7.3c5.3-6.8,7.7-20.6,2-33.6c-3.2-7.4-8.3-12.1-13.5-12.6l-0.5-0.1l-70-11.9
				l0.2-13.1l71.8,12.1c10.1,1,18.8,8.4,24,20.3c5.8,13.4,7,33.1-3.7,46.8c-5.8,7.4-17.1,15.6-38.4,12.1
				c-15.4-2.5-26.1-1.4-31.9,3.3c-3.7,3-5.6,7.7-5.9,14.5c-0.4,20.7-1.1,42.7-1.5,52.9l82.3,11.7L401,279.5z"/>
			<path opacity="0.3" fill="#2FC1C1" d="M494.6,291.6l-1.1-160.1l-23.4-3.2l-47.9,85.3c-1.5,3.8-1.1,8,0.9,11.5
				c2.1,3.6,5.7,6,9.9,6.4l21.7,2.1l-0.5,12.9l-22.7-2.1c-8.3-0.9-15.5-5.6-19.7-12.8c-4.2-7.2-4.8-15.7-1.6-23.4l0.3-0.7l52.4-93.3
				l43.3,5.9l1.2,171.4L494.6,291.6z"/>
			<path opacity="0.3" fill="#2FC1C1" d="M95.8,267.8l1.9-85.6l71.4-42c7.3-4.3,12.4-15.1,11.9-25.2l-0.3-1.8
				c-3.8-9.9-13-16.2-23.3-15.7l-62,5.9l0.1-12.6l61-6.3c15.4-0.8,29.3,8,35.5,22.2l0.5-0.1l0.6,2.7l0.2,0.6l0.2,1.5l0.2,1.2
				c0.2,0.8,0.2,1.6,0.1,2.3c0.3,12.7-5.7,28.9-18.3,36.4l-65.1,38.3l-1.4,63.5l80.5-8.9l-0.4,13.2L95.8,267.8z"/>
			<path fill="none" stroke="#2FC1C1" stroke-width="2" stroke-miterlimit="10" d="M309.3,99.7l66.2,11.4
				c28.4,2.5,37.3,75.1-16.2,66.4c-27.7-4.5-44.4,1.6-45.4,24c-0.6,28.2-1.7,58.7-1.7,58.7l82.7,11.4"/>
			<path fill="none" stroke="#2FC1C1" stroke-width="2" stroke-miterlimit="10" d="M501.1,287L500,125.8l-33.3-4.5l-50.3,89.5l0,0
				c-5.1,12.1,2.9,25.8,16,27.2l19,2.1"/>
			<path fill="none" stroke="#2FC1C1" stroke-width="2" stroke-miterlimit="10" d="M99.6,97l57.3-6c13.6-0.7,25.6,7.8,30.1,20.6
				l0.4,2.8c0.2,0.5-0.1-1.3,0,0c0.7,11.7-5,25.5-15.1,31.4l-68.2,40.2l-1.7,74.5l82.4-9.6"/>
			<g>
				<defs>
					<path id="SVGID_00000114071194435158660390000012776542503981661065_" d="M116.7,23.3v294.2h249.6V23.3H116.7z M331.3,76.4
						l4.5,49.1l-44.3-5.8l0.9-48.2L331.3,76.4z M202.1,268.4l-29.8-63.2l30.9,14.9L202.1,268.4z M203.1,152L124,147l39-81.9
						c0,0,39,2.8,42.9,33.9C209.9,130,203.1,152,203.1,152z M336.9,294.3l-49.3-13.2l0.2-85.7l9.5-16.9c0,0,6.3-14.7,19.2-19.8
						c12.9-5.1,31.7-7.1,31.7-7.1L336.9,294.3z"/>
				</defs>
				<clipPath id="SVGID_00000147195478974842303670000006088624545903797402_">
					<use xlink:href="#SVGID_00000114071194435158660390000012776542503981661065_"  overflow="visible"/>
				</clipPath>
				
					<path opacity="0.3" clip-path="url(#SVGID_00000147195478974842303670000006088624545903797402_)" fill="none" stroke="#2FC1C1" stroke-width="12" stroke-miterlimit="10" d="
					M260,250.3L260,250.3c-22.8,0-44.7-9.7-54.4-27.3c-3.3-6-5.2-12.9-5.2-20.7L199,108c0-7.5,1-14.5,3.1-20.8
					c6.2-19.6,21.9-32.8,44.9-32.8h0c18.9,0,34.7,8.4,44,22.1c5.7,8.4,9,18.8,9,30.4l2.8,62.2l1.3,29.4c0,18.4-4.9,33.6-15.6,42.6
					C281.5,246.9,272.1,250.3,260,250.3z"/>
				
					<path clip-path="url(#SVGID_00000147195478974842303670000006088624545903797402_)" fill="none" stroke="#2FC1C1" stroke-width="2" stroke-miterlimit="10" d="
					M260,250.3L260,250.3c-22.8,0-44.7-9.7-54.4-27.3c-3.3-6-5.2-12.9-5.2-20.7L199,108c0-7.5,1-14.5,3.1-20.8
					c6.2-19.6,21.9-32.8,44.9-32.8h0c18.9,0,34.7,8.4,44,22.1c5.7,8.4,9,18.8,9,30.4l2.8,62.2l1.3,29.4c0,18.4-4.9,33.6-15.6,42.6
					C281.5,246.9,272.1,250.3,260,250.3z"/>
			</g>
		</g>
	</g>
	<polygon fill="#0C142C" stroke="#2FC1C1" stroke-linejoin="round" stroke-miterlimit="10" points="30,228.3 23.7,224.2 23.7,141.7 
		30.1,145.5 	"/>
	<polygon fill="#0C142C" stroke="#2FC1C1" stroke-linejoin="round" stroke-miterlimit="10" points="30.1,145.5 30.1,228.4 
		275.7,197.8 275.3,110.1 	"/>
	<polygon fill="#0C142C" stroke="#2FC1C1" stroke-linejoin="round" stroke-miterlimit="10" points="275.3,110.1 268.9,106.2 
		23.7,141.7 30.1,145.5 	"/>
	<g>
		<g>
			<g>
				<g>
					<path fill="#FF0000" d="M63.9,215.1c-0.7-0.2-1.2-0.6-1.7-1.1c-0.4-0.5-0.6-1.2-0.7-1.9l3.1-0.4c0,0.4,0.2,0.8,0.5,1
						c0.3,0.2,0.6,0.3,1,0.2c0.4,0,0.8-0.2,1-0.4c0.2-0.2,0.4-0.5,0.4-0.9c0-0.3-0.1-0.5-0.3-0.7c-0.2-0.2-0.4-0.3-0.7-0.4
						c-0.3-0.1-0.7-0.2-1.2-0.3c-0.8-0.1-1.4-0.3-1.9-0.5c-0.5-0.2-0.9-0.5-1.3-0.9c-0.4-0.4-0.5-1-0.5-1.8c0-1.1,0.4-2,1.2-2.8
						c0.8-0.7,1.9-1.2,3.1-1.3c1.3-0.2,2.4,0,3.2,0.6c0.8,0.5,1.2,1.4,1.3,2.5l-3.1,0.4c0-0.4-0.2-0.7-0.4-0.9
						c-0.3-0.2-0.6-0.3-1-0.2c-0.4,0-0.6,0.2-0.8,0.4c-0.2,0.2-0.3,0.5-0.3,0.8c0,0.4,0.2,0.7,0.5,0.8c0.4,0.2,0.9,0.3,1.7,0.5
						c0.8,0.2,1.4,0.3,1.9,0.5c0.5,0.2,0.9,0.5,1.2,0.9c0.4,0.4,0.5,1,0.5,1.7c0,0.7-0.2,1.3-0.5,1.9c-0.3,0.6-0.8,1.1-1.5,1.5
						c-0.7,0.4-1.4,0.7-2.3,0.8C65.3,215.4,64.6,215.3,63.9,215.1z"/>
					<path fill="#FF0000" d="M75.3,204.5v2.4l3.9-0.5v2.3l-3.9,0.5v2.6l4.4-0.5v2.3l-7.3,0.8v-12l7.3-0.9v2.3L75.3,204.5z"/>
					<path fill="#FF0000" d="M90.2,206.2c-0.3,0.6-0.8,1.1-1.5,1.6c-0.7,0.4-1.5,0.7-2.4,0.8l-1.8,0.2v4.3l-2.9,0.3v-12l4.7-0.6
						c1-0.1,1.8,0,2.4,0.2c0.7,0.3,1.2,0.7,1.5,1.2c0.3,0.5,0.5,1.2,0.5,1.9C90.7,204.9,90.5,205.5,90.2,206.2z M87.3,205.7
						c0.3-0.3,0.4-0.7,0.4-1.2c0-0.5-0.1-0.8-0.4-1.1c-0.3-0.2-0.7-0.3-1.2-0.2l-1.6,0.2v3l1.6-0.2C86.6,206.2,87,206,87.3,205.7z"
						/>
					<path fill="#FF0000" d="M95.2,202v-2.7l4.7-0.6v12.5l-3,0.3v-9.8L95.2,202z"/>
					<path fill="#FF0000" d="M106.6,208.2c0.6-0.1,1-0.4,1.3-1c0.2-0.6,0.4-1.5,0.4-2.7c-0.2,0.4-0.6,0.7-1,0.9
						c-0.4,0.2-0.9,0.4-1.4,0.5c-0.7,0.1-1.4,0-1.9-0.2c-0.6-0.2-1-0.6-1.3-1.2c-0.3-0.6-0.5-1.3-0.5-2.1c0-0.8,0.2-1.6,0.5-2.3
						c0.3-0.7,0.8-1.2,1.5-1.6c0.6-0.4,1.4-0.7,2.3-0.8c1.7-0.2,2.8,0.2,3.5,1.2c0.7,1,1,2.5,1,4.5c0,1.5-0.1,2.7-0.4,3.7
						c-0.3,1-0.7,1.8-1.3,2.4c-0.6,0.6-1.5,0.9-2.6,1.1c-0.9,0.1-1.6,0-2.2-0.3c-0.6-0.3-1.1-0.7-1.4-1.2c-0.3-0.5-0.5-1.1-0.6-1.8
						l2.7-0.3C105.2,207.9,105.7,208.3,106.6,208.2z M107.5,203c0.3-0.3,0.4-0.7,0.4-1.2c0-0.5-0.1-1-0.4-1.2
						c-0.3-0.3-0.7-0.4-1.2-0.3c-0.5,0.1-0.9,0.3-1.2,0.6c-0.3,0.3-0.4,0.8-0.4,1.3c0,0.5,0.1,0.9,0.4,1.1c0.3,0.3,0.7,0.4,1.2,0.3
						C106.9,203.5,107.3,203.3,107.5,203z"/>
					<path fill="#FF0000" d="M119.9,201.7v2.4l-7.5,0.9v-2.4L119.9,201.7z"/>
					<path fill="#FF0000" d="M122.6,205.9c1.1-1.1,2-1.9,2.6-2.6c0.6-0.7,1.2-1.4,1.6-2.1c0.4-0.7,0.7-1.4,0.7-2
						c0-0.5-0.1-0.8-0.3-1.1c-0.2-0.2-0.5-0.3-1-0.3c-0.4,0.1-0.8,0.3-1,0.6c-0.2,0.4-0.4,0.8-0.4,1.4l-2.8,0.3c0-1,0.2-1.8,0.6-2.5
						c0.4-0.7,0.9-1.2,1.5-1.6c0.6-0.4,1.4-0.6,2.1-0.7c1.3-0.2,2.4,0.1,3.1,0.7c0.7,0.6,1,1.5,1,2.6c0,1.2-0.4,2.4-1.2,3.6
						c-0.8,1.1-1.9,2.3-3.2,3.4l4.6-0.5v2.4l-8.5,1v-2.2C122.5,206,122.6,205.8,122.6,205.9z"/>
					<path fill="#FF0000" d="M133,196.3c0.8-1.2,2-1.9,3.6-2.1c1.7-0.2,2.9,0.2,3.6,1.3c0.8,1,1.1,2.6,1.1,4.5c0,2-0.4,3.6-1.1,4.8
						c-0.8,1.2-2,1.9-3.6,2.1c-1.7,0.2-2.9-0.2-3.6-1.3c-0.8-1-1.1-2.6-1.1-4.6C131.9,199.1,132.3,197.5,133,196.3z M138.2,197.7
						c-0.2-0.6-0.8-0.8-1.5-0.8s-1.3,0.5-1.5,1.1c-0.2,0.7-0.4,1.6-0.4,2.7c0,0.8,0,1.4,0.1,1.9c0.1,0.5,0.3,0.9,0.6,1.2
						c0.3,0.3,0.7,0.4,1.2,0.3s1-0.3,1.2-0.6c0.3-0.3,0.5-0.8,0.6-1.3c0.1-0.5,0.1-1.2,0.1-2C138.6,199.2,138.5,198.3,138.2,197.7z"
						/>
					<path fill="#FF0000" d="M146.4,203.2l-1.9,5.2l-1.9,0.2l1-5.1L146.4,203.2z"/>
					<path fill="#FF0000" d="M151.9,202.5c1.1-1.1,2-1.9,2.6-2.6c0.6-0.7,1.2-1.4,1.6-2.1c0.4-0.7,0.7-1.4,0.7-2
						c0-0.5-0.1-0.8-0.3-1.1c-0.2-0.2-0.5-0.3-1-0.3c-0.4,0.1-0.8,0.3-1,0.6c-0.2,0.4-0.4,0.8-0.4,1.4l-2.8,0.3c0-1,0.2-1.8,0.6-2.5
						c0.4-0.7,0.9-1.2,1.5-1.6c0.6-0.4,1.4-0.6,2.1-0.7c1.3-0.2,2.4,0.1,3.1,0.7c0.7,0.6,1,1.5,1,2.6c0,1.2-0.4,2.4-1.2,3.6
						c-0.8,1.1-1.9,2.3-3.2,3.4l4.6-0.5v2.4l-8.5,1V203C151.7,202.6,151.9,202.4,151.9,202.5z"/>
					<path fill="#FF0000" d="M162.3,192.9c0.8-1.2,2-1.9,3.6-2.1c1.7-0.2,2.9,0.2,3.6,1.3c0.8,1.1,1.1,2.6,1.1,4.5
						c0,2-0.4,3.6-1.1,4.8c-0.8,1.2-2,1.9-3.6,2.1c-1.7,0.2-2.9-0.2-3.6-1.3c-0.8-1.1-1.1-2.6-1.1-4.6
						C161.2,195.7,161.5,194.1,162.3,192.9z M167.5,194.3c-0.2-0.6-0.8-0.9-1.5-0.8c-0.8,0.1-1.3,0.5-1.5,1.1
						c-0.2,0.7-0.4,1.6-0.4,2.7c0,0.8,0,1.4,0.1,1.9c0.1,0.5,0.3,0.9,0.6,1.2c0.3,0.3,0.7,0.4,1.2,0.3s1-0.3,1.2-0.6
						c0.3-0.3,0.5-0.8,0.6-1.3c0.1-0.5,0.1-1.2,0.1-2C167.9,195.8,167.7,194.9,167.5,194.3z"/>
					<path fill="#FF0000" d="M172.7,200.1c1.1-1.1,2-1.9,2.6-2.6c0.6-0.7,1.2-1.4,1.6-2.1c0.4-0.7,0.7-1.4,0.7-2
						c0-0.5-0.1-0.8-0.3-1.1c-0.2-0.2-0.5-0.3-1-0.3c-0.4,0.1-0.8,0.3-1,0.6c-0.2,0.4-0.4,0.8-0.4,1.4l-2.8,0.3c0-1,0.2-1.8,0.6-2.5
						c0.4-0.7,0.9-1.2,1.5-1.6c0.6-0.4,1.4-0.6,2.1-0.7c1.3-0.2,2.4,0.1,3.1,0.7c0.7,0.6,1,1.5,1,2.6c0,1.2-0.4,2.4-1.2,3.6
						c-0.8,1.2-1.9,2.3-3.2,3.5l4.6-0.5v2.4l-8.5,1v-2.2C172.5,200.2,172.7,200,172.7,200.1z"/>
					<path fill="#FF0000" d="M182,199.5v-2.4l5.4-8.4l3.2-0.4v7.7l1.4-0.2v2.6l-1.4,0.2v2.3l-2.9,0.3v-2.3L182,199.5z M187.9,191.9
						l-2.9,4.7l2.9-0.3V191.9z"/>
					<path fill="#FF0000" d="M200.2,201.4l-1.2,0.1v-15.4l1.2-0.1V201.4z"/>
					<path fill="#FF0000" d="M210.4,196.2l3.8-0.4v2.3l-6.7,0.8v-12.2l2.9-0.3V196.2z"/>
					<path fill="#FF0000" d="M218.5,185.4v12.2l-2.9,0.3v-12.2L218.5,185.4z"/>
					<path fill="#FF0000" d="M223.5,194.7l3.8-0.4v2.3l-6.7,0.8v-12.2l2.9-0.3V194.7z"/>
					<path fill="#FF0000" d="M231.6,193.7l3.8-0.4v2.3l-6.7,0.8v-12.2l2.9-0.3V193.7z"/>
					<path fill="#FF0000" d="M239.8,185.3v2.5l3.9-0.5v2.3l-3.9,0.5v2.7l4.4-0.5v2.4l-7.3,0.8v-12.2l7.3-0.9v2.4L239.8,185.3z"/>
				</g>
				<g>
					<g>
						<path fill="#FFFFFF" d="M52.8,150.6l4.7,3.2c1.4,1,2.1,1.8,2.2,3.5V171c0,1.7-1.4,3.2-3.1,3.4c-1.7,0.2-3.1-1-3.1-2.7v-3
							l-6.2-5v8.8c0,1.7-1.4,3.2-3.1,3.4c-1.7,0.2-3.1-1-3.1-2.7v-13.5c0.1-1.8,1-2.8,2.3-4.1l4.6-4.4
							C49.7,149.6,51,149.4,52.8,150.6z M53.5,162.5V156l-6.2,0.8v6.5L53.5,162.5z"/>
						<path fill="#FFFFFF" d="M69,166.6v3c0,1.8-1.3,3.3-3,3.5c-1.7,0.2-3.1-1-3.1-2.8c0-5.5,0-11.1,0-16.6c0-2.9,2.4-5.6,5.3-5.9
							c1.7-0.2,3-0.4,4.7-0.6c1.4-0.2,2.6,0.2,3.7,1l3.4,3c2.2,1.9,1.9,7.2-0.3,9.6l-3.1,3.3c-1,1.2-2.2,1.8-3.7,1.9L69,166.6z
							 M74.9,159.6v-6.4l-5.9,0.7v6.5L74.9,159.6z"/>
						<path fill="#FFFFFF" d="M83.5,168.3v-11.6c0-1.6,1.3-3.1,3.1-3.3c1.8-0.2,3.2,0.9,3.2,2.4v11.7c0,1.5-1.4,3-3.2,3.2
							C84.9,170.9,83.5,169.8,83.5,168.3z M89.7,151.6l-6,0.7V146l6-0.7V151.6z"/>
					</g>
					<g>
						<path fill="#FFFFFF" d="M111.5,161.4v3c0,1.8-1.3,3.4-3,3.6c-1.7,0.2-3.1-1.1-3.1-2.8c0-5.6,0-11.1,0-16.7
							c0-2.9,2.4-5.6,5.3-6c1.7-0.2,3-0.4,4.7-0.6c1.4-0.2,2.6,0.2,3.7,1l3.4,3c2.2,1.9,1.9,7.3-0.3,9.6l-3.1,3.4
							c-1,1.2-2.2,1.8-3.7,2L111.5,161.4z M117.5,154.4V148l-5.9,0.7v6.5L117.5,154.4z"/>
						<path fill="#FFFFFF" d="M125.8,160.5c0-5.6,0-11.2,0-16.8c0-1.7,1.5-3.3,3.1-3.5c1.8-0.2,3.2,1,3.2,2.7v16
							c3.1-0.4,2.2-0.3,5.3-0.7c4.1-0.5,4.1,5.8,0,6.3c-2.8,0.3-4.5,0.5-6.2,0.8C128.2,165.6,125.8,163.4,125.8,160.5z"/>
						<path fill="#FFFFFF" d="M153.9,138.1l4.7,3.3c1.4,1,2.1,1.8,2.2,3.6v13.7c0,1.7-1.4,3.3-3.1,3.5c-1.7,0.2-3.1-1-3.1-2.7v-3.1
							l-6.2-5.1v8.9c0,1.7-1.4,3.3-3.1,3.5c-1.7,0.2-3.1-1-3.1-2.7v-13.7c0.1-1.8,1-2.8,2.3-4.1l4.6-4.4
							C150.8,137.1,152.1,136.8,153.9,138.1z M154.5,150.1v-6.6l-6.2,0.8v6.6L154.5,150.1z"/>
						<path fill="#FFFFFF" d="M175.5,134.5c4-0.5,4,5.8,0,6.3c-3.1,0.4,0.4-0.1-2.7,0.3c0,5.3,0,10.8,0,16c0,4.3-6.2,5-6.2,0.8
							c0-5.2,0-10.7,0-16c-3.1,0.4,0.4-0.1-2.7,0.3c-4.1,0.5-4.1-5.8,0-6.3C167.8,135.5,171.6,135,175.5,134.5z"/>
						<path fill="#FFFFFF" d="M186.5,139.5c0,1.2,0,3.1,0,4.2c2.3-0.3,3.2-0.4,5.6-0.7c1.7-0.2,3.1,1,3.1,2.8c0,1.7-1.4,3.4-3.2,3.6
							c-2.3,0.3-3.2,0.4-5.5,0.7c0,2.1,0,3.4,0,5.5c0,4.1-6.2,4.9-6.2,0.8c0-5.7,0-11.4,0-17.1c0-3,2.3-5.7,5.2-6
							c3.5-0.4,4.5-0.6,7.9-1c1.7-0.2,3.1,1,3.1,2.7c0,1.7-1.5,3.4-3.1,3.6L186.5,139.5z"/>
						<path fill="#FF0000" d="M203.8,131.1l7.1-0.9c2.8-0.3,5.3,1.7,5.3,4.7v14.6c0,2.6-2.5,5.7-5.1,6l-7.4,0.9
							c-2.6,0.3-5.3-2.1-5.3-4.7v-14.6C198.4,134,201,131.4,203.8,131.1z M210,136.7l-5.3,0.7V150l5.3-0.6V136.7z"/>
						<path fill="#FFFFFF" d="M233.7,142.5c2.2,1.1,3,2.8,3,5.1v1.9c0,1.8-1.4,3.3-3,3.5c-1.7,0.2-3.1-1.1-3.1-2.8v-1.8l-6.1-6.8
							c0,3.9,0,5.4,0,9.4c0,1.7-1.4,3.3-3.1,3.5c-1.7,0.2-3.1-1-3.1-2.8c0-6.4,0-12.8,0-19.2c0-1.8,1.4-3.4,3.1-3.6
							c2.3-0.3,4.6-0.6,6.9-0.9c1.5-0.2,2.7,0.2,3.7,1.1l3,2.6c1.1,1,1.7,2.2,1.7,3.7c0,0.5,0,0.9,0,1.4
							C236.8,139.4,235.7,141.2,233.7,142.5z M224.5,134.9v6.1l6.1-0.7c0-2,0-4.1,0-6.1L224.5,134.9z"/>
						<path fill="#FFFFFF" d="M249.6,126.4l2.7,2.6l2.7-3.3c1.5-1.8,3.6-2.1,5-0.6l3.6,3.4c1.1,1.1,2,1.8,2.2,3.6V146
							c0,4.1-6.3,4.9-6.3,0.8c0-5.4,0-10.8,0-16.2l-4.2,0.5c0,5.4,0,10.8,0,16.2c0,4.2-6.2,5-6.2,0.8c0-5.4,0-10.8,0-16.2l-4.1,0.5
							c0,5.4,0,10.8,0,16.2c0,4.1-6.3,4.9-6.3,0.8v-13.9c0.1-1.8,1.1-2.7,2.2-4.1l3.6-4.3C246.1,125.2,248.2,124.9,249.6,126.4z"/>
					</g>
				</g>
				<g>
					<g>
						<path fill="#FFFFFF" d="M49.2,198.6c-1.4,0.2-2.7,0-3.8-0.4c-1.1-0.4-2.1-1.1-3-2c-0.8-0.9-1.5-1.9-1.9-3.1
							c-0.5-1.2-0.7-2.4-0.7-3.6c0-1.2,0.2-2.4,0.6-3.6c0.4-1.2,1.1-2.4,1.9-3.4c0.8-1,1.8-1.9,3-2.6c1.2-0.7,2.5-1.2,4-1.4
							c1.8-0.2,3.3,0,4.6,0.7c1.3,0.6,2.3,1.6,2.9,2.8l0.1,0.2l-4,3.2l-0.2-0.4c-0.2-0.4-0.4-0.8-0.7-1.1c-0.3-0.3-0.6-0.5-0.9-0.6
							c-0.3-0.1-0.7-0.2-1-0.3c-1.2-0.1-2.2,0.2-2.9,0.7c-0.5,0.4-1,0.8-1.3,1.4c-0.4,0.5-0.6,1.2-0.8,1.8c-0.2,0.7-0.3,1.4-0.3,2
							c0,0.7,0.1,1.4,0.3,2c0.2,0.6,0.5,1.2,0.9,1.7c0.4,0.5,0.8,0.8,1.4,1c0.8,0.3,1.7,0.4,2.8,0c0.4-0.1,0.7-0.3,1-0.5
							c0.3-0.2,0.6-0.5,0.9-0.8c0.3-0.3,0.5-0.7,0.6-1.2l0.1-0.4l4.2,2l-0.1,0.3c-0.3,0.8-0.7,1.5-1.3,2.2c-0.6,0.6-1.2,1.2-2,1.7
							c-0.7,0.5-1.5,0.9-2.3,1.2C50.8,198.3,50,198.5,49.2,198.6z M49.4,179.1c-1.4,0.2-2.7,0.6-3.8,1.3c-1.1,0.7-2,1.5-2.8,2.4
							c-0.8,1-1.3,2-1.7,3.2c-0.4,1.1-0.6,2.3-0.6,3.4c0,1.2,0.2,2.3,0.7,3.4c0.4,1.1,1,2.1,1.8,2.9c0.8,0.8,1.7,1.4,2.8,1.8
							c1.1,0.4,2.2,0.6,3.5,0.4c0.7-0.1,1.5-0.3,2.2-0.5c0.8-0.3,1.5-0.6,2.2-1.1c0.7-0.4,1.3-1,1.8-1.6c0.4-0.5,0.8-1.1,1.1-1.7
							l-3.1-1.4c-0.2,0.4-0.4,0.7-0.6,1c-0.3,0.4-0.7,0.7-1.1,1c-0.4,0.3-0.8,0.5-1.2,0.6c-1.2,0.5-2.3,0.4-3.3,0
							c-0.6-0.3-1.1-0.7-1.6-1.2c-0.4-0.5-0.8-1.1-1-1.8c-0.2-0.7-0.4-1.5-0.4-2.2c0-0.7,0.1-1.5,0.3-2.2c0.2-0.7,0.5-1.4,0.9-2
							c0.4-0.6,0.9-1.2,1.5-1.6c0.9-0.6,2-1,3.4-0.8c0.4,0,0.8,0.1,1.2,0.3c0.4,0.2,0.7,0.4,1.1,0.7c0.3,0.2,0.5,0.5,0.7,0.9
							l2.8-2.3c-0.6-1-1.4-1.8-2.6-2.3C52.5,179.1,51,178.9,49.4,179.1z"/>
						<path fill="#FFFFFF" d="M72.4,195.9c-1.4,0.2-2.7,0-3.9-0.4c-1.1-0.4-2.1-1.1-3-1.9c-0.8-0.8-1.5-1.8-1.9-3
							c-0.5-1.1-0.7-2.4-0.7-3.7c0-1.3,0.2-2.6,0.7-3.9c0.5-1.3,1.1-2.4,2-3.4c0.8-1,1.9-1.9,3-2.6c1.2-0.7,2.4-1.1,3.8-1.3
							c1.4-0.2,2.7,0,3.9,0.4c1.1,0.4,2.1,1.1,3,1.9c0.8,0.8,1.5,1.9,1.9,3c0.4,1.2,0.7,2.4,0.7,3.6c0,1.3-0.2,2.6-0.7,3.9
							c-0.5,1.3-1.1,2.4-2,3.4c-0.8,1-1.8,1.9-3,2.6C75,195.3,73.7,195.7,72.4,195.9z M72.4,176.4c-1.3,0.2-2.5,0.6-3.5,1.2
							c-1.1,0.6-2,1.5-2.8,2.4c-0.8,1-1.4,2-1.9,3.2c-0.4,1.2-0.7,2.4-0.7,3.6c0,1.2,0.2,2.4,0.6,3.4c0.4,1.1,1,2,1.8,2.8
							c0.8,0.8,1.7,1.4,2.8,1.8c1.1,0.4,2.3,0.5,3.6,0.4c1.3-0.2,2.5-0.6,3.5-1.2c1.1-0.6,2-1.5,2.8-2.4c0.8-1,1.4-2,1.8-3.2
							c0.4-1.2,0.7-2.4,0.7-3.6c0-1.2-0.2-2.3-0.6-3.4c-0.4-1.1-1-2-1.8-2.8c-0.8-0.8-1.7-1.4-2.8-1.8
							C75,176.3,73.8,176.2,72.4,176.4z M72.4,191.9c-0.8,0.1-1.5,0-2.2-0.3c-0.6-0.3-1.2-0.7-1.6-1.2c-0.4-0.5-0.7-1.1-0.9-1.8
							c-0.2-0.7-0.3-1.4-0.3-2.2c0-0.7,0.1-1.5,0.3-2.3c0.2-0.8,0.5-1.4,0.9-2.1c0.4-0.6,0.9-1.2,1.5-1.6c0.6-0.4,1.4-0.7,2.2-0.8
							c0.8-0.1,1.5,0,2.1,0.3c0.6,0.3,1.1,0.7,1.6,1.2c0.4,0.5,0.7,1.1,1,1.8c0.2,0.7,0.3,1.4,0.3,2.2c0,0.7-0.1,1.5-0.3,2.2
							c-0.2,0.8-0.5,1.5-0.9,2.1c-0.4,0.6-0.9,1.2-1.5,1.6C74,191.5,73.2,191.8,72.4,191.9z M72.4,180.3c-0.7,0.1-1.3,0.3-1.9,0.7
							c-0.5,0.4-1,0.8-1.3,1.4c-0.4,0.6-0.6,1.2-0.8,1.9c-0.2,0.7-0.3,1.4-0.3,2.1c0,0.7,0.1,1.4,0.3,2c0.2,0.6,0.5,1.2,0.8,1.7
							c0.4,0.5,0.8,0.8,1.3,1c0.5,0.2,1.2,0.3,1.9,0.2c0.7-0.1,1.3-0.3,1.9-0.7c0.5-0.4,1-0.9,1.3-1.4c0.4-0.6,0.6-1.2,0.8-1.9
							c0.2-0.7,0.3-1.4,0.3-2.1c0-0.7-0.1-1.4-0.3-2c-0.2-0.6-0.5-1.2-0.9-1.6c-0.4-0.4-0.8-0.8-1.4-1
							C73.7,180.3,73.1,180.2,72.4,180.3z"/>
						<path fill="#FFFFFF" d="M106.6,191.7l-4,0.5l-8.3-9.4v10.4l-5.1,0.6v-19.9l3.9-0.5l8.4,9.7v-10.7l5.1-0.6V191.7z M102.9,191.4
							l3.1-0.4v-18.6l-3.8,0.5v11.9L92.8,174l-3,0.4V193l3.8-0.4v-11.6L102.9,191.4z"/>
						<path fill="#FFFFFF" d="M120.1,190.1l-5.1,0.6v-20l13.6-1.6v4.6l-8.6,1v3.5l7.1-0.8v4.3l-7.1,0.8V190.1z M115.7,189.9l3.8-0.4
							v-7.6l7.1-0.8v-3l-7.1,0.8v-4.8l8.6-1v-3.3l-12.3,1.5V189.9z"/>
						<path fill="#FFFFFF" d="M149.8,186.6l-14.1,1.7v-20l13.9-1.7v4.6l-8.8,1.1v3.1l7.5-0.9v4.3l-7.5,0.9v3.5l9-1.1V186.6z
							 M136.3,187.5l12.8-1.5v-3.3l-9,1.1V179l7.5-0.9v-3l-7.5,0.9v-4.4l8.8-1.1v-3.3l-12.6,1.5V187.5z"/>
						<path fill="#FFFFFF" d="M174.3,183.7l-5.8,0.7l-3.9-5.8l-2.4,0.3v6.3l-5.1,0.6v-20.1l9-1.1c0.9-0.1,1.8,0,2.6,0.3
							c0.8,0.3,1.5,0.8,2.1,1.3c0.6,0.6,1,1.3,1.4,2c0.3,0.8,0.5,1.6,0.5,2.4c0,0.6-0.1,1.3-0.2,1.9c-0.1,0.6-0.4,1.2-0.7,1.7
							c-0.3,0.6-0.6,1.1-1,1.5c-0.3,0.4-0.7,0.7-1.1,1L174.3,183.7z M168.9,183.6l4.2-0.5l-4.3-6.5l0.3-0.2c0.5-0.3,0.9-0.7,1.2-1.1
							c0.4-0.4,0.7-0.9,0.9-1.4c0.3-0.5,0.5-1,0.6-1.6c0.1-0.5,0.2-1.1,0.2-1.7c0-0.8-0.2-1.5-0.4-2.2c-0.3-0.7-0.7-1.3-1.2-1.9
							c-0.5-0.5-1.2-0.9-1.9-1.2c-0.7-0.3-1.5-0.4-2.4-0.3l-8.3,1v18.8l3.8-0.4v-6.3l3.4-0.4L168.9,183.6z M166.1,174.5l-4.4,0.5v-6
							l4.2-0.5c0.6-0.1,1.1,0.1,1.6,0.6c0.5,0.5,0.7,1.2,0.7,2.1c0,0.9-0.2,1.6-0.6,2.2C167.2,174,166.7,174.4,166.1,174.5z
							 M162.3,174.2l3.7-0.4c0.4,0,0.8-0.3,1.1-0.8c0.3-0.5,0.5-1.1,0.5-1.8c0-0.7-0.2-1.3-0.6-1.6c-0.4-0.4-0.8-0.5-1.2-0.5
							l-3.6,0.4V174.2z"/>
						<path fill="#FFFFFF" d="M195.1,181.2l-14.1,1.7v-20.1l13.9-1.7v4.6l-8.8,1.1v3.1l7.5-0.9v4.3l-7.5,0.9v3.5l9-1.1V181.2z
							 M181.6,182.1l12.8-1.5v-3.3l-9,1.1v-4.8l7.5-0.9v-3l-7.5,0.9v-4.5l8.8-1.1v-3.3l-12.6,1.5V182.1z"/>
						<path fill="#FFFFFF" d="M220,178.3l-4,0.5l-8.3-9.6v10.6l-5.1,0.6v-20.2l3.9-0.5l8.4,9.9v-10.9l5.1-0.6V178.3z M216.3,178.1
							l3.1-0.4v-18.9l-3.8,0.5v12.1l-9.4-11l-3,0.4v18.9l3.8-0.4v-11.8L216.3,178.1z"/>
						<path fill="#FFFFFF" d="M236.7,176.5c-1.4,0.2-2.7,0-3.8-0.5c-1.1-0.5-2.1-1.1-3-2c-0.8-0.9-1.5-1.9-1.9-3.1
							c-0.5-1.2-0.7-2.4-0.7-3.7c0-1.2,0.2-2.5,0.6-3.7c0.4-1.3,1.1-2.4,1.9-3.5c0.8-1,1.8-1.9,3-2.7c1.2-0.7,2.5-1.2,4-1.4
							c1.8-0.2,3.3,0,4.6,0.7c1.3,0.7,2.3,1.6,2.9,2.9l0.1,0.2l-4,3.3l-0.2-0.4c-0.2-0.5-0.4-0.8-0.7-1.1c-0.3-0.3-0.6-0.5-0.9-0.7
							c-0.3-0.2-0.7-0.2-1-0.3c-1.2-0.1-2.2,0.2-2.9,0.7c-0.5,0.4-1,0.9-1.3,1.4c-0.4,0.6-0.6,1.2-0.8,1.9c-0.2,0.7-0.3,1.4-0.3,2.1
							c0,0.7,0.1,1.4,0.3,2.1c0.2,0.7,0.5,1.2,0.9,1.7c0.4,0.5,0.8,0.8,1.4,1.1c0.8,0.4,1.7,0.4,2.8,0c0.4-0.1,0.7-0.3,1-0.6
							c0.3-0.2,0.6-0.5,0.9-0.9c0.3-0.3,0.5-0.8,0.6-1.2l0.1-0.4l4.2,2l-0.1,0.3c-0.3,0.8-0.7,1.5-1.3,2.2c-0.6,0.7-1.2,1.2-2,1.7
							c-0.7,0.5-1.5,0.9-2.3,1.2C238.3,176.2,237.5,176.4,236.7,176.5z M236.9,156.6c-1.4,0.2-2.7,0.6-3.8,1.3
							c-1.1,0.7-2,1.5-2.8,2.5c-0.8,1-1.3,2.1-1.7,3.2c-0.4,1.2-0.6,2.3-0.6,3.5c0,1.2,0.2,2.4,0.7,3.5c0.4,1.1,1,2.1,1.8,2.9
							c0.8,0.8,1.7,1.5,2.8,1.9c1.1,0.4,2.2,0.6,3.5,0.4c0.7-0.1,1.5-0.3,2.2-0.6c0.8-0.3,1.5-0.7,2.1-1.1c0.7-0.4,1.3-1,1.8-1.6
							c0.4-0.5,0.8-1.1,1.1-1.7l-3.1-1.5c-0.2,0.4-0.4,0.8-0.6,1.1c-0.3,0.4-0.7,0.7-1.1,1c-0.4,0.3-0.8,0.5-1.2,0.6
							c-1.2,0.5-2.3,0.4-3.3,0c-0.6-0.3-1.1-0.7-1.6-1.2c-0.4-0.5-0.8-1.2-1-1.9c-0.2-0.7-0.4-1.5-0.4-2.3c0-0.7,0.1-1.5,0.3-2.2
							c0.2-0.8,0.5-1.5,0.9-2.1c0.4-0.6,0.9-1.2,1.5-1.6c0.9-0.6,2-1,3.4-0.8c0.4,0,0.8,0.2,1.2,0.3c0.4,0.2,0.7,0.4,1.1,0.8
							c0.3,0.3,0.5,0.6,0.7,0.9l2.8-2.4c-0.6-1-1.4-1.8-2.6-2.4C240,156.6,238.5,156.4,236.9,156.6z"/>
						<path fill="#FFFFFF" d="M265.8,172.9l-14.1,1.7v-20.3l13.9-1.7v4.7l-8.8,1.1v3.2l7.5-0.9v4.4l-7.5,0.9v3.5l9-1.1V172.9z
							 M252.4,173.8l12.8-1.5V169l-9,1.1v-4.8l7.5-0.9v-3l-7.5,0.9v-4.5l8.8-1.1v-3.3l-12.6,1.5V173.8z"/>
					</g>
					<g opacity="0.5">
						<path fill="#FFFFFF" d="M49.4,197.6c-1.2,0.1-2.3,0-3.4-0.4c-1-0.4-1.9-1-2.7-1.8c-0.7-0.8-1.3-1.7-1.8-2.8
							c-0.4-1.1-0.6-2.2-0.6-3.3c0-1.1,0.2-2.2,0.6-3.3c0.4-1.1,0.9-2.1,1.7-3.1c0.7-0.9,1.6-1.7,2.7-2.4c1-0.6,2.3-1,3.6-1.2
							c1.6-0.2,3,0,4.1,0.6c0.9,0.4,1.6,1,2.1,1.7L56,182l-2.3,1.9l-0.2-0.2c-0.1-0.1-0.2-0.3-0.4-0.4c-0.3-0.3-0.7-0.6-1.2-0.8
							c-0.4-0.2-0.9-0.3-1.3-0.3c-1.4-0.1-2.6,0.2-3.6,0.9c-0.7,0.5-1.2,1-1.6,1.7c-0.4,0.6-0.7,1.4-0.9,2.1
							c-0.2,0.8-0.3,1.5-0.3,2.3c0,0.8,0.1,1.6,0.4,2.3c0.2,0.7,0.6,1.4,1,1.9c0.5,0.6,1,1,1.7,1.3c1,0.4,2.2,0.5,3.5,0
							c0.4-0.2,0.9-0.4,1.3-0.7c0.4-0.3,0.8-0.7,1.1-1.1c0.1-0.2,0.2-0.3,0.3-0.5l0.2-0.3l2.5,1.2l-0.2,0.3c-0.2,0.3-0.4,0.7-0.7,1
							c-0.5,0.6-1.1,1.1-1.7,1.5c-0.7,0.4-1.3,0.8-2.1,1.1C50.8,197.3,50.1,197.5,49.4,197.6z M49.6,180.1c-1.2,0.2-2.4,0.5-3.3,1.1
							c-1,0.6-1.8,1.3-2.5,2.2c-0.7,0.9-1.2,1.8-1.6,2.8c-0.4,1-0.5,2.1-0.5,3.1c0,1.1,0.2,2.1,0.6,3.1c0.4,1,0.9,1.9,1.6,2.6
							c0.7,0.7,1.5,1.3,2.5,1.6c1.4,0.6,3.2,0.5,5-0.1c0.7-0.3,1.3-0.6,1.9-1c0.6-0.4,1.1-0.8,1.6-1.4c0.2-0.2,0.3-0.4,0.4-0.5
							l-1.4-0.6c-0.1,0.1-0.1,0.2-0.2,0.3c-0.4,0.5-0.8,0.9-1.3,1.2c-0.5,0.3-0.9,0.6-1.4,0.8c-1.4,0.5-2.8,0.5-4,0
							c-0.7-0.3-1.4-0.8-1.9-1.4c-0.5-0.6-0.9-1.3-1.1-2.1c-0.3-0.8-0.4-1.6-0.4-2.5c0-0.8,0.1-1.6,0.3-2.5c0.2-0.9,0.6-1.6,1-2.4
							c0.5-0.7,1.1-1.4,1.8-1.9c1.1-0.8,2.5-1.2,4.1-1c0.5,0,1,0.2,1.5,0.4c0.5,0.2,0.9,0.5,1.3,0.9c0.1,0.1,0.1,0.1,0.2,0.2l1.2-1
							c-0.5-0.5-1-1-1.7-1.3C52.3,180.1,51,179.9,49.6,180.1z"/>
						<path fill="#FFFFFF" d="M72.5,194.9c-1.3,0.1-2.4,0-3.4-0.4c-1-0.4-1.9-1-2.7-1.7c-0.7-0.8-1.3-1.7-1.7-2.7
							c-0.4-1-0.6-2.2-0.6-3.3c0-1.2,0.2-2.3,0.6-3.5c0.4-1.1,1-2.2,1.8-3.1c0.8-0.9,1.7-1.7,2.7-2.3c1-0.6,2.2-1,3.4-1.1
							c1.3-0.2,2.4,0,3.4,0.4c1,0.4,1.9,1,2.7,1.7c0.7,0.8,1.3,1.7,1.7,2.7c0.4,1,0.6,2.2,0.6,3.3c0,1.2-0.2,2.4-0.6,3.5
							c-0.4,1.1-1,2.2-1.8,3.1c-0.7,0.9-1.7,1.7-2.7,2.3C74.9,194.3,73.8,194.7,72.5,194.9z M72.6,177.3c-1.1,0.1-2.2,0.5-3.1,1
							c-1,0.6-1.8,1.3-2.5,2.1c-0.7,0.9-1.3,1.8-1.7,2.9c-0.4,1.1-0.6,2.2-0.6,3.2c0,1.1,0.2,2.1,0.6,3.1c0.4,1,0.9,1.8,1.6,2.5
							c0.7,0.7,1.5,1.2,2.5,1.6c0.9,0.4,2,0.5,3.1,0.3c1.1-0.1,2.2-0.5,3.1-1.1c1-0.6,1.8-1.3,2.5-2.2c0.7-0.9,1.3-1.8,1.7-2.9
							c0.4-1.1,0.6-2.2,0.6-3.3c0-1-0.2-2.1-0.6-3.1c-0.4-1-0.9-1.8-1.6-2.5c-0.7-0.7-1.5-1.2-2.5-1.6
							C74.8,177.3,73.8,177.2,72.6,177.3z M72.6,192.9c-1,0.1-1.9,0-2.6-0.3c-0.8-0.3-1.4-0.8-1.9-1.5c-0.5-0.6-0.8-1.3-1.1-2.1
							c-0.2-0.8-0.4-1.6-0.4-2.5c0-0.8,0.1-1.7,0.3-2.5c0.2-0.9,0.6-1.7,1.1-2.4c0.5-0.7,1.1-1.4,1.8-1.9c0.8-0.5,1.7-0.9,2.7-1
							c1-0.1,1.8,0,2.6,0.3c0.7,0.3,1.4,0.8,1.9,1.4c0.5,0.6,0.9,1.3,1.1,2.1c0.2,0.8,0.4,1.6,0.4,2.5c0,0.8-0.1,1.7-0.3,2.5
							c-0.2,0.9-0.6,1.7-1.1,2.4c-0.5,0.8-1.1,1.4-1.8,1.9C74.5,192.4,73.6,192.8,72.6,192.9z M72.6,179.3c-0.9,0.1-1.7,0.4-2.3,0.9
							c-0.7,0.5-1.2,1-1.6,1.7c-0.4,0.7-0.8,1.4-1,2.2c-0.2,0.8-0.3,1.6-0.3,2.3c0,0.8,0.1,1.6,0.3,2.3c0.2,0.7,0.6,1.4,1,1.9
							c0.4,0.6,1,1,1.7,1.3c0.7,0.3,1.5,0.4,2.3,0.3c0.9-0.1,1.7-0.4,2.4-0.9c0.7-0.5,1.2-1,1.6-1.7c0.4-0.7,0.8-1.4,1-2.2
							c0.2-0.8,0.3-1.6,0.3-2.3c0-0.8-0.1-1.6-0.3-2.3c-0.2-0.7-0.6-1.4-1-1.9c-0.5-0.6-1-1-1.7-1.3
							C74.2,179.3,73.4,179.2,72.6,179.3z"/>
						<path fill="#FFFFFF" d="M105.8,190.8l-2.6,0.3L93.5,180v12.2l-3.1,0.4v-18l2.5-0.3l9.9,11.4v-12.6l3.1-0.4V190.8z
							 M103.5,190.4l1.6-0.2v-16.7l-1.8,0.2v13.8L92.5,175l-1.5,0.2v16.6l1.8-0.2v-13.4L103.5,190.4z"/>
						<path fill="#FFFFFF" d="M119.3,189.2l-3.1,0.4v-18l11.7-1.4v2.6l-8.6,1v5.5l7.1-0.8v2.3l-7.1,0.8V189.2z M116.8,188.8l1.8-0.2
							V181l7.1-0.8v-1l-7.1,0.8v-6.8l8.6-1v-1.3l-10.4,1.2V188.8z"/>
						<path fill="#FFFFFF" d="M149,185.7l-12.2,1.4v-18.1l11.9-1.4v2.6l-8.8,1.1v5.1l7.5-0.9v2.3l-7.5,0.9v5.4l9-1.1V185.7z
							 M137.5,186.4l10.9-1.3v-1.3l-9,1.1v-6.8l7.5-0.9v-1l-7.5,0.9v-6.4l8.8-1.1v-1.3l-10.6,1.3V186.4z"/>
						<path fill="#FFFFFF" d="M172.7,182.9l-3.5,0.4l-3.9-5.8l-3.9,0.5v6.3l-3.1,0.4v-18.1l8-1c0.8-0.1,1.5,0,2.2,0.2
							c0.7,0.3,1.3,0.6,1.8,1.1c0.5,0.5,0.9,1.1,1.2,1.8c0.3,0.7,0.4,1.4,0.4,2.1c0,0.5-0.1,1.1-0.2,1.6c-0.1,0.5-0.3,1-0.6,1.5
							c-0.2,0.5-0.5,0.9-0.9,1.3c-0.3,0.4-0.7,0.7-1.2,1l-0.6,0.4L172.7,182.9z M169.6,182.6l1.9-0.2l-3.9-5.9l1.2-0.8
							c0.4-0.3,0.7-0.6,1-0.9c0.3-0.3,0.6-0.7,0.8-1.1c0.2-0.4,0.4-0.9,0.5-1.3c0.1-0.5,0.2-0.9,0.2-1.4c0-0.6-0.1-1.2-0.4-1.8
							c-0.3-0.6-0.6-1.1-1.1-1.6c-0.4-0.4-1-0.8-1.6-1c-0.6-0.2-1.2-0.3-1.9-0.2l-7.3,0.9v16.8l1.8-0.2v-6.3l4.9-0.6L169.6,182.6z
							 M166.2,175.4l-5.3,0.6v-8l5.2-0.6c0.9-0.1,1.7,0.2,2.4,0.9c0.7,0.6,1,1.6,1,2.7c0,1.1-0.3,2-0.8,2.8
							C167.8,175,166.9,175.4,166.2,175.4z M161.5,175.3l4.7-0.6c0.5-0.1,1.2-0.3,1.9-1.2c0.5-0.7,0.7-1.5,0.7-2.4
							c0-1-0.3-1.7-0.8-2.3c-0.6-0.5-1.2-0.8-1.9-0.7l-4.6,0.5V175.3z"/>
						<path fill="#FFFFFF" d="M194.3,180.3l-12.2,1.4v-18.2l11.9-1.4v2.6l-8.8,1.1v5.1l7.5-0.9v2.3l-7.5,0.9v5.5l9-1.1V180.3z
							 M182.8,181l10.9-1.3v-1.3l-9,1.1v-6.8l7.5-0.9v-1l-7.5,0.9v-6.4l8.8-1.1v-1.3l-10.6,1.3V181z"/>
						<path fill="#FFFFFF" d="M219.2,177.4l-2.6,0.3l-9.8-11.2v12.4l-3.1,0.4V161l2.5-0.3l9.9,11.5v-12.7l3.1-0.4V177.4z M216.9,177
							l1.6-0.2v-16.9l-1.8,0.2v14l-10.9-12.7l-1.5,0.2v16.9l1.8-0.2v-13.6L216.9,177z"/>
						<path fill="#FFFFFF" d="M236.9,175.5c-1.2,0.1-2.3,0-3.4-0.4c-1-0.4-1.9-1-2.7-1.8c-0.7-0.8-1.3-1.8-1.8-2.9
							c-0.4-1.1-0.6-2.2-0.6-3.4c0-1.1,0.2-2.2,0.6-3.4c0.4-1.1,1-2.2,1.7-3.1c0.7-0.9,1.6-1.7,2.7-2.4c1-0.6,2.3-1.1,3.6-1.2
							c1.6-0.2,3,0,4.1,0.6c0.9,0.5,1.6,1,2.1,1.8l0.2,0.3l-2.3,1.9l-0.2-0.3c-0.1-0.2-0.2-0.3-0.4-0.4c-0.3-0.3-0.7-0.6-1.2-0.8
							c-0.4-0.2-0.9-0.3-1.3-0.4c-1.4-0.1-2.6,0.2-3.6,0.9c-0.7,0.5-1.2,1.1-1.6,1.7c-0.4,0.7-0.7,1.4-0.9,2.2
							c-0.2,0.8-0.3,1.6-0.3,2.3c0,0.8,0.1,1.6,0.4,2.4c0.2,0.8,0.6,1.4,1,2c0.5,0.6,1,1,1.7,1.3c1,0.4,2.2,0.5,3.5,0
							c0.4-0.2,0.9-0.4,1.3-0.7c0.4-0.3,0.8-0.7,1.1-1.1c0.1-0.2,0.2-0.3,0.3-0.5l0.2-0.3l2.5,1.2l-0.2,0.3c-0.2,0.3-0.4,0.7-0.7,1
							c-0.5,0.6-1.1,1.1-1.7,1.5c-0.7,0.4-1.3,0.8-2.1,1.1C238.3,175.2,237.6,175.4,236.9,175.5z M237.1,157.6
							c-1.2,0.2-2.4,0.5-3.3,1.1c-1,0.6-1.8,1.4-2.5,2.2c-0.7,0.9-1.2,1.8-1.6,2.9c-0.4,1.1-0.5,2.1-0.5,3.1c0,1.1,0.2,2.1,0.6,3.2
							c0.4,1,0.9,1.9,1.6,2.7c0.7,0.7,1.5,1.3,2.5,1.7c1.4,0.6,3.2,0.6,5-0.1c0.7-0.3,1.3-0.6,1.9-1c0.6-0.4,1.1-0.9,1.6-1.4
							c0.2-0.2,0.3-0.4,0.4-0.6l-1.4-0.7c-0.1,0.1-0.1,0.2-0.2,0.3c-0.4,0.5-0.8,0.9-1.3,1.3c-0.5,0.3-0.9,0.6-1.4,0.8
							c-1.4,0.6-2.8,0.5-4,0c-0.7-0.3-1.4-0.8-1.9-1.5c-0.5-0.6-0.9-1.3-1.1-2.2c-0.3-0.8-0.4-1.7-0.4-2.6c0-0.8,0.1-1.7,0.3-2.5
							c0.2-0.9,0.6-1.7,1-2.4c0.5-0.8,1.1-1.4,1.8-2c1.1-0.8,2.5-1.2,4.1-1c0.5,0,1,0.2,1.5,0.4c0.5,0.2,0.9,0.5,1.3,0.9
							c0.1,0.1,0.1,0.2,0.2,0.2l1.2-1c-0.5-0.6-1-1-1.7-1.4C239.8,157.6,238.5,157.4,237.1,157.6z"/>
						<path fill="#FFFFFF" d="M265,172l-12.2,1.4v-18.3l11.9-1.4v2.7l-8.8,1.1v5.2l7.5-0.9v2.3l-7.5,0.9v5.5l9-1.1V172z
							 M253.5,172.7l10.9-1.3v-1.3l-9,1.1v-6.9l7.5-0.9v-1l-7.5,0.9v-6.5l8.8-1.1v-1.3l-10.6,1.3V172.7z"/>
					</g>
				</g>
			</g>
		</g>
	</g>
</g>
<rect x="-33.7" y="-20.8" fill="none" width="678.8" height="303.8"/>
</svg>
