<svg id="Calque_1" data-name="Calque 1" xmlns="http://www.w3.org/2000/svg" viewBox="0 0 368.5 322.58"><defs><style>.cls-1{fill:#85ccd3;}.cls-2{fill:#1b939e;}.cls-10,.cls-3,.cls-4,.cls-5{fill:#1d1d1b;}.cls-3,.cls-4,.cls-5,.cls-7,.cls-8,.cls-9{stroke:#1d1d1b;stroke-miterlimit:10;}.cls-3{stroke-width:1.75px;}.cls-4{stroke-width:1.59px;}.cls-5{stroke-width:1.3px;}.cls-6,.cls-9{fill:#fff;}.cls-7{fill:none;stroke-width:3.33px;}.cls-8{fill:#3caab5;stroke-width:2.46px;}.cls-9{stroke-width:2.22px;}</style></defs><title>API Platform</title><circle class="cls-1" cx="184.64" cy="165.47" r="136.74"/><ellipse class="cls-2" cx="220.41" cy="147.9" rx="15.54" ry="4.18"/><ellipse class="cls-2" cx="245.99" cy="169.73" rx="15.54" ry="4.18"/><ellipse class="cls-2" cx="275.52" cy="158.58" rx="15.54" ry="4.18"/><ellipse class="cls-2" cx="253.5" cy="146.89" rx="15.54" ry="4.18"/><path class="cls-3" d="M241.27,160.44c2.62,0,5.83,3.21,5.83,7s-2.93,3.78-7.31,3.78-9.31,0-9.31-3.78C234.57,164.82,237.19,160.44,241.27,160.44Z"/><path class="cls-4" d="M248.14,138.71c2.35,0,5.22,3,5.22,6.47s-2.62,3.49-6.54,3.49-8.33,0-8.33-3.49C242.14,142.75,244.49,138.71,248.14,138.71Z"/><path class="cls-3" d="M271.18,149.79c2.62,0,5.83,3.21,5.83,7s-2.93,3.78-7.31,3.78-9.31,0-9.31-3.78C264.47,154.16,267.1,149.79,271.18,149.79Z"/><path class="cls-5" d="M213.93,140.88c1.95,0,4.32,2.38,4.32,5.19s-2.17,2.8-5.42,2.8S206,150,206,147.17C209,145.22,210.91,140.88,213.93,140.88Z"/><ellipse class="cls-2" cx="152.28" cy="147.05" rx="15.54" ry="4.18"/><path class="cls-5" d="M158.76,140c-1.95,0-4.32,2.38-4.32,5.19s2.17,2.8,5.42,2.8,6.88,1.11,6.88-1.69C163.7,144.37,161.78,140,158.76,140Z"/><path class="cls-6" d="M172.06,180.55l5.52,4.51c1.6,1.35,2.49,2.44,2.61,4.51v16a3.6,3.6,0,0,1-3.63,3.63,3.64,3.64,0,0,1-3.71-3.63V202l-7.34-6.79v10.37a3.63,3.63,0,0,1-3.67,3.63,3.67,3.67,0,0,1-3.71-3.63v-16c.17-2.07,1.14-3.16,2.7-4.51l5.4-4.51C168.39,178.87,169.95,178.78,172.06,180.55Zm.8,14.08V187h-7.34v7.67Z"/><path class="cls-6" d="M191.17,201.76v3.54a3.62,3.62,0,0,1-3.58,3.75,3.75,3.75,0,0,1-3.71-3.75V185.7a6.28,6.28,0,0,1,6.24-6.24h5.61a6.16,6.16,0,0,1,4.34,1.73l4,4c2.66,2.53,2.19,8.77-.38,11.26l-3.67,3.5a5.85,5.85,0,0,1-4.34,1.77Zm7.08-7.38v-7.55l-7-.08v7.63Z"/><path class="cls-6" d="M98.93,240.59v3.54a3.62,3.62,0,0,1-3.58,3.75,3.75,3.75,0,0,1-3.71-3.75v-19.6a6.28,6.28,0,0,1,6.24-6.24h5.61a6.16,6.16,0,0,1,4.34,1.73l4,4c2.66,2.53,2.19,8.77-.38,11.26l-3.67,3.5a5.85,5.85,0,0,1-4.34,1.77Zm7.08-7.38v-7.55l-7-.08v7.63Z"/><path class="cls-6" d="M116,241.48V221.79a3.73,3.73,0,0,1,3.71-3.63,3.68,3.68,0,0,1,3.75,3.63v18.72c3.71,0,2.66-.08,6.32-.08,4.85,0,4.85,7.42,0,7.42h-7.38A6.42,6.42,0,0,1,116,241.48Z"/><path class="cls-6" d="M149.37,219.39l5.52,4.51c1.6,1.35,2.49,2.44,2.61,4.51v16a3.6,3.6,0,0,1-3.63,3.63,3.64,3.64,0,0,1-3.71-3.63V240.8L142.84,234v10.37a3.69,3.69,0,0,1-7.38,0v-16c.17-2.07,1.14-3.16,2.7-4.51l5.4-4.51C145.7,217.7,147.27,217.62,149.37,219.39Zm.8,14.08V225.8h-7.34v7.67Z"/><path class="cls-6" d="M175.16,218.33c4.76,0,4.76,7.34,0,7.34H172v18.68c0,5-7.38,5-7.38,0V225.67h-3.16c-4.81,0-4.81-7.34,0-7.34Z"/><path class="cls-6" d="M188.31,225.71v4.89h6.62a3.7,3.7,0,0,1,3.67,3.67,3.78,3.78,0,0,1-3.75,3.71h-6.53v6.45c0,4.81-7.38,4.81-7.38,0V224.57a6.22,6.22,0,0,1,6.2-6.24h9.4a3.67,3.67,0,0,1,3.71,3.63,3.81,3.81,0,0,1-3.71,3.75Z"/><path class="cls-6" d="M208.66,218.38h8.43a6.28,6.28,0,0,1,6.24,6.24v16.95c0,3-2.91,6.24-6,6.24h-8.81a6.78,6.78,0,0,1-6.24-6.24V224.62A6.29,6.29,0,0,1,208.66,218.38Zm7.29,7.38h-6.32v14.75H216Z"/><path class="cls-6" d="M244.19,235.83a6.72,6.72,0,0,1,3.54,6.28v2.15a3.6,3.6,0,1,1-7.21,0v-2.07l-7.21-8.77v10.84a3.63,3.63,0,0,1-3.63,3.67,3.68,3.68,0,0,1-3.71-3.67V222a3.69,3.69,0,0,1,3.71-3.71h8.22a6.25,6.25,0,0,1,4.43,1.81l3.58,3.46a6.22,6.22,0,0,1,2,4.55v1.64A6.27,6.27,0,0,1,244.19,235.83Zm-10.88-10.12v7.08h7.21v-7.08Z"/><path class="cls-6" d="M263.24,219.47l3.2,3.42,3.2-3.42a3.87,3.87,0,0,1,5.94,0l4.3,4.47c1.31,1.48,2.4,2.4,2.61,4.47v16.06c0,4.76-7.42,4.76-7.42,0V225.8h-4.93v18.68c0,4.89-7.38,4.89-7.38,0V225.8h-4.85v18.68c0,4.76-7.42,4.76-7.42,0V228.41c.08-2.07,1.26-3,2.61-4.47l4.3-4.47A3.74,3.74,0,0,1,263.24,219.47Z"/><path class="cls-6" d="M208.53,192.13c0-4.81,7.38-4.81,7.38,0v13.64c0,4.81-7.38,4.76-7.38,0Z"/><polygon class="cls-6" points="215.78 187.14 215.78 179.6 208.78 179.51 208.78 187.14 215.78 187.14"/><polyline class="cls-7" points="205.34 102.54 238.77 83.91 239.37 144.7 245.57 145.86"/><polyline class="cls-7" points="205.34 102.54 253.05 95.51 261.49 158.88"/><polyline class="cls-7" points="203.86 111.42 217.73 114.74 207.56 145.07 213.38 144.83"/><polyline class="cls-7" points="205.34 102.54 232.71 109.75 231.45 167.87 237.23 168.64"/><ellipse class="cls-2" cx="126.89" cy="169.73" rx="15.54" ry="4.18"/><ellipse class="cls-2" cx="97.36" cy="158.58" rx="15.54" ry="4.18"/><ellipse class="cls-2" cx="119.25" cy="146.08" rx="15.54" ry="4.18"/><path class="cls-3" d="M131.61,160.44c-2.62,0-5.83,3.21-5.83,7s2.93,3.78,7.31,3.78,9.31,0,9.31-3.78C138.31,164.82,135.69,160.44,131.61,160.44Z"/><path class="cls-3" d="M123.2,137.49c-2.62,0-5.83,3.21-5.83,7s2.93,3.78,7.31,3.78,9.31,0,9.31-3.78C129.91,141.87,127.28,137.49,123.2,137.49Z"/><path class="cls-3" d="M101.7,149.79c-2.62,0-5.83,3.21-5.83,7s2.93,3.78,7.31,3.78,9.31,0,9.31-3.78C108.41,154.16,105.78,149.79,101.7,149.79Z"/><polyline class="cls-7" points="167.54 102.54 134.11 83.91 133.51 144.7 127.31 145.86"/><polyline class="cls-7" points="167.54 102.54 119.83 95.51 111.39 158.88"/><polyline class="cls-7" points="169.02 111.42 155.15 114.74 165.32 145.07 160.14 147.29"/><polyline class="cls-7" points="167.54 102.54 140.17 109.75 141.43 167.87 135.65 168.64"/><path class="cls-8" d="M205.64,79.36s13.22.78,13.22,13.63-9.63,23.63-27.76,25.94c-17.48,2.24-34-6.33-34-26.94s19.09-17.18,19.09-17.18"/><ellipse class="cls-9" cx="204.65" cy="77.06" rx="15.52" ry="16.02"/><circle class="cls-10" cx="206.15" cy="77.91" r="7.12"/><circle class="cls-6" cx="204.49" cy="76.58" r="1.86"/><ellipse class="cls-9" cx="175.52" cy="73.73" rx="19.58" ry="20.21"/><circle class="cls-10" cx="177.12" cy="74.8" r="8.98"/><circle class="cls-6" cx="181.74" cy="73.11" r="2.35" transform="translate(-3.89 10.54) rotate(-3.29)"/></svg>