<?xml version="1.0" encoding="utf-8"?>
<!-- Generator: Adobe Illustrator 16.0.0, SVG Export Plug-In . SVG Version: 6.00 Build 0)  -->
<!DOCTYPE svg PUBLIC "-//W3C//DTD SVG 1.1//EN" "http://www.w3.org/Graphics/SVG/1.1/DTD/svg11.dtd">
<svg version="1.1" id="Layer_1" xmlns="http://www.w3.org/2000/svg" xmlns:xlink="http://www.w3.org/1999/xlink" x="0px" y="0px"
	 width="142.493px" height="761.581px" viewBox="0 0 142.493 761.581" enable-background="new 0 0 142.493 761.581"
	 xml:space="preserve">
<g>
	<path fill="#6D6E71" d="M82.913,645.188c-0.518,1.811-2.254,2.705-6.858-0.688c-4.585-3.377-3.714-5.414-2.597-6.932
		c1.991-2.701,4.098-4.201,6.641-2.328S83.532,643.023,82.913,645.188z"/>
	<path fill="#6D6E71" d="M63.664,646.748c0.852,1.68,2.726,2.229,6.604-1.975c3.862-4.186,2.621-6.02,1.236-7.297
		c-2.467-2.277-4.818-3.352-6.96-1.031C62.402,638.768,62.645,644.738,63.664,646.748z"/>

		<line fill="none" stroke="#6D6E71" stroke-width="2" stroke-linecap="round" stroke-linejoin="round" stroke-miterlimit="10" x1="42.794" y1="686.809" x2="29.24" y2="688.262"/>

		<line fill="none" stroke="#6D6E71" stroke-width="2" stroke-linecap="round" stroke-linejoin="round" stroke-miterlimit="10" x1="29.24" y1="688.262" x2="66.193" y2="646.797"/>

		<line fill="none" stroke="#6D6E71" stroke-width="2" stroke-linecap="round" stroke-linejoin="round" stroke-miterlimit="10" x1="115.782" y1="689.793" x2="127.817" y2="688.262"/>

		<line fill="none" stroke="#6D6E71" stroke-width="2" stroke-linecap="round" stroke-linejoin="round" stroke-miterlimit="10" x1="127.817" y1="688.262" x2="80.42" y2="646.1"/>
	<path fill="#88CBD3" stroke="#1C1C1A" stroke-width="4" stroke-miterlimit="10" d="M117.045,700.123
		c0,19.109-14.666,38.045-35.988,38.045c-21.323,0-41.227-18.936-41.227-38.045c0-19.107,17.285-34.598,38.608-34.598
		C99.76,665.525,117.045,681.016,117.045,700.123z"/>
	<path fill="#FFFFFF" stroke="#121212" stroke-width="2" stroke-miterlimit="10" d="M79.125,726.199
		c-0.062,10.82-8.754,19.539-19.419,19.477c-10.66-0.061-19.252-8.885-19.185-19.705c0.065-10.82,8.756-19.541,19.417-19.477
		C70.602,706.557,79.194,715.379,79.125,726.199z"/>
	<path fill="#FFFFFF" stroke="#121212" stroke-width="2" stroke-miterlimit="10" d="M103.325,750.854
		c-11.299,3.973-23.734-2.141-27.777-13.652c-4.043-11.506,1.836-24.057,13.135-28.023c11.297-3.969,23.732,2.143,27.777,13.65
		C120.5,734.34,114.622,746.887,103.325,750.854z"/>
	<g>

			<ellipse transform="matrix(-0.9981 -0.0623 0.0623 -0.9981 71.6967 1453.02)" fill="#121212" cx="58.513" cy="725.392" rx="8.758" ry="8.623"/>
	</g>
	<g>

			<ellipse transform="matrix(-0.998 -0.0625 0.0625 -0.998 76.8918 1457.4355)" fill="#FFFFFF" cx="61.233" cy="727.516" rx="2.72" ry="2.679"/>
	</g>
	<g>
		<path fill="#121212" d="M83.739,729.945c-0.379,6.08,4.32,11.322,10.492,11.711c6.18,0.385,11.494-4.232,11.873-10.314
			c0.381-6.082-4.32-11.324-10.496-11.711C89.43,719.244,84.122,723.861,83.739,729.945z"/>
	</g>
	<g>

			<ellipse transform="matrix(-0.9981 -0.0623 0.0623 -0.9981 133.6338 1467.4524)" fill="#FFFFFF" cx="89.698" cy="731.643" rx="3.479" ry="3.427"/>
	</g>

		<line fill="none" stroke="#1C1C1A" stroke-width="4" stroke-linecap="round" stroke-linejoin="round" stroke-miterlimit="10" x1="58.513" y1="688.262" x2="30.149" y2="665.525"/>

		<line fill="none" stroke="#1C1C1A" stroke-width="4" stroke-linecap="round" stroke-linejoin="round" stroke-miterlimit="10" x1="30.149" y1="665.525" x2="67.271" y2="641.262"/>

		<line fill="none" stroke="#1C1C1A" stroke-width="4" stroke-linecap="round" stroke-linejoin="round" stroke-miterlimit="10" x1="94.92" y1="688.262" x2="117.045" y2="665.525"/>

		<line fill="none" stroke="#1C1C1A" stroke-width="4" stroke-linecap="round" stroke-linejoin="round" stroke-miterlimit="10" x1="117.045" y1="665.525" x2="78.438" y2="641.262"/>

		<line fill="none" stroke="#1C1C1A" stroke-width="3" stroke-linecap="round" stroke-linejoin="round" stroke-miterlimit="10" x1="44.331" y1="683.91" x2="14.149" y2="672.262"/>

		<line fill="none" stroke="#1C1C1A" stroke-width="3" stroke-linecap="round" stroke-linejoin="round" stroke-miterlimit="10" x1="14.149" y1="672.262" x2="67.272" y2="615.75"/>

		<line fill="none" stroke="#1C1C1A" stroke-width="3" stroke-linecap="round" stroke-linejoin="round" stroke-miterlimit="10" x1="114.715" y1="688.262" x2="133.149" y2="665.525"/>

		<line fill="none" stroke="#1C1C1A" stroke-width="3" stroke-linecap="round" stroke-linejoin="round" stroke-miterlimit="10" x1="133.149" y1="665.525" x2="79.836" y2="615.75"/>
	<path fill="#1C1D1A" d="M80.842,642.232c-1.861,1.75-4.503,1.586-7.514-5.561c-2.998-7.115-0.57-8.885,1.783-9.877
		c4.195-1.766,7.689-2.053,9.352,1.895C86.127,632.635,83.067,640.141,80.842,642.232z"/>
	<path fill="#1C1D1A" d="M64.867,642.232c1.861,1.75,4.502,1.586,7.514-5.561c2.998-7.115,0.57-8.885-1.784-9.877
		c-4.195-1.766-7.689-2.053-9.352,1.895C59.583,632.635,62.643,640.141,64.867,642.232z"/>
	<path fill="#1C1D1A" d="M81.922,615.83c-1.86,1.75-4.502,1.588-7.514-5.559c-2.998-7.117-0.57-8.885,1.784-9.877
		c4.194-1.768,7.688-2.053,9.353,1.893C87.208,606.234,84.147,613.738,81.922,615.83z"/>
	<path fill="#1C1D1A" d="M64.948,615.83c1.861,1.75,4.503,1.588,7.514-5.559c2.998-7.117,0.57-8.885-1.783-9.877
		c-4.195-1.768-7.69-2.053-9.353,1.893C59.663,606.234,62.723,613.738,64.948,615.83z"/>
</g>
<g>
	<line fill="none" stroke="#DEDEDE" stroke-linejoin="round" stroke-miterlimit="10" x1="73.016" y1="639.436" x2="73.016" y2="0"/>
	<path fill="none" stroke="#58595B" stroke-linejoin="round" stroke-miterlimit="10" d="M73.016,320.677"/>
	<path fill="none" stroke="#58595B" stroke-linejoin="round" stroke-miterlimit="10" d="M73.016,325.015"/>
	<path fill="none" stroke="#58595B" stroke-linejoin="round" stroke-miterlimit="10" d="M73.016,329.222"/>
	<path fill="none" stroke="#58595B" stroke-linejoin="round" stroke-miterlimit="10" d="M73.016,320.742"/>
	<path fill="none" stroke="#58595B" stroke-linejoin="round" stroke-miterlimit="10" d="M73.016,325.08"/>
	<path fill="none" stroke="#58595B" stroke-linejoin="round" stroke-miterlimit="10" d="M73.016,329.287"/>
</g>
<path fill="none" stroke="#58595B" stroke-linejoin="round" stroke-miterlimit="10" d="M73.016,344.993"/>
<path fill="none" stroke="#58595B" stroke-linejoin="round" stroke-miterlimit="10" d="M73.016,344.993"/>
<path fill="none" stroke="#58595B" stroke-linejoin="round" stroke-miterlimit="10" d="M73.016,336.439"/>
</svg>
