<svg xmlns="http://www.w3.org/2000/svg" viewBox="0 0 512 512"><path fill='#2e5a5c' d="M412.79,99.21H33.88V360.53H99.21a52.27,52.27,0,0,0,104.53,0H308.26a52.27,52.27,0,0,0,104.53,0h65.33v-196A65.41,65.41,0,0,0,412.79,99.21ZM369.94,229.87l-17.42-52.26h47.2v52.26Zm55.91-52.26H452v52.26H425.85Zm-155.75,0,17.42,52.26H242.93V177.61Zm-53.3,52.26H151.47V177.61H216.8Zm-91.46,0H60V177.61h65.33Zm26.13,156.79a26.14,26.14,0,1,1,26.14-26.13A26.16,26.16,0,0,1,151.47,386.66Zm209.06,0a26.14,26.14,0,1,1,26.13-26.13A26.17,26.17,0,0,1,360.53,386.66Zm45.25-52.27a52.25,52.25,0,0,0-90.51,0H196.73a52.26,52.26,0,0,0-90.52,0H60V308.26H86.15V282.13H60V256H323.78L288.94,151.47H60V125.34H412.79a39.27,39.27,0,0,1,36.95,26.13H316.27L351.11,256H452v26.13H425.85v26.13H452v26.13Z"/></svg>
