<svg xmlns="http://www.w3.org/2000/svg" viewBox="0 0 410.16 401.33"><circle cx="196.62" cy="204.71" r="196.5" fill="none" stroke="#2FC1C1" stroke-linecap="round" stroke-linejoin="round" stroke-width="0.25" stroke-dasharray="0 6"/><path d="M393.85,193.76c8.08,107-75.76,192.46-182.72,200.55S14.58,330,6.5,223,72,16.59,178.92,8.51,385.77,86.79,393.85,193.76Z" transform="translate(0 0.5)" fill="none" stroke="#2FC1C1" stroke-linecap="round" stroke-linejoin="round" stroke-width="0.8" stroke-dasharray="0 6"/><path d="M394.57,183.31c16.17,105.4-63.54,188.43-168.94,204.6S29,347.24,12.88,241.84,55.82,25.47,161.22,9.31,378.41,77.9,394.57,183.31Z" transform="translate(0 0.5)" fill="none" stroke="#2FC1C1" stroke-linecap="round" stroke-linejoin="round" stroke-width="1.35" stroke-dasharray="0 6"/><path d="M395.3,172.86C419.54,276.7,344,357.26,240.12,381.51S43.5,364.5,19.25,260.66,39.68,34.35,143.53,10.11,371.05,69,395.3,172.86Z" transform="translate(0 0.5)" fill="none" stroke="#2FC1C1" stroke-linecap="round" stroke-linejoin="round" stroke-width="1.9" stroke-dasharray="0 6"/><path d="M396,162.4c32.33,102.29-39.11,180.38-141.4,212.71S58,381.76,25.63,279.48,23.54,43.23,125.83,10.91,363.69,60.12,396,162.4Z" transform="translate(0 0.5)" fill="none" stroke="#2FC1C1" stroke-linecap="round" stroke-linejoin="round" stroke-width="2.45" stroke-dasharray="0 6"/><path d="M396.74,152c40.41,100.72-26.9,176.34-127.62,216.76S72.42,399,32,298.3,7.41,52.12,108.12,11.71,356.33,51.24,396.74,152Z" transform="translate(0 0.5)" fill="none" stroke="#2FC1C1" stroke-linecap="round" stroke-linejoin="round" stroke-width="3" stroke-dasharray="0 6"/></svg>
