<?xml version="1.0" encoding="iso-8859-1"?>
<!-- Generator: Adobe Illustrator 25.0.1, SVG Export Plug-In . SVG Version: 6.00 Build 0)  -->
<svg version="1.1" id="Calque_1" xmlns="http://www.w3.org/2000/svg" xmlns:xlink="http://www.w3.org/1999/xlink" x="0px" y="0px"
	 viewBox="0 0 800 800" style="enable-background:new 0 0 800 800;" xml:space="preserve">
<rect style="fill:#A7B2C4;" width="800" height="800"/>
<g>
	<defs>
		<rect id="SVGID_5_" width="800" height="800"/>
	</defs>
	<clipPath id="SVGID_2_">
		<use xlink:href="#SVGID_5_"  style="overflow:visible;"/>
	</clipPath>
	<g style="clip-path:url(#SVGID_2_);">
		<path style="fill:#727E93;" d="M506.286,574.974c-2.851,9.615-5.702,19.231-8.553,28.847
			c-67.901,2.303-135.953,0.151-203.573-6.437c-1.648-8.038-3.295-16.076-4.943-24.114c-3.432,9.015-6.863,18.03-10.295,27.046
			c-18.827,2.427-38.483-2.237-54.214-12.864c-23.396,7.228-49.892,3.664-70.546-9.488c16.658-88.081,35.592-325.233,40.06-366.418
			c4.468-41.185,6.733-84.371,34.255-115.334c27.938-31.431,79.622-47.626,121.405-52.392s84.182,2.524,124.364,14.931
			c22.747,7.023,46.133,16.504,60.813,35.247c14.823,18.926,18.321,44.072,21.301,67.926
			c17.183,137.556,34.367,275.112,51.55,412.668c-31.315,11.077-63.677,19.194-96.513,24.208
			C509.694,590.857,507.99,582.916,506.286,574.974z"/>
		<path style="fill:#8892A5;" d="M373.506,659.466c14.979,1.826,57.67-30.245,44.248-49.667
			c-7.49-10.834-10.271-42.896-11.235-69.056c-0.408-10.35-0.519-19.819-0.519-26.645c0-6.827,0.074-11.098,0.074-11.098h-63.071
			c0.037,1.365,0.074,2.819,0.111,4.316c0.334,19.863-1.409,48.885-4.783,70.686c-2.262,14.401-6.627,33.1-18.522,37.566
			C319.809,615.568,330.012,654.163,373.506,659.466z"/>
		<path style="fill:#727E93;" d="M338.331,578.002c7.929-17.292,39.141-45.408,67.845-48.408
			c-0.408-10.349-0.176-8.669-0.176-15.496c-19.541-3.832-39.304-6.078-59.104-6.827c-1.261-0.044-2.521-0.088-3.782,0.044
			C343.448,527.179,341.705,556.201,338.331,578.002z"/>
		<path style="fill:#8892A5;" d="M233.41,427.332c16.264,44.513,86.399,91.384,136.58,95.13c1.019,0.076,2.026,0.264,3.039,0.308
			c44.261,2.686,124.591-56.39,144.101-90.654c9.777-17.088,19.379-117.924,24.091-181.431c2.643-34.836,3.744-65.312,2.466-78.965
			c-10.702-114.77-288.336-48.048-321.675-12.023C188.63,195.766,224.32,402.452,233.41,427.332z"/>
		<path style="fill:#8892A5;" d="M537.14,297.189c3.938-4.291,8.007-8.68,13.691-11.549c5.685-2.87,13.43-3.929,19.448-1.231
			c8.033,3.601,9.823,11.922,10.022,19.06c0.693,24.777-6.733,49.029-14.112,72.959c-1.401,4.545-2.914,9.265-6.774,12.797
			c-4.504,4.121-12.065,6.045-18.974,4.829c-6.91-1.216-12.88-5.521-14.983-10.805"/>
		<path style="fill:#727E93;" d="M564.584,305.619c-5.905-4.385-15.618-2.325-20.705,2.592c-5.087,4.917-6.718,11.722-8.049,18.214
			c-2.095,10.22-3.897,20.486-5.699,30.751c-0.701,3.995-1.289,8.44,1.435,11.802c3.568,4.404,11.66,4.693,16.705,1.656
			s7.461-8.393,8.355-13.628c0.813-4.759,0.583-9.662-0.675-14.383c-0.555-2.082-1.415-4.268-3.4-5.59
			c-1.984-1.324-5.382-1.249-6.508,0.633c1.046-5.306,2.278-10.941,6.612-14.812c4.334-3.872,12.902-4.75,16.628-0.327
			C569.836,316.551,569.945,309.6,564.584,305.619z"/>
		<path style="fill:#8892A5;" d="M214.028,297.189c-3.939-4.291-8.007-8.68-13.692-11.549c-5.685-2.87-13.43-3.929-19.448-1.231
			c-8.033,3.601-9.822,11.922-10.022,19.06c-0.692,24.777,6.733,49.029,14.112,72.959c1.401,4.545,2.914,9.265,6.775,12.797
			c4.504,4.121,12.065,6.045,18.975,4.829c6.91-1.216,12.88-5.521,14.983-10.805"/>
		<path style="fill:#727E93;" d="M186.583,305.619c5.905-4.385,15.618-2.325,20.704,2.592c5.087,4.917,6.719,11.722,8.049,18.214
			c2.095,10.22,3.897,20.486,5.699,30.751c0.701,3.995,1.289,8.44-1.435,11.802c-3.568,4.404-11.66,4.693-16.705,1.656
			c-5.045-3.037-7.462-8.393-8.356-13.628c-0.813-4.759-0.582-9.662,0.675-14.383c0.555-2.082,1.415-4.268,3.4-5.59
			c1.984-1.324,5.383-1.249,6.509,0.633c-1.046-5.306-2.278-10.941-6.612-14.812c-4.334-3.872-12.902-4.75-16.629-0.327
			C181.331,316.551,181.223,309.6,186.583,305.619z"/>
		<path style="fill:#727E93;" d="M417.754,609.799c16.217,6.172,121.309,27.695,123.467,65.36
			c2.158,37.665-26.936,160.833-25.579,166.214c1.357,5.381-98.002,39.049-143.388,40.076
			c-52.444,1.187-138.266-30.755-142.75-37.032c-4.483-6.277-31.603-157.37-21.631-176.766
			c9.973-19.396,101.436-41.281,118.762-56.635c0,0,34.683,39.217,46.87,39.217C380.354,650.233,417.754,609.799,417.754,609.799z"
			/>
		<path style="fill:#727E93;" d="M450.897,184.23c-0.006-6.766-0.013-13.533-0.019-20.299c-1.464,5.25-2.928,10.501-4.392,15.752
			c-1.472-2.354-2.944-4.708-4.415-7.063c0.006,4.395-3.542,8.161-7.618,9.807c-4.076,1.646-8.606,1.615-13.001,1.561
			c-17.097-0.213-34.193-0.426-51.29-0.639c-5.675-0.07-11.587-0.197-16.633-2.795c-5.047-2.598-8.895-8.472-7.253-13.905
			c-1.038,4.583-2.076,9.166-3.115,13.749c-2.153-2.091-4.305-4.182-6.457-6.272c1.27,5.669-6.975,8.035-12.777,7.749
			c-26.594-1.305-46.006,1.107-72.601-0.199c-0.282-7.13-6.029-24.803-6.311-31.933c-12.627,38.991-26.972,84.807-39.599,123.799
			c-3.039-30.382-6.06-61.267-0.366-91.265c5.694-29.997,21.43-59.528,47.907-74.735c18.116-10.405,39.47-13.28,60.252-15.415
			c35.344-3.633,70.848-5.714,106.374-6.234c31.148-0.457,63.414,0.531,91.555,13.891c13.826,6.564,26.671,16.493,33.359,30.259
			c5.805,11.947,6.508,25.661,6.689,38.942c0.453,33.252,4.408,83.743-0.357,116.656c-14.798-42.429-35.721-102.061-50.519-144.489
			c-0.719,14.104-1.439,28.207-2.158,42.312C482.402,183.718,466.65,183.974,450.897,184.23z"/>
	</g>
	<path style="clip-path:url(#SVGID_2_);fill:#A7B2C4;" d="M372.54,429.909c-8.054-0.32-15.664-5.394-19.675-12.67
		c-4.831-8.763-10.757-25.621-6.733-45.186c4.789-23.283,18.524-37.503,31.613-53.846c13.089-16.343,56.866-48.526,40.121-81.834
		c-4.918-9.783-12.41-16.295-23.354-16.666c-10.943-0.37-21.699,3.234-31.397,8.318c-14.039,7.361-27.398,19.93-27.787,35.777
		c-0.259,10.588,5.356,21.312,2.206,31.424c-2.995,9.617-13.865,15.5-23.876,14.386c-10.011-1.114-18.722-8.175-23.612-16.981
		c-4.89-8.807-6.363-19.153-6.165-29.224c0.762-38.801,27.589-75.966,64.422-88.19c36.832-12.225,81,1.885,103.317,33.635
		c13.526,19.242,17.744,42.409,10.383,64.291c-9.17,27.258-20.726,41.422-56.515,80.142c-10.716,11.594-16.992,18.337-11.251,51.706
		C395.422,411.877,394.351,430.777,372.54,429.909z"/>
	<path style="clip-path:url(#SVGID_2_);fill:#A7B2C4;" d="M400.822,479.881c3.206-6.327,3.095-14.109,0.198-20.584
		c-3.49-7.802-10.873-13.64-19.176-15.668c-8.303-2.027-17.358-0.337-24.618,4.173c-8.55,7.69-12.634,20.03-10.359,31.302
		c1.082,5.365,3.674,10.642,8.137,13.809c5.713,4.055,13.372,3.986,20.271,2.762C385.501,493.862,396.128,489.146,400.822,479.881z"
		/>
</g>
</svg>
