<?xml version="1.0" encoding="iso-8859-1"?>
<!-- Generator: Adobe Illustrator 25.0.1, SVG Export Plug-In . SVG Version: 6.00 Build 0)  -->
<svg version="1.1" id="Calque_1" xmlns="http://www.w3.org/2000/svg" xmlns:xlink="http://www.w3.org/1999/xlink" x="0px" y="0px"
	 viewBox="0 0 800 800" style="enable-background:new 0 0 800 800;" xml:space="preserve">
<rect style="fill:#A7B2C4;" width="800" height="800"/>
<g>
	<defs>
		<rect id="SVGID_3_" width="800" height="800"/>
	</defs>
	<clipPath id="SVGID_2_">
		<use xlink:href="#SVGID_3_"  style="overflow:visible;"/>
	</clipPath>
	<g style="clip-path:url(#SVGID_2_);">
		<g>
			<path style="fill:#8892A5;" d="M558.979,419.816c-3.198,8.117-35.709,43.704-64.9,74.001
				c-22.672,23.656-43.335,44.114-46.369,45.753c-6.929,3.772-83.841,3.772-93.926,0c-10.085-3.772-106.922-115.696-116.106-135.662
				c-5.576-12.053-5.002-63.834-3.321-117.869c1.107-35.464,2.665-71.952,3.321-98.723c1.763-73.427,305.967-58.217,318.144-28.37
				c1.558,3.813,2.87,10.741,3.977,19.884c2.582,21.934,3.853,56.864,4.182,93.394C564.636,339.173,562.177,411.617,558.979,419.816
				z"/>
			<path style="fill:#8892A5;" d="M400.636,657.997c-19.489,3.238-75.053-15.497-57.237-33.577
				c9.941-10.086,13.632-39.932,14.912-64.285c0.542-9.635,0.689-18.449,0.689-24.804c0-6.355-0.098-10.331-0.098-10.331h83.716
				c-0.049,1.271-0.098,2.624-0.148,4.017c-0.443,18.49,1.87,45.508,6.349,65.802c3.002,13.406,6.89,23.86,11.615,27.018
				C484.057,637.867,420.126,654.799,400.636,657.997z"/>
			<path style="fill:#727E93;" d="M448.818,594.82c-10.525-16.097-51.953-42.27-90.052-45.063c0.541-9.635,0.234-8.071,0.234-14.425
				c25.936-3.567,52.168-5.658,78.449-6.355c1.674-0.041,3.347-0.082,5.02,0.041C442.027,547.508,444.34,574.525,448.818,594.82z"/>
			<path style="fill:#727E93;" d="M600.241,783.41c-9.676,61.62-11.438,79.413-11.438,79.413s-100.362,14.185-190.968,14.185
				c-90.564,0-182.974-12.053-182.974-12.053s-8.322-34.11-6.6-91.958c1.722-57.807,23.39-74.745,71.498-106.936
				c21.201-14.187,33.498-23.665,46.401-33.147c14.207-10.44,22.713-18.067,22.713-18.067s17.722,25.767,53.882,25.767
				c26.977,0,52.202-25.767,52.202-25.767s7.708,7.257,24.435,20.54c10.66,8.487,25.009,19.433,43.335,32.552
				C588.569,714.964,605.899,747.618,600.241,783.41z"/>
			<path style="fill:#8892A5;" d="M479.391,635.388c-2.132,6.683-12.762,16.255-17.559,21.38
				c-8.61,9.183-20.376,14.923-32.593,17.916c-24.804,6.068-52.15,0.902-73.058-13.734c-9.348-6.559-25.594-17.704-30.022-28.035
				c14.226-10.414,22.713-18.067,22.713-18.067s17.722,25.767,53.882,25.767c26.977,0,52.202-25.767,52.202-25.767
				S462.664,622.104,479.391,635.388z"/>
			<path style="fill:#727E93;" d="M219.006,140.402c-6.654,13.585-3.707,29.671-0.95,44.545
				c8.318,44.886,13.561,90.341,15.682,135.942c16.586-50.898,30.022-102.822,40.206-155.377
				c71.333,28.972,148.524,43.432,225.507,42.246c7.288-0.112,15.081-0.229,21.206,3.722c5.073,3.273,8.143,8.81,11.011,14.123
				c12.067,22.358,21.254,90.318,28.071,120.523c2.088-39.885,12.299-133.455,7.529-173.109
				c-1.904-15.824-5.205-32.224-15.131-44.695c-12.884-16.186-34.25-22.61-54.434-27.145
				c-81.056-18.215-168.379-19.63-244.866,12.798C239.365,119.687,225.441,127.263,219.006,140.402z"/>
			<path style="fill:#8892A5;" d="M562.093,296.63c2.925-4.192,5.947-8.481,10.314-11.441c4.367-2.96,10.441-4.345,15.316-2.147
				c6.506,2.933,8.285,10.574,8.756,17.199c1.634,22.994-3.17,45.919-7.953,68.542c-0.909,4.297-1.896,8.762-4.793,12.244
				c-3.379,4.063-9.27,6.242-14.784,5.467c-5.514-0.774-10.421-4.467-12.315-9.27"/>
			<path style="fill:#8892A5;" d="M234.366,297.031c-2.925-4.192-5.947-8.481-10.314-11.441c-4.367-2.96-10.441-4.345-15.316-2.147
				c-6.507,2.933-8.286,10.575-8.757,17.199c-1.634,22.994,3.171,45.919,7.953,68.542c0.909,4.297,1.896,8.762,4.793,12.244
				c3.379,4.063,9.27,6.242,14.784,5.468c5.514-0.774,10.421-4.468,12.315-9.27"/>
			<path style="fill:#727E93;" d="M212.307,303.452c4.859-3.772,12.445-1.356,16.249,3.477c3.804,4.833,4.795,11.241,5.562,17.344
				c1.207,9.607,2.181,19.242,3.155,28.876c0.379,3.749,0.648,7.911-1.652,10.896c-3.013,3.909-9.421,3.76-13.275,0.677
				c-3.854-3.083-5.529-8.185-6.005-13.098c-0.433-4.466-0.037-9.011,1.164-13.335c0.53-1.907,1.305-3.893,2.932-5.021
				c1.626-1.127,4.308-0.883,5.116,0.924c-0.594-4.985-1.321-10.287-4.576-14.109c-3.255-3.822-9.988-5.08-13.128-1.162
				C207.677,313.341,207.896,306.875,212.307,303.452z"/>
			<path style="fill:#727E93;" d="M585.568,303.452c-4.859-3.772-12.445-1.356-16.25,3.477c-3.804,4.833-4.795,11.241-5.562,17.344
				c-1.207,9.607-2.181,19.242-3.155,28.876c-0.379,3.749-0.648,7.911,1.652,10.896c3.013,3.909,9.42,3.76,13.275,0.677
				c3.854-3.083,5.529-8.185,6.006-13.098c0.433-4.466,0.036-9.011-1.165-13.335c-0.53-1.907-1.306-3.893-2.932-5.021
				c-1.627-1.127-4.309-0.883-5.116,0.924c0.594-4.985,1.321-10.287,4.576-14.109c3.255-3.822,9.988-5.08,13.128-1.162
				C590.198,313.341,589.979,306.875,585.568,303.452z"/>
			<path style="fill:#727E93;" d="M558.979,419.816c-5.699,14.472-104.34,115.983-111.268,119.755
				c-6.929,3.772-83.841,3.772-93.926,0c-10.085-3.772-106.922-115.696-116.106-135.662c-5.576-12.053-5.002-63.834-3.321-117.869
				c1.312-2.296,8.768-8.411,10.08-10.707c0,0-2.522,76.351,8.738,95.695c11.256,19.338,27.387,35.299,44.114,50.141
				c3.034,2.706,6.272,5.452,10.29,6.273c7.051,1.476,13.652-3.485,19.597-7.626c38.21-26.608,93.434-25.788,130.824,1.968
				c3.977,2.952,7.872,6.273,12.627,7.749c9.266,2.951,19.105-1.558,27.797-5.986c12.791-6.519,26.116-13.488,34.561-25.173
				c7.748-10.782,10.372-24.312,12.627-37.39c5.125-29.765,9.265-59.734,12.463-89.826c2.009,0.205,3.977,0.574,5.904,1.066
				C564.636,339.173,562.177,411.617,558.979,419.816z"/>
			<path style="fill:#8892A5;" d="M375.156,428.459c3.881-2.574,37.65-1.527,49.038,2.23c6.922,2.283,26.704,29.745,26.704,36.693
				c0,8.326-11.33,30.656-16.504,33.243c-5.175,2.587-26.337,3.45-26.594-4.249c-0.466-14.002,0,0,0,0s-20.181-1.552-20.698,0.518
				c-0.517,2.07,4.585-0.534-3.177,1.535c-7.762,2.07-22.482,4.877-28.106-3.624c-5.987-9.049-10.81-23.519-10.81-29.652
				C345.009,457.218,366.254,434.363,375.156,428.459z"/>
			<path style="fill:#727E93;" d="M275.014,213.916c-16.323-29.685-33.112-61.184-32.275-95.05
				C243.576,85,269.36,49.251,303.215,50.481c5.907,0.215,11.829,1.514,17.68,0.68c11.71-1.668,20.383-11.237,29.883-18.285
				c21.42-15.891,51.251-19.661,75.952-9.601c15.263,6.217,28.188,17.094,43.074,24.168c27.738,13.183,61.923,11.8,88.505-3.581
				c-5.544,10.431-14.929,18.765-25.944,23.035c10.157,3.239,21.408,2.927,31.37-0.87c-6.005,10.875-15.937,19.527-27.532,23.984
				c8.596,0.592,17.192,1.185,25.788,1.777c-7.334,10.385-17.811,18.519-29.691,23.049c6.736,0.218,13.473,0.437,20.209,0.655
				c-5.019,14.863-18.026,26.756-33.278,30.426c4.344,0.059,8.688,0.118,13.032,0.177c-14.232,20.535-28.464,41.07-42.696,61.605
				c-4.066,5.867-8.29,11.889-14.3,15.741c-4.992,3.199-10.87,4.67-16.656,5.967c-42.155,9.452-85.786,12.292-128.81,8.385
				c-14.718-1.337-30.11-3.757-41.804-12.793s-17.961-26.699-9.911-39.093"/>
		</g>
		<path style="fill:#A7B2C4;" d="M398.411,431.353c-7.498-0.298-14.581-5.022-18.315-11.795
			c-4.497-8.157-10.014-23.851-6.267-42.063c4.458-21.674,17.244-34.911,29.428-50.125c12.184-15.214,52.937-45.173,37.349-76.179
			c-4.578-9.107-11.553-15.169-21.74-15.514c-10.187-0.345-20.2,3.01-29.227,7.743c-13.069,6.852-25.505,18.553-25.867,33.305
			c-0.241,9.857,4.986,19.839,2.054,29.253c-2.788,8.953-12.907,14.429-22.227,13.392c-9.319-1.037-17.429-7.61-21.981-15.808
			c-4.552-8.198-5.923-17.83-5.739-27.205c0.71-36.12,25.683-70.717,59.971-82.097c34.287-11.38,75.403,1.755,96.178,31.311
			c12.591,17.913,16.518,39.479,9.666,59.849c-8.536,25.374-19.294,38.56-52.61,74.605c-9.975,10.793-15.818,17.07-10.474,48.133
			C419.713,414.568,418.716,432.161,398.411,431.353z"/>
		<path style="fill:#A7B2C4;" d="M424.74,477.873c2.984-5.89,2.881-13.134,0.184-19.161c-3.249-7.263-10.122-12.698-17.851-14.585
			c-7.729-1.887-16.159-0.314-22.917,3.885c-7.959,7.159-11.761,18.646-9.643,29.139c1.008,4.994,3.42,9.907,7.575,12.855
			c5.318,3.775,12.448,3.711,18.87,2.572C410.477,490.888,420.37,486.498,424.74,477.873z"/>
	</g>
</g>
</svg>
