<svg xmlns="http://www.w3.org/2000/svg" xmlns:xlink="http://www.w3.org/1999/xlink" viewBox="0 0 800 800"><path fill="#a7b2c4" d="M0 0h800v800H0z"/><defs><path id="a" d="M0 0h800v800H0z"/></defs><clipPath id="b"><use overflow="visible" xlink:href="#a"/></clipPath><g clip-path="url(#b)"><path fill="#8892a5" d="M398.6 688.48c-20.05 3.33-77.21-15.94-58.88-34.55 10.23-10.37 14.02-41.08 15.34-66.13.56-9.92.7-18.99.7-25.52 0-6.54-.1-10.63-.1-10.63h86.14c-.05 1.3-.1 2.7-.16 4.13-.45 19.02 1.93 46.82 6.54 67.7 3.08 13.8 7.09 24.55 11.95 27.8 24.3 16.5-41.47 33.91-61.52 37.2z"/><path fill="#727e93" d="M448.18 623.48c-10.83-16.56-53.45-43.49-92.65-46.36.55-9.92.24-8.3.24-14.84a736.3 736.3 0 0180.71-6.54c1.72-.04 3.44-.09 5.17.04-.46 19.02 1.92 46.82 6.53 67.7zM224.43 370.36c-8.32-62.79-23.1-205.45-16.62-226.38 3.58-11.58 24.1-44.17 52.26-41.27 15.65-23.28 29.94-39.12 57.82-42.26 41.29-4.65 88.45-6.3 129.46-1.63 44.45 5.06 104.71 21.34 107.23 69.24.08 1.34.88 2.54 1.27 3.83 11.93-.35 22.57 8.8 27.33 19.75 4.76 10.95 4.73 23.33 3.82 35.23-2.01 26.2-1.94 51.49-5.39 77.67-3.66 27.87-7.9 55.67-11.43 83.57-1.64 12.9-3.43 26.27-10.35 37.28-8.62 13.72-23.91 21.73-39.13 27.3-45.62 16.72-96.39 16.88-143.5 5.03-47.13-11.84-90.8-35.25-129.87-64.13-12.38-9.14-22.9 16.77-22.9 16.77zM603.97 817.51c-9.96 63.4-11.77 81.7-11.77 81.7s-103.26 14.6-196.48 14.6c-93.17 0-188.25-12.4-188.25-12.4s-8.56-35.1-6.79-94.61c1.77-59.48 24.06-76.9 73.56-110.02 21.81-14.6 34.46-24.35 47.74-34.1 14.62-10.75 23.37-18.6 23.37-18.6s18.23 26.52 55.44 26.52c27.75 0 53.7-26.51 53.7-26.51s7.93 7.46 25.14 21.13c10.97 8.73 25.73 20 44.59 33.5 67.74 48.37 85.57 81.97 79.75 118.8z"/><path fill="#8892a5" d="M546.62 468.14c-5.27 26.45-86.38 91.32-99.67 98.75-9.37 5.18-41.72 5.35-66.69 3.75h-.04c-14.26-.89-26.15-2.32-29.9-3.75-4.52-1.7-23.12-18.1-43.5-37.8-22.06-21.43-46.23-46.65-56.73-61.16-.04-.08-.12-.17-.17-.25a46.7 46.7 0 01-4.34-7.05c-4.85-10.46-15.65-73.94-17.89-126.88-.42-9.7-.5-19.1-.25-27.7.68-21.4 1.48-43.16 2.23-63.03.47-14.04.9-27.12 1.19-38.55.12-5.65 2.02-10.8 5.4-15.48 5.44-7.55 14.76-13.84 26.9-18.98 80.61-34.38 284.94-19.4 295.02 5.27 1.6 3.93 2.95 11.05 4.09 20.46 2.66 22.57 3.97 58.5 4.3 96.09.68 68.88-16.57 159.52-19.95 176.31z"/><path fill="#727e93" d="M209.84 156.19c-6.84 13.97-3.81 30.53-.98 45.83A1030.52 1030.52 0 01225 341.88a1337.3 1337.3 0 0041.36-159.86 594.27 594.27 0 00232.02 43.47c7.5-.12 15.51-.24 21.81 3.83 5.22 3.37 8.38 9.06 11.33 14.53 12.42 23 25.36 75.94 32.37 107.02 8.98-40.19 19.82-117.73 14.91-158.53-1.95-16.28-16-35.75-26.22-48.58-13.25-16.65-35.24-23.26-56-27.93-83.4-18.74-173.24-20.2-251.93 13.17-13.86 5.88-28.19 13.67-34.8 27.19z"/><path fill="#8892a5" d="M557.68 336.31c3-4.3 6.12-8.72 10.61-11.77 4.5-3.04 10.74-4.47 15.76-2.2 6.7 3.01 8.52 10.87 9 17.69 1.69 23.66-3.25 47.24-8.17 70.52-.94 4.42-1.96 9.01-4.94 12.6-3.47 4.18-9.53 6.42-15.2 5.62-5.68-.8-10.73-4.6-12.68-9.54M230.44 336.73c-3-4.32-6.11-8.73-10.6-11.78s-10.75-4.47-15.77-2.2c-6.69 3.01-8.52 10.87-9 17.7-1.69 23.65 3.26 47.23 8.18 70.51.93 4.42 1.95 9.02 4.93 12.6 3.48 4.18 9.54 6.42 15.2 5.62 5.68-.8 10.73-4.6 12.68-9.54"/><path fill="#727e93" d="M207.75 343.33c5-3.88 12.8-1.4 16.72 3.58 3.91 4.97 4.93 11.56 5.72 17.84 1.24 9.89 2.25 19.8 3.25 29.71.39 3.86.66 8.14-1.7 11.21-3.1 4.02-9.7 3.87-13.66.7-3.97-3.17-5.69-8.42-6.18-13.48-.45-4.6-.04-9.27 1.2-13.71.54-1.97 1.34-4.01 3.01-5.17 1.68-1.16 4.44-.9 5.27.95-.61-5.13-1.36-10.58-4.71-14.51-3.35-3.94-10.28-5.23-13.5-1.2-.18-5.74.04-12.4 4.58-15.92zM581.83 343.33c-5-3.88-12.8-1.4-16.72 3.58-3.91 4.97-4.93 11.56-5.72 17.84-1.24 9.89-2.24 19.8-3.25 29.71-.39 3.86-.66 8.14 1.7 11.21 3.1 4.02 9.7 3.87 13.66.7 3.97-3.17 5.69-8.42 6.18-13.48.45-4.6.04-9.27-1.2-13.71-.54-1.97-1.34-4.01-3.01-5.17-1.68-1.16-4.44-.9-5.27.95.61-5.13 1.36-10.58 4.71-14.51 3.35-3.94 10.28-5.23 13.5-1.2.18-5.74-.04-12.4-4.58-15.92zM303.1 246.01c-14.5 11.33-39.32 3.9-45.23-13.52-5.89 8.2-19.61 8.98-26.4 1.5-6.8-7.47-4.69-21.06 4.04-26.13-7.5-2.61-12.67-10.71-11.9-18.6.79-7.9 7.44-14.84 15.3-15.94-6.95-7.1-13.58-15.59-14.03-25.51-.44-9.93 8.33-20.58 18.03-18.42-5.7-4.88-3.6-14.85 2.2-19.61 5.8-4.77 13.72-5.75 21.18-6.55-6.62-.12-10.61-8.6-8.25-14.79 2.37-6.17 8.85-9.84 15.27-11.41 16.48-4.03 36.72 1.56 48.7-10.44 2.47-2.48 4.38-5.59 7.35-7.43 4.87-3.02 11.13-1.87 16.8-2.7 5.68-.83 11.9-6.18 9.42-11.35a46.68 46.68 0 0024.38 1.31c3-.64 6.11-1.6 9.1-.87 2.6.63 4.73 2.45 6.6 4.36 13.02 13.32 17.32 32.7 20.22 51.11a616.4 616.4 0 017.3 79.4c.37 13.92.11 28.51-6.54 40.74-7.88 14.47-23.47 23.15-39.23 27.97a128.01 128.01 0 01-74.44-.04"/><path fill="#727e93" d="M503.5 246.01c14.5 11.33 39.34 3.9 45.24-13.52 5.9 8.2 19.62 8.98 26.4 1.5 6.8-7.47 4.7-21.06-4.04-26.13 7.5-2.61 12.67-10.71 11.9-18.6-.78-7.9-7.44-14.84-15.3-15.94 6.95-7.1 13.58-15.59 14.03-25.51.45-9.93-8.33-20.58-18.03-18.42 5.7-4.88 3.6-14.85-2.2-19.61-5.79-4.77-13.72-5.75-21.17-6.55 6.61-.12 10.6-8.6 8.24-14.79-2.37-6.17-8.85-9.84-15.27-11.41-16.48-4.03-36.72 1.56-48.7-10.44-2.46-2.48-4.38-5.59-7.35-7.43-4.87-3.02-11.13-1.87-16.8-2.7-5.68-.83-11.89-6.18-9.42-11.35a46.68 46.68 0 01-24.38 1.31c-3-.64-6.1-1.6-9.1-.87-2.6.63-4.73 2.45-6.6 4.36-13.02 13.32-17.32 32.7-20.22 51.11a616.4 616.4 0 00-7.3 79.4c-.37 13.92-.11 28.51 6.54 40.74 7.88 14.47 23.47 23.15 39.23 27.97a128.01 128.01 0 0074.44-.04"/></g><path fill="#a7b2c4" d="M396.88 481.99c-7.72-.31-15-5.17-18.85-12.14-4.62-8.4-10.3-24.54-6.44-43.28 4.58-22.3 17.74-35.91 30.27-51.57 12.54-15.65 54.47-46.47 38.43-78.37-4.71-9.37-11.89-15.61-22.37-15.97-10.48-.35-20.78 3.1-30.07 7.97-13.44 7.05-26.24 19.09-26.61 34.27-.25 10.14 5.13 20.4 2.11 30.1-2.87 9.2-13.28 14.84-22.87 13.77-9.58-1.07-17.93-7.83-22.61-16.26-4.68-8.44-6.1-18.35-5.9-28 .72-37.15 26.42-72.75 61.7-84.46 35.27-11.7 77.57 1.8 98.95 32.22 12.95 18.43 17 40.61 9.94 61.57-8.78 26.1-19.85 39.67-54.13 76.76-10.26 11.1-16.27 17.56-10.77 49.52 1.13 6.6.1 24.7-20.78 23.87zM423.97 529.85c3.07-6.06 2.96-13.52.19-19.72-3.35-7.47-10.42-13.06-18.37-15-7.95-1.94-16.63-.33-23.58 4a32.49 32.49 0 00-9.92 29.97c1.04 5.14 3.52 10.2 7.8 13.23 5.47 3.88 12.8 3.82 19.4 2.65 9.8-1.74 19.98-6.26 24.48-15.13z" clip-path="url(#b)"/></svg>