<?xml version="1.0" encoding="iso-8859-1"?>
<!-- Generator: Adobe Illustrator 25.0.1, SVG Export Plug-In . SVG Version: 6.00 Build 0)  -->
<svg version="1.1" id="Calque_1" xmlns="http://www.w3.org/2000/svg" xmlns:xlink="http://www.w3.org/1999/xlink" x="0px" y="0px"
	 viewBox="0 0 800 800" style="enable-background:new 0 0 800 800;" xml:space="preserve">
<rect style="fill:#A7B2C4;" width="800" height="800"/>
<g>
	<defs>
		<rect id="SVGID_1_" width="800" height="800"/>
	</defs>
	<clipPath id="SVGID_2_">
		<use xlink:href="#SVGID_1_"  style="overflow:visible;"/>
	</clipPath>
	<g style="clip-path:url(#SVGID_2_);">
		<path style="fill:#8892A5;" d="M398.606,688.481c-20.052,3.332-77.219-15.944-58.889-34.546
			c10.229-10.377,14.026-41.084,15.342-66.139c0.557-9.913,0.709-18.982,0.709-25.519c0-6.538-0.101-10.63-0.101-10.63h86.13
			c-0.05,1.307-0.101,2.699-0.152,4.134c-0.456,19.024,1.924,46.821,6.532,67.7c3.088,13.793,7.089,24.549,11.95,27.797
			C484.434,667.771,418.658,685.191,398.606,688.481z"/>
		<path style="fill:#727E93;" d="M448.178,623.481c-10.829-16.561-53.452-43.49-92.651-46.363c0.557-9.913,0.241-8.304,0.241-14.842
			c26.686-3.669,53.674-5.821,80.713-6.538c1.722-0.042,3.443-0.084,5.165,0.042C441.19,574.804,443.57,602.601,448.178,623.481z"/>
		<path style="fill:#727E93;" d="M224.429,370.364c-8.316-62.792-23.091-205.455-16.621-226.382
			c3.58-11.579,24.102-44.173,52.266-41.267c15.65-23.283,29.937-39.127,57.816-42.267c41.288-4.649,88.449-6.293,129.456-1.629
			c44.457,5.057,104.716,21.346,107.239,69.244c0.071,1.341,0.88,2.538,1.269,3.824c11.93-0.343,22.567,8.809,27.326,19.754
			c4.759,10.945,4.733,23.333,3.819,35.233c-2.011,26.187-1.94,51.486-5.385,77.663c-3.667,27.877-7.905,55.677-11.437,83.573
			c-1.634,12.902-3.428,26.266-10.344,37.279c-8.619,13.722-23.914,21.729-39.129,27.304c-45.622,16.716-96.391,16.88-143.512,5.032
			c-47.121-11.848-90.789-35.254-129.865-64.13C234.955,344.452,224.429,370.364,224.429,370.364z"/>
		<path style="fill:#727E93;" d="M603.97,817.512c-9.955,63.397-11.768,81.704-11.768,81.704s-103.259,14.594-196.478,14.594
			c-93.177,0-188.253-12.401-188.253-12.401s-8.563-35.094-6.791-94.611c1.771-59.475,24.064-76.901,73.561-110.02
			c21.813-14.596,34.464-24.348,47.74-34.103c14.617-10.741,23.368-18.587,23.368-18.587s18.234,26.51,55.437,26.51
			c27.755,0,53.709-26.51,53.709-26.51s7.93,7.466,25.14,21.133c10.967,8.731,25.73,19.994,44.585,33.491
			C591.961,747.092,609.791,780.688,603.97,817.512z"/>
		<path style="fill:#8892A5;" d="M546.622,468.142c-5.273,26.447-86.386,91.321-99.673,98.745
			c-9.364,5.188-41.717,5.357-66.688,3.754h-0.042c-14.257-0.886-26.152-2.32-29.906-3.754
			c-4.513-1.688-23.115-18.096-43.488-37.794c-22.06-21.428-46.23-46.652-56.733-61.162c-0.042-0.085-0.126-0.169-0.169-0.253
			c-1.983-2.784-3.501-5.188-4.345-7.044c-4.851-10.461-15.649-73.943-17.885-126.88c-0.422-9.702-0.506-19.108-0.253-27.713
			c0.675-21.385,1.476-43.151,2.235-63.018c0.464-14.046,0.886-27.122,1.181-38.553c0.126-5.652,2.025-10.799,5.399-15.48
			c5.442-7.551,14.763-13.835,26.911-18.981c80.607-34.377,284.931-19.403,295.012,5.273c1.603,3.923,2.953,11.051,4.092,20.458
			c2.657,22.567,3.965,58.505,4.302,96.088C567.248,360.708,549.996,451.354,546.622,468.142z"/>
		<path style="fill:#727E93;" d="M209.841,156.189c-6.846,13.976-3.813,30.527-0.978,45.83
			c8.558,46.181,13.953,92.948,16.134,139.865c17.064-52.367,30.888-105.789,41.366-159.86
			c73.391,29.807,152.809,44.686,232.013,43.465c7.499-0.116,15.516-0.236,21.818,3.829c5.219,3.367,8.378,9.064,11.328,14.53
			c12.416,23.003,25.357,75.939,32.371,107.017c8.979-40.183,19.818-117.73,14.911-158.527
			c-1.958-16.281-16.01-35.745-26.222-48.576c-13.255-16.653-35.238-23.262-56.005-27.929
			C413.183,97.092,323.341,95.636,244.647,129C230.788,134.875,216.463,142.671,209.841,156.189z"/>
		<path style="fill:#8892A5;" d="M557.678,336.313c3.009-4.312,6.119-8.725,10.612-11.771c4.493-3.046,10.742-4.471,15.758-2.21
			c6.694,3.018,8.524,10.88,9.009,17.695c1.681,23.658-3.262,47.244-8.182,70.52c-0.934,4.421-1.951,9.015-4.931,12.598
			c-3.477,4.18-9.538,6.421-15.211,5.625c-5.673-0.796-10.722-4.596-12.67-9.538"/>
		<path style="fill:#8892A5;" d="M230.445,336.726c-3.009-4.313-6.119-8.726-10.612-11.771s-10.742-4.47-15.758-2.209
			c-6.694,3.018-8.525,10.879-9.009,17.695c-1.681,23.657,3.262,47.243,8.182,70.519c0.934,4.421,1.952,9.015,4.931,12.597
			c3.477,4.18,9.538,6.422,15.21,5.625c5.674-0.796,10.722-4.596,12.671-9.537"/>
		<path style="fill:#727E93;" d="M207.75,343.331c4.999-3.88,12.804-1.395,16.718,3.578c3.914,4.973,4.934,11.566,5.723,17.845
			c1.242,9.885,2.244,19.798,3.246,29.709c0.39,3.858,0.667,8.139-1.7,11.21c-3.1,4.022-9.692,3.869-13.658,0.697
			c-3.965-3.172-5.688-8.422-6.179-13.476c-0.446-4.595-0.038-9.271,1.198-13.719c0.545-1.962,1.343-4.006,3.016-5.165
			c1.673-1.16,4.433-0.908,5.264,0.951c-0.611-5.129-1.359-10.584-4.708-14.516c-3.349-3.932-10.276-5.226-13.506-1.195
			C202.986,353.507,203.211,346.854,207.75,343.331z"/>
		<path style="fill:#727E93;" d="M581.83,343.331c-4.999-3.88-12.804-1.395-16.718,3.578c-3.914,4.973-4.934,11.566-5.722,17.845
			c-1.242,9.885-2.245,19.798-3.246,29.709c-0.39,3.858-0.667,8.139,1.7,11.21c3.1,4.022,9.693,3.869,13.658,0.697
			c3.965-3.172,5.688-8.422,6.179-13.476c0.446-4.595,0.038-9.271-1.198-13.719c-0.545-1.962-1.343-4.006-3.017-5.165
			c-1.673-1.16-4.433-0.908-5.264,0.951c0.611-5.129,1.359-10.584,4.708-14.516c3.349-3.932,10.277-5.226,13.506-1.195
			C586.593,353.507,586.368,346.854,581.83,343.331z"/>
		<path style="fill:#727E93;" d="M303.107,246.011c-14.504,11.328-39.33,3.904-45.235-13.526
			c-5.891,8.204-19.615,8.989-26.405,1.512c-6.789-7.478-4.687-21.062,4.046-26.137c-7.496-2.61-12.674-10.71-11.896-18.609
			c0.778-7.9,7.436-14.833,15.298-15.93c-6.951-7.096-13.587-15.59-14.033-25.513c-0.447-9.923,8.329-20.576,18.025-18.422
			c-5.702-4.872-3.592-14.845,2.201-19.61c5.793-4.764,13.719-5.748,21.177-6.543c-6.613-0.126-10.606-8.611-8.242-14.788
			c2.364-6.177,8.848-9.847,15.272-11.418c16.473-4.029,36.712,1.568,48.689-10.437c2.471-2.477,4.385-5.587,7.358-7.431
			c4.872-3.023,11.129-1.872,16.802-2.7c5.673-0.828,11.888-6.181,9.415-11.353c7.817,2.592,16.33,3.053,24.381,1.319
			c3.008-0.648,6.11-1.597,9.1-0.872c2.594,0.629,4.727,2.444,6.593,4.353c13.026,13.323,17.326,32.709,20.228,51.115
			c4.142,26.272,6.581,52.811,7.296,79.398c0.375,13.918,0.116,28.515-6.539,40.744c-7.875,14.471-23.472,23.151-39.227,27.966
			c-24.083,7.36-50.365,7.344-74.438-0.043"/>
		<path style="fill:#727E93;" d="M503.506,246.011c14.503,11.328,39.33,3.904,45.235-13.526c5.891,8.204,19.615,8.989,26.404,1.512
			c6.789-7.478,4.687-21.062-4.046-26.137c7.496-2.61,12.674-10.71,11.896-18.609c-0.778-7.9-7.436-14.833-15.298-15.93
			c6.95-7.096,13.587-15.59,14.033-25.513c0.447-9.923-8.329-20.576-18.026-18.422c5.703-4.872,3.593-14.845-2.2-19.61
			c-5.793-4.764-13.719-5.748-21.177-6.543c6.613-0.126,10.606-8.611,8.242-14.788c-2.364-6.177-8.848-9.847-15.272-11.418
			c-16.473-4.029-36.712,1.568-48.689-10.437c-2.471-2.477-4.385-5.587-7.358-7.431c-4.872-3.023-11.129-1.872-16.803-2.7
			c-5.673-0.828-11.887-6.181-9.414-11.353c-7.817,2.592-16.33,3.053-24.381,1.319c-3.007-0.648-6.11-1.597-9.1-0.872
			c-2.594,0.629-4.727,2.444-6.594,4.353c-13.026,13.323-17.326,32.709-20.228,51.115c-4.142,26.272-6.581,52.811-7.296,79.398
			c-0.375,13.918-0.116,28.515,6.539,40.744c7.875,14.471,23.472,23.151,39.227,27.966c24.083,7.36,50.365,7.344,74.438-0.043"/>
	</g>
	<path style="clip-path:url(#SVGID_2_);fill:#A7B2C4;" d="M396.878,481.986c-7.714-0.307-15.002-5.166-18.844-12.135
		c-4.627-8.393-10.302-24.539-6.448-43.277c4.587-22.3,17.742-35.919,30.277-51.572c12.536-15.653,54.464-46.476,38.427-78.377
		c-4.71-9.37-11.886-15.607-22.367-15.962c-10.481-0.354-20.783,3.097-30.071,7.967c-13.446,7.05-26.241,19.088-26.613,34.266
		c-0.248,10.141,5.13,20.412,2.113,30.097c-2.869,9.211-13.279,14.845-22.868,13.778c-9.588-1.067-17.931-7.83-22.615-16.264
		c-4.683-8.435-6.094-18.344-5.905-27.99c0.73-37.162,26.424-72.757,61.701-84.465c35.277-11.708,77.579,1.806,98.953,32.214
		c12.954,18.43,16.995,40.618,9.944,61.575c-8.782,26.107-19.851,39.673-54.128,76.757c-10.263,11.105-16.274,17.563-10.776,49.522
		C418.794,464.716,417.769,482.817,396.878,481.986z"/>
	<path style="clip-path:url(#SVGID_2_);fill:#A7B2C4;" d="M423.966,529.848c3.07-6.06,2.964-13.513,0.19-19.714
		c-3.343-7.472-10.414-13.064-18.366-15.006c-7.952-1.942-16.625-0.323-23.578,3.997c-8.189,7.365-12.1,19.184-9.922,29.98
		c1.037,5.138,3.519,10.192,7.793,13.226c5.472,3.884,12.807,3.818,19.414,2.646C409.292,543.238,419.47,538.721,423.966,529.848z"
		/>
</g>
</svg>
