<svg xmlns="http://www.w3.org/2000/svg" xmlns:xlink="http://www.w3.org/1999/xlink" viewBox="0 0 800 800"><path fill="#a7b2c4" d="M0 0h800v800H0z"/><defs><path id="a" d="M0 0h800v800H0z"/></defs><clipPath id="b"><use overflow="visible" xlink:href="#a"/></clipPath><g clip-path="url(#b)"><path fill="#8892a5" d="M558.98 419.82c-3.2 8.11-35.71 43.7-64.9 74-22.67 23.65-43.34 44.11-46.37 45.75-6.93 3.77-83.84 3.77-93.93 0-10.08-3.77-106.92-115.7-116.1-135.66-5.58-12.06-5-63.84-3.32-117.87 1.1-35.47 2.66-71.95 3.32-98.72 1.76-73.43 305.97-58.22 318.14-28.37 1.56 3.8 2.87 10.74 3.98 19.88 2.58 21.93 3.85 56.86 4.18 93.4.66 66.94-1.8 139.39-5 147.59z"/><path fill="#8892a5" d="M400.64 658c-19.5 3.23-75.06-15.5-57.24-33.58 9.94-10.09 13.63-39.93 14.91-64.28.54-9.64.69-18.45.69-24.8 0-6.36-.1-10.34-.1-10.34h83.72c-.05 1.27-.1 2.62-.15 4.02-.44 18.49 1.87 45.5 6.35 65.8 3 13.4 6.89 23.86 11.61 27.02 23.63 16.03-40.3 32.96-59.8 36.16z"/><path fill="#727e93" d="M448.82 594.82c-10.53-16.1-51.96-42.27-90.05-45.06.54-9.64.23-8.07.23-14.43a715.4 715.4 0 0178.45-6.35c1.67-.04 3.35-.08 5.02.04-.44 18.49 1.87 45.5 6.35 65.8zM600.24 783.41c-9.68 61.62-11.44 79.41-11.44 79.41s-100.36 14.19-190.96 14.19c-90.57 0-182.98-12.06-182.98-12.06s-8.32-34.1-6.6-91.95c1.72-57.81 23.4-74.75 71.5-106.94 21.2-14.19 33.5-23.66 46.4-33.15 14.2-10.44 22.71-18.06 22.71-18.06s17.73 25.76 53.89 25.76c26.97 0 52.2-25.76 52.2-25.76s7.7 7.25 24.43 20.54c10.66 8.48 25.01 19.43 43.34 32.55 65.84 47.02 83.17 79.68 77.51 115.47z"/><path fill="#8892a5" d="M479.4 635.39c-2.14 6.68-12.77 16.25-17.57 21.38-8.6 9.18-20.37 14.92-32.6 17.91-24.8 6.07-52.14.9-73.05-13.73-9.35-6.56-25.6-17.7-30.02-28.04 14.22-10.4 22.71-18.06 22.71-18.06s17.72 25.77 53.88 25.77c26.98 0 52.2-25.77 52.2-25.77s7.71 7.25 24.44 20.54z"/><path fill="#727e93" d="M219 140.4c-6.65 13.59-3.7 29.67-.94 44.55a1001.8 1001.8 0 0115.68 135.94 1299.63 1299.63 0 0040.2-155.38 577.6 577.6 0 00225.51 42.25c7.29-.11 15.08-.23 21.2 3.72 5.08 3.27 8.15 8.81 11.02 14.12 12.07 22.36 21.25 90.32 28.07 120.53 2.09-39.89 12.3-133.46 7.53-173.11-1.9-15.83-5.2-32.23-15.13-44.7-12.89-16.18-34.25-22.6-54.44-27.14-81.05-18.22-168.38-19.63-244.86 12.8-13.47 5.7-27.4 13.28-33.83 26.42z"/><path fill="#8892a5" d="M562.1 296.63c2.92-4.2 5.94-8.48 10.3-11.44 4.37-2.96 10.45-4.35 15.32-2.15 6.5 2.94 8.29 10.58 8.76 17.2 1.63 23-3.17 45.92-7.95 68.54-.91 4.3-1.9 8.77-4.8 12.25-3.38 4.06-9.27 6.24-14.78 5.46-5.52-.77-10.42-4.46-12.32-9.27M234.37 297.03c-2.93-4.2-5.95-8.48-10.32-11.44-4.36-2.96-10.44-4.34-15.31-2.15-6.51 2.94-8.29 10.58-8.76 17.2-1.63 23 3.17 45.92 7.95 68.54.91 4.3 1.9 8.77 4.8 12.25 3.37 4.06 9.27 6.24 14.78 5.47 5.51-.78 10.42-4.47 12.31-9.27"/><path fill="#727e93" d="M212.3 303.45c4.87-3.77 12.45-1.35 16.26 3.48 3.8 4.83 4.8 11.24 5.56 17.34 1.2 9.61 2.18 19.24 3.15 28.88.38 3.75.65 7.91-1.65 10.9-3.01 3.9-9.42 3.75-13.27.67-3.86-3.08-5.53-8.18-6-13.1a36.72 36.72 0 011.16-13.33c.53-1.9 1.3-3.9 2.93-5.02 1.62-1.13 4.3-.89 5.11.92-.6-4.98-1.32-10.29-4.57-14.1-3.26-3.83-10-5.09-13.13-1.17-.17-5.58.05-12.05 4.46-15.47zM585.57 303.45c-4.86-3.77-12.45-1.35-16.25 3.48-3.8 4.83-4.8 11.24-5.56 17.34-1.21 9.61-2.19 19.24-3.16 28.88-.38 3.75-.65 7.91 1.65 10.9 3.02 3.9 9.42 3.75 13.28.67 3.85-3.08 5.53-8.18 6-13.1.44-4.46.04-9-1.16-13.33-.53-1.9-1.3-3.9-2.93-5.02-1.63-1.13-4.31-.89-5.12.92.6-4.98 1.32-10.29 4.58-14.1 3.25-3.83 9.99-5.09 13.13-1.17.17-5.58-.05-12.05-4.46-15.47z"/><path fill="#727e93" d="M558.98 419.82c-5.7 14.47-104.34 115.98-111.27 119.75-6.93 3.77-83.84 3.77-93.92 0-10.09-3.77-106.93-115.7-116.11-135.66-5.58-12.05-5-63.84-3.32-117.87 1.31-2.3 8.77-8.41 10.08-10.7 0 0-2.52 76.34 8.74 95.69 11.25 19.34 27.38 35.3 44.11 50.14 3.03 2.7 6.27 5.45 10.29 6.27 7.05 1.48 13.65-3.48 19.6-7.62 38.2-26.61 93.43-25.8 130.82 1.96 3.98 2.96 7.87 6.28 12.63 7.75 9.26 2.95 19.1-1.56 27.8-5.98 12.79-6.52 26.11-13.5 34.56-25.18 7.74-10.78 10.37-24.3 12.62-37.39 5.13-29.76 9.27-59.73 12.47-89.82 2 .2 3.97.57 5.9 1.06.66 66.95-1.8 139.4-5 147.6z"/><path fill="#8892a5" d="M375.16 428.46c3.88-2.57 37.65-1.53 49.03 2.23 6.93 2.28 26.7 29.74 26.7 36.7 0 8.32-11.32 30.65-16.5 33.24-5.17 2.58-26.33 3.45-26.59-4.25-.47-14 0 0 0 0s-20.18-1.56-20.7.51c-.51 2.07 4.59-.53-3.17 1.54-7.77 2.07-22.49 4.88-28.11-3.63-5.99-9.04-10.81-23.51-10.81-29.65 0-7.93 21.24-30.79 30.15-36.7z"/><path fill="#727e93" d="M275.01 213.92c-16.32-29.69-33.1-61.19-32.27-95.05.84-33.87 26.62-69.62 60.47-68.39 5.91.22 11.83 1.52 17.68.68 11.71-1.67 20.39-11.24 29.89-18.28 21.42-15.9 51.25-19.66 75.95-9.6 15.26 6.21 28.19 17.09 43.07 24.16 27.74 13.19 61.93 11.8 88.5-3.58a50.24 50.24 0 01-25.93 23.04 47.96 47.96 0 0031.37-.87A53.81 53.81 0 01536.2 90c8.6.6 17.2 1.19 25.8 1.78a64.92 64.92 0 01-29.7 23.05c6.74.21 13.47.43 20.2.65a47.53 47.53 0 01-33.27 30.43c4.34.06 8.69.12 13.03.17-14.23 20.54-28.46 41.07-42.7 61.61-4.06 5.87-8.28 11.89-14.3 15.74-4.99 3.2-10.86 4.67-16.65 5.97a417.4 417.4 0 01-128.8 8.38c-14.73-1.33-30.12-3.75-41.81-12.79s-17.96-26.7-9.91-39.1"/><path fill="#a7b2c4" d="M398.41 431.35c-7.5-.3-14.58-5.02-18.31-11.8-4.5-8.15-10.02-23.84-6.27-42.06 4.46-21.67 17.24-34.9 29.43-50.12 12.18-15.21 52.93-45.17 37.35-76.18-4.58-9.1-11.56-15.17-21.74-15.51-10.2-.35-20.2 3-29.23 7.74-13.07 6.85-25.5 18.55-25.87 33.3-.24 9.86 4.99 19.84 2.06 29.26-2.8 8.95-12.91 14.43-22.23 13.39-9.32-1.04-17.43-7.61-21.98-15.8-4.55-8.2-5.93-17.84-5.74-27.21.7-36.12 25.68-70.72 59.97-82.1 34.29-11.38 75.4 1.75 96.18 31.31 12.59 17.91 16.52 39.48 9.66 59.85-8.53 25.37-19.29 38.56-52.6 74.6-9.98 10.8-15.82 17.08-10.48 48.14 1.1 6.4.1 24-20.2 23.2zM424.74 477.87c2.98-5.89 2.88-13.13.18-19.16-3.24-7.26-10.12-12.7-17.85-14.58-7.73-1.89-16.16-.32-22.91 3.88a31.58 31.58 0 00-9.65 29.14c1.01 5 3.42 9.9 7.58 12.86 5.32 3.77 12.45 3.7 18.87 2.57 9.52-1.7 19.41-6.08 23.78-14.7z"/></g></svg>