<svg xmlns="http://www.w3.org/2000/svg" viewBox="0 0 553.21 494.43"><circle cx="274.96" cy="247.21" r="247.21" fill="#fff"/><path d="M149,169.38v-.49a28.09,28.09,0,0,1,5.95-3.68c1.26-.56,2.52-1.12,3.76-1.71.9-.43,1.23-.84,1.22-1.75a1.87,1.87,0,0,0-.66-1.73,14.62,14.62,0,0,1-1.59-1.56,3.94,3.94,0,0,1-.27-4.22c1.57-2.8,4-4.88,6.16-7.13a31.37,31.37,0,0,1,3.93-3.06,47.89,47.89,0,0,1,7.62-4.41,86.76,86.76,0,0,1,9.44-4.19,61.89,61.89,0,0,0,6.77-2.8c.87-.42,1.61-.83,1.37-2.07a10.22,10.22,0,0,1,.61-5.2,27.24,27.24,0,0,1,5.93-9.94c4.38-4.68,9.32-8.81,13.32-13.85a18.18,18.18,0,0,0,3.42-6c.15-.5.28-.61.77-.66a25,25,0,0,0,6.93-1.81,7.72,7.72,0,0,1,7.34.16c.47.29,1.3.68,1.37-.51a21.48,21.48,0,0,1,5.12-4.31A30.24,30.24,0,0,1,250.24,85c.66,0,1.45.23,2,0a5.47,5.47,0,0,1,3.29-.42,14.22,14.22,0,0,0,3.27-.52c1.57-.23,3.25-.13,4.69-.67.91-.34,1.08.21,1.16.51.28,1,.29,2,.56,3,.45,1.6,1,3.09,2.84,3.77,1.57.59,3,.44,3.9-.71,1.55-2,3.86-7.07,4.1-9.7a1.54,1.54,0,0,1,1.13-1.48,12.08,12.08,0,0,1,7.22-.23c2.4.58,4,2.12,5.61,3.8-.12.8.44.77.92.7.85-.12,1.68-.36,2.53-.48,1.5-.19,3.19,0,4.46-.6,1.46-.72,2.93-.16,4.41-.77s3.25-.12,4.91-.12,3.31,0,5,0a26.47,26.47,0,0,1,6.55,1,44.23,44.23,0,0,1,11.8,4.46A2.17,2.17,0,0,1,331.75,88a6.18,6.18,0,0,1,.41,2.3,7.91,7.91,0,0,0,1,3.79c.26.64.7,1.33,1.65.51a2,2,0,0,1,1.62,0c1.84.64,3.77.83,5.64,1.33.92.24,1.28.49,1.53,1.46a8.52,8.52,0,0,0,4.87,5.48,51.32,51.32,0,0,0,5.36,2c1.68.59,1.73.24,1.61,2.05A9.29,9.29,0,0,0,357,113.2a21.43,21.43,0,0,0,2.07,2.85c2.2,2.18,4.55,4.21,6.78,6.36a14.25,14.25,0,0,1,4,6.76c.2,1,.45,1,1.2,1,2.32,0,4.63,0,6.95,0,.58,0,.68.22.93.75a17,17,0,0,0,5.68,6.33,17.07,17.07,0,0,1,4.12,4.23,8.94,8.94,0,0,1,1.55,6.29,3.39,3.39,0,0,0,.87,2.85,33.2,33.2,0,0,0,4.59,4.52c1.68,1.21,3,2.78,4.5,4.09a1.19,1.19,0,0,1,.39,1.52,7.74,7.74,0,0,0-.31,5.26,14.24,14.24,0,0,1-.12,6.81c-.3,1.17-.28,2,.4,2.64a8.31,8.31,0,0,0,2.08,1.57,11.39,11.39,0,0,1,2.76,2.31c.39.36.2.64,0,1-.81,1.23-1.5,2.53-2.31,3.75a16.19,16.19,0,0,0-2.32,7.47,6.32,6.32,0,0,0,.61,3.43c.64,1.2,0,1.31-.79,1.68a22.43,22.43,0,0,0-6.62,5c-1.06,1.14-1,2.1.19,3.06a12.46,12.46,0,0,0,1.61.88c.8.44,1.31,1.25.95,1.67-.51.61-1,.2-1.66-.07-1.94-.79-3.94-1-5.79.38-2.05,1.55-4,3.26-6.42,4.26a1.12,1.12,0,0,0-.46,1c.63,1.6.63,3.64,2.78,4.26.86,1.13,2.39.56,3.42,1.36.31.24,1,0,1.46.05,2.66.15,5.33.32,8,.49a.65.65,0,0,1,.24,0,3.61,3.61,0,0,1,1.23.59,1.71,1.71,0,0,1,.2,1.13,7.16,7.16,0,0,0,1,3.57,3.22,3.22,0,0,0,2,1.75,9.93,9.93,0,0,0,3.3.38c.85,0,.7.56.63,1s-.6,1.2-.42,1.51c.78,1.31.27,2.7.45,4s.05,2.69.66,3.68c.72,1.19-.12,1.12-.64,1.42-.27.15-.6.16-.87.29-1.37.63-2.93.47-4.31,1a19.1,19.1,0,0,0-2.89,1.37.94.94,0,0,0,0,1.59c2.79,1.72,4.92,4.18,7.29,6.38a7.4,7.4,0,0,1,1.59,8.46c-.69,1.54-1.26,2.05-2.77,1.48s-3.2-.21-4.78-.45c-1.31-.2-2.22.66-3.3,1-.19.07-.32.48-.36.75a3.86,3.86,0,0,0,1.13,3c1.46,1.75,1.37,3.7,1.32,5.68a1.52,1.52,0,0,1-1.65,1.47c-2-.31-3.86.31-5.74.62a9.39,9.39,0,0,0-3.32.9,7.24,7.24,0,0,0-1.5,1.12c-.11.11.33.64.29.94-.26,2,1.34,4,0,6.05,0,2.89-1.54,5.05-3.46,7-.41.42-.86.79-1.22,1.24-1.15,1.43-1.09,2.42.2,3.73.4.41.82.81,1.22,1.23,1.32,1.37,1.1,2.43-.71,3.24a6.09,6.09,0,0,0-2.26,1.19c-.81.86-1,1.25-.11,1.9.37.28.88.4,1.18.73a22.27,22.27,0,0,0,5.34,3.9,33.29,33.29,0,0,1,3.28,2.24c.56.43,1.37,1,1,1.79-.86,1.73-.52,3.54-.37,5.27.08,1,.07,1.27-.9,1.74a26.27,26.27,0,0,0-8.5,6.45,2,2,0,0,0-.6,1c-.07,1.51-.11,3,1.07,4.28a12.77,12.77,0,0,1,2.1,3.57,3.88,3.88,0,0,1,.2,2.59c-.25.67-.35,1.83-1.56,1.85-1.86,1.5-3.74,3-5.57,4.5a12.33,12.33,0,0,0-3.88,5.34,1.48,1.48,0,0,1-1.74,1.1c-.9-.1-2-.35-2.68.05-1,.62-2.06.27-3.07.43s-2,.36-3,.48c-1.58.2-3.28.06-4.72.61-1,.38-2,.18-3,.6s-1.15.4-1.68-.65c-.62-1.25-1.55-2.38-1.31-3.93.09-.58-.4-.78-.75-.53-1.48,1.05-3.28.88-4.9,1.36-1.22.36-2.63,0-4,.09s-2.5.38-3.77.46-2.81,0-4.21,0a5.65,5.65,0,0,0-2.57.4c-1.31.65-2.31,0-3-1.49a44,44,0,0,1-1.67-4.76c-.28-1-.69-1.51-1.5-1.07a6.18,6.18,0,0,1-3.79.4,9.51,9.51,0,0,1-5.17-1.8,13.07,13.07,0,0,1-4.52-5.79,2.94,2.94,0,0,1,0-2.62c.73-1.51,1.67-3,1.54-4.82.95-.87.06-2.18.57-3s.29-1.56.43-2.32a14,14,0,0,0,.46-2.53,15.63,15.63,0,0,1,.8-3.9c.31-1.27-.32-2.29-1.58-1.92s-2.59.15-3.77.48a19.79,19.79,0,0,0-7.91,4.26c-3.53,3.16-5.23,6.09-7.19,10.17-.76,1.59-1.52,3.18-2.14,4.82s-.85,3.59-1.45,5.35c-.47,1.4-.13,3.11-.71,4.43s-.07,2.95-.74,4.41c-.5,1.1,0,2.61-.12,3.93s-.34,2.51-.46,3.77a11.08,11.08,0,0,0,0,2.23c.09.76.43,1.51.46,2.28.2,4.31,0,8.62.43,12.95.6,5.85-.15,11.76.5,17.66s-.35,11.61.53,17.42c.43,2.78-.1,5.63.45,8.49.49,2.5-.1,5.15.55,7.72.31,1.21-.29,2.59.54,3.76-.13,2.49.61,4.86,1,7.28a19.39,19.39,0,0,0,1.47,5.09,2.63,2.63,0,0,0,.35.41,2.49,2.49,0,0,0,.14-.44,11.37,11.37,0,0,0-.47-3.52,5.61,5.61,0,0,0-.47-2.3c-.38-.62,0-1.48-.41-2.31-.54-1.25.19-2.8-.49-4.14.78-1.13.3-2.39.32-3.58s.6-2.44.59-3.76a7.28,7.28,0,0,1,2.41-5.94,54.85,54.85,0,0,0,4-4,9.05,9.05,0,0,0,1.4-1.9c.35-.63-.14-1.08-1-1-.18,0-.47,0-.51-.06-.67-1.33-2-2.16-2.78-3.32a2.78,2.78,0,0,1-.23-3.27,11,11,0,0,0,1-3.77c.24-1.58.83-2.14,2.48-2.27.73-.06,1.87.69,2.13-.8,0-.08.58-.21.62-.14.81,1.25,1.57-.5,2.35,0a3.7,3.7,0,0,0,.38-.74c.25-.87.49-1,1-.46.38.39.64.9,1,1.32.12.16.42.4.49.36,1.19-.73,2.26-.78,3.16.44,0,0,.11,0,.17,0,1.1,0,1.07,0,1.16,1a.87.87,0,0,0,.51.6,7.24,7.24,0,0,0,2.27.47c.78,0,.94.39,1.37.9,1,1.23,1.11,1.16-.24,1.92-1.56.86-3.49,1.45-2.94,3.9-.58.37-.3,1.11-.56,1.5-.48.7-.64,1.2-.06,1.91.45.54-.14,1.08-.48,1.14-1.17.2-1.3,1.27-1.87,2-.19.23-.21.58-.39.83a.67.67,0,0,1-1,.24,2.38,2.38,0,0,0-3.39.7c-.25.32-.64.55-.85.89a1.7,1.7,0,0,0-.29,1.1c.3,1.11.73,2.18,1.08,3.27a19.54,19.54,0,0,0,1.73,3.26,8.1,8.1,0,0,1,.63,2c.4,1.55-.66,2.66-1.54,3.54s0,1.46.18,2.09a1.11,1.11,0,0,0,1.62.64c1.5-1,3.28-1.21,4.83-2.17,2-1.22,4.1-2.7,6.75-2.26a2.17,2.17,0,0,0,.94-.11c1.85-.5,2.44-.31,3.9,1.13a1.51,1.51,0,0,0,1,.45,11.24,11.24,0,0,0,2.49-.57c.73-.27.46-1.16.75-1.65a37.42,37.42,0,0,0,2.59-6.13,5.76,5.76,0,0,1,3.17-3c.11-.05.31,0,.45.1s0,.23-.05.34c-.46,1.13-.91,2.27-1.41,3.39a57.22,57.22,0,0,0-2.38,5.71c-.84,2.63-1.18,2.8-4.1,2.85-.67,0-1.43-.1-1.67.66-.08.24.67.65.75,1a3.8,3.8,0,0,0,1.63,2c1.38,1.18,2.87,2.24,4.31,3.35s3,2.4,4.51,3.49a25.53,25.53,0,0,0,3.42,1.94,3,3,0,0,0,4.07-.78c.35-.41.57-.38,1-.13a1.74,1.74,0,0,0,1.11.27c.82-.17,1.6-.57,2.42-.72a16.46,16.46,0,0,1,2.33-.11,9.31,9.31,0,0,1-.15,2.32c-.32,1-.44,2.17-1.37,2.91a28.77,28.77,0,0,1-3.74,2.32c-1,.55-2.16-.26-2.95.74,0,.05-.43-.12-.61-.25-.76-.57-1.52-1.14-2.24-1.76-.33-.28-.53-.55-.9-.06a4.36,4.36,0,0,1-1.05,1.05c-1.37.86-2.69,1.93-4.37,2-2.4.1-4.8,0-7.2,0a2.52,2.52,0,0,1-1.5-.6,2.7,2.7,0,0,1-1-3.49c.59-1.2-.05-1.76-.48-2.46a42.19,42.19,0,0,1-2.54-3.67c-.35-.75-.41-.92-1.09-.44-1.54,1.07-3.09,2.11-4.64,3.16-1,.65-2,1.24-2.92,1.94-1.14.88-1.07,1,.34,1.59a17.39,17.39,0,0,0,2.43,1.31c1.4.35,1.4,1.83,2.32,2.53.05,0-.12.57-.23.58a10.56,10.56,0,0,1-1.49,0c-2.81,0-5.62-.05-8.43,0a49.68,49.68,0,0,0-8.25.4c-2.59.5-5.3-.08-8,.51-2.18.47-4.47,0-6.75.47s-4.8.07-7.23.52-5.15-.17-7.74.5c-1.67.44-3.55-.26-5.24.56H256c-.16,0-.4.07-.48,0-.89-1-2-.3-3-.48a17.69,17.69,0,0,0-3-.47,10.86,10.86,0,0,1-6.64-2c-1.29-1-1.35-1.06,0-1.74.62-.3,1.28-.51,1.92-.76,2.59-1,5.35-1.14,8.07-1.47.82-.1,1.8.26,2.45-.08a5.57,5.57,0,0,1,3.29-.39c1.18.11,2.17-.48,3.28-.54a29.64,29.64,0,0,0,7.58-1.45,1.57,1.57,0,0,0,1.2-1,31.88,31.88,0,0,0,1.46-4.6c.49-2.77,1.6-5.43,1.53-8.31.79-1.08.13-2.45.57-3.48a10.63,10.63,0,0,0,.42-3.55c0-.16-.07-.39,0-.49.79-1,.54-2.19.44-3.27s.49-2.17.54-3.28a76.63,76.63,0,0,1,.41-8c.53-3.6,0-7.29.49-11a52.93,52.93,0,0,0,0-10.15c-.19-3.37.61-6.64.56-10-.07-3.72,0-7.44,0-11.16s.37-7.33-.44-11c-.34-1.55-.11-3.16-.42-4.77-.41-2.15-.64-4.36-1.05-6.53a11.12,11.12,0,0,1-.49-2.51c.09-1-.55-1.81-.58-2.78a8.73,8.73,0,0,0-.49-2.52c-1.56-4.15-2.81-8.42-4.77-12.41a42.69,42.69,0,0,0-2.18-4.06,51.09,51.09,0,0,0-6.4-8.53,2.53,2.53,0,0,0-1.93-.78c-1.92-.06-3.88.37-5.76-.45a2,2,0,0,0-1.22,0c-.22.05-.54.38-.53.56a12.69,12.69,0,0,1-.8,4.4c-.82,3.17-2.78,5.71-4.76,8.19-2.37,3-5.61,5-8.7,7.13-.49.34-1.3,1-1.94.43s-1.39-.32-2.09-.37c-.91-.07-1.95.27-2.7-.07-2.41-1.11-4.74-.23-7.06.1-1.85.26-3.61,2.17-4.24,4.06-.41,1.24-.93,1.46-2.09.84a1.21,1.21,0,0,1-.38-.5c-.34-.6-.67-1.21-1-1.82-.43-.82-.8-.89-1.25-.11-.84,1.45-2,2.66-2.94,4-1.63,2.32-3.85,4-5.7,6.06a1.18,1.18,0,0,1-.8.26c-.56-.88-1.51-.27-2.24-.65a69.57,69.57,0,0,1-6.63-3.74A21.23,21.23,0,0,0,185,327.72c-.74,0-1.49,0-2.23,0-.89,0-1.24-.39-1.53-1.18s-.47-1.76-.88-2.61c-.28-.6-.5-.77-1-.68a18.91,18.91,0,0,0-2.46.64c-2.51.85-3.43.24-3-2.32a19,19,0,0,0,.45-3.28c0-1.86,0-2-1.7-2.4a20.41,20.41,0,0,1-5.85-2.65,18.67,18.67,0,0,1-6.85-6.93,38.13,38.13,0,0,1-4-11c-.13-.6-.36-1.18-.48-1.78a4.26,4.26,0,0,0-.42-1.82c-.52-.82.26-1.81,1.32-1.68,1.34.17,2.5-.42,3.76-.55.9-.09,2-1.14,1.76-1.65a5.59,5.59,0,0,0-1.18-1.73,11.71,11.71,0,0,0-1.78-1.08c-1.29-.81-1.39-1.44-.32-2.39a6.59,6.59,0,0,1,4.06-1.56c.5,0,.77-.11.74-.67s0-1.16,0-1.74c0-.82-.06-1.66,0-2.48a13.53,13.53,0,0,1,.49-2.52,12.93,12.93,0,0,1,2.76-5.06c.32-.34.71-.57.73-1.19a3.1,3.1,0,0,0-2.29-3.23,5.56,5.56,0,0,0-2.52-.51,1,1,0,0,1-1.16-1c-.21-1.17-.31-2.35-.52-3.51a13.52,13.52,0,0,0-.75-2.91c-1.2-2.65-2.5-5.22-5.2-6.76-1.33-.76-1.33-1.11-.4-2a14.74,14.74,0,0,1,1.89-1.41,10.56,10.56,0,0,0,1.35-.9,12.19,12.19,0,0,0,1.14-1.51c-.63-.44-1.23-.93-1.89-1.3-.25-.15-.65,0-1,0h-2.24c-2,0-1.92,0-1.87-2,0-.55.39-.86.53-1.27.36-1,1.29-1.3,2-1.87a4.88,4.88,0,0,0,1.5-4.6c-.13-1.29-.49-2.43-1.94-2.9-.42-.14-.73-.65-1.06-1a1.69,1.69,0,0,1,.56-2.7,3.1,3.1,0,0,1,1.78-.52c1.82.07,3.64,0,5.46,0s1.91,0,1.66-2a3.66,3.66,0,0,1,0-.74,11.57,11.57,0,0,0-.49-4.26,48.52,48.52,0,0,0-2.32-7c-3-6.38-6.55-12.47-9.22-19-.89-2.2-1.17-4.09.09-6.19a32.22,32.22,0,0,0,1.78-4,54.35,54.35,0,0,0,1.66-5.26,6.31,6.31,0,0,0,0-3.42,2.85,2.85,0,0,0-1.72-1.66A6.1,6.1,0,0,1,149,169.38Zm128.06,133c0-1.05,0-1.88,0-2.71a6.7,6.7,0,0,0-2.62-5.1c-.34-.27-.81-.27-.84.35a3.14,3.14,0,0,1-1.6,2.77c-1.36.66-2.58,1.66-4.25,1.77a7,7,0,0,0-3,1.12c-1.51.94-1.45,1.57,0,2.79.11.1.27.17.34.3,1.21,2.17,2.82,4.07,4,6.26a16.79,16.79,0,0,0,6,6.66.9.9,0,0,0,.66.16c.15-.08.23-.4.25-.62.2-2.16-.43-4.38.51-6.49C276.24,307.14,277.41,304.71,277.06,302.41Zm17.8-.11a4.6,4.6,0,0,0-4.11,1.56,8.82,8.82,0,0,0-1.76,4.46c-.36,2.35.66,4.44,1.47,6.55a1.45,1.45,0,0,0,1.47,1,9.49,9.49,0,0,0,4.95-1.23,7,7,0,0,0,3.28-3.3,6.2,6.2,0,0,0,.2-4.92c-.63-1.45-1.06-3.18-2.92-3.68A23.92,23.92,0,0,0,294.86,302.3Zm21.91,123.21A3.61,3.61,0,0,0,318,425c.23-.21.24-.7.25-1.07,0-.12-.39-.4-.43-.36a2.62,2.62,0,0,0-.53.57c-.25.29-.5.59-.74.89a1.54,1.54,0,0,0-.17.34Zm14.29,10.69c.32-.35.6-.55.57-.64a1.33,1.33,0,0,0-.49-.59c-.05,0-.44.23-.44.35A2.64,2.64,0,0,0,331.06,436.2ZM324,421.54c-.06.06-.17.12-.16.16a1.5,1.5,0,0,0,.16.34c0-.06.16-.13.15-.17A1.61,1.61,0,0,0,324,421.54Z" fill="#52494a"/><path d="M276.34,27.58c-121.58,0-220.5,98.92-220.5,220.5s98.92,220.5,220.5,220.5,220.5-98.91,220.5-220.5S397.93,27.58,276.34,27.58Zm0,412.05c-105.62,0-191.55-85.93-191.55-191.55S170.72,56.54,276.34,56.54s191.55,85.93,191.55,191.54S382,439.63,276.34,439.63Z" fill="#52494a"/><path d="M53.11,222.74h.5a7.75,7.75,0,0,1,.7,2.19q.06,38.54,0,77.08a4.38,4.38,0,0,1-1.54,3c-2.64,2.11-5.48,4-8.23,5.93q-21,14.94-42,29.84a6.62,6.62,0,0,1-2.16.61l26.71-58.69L0,261.46V261a5.33,5.33,0,0,0,1.09-.46q25.5-18.13,51-36.3A6.16,6.16,0,0,0,53.11,222.74Z" fill="#942c28"/><path d="M499.34,223.73c7.08,5.12,14.14,10.28,21.24,15.36,10.29,7.36,20.6,14.66,30.9,22,.52.37,1,.78,1.73,1.34-9.07,7.09-18,14.06-27.1,21.22l26.63,58.81-.48.45c-.69-.47-1.38-.93-2-1.41q-24.84-17.67-49.69-35.34c-.53-.38-1.11-.68-1.67-1q0-39.72,0-79.43A8.9,8.9,0,0,1,499.34,223.73Z" fill="#942c28"/><path d="M21.34,276.84q0-40.2,0-80.42a8.21,8.21,0,0,1,.48-2c.5.51,1,1.07,1.52,1.53,9.77,8,19.53,16.08,29.35,24a4.06,4.06,0,0,1,1.66,3.56q-.06,38.71,0,77.43c0,.68-.11,1.36-.21,2.39-5.66-4.64-11-9-16.38-13.41S26.81,281.22,21.34,276.84Z" fill="#681a16"/><path d="M498.85,304.64v-81.9l32.25-26.47a6.71,6.71,0,0,1,.7,2.06q.06,38.88,0,77.78a4.54,4.54,0,0,1-1.44,3.08c-8.55,7.12-17.19,14.15-25.84,21.18C502.67,301.86,500.73,303.22,498.85,304.64Z" fill="#681a16"/><rect x="20.68" y="192.6" width="510.76" height="82.4" fill="#d13a32"/><path d="M102,246l1.06-.72,1.78-1.17,2.19-1.49c.78-.54,1.55-1.09,2.31-1.64l.2-1.65a55.29,55.29,0,0,1,1.72-9.34,48,48,0,0,1,2.8-7.68,34.62,34.62,0,0,1,3.51-6,26.7,26.7,0,0,1,3.88-4.3,15.66,15.66,0,0,1,3.9-2.6,9,9,0,0,1,3.6-.86,5.3,5.3,0,0,1,2.23.46,4.75,4.75,0,0,1,1.75,1.38,7.13,7.13,0,0,1,1.14,2.31,11.45,11.45,0,0,1,.41,3.22,18,18,0,0,1-.68,4.73,28.11,28.11,0,0,1-1.93,5,39.56,39.56,0,0,1-3,5,46,46,0,0,1-3.87,4.83,46.55,46.55,0,0,1-4.58,4.4,42.29,42.29,0,0,1-5.1,3.7q0,1.49-.09,2.34c0,.57,0,1,0,1.31s0,.5,0,.62v.26a.87.87,0,0,0,.09.4.62.62,0,0,0,.34.29,2.47,2.47,0,0,0,.69.17,8.91,8.91,0,0,0,1.16.06,10.91,10.91,0,0,0,2.93-.53l8.12-2.33.39-.07a2.36,2.36,0,0,1,.37,0,2.13,2.13,0,0,1,1,.23,2.27,2.27,0,0,1,.73.61,2.68,2.68,0,0,1,.43.9,3.68,3.68,0,0,1,.15,1,3,3,0,0,1-.15,1,3,3,0,0,1-.43.86,2.83,2.83,0,0,1-.73.69,2.71,2.71,0,0,1-1,.39q-2.37.94-4.85,1.69c-.71.22-1.45.42-2.24.62s-1.58.38-2.4.54-1.64.28-2.47.37a20.11,20.11,0,0,1-2.41.15,6.24,6.24,0,0,1-3-.62,4.78,4.78,0,0,1-1.81-1.67,7,7,0,0,1-.94-2.44,16.13,16.13,0,0,1-.26-2.93c-1.39,1-2.57,1.82-3.54,2.42a5.4,5.4,0,0,1-1.87.9,1.31,1.31,0,0,1-.79-.28,3.3,3.3,0,0,1-.69-.74,3.77,3.77,0,0,1-.49-1,3.7,3.7,0,0,1-.18-1.13,3.41,3.41,0,0,1,.11-.9A1.1,1.1,0,0,1,102,246Zm13.76-8.51c.83-.85,1.69-1.79,2.58-2.8s1.79-2.07,2.67-3.17,1.73-2.24,2.54-3.4a39.1,39.1,0,0,0,2.21-3.45,30.4,30.4,0,0,0,1.65-3.35,12.63,12.63,0,0,0,.86-3.07c.05-.33.08-.64.1-.94s0-.57,0-.83a4.08,4.08,0,0,0-.38-2,1.15,1.15,0,0,0-1-.63,3.14,3.14,0,0,0-1.81.81A12.33,12.33,0,0,0,123,217a29.71,29.71,0,0,0-2.3,3.64,39.86,39.86,0,0,0-2.16,4.75,46.81,46.81,0,0,0-1.73,5.7A44.86,44.86,0,0,0,115.77,237.53Z" fill="#fff"/><path d="M141.62,254a9.08,9.08,0,0,1-4-.82,8.22,8.22,0,0,1-2.84-2.22,9.48,9.48,0,0,1-1.71-3.22,12.84,12.84,0,0,1-.57-3.84,17.31,17.31,0,0,1,1.08-5.84,15.27,15.27,0,0,1,1.37-2.78,10.94,10.94,0,0,1,1.93-2.33,9,9,0,0,1,2.47-1.6,7.63,7.63,0,0,1,3-.59,6.88,6.88,0,0,1,2.52.44,6.11,6.11,0,0,1,2,1.22,5.6,5.6,0,0,1,1.34,1.9,6.3,6.3,0,0,1,.48,2.5,6.76,6.76,0,0,1-.73,3,11.11,11.11,0,0,1-2,2.84,14.08,14.08,0,0,1-3.12,2.37,16.54,16.54,0,0,1-3.91,1.63,8.26,8.26,0,0,0,.71,1.09,3.75,3.75,0,0,0,.72.68,2.57,2.57,0,0,0,.76.34,4,4,0,0,0,.86.09,9,9,0,0,0,3.07-.58,20.65,20.65,0,0,0,3.14-1.45,25.22,25.22,0,0,0,2.88-1.91,21.32,21.32,0,0,0,2.3-1.95l3.13,3.25a31.82,31.82,0,0,1-4.53,3.9c-.69.49-1.44,1-2.24,1.43a19.69,19.69,0,0,1-2.52,1.25,16.17,16.17,0,0,1-2.74.87A12.18,12.18,0,0,1,141.62,254Zm-3.22-11.39a4.76,4.76,0,0,0,1.9-.45,8.5,8.5,0,0,0,1.92-1.15,8.26,8.26,0,0,0,1.49-1.53,2.73,2.73,0,0,0,.6-1.59,3.69,3.69,0,0,0-.39-1.8,1.17,1.17,0,0,0-1-.7,3.77,3.77,0,0,0-1.78.39,3.89,3.89,0,0,0-1.23,1,5,5,0,0,0-.8,1.41,9.57,9.57,0,0,0-.47,1.59,12.42,12.42,0,0,0-.2,1.55C138.41,241.79,138.4,242.22,138.4,242.57Z" fill="#fff"/><path d="M152.23,244.66c.9-.78,1.64-1.43,2.2-1.94s1-1,1.45-1.42A14.47,14.47,0,0,0,157,240l1.17-1.55,1.65-2.19c.64-.87,1.49-1.95,2.52-3.24a10.86,10.86,0,0,1,.7-.85,6.1,6.1,0,0,1,.86-.74,5.17,5.17,0,0,1,1.05-.53,3.64,3.64,0,0,1,1.27-.21A4.94,4.94,0,0,1,168,231a2.21,2.21,0,0,1,.92.62,1.41,1.41,0,0,1,.34.76,6.56,6.56,0,0,1,.05.69,2.39,2.39,0,0,1-.46,1.29,14.48,14.48,0,0,1-1,1.35q-.56.66-1.05,1.2a2.38,2.38,0,0,0-.57.81,7.17,7.17,0,0,0,.11,1.37,9.85,9.85,0,0,0,.29,1.22c.12.39.24.81.37,1.26s.26.95.38,1.53a18.8,18.8,0,0,1,.29,2c.07.76.11,1.65.11,2.69a14.78,14.78,0,0,1,1.88-1.06l2.1-1c.72-.34,1.47-.72,2.24-1.13a17.65,17.65,0,0,0,2.31-1.49l0,5.43a22.09,22.09,0,0,1-3.48,2.18,34.39,34.39,0,0,1-4.15,1.8,32.39,32.39,0,0,1-4.38,1.22,21.19,21.19,0,0,1-4.21.45,12.42,12.42,0,0,1-2.66-.27,7.16,7.16,0,0,1-2.17-.83,4.7,4.7,0,0,1-1.52-1.49,5,5,0,0,1-.7-2.23,5.37,5.37,0,0,1-.67.09c-.21,0-.43,0-.64,0s-.5,0-.73,0a1.11,1.11,0,0,1-.58-.18,1.05,1.05,0,0,1-.39-.51,2.88,2.88,0,0,1-.14-1,2.13,2.13,0,0,1,.29-1.08,4.28,4.28,0,0,1,.68-.89,9,9,0,0,1,.77-.67Zm3.1,3.1a1,1,0,0,1,.64.36c.23.25.51.51.81.8a5.85,5.85,0,0,0,1.07.8,2.57,2.57,0,0,0,1.38.37,3.48,3.48,0,0,0,1.57-.32,2.65,2.65,0,0,0,1-.83,3.38,3.38,0,0,0,.51-1.21,7.59,7.59,0,0,0,.14-1.45,12.16,12.16,0,0,0-.08-1.33c-.06-.45-.13-.88-.22-1.3s-.19-.8-.29-1.16l-.28-.93Z" fill="#fff"/><path d="M189.89,221.73a7.3,7.3,0,0,1,.83-3.55,7.69,7.69,0,0,1,2.35-2.58,13.7,13.7,0,0,1,3.64-1.76,29.7,29.7,0,0,1,4.67-1.08,51.66,51.66,0,0,1,5.45-.53q2.91-.15,6-.15c2.81,0,5.76.12,8.83.34a94.7,94.7,0,0,1,9.64,1.24,2.6,2.6,0,0,1,1.63.87,2.27,2.27,0,0,1,.48,1.41,2.23,2.23,0,0,1-.22.94,3.46,3.46,0,0,1-.58.85,2.74,2.74,0,0,1-.85.62,2.38,2.38,0,0,1-1,.23c-1.24,0-2.54-.07-3.89-.2s-2.75-.27-4.21-.43l-4.53-.49c-1.55-.16-3.15-.28-4.79-.36q-.45,2.72-1.12,5.84c-.45,2.09-1,4.21-1.49,6.39s-1.11,4.34-1.7,6.49-1.16,4.22-1.7,6.18-1.07,3.78-1.54,5.44-.87,3.1-1.18,4.29a5.46,5.46,0,0,1-.59,1.52,6.27,6.27,0,0,1-.9,1.2,4.11,4.11,0,0,1-1,.79,2.21,2.21,0,0,1-1,.27,3.75,3.75,0,0,1-2.28-.65,2.44,2.44,0,0,1-.9-2.11,4.06,4.06,0,0,1,.15-1c.21-1.47.48-2.91.83-4.33s.76-2.91,1.23-4.45,1-3.18,1.6-4.91,1.26-3.63,2-5.71,1.52-4.36,2.37-6.87,1.76-5.29,2.75-8.36c-.86.06-1.73.14-2.61.22s-1.74.19-2.57.33a18.46,18.46,0,0,0-2.32.52,7.79,7.79,0,0,0-1.89.8,4,4,0,0,0-1.29,1.16,2.77,2.77,0,0,0-.47,1.6s0,.21-.06.53a2.5,2.5,0,0,1-.43,1.06,3.28,3.28,0,0,1-1.15,1,4.42,4.42,0,0,1-2.24.47,4.38,4.38,0,0,1-2.25-.48,3.41,3.41,0,0,1-1.17-1.07A3.11,3.11,0,0,1,189.89,221.73Z" fill="#fff"/><path d="M240.63,248.8a21.42,21.42,0,0,1-2.17,1.71,23.26,23.26,0,0,1-2.8,1.67,20.29,20.29,0,0,1-3.07,1.27,9.56,9.56,0,0,1-3,.51,5.5,5.5,0,0,1-2.12-.35,3.47,3.47,0,0,1-1.39-1,3.79,3.79,0,0,1-.77-1.54,8.28,8.28,0,0,1-.22-2,20.47,20.47,0,0,1,.35-3.55c.23-1.35.52-2.75.86-4.19s.7-2.89,1.07-4.33.72-2.76,1-4a2.15,2.15,0,0,1,.68-1.08,4.41,4.41,0,0,1,1.15-.73,6.2,6.2,0,0,1,1.33-.41,6.64,6.64,0,0,1,1.25-.13,1.92,1.92,0,0,1,1.38.37,1.37,1.37,0,0,1,.37,1,7.26,7.26,0,0,1-.24,1.54c-.16.67-.37,1.43-.61,2.28s-.5,1.76-.77,2.73-.54,2-.78,2.94-.44,1.93-.61,2.86a14.89,14.89,0,0,0-.24,2.51,5.1,5.1,0,0,0,.24,1.73,1,1,0,0,0,1,.64,4,4,0,0,0,1.94-.6,17.89,17.89,0,0,0,2.15-1.47c.73-.57,1.44-1.17,2.14-1.78s1.31-1.14,1.84-1.58v4.92Zm-10.84-24.91a3.65,3.65,0,0,1,.25-1.26,4,4,0,0,1,.78-1.33,4.55,4.55,0,0,1,1.46-1,5.36,5.36,0,0,1,2.26-.42,6.32,6.32,0,0,1,1.6.19,3.84,3.84,0,0,1,1.31.6,2.78,2.78,0,0,1,.89,1.05,3.54,3.54,0,0,1,.32,1.55,4.83,4.83,0,0,1-.26,1.6,3.67,3.67,0,0,1-.85,1.38,4.47,4.47,0,0,1-1.47,1,5.4,5.4,0,0,1-2.12.37,4.33,4.33,0,0,1-3.15-1A3.62,3.62,0,0,1,229.79,223.89Z" fill="#fff"/><path d="M244.81,254a3.36,3.36,0,0,1-2.44-1.15,10,10,0,0,1-2-3.09,20.56,20.56,0,0,1-1.31-4.49,29.15,29.15,0,0,1-.48-5.37,38.24,38.24,0,0,1,.32-4.69q.31-2.53.92-5.23t1.44-5.4q.84-2.72,1.89-5.21a44.09,44.09,0,0,1,2.29-4.67,25.44,25.44,0,0,1,2.59-3.78,12.41,12.41,0,0,1,2.84-2.53,5.59,5.59,0,0,1,3-.92,2.94,2.94,0,0,1,1.73.47,3.32,3.32,0,0,1,1.06,1.25,6.16,6.16,0,0,1,.55,1.76,13.16,13.16,0,0,1,.16,2,21.38,21.38,0,0,1-.53,4.64,35,35,0,0,1-1.4,4.75q-.89,2.38-2,4.79T251,231.85c-.84,1.57-1.69,3.13-2.54,4.65s-1.64,3-2.38,4.47a6.12,6.12,0,0,0-.26.63c-.09.26-.17.54-.25.84s-.16.62-.24,1-.15.67-.2,1v.34a6.08,6.08,0,0,0,.13,1.22,6.76,6.76,0,0,0,.33,1.07,3.19,3.19,0,0,0,.41.75c.15.19.29.28.41.28a3.45,3.45,0,0,0,1.06-.19,11.28,11.28,0,0,0,1.26-.52c.44-.22.9-.47,1.37-.76s.92-.56,1.35-.86c1-.67,2.09-1.46,3.2-2.35l2,5.09a50.33,50.33,0,0,1-4.26,2.77c-.62.33-1.25.67-1.91,1s-1.31.63-2,.89a16,16,0,0,1-1.94.61A7,7,0,0,1,244.81,254Zm0-19.39q1.09-1.94,2.32-4.36c.81-1.61,1.58-3.28,2.31-5a53.12,53.12,0,0,0,1.89-5.13,24.44,24.44,0,0,0,1-4.76c0-.47,0-.87,0-1.2s-.1-.5-.23-.5a2.21,2.21,0,0,0-1.51.91A12.92,12.92,0,0,0,249,217a28.51,28.51,0,0,0-1.55,3.61c-.49,1.38-.93,2.84-1.32,4.39a45.39,45.39,0,0,0-.92,4.78A36.22,36.22,0,0,0,244.83,234.57Z" fill="#fff"/><path d="M259.24,254a3.39,3.39,0,0,1-2.44-1.15,10.2,10.2,0,0,1-2-3.09,21.13,21.13,0,0,1-1.31-4.49,30.06,30.06,0,0,1-.47-5.37,38.11,38.11,0,0,1,.31-4.69q.31-2.53.92-5.23t1.44-5.4a53.33,53.33,0,0,1,1.9-5.21,44.07,44.07,0,0,1,2.28-4.67,25.46,25.46,0,0,1,2.6-3.78,12.17,12.17,0,0,1,2.83-2.53,5.59,5.59,0,0,1,3-.92,2.91,2.91,0,0,1,1.72.47,3.34,3.34,0,0,1,1.07,1.25,5.85,5.85,0,0,1,.54,1.76,12,12,0,0,1,.16,2,21.36,21.36,0,0,1-.52,4.64,36.51,36.51,0,0,1-1.41,4.75q-.89,2.38-2.05,4.79t-2.42,4.76c-.84,1.57-1.68,3.13-2.53,4.65s-1.65,3-2.39,4.47a6.35,6.35,0,0,0-.25.63c-.09.26-.18.54-.26.84s-.16.62-.24,1-.14.67-.19,1v.34a5.43,5.43,0,0,0,.13,1.22A8,8,0,0,0,260,247a2.86,2.86,0,0,0,.42.75.56.56,0,0,0,.41.28,3.39,3.39,0,0,0,1.05-.19,10.55,10.55,0,0,0,1.26-.52c.45-.22.9-.47,1.37-.76s.92-.56,1.36-.86c1-.67,2.08-1.46,3.2-2.35l2,5.09a50.45,50.45,0,0,1-4.27,2.77c-.61.33-1.25.67-1.9,1s-1.32.63-2,.89a16,16,0,0,1-1.94.61A7,7,0,0,1,259.24,254Zm0-19.39q1.1-1.94,2.32-4.36c.81-1.61,1.59-3.28,2.31-5a53.12,53.12,0,0,0,1.89-5.13,23.72,23.72,0,0,0,1-4.76c0-.47,0-.87,0-1.2s-.1-.5-.23-.5a2.21,2.21,0,0,0-1.51.91A12.46,12.46,0,0,0,263.4,217a28.46,28.46,0,0,0-1.56,3.61c-.49,1.38-.93,2.84-1.32,4.39a45.39,45.39,0,0,0-.92,4.78A36.22,36.22,0,0,0,259.26,234.57Z" fill="#fff"/><path d="M276.46,254a9.08,9.08,0,0,1-4-.82,8.26,8.26,0,0,1-2.85-2.22,9.64,9.64,0,0,1-1.7-3.22,12.84,12.84,0,0,1-.57-3.84,17.29,17.29,0,0,1,.26-2.87,16.37,16.37,0,0,1,.82-3,15.9,15.9,0,0,1,1.36-2.78,11.24,11.24,0,0,1,1.93-2.33,9.11,9.11,0,0,1,2.47-1.6,7.72,7.72,0,0,1,3.05-.59,7,7,0,0,1,2.52.44,6.07,6.07,0,0,1,2,1.22,5.77,5.77,0,0,1,1.35,1.9,6.3,6.3,0,0,1,.48,2.5,6.77,6.77,0,0,1-.74,3,10.65,10.65,0,0,1-2.05,2.84,14.25,14.25,0,0,1-3.11,2.37,16.44,16.44,0,0,1-3.92,1.63,8.24,8.24,0,0,0,.72,1.09,3.25,3.25,0,0,0,.72.68,2.47,2.47,0,0,0,.76.34,3.91,3.91,0,0,0,.86.09,8.92,8.92,0,0,0,3.06-.58,20.21,20.21,0,0,0,3.14-1.45,26.27,26.27,0,0,0,2.89-1.91,23.46,23.46,0,0,0,2.3-1.95l3.13,3.25a32.38,32.38,0,0,1-4.53,3.9c-.7.49-1.45,1-2.25,1.43a19.69,19.69,0,0,1-2.52,1.25,16.07,16.07,0,0,1-2.73.87A12.18,12.18,0,0,1,276.46,254Zm-3.22-11.39a4.8,4.8,0,0,0,1.9-.45,8.66,8.66,0,0,0,1.91-1.15,8,8,0,0,0,1.49-1.53,2.68,2.68,0,0,0,.61-1.59,3.58,3.58,0,0,0-.4-1.8,1.16,1.16,0,0,0-1-.7,3.75,3.75,0,0,0-1.78.39,3.83,3.83,0,0,0-1.24,1,5.26,5.26,0,0,0-.8,1.41,9.52,9.52,0,0,0-.46,1.59,12.49,12.49,0,0,0-.21,1.55C273.25,241.79,273.24,242.22,273.24,242.57Z" fill="#fff"/><path d="M306,232.27a14.21,14.21,0,0,1-.15,1.78c-.09.75-.22,1.58-.37,2.47s-.32,1.83-.5,2.78-.34,1.84-.5,2.67-.28,1.54-.37,2.17a9.64,9.64,0,0,0-.15,1.29c0,.46,0,.87,0,1.25a4,4,0,0,0,.14,1,1.37,1.37,0,0,0,.38.66,1.07,1.07,0,0,0,.74.23,4,4,0,0,0,1.29-.27,14.44,14.44,0,0,0,1.63-.71c.57-.3,1.16-.64,1.75-1s1.17-.78,1.71-1.2,1-.84,1.48-1.25a9.16,9.16,0,0,0,1.08-1.15c0,.53,0,1,0,1.45s0,.85,0,1.25,0,.81,0,1.23,0,.89,0,1.4a13.61,13.61,0,0,1-1.32,1.14c-.53.41-1.11.81-1.75,1.21s-1.32.8-2,1.17a22,22,0,0,1-2.17,1,17.29,17.29,0,0,1-2.16.68,8.53,8.53,0,0,1-2,.25,3.2,3.2,0,0,1-1.57-.36,3.32,3.32,0,0,1-1.13-1,6.71,6.71,0,0,1-.8-1.56,15.49,15.49,0,0,1-.57-2,20.94,20.94,0,0,1-1.84,2.1,15.56,15.56,0,0,1-2,1.66,9.41,9.41,0,0,1-2,1.1,5.48,5.48,0,0,1-2,.4,4.08,4.08,0,0,1-1.5-.27,3,3,0,0,1-1.25-.89,4.48,4.48,0,0,1-.86-1.66,8.88,8.88,0,0,1-.32-2.56,31.89,31.89,0,0,1,.45-4.75q.45-2.88,1.1-6.59c0-.25.1-.57.19-1A10.85,10.85,0,0,1,289,235a12.43,12.43,0,0,1,.57-1.48,6.76,6.76,0,0,1,.8-1.36,3.92,3.92,0,0,1,1.08-1,2.73,2.73,0,0,1,1.39-.41,4.66,4.66,0,0,1,1.84.33c.37.18.56.41.56.69-.14.85-.3,1.81-.47,2.86s-.35,2.11-.52,3.17-.35,2.11-.51,3.12-.31,1.91-.44,2.7-.23,1.43-.3,1.91-.11.74-.11.76a4.49,4.49,0,0,0,.08.83,2.55,2.55,0,0,0,.26.72,1.54,1.54,0,0,0,.43.51,1.12,1.12,0,0,0,.64.19,2.39,2.39,0,0,0,1.09-.28,3.86,3.86,0,0,0,1.05-.8,5.68,5.68,0,0,0,.89-1.28,7.11,7.11,0,0,0,.58-1.74l2.4-12.31c.08-.39.4-.71,1-1a4.5,4.5,0,0,1,1.95-.4,3.7,3.7,0,0,1,2,.44A1.29,1.29,0,0,1,306,232.27Z" fill="#fff"/><path d="M317.05,254a3.35,3.35,0,0,1-2.43-1.15,10,10,0,0,1-2-3.09,20.56,20.56,0,0,1-1.31-4.49,29.15,29.15,0,0,1-.48-5.37,38.24,38.24,0,0,1,.32-4.69,52.84,52.84,0,0,1,.92-5.23q.6-2.69,1.44-5.4t1.89-5.21a44.09,44.09,0,0,1,2.29-4.67,25.44,25.44,0,0,1,2.59-3.78,12.2,12.2,0,0,1,2.84-2.53,5.56,5.56,0,0,1,3-.92,2.89,2.89,0,0,1,1.72.47,3.25,3.25,0,0,1,1.07,1.25,6.16,6.16,0,0,1,.55,1.76,13.17,13.17,0,0,1,.15,2,21.36,21.36,0,0,1-.52,4.64,35,35,0,0,1-1.4,4.75c-.59,1.59-1.28,3.19-2.05,4.79s-1.58,3.18-2.42,4.76-1.69,3.13-2.54,4.65-1.64,3-2.38,4.47a4.48,4.48,0,0,0-.26.63c-.09.26-.17.54-.25.84l-.25,1c-.08.34-.14.67-.19,1v.34a5.43,5.43,0,0,0,.13,1.22,6.76,6.76,0,0,0,.33,1.07,3.19,3.19,0,0,0,.41.75c.15.19.28.28.41.28a3.45,3.45,0,0,0,1.06-.19,12.11,12.11,0,0,0,1.26-.52c.44-.22.9-.47,1.37-.76s.92-.56,1.35-.86c1-.67,2.09-1.46,3.2-2.35l2,5.09a48.9,48.9,0,0,1-4.27,2.77c-.61.33-1.24.67-1.9,1s-1.31.63-2,.89a16,16,0,0,1-1.94.61A7.11,7.11,0,0,1,317.05,254Zm0-19.39q1.1-1.94,2.31-4.36c.82-1.61,1.59-3.28,2.32-5a53.12,53.12,0,0,0,1.89-5.13,24.44,24.44,0,0,0,1-4.76c0-.47,0-.87,0-1.2s-.1-.5-.23-.5a2.25,2.25,0,0,0-1.52.91,12.46,12.46,0,0,0-1.62,2.46,28.51,28.51,0,0,0-1.55,3.61c-.49,1.38-.93,2.84-1.32,4.39a43,43,0,0,0-.92,4.78A34.6,34.6,0,0,0,317.08,234.57Z" fill="#fff"/><path d="M325.3,244.66c.91-.78,1.65-1.43,2.21-1.94s1.05-1,1.45-1.42a14.47,14.47,0,0,0,1.11-1.3l1.17-1.55,1.65-2.19c.64-.87,1.49-1.95,2.52-3.24a9,9,0,0,1,.7-.85,6.1,6.1,0,0,1,.86-.74,5.17,5.17,0,0,1,1-.53,3.64,3.64,0,0,1,1.27-.21,4.94,4.94,0,0,1,1.79.26,2.21,2.21,0,0,1,.92.62,1.41,1.41,0,0,1,.34.76,6.56,6.56,0,0,1,.05.69,2.39,2.39,0,0,1-.46,1.29,14.48,14.48,0,0,1-1,1.35c-.37.44-.72.84-1.06,1.2a2.45,2.45,0,0,0-.56.81,7.17,7.17,0,0,0,.11,1.37,9.85,9.85,0,0,0,.29,1.22c.12.39.24.81.37,1.26s.26.95.38,1.53a18.8,18.8,0,0,1,.29,2c.07.76.11,1.65.11,2.69a14.78,14.78,0,0,1,1.88-1.06l2.1-1c.72-.34,1.47-.72,2.24-1.13a17.65,17.65,0,0,0,2.31-1.49l0,5.43a22.09,22.09,0,0,1-3.48,2.18,34.39,34.39,0,0,1-4.15,1.8,32.39,32.39,0,0,1-4.38,1.22,21.19,21.19,0,0,1-4.21.45,12.42,12.42,0,0,1-2.66-.27,7.16,7.16,0,0,1-2.17-.83,4.61,4.61,0,0,1-1.52-1.49,5,5,0,0,1-.7-2.23,5.37,5.37,0,0,1-.67.09c-.21,0-.43,0-.64,0s-.5,0-.73,0a1.11,1.11,0,0,1-.58-.18,1.05,1.05,0,0,1-.39-.51,2.88,2.88,0,0,1-.14-1,2.13,2.13,0,0,1,.29-1.08,4.28,4.28,0,0,1,.68-.89,9,9,0,0,1,.77-.67C325,244.92,325.18,244.77,325.3,244.66Zm3.11,3.1a1,1,0,0,1,.64.36c.23.25.51.51.81.8a5.85,5.85,0,0,0,1.07.8,2.55,2.55,0,0,0,1.38.37,3.48,3.48,0,0,0,1.57-.32,2.65,2.65,0,0,0,1-.83,3.38,3.38,0,0,0,.51-1.21,7.59,7.59,0,0,0,.14-1.45,12.16,12.16,0,0,0-.08-1.33c-.06-.45-.13-.88-.22-1.3s-.19-.8-.29-1.16l-.28-.93Z" fill="#fff"/><path d="M360.73,249.34q0,.09,0,.48a4.29,4.29,0,0,1-.16.9,4.77,4.77,0,0,1-.41,1.07,3.72,3.72,0,0,1-.78,1.06,4.1,4.1,0,0,1-1.29.8,5.06,5.06,0,0,1-1.89.31,5.11,5.11,0,0,1-1.62-.23,3.2,3.2,0,0,1-1.25-.7,3.07,3.07,0,0,1-.81-1.21,4.73,4.73,0,0,1-.3-1.78,5.86,5.86,0,0,1,.26-1.71,4.27,4.27,0,0,1,.79-1.49,3.55,3.55,0,0,1,1.38-1,4.74,4.74,0,0,1,2-.39,4.18,4.18,0,0,1,3.05,1A3.87,3.87,0,0,1,360.73,249.34Z" fill="#fff"/><path d="M372.59,254a8.76,8.76,0,0,1-3.91-.82,8.34,8.34,0,0,1-2.83-2.2,9.58,9.58,0,0,1-1.72-3.2,12.33,12.33,0,0,1-.58-3.78,16.08,16.08,0,0,1,.29-2.94,17.83,17.83,0,0,1,.86-3,16.32,16.32,0,0,1,1.41-2.8,11.09,11.09,0,0,1,1.94-2.34,8.91,8.91,0,0,1,2.46-1.6,7.88,7.88,0,0,1,5.53-.17,6.19,6.19,0,0,1,2,1.18,5.52,5.52,0,0,1,1.31,1.78,5.29,5.29,0,0,1,.47,2.22,5.92,5.92,0,0,1-.22,1.62,4.94,4.94,0,0,1-.64,1.44,3.49,3.49,0,0,1-1,1,2.46,2.46,0,0,1-1.36.39,1.58,1.58,0,0,1-1.49-.61,3.37,3.37,0,0,1-.35-1.67c0-.29,0-.6,0-.92s0-.61,0-.87a3.33,3.33,0,0,0-.12-1,.51.51,0,0,0-.53-.39,3,3,0,0,0-1.7.47,4.31,4.31,0,0,0-1.2,1.24,7,7,0,0,0-.79,1.72,19.4,19.4,0,0,0-.46,1.9,15,15,0,0,0-.21,1.81c0,.57-.05,1-.05,1.44a10.59,10.59,0,0,0,.16,1.82,5.29,5.29,0,0,0,.59,1.73,3.83,3.83,0,0,0,1.19,1.31,3.3,3.3,0,0,0,1.94.52,5.74,5.74,0,0,0,2.57-.72,17.92,17.92,0,0,0,2.82-1.8,26.49,26.49,0,0,0,2.7-2.4,32.57,32.57,0,0,0,2.21-2.47l1.67,2.81a31.43,31.43,0,0,1-3.93,4.63,21.72,21.72,0,0,1-1.95,1.69,16.86,16.86,0,0,1-2.2,1.47,12.71,12.71,0,0,1-2.4,1A8.22,8.22,0,0,1,372.59,254Z" fill="#fff"/><path d="M398.32,235.81a12.79,12.79,0,0,1,1.05,3,13.29,13.29,0,0,1,.35,3,13.59,13.59,0,0,1-.31,2.89,14.41,14.41,0,0,1-.91,2.81,13.25,13.25,0,0,1-1.45,2.54,10.12,10.12,0,0,1-2,2.06,9.08,9.08,0,0,1-2.42,1.38,7.58,7.58,0,0,1-2.78.51,6.83,6.83,0,0,1-3.65-.93,7.74,7.74,0,0,1-2.49-2.44,10.93,10.93,0,0,1-1.41-3.39,16.5,16.5,0,0,1-.45-3.83,15,15,0,0,1,.8-5,11.88,11.88,0,0,1,2.29-4,10.54,10.54,0,0,1,3.64-2.69,11.52,11.52,0,0,1,4.85-1,12.72,12.72,0,0,1,4.32.72,16.34,16.34,0,0,1,3.77,1.92,21.28,21.28,0,0,1,3.27,2.75,40.1,40.1,0,0,1,2.82,3.2l-.46,3.41a14.77,14.77,0,0,0-1.77-1.89c-.74-.68-1.53-1.34-2.36-2s-1.66-1.25-2.46-1.83-1.51-1-2.09-1.44Zm-7.49,13.5a2.21,2.21,0,0,0,1.6-.84,7.69,7.69,0,0,0,1.36-2.1,15.54,15.54,0,0,0,.93-2.82,13.38,13.38,0,0,0,.35-2.94,12.21,12.21,0,0,0-.17-2.07,6.12,6.12,0,0,0-.51-1.66,3.1,3.1,0,0,0-.87-1.12,2.09,2.09,0,0,0-1.29-.41,2.72,2.72,0,0,0-1.89.85,8,8,0,0,0-1.57,2.17,12.77,12.77,0,0,0-1.07,2.92,12.93,12.93,0,0,0-.39,3.08,9,9,0,0,0,.2,1.91,4.74,4.74,0,0,0,.6,1.56,3.19,3.19,0,0,0,1.09,1.07A3.15,3.15,0,0,0,390.83,249.31Z" fill="#fff"/><path d="M420,235.81a13.29,13.29,0,0,1,1.06,3,13.89,13.89,0,0,1,.35,3,13.61,13.61,0,0,1-.32,2.89,15.09,15.09,0,0,1-.9,2.81A13.29,13.29,0,0,1,418.7,250a10.12,10.12,0,0,1-2,2.06,9,9,0,0,1-2.41,1.38,7.6,7.6,0,0,1-2.79.51,6.85,6.85,0,0,1-3.65-.93,7.61,7.61,0,0,1-2.48-2.44A10.71,10.71,0,0,1,404,247.2a16.5,16.5,0,0,1-.45-3.83,15.2,15.2,0,0,1,.8-5,12,12,0,0,1,2.29-4,10.48,10.48,0,0,1,3.65-2.69,11.49,11.49,0,0,1,4.85-1,12.7,12.7,0,0,1,4.31.72,16.14,16.14,0,0,1,3.77,1.92,21.28,21.28,0,0,1,3.27,2.75,40.1,40.1,0,0,1,2.82,3.2l-.46,3.41a13.46,13.46,0,0,0-1.77-1.89c-.74-.68-1.53-1.34-2.36-2s-1.65-1.25-2.46-1.83-1.5-1-2.08-1.44Zm-7.49,13.5a2.2,2.2,0,0,0,1.6-.84,7.69,7.69,0,0,0,1.36-2.1,14.13,14.13,0,0,0,.93-2.82,12.8,12.8,0,0,0,.35-2.94,11.27,11.27,0,0,0-.17-2.07,6.5,6.5,0,0,0-.5-1.66,3.12,3.12,0,0,0-.88-1.12,2,2,0,0,0-1.28-.41,2.72,2.72,0,0,0-1.89.85,7.8,7.8,0,0,0-1.58,2.17,13.26,13.26,0,0,0-1.07,2.92,13.44,13.44,0,0,0-.38,3.08,9,9,0,0,0,.19,1.91,4.75,4.75,0,0,0,.61,1.56,3,3,0,0,0,2.71,1.47Z" fill="#fff"/><path d="M436.63,249.65a19.18,19.18,0,0,0,4.46-.48,17.23,17.23,0,0,0,3.65-1.31,15.25,15.25,0,0,0,3-1.93,19.13,19.13,0,0,0,2.39-2.37l.26,5.56a12.15,12.15,0,0,1-1.88,1.83,13.8,13.8,0,0,1-2.41,1.55,14.49,14.49,0,0,1-2.75,1.06,10.48,10.48,0,0,1-2.85.4,2.43,2.43,0,0,1-.42,0l-.88-.17-1.81-.33c-.78-.14-1.85-.3-3.19-.5v.44a39.41,39.41,0,0,1-.74,8,26.08,26.08,0,0,1-2,6.14,11.94,11.94,0,0,1-2.84,3.93,5,5,0,0,1-3.32,1.38,3.71,3.71,0,0,1-2.3-.68,4.81,4.81,0,0,1-1.47-1.83,9.47,9.47,0,0,1-.77-2.69,22.44,22.44,0,0,1-.23-3.26,9.22,9.22,0,0,1,.31-2.24,24,24,0,0,1,.85-2.62q.54-1.37,1.2-2.79c.45-.94.9-1.86,1.37-2.75,1.1-2.06,2.35-4.2,3.76-6.4.17-1.25.36-2.55.54-3.87s.42-2.61.7-3.86a26.44,26.44,0,0,1,1.07-3.53,10.51,10.51,0,0,1,1.65-2.91,7.52,7.52,0,0,1,2.41-2,7.39,7.39,0,0,1,3.4-.72,9.16,9.16,0,0,1,2.76.4,5.62,5.62,0,0,1,2.25,1.29,6.11,6.11,0,0,1,1.53,2.32,9.54,9.54,0,0,1,.56,3.48,10.31,10.31,0,0,1-.49,3.18,10,10,0,0,1-1.51,2.95,13.57,13.57,0,0,1-2.62,2.63,18.7,18.7,0,0,1-3.77,2.19Zm-11.48,15a4.4,4.4,0,0,0,.08.63,4.47,4.47,0,0,0,.28.88,2.72,2.72,0,0,0,.51.77,1,1,0,0,0,.78.34.77.77,0,0,0,.67-.45,4,4,0,0,0,.44-1.2,12.72,12.72,0,0,0,.24-1.69c.05-.63.09-1.28.12-1.94s.06-1.31.06-1.94,0-1.2.06-1.7c.05-.87.09-1.61.11-2.22s.05-1.11.06-1.51,0-.83.05-1.14a17,17,0,0,0-.89,1.85c-.3.71-.57,1.44-.83,2.2s-.49,1.52-.7,2.28-.39,1.46-.55,2.12-.27,1.22-.36,1.69A6.22,6.22,0,0,0,425.15,264.65Zm8.43-17.45a11.81,11.81,0,0,0,4.33-3.54,10.84,10.84,0,0,0,1.25-2.11,13.9,13.9,0,0,0,.77-2.22,7.19,7.19,0,0,0,.16-1.25,4.25,4.25,0,0,0-.14-1.35,2.57,2.57,0,0,0-.64-1.08,1.71,1.71,0,0,0-1.24-.44,2.6,2.6,0,0,0-1.58.49,4.49,4.49,0,0,0-1.18,1.35,8.5,8.5,0,0,0-.82,2,21.36,21.36,0,0,0-.53,2.49,26.92,26.92,0,0,0-.29,2.78C433.61,245.29,433.58,246.25,433.58,247.2Z" fill="#fff"/><path d="M192.62,243.47a2.87,2.87,0,0,1,.55.05,1.51,1.51,0,0,1,.56.21,1.35,1.35,0,0,1,.44.42,1.21,1.21,0,0,1,.18.7,3.71,3.71,0,0,1-.08.73,1.68,1.68,0,0,1-.33.67,1.8,1.8,0,0,1-.7.5,3,3,0,0,1-1.22.2h-7.54a1.89,1.89,0,0,1-.93-.2,1.65,1.65,0,0,1-.78-1.16,4.82,4.82,0,0,1-.05-.62,3.13,3.13,0,0,1,.05-.5A1.24,1.24,0,0,1,183,244a1.35,1.35,0,0,1,.53-.37,2.48,2.48,0,0,1,.94-.14Z" fill="#fff"/></svg>