<svg id="signet" xmlns="http://www.w3.org/2000/svg" viewBox="0 0 102.98 145.05"><defs><style>.logo{fill:#3333fe;}.baseline{fill:#fff;}</style></defs><title>LOGO_signet-down</title><g id="signet_3333fe" data-name="signet#3333fe"><path class="logo" d="M12,120.58c11.05,7.8,11,7.72,24.47,17.26s16.19,9.67,30.07,0S80.41,128.18,91,120.58s12-14,12-23.24V94.63l0,0V0H0V97.34C0,106.61.93,112.79,12,120.58Z"></path><path class="baseline" d="M65.81,79.84a1,1,0,0,0-.66-.24h-31a9.76,9.76,0,0,1-9.76-9.76V46.06a12.26,12.26,0,0,1,5-9.86L44.58,24.94a12.26,12.26,0,0,1,14.56,0L74.4,36.2a12.26,12.26,0,0,1,5,9.86V66.83a.59.59,0,0,1-1,.45L70,60.15a1.85,1.85,0,0,1-.65-1.41V46.31a2.73,2.73,0,0,0-1.11-2.2L53.19,33a2.23,2.23,0,0,0-2.66,0L35.46,44.11a2.73,2.73,0,0,0-1.11,2.2v21a2.24,2.24,0,0,0,2.24,2.24H66.48a2.22,2.22,0,0,1,1.41.51l7.55,6.23s3.67,3.09,7.38,6.2a.23.23,0,0,0,.32,0A17,17,0,0,0,87.65,71V44.67a19.46,19.46,0,0,0-8.34-16l-17-11.86a18.29,18.29,0,0,0-20.92,0l-17,11.86a19.46,19.46,0,0,0-8.34,16V71A17.06,17.06,0,0,0,33.08,88H70.59a17.07,17.07,0,0,0,3.89-.45.24.24,0,0,0,.09-.42Z"></path><path class="baseline" d="M36.88,104.34a2.24,2.24,0,0,1-.67,1.75,2.3,2.3,0,0,1-1.57.6c-1.27,0-1.89-.75-1.89-2.29V99.67H30.83v5.28a3.5,3.5,0,0,0,.91,2.59,3.37,3.37,0,0,0,5.14-.61v1.38H38.8V99.67H36.88Z"></path><path class="baseline" d="M45.59,99.54a4.44,4.44,0,0,0-3.25,1.29,4.49,4.49,0,0,0,0,6.32,4.73,4.73,0,0,0,6.49,0,4.49,4.49,0,0,0,0-6.32A4.44,4.44,0,0,0,45.59,99.54ZM48.21,104a2.7,2.7,0,0,1-.74,2,2.72,2.72,0,0,1-3.77,0,3,3,0,0,1,0-3.93,2.72,2.72,0,0,1,3.77,0A2.7,2.7,0,0,1,48.21,104Z"></path><path class="baseline" d="M27.78,102.61a5.54,5.54,0,0,0-1.7-4.13,5.77,5.77,0,0,0-4.19-1.66,5.77,5.77,0,0,0-4.19,1.66,5.87,5.87,0,0,0,0,8.26,5.77,5.77,0,0,0,4.19,1.66,5.88,5.88,0,0,0,3.26-.91l2.11,1.77,1.22-1.46-1.91-1.6A5.56,5.56,0,0,0,27.78,102.61Zm-3.08,2.87a3.92,3.92,0,0,1-5.62,0,4.18,4.18,0,0,1,0-5.74,3.92,3.92,0,0,1,5.62,0,4.18,4.18,0,0,1,0,5.74Z"></path><path class="baseline" d="M56.3,106.49l0,0,0,0a1.27,1.27,0,0,1-.75.27,1.08,1.08,0,0,1-.85-.34,1.35,1.35,0,0,1-.3-.93v-4.26h2.24V99.67H54.32V97H52.4v8.45a2.93,2.93,0,0,0,.83,2.18,2.76,2.76,0,0,0,2,.81,3.14,3.14,0,0,0,2.13-.86l0,0-.15-.25Z"></path><path class="baseline" d="M73.32,106.56a1.21,1.21,0,0,1-.65.2,1.08,1.08,0,0,1-.85-.34,1.35,1.35,0,0,1-.3-.93v-4.26h2.24V99.67H71.52V97H69.6v8.45a2.93,2.93,0,0,0,.83,2.18,2.76,2.76,0,0,0,2,.81,3.12,3.12,0,0,0,2.1-.83l.06,0-1.22-1Z"></path><path class="baseline" d="M63.32,99.54a5.6,5.6,0,0,0-3.56,1.25l0,0,.15.2,1,.84,0,0a4.2,4.2,0,0,1,2.16-.68c1.23,0,1.82.53,1.82,1.63V103H62.63a4.52,4.52,0,0,0-2.55.63,2.18,2.18,0,0,0-1,1.93,2.59,2.59,0,0,0,.89,2.06,3.32,3.32,0,0,0,2.24.77A3.59,3.59,0,0,0,65,107.28v1h1.76v-5.55a3,3,0,0,0-1-2.44A3.91,3.91,0,0,0,63.32,99.54Zm1.55,4.88v.66a1.48,1.48,0,0,1-.61,1.24,2.38,2.38,0,0,1-1.46.47,2.29,2.29,0,0,1-1.3-.32,1,1,0,0,1-.45-.9c0-.78.61-1.15,1.87-1.15Z"></path><rect class="baseline" x="76.71" y="99.66" width="1.92" height="8.64"></rect><path class="baseline" d="M77.69,96a1.21,1.21,0,1,0,.85.35A1.16,1.16,0,0,0,77.69,96Z"></path><path class="baseline" d="M86.84,103.86a5.14,5.14,0,0,0-.82-.45c-.25-.11-.52-.2-.78-.29s-.58-.17-.92-.26a4,4,0,0,1-.8-.27.57.57,0,0,1-.38-.55.69.69,0,0,1,.37-.64,2,2,0,0,1,1-.22,3.94,3.94,0,0,1,2,.53l0,0,1-1.22,0-.05-.06,0a5.07,5.07,0,0,0-2.82-.87,3.88,3.88,0,0,0-2.43.72,2.35,2.35,0,0,0-.94,1.95c0,1.15.91,2,2.7,2.46l.19.06c1.09.33,1.65.7,1.65,1.09a.8.8,0,0,1-.33.66,1.44,1.44,0,0,1-.92.27,4.35,4.35,0,0,1-2.25-.71l0,0-1.35,1.13-.06.05.07,0a5.91,5.91,0,0,0,1.64.85,6.12,6.12,0,0,0,1.95.34,3.5,3.5,0,0,0,2.3-.74,2.47,2.47,0,0,0,.9-2A2.07,2.07,0,0,0,86.84,103.86Z"></path></g></svg>
