<?xml version="1.0" encoding="utf-8"?>
<!-- Generator: Adobe Illustrator 23.0.6, SVG Export Plug-In . SVG Version: 6.00 Build 0)  -->
<svg version="1.1" id="Calque_1" xmlns="http://www.w3.org/2000/svg" xmlns:xlink="http://www.w3.org/1999/xlink" x="0px" y="0px"
	 viewBox="0 0 300 300" style="enable-background:new 0 0 300 300;" xml:space="preserve">
<style type="text/css">
	.st0{fill:none;}
	.st1{fill:#367A81;}
	.st2{fill:#419FAA;}
</style>
<line class="st0" x1="150.3" y1="124.1" x2="149.7" y2="175.9"/>
<g>
	<path class="st1" d="M227.9,192.2c-3.1-5.1-7.3-10.1-13-12.4c-4.7-1.9-9.7-2.2-14.7-2.5c-4.6-0.4-9.4-0.9-12.8-4.2
		c-13.9-13.8-27.8-27.6-41.8-41.4c-7.2-7.1-14.4-14.2-21.6-21.4c-2.8-2.8-6.1-5.4-7.5-9.3c-1.5-4.4-1.4-9.2-2-13.7
		c-0.8-7.2-3.4-12.8-8.9-17.6c-6.5-5.6-14.6-9.1-23.1-9.6c-2.2-0.1-3.2,2.8-1.7,4.2c5.1,5.1,10.3,10.2,15.4,15.2
		c-0.9,6-1.8,12-2.6,17.9c-6,0.9-11.9,1.9-17.9,2.8C70.7,95.1,65.5,90,60.4,84.9c-1.5-1.4-4.4-0.4-4.2,1.8c0.5,6.2,2.4,12,5.6,17.3
		c3,4.9,7.1,9.8,12.4,12.2c8.5,3.8,19.1,0.7,26.9,6c1.9,1.3,3.5,3.4,5.2,5c2.1,2.1,4.2,4.2,6.3,6.3c4.4,4.4,8.8,8.7,13.2,13.1
		c9,8.9,17.9,17.8,26.9,26.6c5.2,5.2,10.4,10.3,15.6,15.5c2.3,2.3,4.1,4.4,5.1,7.6c0.9,3.2,1.1,6.6,1.4,9.8c0.7,7.5,2.3,14.1,8,19.4
		c6.6,6.2,15.3,10.2,24.3,10.7c2.2,0.1,3.2-2.8,1.7-4.2c-5.1-5.1-10.3-10.2-15.4-15.2c0.9-6,1.8-12,2.6-17.9
		c6-0.9,11.9-1.9,17.9-2.8c5.1,5.1,10.3,10.2,15.4,15.2c1.5,1.4,4.4,0.4,4.2-1.8C233.1,203.3,231.1,197.5,227.9,192.2z"/>
	<g>
		<g>
			<path class="st2" d="M125.3,151.1l-67.9,68c-2.9,2.9-2.9,7.7,0,10.6l6.2,6.2c2.9,2.9,7.7,2.9,10.6,0l68-68L125.3,151.1z"/>
			<path class="st2" d="M249.4,117.8l-14.3-14.3c-2.2-2.2-6.1-1.9-8.6,0.7l-2.1,2.1l-2.4-2.4l2.7-2.7c2.6-2.6,2.8-6.5,0.6-8.7
				L208,75.2c0,0-28.2-35.2-51.6-11.7c0,0,9.9-1.5,27.8,12.9l-13.1,13.1c-2.6,2.6-2.8,6.5-0.6,8.7l4,4c-0.5,0.3-1,0.6-1.4,1.1
				l-25.3,25.3l16.9,16.7l25.2-25.2c0.4-0.4,0.8-0.9,1.1-1.4l4.1,4.1c2.2,2.2,6.1,1.9,8.6-0.7l2.7-2.7l2.4,2.4l-3.3,3.3
				c-2.6,2.6-2.8,6.5-0.6,8.7l14.3,14.3c2.2,2.2,6.1,1.9,8.6-0.7l20.9-20.9C251.3,123.9,251.6,120,249.4,117.8z"/>
		</g>
		<path class="st1" d="M58.2,215.7l52.3-52.3l19.7,19.7L78,235.5c0.9,2.4,0.4,5.2-1.5,7.1c-2.6,2.6-6.9,2.6-9.6,0l-15.7-15.7
			c-2.6-2.6-2.6-6.9,0-9.6C53,215.4,55.8,214.8,58.2,215.7z"/>
	</g>
</g>
</svg>
