<?xml version="1.0" encoding="utf-8"?>
<!-- Generator: Adobe Illustrator 21.0.0, SVG Export Plug-In . SVG Version: 6.00 Build 0)  -->
<svg version="1.1" id="Calque_1" xmlns="http://www.w3.org/2000/svg" xmlns:xlink="http://www.w3.org/1999/xlink" x="0px" y="0px"
	 viewBox="0 0 300 300" style="enable-background:new 0 0 300 300;" xml:space="preserve">
<style type="text/css">
	.st0{fill:none;}
	.st1{fill:#367A81;}
	.st2{fill:#429599;}
</style>
<g>
	<line class="st0" x1="151.7" y1="116.3" x2="151" y2="172"/>
	<path class="st1" d="M206.6,158.6c0.4-2.6,0.7-5.1,0.7-8s-0.4-5.5-0.7-8l16.4-11.7c1.5-1.1,2.2-3.3,1.1-5.1l-16.1-27
		c-1.1-1.8-2.9-2.6-4.8-1.5l-18.3,8.4c-4.4-3.3-8.8-5.8-13.9-8l-1.8-20.1c-0.4-1.8-1.8-3.3-3.7-3.3h-31.4c-1.8,0-3.7,1.5-3.7,3.3
		l-1.8,20.1c-5.1,2.2-9.9,4.8-13.9,8l-18.3-8.4c-1.8-0.7-4,0-4.8,1.5l-15.7,27c-1.1,1.8-0.4,4,1.1,5.1l16.4,11.7
		c-0.4,2.6-0.7,5.1-0.7,8c0,2.9,0.4,5.5,0.7,8l-17.2,11.7c-1.5,1.1-2.2,3.3-1.1,5.1l15.7,27c1.1,1.8,2.9,2.6,4.8,1.5l18.3-8.4
		c4.4,3.3,8.8,5.8,13.9,8l1.8,20.1c0.4,1.8,1.8,3.3,3.7,3.3H165c1.8,0,3.7-1.5,3.7-3.3l1.8-20.1c5.1-2.2,9.9-4.8,13.9-8l18.3,8.4
		c1.8,0.7,4,0,4.8-1.5l15.7-27c1.1-1.8,0.4-4-1.1-5.1L206.6,158.6z M149.6,187.1c-20.1,0-36.5-16.4-36.5-36.5s16.4-36.5,36.5-36.5
		s36.5,16.4,36.5,36.5S169.7,187.1,149.6,187.1z"/>
	<path class="st2" d="M149.6,106.7c-24.1,0-43.8,19.7-43.8,43.8s19.7,43.8,43.8,43.8s43.8-19.7,43.8-43.8S173.8,106.7,149.6,106.7z
		 M149.6,168.8c-10.2,0-18.3-8-18.3-18.3s8-18.3,18.3-18.3s18.3,8,18.3,18.3S159.9,168.8,149.6,168.8z"/>
</g>
</svg>
