<svg id="Calque_1" data-name="Calque 1" xmlns="http://www.w3.org/2000/svg" viewBox="0 0 268.51 201.5"><defs><style>.cls-1,.cls-4{fill:#1d1e1c;}.cls-2{fill:#38a9b4;}.cls-3,.cls-5{fill:#fff;}.cls-4{opacity:0.2;}.cls-5{fill-rule:evenodd;}</style></defs><title>community</title><polyline class="cls-1" points="116.65 72.39 154.2 75.11 153.18 78.1 122.86 76.05"/><polyline class="cls-1" points="189.9 82.5 190.8 133.26 186.92 132.76 185.1 79.15"/><path class="cls-1" d="M186.76,132.26s-4.31-7.68-9-2.79-2,11.63-2,11.63,1.54,2.09,6.78,2.33,6.47,0,7.45-1.63.83-9,.83-9Z"/><polygon class="cls-1" points="164.25 186.85 154.13 121.54 178.62 111.34 179.92 115.81 158.86 125.01 168.29 186.74 164.25 186.85"/><path class="cls-1" d="M163.59,183.27s-5.84-10.58-13.68-3.78-3.3,16.19-3.3,16.19,2.57,2.76,11.29,2.77c11.36,0,12-5.69,11.55-8.65-1.83-12.46-4-9.35-4-9.35Z"/><polygon class="cls-1" points="247.6 144.63 251.65 144.63 262.87 91.95 228.01 100.95 228.56 105.33 258.4 97.1 247.6 144.63"/><polygon class="cls-1" points="237.41 168.54 240.81 172.22 250.86 113.56 226.53 107.67 222.72 111.16 246.25 115.62 237.41 168.54"/><polygon class="cls-1" points="210.01 187.85 220.14 122.54 195.65 112.34 194.35 116.81 215.4 126.01 205.97 187.74 210.01 187.85"/><polyline class="cls-1" points="221.26 86.34 220.44 135.13 224.24 136.6 226.07 83"/><path class="cls-1" d="M224.41,136.1s3.69-7.68,8.4-2.79,2,11.63,2,11.63-1.54,2.1-6.78,2.33-6.48,0-7.46-1.63.11-13.6.11-13.6Z"/><path class="cls-1" d="M241.31,171.58s6.52-12.52,14.17-5.72a13.12,13.12,0,0,1,4.38,11.85,7.13,7.13,0,0,1-5.64,6.07,33.66,33.66,0,0,1-6.55.58c-11.09,0-10.87-4.12-11.65-7-1.31-4.79,1.64-9.56,1.64-9.56Z"/><path class="cls-1" d="M251.65,144.63s3.83-9,8.88-4.45a8.73,8.73,0,0,1,2.89,7.89,4.66,4.66,0,0,1-3.7,4,21.59,21.59,0,0,1-4.34.39c-7.33,0-7.68-1.81-8.19-3.71-.87-3.19,3-11.2,3-11.2Z"/><path class="cls-1" d="M210.67,184.27s5.85-10.58,13.69-3.78,3.3,16.19,3.3,16.19-2.57,2.76-11.3,2.77c-11.36,0-12-5.69-11.55-8.65,1.83-12.46,4-9.35,4-9.35Z"/><path class="cls-2" d="M239.31,73.74c0,34.58-13.3,42.94-44.22,42.94-24.43,0-43-14.86-43-42.94s18.56-37.83,43-37.83S239.31,45.65,239.31,73.74Z"/><path class="cls-1" d="M194.48,119c-12.92,0-24-4-32-11.48-8.56-8-13.08-19.72-13.08-33.79,0-26.27,15.58-40.16,45-40.16,29.84,0,46.28,14.26,46.28,40.16,0,14-2.31,28.15-11.29,36.26C221.29,117.38,207.29,119,194.48,119Zm0-80.78c-27.16,0-40.94,12-40.94,35.51,0,25.05,15.69,40.62,40.94,40.62,32.11,0,42.17-9.45,42.17-40.62C236.65,44.39,213.72,38.23,194.48,38.23Z"/><path class="cls-3" d="M181.93,51.63c-3.22,16.27-13.22,27.7-22.9,25.79s-14.9-16.66-11.68-32.93,13.67-27.9,23.35-26S185.15,35.36,181.93,51.63Z"/><path d="M170.47,16.91c-5-1-10.39,1.35-15.11,6.59s-8.16,12.64-9.8,21S144.3,61,146.65,67.55s6.43,10.86,11.45,11.85a12.28,12.28,0,0,0,6.43-.48c8-2.73,15.31-13.12,18-26.86C186,34.68,180.58,18.91,170.47,16.91ZM158.81,75.83c-9-1.78-13.84-15.64-10.82-30.9,1.46-7.41,4.55-14,8.7-18.66a18.48,18.48,0,0,1,7.55-5.36,10.58,10.58,0,0,1,5.52-.42c4.29.84,7.71,4.54,9.66,10.42s2.19,13.2.72,20.67C177.1,66.94,167.73,77.59,158.81,75.83Z"/><ellipse class="cls-1" cx="157.71" cy="43.18" rx="13.38" ry="6.21" transform="translate(84.73 189.5) rotate(-78.8)"/><ellipse class="cls-3" cx="159.36" cy="35.67" rx="3.69" ry="2.74" transform="translate(96.56 186.42) rotate(-80)"/><ellipse class="cls-3" cx="181.81" cy="54.57" rx="25.23" ry="15.4" transform="translate(92.97 222.32) rotate(-78.8)"/><path d="M186.5,28.13c-4.39-.87-9.06,1.1-13.16,5.57s-7.07,10.75-8.47,17.83-1,14.08,1,19.72,5.66,9.29,10.05,10.16a11,11,0,0,0,5.75-.44c7.07-2.41,13.59-11.38,15.88-23C200.5,43.31,195.52,29.91,186.5,28.13Zm8.58,29.38c-2,10-7.54,17.69-13.56,19.74a9.31,9.31,0,0,1-4.81.37c-3.67-.73-6.66-3.77-8.43-8.58a32.08,32.08,0,0,1-.9-17c2-10,7.54-17.69,13.56-19.74a9.21,9.21,0,0,1,4.81-.37c3.67.72,6.66,3.77,8.43,8.57A32.12,32.12,0,0,1,195.08,57.51Z"/><ellipse class="cls-1" cx="175.68" cy="51.04" rx="11.17" ry="5.67" transform="translate(91.5 213.47) rotate(-78.8)"/><ellipse class="cls-3" cx="177.08" cy="45.97" rx="3.2" ry="2.38" transform="translate(93.44 208.68) rotate(-77.35)"/><ellipse class="cls-4" cx="155.7" cy="194.87" rx="16.15" ry="5.18"/><ellipse class="cls-4" cx="180.14" cy="139.96" rx="10.66" ry="4.26"/><ellipse class="cls-4" cx="252.89" cy="181.54" rx="14.62" ry="3.96"/><ellipse class="cls-4" cx="222.18" cy="196.32" rx="16.15" ry="5.18"/><ellipse class="cls-4" cx="256.89" cy="149.8" rx="9.44" ry="4.26"/><ellipse class="cls-4" cx="230.71" cy="144.22" rx="10.66" ry="4.26"/><path class="cls-5" d="M45.59,126.55,33.38,91.22A17.39,17.39,0,1,1,27.46,74.1L15.25,38.77a6.38,6.38,0,0,1,3.94-8.09L55.79,18a17.38,17.38,0,1,0,14.58-5L107,.35a6.38,6.38,0,0,1,8.09,3.93l30.33,87.78a6.38,6.38,0,0,1-3.93,8.09L53.68,130.48a6.37,6.37,0,0,1-8.09-3.93"/><polygon class="cls-1" points="89 96.7 161.18 116.92 179.72 96.48 176.11 94.53 159.08 112.19 89.96 92.72 89 96.7"/><path class="cls-1" d="M89.78,97.59s-13.72-.23-13.15-10.51S86.79,76.46,86.79,76.46s3.52,1,8.52,8.89c6.51,10.24,3.3,12.47,1.08,13.93"/></svg>