<svg id="Calque_1" data-name="Calque 1" xmlns="http://www.w3.org/2000/svg" xmlns:xlink="http://www.w3.org/1999/xlink" viewBox="0 0 261.21 204.16"><defs><style>.cls-1,.cls-6,.cls-8{fill:#38a9b4;}.cls-1{clip-rule:evenodd;}.cls-2,.cls-5{fill:#1d1e1c;}.cls-3{fill:#177075;}.cls-4{fill:#fff;}.cls-5{opacity:0.2;}.cls-6{fill-rule:evenodd;}.cls-7{clip-path:url(#clip-path);}</style><clipPath id="clip-path"><path id="SVGID" class="cls-1" d="M173.72,16.15l33.15,10.64A16.2,16.2,0,1,1,222.94,32L256.1,42.59A6,6,0,0,1,259.93,50l-11,34.35a16.2,16.2,0,1,0-4.39,13.68l-11,34.35a6,6,0,0,1-7.46,3.83l-82.38-26.44a6,6,0,0,1-3.83-7.45L166.26,20a5.94,5.94,0,0,1,7.46-3.83"/></clipPath></defs><title>community</title><polyline class="cls-2" points="162.42 64.37 129.66 82.91 131.86 85.18 158.38 70.33"/><polygon class="cls-2" points="107.39 188.69 154.07 108.75 114.35 110.14 113.05 113.39 146.9 112.83 102.74 188.58 107.39 188.69"/><polyline class="cls-2" points="96.17 84.56 95.27 135.31 99.14 134.82 100.97 81.21"/><path class="cls-2" d="M99.31,134.32s4.31-7.68,9-2.79,2,11.63,2,11.63-1.54,2.09-6.78,2.33-6.48,0-7.46-1.63-.82-9-.82-9Z"/><path class="cls-2" d="M107.44,188.15s6.46-11.18,14.29-4.38,2.08,15.58,2.08,15.58-2.56,2.76-11.29,2.77c-11.36,0-12.36-5.77-11.55-8.66,2.83-10,4.7-5.46,4.59-5.69Z"/><polygon class="cls-2" points="27.91 148.72 23.87 148.72 11.07 78.09 58.05 103.01 57.06 108.94 16.34 85.27 27.91 148.72"/><polygon class="cls-2" points="29.1 171.97 25.7 175.65 5.67 123.9 59.54 109.73 63.2 114.6 12.12 126.78 29.1 171.97"/><polygon class="cls-2" points="76.05 189.91 65.93 124.6 90.42 114.4 91.72 118.87 70.66 128.07 80.09 189.8 76.05 189.91"/><polyline class="cls-2" points="64.8 88.4 65.63 137.19 61.82 138.66 60 85.06"/><path class="cls-2" d="M61.66,138.16s-3.7-7.68-8.4-2.79-2,11.63-2,11.63,1.54,2.1,6.78,2.33,6.47,0,7.46-1.63-.11-13.6-.11-13.6Z"/><path class="cls-2" d="M25.2,175S18.68,162.5,11,169.29a13.12,13.12,0,0,0-4.38,11.85,7.12,7.12,0,0,0,5.64,6.07,32.89,32.89,0,0,0,6.55.58c11.09,0,10.87-4.12,11.65-7,1.31-4.79-1.64-9.56-1.64-9.56Z"/><path class="cls-2" d="M23.87,147.73s-3.83-9-8.88-4.45a8.73,8.73,0,0,0-2.89,7.89,4.66,4.66,0,0,0,3.7,4,21.67,21.67,0,0,0,4.34.39c7.33,0,7.68-1.81,8.2-3.71.86-3.19-2.2-11.2-2.2-11.2Z"/><path class="cls-2" d="M75.39,186.33s-5.84-10.58-13.68-3.78-3.3,16.19-3.3,16.19S61,201.5,69.7,201.51c11.36,0,12-5.69,11.55-8.65-1.83-12.46-4-9.35-4-9.35Z"/><path class="cls-3" d="M46.75,75.79c0,34.59,13.3,42.95,44.23,42.95,24.42,0,43-14.86,43-42.95S115.4,38,91,38,46.75,47.71,46.75,75.79Z"/><path class="cls-2" d="M56.59,112.06C47.61,104,45.3,89.82,45.3,75.79c0-25.89,16.44-40.15,46.29-40.15,29.47,0,45,13.88,45,40.15,0,14.08-4.53,25.77-13.08,33.8-8,7.51-19,11.48-32,11.48S64.77,119.44,56.59,112.06ZM49.42,75.79c0,31.18,10,40.63,42.17,40.63,25.25,0,40.93-15.57,40.93-40.63,0-23.55-13.77-35.5-40.93-35.5C72.35,40.29,49.42,46.45,49.42,75.79Z"/><path class="cls-4" d="M98.8,52.29c2.92,16.33,12.7,27.95,22.41,26.22s15.21-16.37,12.3-32.7-13.15-28.15-22.85-26.42S95.89,36,98.8,52.29Z"/><path d="M98.16,52.72c2.46,13.79,9.56,24.31,17.53,27.19a12.23,12.23,0,0,0,6.41.6c5-.9,9.19-5,11.68-11.63s3-14.74,1.52-23.08S130.47,30,125.89,24.68s-9.94-7.78-15-6.88C100.77,19.61,95.05,35.28,98.16,52.72Zm2.43-.44c-1.33-7.49-.94-14.83,1.11-20.65s5.55-9.47,9.85-10.24a10.58,10.58,0,0,1,5.51.53,18.24,18.24,0,0,1,7.45,5.5c4.06,4.7,7,11.39,8.36,18.82,2.73,15.31-2.39,29.08-11.41,30.69S103.35,67.7,100.59,52.28Z"/><ellipse class="cls-2" cx="123.92" cy="46.4" rx="6.21" ry="13.38" transform="translate(-6.22 22.49) rotate(-10.12)"/><ellipse class="cls-4" cx="122.41" cy="38.87" rx="2.74" ry="3.69" transform="translate(-4.55 19.45) rotate(-8.92)"/><ellipse class="cls-4" cx="98.87" cy="55.24" rx="15.4" ry="25.23" transform="translate(-8.17 18.23) rotate(-10.12)"/><path d="M83,58.38C85.1,70,91.44,79.1,98.47,81.64a11,11,0,0,0,5.74.54c4.41-.78,8-4.32,10.24-10s2.67-12.59,1.41-19.69-4.16-13.5-8.14-18-8.65-6.61-13-5.82C85.62,30.33,80.39,43.63,83,58.38Zm3.74-17.45c1.86-4.77,4.91-7.76,8.59-8.41a9.19,9.19,0,0,1,4.8.46c6,2.16,11.4,10,13.19,20a32.14,32.14,0,0,1-1.22,17c-1.86,4.77-4.91,7.76-8.59,8.42a9.3,9.3,0,0,1-4.8-.46c-6-2.16-11.4-10-13.19-20A32.18,32.18,0,0,1,86.76,40.93Z"/><ellipse class="cls-2" cx="105.8" cy="53.92" rx="5.67" ry="11.17" transform="translate(-7.83 19.43) rotate(-10.12)"/><ellipse class="cls-4" cx="104.5" cy="48.83" rx="2.38" ry="3.2" transform="translate(-7.67 21.96) rotate(-11.57)"/><ellipse class="cls-5" cx="117.5" cy="198.98" rx="16.15" ry="5.18"/><ellipse class="cls-5" cx="105.93" cy="142.02" rx="10.66" ry="4.26"/><ellipse class="cls-5" cx="13.62" cy="184.97" rx="14.62" ry="3.96"/><ellipse class="cls-5" cx="63.89" cy="198.38" rx="16.15" ry="5.18"/><ellipse class="cls-5" cx="18.19" cy="152.38" rx="9.44" ry="4.26"/><ellipse class="cls-5" cx="55.36" cy="146.28" rx="10.66" ry="4.26"/><path id="SVGID-2" data-name="SVGID" class="cls-6" d="M173.72,16.15l33.15,10.64A16.2,16.2,0,1,1,222.94,32L256.1,42.59A6,6,0,0,1,259.93,50l-11,34.35a16.2,16.2,0,1,0-4.39,13.68l-11,34.35a6,6,0,0,1-7.46,3.83l-82.38-26.44a6,6,0,0,1-3.83-7.45L166.26,20a5.94,5.94,0,0,1,7.46-3.83"/><g class="cls-7"><rect class="cls-8" x="138.83" y="-1.95" width="122.1" height="139.2"/></g><polygon class="cls-2" points="179.49 79.94 127.69 123.86 105.08 98.11 107.73 94.98 127.93 118.69 177.15 76.58 179.49 79.94"/><path class="cls-2" d="M177.19,83.33c-2.51-.87-4-5.21,5.39-12.89a31.36,31.36,0,0,1,7.92-5,5.62,5.62,0,0,1,5.43.64,10.1,10.1,0,0,1,4.26,9.68,5.59,5.59,0,0,1-1.94,3.64A21.12,21.12,0,0,1,177.19,83.33Z"/></svg>