<svg xmlns="http://www.w3.org/2000/svg" width="300" height="300" viewBox="0 0 300 300"><style type="text/css">
	.st0{fill:#38A9B4;}
	.st1{fill:#257F84;}
	.st2{fill:#FFFFFF;}
</style><path class="st0" d="M125.8 118c-1.1 5.3-9.2 30.2-61.8 32v23l86 1v-56H125.8z"/><path class="st1" d="M174.2 118H150v56l86-1v-23C183.3 148.2 175.3 123.3 174.2 118z"/><path class="st2" d="M241.4 179.8h-182c-1.7 0-3.2-1.4-3.2-3.2V176c0-1.7 1.4-3.2 3.2-3.2h182c1.7 0 3.2 1.4 3.2 3.2v0.7C244.5 178.4 243.1 179.8 241.4 179.8z"/><path class="st1" d="M150.5 242.9c4.1 0.1 8.3 0.1 12.5 0.1 20.7 0 40.5-1 58.7-2.9 19.8-2.1 34.6-15.6 34.6-31.5v-28.7H150.5V242.9z"/><path class="st0" d="M151.3 242.9c-4.1 0.1-8.3 0.1-12.5 0.1 -20.7 0-40.5-1-58.7-2.9 -19.8-2.1-34.6-15.6-34.6-31.5v-28.7h105.8V242.9z"/><circle class="st2" cx="150.8" cy="185.8" r="43"/><circle class="st0" cx="150.8" cy="152.9" r="4.4"/><ellipse transform="matrix(0.866 -0.5 0.5 0.866 -60.6685 88.265)" class="st0" cx="134.4" cy="157.3" rx="4.4" ry="4.4"/><ellipse transform="matrix(0.5 -0.866 0.866 0.5 -85.487 190.6392)" class="st0" cx="122.4" cy="169.4" rx="4.4" ry="4.4"/><circle class="st0" cx="118" cy="185.8" r="4.4"/><ellipse transform="matrix(0.866 -0.5 0.5 0.866 -84.6949 88.2634)" class="st0" cx="122.4" cy="202.2" rx="4.4" ry="4.4"/><ellipse transform="matrix(0.5 -0.866 0.866 0.5 -118.3086 223.4608)" class="st0" cx="134.4" cy="214.2" rx="4.4" ry="4.4"/><circle class="st1" cx="150.8" cy="218.6" r="4.4"/><ellipse transform="matrix(0.866 -0.5 0.5 0.866 -84.6945 112.2892)" class="st1" cx="167.2" cy="214.2" rx="4.4" ry="4.4"/><ellipse transform="matrix(0.5 -0.866 0.866 0.5 -85.4871 256.2822)" class="st1" cx="179.2" cy="202.2" rx="4.4" ry="4.4"/><circle class="st1" cx="183.6" cy="185.8" r="4.4"/><ellipse transform="matrix(0.866 -0.5 0.5 0.866 -60.668 112.2906)" class="st1" cx="179.2" cy="169.4" rx="4.4" ry="4.4"/><ellipse transform="matrix(0.5 -0.866 0.866 0.5 -52.6656 223.46)" class="st1" cx="167.2" cy="157.3" rx="4.4" ry="4.4"/><path class="st2" d="M131.7 132.4h-0.8c-2 0-3.6-1.6-3.6-3.6v-22.2c0-2 1.6-3.6 3.6-3.6h0.8c2 0 3.6 1.6 3.6 3.6v22.2C135.3 130.8 133.7 132.4 131.7 132.4z"/><path class="st2" d="M170.1 132.4h-0.8c-2 0-3.6-1.6-3.6-3.6v-22.2c0-2 1.6-3.6 3.6-3.6h0.8c2 0 3.6 1.6 3.6 3.6v22.2C173.7 130.8 172.1 132.4 170.1 132.4z"/><path class="st1" d="M150 57c0 0 105 5 105 40s10.7 53.3-27.8 40.2c-12.7-4.3-20.5-7.7-25.4-10.1 -4.7-2.4-7.8-7.1-8.1-12.4l-0.4-7.4c-0.2-2.9-2-5.4-4.6-6.4 -3.2-1.2-8.1-2.6-15.4-3.5C167.1 96.7 150 97 150 97V57z"/><path class="st0" d="M150 57c0 0-105 5-105 40s-10.7 53.3 27.8 40.2c12.7-4.3 20.5-7.7 25.4-10.1 4.7-2.4 7.8-7.1 8.1-12.4l0.4-7.4c0.2-2.9 2-5.4 4.6-6.4 3.2-1.2 8.1-2.6 15.4-3.5C132.9 96.7 150 97 150 97V57z"/><path class="st1" d="M146.6 190.7v-1.6c0-1.4 0.2-2.7 0.7-3.8 0.4-1.1 1.2-2.2 2.4-3.4 1.1-1.2 1.8-2.2 2.1-2.9 0.3-0.7 0.5-1.6 0.5-2.6 0-1-0.2-1.8-0.7-2.4 -0.4-0.6-1.2-0.9-2.1-0.9 -1.6 0-3.3 0.6-5.1 1.7l-2.1-4.5c2.4-1.6 5-2.4 7.8-2.4 2.5 0 4.4 0.7 5.9 2.1 1.4 1.4 2.1 3.3 2.1 5.7 0 1.7-0.2 3.2-0.7 4.3s-1.5 2.6-3.1 4.3c-1 1.1-1.6 1.9-1.9 2.5 -0.3 0.6-0.4 1.4-0.4 2.4v1.4H146.6zM145.5 198.2c0-1.2 0.3-2.1 1-2.7 0.6-0.6 1.6-1 2.8-1 1.2 0 2.2 0.3 2.8 1s0.9 1.6 0.9 2.7c0 1.1-0.3 2-1 2.7 -0.6 0.7-1.6 1-2.8 1 -1.2 0-2.1-0.3-2.8-1C145.9 200.3 145.5 199.4 145.5 198.2z"/></svg>
