<?xml version="1.0" encoding="utf-8"?>
<!-- Generator: Adobe Illustrator 21.0.0, SVG Export Plug-In . SVG Version: 6.00 Build 0)  -->
<svg version="1.1" id="Calque_1" xmlns="http://www.w3.org/2000/svg" xmlns:xlink="http://www.w3.org/1999/xlink" x="0px" y="0px"
	 viewBox="0 0 300 300" style="enable-background:new 0 0 300 300;" xml:space="preserve">
<style type="text/css">
	.st0{fill:#429599;}
	.st1{fill:#367A81;}
</style>
<g>
	<path class="st0" d="M160.9,179.2c-3,1.8-6.9,2.9-10.9,2.9c-4,0-7.9-1-10.9-2.9L89.9,149c0,0-4.4-2.7-4.4,3.4c0,7,0,28,0,28
		c0,0.3,0,1.7,0,2.1c0,15.9,28.9,33,64.5,33s64.5-17.1,64.5-33c0-0.4,0-1.8,0-2.1c0,0,0-22.3,0-29.7c0-5-3.2-2.5-3.2-2.5
		L160.9,179.2z"/>
	<path class="st1" d="M231.9,125c3.8-2.3,3.8-6.1,0-8.4l-75-37.5c-3.8-2.3-10-2.3-13.8,0l-75,37.5c-3.8,2.3-3.8,6.1,0,8.4l75,46
		c3.8,2.3,10,2.3,13.8,0"/>
	<path class="st0" d="M228.8,193.2c0-12.7,0-50.8,0-50.8s0-2.4-1.4-1.6c-1.1,0.6-4,2.2-4.9,3.1c-1.1,1-0.9,3.2-0.9,3.2
		s0,34.6,0,46.1c0,0.7-0.6,1-0.8,1.1c-2.6,1.5-4.3,4.3-4.3,7.6c0,4.8,3.9,8.8,8.8,8.8c4.8,0,8.8-3.9,8.8-8.8c0-3.2-1.8-6.1-4.4-7.6
		C229.3,194.2,228.8,193.9,228.8,193.2z"/>
</g>
</svg>
