<svg id="Calque_1" data-name="Calque 1" xmlns="http://www.w3.org/2000/svg" xmlns:xlink="http://www.w3.org/1999/xlink" viewBox="0 0 368.84 528.56"><defs><style>.cls-1,.cls-3,.cls-7{fill:#38a9b4;}.cls-1{clip-rule:evenodd;}.cls-2,.cls-5{fill:#1d1e1c;}.cls-4,.cls-6{fill:#fff;}.cls-5{opacity:0.2;}.cls-6,.cls-7{fill-rule:evenodd;}.cls-8{clip-path:url(#clip-path);}.cls-9{fill:#177075;}</style><clipPath id="clip-path" transform="translate(1)"><path id="SVGID" class="cls-1" d="M173.72,340.55l33.15,10.64a16.2,16.2,0,1,1,16.07,5.16L256.1,367a6,6,0,0,1,3.83,7.45l-11,34.35a16.2,16.2,0,1,0-4.39,13.68l-11,34.35a6,6,0,0,1-7.46,3.83l-82.38-26.44a6,6,0,0,1-3.83-7.45l26.44-82.38a5.94,5.94,0,0,1,7.46-3.83"/></clipPath></defs><title>community</title><polyline class="cls-2" points="217.98 72.39 255.53 75.11 254.51 78.1 224.19 76.05"/><polyline class="cls-2" points="291.23 82.5 292.13 133.26 288.25 132.76 286.43 79.15"/><path class="cls-2" d="M287.09,132.26s-4.31-7.68-9-2.79-2,11.63-2,11.63,1.54,2.09,6.78,2.33,6.47,0,7.46-1.63.82-9,.82-9Z" transform="translate(1)"/><polygon class="cls-2" points="265.58 186.85 255.46 121.54 279.95 111.34 281.25 115.81 260.2 125.01 269.63 186.74 265.58 186.85"/><path class="cls-2" d="M263.92,183.27s-5.84-10.58-13.68-3.78-3.3,16.19-3.3,16.19,2.57,2.76,11.3,2.77c11.35,0,12-5.69,11.55-8.65-1.83-12.46-4-9.35-4-9.35Z" transform="translate(1)"/><polygon class="cls-2" points="348.93 144.63 352.98 144.63 364.2 91.95 329.35 100.95 329.89 105.33 359.74 97.1 348.93 144.63"/><polygon class="cls-2" points="338.74 168.54 342.14 172.22 352.19 113.56 327.86 107.67 324.06 111.16 347.58 115.62 338.74 168.54"/><polygon class="cls-2" points="311.35 187.85 321.47 122.54 296.98 112.34 295.68 116.81 316.73 126.01 307.3 187.74 311.35 187.85"/><polyline class="cls-2" points="322.6 86.34 321.77 135.13 325.57 136.6 327.4 83"/><path class="cls-2" d="M324.74,136.1s3.69-7.68,8.4-2.79,2,11.63,2,11.63-1.54,2.1-6.78,2.33-6.48,0-7.46-1.63S321,132,321,132Z" transform="translate(1)"/><path class="cls-2" d="M341.64,171.58s6.52-12.52,14.17-5.72a13.1,13.1,0,0,1,4.38,11.85,7.13,7.13,0,0,1-5.64,6.07,33.66,33.66,0,0,1-6.55.58c-11.08,0-10.87-4.12-11.65-7-1.31-4.79,1.64-9.56,1.64-9.56Z" transform="translate(1)"/><path class="cls-2" d="M352,144.63s3.83-9,8.89-4.45a8.78,8.78,0,0,1,2.89,7.89,4.69,4.69,0,0,1-3.71,4,21.59,21.59,0,0,1-4.34.39c-7.33,0-7.68-1.81-8.19-3.71-.87-3.19,3-11.2,3-11.2Z" transform="translate(1)"/><path class="cls-2" d="M311,184.27s5.84-10.58,13.68-3.78,3.3,16.19,3.3,16.19-2.57,2.76-11.3,2.77c-11.35,0-12-5.69-11.55-8.65,1.83-12.46,4-9.35,4-9.35Z" transform="translate(1)"/><path class="cls-3" d="M339.64,73.74c0,34.58-13.3,42.94-44.22,42.94-24.43,0-43-14.86-43-42.94s18.56-37.83,43-37.83S339.64,45.65,339.64,73.74Z" transform="translate(1)"/><path class="cls-2" d="M294.81,119c-12.92,0-24-4-32-11.48-8.56-8-13.08-19.72-13.08-33.79,0-26.27,15.58-40.16,45.05-40.16,29.85,0,46.28,14.26,46.28,40.16,0,14-2.31,28.15-11.29,36.26C321.63,117.38,307.63,119,294.81,119Zm0-80.78c-27.16,0-40.93,12-40.93,35.51,0,25.05,15.68,40.62,40.93,40.62,32.12,0,42.17-9.45,42.17-40.62C337,44.39,314.05,38.23,294.81,38.23Z" transform="translate(1)"/><path class="cls-4" d="M282.26,51.63C279,67.9,269,79.33,259.37,77.42s-14.91-16.66-11.69-32.93,13.67-27.9,23.35-26S285.48,35.36,282.26,51.63Z" transform="translate(1)"/><path d="M270.8,16.91c-5-1-10.39,1.35-15.11,6.59s-8.16,12.64-9.8,21S244.63,61,247,67.55s6.43,10.86,11.45,11.85a12.27,12.27,0,0,0,6.43-.48c8-2.73,15.31-13.12,18-26.86C286.34,34.68,280.91,18.91,270.8,16.91ZM259.14,75.83c-9-1.78-13.84-15.64-10.82-30.9,1.46-7.41,4.56-14,8.71-18.66a18.35,18.35,0,0,1,7.55-5.36,10.56,10.56,0,0,1,5.52-.42c4.28.84,7.71,4.54,9.65,10.42s2.2,13.2.72,20.67C277.43,66.94,268.06,77.59,259.14,75.83Z" transform="translate(1)"/><ellipse class="cls-2" cx="258.04" cy="43.18" rx="13.38" ry="6.21" transform="translate(166.58 287.92) rotate(-78.8)"/><ellipse class="cls-4" cx="259.69" cy="35.67" rx="3.69" ry="2.74" transform="translate(180.47 285.23) rotate(-80)"/><ellipse class="cls-4" cx="282.14" cy="54.57" rx="25.23" ry="15.4" transform="translate(174.83 320.75) rotate(-78.8)"/><path d="M286.84,28.13c-4.39-.87-9.07,1.1-13.17,5.57s-7.06,10.75-8.47,17.83-1,14.08,1,19.72,5.66,9.29,10.05,10.16A11,11,0,0,0,282,81c7.07-2.41,13.59-11.38,15.88-23C300.83,43.31,295.86,29.91,286.84,28.13Zm8.57,29.38c-2,10-7.54,17.69-13.56,19.74a9.3,9.3,0,0,1-4.81.37c-3.66-.73-6.66-3.77-8.43-8.58a32.08,32.08,0,0,1-.9-17c2-10,7.54-17.69,13.56-19.74a9.21,9.21,0,0,1,4.81-.37c3.67.72,6.66,3.77,8.43,8.57A32.12,32.12,0,0,1,295.41,57.51Z" transform="translate(1)"/><ellipse class="cls-2" cx="276.01" cy="51.04" rx="11.17" ry="5.67" transform="translate(173.36 311.89) rotate(-78.8)"/><ellipse class="cls-4" cx="277.41" cy="45.97" rx="3.2" ry="2.38" transform="translate(172.8 306.58) rotate(-77.35)"/><ellipse class="cls-5" cx="257.03" cy="194.87" rx="16.15" ry="5.18"/><ellipse class="cls-5" cx="281.47" cy="139.96" rx="10.66" ry="4.26"/><ellipse class="cls-5" cx="354.22" cy="181.54" rx="14.62" ry="3.96"/><ellipse class="cls-5" cx="323.51" cy="196.32" rx="16.15" ry="5.18"/><ellipse class="cls-5" cx="358.23" cy="149.8" rx="9.44" ry="4.26"/><ellipse class="cls-5" cx="332.04" cy="144.22" rx="10.66" ry="4.26"/><path class="cls-6" d="M145.92,126.55,133.71,91.22a17.39,17.39,0,1,1-5.92-17.12L115.58,38.77a6.38,6.38,0,0,1,3.94-8.09L156.12,18a17.38,17.38,0,1,0,14.58-5L207.3.35a6.37,6.37,0,0,1,8.09,3.93l30.33,87.78a6.38,6.38,0,0,1-3.93,8.09L154,130.48a6.37,6.37,0,0,1-8.09-3.93" transform="translate(1)"/><polygon class="cls-2" points="190.33 96.7 262.51 116.92 281.05 96.48 277.44 94.53 260.41 112.19 191.29 92.72 190.33 96.7"/><path class="cls-2" d="M190.11,97.59S176.39,97.36,177,87.08s10.16-10.62,10.16-10.62,3.52,1,8.52,8.89c6.51,10.24,3.3,12.47,1.08,13.93" transform="translate(1)"/><polyline class="cls-2" points="163.42 388.77 130.66 407.31 132.86 409.58 159.38 394.74"/><polygon class="cls-2" points="108.39 513.1 155.07 433.15 115.35 434.54 114.05 437.79 147.9 437.24 103.74 512.98 108.39 513.1"/><polyline class="cls-2" points="97.17 408.96 96.27 459.72 100.14 459.22 101.97 405.61"/><path class="cls-2" d="M99.31,458.72s4.31-7.68,9-2.79,2,11.63,2,11.63-1.54,2.09-6.78,2.33-6.48,0-7.46-1.63-.82-9-.82-9Z" transform="translate(1)"/><path class="cls-2" d="M107.44,512.55s6.46-11.18,14.29-4.38,2.08,15.58,2.08,15.58-2.56,2.76-11.29,2.77c-11.36,0-12.36-5.77-11.55-8.65,2.83-10,4.7-5.47,4.59-5.69Z" transform="translate(1)"/><polygon class="cls-2" points="28.91 473.12 24.87 473.12 12.07 402.49 59.05 427.41 58.06 433.34 17.34 409.68 28.91 473.12"/><polygon class="cls-2" points="30.1 496.37 26.7 500.05 6.67 448.31 60.54 434.13 64.2 439 13.12 451.18 30.1 496.37"/><polygon class="cls-2" points="77.05 514.31 66.93 449 91.42 438.8 92.72 443.27 71.66 452.47 81.09 514.2 77.05 514.31"/><polyline class="cls-2" points="65.8 412.8 66.63 461.59 62.82 463.06 61 409.45"/><path class="cls-2" d="M61.66,462.56s-3.7-7.68-8.4-2.79-2,11.63-2,11.63,1.54,2.1,6.78,2.33,6.47,0,7.46-1.63-.11-13.6-.11-13.6Z" transform="translate(1)"/><path class="cls-2" d="M25.2,499.41S18.68,486.9,11,493.69a13.12,13.12,0,0,0-4.38,11.85,7.12,7.12,0,0,0,5.64,6.07,32.89,32.89,0,0,0,6.55.58c11.09,0,10.87-4.12,11.65-7,1.31-4.79-1.64-9.56-1.64-9.56Z" transform="translate(1)"/><path class="cls-2" d="M23.87,472.13s-3.83-9-8.88-4.44a8.7,8.7,0,0,0-2.89,7.88,4.66,4.66,0,0,0,3.7,4,21.67,21.67,0,0,0,4.34.39c7.33,0,7.68-1.81,8.2-3.71.86-3.18-2.2-11.2-2.2-11.2Z" transform="translate(1)"/><path class="cls-2" d="M75.39,510.73S69.55,500.15,61.71,507s-3.3,16.19-3.3,16.19S61,525.9,69.7,525.91c11.36,0,12-5.69,11.55-8.65-1.83-12.46-4-9.35-4-9.35Z" transform="translate(1)"/><path class="cls-3" d="M46.75,400.19c0,34.59,13.3,42.95,44.23,42.95,24.42,0,43-14.86,43-42.95s-18.57-37.82-43-37.82S46.75,372.11,46.75,400.19Z" transform="translate(1)"/><path class="cls-2" d="M56.59,436.46c-9-8.11-11.29-22.24-11.29-36.27C45.3,374.3,61.74,360,91.59,360c29.47,0,45,13.88,45,40.15,0,14.08-4.53,25.77-13.08,33.8-8,7.51-19,11.48-32,11.48S64.77,443.84,56.59,436.46Zm-7.17-36.27c0,31.18,10,40.63,42.17,40.63,25.25,0,40.93-15.57,40.93-40.63,0-23.55-13.77-35.5-40.93-35.5C72.35,364.69,49.42,370.85,49.42,400.19Z" transform="translate(1)"/><path class="cls-4" d="M98.8,376.69c2.92,16.33,12.7,27.95,22.41,26.22s15.21-16.37,12.3-32.7-13.15-28.15-22.85-26.42S95.89,360.37,98.8,376.69Z" transform="translate(1)"/><path d="M98.16,377.12c2.46,13.79,9.56,24.31,17.53,27.19a12.23,12.23,0,0,0,6.41.6c5-.9,9.19-5,11.68-11.63s3-14.74,1.52-23.08-4.83-15.84-9.41-21.12-9.94-7.78-15-6.88C100.77,344,95.05,359.68,98.16,377.12Zm2.43-.44c-1.33-7.49-.94-14.83,1.11-20.65s5.55-9.47,9.85-10.24a10.58,10.58,0,0,1,5.51.53,18.34,18.34,0,0,1,7.45,5.5c4.06,4.7,7,11.39,8.36,18.82,2.73,15.31-2.39,29.08-11.41,30.69S103.35,392.1,100.59,376.68Z" transform="translate(1)"/><ellipse class="cls-2" cx="123.92" cy="370.8" rx="6.21" ry="13.38" transform="translate(-62.22 27.54) rotate(-10.12)"/><ellipse class="cls-4" cx="122.41" cy="363.27" rx="2.74" ry="3.69" transform="translate(-53.85 23.38) rotate(-8.92)"/><ellipse class="cls-4" cx="98.87" cy="379.64" rx="15.4" ry="25.23" transform="translate(-64.16 23.27) rotate(-10.12)"/><path d="M83,382.78C85.1,394.4,91.44,403.5,98.47,406a11,11,0,0,0,5.74.54c4.41-.78,8-4.32,10.24-10s2.67-12.59,1.41-19.69-4.16-13.5-8.14-18-8.65-6.61-13-5.82C85.62,354.73,80.39,368,83,382.78Zm3.74-17.45c1.86-4.77,4.91-7.76,8.59-8.41a9.19,9.19,0,0,1,4.8.46c6,2.16,11.4,10,13.19,20a32.18,32.18,0,0,1-1.22,17c-1.86,4.76-4.91,7.75-8.59,8.41a9.3,9.3,0,0,1-4.8-.46c-6-2.16-11.4-10-13.19-20A32.18,32.18,0,0,1,86.76,365.33Z" transform="translate(1)"/><ellipse class="cls-2" cx="105.8" cy="378.32" rx="5.67" ry="11.17" transform="translate(-63.82 24.47) rotate(-10.12)"/><ellipse class="cls-4" cx="104.5" cy="373.23" rx="2.38" ry="3.2" transform="translate(-71.75 28.55) rotate(-11.57)"/><ellipse class="cls-5" cx="118.5" cy="523.38" rx="16.15" ry="5.18"/><ellipse class="cls-5" cx="106.93" cy="466.42" rx="10.66" ry="4.26"/><ellipse class="cls-5" cx="14.62" cy="509.37" rx="14.62" ry="3.96"/><ellipse class="cls-5" cx="64.89" cy="522.78" rx="16.15" ry="5.18"/><ellipse class="cls-5" cx="19.19" cy="476.78" rx="9.44" ry="4.26"/><ellipse class="cls-5" cx="56.36" cy="470.68" rx="10.66" ry="4.26"/><path id="SVGID-2" data-name="SVGID" class="cls-7" d="M173.72,340.55l33.15,10.64a16.2,16.2,0,1,1,16.07,5.16L256.1,367a6,6,0,0,1,3.83,7.45l-11,34.35a16.2,16.2,0,1,0-4.39,13.68l-11,34.35a6,6,0,0,1-7.46,3.83l-82.38-26.44a6,6,0,0,1-3.83-7.45l26.44-82.38a5.94,5.94,0,0,1,7.46-3.83" transform="translate(1)"/><g class="cls-8"><rect class="cls-9" x="139.83" y="322.45" width="122.1" height="139.2"/></g><polygon class="cls-2" points="180.49 404.34 128.69 448.26 106.08 422.51 108.73 419.38 128.93 443.09 178.15 400.98 180.49 404.34"/><path class="cls-2" d="M177.19,407.73c-2.51-.87-4-5.21,5.39-12.89a31.36,31.36,0,0,1,7.92-5,5.62,5.62,0,0,1,5.43.64,10.1,10.1,0,0,1,4.26,9.68,5.57,5.57,0,0,1-1.94,3.64A21.12,21.12,0,0,1,177.19,407.73Z" transform="translate(1)"/></svg>