<?xml version="1.0" encoding="utf-8"?>
<!-- Generator: Adobe Illustrator 21.0.0, SVG Export Plug-In . SVG Version: 6.00 Build 0)  -->
<svg version="1.1" id="Calque_1" xmlns="http://www.w3.org/2000/svg" xmlns:xlink="http://www.w3.org/1999/xlink" x="0px" y="0px"
	 viewBox="0 0 300 300" style="enable-background:new 0 0 300 300;" xml:space="preserve">
<style type="text/css">
	.st0{fill:#429599;}
	.st1{fill:#367A81;}
	.st2{fill:#FFFFFF;}
	.st3{fill:#E1EBF0;}
	.st4{fill:#B4D2D7;}
	.st5{fill:#6FA5AA;}
</style>
<g>
	<path class="st0" d="M210.8,187.1c-4.3,11.6-10.7,21.7-19.2,30c-9.7,9.4-22.3,16.9-37.6,22.3c-0.5,0.2-1,0.3-1.6,0.4
		c-0.7,0.1-1.4,0.2-2.1,0.2h-0.1c-0.7,0-1.5-0.1-2.2-0.2c-0.5-0.1-1-0.2-1.5-0.4c-15.3-5.3-28-12.8-37.6-22.3
		c-8.5-8.3-15-18.4-19.2-30c-7.8-21.1-7.3-44.3-7-63l0-0.3c0.1-1.5,0.1-3.2,0.1-4.9c0.1-8.8,7.1-16,15.9-16.5
		c18.3-1,32.5-7,44.6-18.8l0.1-0.1c2-1.8,4.5-2.7,7.1-2.7c2.4,0,4.8,0.9,6.8,2.7l0.1,0.1c12.1,11.8,26.3,17.8,44.6,18.8
		c8.8,0.5,15.8,7.8,15.9,16.5c0,1.8,0.1,3.4,0.1,4.9l0,0.1C218.1,142.7,218.6,166,210.8,187.1z"/>
	<path class="st1" d="M210.8,187.1c-4.3,11.6-10.7,21.7-19.2,30c-9.7,9.4-22.3,16.9-37.6,22.3c-0.5,0.2-1,0.3-1.6,0.4
		c-0.7,0.1-1.4,0.2-2.1,0.2V80.8c2.4,0,4.8,0.9,6.8,2.7l0.1,0.1c12.1,11.8,26.3,17.8,44.6,18.8c8.8,0.5,15.8,7.8,15.9,16.5
		c0,1.8,0.1,3.4,0.1,4.9l0,0.1C218.1,142.7,218.6,166,210.8,187.1z"/>
	<path class="st2" d="M189.8,160.4c0,21.8-17.7,39.6-39.5,39.7h-0.1c-21.9,0-39.7-17.8-39.7-39.7c0-21.9,17.8-39.7,39.7-39.7h0.1
		C172.1,120.8,189.8,138.6,189.8,160.4z"/>
	<path class="st3" d="M189.8,160.4c0,21.8-17.7,39.6-39.5,39.7v-79.3C172.1,120.8,189.8,138.6,189.8,160.4z"/>
	<path class="st4" d="M168.1,154.7l-17.9,17.9l-3.9,3.9c-0.9,0.9-2.1,1.4-3.3,1.4c-1.2,0-2.4-0.5-3.3-1.4l-8.3-8.3
		c-1.8-1.8-1.8-4.8,0-6.6c1.8-1.8,4.8-1.8,6.6,0l5,5l18.4-18.4c1.8-1.8,4.8-1.8,6.6,0C170,149.9,170,152.9,168.1,154.7z"/>
	<path class="st5" d="M168.1,154.7l-17.9,17.9v-13.2l11.3-11.3c1.8-1.8,4.8-1.8,6.6,0C170,149.9,170,152.9,168.1,154.7z"/>
</g>
</svg>
