<svg xmlns="http://www.w3.org/2000/svg" width="505" height="445" viewBox="0 0 505 445"><style type="text/css">
	.st0{opacity:0.3;fill:#020203;}
	.st1{fill:#B6BDBE;}
	.st2{fill:#DFDFDF;}
	.st3{fill:#1A2D2F;}
	.st4{fill:#165054;}
	.st5{opacity:0.2;fill:#020203;}
</style><ellipse class="st0" cx="251.9" cy="411.1" rx="237.6" ry="16.7"/><rect x="178.9" y="330.1" class="st1" width="146.1" height="61"/><rect x="122.8" y="391.1" class="st2" width="257.3" height="17.2"/><path class="st2" d="M487.2 305.7c0 25.3-20.5 45.8-45.8 45.8H62.5c-25.3 0-45.8-20.5-45.8-45.8V67.8C16.7 42.5 37.2 22 62.5 22h378.9c25.3 0 45.8 20.5 45.8 45.8V305.7z"/><path class="st3" d="M441.4 22H62.5c-25.3 0-45.8 20.5-45.8 45.8v237.9h470.5V67.8C487.2 42.5 466.7 22 441.4 22z"/><rect x="40.3" y="49.6" class="st4" width="426.5" height="227.9"/><circle class="st3" cx="251.6" cy="322" r="8.6"/><polygon class="st5" points="178.9 351.5 178.9 391.1 325 367.8 325 351.5 "/></svg>
 
