<svg xmlns="http://www.w3.org/2000/svg" width="782.34" height="88.31" viewBox="0 0 782.34 88.31"><title>API platform bordel2</title><g id="Text_inline" data-name="Text inline"><path d="M40.87,3.84,57.1,17.09c4.71,4,7.31,7.18,7.68,13.25V77.29A10.57,10.57,0,0,1,54.12,87.94a10.71,10.71,0,0,1-10.9-10.65V66.76L21.67,46.82V77.29A10.68,10.68,0,0,1,10.9,87.94,10.78,10.78,0,0,1,0,77.29V30.34c.5-6.07,3.34-9.29,7.93-13.25L23.78,3.84C30.1-1.11,34.68-1.36,40.87,3.84Zm2.35,41.37V22.67H21.67V45.21Z" style="fill:#67cece"/><path d="M97.11,66.14v10.4c0,6.07-4.46,11-10.53,11a11,11,0,0,1-10.9-11V19A18.45,18.45,0,0,1,94,.62h16.47A18.08,18.08,0,0,1,123.24,5.7l11.89,11.89c7.8,7.43,6.44,25.76-1.12,33.07L123.24,60.94a17.19,17.19,0,0,1-12.76,5.2Zm20.81-21.67V22.29L97.36,22V44.46Z" style="fill:#67cece"/><path d="M147.77,78.05v-40c0-5.44,4.58-10.23,10.9-10.23s11,4.35,11,9.68V78.05c0,5.33-4.83,9.79-11,9.79C152.72,87.85,147.77,83.38,147.77,78.05Zm21.45-55.21h-21V.85h21Z" style="fill:#67cece"/><path d="M245.3,66.14v10.4c0,6.07-4.46,11-10.53,11a11,11,0,0,1-10.9-11V19A18.45,18.45,0,0,1,242.21.62h16.47A18.08,18.08,0,0,1,271.44,5.7l11.89,11.89c7.8,7.43,6.44,25.76-1.11,33.07L271.44,60.94a17.19,17.19,0,0,1-12.76,5.2Zm20.81-21.67V22.29L245.55,22V44.46Z" style="fill:#67cece"/><path d="M294.84,68.74V10.9A11,11,0,0,1,305.74.25a10.82,10.82,0,0,1,11,10.65v55c10.9,0,7.8-.25,18.58-.25,14.24,0,14.24,21.8,0,21.8H313.67A18.87,18.87,0,0,1,294.84,68.74Z" style="fill:#67cece"/><path d="M392.56,3.84l16.23,13.25c4.71,4,7.31,7.18,7.68,13.25V77.29a10.57,10.57,0,0,1-10.65,10.65,10.71,10.71,0,0,1-10.9-10.65V66.76L373.37,46.82V77.29a10.84,10.84,0,0,1-21.67,0V30.35c.5-6.07,3.34-9.29,7.93-13.25L375.47,3.84C381.79-1.11,386.37-1.36,392.56,3.84Zm2.35,41.37V22.67H373.37V45.21Z" style="fill:#67cece"/><path d="M467.87.74c14,0,14,21.55,0,21.55h-9.29V77.16c0,14.61-21.67,14.61-21.67,0V22.29h-9.29c-14.12,0-14.12-21.55,0-21.55Z" style="fill:#67cece"/><path d="M506,22.42V36.79h19.45a10.86,10.86,0,0,1,10.78,10.78,11.1,11.1,0,0,1-11,10.9H506V77.41c0,14.12-21.67,14.12-21.67,0V19.07A18.26,18.26,0,0,1,502.55.74h27.62a10.79,10.79,0,0,1,10.9,10.65,11.19,11.19,0,0,1-10.9,11Z" style="fill:#67cece"/><path d="M566.34.87h24.77A18.45,18.45,0,0,1,609.44,19.2V69c0,8.92-8.55,18.33-17.71,18.33H565.84c-9.17,0-18.33-9.41-18.33-18.33V19.2C547.51,8.42,556.43.87,566.34.87Zm21.43,21.68H569.19V65.89h18.58Z" style="fill:#67cece"/><path d="M670.25,52.14c7.68,4.71,10.4,10.65,10.4,18.45v6.32a10.59,10.59,0,1,1-21.18,0V70.85L638.3,45.08V76.91a10.68,10.68,0,0,1-10.65,10.78,10.81,10.81,0,0,1-10.9-10.78V11.64A10.84,10.84,0,0,1,627.65.74H651.8a18.36,18.36,0,0,1,13,5.33l10.53,10.16a18.27,18.27,0,0,1,5.82,13.38v4.83C681.15,43,677.19,48.68,670.25,52.14Zm-32-29.73V43.23h21.18V22.42Z" style="fill:#67cece"/><path d="M725.74,4.09l9.41,10,9.41-10c5.2-5.45,12.63-5.45,17.46,0l12.63,13.13c3.84,4.33,7.06,7.06,7.68,13.13V77.53c0,14-21.8,14-21.8,0V22.67H746.05V77.53c0,14.37-21.67,14.37-21.67,0V22.67H710.13V77.53c0,14-21.8,14-21.8,0V30.35c.25-6.07,3.72-8.79,7.68-13.13L708.65,4.09C713.48-1.36,720.91-1.36,725.74,4.09Z" style="fill:#67cece"/></g></svg>