<svg xmlns="http://www.w3.org/2000/svg" width="400" height="419" viewBox="0 0 400 419"><style>.a{fill:#1D1E1C;opacity:0.2;}.b{fill:#1D1E1C;}.c{fill:#FFF;}</style><title>  API platform bordel2</title><circle cx="200" cy="212.5" r="175.1" fill="#67CECE"/><ellipse cx="157.7" cy="218.4" rx="23.3" ry="5.9" class="a"/><ellipse cx="109.6" cy="217.1" rx="23.3" ry="5.9" class="a"/><ellipse cx="121.1" cy="251.7" rx="23.3" ry="5.9" class="a"/><ellipse cx="76.9" cy="235.2" rx="23.3" ry="5.9" class="a"/><polygon points="132.3 215.3 128.1 215.3 128.1 122 169.2 144.2 167.2 147.9 132.3 129.1 " class="b"/><polygon points="100 233.8 95.8 233.3 107.6 140.4 169.8 149.8 169.2 154 111.2 145.3 " class="b"/><polygon points="139.6 246.8 137.6 162.7 167.6 154 168.8 158 141.9 165.9 143.8 246.7 " class="b"/><polygon points="173.2 211.5 159.3 169.8 178.9 165.1 179.9 169.2 164.8 172.9 177.2 210.2 " class="b"/><path d="M173.5 211.1c0 0-4.1-7-10.3-2.6 -6.2 4.5-2.6 10.6-2.6 10.6s2 1.9 9 2.1c6.9 0.2 8.6 0 9.9-1.5 1.3-1.5-2.9-12.6-2.9-12.6L173.5 211.1z" class="b"/><path d="M93.8 226.5c0 0-6.6-9.8-15.2-3.5S75 237.8 75 237.8s2.8 2.1 12.5 2.1c12.6 0 12.3-3.8 13.2-6.4 1.5-4.4-3.1-12.4-3.1-12.4L93.8 226.5z" class="b"/><path d="M127.5 211c0 0-8.7-12.3-17.4-6.1 -8.7 6.2-3.7 14.8-3.7 14.8s2.8 2.1 12.5 2.1c12.6 0 13.2-2.5 14.1-5.1 1.5-4.4-4-13.7-4-13.7L127.5 211z" class="b"/><path d="M139.2 244.1c0 0-7.8-11.9-16.5-5.7 -8.7 6.2-3.7 14.8-3.7 14.8s2.8 2.5 12.5 2.5c12.6 0 12.8-4 12.8-6.8 0.2-13.4-4.4-12.4-4.4-12.4L139.2 244.1z" class="b"/><polygon points="283 215.9 287.3 215.9 287.3 122.5 246.1 144.7 248.2 148.5 283 129.7 " class="b"/><polygon points="315.3 234.4 319.6 233.8 307.8 141 245.5 150.4 246.2 154.6 304.1 145.9 " class="b"/><polygon points="275.8 247.4 277.8 163.2 247.7 154.6 246.6 158.6 273.5 166.4 271.5 247.3 " class="b"/><polygon points="242.2 212.1 256 170.4 236.5 165.7 235.5 169.8 250.6 173.4 238.2 210.8 " class="b"/><path d="M241.9 211.6c0 0 4.1-7 10.3-2.6 6.2 4.5 2.6 10.6 2.6 10.6s-2 1.9-9 2.1c-6.9 0.2-8.6 0-9.9-1.5 -1.3-1.5 2.9-12.6 2.9-12.6L241.9 211.6z" class="b"/><path d="M321.5 227.1c0 0 6.6-9.8 15.2-3.5 8.6 6.3 3.7 14.8 3.7 14.8s-2.8 2.1-12.5 2.1c-12.6 0-12.3-3.8-13.2-6.4 -1.5-4.4 3.1-12.4 3.1-12.4L321.5 227.1z" class="b"/><path d="M287.9 211.6c0 0 8.7-12.3 17.4-6.1 8.7 6.2 3.7 14.8 3.7 14.8s-2.8 2.1-12.5 2.1c-12.6 0-13.2-2.5-14.1-5.1 -1.5-4.4 4-13.7 4-13.7L287.9 211.6z" class="b"/><path d="M276.2 244.7c0 0 7.8-11.9 16.5-5.7 8.7 6.2 3.7 14.8 3.7 14.8s-2.8 2.5-12.5 2.5c-12.6 0-12.8-4-12.8-6.8 -0.2-13.4 4.4-12.4 4.4-12.4L276.2 244.7z" class="b"/><path d="M255 138.2c0 25.7-20.5 39.2-45.7 39.2S165 163.7 165 138.2s19.2-34.6 44.4-34.6S255 112.6 255 138.2z" fill="#38A9B4"/><path d="M208.9 179.5c-13.3 0-24.8-3.6-33-10.5 -8.8-7.3-13.5-18-13.5-30.9 0-24 16.1-36.7 46.5-36.7 30.8 0 47.8 13 47.8 36.7 0 12.8-4.9 23.5-14.2 30.9C234.1 175.8 222.1 179.5 208.9 179.5zM208.9 105.8c-28.1 0-42.3 10.9-42.3 32.4 0 22.9 16.2 37.1 42.3 37.1 26.5 0 43.6-14.6 43.6-37.1C252.4 111.4 228.7 105.8 208.9 105.8z" class="b"/><ellipse cx="192.2" cy="111" rx="28.5" ry="29.5" class="c"/><path d="M191.6 141.9c-16.5 0-30-13.9-30-30.9 0-17.1 13.4-30.9 30-30.9 16.5 0 30 13.9 30 30.9C221.6 128.1 208.2 141.9 191.6 141.9zM191.6 83c-14.9 0-27 12.5-27 28 0 15.4 12.1 28 27 28s27-12.5 27-28C218.6 95.6 206.5 83 191.6 83z" class="b"/><ellipse cx="234.8" cy="115.8" rx="23.5" ry="23" class="c"/><path d="M234.2 140.3c-13.8 0-25-11-25-24.5s11.2-24.5 25-24.5c13.8 0 25 11 25 24.5S248 140.3 234.2 140.3zM234.2 94.2c-12.1 0-22 9.7-22 21.6s9.9 21.6 22 21.6c12.1 0 22-9.7 22-21.6S246.3 94.2 234.2 94.2z" class="b"/><circle cx="194" cy="112.5" r="13.1" class="b"/><circle cx="201.1" cy="110.6" r="3.6" class="c"/><ellipse cx="236.6" cy="117.2" rx="10.6" ry="10.2" class="b"/><circle cx="234.6" cy="115.3" r="2.9" class="c"/><ellipse cx="258" cy="219.2" rx="23.3" ry="5.9" class="a"/><ellipse cx="306.2" cy="217.9" rx="23.3" ry="5.9" class="a"/><ellipse cx="294.7" cy="252.5" rx="23.3" ry="5.9" class="a"/><ellipse cx="338.9" cy="236" rx="23.3" ry="5.9" class="a"/><path d="M181.9 237.4l6.9 5.6c2 1.7 3.1 3.1 3.3 5.6v19.9c0 2.5-2 4.5-4.5 4.5 -2.6 0-4.6-2-4.6-4.5v-4.5l-9.2-8.5v12.9c0 2.5-2.1 4.5-4.6 4.5s-4.6-2-4.6-4.5v-19.9c0.2-2.6 1.4-3.9 3.4-5.6l6.7-5.6C177.3 235.3 179.3 235.2 181.9 237.4zM182.9 255v-9.6h-9.2v9.6H182.9z" class="c"/><path d="M205.8 263.8v4.4c0 2.6-1.9 4.7-4.5 4.7 -2.5 0-4.6-2.1-4.6-4.7 0-8.2 0-16.3 0-24.5 0-4.3 3.5-7.8 7.8-7.8 2.5 0 4.5 0 7 0 2.1 0 3.9 0.7 5.4 2.2l5.1 5.1c3.3 3.2 2.7 10.9-0.5 14.1l-4.6 4.4c-1.5 1.5-3.3 2.2-5.4 2.2L205.8 263.8 205.8 263.8zM214.6 254.6v-9.4l-8.7-0.1v9.5H214.6z" class="c"/><path d="M227.3 268.8v-17c0-2.3 1.9-4.3 4.6-4.3 2.6 0 4.7 1.8 4.7 4.1v17.2c0 2.3-2.1 4.2-4.7 4.2C229.4 273 227.3 271.1 227.3 268.8zM236.4 245.5h-8.9v-9.3h8.9V245.5z" class="c"/><path d="M91.2 312.2v4.4c0 2.6-1.9 4.7-4.5 4.7 -2.5 0-4.6-2.1-4.6-4.7 0-8.2 0-16.3 0-24.5 0-4.3 3.5-7.8 7.8-7.8 2.5 0 4.5 0 7 0 2.1 0 3.9 0.7 5.4 2.2l5.1 5.1c3.3 3.2 2.7 10.9-0.5 14.1l-4.6 4.4c-1.5 1.5-3.3 2.2-5.4 2.2L91.2 312.2 91.2 312.2zM100.1 303v-9.4l-8.7-0.1v9.5H100.1z" class="c"/><path d="M112.3 313.3c0-8.2 0-16.3 0-24.6 0-2.5 2.2-4.5 4.6-4.5 2.6 0 4.7 2.1 4.7 4.5v23.4c4.6 0 3.3-0.1 7.9-0.1 6.1 0 6.1 9.3 0 9.3 -4.2 0-6.6 0-9.2 0C115.9 321.2 112.3 317.7 112.3 313.3z" class="c"/><path d="M153.7 285.7l6.9 5.6c2 1.7 3.1 3.1 3.3 5.6v19.9c0 2.5-2 4.5-4.5 4.5 -2.6 0-4.6-2-4.6-4.5v-4.5l-9.2-8.5v12.9c0 2.5-2.1 4.5-4.6 4.5 -2.5 0-4.6-2-4.6-4.5v-19.9c0.2-2.6 1.4-3.9 3.4-5.6l6.7-5.6C149.1 283.6 151.1 283.5 153.7 285.7zM154.7 303.3v-9.6h-9.2v9.6H154.7z" class="c"/><path d="M185.7 284.4c5.9 0 5.9 9.2 0 9.2 -4.6 0 0.6 0-3.9 0 0 7.7 0 15.7 0 23.3 0 6.2-9.2 6.2-9.2 0 0-7.6 0-15.6 0-23.3 -4.6 0 0.6 0-3.9 0 -6 0-6-9.2 0-9.2C174.3 284.4 180 284.4 185.7 284.4z" class="c"/><path d="M201.9 293.6c0 1.7 0 4.5 0 6.1 3.5 0 4.8 0 8.3 0 2.5 0 4.6 2.1 4.6 4.6s-2.1 4.6-4.7 4.6c-3.4 0-4.7 0-8.2 0 0 3.1 0 4.9 0 8.1 0 6-9.2 6-9.2 0 0-8.3 0-16.6 0-24.8 0-4.3 3.5-7.8 7.7-7.8 5.1 0 6.7 0 11.7 0 2.6 0 4.6 2.1 4.6 4.5 0 2.5-2.2 4.7-4.6 4.7L201.9 293.6 201.9 293.6z" class="c"/><path d="M227.5 284.5H238c4.2 0 7.8 3.4 7.8 7.8v21.2c0 3.8-3.6 7.8-7.5 7.8h-11c-3.9 0-7.8-4-7.8-7.8v-21.2C219.6 287.7 223.3 284.5 227.5 284.5zM236.7 293.7h-7.9v18.4h7.9V293.7z" class="c"/><path d="M271.6 306.2c3.3 2 4.4 4.5 4.4 7.8v2.7c0 2.5-2.1 4.6-4.5 4.6 -2.6 0-4.5-2.2-4.5-4.6v-2.6l-9-10.9c0 5.7 0 7.8 0 13.5 0 2.5-2 4.6-4.5 4.6 -2.6 0-4.6-2.1-4.6-4.6 0-9.2 0-18.5 0-27.7 0-2.6 2.1-4.6 4.6-4.6 3.4 0 6.8 0 10.3 0 2.2 0 3.9 0.8 5.5 2.3l4.5 4.3c1.6 1.6 2.5 3.4 2.5 5.7 0 0.7 0 1.4 0 2.1C276.2 302.4 274.5 304.8 271.6 306.2zM258 293.6v8.8h9c0-2.9 0-5.9 0-8.8H258z" class="c"/><path d="M295.2 285.8l4 4.3 4-4.3c2.2-2.3 5.4-2.3 7.4 0l5.4 5.6c1.6 1.8 3 3 3.3 5.6v20c0 5.9-9.3 5.9-9.3 0 0-7.7 0-15.6 0-23.3h-6.2c0 7.7 0 15.6 0 23.3 0 6.1-9.2 6.1-9.2 0 0-7.7 0-15.6 0-23.3h-6.1c0 7.7 0 15.6 0 23.3 0 5.9-9.3 5.9-9.3 0v-20c0.1-2.6 1.6-3.7 3.3-5.6l5.4-5.6C290 283.5 293.1 283.5 295.2 285.8z" class="c"/></svg>
