<svg id="Calque_1" data-name="Calque 1" xmlns="http://www.w3.org/2000/svg" xmlns:xlink="http://www.w3.org/1999/xlink" viewBox="0 0 122.1 139.2"><defs><style>.cls-1,.cls-2{fill:#38a9b4;}.cls-1{clip-rule:evenodd;}.cls-2{fill-rule:evenodd;}.cls-3{clip-path:url(#clip-path);}.cls-4{fill:#177075;}</style><clipPath id="clip-path"><path id="SVGID" class="cls-1" d="M34.89,18.1,68.05,28.74A16.19,16.19,0,1,1,84.12,33.9l33.15,10.64A6,6,0,0,1,121.1,52l-11,34.34a16.2,16.2,0,1,0-4.4,13.69l-11,34.35a6,6,0,0,1-7.45,3.83L4.83,111.76A5.93,5.93,0,0,1,1,104.31L27.44,21.93a5.94,5.94,0,0,1,7.45-3.83"/></clipPath></defs><title>puzzle</title><path id="SVGID-2" data-name="SVGID" class="cls-2" d="M34.89,18.1,68.05,28.74A16.19,16.19,0,1,1,84.12,33.9l33.15,10.64A6,6,0,0,1,121.1,52l-11,34.34a16.2,16.2,0,1,0-4.4,13.69l-11,34.35a6,6,0,0,1-7.45,3.83L4.83,111.76A5.93,5.93,0,0,1,1,104.31L27.44,21.93a5.94,5.94,0,0,1,7.45-3.83"/><g class="cls-3"><rect class="cls-4" width="122.1" height="139.2"/></g></svg>