<svg xmlns="http://www.w3.org/2000/svg" width="256" height="422" viewBox="0 0 256 422"><style>.a{fill:#1D1E1C;}.b{fill:#FFF;}</style><title>  API platform bordel2</title><path d="M127.7 100.6l4.5-5.1 39.8 47.3 -22.7 38.5c-1.7 1.5-4.4 1.2-5.7-0.8l-0.7-1.1c-1.1-1.6-0.8-3.8 0.7-5l19.7-31.1L127.7 100.6z" class="a"/><path d="M130.4 103.7c0 0 17.6-21 12.8-30.7s-7-8.9-14.2-7.8c-7.2 1.1-11.8 5.6-10.7 13.8C119.5 87.2 122.4 95.7 130.4 103.7z" class="a"/><path d="M118.4 100.6l-4.5-5.1 -39.8 47.3 22.8 36.4c1.7 1.5 4.4 1.2 5.7-0.8l0.7-1.1c1.1-1.6 0.8-3.8-0.7-5l-19.7-29L118.4 100.6z" class="a"/><path d="M115.7 103.7c0 0-17.6-21-12.8-30.7 4.8-9.7 7-8.9 14.2-7.8 7.2 1.1 11.8 5.6 10.7 13.8C126.8 87.3 123.8 95.7 115.7 103.7z" class="a"/><polygon points="132.6 43.6 137.1 38.5 223.7 141.7 168.8 193.1 163.8 188.5 214 142.3 " class="a"/><path d="M136 46.6c0 0 17.2-26.3 10.3-36.6 -6.9-10.3-9.1-9.1-17.2-6.9 -8.1 2.2-12.6 8-10.3 17.2C121.2 29.5 125.8 38.6 136 46.6z" class="a"/><polygon points="113.4 43.6 109 38.5 22.3 141.7 77.2 193.1 82.2 188.5 32 142.3 " class="a"/><path d="M110.1 46.6c0 0-17.2-26.3-10.3-36.6 6.9-10.3 9.1-9.2 17.1-6.9s12.6 8 10.3 17.2C124.9 29.6 120.4 38.6 110.1 46.6z" class="a"/><polygon points="40.7 322.3 23.7 249.4 54.9 250 56.7 257.4 32.6 256.9 47.8 319.9 " class="a"/><path d="M36.8 332.3c0 0-6.2 11.7 5.4 16.6s17-5.5 17-5.5 0.9-4.5-4.8-14.3 -7.4-11.9-10.6-12.5C40.6 316 36.8 332.3 36.8 332.3z" class="a"/><polygon points="21.3 385.1 0 247.4 57 221.9 56.2 229.5 8.5 251.8 28.9 385.2 " class="a"/><path d="M14.6 397.3c0 0-9.3 13 3.7 20.6 13 7.6 21.2-3.8 21.2-3.8s1.8-5.2-3.4-17.8c-5.2-12.6-6.9-15.4-10.6-16.5S14.6 397.3 14.6 397.3z" class="a"/><polygon points="215.3 321.3 232.3 248.4 201.1 249 199.3 256.4 223.4 255.9 208.1 318.9 " class="a"/><path d="M219.1 331.3c0 0 6.2 11.7-5.4 16.6 -11.6 4.9-17-5.5-17-5.5s-0.9-4.5 4.8-14.3c5.7-9.8 7.4-11.9 10.6-12.5C215.3 315 219.1 331.3 219.1 331.3z" class="a"/><polygon points="234.7 384.1 256 246.4 199 220.9 199.7 228.5 247.4 250.8 227.1 384.2 " class="a"/><path d="M241.4 396.3c0 0 9.3 13-3.7 20.6 -13 7.6-21.2-3.8-21.2-3.8s-1.8-5.2 3.4-17.8 6.9-15.4 10.6-16.5S241.4 396.3 241.4 396.3z" class="a"/><path d="M207 221c0 41-35.8 62.6-79.8 62.6S49.5 262 49.5 221s33.5-71.1 77.6-71.1S207 180.1 207 221z" fill="#38A9B4"/><path d="M126.2 287.1c-23.3 0-43.2-5.8-57.7-16.8 -15.5-11.7-23.6-28.8-23.6-49.2 0-38.3 28.1-74.5 81.3-74.5 53.8 0 83.5 36.8 83.5 74.5 0 20.5-8.6 37.5-24.8 49.3C170.2 281.1 149.3 287.1 126.2 287.1zM126.2 153.3c-49 0-73.9 33.4-73.9 67.7 0 36.6 28.3 59.2 73.9 59.2 46.2 0 76.1-23.3 76.1-59.2C202.3 178.3 160.9 153.3 126.2 153.3z" class="a"/><ellipse cx="89.2" cy="277.1" rx="37.5" ry="36.8" class="b"/><path d="M88.2 316.2c-22 0-39.9-17.6-39.9-39.2 0-21.6 17.9-39.2 39.9-39.2s39.9 17.6 39.9 39.2C128 298.6 110.2 316.2 88.2 316.2zM88.2 242.7c-19.4 0-35.2 15.5-35.2 34.4 0 19 15.8 34.4 35.2 34.4s35.2-15.5 35.2-34.4C123.4 258.1 107.6 242.7 88.2 242.7z" class="a"/><ellipse cx="92.1" cy="279.3" rx="17" ry="16.3" class="a"/><circle cx="88.9" cy="276.4" r="4.7" class="b"/><ellipse cx="163.1" cy="282.4" rx="45.4" ry="47" class="b"/><path d="M162.1 331.8c-26.4 0-47.8-22.2-47.8-49.3 0-27.3 21.5-49.3 47.8-49.3s47.8 22.2 47.8 49.3C210 309.6 188.5 331.8 162.1 331.8zM162.1 237.8c-23.8 0-43 20-43 44.6 0 24.6 19.4 44.6 43 44.6s43-20 43-44.6C205.2 257.8 185.9 237.8 162.1 237.8z" class="a"/><circle cx="165.9" cy="284.9" r="21" class="a"/><circle cx="177.3" cy="281.7" r="5.8" class="b"/></svg>
