<svg xmlns="http://www.w3.org/2000/svg" width="300" height="300" viewBox="0 0 300 300"><style type="text/css">
	.st0{fill:#299499;}
	.st1{fill:#EA934B;}
	.st2{fill:#FCD9B9;}
	.st3{fill:#38A9B4;}
	.st4{fill:#269696;}
</style><polygon class="st0" points="54.6 175.9 55.1 154.3 69.5 157.8 "/><polygon class="st0" points="97.9 105.7 89.5 125.7 77.3 117.1 "/><polygon class="st0" points="202.2 104.2 210.5 124.1 222.7 115.6 "/><polygon class="st0" points="245.5 174.3 245 152.7 230.5 156.2 "/><path class="st1" d="M198.2 118.8c-3.5 0.1-27.4-1.4-36-1 -12 0.4-39.7 26.3-43.1 28.1 -3.5 1.9-4.2 6.7-2.3 9.9 1.9 3.2 10.8 0.8 10.8 0.8l9.7 8.7 -34.9 34.5 55 37.6 29.9-22.1c0 0 46.7-38.7 47.6-46.7 0.4-3.1 10.1 1 10.9-6.8 0.8-8.4-17.3-26-17.4-51.6C228.3 110.2 209.8 118.5 198.2 118.8z"/><path class="st2" d="M148.8 128.4c0 0-12.2-8.6-28.8-9.9 -10.9-0.8-44.4-8.1-44.4-8.1s-13.1 8.1-13.6 30.3c-0.2 7.2-15.5 22.5-4 25.8 15.4 4.5 29.1 32.9 44.1 41 12.2 6.5 38.4 13.6 38.4 13.6l42.6-45.1 -45-28.4L148.8 128.4z"/><path class="st2" d="M209.9 187.4l-67.5-42.8c-2.8-1.7-6.7 2.5-8.4 5.3l-2.5 4.2c-1.7 2.8-0.7 6.5 2.1 8.1l67.8 39.7c2.8 1.7 10.2 5.3 14.3-1.4C219.9 193.7 212.7 189.1 209.9 187.4z"/><path class="st2" d="M199.4 203.4l-67.8-40.6c-2.8-1.7-6.5-0.7-8.1 2.1l-2.5 4.2c-1.7 2.8-0.7 6.5 2.1 8.1l67.8 39.7c2.8 1.7 10.2 5.3 14.3-1.4C209.3 208.8 202.2 205.1 199.4 203.4z"/><path class="st2" d="M184.8 216.1L117 175.5c-2.8-1.7-6.5-0.7-8.1 2.1l-2.5 4.2c-1.7 2.8-0.7 6.5 2.1 8.1l67.8 39.7c2.8 1.7 10.2 5.3 14.3-1.4C194.8 221.5 187.6 217.8 184.8 216.1z"/><path class="st2" d="M168.2 227.5l-61.7-36.9c-2.8-1.7-6.5-0.7-8.1 2.1l-2.5 4.2c-1.7 2.8 3.4 8.9 6.2 10.6l57.6 33.6c2.8 1.7 10.2 5.3 14.3-1.4C178.1 232.9 171 229.2 168.2 227.5z"/><path class="st1" d="M157.6 123.5c-2-2.6-5.8-2.1-8.4-0.1l-37.3 30c-2.6 2-8.8 7.4-4.2 13.7 4.7 6.4 14.9 1.9 17.5-0.1l33.2-18.6c2.6-2 4.1-18.4 2.1-21L157.6 123.5z"/><path class="st1" d="M162.2 212.8c-6.3-4.9-11.7 1.7-13.7 4.3l-7.8 12.4c-2 3.2-4.3 8.7 0.9 12.7 6.3 4.9 11.7-1.7 13.7-4.3l7.5-11.9C164.9 222.9 167.7 217 162.2 212.8z"/><path class="st1" d="M142.9 205.4c-6.3-4.9-11.7 1.7-13.7 4.3l-7.8 12.4c-2 3.2-4.3 8.7 0.9 12.7 6.3 4.9 11.7-1.7 13.7-4.3l7.5-11.9C145.6 215.5 148.4 209.6 142.9 205.4z"/><path class="st1" d="M124.9 196.5c-6.3-4.9-11.7 1.7-13.6 4.3l-6.8 10.3c-2 3.2-4.3 8.7 0.9 12.7 6.3 4.9 11.7-1.7 13.7-4.3l6.4-9.8C127.6 206.6 130.4 200.8 124.9 196.5z"/><path class="st1" d="M102.8 189.6c-6.3-4.9-11.7 1.7-13.7 4.3l-2.5 4c-2 3.2-4.3 8.7 0.9 12.7 6.3 4.9 11.7-1.7 13.7-4.3l2.2-3.4C105.5 199.7 108.3 193.8 102.8 189.6z"/><path class="st3" d="M300 43.9l-97.8 59.8 0.7 1.2c11.9 6 23.5 17.2 31.8 32.3 6.9 12.5 10.4 25.6 10.7 37.2l0.5 0.9 54-33V43.9z"/><path class="st4" d="M300 87.6l-69.7 42.6c1.5 2.2 2.9 4.5 4.3 7 6.9 12.5 10.4 25.6 10.7 37.2l0.5 0.9 54.2-33.2V87.6z"/><path class="st3" d="M0 45.4l97.8 59.8 -0.7 1.2c-11.9 6-23.5 17.2-31.8 32.3 -6.9 12.5-10.4 25.6-10.7 37.2l-0.5 0.9 -54-33L0 45.4z"/><path class="st4" d="M0 89.1l69.7 42.6c-1.5 2.2-2.9 4.5-4.3 7C58.5 151.2 55 164.3 54.8 176l-0.5 0.9L0 143.7 0 89.1z"/></svg>
