<svg xmlns="http://www.w3.org/2000/svg" width="980" height="980" viewBox="0 0 980 980"><style type="text/css">
	.st0{fill:#1D1E1C;}
	.st1{fill-rule:evenodd;clip-rule:evenodd;fill:#F01C01;}
	.st2{fill-rule:evenodd;clip-rule:evenodd;fill:#F2DAB8;}
	.st3{fill-rule:evenodd;clip-rule:evenodd;fill:#1E1E1E;}
	.st4{fill-rule:evenodd;clip-rule:evenodd;fill:#00A9D8;}
	.st5{opacity:0.2;fill-rule:evenodd;clip-rule:evenodd;}
	.st6{fill-rule:evenodd;clip-rule:evenodd;fill:#615A5A;}
	.st7{fill-rule:evenodd;clip-rule:evenodd;fill:#9E2721;}
	.st8{fill-rule:evenodd;clip-rule:evenodd;fill:#D44D41;}
	.st9{fill-rule:evenodd;clip-rule:evenodd;}
	.st10{opacity:0.3;fill-rule:evenodd;clip-rule:evenodd;}
	.st11{opacity:0.3;fill-rule:evenodd;clip-rule:evenodd;fill:#FFF8F8;}
	.st12{fill:#38A9B4;}
	.st13{fill:#FFFFFF;}
	.st14{fill:#0C0C0C;}
	.st15{fill:#00A9D8;}
	.st16{fill:#050505;}
	.st17{opacity:0.2;fill:#FCFCFC;}
	.st18{opacity:0.4;fill:#FFFFFF;}
</style><polygon class="st0" points="434.6 886.1 437.5 886.6 458.1 825.6 441 831.5 442.5 833.6 453.9 830 "/><polygon class="st0" points="408 915.5 457.5 856.1 424.6 851.8 423.1 854.3 451.1 858.5 404.2 914.7 "/><polyline class="st0" points="413.2 828.2 405.4 869.8 408.7 870 417.6 826.1 "/><path class="st0" d="M408.9 869.6c0 0 4.6-5.7 7.8-1.1s0 9.9 0 9.9 -1.6 1.5-5.9 1 -5.3-0.9-5.9-2.4c-0.6-1.5 0.6-7.5 0.6-7.5L408.9 869.6z"/><path class="st0" d="M441.3 912.1c-1.4 1.5 9-7.6 13.4-2.1 5.4 6.7 0.4 13.8 0.4 13.8s-2.4 1.5-9.4 0.4c-9.1-1.5-8-3.8-8.3-6.3 -0.4-4.1 4.3-11.8 4.3-11.8L441.3 912.1z"/><path class="st0" d="M437.7 885.3c0 0 2.6-5.6 6.2-1.2 2.1 2.6 1.8 5.4 1.2 7.2 -0.5 1.4-1.8 2.4-3.3 2.5 -0.9 0.1-2.2 0.1-3.9-0.3 -6-1.3-4.9-3.1-4.7-3.9 0.8-5.1 3.2-7.9 3.2-7.9L437.7 885.3z"/><path class="st0" d="M408.1 915c0 0 6.9-8.3 12.4-1.6s-0.4 13.1-0.4 13.1 -2.5 1.9-9.7 0.7c-9.4-1.6-9.4-6.5-8.3-8.7 3.7-7.9 4.6-3.9 4.6-4.1L408.1 915z"/><polygon class="st0" points="348.1 871.6 344.8 871 344 811.1 379.3 838.1 377.6 842.8 347.4 817.7 "/><polygon class="st0" points="345.9 890.9 342.6 893.4 333.2 848 379.6 843.8 381.9 848.3 338.2 851.3 "/><polygon class="st0" points="382 912.1 382.8 857 404.3 852 404.8 855.8 386.2 860.5 385.4 912.6 "/><polyline class="st0" points="386.9 827 380.8 867.3 377.4 868 383.4 823.6 "/><path class="st0" d="M377.4 867.5c0 0-2-6.8-6.5-3.5s-3.2 9.3-3.2 9.3 1 1.9 5.3 2.9c4.3 0.9 5.3 0.9 6.4-0.3 1-1.2 1.8-11.2 1.8-11.2L377.4 867.5z"/><path class="st0" d="M342.2 892.8c0 0-3.6-11.2-10.9-6.7 -4.1 2.6-5.1 6.3-5.2 9.2 -0.1 2.5 1.4 4.9 3.8 5.8 1.3 0.5 3 1 5.3 1.4 9.1 1.5 9.5-1.9 10.6-4.1 1.7-3.8 0-8.1 0-8.1L342.2 892.8z"/><path class="st0" d="M344.9 870.2c0 0-1.9-7.9-6.7-4.9 -2.7 1.7-3.4 4.2-3.5 6.1 -0.1 1.7 0.9 3.2 2.5 3.8 0.9 0.3 2 0.7 3.5 0.9 6 1 6.6-0.4 7.3-1.9 1.2-2.5-0.3-9.5-0.3-9.5L344.9 870.2z"/><path class="st0" d="M382 909.1c0 0-3.3-9.5-10.7-5s-5 12.9-5 12.9 1.7 2.6 8.9 3.8c9.4 1.6 10.7-3 10.7-5.5 0.2-10.5-2-8.2-2-8.2L382 909.1z"/><path class="st1" d="M629.4 61c-6.7-6.1-16.9-11.1-25.6-14.6C744 100.8 860.9 241 834.1 400.4c-35.8 212.7-270.7 332.5-327.2 358.5C989.7 328.2 629.4 61 629.4 61z"/><path class="st1" d="M479.4 755.9l-35.8-6.2C669.9 274.6 563.2 37 563.2 37c-2.6-2-5.2-3.6-7.8-4.9 13.3 2.7 26.5 6.4 39.5 11 -5-1.7-8.4-2.6-8.4-2.6C818.3 298.9 507.4 718.1 479.4 755.9z"/><path class="st1" d="M393.4 741l-35.8-6.2c-15.4-46.3-179.8-539.2 123.2-707.3 0 0 0.2-0.5-2.4-0.7 14.8-0.8 29.4-0.7 43.8 0.5 -0.4 0.1-0.7 0.2-0.7 0.2C368.8 225.5 392.1 711.7 393.4 741z"/><path class="st1" d="M329.6 726.6c-45.6-49-212.5-243.4-183-441.9 21.3-143.1 153.8-229 291.1-253.1C387.3 52.5 38.4 202.5 329.6 726.6z"/><path class="st2" d="M479.4 755.9c28-37.8 338.9-457 107.1-715.4 0 0 3.4 0.9 8.4 2.6 3 1 5.9 2.1 8.8 3.3 8.8 3.5 18.9 8.5 25.6 14.6 0 0 360.3 267.2-122.5 697.9 -1 0.5-1.9 0.9-2.8 1.3L479.4 755.9z"/><path class="st2" d="M480.8 27.5c-303 168.1-138.6 661-123.2 707.3l-23.6-4.1 0.2 0.8c-1.4-1.4-2.9-3.1-4.6-4.9 -291.1-524.2 57.8-674.2 108-695 13.6-2.4 27.2-4 40.8-4.8C481 27.1 480.8 27.5 480.8 27.5z"/><path class="st2" d="M443.6 749.7l-50.2-8.7c-1.3-29.3-24.5-515.5 128.2-713.4 0 0 0.4-0.1 0.7-0.2 8 0.7 15.9 1.5 23.7 2.9 3.2 0.5 6.3 1.2 9.5 1.9 2.6 1.3 5.2 2.9 7.8 4.9C563.2 37 669.9 274.6 443.6 749.7z"/><polygon class="st3" points="468.7 869.1 494.2 780 491 779.1 483.9 804 476.3 780.3 473.1 781.3 482.2 809.8 465.5 868.2 "/><polygon class="st3" points="334.5 845.1 338 786.2 359.4 760.5 356.8 758.4 338.4 780.5 340 753.9 336.6 753.7 331.1 844.9 "/><path class="st3" d="M315.9 923.6c-5.8-24.9 13.5-80.5 13.5-80.5l142 23.9c0 0 0.1 58.8-13.5 80.5C446.9 965 320.6 943.7 315.9 923.6z"/><polygon class="st3" points="403 857.9 412.5 799 437.9 776 435.6 773.5 413.4 793.7 418.9 759.8 415.6 759.3 410.2 792.5 398.1 766.7 395.1 768.1 409.3 798.4 399.7 857.3 "/><path class="st4" d="M314.9 916c-1.4-27.1 14.5-72.9 14.5-72.9l142 23.9c0 0 0.1 48.5-10.1 73.7C428.2 945 344.8 931 314.9 916z"/><path class="st5" d="M420.3 858.7l-13.5 80.1c21.6 2.8 41.7 3.8 54.4 2.1 10.2-25.1 10.1-73.7 10.1-73.7L420.3 858.7z"/><path class="st6" d="M330 843.8c2.4 10.1 10.4 18.4 22 22.6 15.7 5.7 34.4 2.9 47.7-7.1l0.7 0.9 0.8-0.8c32.8 34.7 55.4 22.9 69.6 10.9l1.4 1.7c-12 10.1-23.9 14.2-36 12.1 -11.6-1.9-23.4-9.5-35.9-22.6 -11.4 8.2-26.3 11.5-40.2 9.2 -3-0.5-5.9-1.3-8.8-2.3 -12.4-4.5-20.9-13.3-23.5-24.2L330 843.8z"/><polygon class="st6" points="470 869.1 467.7 882.1 470.2 882.5 472.5 869.5 "/><path class="st7" d="M466.8 881.3c-10 4.1-20.1 27.6-2.8 31.2 17.6 2.3 15.7-23.3 7.5-30.4 0.6-1.2 1.6-2.9 1.5-2.9 -0.2 0.1-2.1 0.8-2 0.6 0-0.2-0.7-2-0.7-2l-1.7 1.7 -2.2-1.8L466.8 881.3z"/><path class="st8" d="M466.8 881.3c-2.5 1-5.1 3.3-7.2 6.2 0.8 10.2 5.1 19 11.8 23.9 9.4-4.8 7-23.5 0.2-29.4 0.6-1.2 1.6-2.9 1.5-2.9 -0.2 0.1-2.1 0.8-2 0.6 0-0.2-0.7-2-0.7-2l-1.7 1.7 -2.2-1.8L466.8 881.3z"/><polygon class="st6" points="471.9 881.5 466.8 880.8 465.9 881.8 472.4 882.9 "/><polygon class="st6" points="400.1 857.4 397.9 870.4 400.3 870.9 402.6 857.8 "/><path class="st7" d="M396.9 869.7c-10 4.1-20.1 27.6-2.8 31.2 17.6 2.3 15.7-23.3 7.5-30.4 0.7-1.2 1.6-2.9 1.5-2.9 -0.2 0.1-2.1 0.8-2 0.6 0-0.2-0.7-2-0.7-2l-1.7 1.7 -2.2-1.8L396.9 869.7z"/><path class="st8" d="M396.9 869.7c-2.5 1-5.1 3.3-7.2 6.2 0.8 10.2 5.1 19 11.8 23.9 9.4-4.8 7-23.5 0.2-29.4 0.7-1.2 1.6-2.9 1.5-2.9 -0.2 0.1-2.1 0.8-2 0.6 0-0.2-0.7-2-0.7-2l-1.7 1.7 -2.2-1.8L396.9 869.7z"/><polygon class="st6" points="402.1 869.9 396.9 869.1 396 870.1 402.5 871.2 "/><polygon class="st6" points="330.3 844.5 328 857.6 330.5 858 332.8 845 "/><path class="st7" d="M327.1 856.8c-10 4.1-20.1 27.6-2.8 31.2 17.6 2.3 15.7-23.3 7.5-30.4 0.7-1.2 1.6-2.9 1.5-2.9 -0.2 0.1-2.1 0.8-2 0.6 0-0.2-0.7-2-0.7-2l-1.7 1.7 -2.2-1.8L327.1 856.8z"/><path class="st8" d="M327.1 856.8c-2.5 1-5.1 3.3-7.2 6.2 0.8 10.2 5.1 19 11.8 23.9 9.4-4.8 7-23.5 0.2-29.4 0.7-1.2 1.6-2.9 1.5-2.9 -0.2 0.1-2.1 0.8-2 0.6 0-0.2-0.7-2-0.7-2l-1.7 1.7 -2.2-1.8L327.1 856.8z"/><polygon class="st6" points="332.2 857 327.1 856.3 326.2 857.3 332.7 858.4 "/><rect x="394.9" y="779.1" transform="matrix(0.166 -0.9861 0.9861 0.166 -511.5609 1107.7147)" class="st9" width="8.3" height="154.3"/><polygon class="st8" points="336.9 759.6 492.4 785.7 540.2 742.9 308.3 703.9 "/><polygon class="st10" points="526 755.6 540.2 742.9 308.3 703.9 316.8 720.4 "/><path class="st11" d="M371.5 747.5L371.5 747.5 371.5 747.5l1.1 0.2c-60.9-74.3-203.3-256.8-175.7-441.2 22.5-150.3 172-238.8 309.6-265.2 13.7-2.6 27.3-4.4 40.9-5.3 5.2-0.3 10.3-0.6 15.4-0.6 -3.2-0.8-6.4-1.5-9.7-2.2 -3.2-0.6-6.3-1.4-9.5-1.9 -7.8-1.3-15.7-2.2-23.7-2.9 -14.4-1.2-29.1-1.4-43.8-0.5 -13.6 0.8-27.1 2.4-40.8 4.8C298 56.7 165.5 142.6 144.2 285.8c-26.1 175.6 101.5 348 162.8 419.4l-1.1-0.2 0 0 0 0 28.6 55.7 47.1 7.9L371.5 747.5z"/><path class="st10" d="M836 402.2c26.8-159.4-90.1-299.6-230.3-354.1 -2.9-1.1-5.9-2.2-8.8-3.3 -13-4.6-26.2-8.3-39.5-11 -3.2-0.6-6.3-1.4-9.5-1.9 -7.8-1.3-15.7-2.2-23.7-2.9 -14.4-1.2-29.1-1.4-43.8-0.5 -1.7 0.1-3.4 0.2-5.2 0.3 135.6 59 245.6 203.4 217.8 368.7C660.1 592 479.9 714.8 394.3 763l0.7 0.1 0 0 0 0 -6.8 6.5 106 17.8 47.8-42.8 0 0 0 0 -0.7-0.1C626.3 699.8 805.1 585.5 836 402.2z"/><path class="st12" d="M373.7 814.1c-4.8 28.5 5 37.2 30.5 41.5 20.1 3.4 37.5-6.3 41.4-29.4 3.9-23.1-10-33.7-30.2-37.1C395.3 785.7 377.6 791 373.7 814.1z"/><path class="st0" d="M376.8 845.3c-6.3-7.9-6.2-19.9-4.3-31.4 3.6-21.3 19.1-30.8 43.7-26.7 24.3 4.1 35.2 17.7 31.5 39.3 -2 11.6-7.3 20.6-15.5 26 -7.6 5.1-17.3 6.8-27.9 5C393.8 855.8 382.5 852.6 376.8 845.3zM375.9 814.5c-4.3 25.7 2.6 34.8 29.1 39.3 20.8 3.5 35.9-7.1 39.3-27.8 3.3-19.4-6.4-31.1-28.8-34.9C399.7 788.4 380 790.3 375.9 814.5z"/><path class="st13" d="M420.3 805.2c4.8 13 14.6 21.1 22.3 18.2 7.7-2.9 10.1-15.7 5.2-28.7 -4.8-13-15-21.2-22.7-18.3C417.4 779.3 415.5 792.3 420.3 805.2z"/><path d="M419.8 805.7c4.1 11 11.5 18.5 18.5 19.7 1.8 0.3 3.6 0.2 5.4-0.5 4-1.5 6.8-5.5 7.9-11.3 1.1-5.7 0.3-12.6-2.2-19.2 -2.5-6.6-6.3-12.3-10.9-15.9 -4.6-3.7-9.3-4.9-13.3-3.4C417 778.1 414.7 791.8 419.8 805.7zM421.8 805c-2.2-6-3-12-2.2-17.1 0.8-5.1 3.1-8.6 6.6-9.9 1.4-0.5 3-0.7 4.6-0.4 2.2 0.4 4.6 1.5 6.9 3.4 4 3.3 7.5 8.3 9.7 14.2 4.5 12.2 2.4 24.2-4.8 26.9C435.5 824.7 426.3 817.2 421.8 805z"/><ellipse transform="matrix(0.9371 -0.3491 0.3491 0.9371 -249.0415 202.9857)" class="st0" cx="438.7" cy="792.5" rx="5.2" ry="11.2"/><ellipse transform="matrix(0.9442 -0.3294 0.3294 0.9442 -234.7399 187.6299)" class="st13" cx="436.3" cy="786.6" rx="2.3" ry="3.1"/><ellipse transform="matrix(0.9371 -0.3491 0.3491 0.9371 -255.4505 197.6788)" class="st13" cx="420.8" cy="807.7" rx="12.9" ry="21.1"/><path d="M408.2 812.6c3.4 9.2 10 15.8 16.2 16.8 1.7 0.3 3.3 0.2 4.8-0.4 3.5-1.3 6-4.8 6.9-9.7 1-4.9 0.3-10.7-1.8-16.4 -2.1-5.6-5.4-10.5-9.4-13.6 -4-3.1-8.1-4.1-11.6-2.8C406.2 789.2 403.9 800.9 408.2 812.6zM408.7 797.7c0.8-4.2 2.9-7.1 5.8-8.2 1.3-0.5 2.6-0.6 4-0.3 5.2 0.9 10.9 6.5 13.8 14.5 1.8 4.9 2.4 9.9 1.5 14.1 -0.8 4.2-2.9 7.1-5.8 8.2 -1.3 0.5-2.6 0.6-4 0.3 -5.2-0.9-10.9-6.5-13.8-14.5C408.4 807 407.9 802 408.7 797.7z"/><ellipse transform="matrix(0.9371 -0.3491 0.3491 0.9371 -253.0085 198.7409)" class="st0" cx="425" cy="801.4" rx="4.7" ry="9.3"/><ellipse transform="matrix(0.9279 -0.3727 0.3727 0.9279 -266.7352 215.1774)" class="st13" cx="423.1" cy="797.4" rx="2" ry="2.7"/><polygon class="st0" points="462.8 863 465.6 863.5 482.2 828.7 440.2 839.6 439.6 841.5 477.7 832.5 "/><path class="st0" d="M633.1 775.1C633.1 775.1 633.1 775.1 633.1 775.1c-0.7-0.1-1.1-0.6-1.1-1.2 0.5-5.4 0.6-9 0.6-9 0-0.3 0.1-0.5 0.3-0.7 17-16.9 15.4-35.8 15.4-36 -0.1-0.6 0.4-1.1 1-1.2 0.6-0.1 1.1 0.4 1.2 1 0.1 0.8 1.7 19.9-15.8 37.4 -0.1 1.1-0.2 4.3-0.6 8.7C634.1 774.7 633.7 775.1 633.1 775.1z"/><path class="st0" d="M626.7 770.5c-0.5 0-0.9-0.3-1-0.8 -0.1-0.6 0.2-1.1 0.8-1.3 4.1-1 6.4-4.1 6.4-4.1 0.4-0.5 1-0.6 1.5-0.2 0.5 0.4 0.6 1 0.2 1.5 -0.1 0.1-2.8 3.7-7.6 4.9C626.9 770.5 626.8 770.5 626.7 770.5z"/><path class="st0" d="M617.6 772.7c-0.1 0-0.2 0-0.3-0.1 -0.6-0.2-0.9-0.8-0.7-1.3 1.7-5.2 2.6-8.6 2.7-8.6 0.1-0.3 0.2-0.5 0.5-0.6 10.7-6.6 16.4-14.8 19.4-20.5 3.2-6.2 3.9-11 3.9-11 0.1-0.6 0.6-1 1.2-0.9 0.6 0.1 1 0.6 0.9 1.2 -0.1 0.8-2.9 19.7-23.9 32.8 -0.3 1.1-1.2 4.1-2.6 8.3C618.4 772.4 618 772.7 617.6 772.7z"/><path class="st0" d="M612.4 766.7c-0.6 0-1.1-0.5-1.1-1 0-0.6 0.5-1.1 1-1.1 4.2-0.1 7.1-2.5 7.2-2.5 0.5-0.4 1.1-0.3 1.5 0.1 0.4 0.5 0.3 1.1-0.1 1.5C620.8 763.9 617.3 766.7 612.4 766.7 612.4 766.7 612.4 766.7 612.4 766.7z"/><polygon class="st14" points="707.8 674 716.6 660.9 715.4 672.6 729.1 673.2 709.2 681.6 "/><path d="M708.4 683.1l-1.7-9.4 11.5-17.1 -1.6 14.9 17.3 0.8L708.4 683.1zM709 674.2l1.1 5.9 14.3-6 -10.1-0.4 0.9-8.6L709 674.2z"/><path class="st15" d="M715.7 688.2c-3.9-21.5-24.5-35.9-46-32 -19.4 3.5-31.3 20.5-32.6 39.5 -0.7 10-2.8 20.9-8.3 30.3 -7.4 12.6-28.5 8.5-28.5 8.5s21.3 16.1 52 16.9c22.3 0.6 50.3-15.2 59.6-37.9C715.8 706 717.3 697.2 715.7 688.2z"/><path class="st0" d="M653.5 752.8c-0.4 0-0.8 0-1.2 0 -30.8-0.8-52-16.5-52.8-17.1l-4.9-3.7 6 1.2c0.2 0 20.3 3.8 27.1-7.8 4.6-7.8 7.3-17.8 8.1-29.6 1.4-21 15-37.4 33.8-40.8 22.3-4 43.7 10.9 47.7 33.1h0c1.6 9 0.2 18-3.9 26.1C703.2 738.2 674.8 752.8 653.5 752.8zM606.1 736.5c7.9 4.7 24.9 12.9 46.3 13.4 10.7 0.3 23.1-3.4 33.9-10 11.4-7 20.1-16.6 24.3-27l0.1-0.1c3.9-7.6 5.2-16 3.7-24.4 -3.7-20.7-23.6-34.6-44.4-30.9 -17.5 3.1-30.1 18.5-31.5 38.2 -0.8 12.3-3.7 22.7-8.5 30.9 -3.3 5.6-9.5 8.9-18.1 9.7C609.8 736.6 607.8 736.6 606.1 736.5z"/><ellipse transform="matrix(0.9843 -0.1767 0.1767 0.9843 -109.5003 132.0756)" class="st13" cx="686.8" cy="680.8" rx="18.6" ry="18.6"/><path class="st16" d="M686.7 700.5c-4 0-7.8-1.2-11.2-3.5 -4.3-3-7.2-7.5-8.1-12.7 -1.9-10.7 5.2-20.9 15.9-22.8 5.2-0.9 10.4 0.2 14.7 3.2 4.3 3 7.2 7.5 8.1 12.7 0.9 5.2-0.2 10.4-3.2 14.7 -3 4.3-7.5 7.2-12.7 8.1C689.1 700.4 687.9 700.5 686.7 700.5zM686.8 663.3c-1 0-2.1 0.1-3.1 0.3 -9.5 1.7-15.9 10.8-14.2 20.3 0.8 4.6 3.4 8.6 7.2 11.3 3.8 2.7 8.5 3.7 13.1 2.9 4.6-0.8 8.6-3.4 11.3-7.2 2.7-3.8 3.7-8.5 2.9-13.1l0 0c-0.8-4.6-3.4-8.6-7.2-11.3C693.8 664.3 690.3 663.3 686.8 663.3z"/><path class="st15" d="M663.7 692.7c9.8 7.6 11.5 21.6 3.9 31.4 -8.4 10.9-27.9 14.8-39.2-4.7 -10.7-18.5-29-25.4-29-25.4S644 677.4 663.7 692.7z"/><path class="st17" d="M662.4 701.7c5.3 4.1 8.2 10.1 8.6 16.3 3.2-8.9 0.6-19.2-7.3-25.3 -19.7-15.3-64.2 1.3-64.2 1.3s4.4 1.6 10.1 5.5C624.2 695.7 649 691.3 662.4 701.7z"/><path class="st15" d="M591.6 726.6c4.9 2.7 8.8 7.9 8.8 7.9s-6.5-0.3-11.5-3c-3.9-2.1-4.7-4-4-5.3C585.6 724.8 588.1 724.7 591.6 726.6z"/><path d="M602.6 735.7l-2.2-0.1c-0.3 0-6.8-0.4-11.9-3.1 -5.5-2.9-5.1-5.5-4.4-6.8 0.3-0.6 1.2-1.6 3.3-1.6 1.4 0 3 0.6 4.8 1.6 5.1 2.8 9 8 9.2 8.2L602.6 735.7zM587 726.2c-0.4 0-1 0.1-1.2 0.5 -0.5 0.9 0.9 2.4 3.6 3.9 2.8 1.5 6.2 2.3 8.5 2.6 -1.5-1.7-4-4.1-6.8-5.6h0c-1.9-1-3.2-1.3-3.9-1.3C587.1 726.2 587.1 726.2 587 726.2z"/><path class="st15" d="M597.9 722.9c2.5 5.1 2.5 11.6 2.5 11.6s-5.1-4.1-7.6-9.1c-1.9-4-1.5-6-0.1-6.7C594.1 718 596.1 719.3 597.9 722.9z"/><path d="M601.5 736.7l-1.7-1.4c-0.2-0.2-5.3-4.3-7.8-9.5 -1-2-1.5-3.7-1.4-5.1 0-1.4 0.7-2.5 1.8-3 0.6-0.3 1.9-0.6 3.6 0.6 1.1 0.8 2.1 2.2 3 4.1 2.5 5.2 2.6 11.8 2.6 12L601.5 736.7zM593.4 719.6c-0.1 0-0.2 0-0.3 0.1 -0.2 0.1-0.6 0.3-0.6 1.2 0 0.7 0.2 1.9 1.2 4.1 1.4 2.9 3.7 5.4 5.3 7 -0.2-2.3-0.8-5.7-2.2-8.6l0 0c-0.9-1.9-1.8-2.9-2.4-3.3C594.2 719.9 593.8 719.6 593.4 719.6z"/><path class="st15" d="M589.3 738.7c5.6-0.7 11.1-4.2 11.1-4.2s-6.2-2-11.8-1.3c-4.4 0.6-5.9 2-5.7 3.5S585.4 739.2 589.3 738.7z"/><path d="M587.3 739.9c-1.1 0-2.2-0.1-3-0.4 -2-0.7-2.4-1.9-2.5-2.6 -0.2-1.2 0.4-2.3 1.5-3.1 1.1-0.8 2.8-1.3 5-1.6 5.8-0.7 12 1.3 12.2 1.4l2.1 0.7 -1.9 1.2c-0.2 0.1-5.8 3.7-11.5 4.4h0C588.7 739.9 588 739.9 587.3 739.9zM591.1 734.1c-0.8 0-1.6 0-2.4 0.1 -2.4 0.3-3.5 0.8-4.1 1.2 -0.7 0.5-0.7 1-0.7 1.1 0.1 0.5 0.7 0.8 1.1 0.9 0.7 0.2 2 0.5 4.1 0.2 3.2-0.4 6.3-1.8 8.4-2.8C595.9 734.5 593.5 734.1 591.1 734.1z"/><path class="st18" d="M710.5 712.1c1.6-3 2.7-6.2 3.5-9.5 -10.2-5.3-22.4 0.7-34.7 11.1 -13.1 11.1-21.4 24-16.3 35.1C682.5 744.8 702.8 730.8 710.5 712.1z"/><path class="st15" d="M665.1 662c0 0-11.8-9.3-16.8-5.7S665.1 662 665.1 662z"/><path class="st15" d="M663.9 661.9c0 0-10.5-2.5-12.7 1.4C649 667.2 663.9 661.9 663.9 661.9z"/><path class="st15" d="M665.8 663.6c0 0-5.9-17.5-13.6-17.2C644.6 646.7 665.8 663.6 665.8 663.6z"/><path class="st15" d="M665.4 662.3c0 0 1.1-15.9-5.1-18.2C654.2 641.9 665.4 662.3 665.4 662.3z"/><path class="st15" d="M665.3 660.8c0 0 6-9 3.1-12.4C665.6 645 665.3 660.8 665.3 660.8z"/><path class="st0" d="M649.4 734.6c-0.5 0-1 0-1.5-0.1 -8.2-0.6-15.6-5.7-20.6-14.4 -10.3-17.9-28.1-24.7-28.2-24.7l-3.6-1.3 3.6-1.3c0.1 0 11.4-4.2 25-6.5 18.4-3 32.1-1.2 40.6 5.4l0 0c5 3.9 8.2 9.5 9 15.8 0.8 6.3-0.9 12.5-4.8 17.6C664.1 731 656.8 734.6 649.4 734.6zM603.4 694.2c5.9 2.9 18.2 10.3 26.3 24.5 5.8 10.1 13.2 12.7 18.4 13 7 0.5 14-2.8 18.5-8.5 3.4-4.4 4.9-9.9 4.2-15.5 -0.7-5.6-3.5-10.5-7.9-13.9l0 0C647.1 681.6 614 690.8 603.4 694.2z"/><ellipse transform="matrix(0.9057 -0.424 0.424 0.9057 -221.7082 355.7976)" class="st0" cx="688.7" cy="676.1" rx="9.4" ry="9.4"/><ellipse transform="matrix(0.9057 -0.424 0.424 0.9057 -219.8812 357.1514)" class="st13" cx="692.7" cy="672.7" rx="2.6" ry="2.6"/></svg>
