<svg xmlns="http://www.w3.org/2000/svg" width="300" height="300" viewBox="0 0 300 300"><style type="text/css">
	.st0{fill:#F4BA38;}
	.st1{fill:#00A9D8;}
	.st2{fill:#6BD8EB;}
	.st3{fill:#FFFFFF;}
	.st4{fill:#1D1E1C;}
	.st5{fill:#CC7219;}
</style><path class="st0" d="M116.2 265.7c0 0-25.4 9-24.8 20C92 296.8 116.2 265.7 116.2 265.7z"/><path class="st0" d="M115.4 265.7c0 0-16.6 21.2-10.2 30.2S115.4 265.7 115.4 265.7z"/><path class="st0" d="M113.9 266c0 0-2 26.9 8.4 30.8C132.6 300.7 113.9 266 113.9 266z"/><path class="st0" d="M162.1 265.7c0 0 25.4 9 24.8 20C186.3 296.8 162.1 265.7 162.1 265.7z"/><path class="st0" d="M162.9 265.7c0 0 16.6 21.2 10.2 30.2S162.9 265.7 162.9 265.7z"/><path class="st0" d="M164.4 266c0 0 2 26.9-8.4 30.8C145.7 300.7 164.4 266 164.4 266z"/><path class="st1" d="M236.8 103.4c1.9-4.3 3-8.9 3-13.7 0-23.6-25.3-42.7-56.5-42.7 -11.7 0-22.5 2.7-31.5 7.3 -9-4.6-19.8-7.3-31.5-7.3 -31.2 0-56.5 19.1-56.5 42.7 0 4.1 0.8 8.1 2.2 11.9 -21.5 18.5-34.8 44-34.8 72.2 0 56.4 53.4 102.2 119.2 102.2s119.2-45.7 119.2-102.2C269.5 146.5 257.1 121.7 236.8 103.4z"/><path class="st1" d="M147.1 56.4c0 0-8-39.8-24.6-41.3C105.8 13.6 147.1 56.4 147.1 56.4z"/><path class="st1" d="M144.8 54.1c0 0-17.3-23.6-28.6-19.5S144.8 54.1 144.8 54.1z"/><path class="st1" d="M145.9 60.8c0 0 18.7-46.6 2.4-59.3S145.9 60.8 145.9 60.8z"/><path class="st1" d="M147.2 57.6c0 0 30.2-30.8 21.5-46.3S147.2 57.6 147.2 57.6z"/><path class="st1" d="M149.8 54.3c0 0 28.2-7.9 28.3-20S149.8 54.3 149.8 54.3z"/><ellipse class="st2" cx="151.4" cy="194.4" rx="102.2" ry="78.6"/><circle class="st3" cx="114.5" cy="97.7" r="43.5"/><circle class="st3" cx="191.3" cy="97.7" r="43.5"/><path class="st0" d="M118.1 141.1l32.6 50.7 36.9-50.7c0 0-0.5-21.8-34.1-23.2C119.6 116.5 118.1 141.1 118.1 141.1z"/><circle class="st4" cx="119.7" cy="99.8" r="16.6"/><circle class="st3" cx="128.5" cy="97.3" r="4.6"/><circle class="st4" cx="184.9" cy="99.8" r="16.6"/><circle class="st3" cx="182.9" cy="98" r="4.6"/><circle class="st5" cx="144.6" cy="138.2" r="2.9"/><circle class="st5" cx="155.8" cy="138.2" r="2.9"/></svg>
