<svg xmlns="http://www.w3.org/2000/svg" data-name="Capa 1" viewBox="0 0 490 490"><path fill="#fff" d="M377.37 266.33a20.45 20.45 0 00-4.52-6.41v-96.48c0-22.57-9.73-44-26.05-57.31C324.39 87.83 290.12 66 254.11 66c-1.12 0-2.23 0-3 .07C250 66 248.9 66 247.78 66c-36.23 0-73.11 21.94-97.67 40.34-17.74 13.3-28.33 35.4-28.33 59.12v91.59c-3 1.06-6.47 3.59-9.15 9.26-6.84 14.41-6.62 48.11 3 62.81 6.28 9.65 15.57 15.18 25.49 15.18a24.41 24.41 0 003.09-.19 101.7 101.7 0 0029.08 45.58c1.55 1.4 38.16 34.27 75.11 34.27 31.4 0 71.19-32.94 73.11-34.55a102.39 102.39 0 0027-44.37c9.85-.16 19.51-6.09 25.92-15.92 9.57-14.68 9.78-48.38 2.94-62.79zm-29.25 65a8.55 8.55 0 01-2.58-.37 6.64 6.64 0 00-2.13-.34 6.89 6.89 0 00-6.71 5.28c-.11.47-.27.94-.39 1.41-5.5-14.53-4.82-33.46-3.92-43.41l16.52-12.37.71.24 1.27-1.8a7.74 7.74 0 00.8-.82c4.29-5.5 8.47-8.73 11.94-8.93a8.32 8.32 0 011.27 2.06c5 10.56 4.78 38.88-2 49.37-5.9 8.94-12.81 9.64-14.78 9.64zm-221-9.68c-6.83-10.49-7.06-38.81-2.06-49.37a8.16 8.16 0 011.32-2.1h.19c4.06 0 9.48 4.06 13.81 10.35v.05a7 7 0 001 1.15 3.4 3.4 0 00.3.23 7 7 0 00.73.56l.26.15.23.32.19-.06 18.53 11.28c.92 10.43 1.51 30.23-4.66 44.79-.51-1.72-1-3.44-1.44-5.2a6.92 6.92 0 00-6.71-5.27 6.8 6.8 0 00-3.71 1.09 8 8 0 01-4.14 1c-2.33-.04-8.54-.91-13.81-9.01zm198.47-39.92c-.29 0-.58 0-.88 0-15 0-29.32-7-43.18-13.85l-1-.48a77.34 77.34 0 00-32.31-7.47c-.67 0-1.12 0-1.13 0-.2 0-.65 0-1.32 0a77.37 77.37 0 00-32.32 7.47l-1 .46c-13.87 6.82-28.22 13.87-43.21 13.87-.54 0-1.08 0-1.62-.06L155.07 274c10.29-16.07 16.17-55.2 17.5-117.15 14 5.43 37.5 10.34 68.54 10.34 26 0 53.51-3.38 81.93-10.07a678.59 678.59 0 001 53.77c2.33 36.55 7.59 53.81 13.12 62.19z"/><path fill="#fff" d="M210.76 205.33a13.94 13.94 0 1013.94 13.94 14 14 0 00-13.94-13.94zM287.74 205.33a13.94 13.94 0 1013.94 13.94 14 14 0 00-13.94-13.94z"/></svg>