<svg id="Calque_1" data-name="Calque 1" xmlns="http://www.w3.org/2000/svg" viewBox="0 0 512 512"><path d="M470.46,252.9l-43.11-25.15A130,130,0,0,0,362,210.09H307.09L221.62,113a10.92,10.92,0,0,0-8-3.48l-30.72.55a10.46,10.46,0,0,0-9.36,14.76l38.14,85.23H115L80.67,141.32a10.44,10.44,0,0,0-9.4-5.78H41.45a10.47,10.47,0,0,0-10.31,12.18l13.64,81.84A25.47,25.47,0,0,0,53,277.41L173,294l-58.18,84.65a10.46,10.46,0,0,0,6.08,16.07l29.81,7.45a10.51,10.51,0,0,0,9.49-2.32L265.43,306.3l58.08,5.27c7.42.68,16.85,1,27.25,1h2a374.25,374.25,0,0,0,40.55-2.22L413,307.93A151.51,151.51,0,0,0,454,296.84l14.16-6.07a21.24,21.24,0,0,0,2.34-37.87ZM199.09,130.71l10.09-.19,70.05,79.57H234.6Zm59.23,153.91-2.72-.27-.27,2.91L150.45,380.5,140.6,378l70-101.82,51.87,4.72Zm201.57-13-14.17,6.07a130.47,130.47,0,0,1-35.29,9.57l-19.65,2.45a365.4,365.4,0,0,1-38.85,2.07c-8.83,0-17.77-.32-26.52-1l-38.58-3.5,7.51-6.67a10.46,10.46,0,0,0-5.94-18.36l-82-7.45c-.32,0-.63,0-1,0a10.44,10.44,0,0,0-8.61,4.53l-10.55,15.4-130.45-18a4.56,4.56,0,0,1-1.41-8.59l6.61-3.3a10.4,10.4,0,0,0,5.63-11.08L53.8,156.45h11l34.38,68.77a10.42,10.42,0,0,0,9.36,5.78H362a109.14,109.14,0,0,1,52.5,13.55l.57,1.14-3.35,1.67H381.37v20.91h32.88a10.62,10.62,0,0,0,4.61-1.06l15-7.48a10.39,10.39,0,0,0,2.91-2.27L459.94,271a.33.33,0,0,1-.05.6Z" fill="#2e5a5c"/><rect x="127.91" y="232.45" width="20.91" height="20.91" fill="#2e5a5c"/><rect x="157.73" y="232.45" width="20.91" height="20.91" fill="#2e5a5c"/><rect x="187.54" y="232.45" width="20.91" height="20.91" fill="#2e5a5c"/><rect x="217.36" y="232.45" width="20.91" height="20.91" fill="#2e5a5c"/><rect x="247.18" y="232.45" width="20.91" height="20.91" fill="#2e5a5c"/><rect x="277" y="232.45" width="20.91" height="20.91" fill="#2e5a5c"/><rect x="306.82" y="232.45" width="20.91" height="20.91" fill="#2e5a5c"/></svg>