<svg id="Calque_1" data-name="Calque 1" xmlns="http://www.w3.org/2000/svg" viewBox="0 0 279.38 289"><circle cx="122.77" cy="166.23" r="122.77" fill="none"/><path d="M217.27,157.07a75.28,75.28,0,1,0-137.82,19.2,85.36,85.36,0,0,1,11.89,42.31l.24,23.26,47.78,12.38,10.9-19.15A85.59,85.59,0,0,1,182,203.39,75.08,75.08,0,0,0,217.27,157.07Z" transform="translate(20.75 -19.71)" fill="#f4d242"/><path d="M120.34,276.45l-23.3-6c-6.59-1.71-11-8-9.75-14.32l4.22-24.38L144.35,245l-8.53,23.62C133.84,274.75,126.94,278.16,120.34,276.45Z" transform="translate(20.75 -19.71)" fill="#59595b"/><path d="M136.91,254.22c-14.9-3.19-29.5-7.77-44.4-10.94a1,1,0,0,0-.45,2c14.62,4.31,29.65,7.23,44.27,11.52C138,257.31,138.6,254.58,136.91,254.22Z" transform="translate(20.75 -19.71)" fill="#808183"/><path d="M135.25,260.62c-14.9-3.19-29.49-7.77-44.4-10.94a1,1,0,0,0-.44,2c14.61,4.31,29.64,7.23,44.26,11.52C136.31,263.71,136.94,261,135.25,260.62Z" transform="translate(20.75 -19.71)" fill="#808183"/><path d="M178.82,29.79c-1.22,4.69-8.09,20.93-11.17,20.13s-1.2-18.33,0-23,4.7-7.85,7.78-7S180,25.09,178.82,29.79Z" transform="translate(20.75 -19.71)" fill="#f4d242"/><path d="M241.6,73.72c-4.36,2.14-18.88,12.14-17.48,15s18.2-2.51,22.55-4.65,6.75-6.19,5.35-9S246,71.59,241.6,73.72Z" transform="translate(20.75 -19.71)" fill="#f4d242"/><path d="M249.16,156.09c-4.81-.62-21.79-5.39-21.38-8.55s18-3.5,22.84-2.88,8.39,3.67,8,6.83S254,156.7,249.16,156.09Z" transform="translate(20.75 -19.71)" fill="#f4d242"/><path d="M99.28,30.86c3,3.86,11.49,19.28,9,21.21S93.08,41.72,90.13,37.86s-3.29-8.54-.76-10.48S96.33,27,99.28,30.86Z" transform="translate(20.75 -19.71)" fill="#f4d242"/><path d="M46.14,90.6c4.5,1.8,21.66,5.87,22.84,2.91S54.92,81.7,50.41,79.9,41.3,79,40.12,82,41.63,88.8,46.14,90.6Z" transform="translate(20.75 -19.71)" fill="#f4d242"/><path d="M166.23,183.44a19.35,19.35,0,0,1-3.81-7.9c3.49-2.58,5.79-6.67,7.33-10.62a77.37,77.37,0,0,0,2.36-7.39c.67-2.41.88-4.55-.77-6.59-1.48-1.81-4.23-1.23-6-.29-2,1.08-3.43,3.34-4.58,5.23A27.88,27.88,0,0,0,157,168.55a27.51,27.51,0,0,0,.1,4.63,11.39,11.39,0,0,1-4,1c-4.31.24-6.74-2.83-7.7-6.7-.16-.64-.3-1.31-.41-2,.53-.76,1.05-1.52,1.54-2.28a53.68,53.68,0,0,0,5.68-11.86c1.19-3.44,2.38-7.6-.46-10.56a2.29,2.29,0,0,0-3.19,0c-6.71,5.57-8.78,14.72-8.11,23.18a52.6,52.6,0,0,1-4.56,5.22c-1.79,1.81-5,4.48-7.76,3.33-2.56-1.08-3.83-5-4.62-7.4a24.09,24.09,0,0,1-1.08-5.43c.57-.8,1.11-1.62,1.64-2.46a51.08,51.08,0,0,0,4.94-10.53c1.06-3.06,2.3-7.43-.73-9.81-.89-.69-2.37-1-3.2,0A32.33,32.33,0,0,0,118,157.52c0,.26,0,.52,0,.77a47.92,47.92,0,0,1-12.77,12c-2.2,1.42-.19,4.87,2.07,3.51a50.14,50.14,0,0,0,11.51-9.54,32.93,32.93,0,0,0,1.29,4.13c1.44,3.67,3.48,7.29,7.45,8.54,3.7,1.18,7.56-1.19,10.3-3.4a30.31,30.31,0,0,0,3.69-3.57c1.08,3.4,3.13,6.41,6.61,7.85a13.74,13.74,0,0,0,9.88,0,28.47,28.47,0,0,0,4.2,8.74A2.54,2.54,0,1,0,166.23,183.44ZM149,146.54a28.08,28.08,0,0,1-1.63,4.87,43.36,43.36,0,0,1-2.45,5.49A20.68,20.68,0,0,1,149,146.54Zm14.18,15.39a21.35,21.35,0,0,1,2.6-5,11,11,0,0,1,1.63-1.92c.05,0,.25-.2.45-.34a3.33,3.33,0,0,1-.05.55,39,39,0,0,1-5,13,13.82,13.82,0,0,1-1,1.37A25.89,25.89,0,0,1,163.18,161.93Z" transform="translate(20.75 -19.71)" fill="#fff"/><path d="M173.15,173.79c-13.88,21.65-28.13,43.06-42.93,64.09-1.77,2.52,2.08,5.34,3.85,2.82,14.77-21.07,29-42.51,42.43-64.45C177.89,174,174.61,171.53,173.15,173.79Z" transform="translate(20.75 -19.71)" fill="#fff"/><path d="M103.06,154c-.07,25.71-.57,51.44-1.74,77.12-.14,3.08,4.63,3.39,4.76.31,1.13-25.71,1.59-51.42,1.13-77.16C107.16,151.65,103.06,151.34,103.06,154Z" transform="translate(20.75 -19.71)" fill="#fff"/></svg>