<svg id="Calque_1" data-name="Calque 1" xmlns="http://www.w3.org/2000/svg" viewBox="0 0 512 512"><g id="Page-1"><g id="_020---Train" data-name="020---Train"><path d="M64,408.33A24.35,24.35,0,0,1,39.67,384v-7.11A24.35,24.35,0,0,1,64,352.56H237.81a41.92,41.92,0,0,1-5.62-15.34H49.78a10.11,10.11,0,0,1-10.11-10.11V128A24.35,24.35,0,0,1,64,103.67H336.5a59.66,59.66,0,0,1,49.84,26.67l75.85,113.78a59.88,59.88,0,0,1-49.83,93.1h-4.55a41.74,41.74,0,0,1-5.62,15.34H448a24.35,24.35,0,0,1,24.33,24.33V384A24.35,24.35,0,0,1,448,408.33Zm0-35.55a4.11,4.11,0,0,0-4.11,4.11V384A4.11,4.11,0,0,0,64,388.11H448a4.11,4.11,0,0,0,4.11-4.11v-7.11a4.11,4.11,0,0,0-4.11-4.11Zm189-35.56a21.77,21.77,0,0,0,41.61,0Zm92.46,0a21.76,21.76,0,0,0,41.58,0Zm-15.18,15.34a41.74,41.74,0,0,1-5.62-15.34h-9.28a41.74,41.74,0,0,1-5.62,15.34ZM412.36,317a39.77,39.77,0,0,0,39.5-43.78H369.78a10.11,10.11,0,1,1,0-20.22h74l-10.23-15.33H327.11a24.36,24.36,0,0,1-24.33-24.34V163.56a24.36,24.36,0,0,1,24.33-24.34h40.72a39.48,39.48,0,0,0-31.28-15.33H64A4.11,4.11,0,0,0,59.89,128V253H75.22V163.56a24.37,24.37,0,0,1,24.34-24.34h49.77a24.37,24.37,0,0,1,24.34,24.34V253H334.22a10.11,10.11,0,0,1,0,20.22H173.67v4.11a24.37,24.37,0,0,1-24.34,24.34H99.56a24.37,24.37,0,0,1-24.34-24.34v-4.11H59.89V317ZM99.56,159.44a4.13,4.13,0,0,0-4.12,4.12V277.33a4.12,4.12,0,0,0,4.12,4.11h49.77a4.11,4.11,0,0,0,4.11-4.11V163.56a4.12,4.12,0,0,0-4.11-4.12Zm227.55,0a4.12,4.12,0,0,0-4.11,4.12v49.77a4.11,4.11,0,0,0,4.11,4.11h93l-38.67-58Z" fill="#2e5a5c"/><path d="M213.33,237.67A24.37,24.37,0,0,1,189,213.33V163.56a24.37,24.37,0,0,1,24.33-24.34h49.78a24.36,24.36,0,0,1,24.33,24.34v49.77a24.36,24.36,0,0,1-24.33,24.34Zm0-78.23a4.12,4.12,0,0,0-4.11,4.12v49.77a4.12,4.12,0,0,0,4.11,4.11h49.78a4.11,4.11,0,0,0,4.11-4.11V163.56a4.12,4.12,0,0,0-4.11-4.12Z" fill="#2e5a5c"/><path id="Shape" d="M263.11,142.22H213.33A21.33,21.33,0,0,0,192,163.56v49.77a21.33,21.33,0,0,0,21.33,21.34h49.78a21.33,21.33,0,0,0,21.33-21.34V163.56A21.33,21.33,0,0,0,263.11,142.22Zm7.11,71.11a7.11,7.11,0,0,1-7.11,7.11H213.33a7.11,7.11,0,0,1-7.11-7.11V163.56a7.12,7.12,0,0,1,7.11-7.12h49.78a7.11,7.11,0,0,1,7.11,7.12Z" fill="#2e5a5c"/><path d="M113.78,187.89a10.11,10.11,0,1,1,0-20.22h21.33a10.11,10.11,0,0,1,0,20.22Z" fill="#2e5a5c"/><path id="Shape-2" data-name="Shape" d="M135.11,170.67H113.78a7.11,7.11,0,1,0,0,14.22h21.33a7.11,7.11,0,0,0,0-14.22Z" fill="#2e5a5c"/><path d="M113.78,216.33a10.11,10.11,0,1,1,0-20.22h21.33a10.11,10.11,0,0,1,0,20.22Z" fill="#2e5a5c"/><path id="Shape-3" data-name="Shape" d="M135.11,199.11H113.78a7.11,7.11,0,1,0,0,14.22h21.33a7.11,7.11,0,0,0,0-14.22Z" fill="#2e5a5c"/></g></g></svg>