<svg xmlns="http://www.w3.org/2000/svg" viewBox="0 0 512 512"><path fill='#2e5a5c' d="M392,211.6a93.35,93.35,0,0,0-33.65,6.25c-8.19-18.2-15.27-37.44-18.8-55.34a61.68,61.68,0,0,0-60.41-49.62,13.46,13.46,0,1,0,0,26.92,34.75,34.75,0,0,1,30.45,18.11,15,15,0,0,0-1,1.45l-4.18,7L283.23,202h-113l-6.42-16.17h2.66a13.46,13.46,0,1,0,0-26.92H120a13.46,13.46,0,1,0,0,26.92h14.78l11.74,29.57a93.75,93.75,0,1,0,66.26,103.39h24.73a13.45,13.45,0,0,0,11.57-6.59l70.74-119.1a358.9,358.9,0,0,0,14.95,38A93.7,93.7,0,1,0,392,211.6ZM120,318.82h65.47a66.84,66.84,0,1,1,0-26.93H120a13.47,13.47,0,1,0,0,26.93Zm109.84-26.93H212.79a93.64,93.64,0,0,0-28.93-55.12,12.06,12.06,0,0,0-.52-1.61l-2.46-6.2h86.36ZM392,372.19A66.8,66.8,0,0,1,347,256a598.39,598.39,0,0,0,33.94,57,13.46,13.46,0,0,0,22.16-15.29,588.78,588.78,0,0,1-32.89-55.51,66.83,66.83,0,1,1,21.81,130Z"/></svg>
