<svg xmlns="http://www.w3.org/2000/svg" viewBox="0 0 512 512"><path fill="#2e5a5c" d="M96,277.33a53.34,53.34,0,1,0,53.33,53.34A53.41,53.41,0,0,0,96,277.33Zm0,85.34a32,32,0,1,1,32-32A32,32,0,0,1,96,362.67Z"/><path fill="#2e5a5c" d="M416,277.33a53.34,53.34,0,1,0,53.33,53.34A53.41,53.41,0,0,0,416,277.33Zm0,85.34a32,32,0,1,1,32-32A32,32,0,0,1,416,362.67Z"/><path fill="#2e5a5c" d="M448,213.33H430a29.22,29.22,0,0,1-18.22-6.4l-84.05-67.24A53.63,53.63,0,0,0,294.36,128H140.16a53.23,53.23,0,0,0-44.37,23.74L77.63,179a29.2,29.2,0,0,1-24.3,13A53.41,53.41,0,0,0,0,245.33V288a53.4,53.4,0,0,0,53.33,53.33,10.67,10.67,0,1,0,0-21.33,32,32,0,0,1-32-32V245.33a32,32,0,0,1,32-32,50.43,50.43,0,0,0,42.05-22.5l18.16-27.25a32,32,0,0,1,26.62-14.25h154.2a32.22,32.22,0,0,1,20,7l84.05,67.22A50.58,50.58,0,0,0,430,234.66h18c31.3,0,42.67,31.9,42.67,53.34,0,21-16.09,32-32,32a10.67,10.67,0,1,0,0,21.33c30.4,0,53.33-22.93,53.33-53.33C512,251.8,489.58,213.33,448,213.33Z"/><path fill="#2e5a5c" d="M373.33,320H138.67a10.67,10.67,0,1,0,0,21.33H373.33a10.67,10.67,0,1,0,0-21.33Z"/><path fill="#2e5a5c" d="M352,213.33H256v-32a10.67,10.67,0,0,0-21.33,0V224a10.67,10.67,0,0,0,10.66,10.67H352a10.67,10.67,0,1,0,0-21.34Z"/><path fill="#2e5a5c" d="M202.67,213.33H134.59l13.63-27.22a10.67,10.67,0,1,0-19.09-9.53L107.8,219.24a10.67,10.67,0,0,0,9.53,15.43h85.34a10.67,10.67,0,0,0,0-21.34Z"/><path fill="#2e5a5c" d="M288,256H266.67a10.67,10.67,0,1,0,0,21.33H288A10.67,10.67,0,1,0,288,256Z"/></svg>
