<svg xmlns="http://www.w3.org/2000/svg" viewBox="0 0 695.17 149.31"><defs><style>.a{fill:#33cad1;}.b{fill:none;stroke:#12d4c4;stroke-miterlimit:10;stroke-width:2px;}.c{opacity:0.46;}.d{fill:#19a594;}</style></defs><path class="a" d="M39.83,3.39,54.17,15.11c4.16,3.5,6.46,6.35,6.79,11.71V68.31a9.35,9.35,0,0,1-9.42,9.41,9.46,9.46,0,0,1-9.63-9.41V59l-19-17.62V68.31a9.44,9.44,0,0,1-9.52,9.41,9.53,9.53,0,0,1-9.63-9.41V26.82c.44-5.36,3-8.21,7-11.71l14-11.72C30.31-1,34.36-1.2,39.83,3.39ZM41.91,40V20h-19V40Z"/><path class="a" d="M89.54,58.46v9.19c0,5.37-3.94,9.74-9.31,9.74a9.74,9.74,0,0,1-9.63-9.74V16.75A16.3,16.3,0,0,1,86.8.55h14.56A16,16,0,0,1,112.64,5l10.51,10.5c6.89,6.57,5.69,22.77-1,29.23l-9.52,9.09a15.23,15.23,0,0,1-11.28,4.6ZM107.93,39.3V19.7l-18.17-.21V39.3Z"/><path class="a" d="M134.31,69V33.65a9.3,9.3,0,0,1,9.63-9c5.48,0,9.74,3.85,9.74,8.56V69c0,4.71-4.26,8.65-9.74,8.65C138.69,77.64,134.31,73.7,134.31,69Zm18.95-48.8H134.7V.75h18.56Z"/><path class="a" d="M220.52,58.46v9.19c0,5.37-3.94,9.74-9.31,9.74a9.74,9.74,0,0,1-9.63-9.74V16.75A16.3,16.3,0,0,1,217.78.55h14.56A15.94,15.94,0,0,1,243.61,5l10.51,10.5c6.9,6.57,5.7,22.77-1,29.23l-9.53,9.09a15.2,15.2,0,0,1-11.27,4.6ZM238.91,39.3V19.7l-18.17-.21V39.3Z"/><path class="a" d="M264.3,60.75V9.63A9.68,9.68,0,0,1,273.94.22a9.56,9.56,0,0,1,9.74,9.41V58.24c9.63,0,6.89-.22,16.42-.22,12.59,0,12.59,19.27,0,19.27H280.94A16.68,16.68,0,0,1,264.3,60.75Z"/><path class="a" d="M350.67,3.39,365,15.11c4.16,3.5,6.46,6.35,6.79,11.71V68.31a9.35,9.35,0,0,1-9.42,9.41,9.46,9.46,0,0,1-9.63-9.41V59L333.7,41.38V68.31a9.58,9.58,0,0,1-19.15,0V26.82c.43-5.36,2.95-8.21,7-11.71l14-11.72C341.15-1,345.2-1.2,350.67,3.39ZM352.75,40V20H333.7V40Z"/><path class="a" d="M417.23.66c12.37,0,12.37,19,0,19H409V68.2c0,12.92-19.16,12.92-19.16,0V19.7h-8.21c-12.48,0-12.48-19,0-19Z"/><path class="a" d="M450.94,19.81v12.7h17.19A9.6,9.6,0,0,1,477.65,42a9.81,9.81,0,0,1-9.74,9.63h-17V68.42c0,12.48-19.15,12.48-19.15,0V16.86A16.13,16.13,0,0,1,447.88.66h24.41a9.53,9.53,0,0,1,9.63,9.41,9.88,9.88,0,0,1-9.63,9.74Z"/><path class="a" d="M504.26.77h21.89A16.31,16.31,0,0,1,542.36,17V61c0,7.89-7.56,16.21-15.66,16.21H503.82c-8.1,0-16.2-8.32-16.2-16.21V17C487.62,7.44,495.5.77,504.26.77ZM523.2,19.92H506.78V58.24H523.2Z"/><path class="a" d="M596.1,46.09c6.79,4.16,9.2,9.41,9.2,16.31V68a9.36,9.36,0,1,1-18.72,0V62.62L567.86,39.85V68a9.44,9.44,0,0,1-9.41,9.52A9.56,9.56,0,0,1,548.81,68V10.29A9.58,9.58,0,0,1,558.45.66h21.34a16.27,16.27,0,0,1,11.5,4.7l9.3,9a16.14,16.14,0,0,1,5.15,11.82v4.27C605.74,38,602.23,43,596.1,46.09ZM567.86,19.81V38.2h18.72V19.81Z"/><path class="a" d="M645.14,3.61l8.32,8.87,8.32-8.87c4.6-4.81,11.17-4.81,15.44,0l11.16,11.61c3.4,3.83,6.24,6.24,6.79,11.6V68.53c0,12.37-19.26,12.37-19.26,0V20H663.1v48.5c0,12.7-19.16,12.7-19.16,0V20H631.35v48.5c0,12.37-19.27,12.37-19.27,0V26.82c.22-5.36,3.29-7.77,6.79-11.6L630,3.61C634.31-1.2,640.88-1.2,645.14,3.61Z"/><path class="b" d="M1,117.88A30.69,30.69,0,0,1,2.91,107.3a29.19,29.19,0,0,1,5.55-9.41,28.47,28.47,0,0,1,8.92-6.72,27,27,0,0,1,12-2.57A25.59,25.59,0,0,1,43,92.17a22.43,22.43,0,0,1,8.63,9.29l-10.45,7.29a12.3,12.3,0,0,0-2.32-3.85,13.22,13.22,0,0,0-3.07-2.49,11.9,11.9,0,0,0-3.44-1.33,16.36,16.36,0,0,0-3.36-.37,12.1,12.1,0,0,0-6.3,1.58,14,14,0,0,0-4.4,4.06A18.23,18.23,0,0,0,15.72,112a23.88,23.88,0,0,0-.87,6.38,21.9,21.9,0,0,0,1,6.72,19.27,19.27,0,0,0,2.91,5.72,13.85,13.85,0,0,0,4.52,3.94,12,12,0,0,0,5.88,1.45,14.1,14.1,0,0,0,3.45-.45,14.34,14.34,0,0,0,3.44-1.41,11.7,11.7,0,0,0,3-2.49,12,12,0,0,0,2.16-3.77l11.19,6.55a17.92,17.92,0,0,1-3.85,5.8,23.82,23.82,0,0,1-5.77,4.31A29.25,29.25,0,0,1,36,147.4a28.74,28.74,0,0,1-7.09.91,24.28,24.28,0,0,1-11.23-2.61,28.55,28.55,0,0,1-8.79-6.93A32.65,32.65,0,0,1,3.07,129,31.18,31.18,0,0,1,1,117.88Z"/><path class="b" d="M100,148.31a25.27,25.27,0,0,1-11.44-2.57A28.75,28.75,0,0,1,79.74,139,30.58,30.58,0,0,1,74,129.4a31.1,31.1,0,0,1-2-11.11A30.86,30.86,0,0,1,80,97.6a28.53,28.53,0,0,1,9-6.55,26.22,26.22,0,0,1,11.32-2.45,25.32,25.32,0,0,1,11.45,2.57,28.84,28.84,0,0,1,8.83,6.8,30.74,30.74,0,0,1,5.68,9.62,31.6,31.6,0,0,1,2,11,30.35,30.35,0,0,1-2.12,11.19,30.69,30.69,0,0,1-5.84,9.5,28.64,28.64,0,0,1-8.92,6.59A25.78,25.78,0,0,1,100,148.31ZM85.83,118.46a22.79,22.79,0,0,0,1,6.59,18.81,18.81,0,0,0,2.73,5.68,13.49,13.49,0,0,0,4.48,4,12.51,12.51,0,0,0,6.18,1.49,12,12,0,0,0,6.22-1.57,14.15,14.15,0,0,0,4.43-4.11,18,18,0,0,0,2.66-5.72,24.67,24.67,0,0,0,.87-6.51,23.08,23.08,0,0,0-1-6.59,18.12,18.12,0,0,0-2.78-5.64,13.85,13.85,0,0,0-4.48-3.9,12.5,12.5,0,0,0-6.05-1.45,12.11,12.11,0,0,0-6.22,1.54,14,14,0,0,0-4.44,4A18.06,18.06,0,0,0,86.75,112,23.54,23.54,0,0,0,85.83,118.46Z"/><path class="b" d="M166.35,114.14v33.67h-13.6V88.94h10.62l27.45,34.58V88.94h13.6v58.87H193.47Z"/><path class="b" d="M232.28,147.81V88.94h40v11.94H245.88v12.68H267.6v11H245.88v23.22Z"/><path class="b" d="M337.09,135.87v11.94H295.71V88.94h40.64v11.94h-27v11.44h23.22v11H309.31v12.52Z"/><path class="b" d="M362.14,147.81V88.94h26.53a17.07,17.07,0,0,1,7.67,1.74,20.32,20.32,0,0,1,6.1,4.56,21.53,21.53,0,0,1,4,6.38,19,19,0,0,1,1.45,7.22,20.72,20.72,0,0,1-.66,5.26,20.25,20.25,0,0,1-1.91,4.77,18.17,18.17,0,0,1-3,4,18,18,0,0,1-4,3l13.52,21.89H396.47l-11.86-19h-8.87v19ZM375.74,117h12.44a5.07,5.07,0,0,0,4.14-2.28,9.36,9.36,0,0,0,1.74-5.84,8.23,8.23,0,0,0-2-5.81,5.83,5.83,0,0,0-4.31-2.15h-12Z"/><path class="b" d="M476.49,135.87v11.94H435.11V88.94h40.64v11.94h-27v11.44h23.22v11H448.71v12.52Z"/><path class="b" d="M515.13,114.14v33.67h-13.6V88.94h10.62l27.45,34.58V88.94h13.6v58.87h-11Z"/><path class="b" d="M577.66,117.88a30.69,30.69,0,0,1,1.91-10.58,29.19,29.19,0,0,1,5.55-9.41A28.35,28.35,0,0,1,594,91.17a27,27,0,0,1,12-2.57,25.59,25.59,0,0,1,13.68,3.57,22.43,22.43,0,0,1,8.63,9.29l-10.45,7.29a12.3,12.3,0,0,0-2.32-3.85,13.22,13.22,0,0,0-3.07-2.49,12,12,0,0,0-3.44-1.33,16.36,16.36,0,0,0-3.36-.37,12.08,12.08,0,0,0-6.3,1.58,14,14,0,0,0-4.4,4.06,18.23,18.23,0,0,0-2.61,5.64,23.88,23.88,0,0,0-.87,6.38,21.9,21.9,0,0,0,1,6.72,19,19,0,0,0,2.91,5.72,13.85,13.85,0,0,0,4.52,3.94,12,12,0,0,0,5.88,1.45,14,14,0,0,0,3.44-.45,14.24,14.24,0,0,0,3.45-1.41,11.7,11.7,0,0,0,3-2.49,12.18,12.18,0,0,0,2.16-3.77l11.19,6.55a17.92,17.92,0,0,1-3.85,5.8,23.82,23.82,0,0,1-5.77,4.31,29.25,29.25,0,0,1-6.84,2.66,28.74,28.74,0,0,1-7.09.91,24.28,24.28,0,0,1-11.23-2.61,28.55,28.55,0,0,1-8.79-6.93,32.65,32.65,0,0,1-5.77-9.78A31.18,31.18,0,0,1,577.66,117.88Z"/><path class="b" d="M694,135.87v11.94H652.62V88.94h40.64v11.94h-27v11.44h23.22v11H666.22v12.52Z"/><g class="c"><path class="d" d="M29.38,146.34A22.37,22.37,0,0,1,19.06,144a26.76,26.76,0,0,1-8.18-6.44,30.83,30.83,0,0,1-5.41-9.2,29.25,29.25,0,0,1-1.95-10.4A28.88,28.88,0,0,1,5.31,108a27.13,27.13,0,0,1,5.18-8.77A26,26,0,0,1,18.78,93a25,25,0,0,1,11.1-2.37,23.79,23.79,0,0,1,12.64,3.27,20.73,20.73,0,0,1,6.53,6.14l.55.81-7.05,4.93L42,105a12.37,12.37,0,0,0-1.09-1.37,15.13,15.13,0,0,0-3.54-2.87,13.71,13.71,0,0,0-4-1.55c-4.4-.92-8.13-.32-11.09,1.44a16,16,0,0,0-5,4.64,20,20,0,0,0-2.91,6.25,26.18,26.18,0,0,0-.94,6.92,23.93,23.93,0,0,0,1.13,7.32,21.5,21.5,0,0,0,3.21,6.32,16.06,16.06,0,0,0,5.16,4.49,14.57,14.57,0,0,0,10.78,1.18,15.67,15.67,0,0,0,4-1.62,13.58,13.58,0,0,0,3.5-2.91,12.59,12.59,0,0,0,1-1.41l.52-.81,7.7,4.51-.55.87a16,16,0,0,1-2.17,2.71,22,22,0,0,1-5.28,4A28,28,0,0,1,36,145.49,26.83,26.83,0,0,1,29.38,146.34Zm.5-53.7A23.28,23.28,0,0,0,19.65,94.8,24.4,24.4,0,0,0,12,100.57a25.16,25.16,0,0,0-4.8,8.13,26.89,26.89,0,0,0-1.67,9.21,27.19,27.19,0,0,0,1.82,9.7,29,29,0,0,0,5.06,8.6,24.73,24.73,0,0,0,7.57,6,22,22,0,0,0,15.53,1.38,25.76,25.76,0,0,0,5.92-2.29,20.37,20.37,0,0,0,4.81-3.6,15.68,15.68,0,0,0,1.31-1.52l-4.25-2.49c-.22.29-.44.58-.68.85a15.57,15.57,0,0,1-4,3.34,18.14,18.14,0,0,1-4.44,1.82,16.52,16.52,0,0,1-12.24-1.37,17.93,17.93,0,0,1-5.8-5,23.08,23.08,0,0,1-3.51-6.91,25.68,25.68,0,0,1-1.23-7.93,27.71,27.71,0,0,1,1-7.45,22.09,22.09,0,0,1,3.19-6.87,18,18,0,0,1,5.63-5.21A17.09,17.09,0,0,1,33.73,97.2,15.78,15.78,0,0,1,38.34,99a16.89,16.89,0,0,1,4,3.25c.22.25.45.51.66.78l3.79-2.65a19.16,19.16,0,0,0-5.35-4.75A21.83,21.83,0,0,0,29.88,92.64Z"/><path class="d" d="M100.54,146.34A23.27,23.27,0,0,1,90,144a26.92,26.92,0,0,1-8.23-6.29,28.85,28.85,0,0,1-5.35-9,29.46,29.46,0,0,1-1.9-10.41A28.74,28.74,0,0,1,82,99a26.91,26.91,0,0,1,8.34-6.1,24.4,24.4,0,0,1,10.46-2.25A23.3,23.3,0,0,1,111.33,93a26.51,26.51,0,0,1,8.22,6.32,28.7,28.7,0,0,1,5.31,9,29.46,29.46,0,0,1,1.87,10.25,28.55,28.55,0,0,1-2,10.47,28.85,28.85,0,0,1-5.46,8.88,26.91,26.91,0,0,1-8.3,6.13A23.94,23.94,0,0,1,100.54,146.34Zm.24-53.7a22.33,22.33,0,0,0-9.61,2.06,24.75,24.75,0,0,0-7.72,5.64,26.74,26.74,0,0,0-6.94,18A27.36,27.36,0,0,0,78.28,128a26.88,26.88,0,0,0,5,8.34,24.93,24.93,0,0,0,7.62,5.82,21.33,21.33,0,0,0,9.66,2.15,21.93,21.93,0,0,0,9.58-2.09,24.86,24.86,0,0,0,7.69-5.68,27,27,0,0,0,6.92-18A27.68,27.68,0,0,0,123,109a27,27,0,0,0-4.94-8.37,24.78,24.78,0,0,0-7.61-5.85A21.33,21.33,0,0,0,100.78,92.64Zm-.08,47.6a16.41,16.41,0,0,1-8.11-2,17.39,17.39,0,0,1-5.8-5.15,22.86,22.86,0,0,1-3.31-6.86,26.84,26.84,0,0,1-1.12-7.74,27.53,27.53,0,0,1,1.06-7.61A22.29,22.29,0,0,1,86.71,104a18.1,18.1,0,0,1,5.69-5.15,16.12,16.12,0,0,1,8.22-2.08,16.41,16.41,0,0,1,8,2,17.79,17.79,0,0,1,5.77,5,22.08,22.08,0,0,1,3.4,6.89,27.17,27.17,0,0,1,1.12,7.73,28.89,28.89,0,0,1-1,7.57,22.27,22.27,0,0,1-3.24,7A18.32,18.32,0,0,1,109,138.1,15.93,15.93,0,0,1,100.7,140.24Zm-.08-41.5a14.2,14.2,0,0,0-7.22,1.81,16.08,16.08,0,0,0-5.06,4.58,20.38,20.38,0,0,0-3,6.3,25.88,25.88,0,0,0-1,7.06,25,25,0,0,0,1,7.17,21.21,21.21,0,0,0,3,6.27,15.49,15.49,0,0,0,5.13,4.56,14.56,14.56,0,0,0,7.15,1.75,14,14,0,0,0,7.24-1.86,16.22,16.22,0,0,0,5-4.67,20.21,20.21,0,0,0,3-6.35,27,27,0,0,0,.94-7,25,25,0,0,0-1-7.16,20,20,0,0,0-3.09-6.26,15.66,15.66,0,0,0-5.12-4.46A14.51,14.51,0,0,0,100.62,98.74Z"/><path class="d" d="M202.94,145.85h-8l-30.07-37.34v37.34h-9.6V91h7.64l30.42,38.32V91h9.6Zm-7-2h5V93h-5.6V135L162,93h-4.68v50.88h5.6v-41Z"/><path class="d" d="M244.4,145.85h-9.6V91h36v7.94H244.4V115.6h21.73v7H244.4Zm-7.6-2h5.6V120.63h21.73v-3H242.4V96.91h26.37V93h-32Z"/><path class="d" d="M335.62,145.85H298.24V91h36.63v7.94h-27v15.44h23.22v7H307.84V137.9h27.78Zm-35.38-2h33.38V139.9H305.84V119.38h23.22v-3H305.84V96.91h27V93H300.24Z"/><path class="d" d="M408.75,145.85H398.1l-11.86-19h-12v19h-9.6V91H389.2A15,15,0,0,1,396,92.5a18.46,18.46,0,0,1,5.5,4.12,19.43,19.43,0,0,1,3.65,5.79,17,17,0,0,1,1.31,6.46,19.16,19.16,0,0,1-.6,4.76,18.94,18.94,0,0,1-1.72,4.3,16.16,16.16,0,0,1-6.28,6.28l-1.83,1Zm-9.54-2h6l-12-19.36,3.66-2A14.12,14.12,0,0,0,400,120.1a14.35,14.35,0,0,0,2.36-3.14,16.3,16.3,0,0,0,1.53-3.84,16.5,16.5,0,0,0,.54-4.25,15,15,0,0,0-1.16-5.7A17.46,17.46,0,0,0,400,98a16.33,16.33,0,0,0-4.92-3.67A12.87,12.87,0,0,0,389.2,93H366.66v50.88h5.6v-19h15.09ZM388.7,121H372.26V96.91h16a9.7,9.7,0,0,1,7.26,3.44,12.15,12.15,0,0,1,3,8.52,13.34,13.34,0,0,1-2.56,8.27A9,9,0,0,1,388.7,121Zm-14.44-2H388.7a7.09,7.09,0,0,0,5.74-3.07,11.38,11.38,0,0,0,2.15-7.06,10.19,10.19,0,0,0-2.52-7.16,7.77,7.77,0,0,0-5.79-2.8h-14Z"/><path class="d" d="M475,145.85H437.63V91h36.64v7.94h-27v15.44h23.22v7H447.23V137.9H475Zm-35.38-2H473V139.9H445.23V119.38h23.22v-3H445.23V96.91h27V93H439.63Z"/><path class="d" d="M551.72,145.85h-8l-30.07-37.34v37.34h-9.6V91h7.65l30.41,38.32V91h9.6Zm-7-2h5V93h-5.6V135L510.74,93h-4.68v50.88h5.6v-41Z"/><path class="d" d="M606,146.34A22.37,22.37,0,0,1,595.72,144a26.76,26.76,0,0,1-8.18-6.44,31.07,31.07,0,0,1-5.42-9.2,29.46,29.46,0,0,1-1.94-10.4A28.88,28.88,0,0,1,582,108a27.13,27.13,0,0,1,5.18-8.77A26,26,0,0,1,595.44,93a25,25,0,0,1,11.1-2.37,23.81,23.81,0,0,1,12.64,3.27,20.73,20.73,0,0,1,6.53,6.14l.55.81-7,4.93-.57-.84a12.37,12.37,0,0,0-1.09-1.37,15.13,15.13,0,0,0-3.54-2.87,13.71,13.71,0,0,0-4-1.55c-4.41-.92-8.13-.32-11.09,1.44a16,16,0,0,0-5,4.64,20,20,0,0,0-2.91,6.25,26.18,26.18,0,0,0-.94,6.92,23.93,23.93,0,0,0,1.13,7.32,21.5,21.5,0,0,0,3.21,6.32,16.06,16.06,0,0,0,5.16,4.49,14.57,14.57,0,0,0,10.78,1.18,15.67,15.67,0,0,0,4-1.62,13.58,13.58,0,0,0,3.5-2.91,12.59,12.59,0,0,0,1-1.41l.52-.81,7.7,4.51-.56.87a16,16,0,0,1-2.16,2.71,22,22,0,0,1-5.28,4,28,28,0,0,1-6.38,2.47A26.83,26.83,0,0,1,606,146.34Zm.5-53.7a23.28,23.28,0,0,0-10.23,2.16,24.4,24.4,0,0,0-7.66,5.77,25.16,25.16,0,0,0-4.8,8.13,26.89,26.89,0,0,0-1.67,9.21,27.19,27.19,0,0,0,1.82,9.7,29,29,0,0,0,5.06,8.6,24.61,24.61,0,0,0,7.57,6,22,22,0,0,0,15.53,1.38,25.76,25.76,0,0,0,5.92-2.29,20.37,20.37,0,0,0,4.81-3.6,15.68,15.68,0,0,0,1.31-1.52L620,133.65c-.22.29-.45.58-.68.85a15.73,15.73,0,0,1-4,3.34,18.31,18.31,0,0,1-4.44,1.82,16.52,16.52,0,0,1-12.24-1.37,17.93,17.93,0,0,1-5.8-5,23.08,23.08,0,0,1-3.51-6.91,25.68,25.68,0,0,1-1.23-7.93,28.11,28.11,0,0,1,1-7.45,22.34,22.34,0,0,1,3.2-6.87,18,18,0,0,1,5.63-5.21,17.14,17.14,0,0,1,12.52-1.68A15.78,15.78,0,0,1,615,99a16.65,16.65,0,0,1,4,3.25c.23.25.46.51.67.78l3.79-2.65a19.16,19.16,0,0,0-5.35-4.75A21.83,21.83,0,0,0,606.54,92.64Z"/><path class="d" d="M692.53,145.85H655.15V91h36.63v7.94h-27v15.44H688v7H664.75V137.9h27.78Zm-35.38-2h33.38V139.9H662.75V119.38H686v-3H662.75V96.91h27V93H657.15Z"/></g></svg>