<svg xmlns="http://www.w3.org/2000/svg" viewBox="0 0 553.21 441"><path d="M301.34,416.21c-2.59.5-5.3-.08-8,.51-2.18.47-4.47,0-6.75.47s-4.8.07-7.23.52-5.15-.17-7.74.5c-1.67.43-3.55-.26-5.24.56H256c-.16,0-.4.07-.48,0-.89-1-2-.3-3-.48a16.88,16.88,0,0,0-3-.47,10.88,10.88,0,0,1-6.64-2c-1.29-1-1.35-1.06,0-1.74.62-.3,1.28-.51,1.92-.76,2.59-1,5.35-1.14,8.07-1.47.82-.1,1.8.26,2.45-.08a5.55,5.55,0,0,1,3.29-.39c1.18.11,2.17-.48,3.28-.54a29.64,29.64,0,0,0,7.58-1.45,1.57,1.57,0,0,0,1.2-1,31.94,31.94,0,0,0,1.46-4.6c.49-2.77,1.6-5.43,1.53-8.31.79-1.08.13-2.45.57-3.48a10.64,10.64,0,0,0,.42-3.55c0-.16-.07-.39,0-.49.79-1,.54-2.19.44-3.27s.49-2.17.54-3.28a76.4,76.4,0,0,1,.41-8c.53-3.61,0-7.29.49-11a52.26,52.26,0,0,0,0-10.16c-.19-3.36.61-6.63.56-10-.07-3.72,0-7.44,0-11.16s.37-7.33-.44-11c-.34-1.55-.11-3.16-.42-4.78-.41-2.14-.64-4.35-1.05-6.52a11.38,11.38,0,0,1-.49-2.51c.09-1-.55-1.81-.58-2.78a8.66,8.66,0,0,0-.49-2.52c-1.56-4.15-2.81-8.42-4.77-12.42a42.94,42.94,0,0,0-2.18-4,50.68,50.68,0,0,0-6.4-8.53,2.53,2.53,0,0,0-1.93-.78c-1.92-.06-3.88.37-5.76-.45a2,2,0,0,0-1.22,0c-.22,0-.54.38-.53.56a12.5,12.5,0,0,1-.8,4.4c-.82,3.17-2.78,5.71-4.76,8.19-2.37,3-5.61,5-8.7,7.13-.49.34-1.3,1-1.94.43s-1.39-.32-2.09-.37c-.91-.07-1.95.27-2.7-.07-2.41-1.12-4.74-.23-7.06.09-1.85.27-3.61,2.18-4.24,4.07-.41,1.24-.93,1.45-2.09.84a1.17,1.17,0,0,1-.38-.5c-.34-.6-.67-1.21-1-1.82-.43-.82-.8-.89-1.25-.11-.84,1.45-2,2.66-2.94,4-1.63,2.31-3.85,4-5.7,6.06a1.15,1.15,0,0,1-.8.25c-.56-.87-1.51-.26-2.24-.64a67.46,67.46,0,0,1-6.63-3.74A21.31,21.31,0,0,0,185,300.14h-2.23c-.89.05-1.24-.39-1.53-1.18s-.47-1.76-.88-2.62c-.28-.59-.5-.76-1-.67a18.91,18.91,0,0,0-2.46.64c-2.51.85-3.43.24-3-2.32a18.23,18.23,0,0,0,.45-3.28c0-1.86,0-2-1.7-2.4a20.34,20.34,0,0,1-5.85-2.65,18.59,18.59,0,0,1-6.85-6.93,38.22,38.22,0,0,1-4-11c-.13-.6-.36-1.18-.48-1.78a4.26,4.26,0,0,0-.42-1.82c-.52-.82.26-1.81,1.32-1.68,1.34.17,2.5-.43,3.76-.55.9-.09,2-1.14,1.76-1.65a5.54,5.54,0,0,0-1.18-1.73,12.41,12.41,0,0,0-1.78-1.08c-1.29-.82-1.39-1.44-.32-2.39a6.65,6.65,0,0,1,4.06-1.56c.5,0,.77-.11.74-.67s0-1.16,0-1.74c0-.82-.06-1.66,0-2.48a13.53,13.53,0,0,1,.49-2.52,13,13,0,0,1,2.76-5.06c.32-.34.71-.57.73-1.2a3.08,3.08,0,0,0-2.29-3.22,5.48,5.48,0,0,0-2.52-.51,1,1,0,0,1-1.15-.83.91.91,0,0,1,0-.17c-.21-1.17-.31-2.35-.52-3.51a13.24,13.24,0,0,0-.75-2.91c-1.2-2.65-2.5-5.22-5.2-6.76-1.33-.77-1.33-1.11-.4-2a14.5,14.5,0,0,1,1.89-1.41,12.18,12.18,0,0,0,1.35-.9,12,12,0,0,0,1.14-1.51c-.63-.44-1.23-.93-1.89-1.31-.25-.14-.65,0-1,0H153.8c-2,0-1.92,0-1.87-2,0-.56.39-.86.53-1.27.36-1,1.29-1.3,2-1.87A4.88,4.88,0,0,0,156,205c-.13-1.29-.49-2.43-1.94-2.9-.42-.14-.73-.66-1.06-1a1.68,1.68,0,0,1,.08-2.37,1.55,1.55,0,0,1,.48-.32,3.14,3.14,0,0,1,1.78-.52c1.82.07,3.64,0,5.46,0s1.91,0,1.66-2a4.57,4.57,0,0,1,0-.74,11.59,11.59,0,0,0-.49-4.26,47.84,47.84,0,0,0-2.32-7c-3-6.38-6.55-12.47-9.22-19-.89-2.2-1.17-4.09.09-6.19a32.47,32.47,0,0,0,1.78-4,53.49,53.49,0,0,0,1.66-5.26,6.4,6.4,0,0,0,0-3.42,2.83,2.83,0,0,0-1.72-1.66A6.14,6.14,0,0,1,149,141.8v-.49a27.84,27.84,0,0,1,5.95-3.68c1.26-.56,2.52-1.12,3.76-1.71.9-.43,1.23-.84,1.22-1.75a1.88,1.88,0,0,0-.66-1.73,14.64,14.64,0,0,1-1.59-1.56,3.94,3.94,0,0,1-.27-4.22c1.57-2.8,4-4.88,6.16-7.13a32.42,32.42,0,0,1,3.93-3.07,48.49,48.49,0,0,1,7.62-4.4,87.41,87.41,0,0,1,9.44-4.19,61.42,61.42,0,0,0,6.77-2.8c.87-.42,1.61-.83,1.37-2.07a10.25,10.25,0,0,1,.61-5.2,27.16,27.16,0,0,1,5.93-9.94c4.38-4.68,9.32-8.81,13.32-13.85A18.29,18.29,0,0,0,216,68c.15-.5.28-.61.77-.66a24.8,24.8,0,0,0,6.93-1.82,7.66,7.66,0,0,1,7.34.17c.47.29,1.3.68,1.37-.51a21.37,21.37,0,0,1,5.12-4.31,30.31,30.31,0,0,1,12.73-3.44c.66,0,1.45.23,2,0a5.48,5.48,0,0,1,3.29-.42,14.48,14.48,0,0,0,3.27-.52c1.57-.23,3.25-.13,4.69-.67.91-.34,1.08.21,1.16.51.28,1,.29,2,.56,3,.45,1.6,1,3.09,2.84,3.77,1.57.59,3,.44,3.9-.71,1.55-2,3.86-7.07,4.1-9.7a1.53,1.53,0,0,1,1.13-1.48,12.1,12.1,0,0,1,7.22-.23c2.4.58,4,2.11,5.61,3.8-.12.8.44.77.92.7.85-.12,1.68-.36,2.53-.48,1.5-.19,3.19,0,4.46-.6,1.46-.72,2.93-.16,4.41-.77s3.25-.13,4.91-.13h5a26.36,26.36,0,0,1,6.55,1,44.44,44.44,0,0,1,11.8,4.46,2.17,2.17,0,0,1,1.24,1.51,6.2,6.2,0,0,1,.41,2.3,7.86,7.86,0,0,0,1,3.79c.26.64.7,1.33,1.65.51a2,2,0,0,1,1.62,0c1.84.64,3.77.83,5.64,1.33.92.24,1.28.49,1.53,1.46a8.5,8.5,0,0,0,4.87,5.48,51.54,51.54,0,0,0,5.36,2c1.68.59,1.73.24,1.61,2A9.28,9.28,0,0,0,357,85.62a22.27,22.27,0,0,0,2.07,2.85c2.2,2.18,4.55,4.21,6.78,6.35a14.33,14.33,0,0,1,4,6.77c.2,1,.45,1,1.2,1H378c.58,0,.68.23.93.76a17,17,0,0,0,5.68,6.33,17.07,17.07,0,0,1,4.12,4.23,9,9,0,0,1,1.55,6.29,3.39,3.39,0,0,0,.87,2.85,34.39,34.39,0,0,0,4.59,4.52c1.68,1.21,3,2.78,4.5,4.09a1.18,1.18,0,0,1,.39,1.51,7.77,7.77,0,0,0-.31,5.27,14.26,14.26,0,0,1-.12,6.81c-.3,1.17-.28,2,.4,2.64a8.37,8.37,0,0,0,2.08,1.57,11.35,11.35,0,0,1,2.76,2.31c.39.36.2.64,0,1-.81,1.23-1.5,2.53-2.31,3.75a16.2,16.2,0,0,0-2.32,7.47,6.34,6.34,0,0,0,.61,3.43c.64,1.2,0,1.31-.79,1.68a22.51,22.51,0,0,0-6.62,5c-1.06,1.14-1,2.1.19,3.06a11.87,11.87,0,0,0,1.61.87c.8.45,1.31,1.26.95,1.68-.51.61-1,.19-1.66-.07-1.94-.79-3.94-1-5.79.38a30,30,0,0,1-6.42,4.26,1.12,1.12,0,0,0-.46,1c.63,1.59.63,3.64,2.78,4.26.86,1.13,2.39.56,3.42,1.36.31.24,1,0,1.46,0l8,.5a1,1,0,0,1,.24,0,3.78,3.78,0,0,1,1.23.59,1.65,1.65,0,0,1,.2,1.13,7.12,7.12,0,0,0,1,3.57,3.26,3.26,0,0,0,2,1.74,9.71,9.71,0,0,0,3.3.39c.85,0,.7.56.63,1s-.6,1.2-.42,1.51c.78,1.31.27,2.7.45,4s0,2.69.66,3.68c.72,1.19-.12,1.12-.64,1.42-.27.14-.6.16-.87.29-1.37.63-2.93.46-4.31,1a19.1,19.1,0,0,0-2.89,1.37.94.94,0,0,0-.29,1.3.89.89,0,0,0,.29.29c2.79,1.72,4.92,4.18,7.29,6.38a7.41,7.41,0,0,1,1.59,8.46c-.69,1.54-1.26,2-2.77,1.48s-3.2-.21-4.78-.45c-1.31-.2-2.22.66-3.3,1-.19.07-.32.48-.36.75a3.86,3.86,0,0,0,1.13,3c1.46,1.75,1.37,3.7,1.32,5.68a1.51,1.51,0,0,1-1.56,1.47h-.09c-2-.31-3.86.31-5.74.62a9.37,9.37,0,0,0-3.32.9,7.15,7.15,0,0,0-1.5,1.12c-.11.11.33.64.29.94-.26,2,1.34,4,0,6,0,2.89-1.54,5-3.46,7-.41.42-.86.79-1.22,1.24-1.15,1.43-1.09,2.42.2,3.73.4.41.82.81,1.22,1.23,1.32,1.37,1.1,2.43-.71,3.24a6.07,6.07,0,0,0-2.26,1.19c-.81.85-1,1.25-.11,1.9.37.28.88.4,1.18.73a22.47,22.47,0,0,0,5.34,3.9,33.29,33.29,0,0,1,3.28,2.24c.56.43,1.37,1,1,1.79-.86,1.73-.52,3.54-.37,5.26.08,1,.07,1.28-.9,1.75a26.56,26.56,0,0,0-8.5,6.44,2.11,2.11,0,0,0-.6,1c-.07,1.52-.11,3,1.07,4.29a12.71,12.71,0,0,1,2.1,3.57,3.91,3.91,0,0,1,.2,2.59c-.25.67-.35,1.83-1.56,1.85-1.86,1.5-3.74,3-5.57,4.5a12.36,12.36,0,0,0-3.88,5.33,1.48,1.48,0,0,1-1.74,1.11c-.9-.1-2-.35-2.68,0-1,.62-2.06.27-3.07.42s-2,.37-3,.49c-1.58.2-3.28.06-4.72.6-1,.39-2,.19-3,.61s-1.15.4-1.68-.65c-.62-1.25-1.55-2.39-1.31-3.93.09-.58-.4-.78-.75-.53-1.48,1-3.28.88-4.9,1.36-1.22.36-2.63,0-4,.09s-2.5.38-3.77.45-2.81,0-4.21,0a5.63,5.63,0,0,0-2.57.4c-1.31.65-2.31,0-3-1.49a42.79,42.79,0,0,1-1.67-4.77c-.28-1-.69-1.5-1.5-1.06a6.32,6.32,0,0,1-3.79.4,9.55,9.55,0,0,1-5.17-1.8,13.07,13.07,0,0,1-4.52-5.79,2.94,2.94,0,0,1,0-2.62c.73-1.51,1.67-3,1.54-4.82.95-.88.06-2.18.57-3s.29-1.56.43-2.32a14.44,14.44,0,0,0,.46-2.53,15.73,15.73,0,0,1,.8-3.9c.31-1.27-.32-2.29-1.58-1.92s-2.59.14-3.77.48a19.72,19.72,0,0,0-7.91,4.26c-3.53,3.16-5.23,6.08-7.19,10.17-.76,1.59-1.52,3.18-2.14,4.82s-.85,3.59-1.45,5.35c-.47,1.4-.13,3.11-.71,4.42-.65,1.46-.07,3-.74,4.42-.5,1.1,0,2.61-.12,3.93s-.34,2.51-.46,3.77a11.87,11.87,0,0,0,0,2.23c.09.76.43,1.51.46,2.27.2,4.32,0,8.62.43,13,.6,5.85-.15,11.76.5,17.66s-.35,11.61.53,17.41c.43,2.79-.1,5.64.45,8.49.49,2.51-.1,5.16.55,7.73.31,1.21-.29,2.59.54,3.76-.13,2.49.61,4.86,1,7.27a19.24,19.24,0,0,0,1.47,5.1,2.23,2.23,0,0,0,.35.4M277.06,274.83v-2.71a6.72,6.72,0,0,0-2.62-5.1c-.34-.27-.81-.27-.84.35a3.14,3.14,0,0,1-1.6,2.77c-1.36.66-2.58,1.65-4.25,1.77a7.06,7.06,0,0,0-3,1.12c-1.51.94-1.45,1.57,0,2.79.11.1.27.17.34.29,1.21,2.18,2.82,4.08,4,6.27a16.82,16.82,0,0,0,6,6.66c.2.11.5.23.66.16s.23-.4.25-.62c.2-2.16-.43-4.38.51-6.49C276.24,279.56,277.41,277.13,277.06,274.83Zm17.8-.11a4.61,4.61,0,0,0-4.11,1.56,8.78,8.78,0,0,0-1.76,4.46c-.36,2.35.66,4.44,1.47,6.55a1.45,1.45,0,0,0,1.47,1,9.53,9.53,0,0,0,4.95-1.23,7,7,0,0,0,3.28-3.3,6.19,6.19,0,0,0,.2-4.92c-.63-1.45-1.06-3.19-2.92-3.68A24.81,24.81,0,0,0,294.86,274.72Z" fill="#52494a"/><path d="M276.34,0C154.76,0,55.84,98.92,55.84,220.5S154.76,441,276.34,441s220.5-98.91,220.5-220.5S397.93,0,276.34,0Zm0,412.05c-105.62,0-191.55-85.93-191.55-191.55S170.72,29,276.34,29s191.55,85.88,191.55,191.5S382,412.05,276.34,412.05Z" fill="#52494a"/><path d="M53.11,195.16h.5a7.68,7.68,0,0,1,.7,2.19q.06,38.53,0,77.08a4.36,4.36,0,0,1-1.54,3c-2.64,2.11-5.48,4-8.23,5.93q-21,14.94-42,29.84a6.76,6.76,0,0,1-2.16.61L27.06,255.1,0,233.88v-.5a4.79,4.79,0,0,0,1.09-.47q25.5-18.12,51-36.29A6.18,6.18,0,0,0,53.11,195.16Z" fill="#942c28"/><path d="M499.34,196.15c7.08,5.12,14.14,10.28,21.24,15.36,10.29,7.36,20.6,14.66,30.9,22,.52.37,1,.78,1.73,1.34-9.07,7.09-18,14.06-27.1,21.22l26.63,58.81-.48.45c-.69-.47-1.38-.93-2-1.41l-49.69-35.34a18.89,18.89,0,0,0-1.67-1V198.16A9.26,9.26,0,0,1,499.34,196.15Z" fill="#942c28"/><path d="M21.34,249.26V168.84a8.58,8.58,0,0,1,.48-2,18.29,18.29,0,0,0,1.52,1.53c9.77,8,19.53,16.09,29.35,24A4.06,4.06,0,0,1,54.37,196q-.06,38.72,0,77.43c0,.68-.11,1.36-.21,2.39-5.66-4.64-11-9.05-16.38-13.41S26.81,253.64,21.34,249.26Z" fill="#681a16"/><path d="M498.85,277.06v-81.9l32.25-26.47a6.79,6.79,0,0,1,.7,2.06q.06,38.88,0,77.78a4.51,4.51,0,0,1-1.44,3.07c-8.55,7.13-17.19,14.16-25.84,21.19C502.67,274.28,500.73,275.64,498.85,277.06Z" fill="#681a16"/><rect x="20.68" y="165.02" width="510.76" height="82.4" fill="#d13a32"/><path d="M102,218.46l1.06-.72,1.78-1.17,2.19-1.49c.78-.55,1.55-1.09,2.31-1.64l.2-1.65a54.85,54.85,0,0,1,1.72-9.34,47.77,47.77,0,0,1,2.8-7.69,35,35,0,0,1,3.51-6,27.4,27.4,0,0,1,3.88-4.31,16,16,0,0,1,3.9-2.59A9,9,0,0,1,129,181a5.34,5.34,0,0,1,2.23.46,4.8,4.8,0,0,1,1.75,1.38,7.12,7.12,0,0,1,1.14,2.31,11.3,11.3,0,0,1,.41,3.22,18,18,0,0,1-.68,4.73,28.08,28.08,0,0,1-1.93,5,40.1,40.1,0,0,1-3,5A45,45,0,0,1,125,208a47.55,47.55,0,0,1-4.58,4.4,41.92,41.92,0,0,1-5.1,3.7c0,1-.06,1.76-.09,2.34s0,1,0,1.31v.88a.9.9,0,0,0,.09.4.58.58,0,0,0,.34.29,2.33,2.33,0,0,0,.69.17,7.45,7.45,0,0,0,1.16.06,11.64,11.64,0,0,0,2.93-.53l8.12-2.33.39-.07h.37a2.1,2.1,0,0,1,1.73.85,2.77,2.77,0,0,1,.43.9,3.37,3.37,0,0,1,.15,1,3.09,3.09,0,0,1-.15.95,2.78,2.78,0,0,1-1.16,1.55,2.55,2.55,0,0,1-1,.39c-1.58.63-3.2,1.2-4.85,1.69-.71.21-1.45.42-2.24.62s-1.58.38-2.4.54-1.64.28-2.47.37a19.37,19.37,0,0,1-2.41.15,6.21,6.21,0,0,1-3-.62,4.76,4.76,0,0,1-1.81-1.67,7.11,7.11,0,0,1-.94-2.44,16,16,0,0,1-.26-2.93c-1.39,1-2.57,1.82-3.54,2.42a5.4,5.4,0,0,1-1.87.9,1.4,1.4,0,0,1-.79-.28,3.23,3.23,0,0,1-.69-.74,3.87,3.87,0,0,1-.49-1,3.66,3.66,0,0,1-.18-1.13,3.41,3.41,0,0,1,.11-.9A1.11,1.11,0,0,1,102,218.46ZM115.77,210c.83-.86,1.69-1.79,2.58-2.8s1.79-2.07,2.67-3.17,1.73-2.24,2.54-3.4a38.83,38.83,0,0,0,2.21-3.45,29.73,29.73,0,0,0,1.65-3.35,13,13,0,0,0,.86-3.07c.05-.33.08-.64.1-.94s0-.57,0-.83a4.16,4.16,0,0,0-.38-2,1.15,1.15,0,0,0-1-.63,3.16,3.16,0,0,0-1.81.81,12.29,12.29,0,0,0-2.19,2.31,30.56,30.56,0,0,0-2.3,3.64,40.66,40.66,0,0,0-2.16,4.75A46.2,46.2,0,0,0,115.77,210Z" fill="#fff"/><path d="M141.62,226.38a9.17,9.17,0,0,1-4-.82,8.21,8.21,0,0,1-2.84-2.22,9.61,9.61,0,0,1-1.71-3.22,12.81,12.81,0,0,1-.57-3.84,17.4,17.4,0,0,1,1.08-5.84,15.27,15.27,0,0,1,1.37-2.78,10.79,10.79,0,0,1,1.93-2.33,8.74,8.74,0,0,1,2.47-1.6,7.54,7.54,0,0,1,3-.59,7.22,7.22,0,0,1,2.52.43,6.25,6.25,0,0,1,2,1.23,5.52,5.52,0,0,1,1.34,1.9,6.29,6.29,0,0,1,.48,2.5,6.81,6.81,0,0,1-.73,3,11.48,11.48,0,0,1-2,2.84,13.9,13.9,0,0,1-3.12,2.37A16.74,16.74,0,0,1,139,219a8.86,8.86,0,0,0,.71,1.09,3.57,3.57,0,0,0,.72.68,2.34,2.34,0,0,0,.76.33,3.55,3.55,0,0,0,.86.1,8.94,8.94,0,0,0,3.07-.58,19.86,19.86,0,0,0,3.14-1.45,26.12,26.12,0,0,0,2.88-1.91,21.82,21.82,0,0,0,2.3-2l3.13,3.25a31.18,31.18,0,0,1-4.53,3.9,21.46,21.46,0,0,1-2.24,1.43,19.69,19.69,0,0,1-2.52,1.25,16.47,16.47,0,0,1-2.74.87A12,12,0,0,1,141.62,226.38ZM138.4,215a4.81,4.81,0,0,0,1.9-.45,8.5,8.5,0,0,0,1.92-1.15,8.3,8.3,0,0,0,1.49-1.53,2.78,2.78,0,0,0,.6-1.59,3.75,3.75,0,0,0-.39-1.8,1.15,1.15,0,0,0-1-.7,3.77,3.77,0,0,0-1.78.39,4.1,4.1,0,0,0-1.23,1,5,5,0,0,0-.8,1.41,8.8,8.8,0,0,0-.47,1.59,11.53,11.53,0,0,0-.2,1.55C138.41,214.21,138.4,214.64,138.4,215Z" fill="#fff"/><path d="M152.23,217.08c.9-.78,1.64-1.43,2.2-1.94s1-1,1.45-1.42a13.62,13.62,0,0,0,1.11-1.3l1.17-1.55,1.65-2.19c.64-.87,1.49-2,2.52-3.24.22-.29.45-.58.7-.85a6.1,6.1,0,0,1,.86-.74,5.17,5.17,0,0,1,1.05-.53,3.68,3.68,0,0,1,1.27-.21,5,5,0,0,1,1.79.26,2.15,2.15,0,0,1,.92.62,1.36,1.36,0,0,1,.34.76,5.34,5.34,0,0,1,.05.69,2.29,2.29,0,0,1-.46,1.28,13.2,13.2,0,0,1-1,1.36q-.56.66-1,1.2a2.43,2.43,0,0,0-.57.81,7,7,0,0,0,.11,1.37,10.14,10.14,0,0,0,.29,1.21l.37,1.26c.13.45.26,1,.38,1.54a19.27,19.27,0,0,1,.29,2c.07.75.11,1.65.11,2.69a15.1,15.1,0,0,1,1.88-1.06l2.1-1c.72-.34,1.47-.72,2.24-1.13a17.49,17.49,0,0,0,2.31-1.49v5.43a22.33,22.33,0,0,1-3.48,2.18,33.07,33.07,0,0,1-4.15,1.79,30.3,30.3,0,0,1-4.38,1.23,21.27,21.27,0,0,1-4.21.45,11.89,11.89,0,0,1-2.66-.27,7.33,7.33,0,0,1-2.17-.83,4.64,4.64,0,0,1-1.52-1.5,4.83,4.83,0,0,1-.7-2.22c-.22,0-.45.07-.67.09H151a1,1,0,0,1-1-.69,2.82,2.82,0,0,1-.14-1,2.16,2.16,0,0,1,.29-1.08,4.56,4.56,0,0,1,.68-.89,8.21,8.21,0,0,1,.77-.67Zm3.1,3.1a1,1,0,0,1,.64.36c.23.24.51.51.81.8a6.93,6.93,0,0,0,1.07.8,2.58,2.58,0,0,0,1.38.37,3.4,3.4,0,0,0,1.57-.32,2.77,2.77,0,0,0,1-.83,3.4,3.4,0,0,0,.51-1.21,7.83,7.83,0,0,0,.14-1.45,11.87,11.87,0,0,0-.08-1.33c-.06-.45-.13-.89-.22-1.3s-.19-.8-.29-1.16l-.28-.93Z" fill="#fff"/><path d="M189.89,194.15a7.31,7.31,0,0,1,.83-3.55,7.75,7.75,0,0,1,2.35-2.58,13.32,13.32,0,0,1,3.64-1.76,29,29,0,0,1,4.67-1.08,52.62,52.62,0,0,1,5.45-.53q2.91-.15,6-.15c2.81,0,5.76.12,8.83.34a94.79,94.79,0,0,1,9.64,1.24,2.6,2.6,0,0,1,1.63.87,2.31,2.31,0,0,1,.48,1.41,2.16,2.16,0,0,1-.22.94,3.55,3.55,0,0,1-.58.85,2.74,2.74,0,0,1-.85.62,2.29,2.29,0,0,1-1,.23c-1.24,0-2.54-.07-3.89-.2s-2.75-.27-4.21-.43l-4.53-.49c-1.55-.16-3.15-.28-4.79-.36q-.45,2.72-1.12,5.84c-.45,2.08-.94,4.21-1.49,6.39s-1.11,4.34-1.7,6.49l-1.7,6.18c-.54,2-1.07,3.78-1.54,5.44s-.87,3.1-1.18,4.29a5.52,5.52,0,0,1-.59,1.52,6.17,6.17,0,0,1-.9,1.2,4,4,0,0,1-1,.78,2.06,2.06,0,0,1-1,.28,3.71,3.71,0,0,1-2.28-.65,2.45,2.45,0,0,1-.9-2.11,4.24,4.24,0,0,1,.15-1c.21-1.47.48-2.91.83-4.34s.76-2.9,1.23-4.44,1-3.18,1.6-4.91,1.26-3.63,2-5.71,1.52-4.36,2.37-6.87,1.76-5.29,2.75-8.36c-.86.06-1.73.14-2.61.22s-1.74.19-2.57.33a18.5,18.5,0,0,0-2.32.52,7.67,7.67,0,0,0-1.89.8,4,4,0,0,0-1.29,1.16,2.75,2.75,0,0,0-.47,1.6,3.18,3.18,0,0,1-.06.53,2.59,2.59,0,0,1-.43,1.06,3.35,3.35,0,0,1-1.15,1,4.44,4.44,0,0,1-2.24.47,4.38,4.38,0,0,1-2.25-.48,3.43,3.43,0,0,1-1.17-1.07A3.09,3.09,0,0,1,189.89,194.15Z" fill="#fff"/><path d="M240.63,221.22a24,24,0,0,1-2.17,1.71,23.24,23.24,0,0,1-2.8,1.67,21.58,21.58,0,0,1-3.07,1.27,9.59,9.59,0,0,1-3,.51,5.69,5.69,0,0,1-2.12-.35,3.47,3.47,0,0,1-1.39-1,3.86,3.86,0,0,1-.77-1.54,8.46,8.46,0,0,1-.22-2,20.15,20.15,0,0,1,.35-3.55c.23-1.35.52-2.75.86-4.19s.7-2.89,1.07-4.33.72-2.76,1-4a2.13,2.13,0,0,1,.68-1.08,4.32,4.32,0,0,1,1.15-.73,6.2,6.2,0,0,1,1.33-.41,6.55,6.55,0,0,1,1.25-.13,1.9,1.9,0,0,1,1.38.37,1.37,1.37,0,0,1,.37,1,6.68,6.68,0,0,1-.24,1.54c-.16.67-.37,1.43-.61,2.28s-.5,1.76-.77,2.73-.54,2-.78,2.94-.44,1.93-.61,2.86a15.13,15.13,0,0,0-.24,2.51,5.07,5.07,0,0,0,.24,1.73,1,1,0,0,0,1,.64,4,4,0,0,0,1.94-.6,18.55,18.55,0,0,0,2.15-1.47c.73-.57,1.44-1.17,2.14-1.78s1.31-1.14,1.84-1.58v4.92Zm-10.84-24.91a3.62,3.62,0,0,1,.25-1.26,4.05,4.05,0,0,1,.78-1.33,4.42,4.42,0,0,1,1.46-1,5.31,5.31,0,0,1,2.26-.42,6.15,6.15,0,0,1,1.6.19,3.9,3.9,0,0,1,1.31.6,2.85,2.85,0,0,1,.89,1,3.62,3.62,0,0,1,.32,1.55,4.83,4.83,0,0,1-.26,1.6,3.72,3.72,0,0,1-.85,1.38,4.36,4.36,0,0,1-1.47,1A5.48,5.48,0,0,1,234,200a4.31,4.31,0,0,1-3.15-1,3.62,3.62,0,0,1-1.06-2.69Z" fill="#fff"/><path d="M244.81,226.38a3.37,3.37,0,0,1-2.44-1.15,10.13,10.13,0,0,1-2-3.09,20,20,0,0,1-1.31-4.5,28.35,28.35,0,0,1-.48-5.36,38.76,38.76,0,0,1,.32-4.69,52.84,52.84,0,0,1,.92-5.23q.62-2.7,1.44-5.4t1.89-5.21a44.85,44.85,0,0,1,2.29-4.67A25,25,0,0,1,248,183.3a12.22,12.22,0,0,1,2.84-2.53,5.52,5.52,0,0,1,3-.92,2.94,2.94,0,0,1,1.73.47,3.29,3.29,0,0,1,1.06,1.25,6.1,6.1,0,0,1,.55,1.76,13.37,13.37,0,0,1,.16,2,21.3,21.3,0,0,1-.53,4.64,34.45,34.45,0,0,1-1.4,4.75,51.28,51.28,0,0,1-2,4.78q-1.16,2.4-2.42,4.77t-2.54,4.65c-.84,1.53-1.64,3-2.38,4.47a4.39,4.39,0,0,0-.26.63c-.09.26-.17.54-.25.84s-.16.62-.24,1-.15.67-.2,1v.34a6.24,6.24,0,0,0,.13,1.22,6.62,6.62,0,0,0,.33,1.07,3.4,3.4,0,0,0,.41.75c.15.19.29.28.41.28a3.48,3.48,0,0,0,1.06-.19,9.89,9.89,0,0,0,1.26-.53c.44-.21.9-.47,1.37-.75s.92-.57,1.35-.86c1-.68,2.09-1.46,3.2-2.35l2,5.09a47.68,47.68,0,0,1-4.26,2.76c-.62.34-1.25.68-1.91,1s-1.31.63-2,.89a16.17,16.17,0,0,1-1.94.61A6.86,6.86,0,0,1,244.81,226.38Zm0-19.39c.73-1.29,1.5-2.75,2.32-4.36s1.58-3.28,2.31-5a52.57,52.57,0,0,0,1.89-5.13,24.14,24.14,0,0,0,1-4.76v-1.2c0-.33-.1-.5-.23-.5a2.21,2.21,0,0,0-1.51.91,13,13,0,0,0-1.63,2.46,28,28,0,0,0-1.55,3.61c-.49,1.37-.93,2.84-1.32,4.39a45.79,45.79,0,0,0-.92,4.78,36.79,36.79,0,0,0-.34,4.81Z" fill="#fff"/><path d="M259.24,226.38a3.41,3.41,0,0,1-2.44-1.15,10.13,10.13,0,0,1-2-3.09,21.47,21.47,0,0,1-1.31-4.5,30.09,30.09,0,0,1-.47-5.36,38.74,38.74,0,0,1,.31-4.69,52.84,52.84,0,0,1,.92-5.23q.62-2.7,1.44-5.4a53.13,53.13,0,0,1,1.9-5.21,44.77,44.77,0,0,1,2.28-4.67,25.09,25.09,0,0,1,2.6-3.78,12,12,0,0,1,2.83-2.53,5.52,5.52,0,0,1,3-.92,2.91,2.91,0,0,1,1.72.47,3.23,3.23,0,0,1,1.07,1.25,6,6,0,0,1,.54,1.76,12.17,12.17,0,0,1,.16,2,21.29,21.29,0,0,1-.52,4.64,35.94,35.94,0,0,1-1.41,4.75,51.67,51.67,0,0,1-2.05,4.78q-1.15,2.4-2.42,4.77t-2.53,4.65q-1.28,2.29-2.39,4.47a4.86,4.86,0,0,0-.25.63c-.09.26-.18.54-.26.84s-.16.62-.24,1-.14.67-.19,1v.34a5.56,5.56,0,0,0,.13,1.22,8.2,8.2,0,0,0,.32,1.07,3.44,3.44,0,0,0,.42.75.57.57,0,0,0,.41.28,3.42,3.42,0,0,0,1.05-.19,9.89,9.89,0,0,0,1.26-.53c.45-.21.9-.47,1.37-.75s.92-.57,1.36-.86c1-.68,2.08-1.46,3.2-2.35l2,5.09a47.84,47.84,0,0,1-4.27,2.76c-.61.34-1.25.68-1.9,1s-1.32.63-2,.89a16.17,16.17,0,0,1-1.94.61A7,7,0,0,1,259.24,226.38Zm0-19.39c.73-1.29,1.51-2.75,2.32-4.36s1.59-3.28,2.31-5a52.57,52.57,0,0,0,1.89-5.13,23.44,23.44,0,0,0,1-4.76v-1.2c0-.33-.1-.5-.23-.5a2.24,2.24,0,0,0-1.53,1,12.17,12.17,0,0,0-1.62,2.46,29.55,29.55,0,0,0-1.56,3.61c-.49,1.37-.93,2.84-1.32,4.39a45.79,45.79,0,0,0-.92,4.78,36.13,36.13,0,0,0-.32,4.76Z" fill="#fff"/><path d="M276.46,226.38a9.17,9.17,0,0,1-4-.82,8.24,8.24,0,0,1-2.85-2.22,9.68,9.68,0,0,1-1.7-3.22,12.81,12.81,0,0,1-.57-3.84,17.3,17.3,0,0,1,.26-2.87,16.45,16.45,0,0,1,.82-3,15.9,15.9,0,0,1,1.36-2.78,11.34,11.34,0,0,1,1.93-2.33,9.35,9.35,0,0,1,2.47-1.6,7.78,7.78,0,0,1,3.05-.59,7.22,7.22,0,0,1,2.52.43,6.25,6.25,0,0,1,2,1.23,5.55,5.55,0,0,1,1.35,1.9,6.29,6.29,0,0,1,.48,2.5,6.82,6.82,0,0,1-.74,3,10.83,10.83,0,0,1-2,2.84,14.07,14.07,0,0,1-3.11,2.37,16.41,16.41,0,0,1-3.92,1.63,7.9,7.9,0,0,0,.72,1.09,3.32,3.32,0,0,0,.72.68,2.15,2.15,0,0,0,.76.33,3.55,3.55,0,0,0,.86.1,8.89,8.89,0,0,0,3.06-.58,19.86,19.86,0,0,0,3.14-1.45,26.25,26.25,0,0,0,2.89-1.91,23,23,0,0,0,2.3-2l3.13,3.25a32.37,32.37,0,0,1-4.53,3.9,22.73,22.73,0,0,1-2.25,1.43A19.69,19.69,0,0,1,282,225.1a16.36,16.36,0,0,1-2.73.87A12,12,0,0,1,276.46,226.38ZM273.24,215a4.81,4.81,0,0,0,1.9-.45,8.82,8.82,0,0,0,1.91-1.15,8.3,8.3,0,0,0,1.49-1.53,2.72,2.72,0,0,0,.61-1.59,3.52,3.52,0,0,0-.4-1.8,1.14,1.14,0,0,0-1-.7,3.72,3.72,0,0,0-3,1.39,5,5,0,0,0-.8,1.41,8.77,8.77,0,0,0-.46,1.59,13.42,13.42,0,0,0-.21,1.55C273.25,214.21,273.24,214.64,273.24,215Z" fill="#fff"/><path d="M306,204.69a13.22,13.22,0,0,1-.15,1.78c-.09.75-.22,1.58-.37,2.47s-.32,1.83-.5,2.78-.34,1.84-.5,2.67-.28,1.54-.37,2.16a9.41,9.41,0,0,0-.15,1.3v1.25a3.77,3.77,0,0,0,.14,1,1.34,1.34,0,0,0,.38.66,1,1,0,0,0,.74.23,4.07,4.07,0,0,0,1.29-.27,12.42,12.42,0,0,0,1.63-.72c.57-.3,1.16-.63,1.75-1s1.17-.78,1.71-1.2,1-.84,1.48-1.25a9.8,9.8,0,0,0,1.08-1.15v5.33a14.18,14.18,0,0,1-1.32,1.14c-.53.4-1.11.81-1.75,1.21s-1.32.8-2,1.17-1.44.69-2.17,1a18,18,0,0,1-2.16.68,8.43,8.43,0,0,1-2,.25,3.15,3.15,0,0,1-1.57-.36,3.2,3.2,0,0,1-1.13-1,7,7,0,0,1-.8-1.56,15.23,15.23,0,0,1-.57-2,21.6,21.6,0,0,1-1.84,2.1,15.87,15.87,0,0,1-2,1.66,10,10,0,0,1-2,1.1,5.49,5.49,0,0,1-2,.4,4.06,4.06,0,0,1-1.5-.27,2.94,2.94,0,0,1-1.25-.89,4.54,4.54,0,0,1-.86-1.66,8.86,8.86,0,0,1-.32-2.56,31.56,31.56,0,0,1,.45-4.75q.45-2.88,1.1-6.59a6.18,6.18,0,0,1,.19-1,10.61,10.61,0,0,1,.36-1.34,12.57,12.57,0,0,1,.57-1.48,6.65,6.65,0,0,1,.8-1.36,3.82,3.82,0,0,1,1.08-1,2.75,2.75,0,0,1,1.39-.41,4.62,4.62,0,0,1,1.84.33c.37.18.56.41.56.69-.14.85-.3,1.81-.47,2.86s-.35,2.11-.52,3.17-.35,2.11-.51,3.12-.31,1.91-.44,2.7-.23,1.43-.3,1.91-.11.74-.11.75a4.78,4.78,0,0,0,.08.84,2.7,2.7,0,0,0,.26.72,1.38,1.38,0,0,0,.43.5,1.13,1.13,0,0,0,.64.2,2.45,2.45,0,0,0,1.09-.28,3.9,3.9,0,0,0,1-.8,5.74,5.74,0,0,0,.89-1.28,7.12,7.12,0,0,0,.58-1.74l2.4-12.31a1.52,1.52,0,0,1,1-1,4.52,4.52,0,0,1,1.95-.4,3.85,3.85,0,0,1,2,.43A1.33,1.33,0,0,1,306,204.69Z" fill="#fff"/><path d="M317.05,226.38a3.33,3.33,0,0,1-2.43-1.15,10.13,10.13,0,0,1-2-3.09,20,20,0,0,1-1.31-4.5,28.35,28.35,0,0,1-.48-5.36,38.76,38.76,0,0,1,.32-4.69q.33-2.64.92-5.23t1.44-5.4c.56-1.81,1.19-3.54,1.89-5.21a44.85,44.85,0,0,1,2.29-4.67,25,25,0,0,1,2.59-3.78,12,12,0,0,1,2.84-2.53,5.52,5.52,0,0,1,3-.92,2.91,2.91,0,0,1,1.72.47,3.23,3.23,0,0,1,1.07,1.25,6.1,6.1,0,0,1,.55,1.76,13.36,13.36,0,0,1,.15,2,21.29,21.29,0,0,1-.52,4.64,34.45,34.45,0,0,1-1.4,4.75c-.59,1.59-1.28,3.19-2.05,4.78s-1.58,3.19-2.42,4.77-1.69,3.12-2.54,4.65-1.64,3-2.38,4.47a4.39,4.39,0,0,0-.26.63c-.09.26-.17.54-.25.84l-.25,1c-.08.34-.14.67-.19,1v.34a5.56,5.56,0,0,0,.13,1.22,6.62,6.62,0,0,0,.33,1.07,3.4,3.4,0,0,0,.41.75c.15.19.28.28.41.28a3.48,3.48,0,0,0,1.06-.19,11.58,11.58,0,0,0,1.26-.53c.44-.21.9-.47,1.37-.75s.92-.57,1.35-.86c1-.68,2.09-1.46,3.2-2.35l2,5.09a45.71,45.71,0,0,1-4.27,2.76c-.61.34-1.24.68-1.9,1s-1.31.63-2,.89a16.17,16.17,0,0,1-1.94.61A7,7,0,0,1,317.05,226.38Zm0-19.39c.73-1.29,1.5-2.75,2.31-4.36s1.59-3.28,2.32-5a52.57,52.57,0,0,0,1.89-5.13,24.14,24.14,0,0,0,1-4.76v-1.2c0-.33-.1-.5-.23-.5a2.23,2.23,0,0,0-1.52.91,12.17,12.17,0,0,0-1.62,2.46,28,28,0,0,0-1.55,3.61c-.49,1.37-.93,2.84-1.32,4.39a42.89,42.89,0,0,0-.92,4.78,35.13,35.13,0,0,0-.33,4.81Z" fill="#fff"/><path d="M325.3,217.08c.91-.78,1.65-1.43,2.21-1.94s1.05-1,1.45-1.42a13.62,13.62,0,0,0,1.11-1.3l1.17-1.55,1.65-2.19c.64-.87,1.49-2,2.52-3.24a9.58,9.58,0,0,1,.7-.85,6.1,6.1,0,0,1,.86-.74,5.31,5.31,0,0,1,1-.53,3.68,3.68,0,0,1,1.27-.21,5,5,0,0,1,1.79.26,2.15,2.15,0,0,1,.92.62,1.36,1.36,0,0,1,.34.76,5.34,5.34,0,0,1,0,.69,2.29,2.29,0,0,1-.46,1.28,13.2,13.2,0,0,1-1,1.36c-.37.44-.72.84-1.06,1.2a2.4,2.4,0,0,0-.56.81,7,7,0,0,0,.11,1.37,10.14,10.14,0,0,0,.29,1.21l.37,1.26c.13.45.26,1,.38,1.54a19.27,19.27,0,0,1,.29,2c.07.75.11,1.65.11,2.69a15.1,15.1,0,0,1,1.88-1.06l2.1-1c.72-.34,1.47-.72,2.24-1.13a17.49,17.49,0,0,0,2.31-1.49v5.43a22.33,22.33,0,0,1-3.48,2.18,33.07,33.07,0,0,1-4.15,1.79,30.3,30.3,0,0,1-4.38,1.23,21.27,21.27,0,0,1-4.21.45,11.89,11.89,0,0,1-2.66-.27,7.33,7.33,0,0,1-2.17-.83,4.54,4.54,0,0,1-1.52-1.5,4.83,4.83,0,0,1-.7-2.22c-.22,0-.45.07-.67.09H324a1,1,0,0,1-1-.69,2.82,2.82,0,0,1-.14-1,2.16,2.16,0,0,1,.29-1.08,4.56,4.56,0,0,1,.68-.89,8.21,8.21,0,0,1,.77-.67A2.21,2.21,0,0,0,325.3,217.08Zm3.11,3.1a1,1,0,0,1,.64.36c.23.24.51.51.81.8a6.93,6.93,0,0,0,1.07.8,2.58,2.58,0,0,0,1.38.37,3.4,3.4,0,0,0,1.57-.32,2.77,2.77,0,0,0,1-.83,3.4,3.4,0,0,0,.51-1.21,7.83,7.83,0,0,0,.14-1.45,11.87,11.87,0,0,0-.08-1.33c-.06-.45-.13-.89-.22-1.3s-.19-.8-.29-1.16l-.28-.93Z" fill="#fff"/><path d="M360.73,221.75v.49a4,4,0,0,1-.16.9,5.14,5.14,0,0,1-.41,1.07,3.55,3.55,0,0,1-.78,1.06,4.11,4.11,0,0,1-1.29.8,5.07,5.07,0,0,1-1.89.31,5.2,5.2,0,0,1-1.62-.23,3.36,3.36,0,0,1-1.25-.7,3.11,3.11,0,0,1-.81-1.21,4.7,4.7,0,0,1-.3-1.78,5.81,5.81,0,0,1,.26-1.71,4.2,4.2,0,0,1,.79-1.49,3.61,3.61,0,0,1,1.38-1,4.73,4.73,0,0,1,2-.39,4.14,4.14,0,0,1,3.05,1A3.84,3.84,0,0,1,360.73,221.75Z" fill="#fff"/><path d="M372.59,226.38a8.78,8.78,0,0,1-3.91-.82,8.33,8.33,0,0,1-2.83-2.2,9.72,9.72,0,0,1-1.72-3.2,12.19,12.19,0,0,1-.58-3.79,16.08,16.08,0,0,1,.29-2.93,17.41,17.41,0,0,1,.86-3,16.32,16.32,0,0,1,1.41-2.8,11.19,11.19,0,0,1,1.94-2.34,8.83,8.83,0,0,1,2.46-1.6,7.92,7.92,0,0,1,5.53-.17,6,6,0,0,1,2,1.18,5.48,5.48,0,0,1,1.31,1.78,5.41,5.41,0,0,1,.47,2.21,6,6,0,0,1-.22,1.63,4.77,4.77,0,0,1-.64,1.44,3.4,3.4,0,0,1-1,1,2.45,2.45,0,0,1-1.36.39,1.59,1.59,0,0,1-1.49-.61,3.33,3.33,0,0,1-.35-1.67v-1.79a3.38,3.38,0,0,0-.12-1,.51.51,0,0,0-.53-.39,3,3,0,0,0-1.7.47,4.3,4.3,0,0,0-1.2,1.24,6.71,6.71,0,0,0-.79,1.72A18.11,18.11,0,0,0,370,213a13.74,13.74,0,0,0-.21,1.81c0,.57-.05,1-.05,1.44a10.09,10.09,0,0,0,.16,1.82,5.07,5.07,0,0,0,.59,1.73,3.93,3.93,0,0,0,1.19,1.31,3.34,3.34,0,0,0,1.94.52,5.67,5.67,0,0,0,2.57-.72,18.46,18.46,0,0,0,2.82-1.8,26.76,26.76,0,0,0,2.7-2.4,32.21,32.21,0,0,0,2.21-2.47l1.67,2.81a31,31,0,0,1-3.93,4.63,24.09,24.09,0,0,1-1.95,1.69,16.21,16.21,0,0,1-2.2,1.47,13.23,13.23,0,0,1-2.4,1A8.12,8.12,0,0,1,372.59,226.38Z" fill="#fff"/><path d="M398.32,208.23a12.72,12.72,0,0,1,1.05,3,13.15,13.15,0,0,1,.35,3,13.39,13.39,0,0,1-.31,2.89,14.41,14.41,0,0,1-.91,2.81,13.56,13.56,0,0,1-1.45,2.54,10.28,10.28,0,0,1-2,2.06,9.08,9.08,0,0,1-2.42,1.38,7.57,7.57,0,0,1-2.78.51,6.79,6.79,0,0,1-3.65-.93,7.74,7.74,0,0,1-2.49-2.44,11,11,0,0,1-1.41-3.39,16.44,16.44,0,0,1-.45-3.83,14.92,14.92,0,0,1,.8-5,11.74,11.74,0,0,1,2.29-4,10.5,10.5,0,0,1,3.64-2.69,11.58,11.58,0,0,1,4.85-1,12.72,12.72,0,0,1,4.32.72,16.31,16.31,0,0,1,3.77,1.91,21.05,21.05,0,0,1,3.27,2.76c1,1,1.93,2.08,2.82,3.19l-.46,3.42a15.06,15.06,0,0,0-1.77-1.89c-.74-.68-1.53-1.34-2.36-2s-1.66-1.25-2.46-1.83-1.51-1-2.09-1.44Zm-7.49,13.5a2.2,2.2,0,0,0,1.6-.84,7.94,7.94,0,0,0,1.36-2.11,15.43,15.43,0,0,0,.93-2.81,13.2,13.2,0,0,0,.35-2.94,12,12,0,0,0-.17-2.07,6.13,6.13,0,0,0-.51-1.66,3.09,3.09,0,0,0-.87-1.12,2.07,2.07,0,0,0-1.29-.41,2.7,2.7,0,0,0-1.89.85,8,8,0,0,0-1.57,2.17,13.82,13.82,0,0,0-1.46,6,8.82,8.82,0,0,0,.2,1.92,4.86,4.86,0,0,0,.6,1.56,3.19,3.19,0,0,0,1.09,1.07,3.11,3.11,0,0,0,1.63.4Z" fill="#fff"/><path d="M420,208.23a13.22,13.22,0,0,1,1.06,3,13.74,13.74,0,0,1,.35,3,13.4,13.4,0,0,1-.32,2.89,15.58,15.58,0,0,1-.9,2.81,13.07,13.07,0,0,1-1.46,2.54,10.28,10.28,0,0,1-2,2.06,9,9,0,0,1-2.41,1.38,7.62,7.62,0,0,1-2.79.51,6.88,6.88,0,0,1-3.65-.93,7.71,7.71,0,0,1-2.48-2.44,10.53,10.53,0,0,1-1.42-3.39,16.44,16.44,0,0,1-.45-3.83,15.44,15.44,0,0,1,.8-5,12.08,12.08,0,0,1,2.29-4,10.54,10.54,0,0,1,3.65-2.69,11.55,11.55,0,0,1,4.85-1,12.62,12.62,0,0,1,4.31.72,16.11,16.11,0,0,1,3.77,1.91,21.05,21.05,0,0,1,3.27,2.76c1,1,1.93,2.08,2.82,3.19l-.46,3.42a13.21,13.21,0,0,0-1.77-1.89c-.74-.68-1.53-1.34-2.36-2s-1.65-1.25-2.46-1.83-1.5-1-2.08-1.44Zm-7.49,13.5a2.2,2.2,0,0,0,1.6-.84,7.94,7.94,0,0,0,1.36-2.11,13.82,13.82,0,0,0,.93-2.81,12.64,12.64,0,0,0,.35-2.94,11.05,11.05,0,0,0-.17-2.07,6.49,6.49,0,0,0-.5-1.66,3,3,0,0,0-.88-1.12,2,2,0,0,0-1.28-.41,2.7,2.7,0,0,0-1.89.85,7.85,7.85,0,0,0-1.58,2.17,13.29,13.29,0,0,0-1.07,2.92,13.87,13.87,0,0,0-.38,3.07,8.87,8.87,0,0,0,.19,1.92,4.88,4.88,0,0,0,.61,1.56,3,3,0,0,0,2.71,1.47Z" fill="#fff"/><path d="M436.63,222.07a18.59,18.59,0,0,0,4.46-.49,16.89,16.89,0,0,0,3.65-1.3,15.5,15.5,0,0,0,3-1.93,19.81,19.81,0,0,0,2.39-2.37l.26,5.56a12,12,0,0,1-1.88,1.83,14.31,14.31,0,0,1-5.16,2.61,10.6,10.6,0,0,1-2.85.4h-.42l-.88-.17-1.81-.33c-.78-.14-1.85-.3-3.19-.5v.44a39.06,39.06,0,0,1-.74,8,26.11,26.11,0,0,1-2,6.14,11.89,11.89,0,0,1-2.84,3.93,5,5,0,0,1-3.32,1.38,3.71,3.71,0,0,1-2.3-.68,4.85,4.85,0,0,1-1.47-1.83,9.32,9.32,0,0,1-.77-2.69,22.24,22.24,0,0,1-.23-3.26,9.38,9.38,0,0,1,.31-2.24,24.25,24.25,0,0,1,.85-2.62q.54-1.37,1.2-2.79c.45-.94.9-1.86,1.37-2.75q1.65-3.1,3.76-6.4c.17-1.26.36-2.55.54-3.87s.42-2.61.7-3.86a27.23,27.23,0,0,1,1.07-3.54,10.42,10.42,0,0,1,1.65-2.9,7.51,7.51,0,0,1,2.41-2,7.41,7.41,0,0,1,3.4-.72,9.25,9.25,0,0,1,2.76.39,5.78,5.78,0,0,1,2.25,1.3,6.11,6.11,0,0,1,1.53,2.32,9.53,9.53,0,0,1,.56,3.47,10.47,10.47,0,0,1-.49,3.19,10,10,0,0,1-1.51,3,13.6,13.6,0,0,1-2.62,2.63,18.91,18.91,0,0,1-3.77,2.19Zm-11.48,15a4.29,4.29,0,0,0,.36,1.51,2.79,2.79,0,0,0,.51.77,1,1,0,0,0,.78.34.77.77,0,0,0,.67-.45,3.94,3.94,0,0,0,.44-1.2,12.06,12.06,0,0,0,.24-1.69c.05-.64.09-1.28.12-1.94s.06-1.31.06-1.94a14.91,14.91,0,0,1,.06-1.7c.05-.87.09-1.61.11-2.22s.05-1.11.06-1.51a9.86,9.86,0,0,1,.05-1.14,18.48,18.48,0,0,0-.89,1.85c-.3.71-.57,1.44-.83,2.2s-.49,1.51-.7,2.28-.39,1.46-.55,2.12-.27,1.22-.36,1.69A5.92,5.92,0,0,0,425.15,237.07Zm8.43-17.45a11.82,11.82,0,0,0,4.33-3.54,11.49,11.49,0,0,0,1.25-2.11,13.67,13.67,0,0,0,.77-2.23,7.38,7.38,0,0,0,.16-1.24,4.12,4.12,0,0,0-.14-1.35,2.53,2.53,0,0,0-.64-1.08,1.72,1.72,0,0,0-1.24-.45,2.63,2.63,0,0,0-1.58.5,4.62,4.62,0,0,0-1.18,1.35,8.51,8.51,0,0,0-.82,2A19.82,19.82,0,0,0,434,214c-.14.92-.24,1.85-.29,2.78a26.74,26.74,0,0,0-.13,2.84Z" fill="#fff"/><path d="M192.62,215.88a2.57,2.57,0,0,1,.55.06,1.41,1.41,0,0,1,.56.21,1.26,1.26,0,0,1,.44.42,1.21,1.21,0,0,1,.18.69,3.65,3.65,0,0,1-.08.74,1.68,1.68,0,0,1-.33.67,1.84,1.84,0,0,1-.7.5,3,3,0,0,1-1.22.2h-7.54a1.59,1.59,0,0,1-1.46-.71,1.72,1.72,0,0,1-.25-.65,4.32,4.32,0,0,1-.05-.62,2.83,2.83,0,0,1,.05-.5,1.13,1.13,0,0,1,.24-.49,1.41,1.41,0,0,1,.53-.37,2.51,2.51,0,0,1,.94-.15Z" fill="#fff"/></svg>