<svg xmlns="http://www.w3.org/2000/svg" viewBox="0 0 1131.68 788.88"><path d="M157.11,677.38s118.26-446,359.83-366.6S1075.15,119.42,1130.18,1.5" fill="none" stroke="#2fc1c1" stroke-linecap="round" stroke-linejoin="round" stroke-width="3" stroke-dasharray="0 6"/><path d="M147.29,684.35s46.09-143.44,125.93-244.88c64-81.35,115.93-160.22,230.1-133.34,88.42,20.83,164.75,26.13,246-9.47,176.45-77.3,341.44-209.48,378.54-282.17" fill="none" stroke="#2fc1c1" stroke-linecap="round" stroke-linejoin="round" stroke-width="2.81" stroke-dasharray="0 6"/><path d="M137.47,691.32S193,543.17,278.1,449.25c69.16-76.36,90.49-167,211.6-147.76,99.38,15.79,166.19,37.22,246.6-3.55,180-91.27,352.36-205,389.23-270.45" fill="none" stroke="#2fc1c1" stroke-linecap="round" stroke-linejoin="round" stroke-width="2.63" stroke-dasharray="0 6"/><path d="M127.65,698.28S192.86,545.44,283,459c74.43-71.37,65.27-174.27,193.11-162.19C586.6,307.29,643.69,345,723.29,299.22,906.9,193.65,1086.56,98.62,1123.21,40.48" fill="none" stroke="#2fc1c1" stroke-linecap="round" stroke-linejoin="round" stroke-width="2.44" stroke-dasharray="0 6"/><path d="M117.83,705.25s75-157.48,170-236.44C367.67,402.45,328,286.87,462.46,292.2c121.73,4.81,169,58.92,247.81,8.3,187.13-120.16,374.19-196.16,410.62-247" fill="none" stroke="#2fc1c1" stroke-linecap="round" stroke-linejoin="round" stroke-width="2.25" stroke-dasharray="0 6"/><path d="M108,712.22s85-162,184.7-233.63c85.36-61.29,15.52-179.47,156.13-191,132.53-10.9,170.31,69.58,248.42,14.23,190.52-135,385.09-191.72,421.31-235.31" fill="none" stroke="#2fc1c1" stroke-linecap="round" stroke-linejoin="round" stroke-width="2.06" stroke-dasharray="0 6"/><path d="M98.19,719.19s95.12-166.49,199.4-230.83c91-56.13-10.06-198.09,137.63-205.45,144.2-7.2,171.58,80.14,249,20.15,193.78-150.1,396-187.29,432-223.59" fill="none" stroke="#2fc1c1" stroke-linecap="round" stroke-linejoin="round" stroke-width="1.88" stroke-dasharray="0 6"/><path d="M88.37,726.16s105.35-170.82,214.09-228c96.72-50.87-35.2-206.46,119.14-219.88,155.4-13.51,172.78,90.63,249.63,26.08C868.13,139,1078.15,121.49,1113.92,92.46" fill="none" stroke="#2fc1c1" stroke-linecap="round" stroke-linejoin="round" stroke-width="1.69" stroke-dasharray="0 6"/><path d="M78.56,733.13s115.63-175,228.77-225.21c102.52-45.49-60.39-215,100.65-234.31,166.55-20,173.93,101.05,250.24,32C858.06,124.8,1076.05,127.21,1111.6,105.46" fill="none" stroke="#2fc1c1" stroke-linecap="round" stroke-linejoin="round" stroke-width="1.5" stroke-dasharray="0 6"/><path d="M68.74,740.1s126-179.05,243.47-222.4c108.34-40-85.63-223.6,82.15-248.73C572,242.36,569.37,380.4,645.21,306.9c202.62-196.39,428.73-174,464.06-188.45" fill="none" stroke="#2fc1c1" stroke-linecap="round" stroke-linejoin="round" stroke-width="1.31" stroke-dasharray="0 6"/><path d="M58.92,747.06s136.33-183,258.16-219.58c114.2-34.34-110.91-232.31,63.66-263.16,188.71-33.35,176,121.77,251.45,43.85C837.43,96.1,1071.84,138.65,1107,131.45" fill="none" stroke="#2fc1c1" stroke-linecap="round" stroke-linejoin="round" stroke-width="1.13" stroke-dasharray="0 6"/><path d="M49.1,754S195.77,567.28,322,537.25c120-28.56-136.24-241.07,45.17-277.57,199.71-40.19,177,132.09,252.06,49.77,207.7-227.84,450.56-165.08,485.45-165" fill="none" stroke="#2fc1c1" stroke-linecap="round" stroke-linejoin="round" stroke-width="0.94" stroke-dasharray="0 6"/><path d="M39.28,761s157-190.43,287.55-214C452.68,524.35,165.2,297.14,353.5,255c210.66-47.11,178,142.4,252.66,55.7,210-243.68,461.48-160.64,496.15-153.29" fill="none" stroke="#2fc1c1" stroke-linecap="round" stroke-linejoin="round" stroke-width="0.75" stroke-dasharray="0 6"/><path d="M29.46,768s167.23-194,302.24-211.16c131.63-16.7-187-258.75,8.18-306.42C561.44,196.28,518.72,403.07,593.15,312,805.33,52.43,1065.53,155.81,1100,170.43" fill="none" stroke="#2fc1c1" stroke-linecap="round" stroke-linejoin="round" stroke-width="0.56" stroke-dasharray="0 6"/><path d="M19.64,774.94S197.08,577.39,336.57,566.59C473.94,556,124.06,298.94,326.26,245.74c232.41-61.16,179.68,163,253.88,67.55,214.21-275.51,483.29-151.76,517.52-129.86" fill="none" stroke="#2fc1c1" stroke-linecap="round" stroke-linejoin="round" stroke-width="0.38" stroke-dasharray="0 6"/><path d="M9.82,781.91s187.58-201,331.63-205.54c143-4.5-238-276.57-28.81-335.28,243.23-68.26,180.49,173.27,254.48,73.48,216.13-291.48,494.21-147.32,528.22-118.15" fill="none" stroke="#2fc1c1" stroke-linecap="round" stroke-linejoin="round" stroke-width="0.19" stroke-dasharray="0 6"/><path d="M0,788.88S197.65,584.46,346.32,586.15,82.78,300.64,299,236.45C553,161,480.29,420,554.11,315.85,772,8.38,1059.23,173,1093,209.42" fill="none"/></svg>