<svg id="Capa_1" data-name="Capa 1" xmlns="http://www.w3.org/2000/svg" viewBox="0 0 490 490"><path d="M407.57,408.89a25.08,25.08,0,0,1-18.87-8.57,25.08,25.08,0,0,1-44-16.53V298.27A21.6,21.6,0,0,1,314,278.69V208.07a41.69,41.69,0,0,1,41.64-41.64h66.18a41.73,41.73,0,0,1,41.65,41.64v70.62a21.61,21.61,0,0,1-30.77,19.58v85.52A25.14,25.14,0,0,1,407.57,408.89Zm-12.64-25.1a12.64,12.64,0,0,0,25.28.56,5.23,5.23,0,0,0,0-.56V228.31a6.23,6.23,0,0,1,12.46,0v50.38a9.16,9.16,0,1,0,18.31.48,3.84,3.84,0,0,0,0-.48V208.07a29.23,29.23,0,0,0-29.19-29.19H355.61a29.22,29.22,0,0,0-29.18,29.19v70.62a9.16,9.16,0,1,0,18.31,0v-50.4a6.23,6.23,0,1,1,12.45,0V383.79a12.65,12.65,0,0,0,25.29,0h0V305.37a6.23,6.23,0,1,1,12.45,0Z" fill="#fff"/><path d="M389.12,178.88h-.88a41.72,41.72,0,0,1-40.83-42.13v-3.22a41.72,41.72,0,0,1,40.91-42.14h.73A41.73,41.73,0,0,1,430,133.53v3.22a41.73,41.73,0,0,1-40.88,42.13Zm-.1-75h-.67a29.24,29.24,0,0,0-28.49,29.69v3.22a29.27,29.27,0,0,0,28.48,29.68H389a29.28,29.28,0,0,0,28.52-29.68v-3.22A29.28,29.28,0,0,0,389,103.84Z" fill="#fff"/><path d="M121.09,408.89a25.08,25.08,0,0,1-18.87-8.57,25.09,25.09,0,0,1-44-16.53V298.27a21.59,21.59,0,0,1-30.76-19.58V208.07a41.69,41.69,0,0,1,41.64-41.64h66.18A41.73,41.73,0,0,1,177,208.07v70.62a21.61,21.61,0,0,1-30.78,19.58v85.52A25.13,25.13,0,0,1,121.09,408.89ZM108.45,305.37v78.42a12.64,12.64,0,0,0,25.28.56v-156a6.23,6.23,0,1,1,12.45,0v50.38a9.16,9.16,0,0,0,18.32.48,3.84,3.84,0,0,0,0-.48V208.07a29.23,29.23,0,0,0-29.19-29.19H69.13a29.23,29.23,0,0,0-29.19,29.19v70.62a9.16,9.16,0,1,0,18.31,0h0V228.31a6.23,6.23,0,1,1,12.46,0V383.79a12.64,12.64,0,0,0,25.28,0V305.37a6.23,6.23,0,0,1,12.46,0Z" fill="#fff"/><path d="M102.63,178.88h-.86a41.72,41.72,0,0,1-40.84-42.13v-3.22a41.73,41.73,0,0,1,40.91-42.14h.73a41.72,41.72,0,0,1,40.94,42.14v3.22a41.72,41.72,0,0,1-40.88,42.13ZM102,166.43h.57a29.27,29.27,0,0,0,28.48-29.68v-3.22a29.28,29.28,0,0,0-28.52-29.69h-.67a29.24,29.24,0,0,0-28.48,29.69v3.22a29.27,29.27,0,0,0,28.48,29.68Z" fill="#fff"/><path d="M319.75,371.84H171.17a6.23,6.23,0,0,1,0-12.46H319.75a6.23,6.23,0,1,1,0,12.46Z" fill="#fff"/><path d="M300,391.63A6.23,6.23,0,0,1,295.55,381l15.39-15.39-15.39-15.39a6.23,6.23,0,0,1,8.81-8.8l19.79,19.78a6.23,6.23,0,0,1,0,8.81l-19.79,19.81A6.25,6.25,0,0,1,300,391.63Z" fill="#fff"/><path d="M191,391.63a6.22,6.22,0,0,1-4.4-1.83L166.77,370a6.23,6.23,0,0,1,0-8.81l19.79-19.78a6.23,6.23,0,0,1,9,8.65l-.15.15L180,365.61,195.37,381A6.24,6.24,0,0,1,191,391.63Z" fill="#fff"/></svg>