<svg xmlns="http://www.w3.org/2000/svg" viewBox="0 0 512 512"><path fill="#2e5a5c" d="M96 277.33a53.34 53.34 0 1053.33 53.34A53.41 53.41 0 0096 277.33zm0 85.34a32 32 0 1132-32 32 32 0 01-32 32zM416 277.33a53.34 53.34 0 1053.33 53.34A53.41 53.41 0 00416 277.33zm0 85.34a32 32 0 1132-32 32 32 0 01-32 32z"/><path fill="#2e5a5c" d="M448 213.33h-18a29.22 29.22 0 01-18.22-6.4l-84.05-67.24A53.63 53.63 0 00294.36 128h-154.2a53.23 53.23 0 00-44.37 23.74L77.63 179a29.2 29.2 0 01-24.3 13A53.41 53.41 0 000 245.33V288a53.4 53.4 0 0053.33 53.33 10.67 10.67 0 100-21.33 32 32 0 01-32-32v-42.67a32 32 0 0132-32 50.43 50.43 0 0042.05-22.5l18.16-27.25a32 32 0 0126.62-14.25h154.2a32.22 32.22 0 0120 7l84.05 67.22A50.58 50.58 0 00430 234.66h18c31.3 0 42.67 31.9 42.67 53.34 0 21-16.09 32-32 32a10.67 10.67 0 100 21.33c30.4 0 53.33-22.93 53.33-53.33 0-36.2-22.42-74.67-64-74.67z"/><path fill="#2e5a5c" d="M373.33 320H138.67a10.67 10.67 0 100 21.33h234.66a10.67 10.67 0 100-21.33zM352 213.33h-96v-32a10.67 10.67 0 00-21.33 0V224a10.67 10.67 0 0010.66 10.67H352a10.67 10.67 0 100-21.34zM202.67 213.33h-68.08l13.63-27.22a10.67 10.67 0 10-19.09-9.53l-21.33 42.66a10.67 10.67 0 009.53 15.43h85.34a10.67 10.67 0 000-21.34zM288 256h-21.33a10.67 10.67 0 100 21.33H288a10.67 10.67 0 100-21.33z"/></svg>