<svg id="Calque_1" data-name="Calque 1" xmlns="http://www.w3.org/2000/svg" viewBox="0 0 279.38 289"><path d="M262.06,129.76H262a14.29,14.29,0,0,0-9.88,2.69,32.08,32.08,0,0,1-18.9,6.52h-11a7.94,7.94,0,0,1-7.86-6.67c-.26-1.7-.58-3.38-1-5a7.26,7.26,0,0,1,5.77-8.74c4-.75,8.57-1.36,11.22-.89a11.87,11.87,0,0,0,6.57-.7,12.72,12.72,0,0,0,1.65-.83,8.91,8.91,0,0,0,3.42-11l-2.25-5.49a8.79,8.79,0,0,0-10.62-5.08l-.09,0a11.86,11.86,0,0,0-6.78,5.25c-1.32,2.19-4.47,4.84-7.49,7.06a7.25,7.25,0,0,1-10.48-2.1c-.91-1.5-1.88-3-2.89-4.39a7.93,7.93,0,0,1,.93-10.16l8.7-8.7a34.81,34.81,0,0,1,17.25-9.11,14.31,14.31,0,0,0,7-3.85,13.81,13.81,0,0,0,1.29-1.48,10.73,10.73,0,0,0-1.14-14l-4.91-4.91a10.76,10.76,0,0,0-14.34-.88l-.09.07a14.23,14.23,0,0,0-5.1,9,31,31,0,0,1-8.45,17.58l-8.1,8.1a7.94,7.94,0,0,1-10.28.84Q182,81.34,179.84,80a7.26,7.26,0,0,1-2.09-10.25c2.29-3.36,5.1-7,7.31-8.57A11.88,11.88,0,0,0,189.21,56a11.52,11.52,0,0,0,.57-1.75,8.88,8.88,0,0,0-5.35-10.2L179,41.77a8.78,8.78,0,0,0-11.11,3.91l0,.08a11.85,11.85,0,0,0-1.09,8.51c.62,2.48.26,6.58-.3,10.28a7.25,7.25,0,0,1-8.91,5.93c-1.69-.41-3.41-.77-5.14-1.06a7.93,7.93,0,0,1-6.52-7.84V49.28a34.93,34.93,0,0,1,5.75-18.65A14.16,14.16,0,0,0,153.82,23a16,16,0,0,0-.13-2A10.74,10.74,0,0,0,143,11.92H136a10.77,10.77,0,0,0-10.77,9.52s0,.07,0,.11a14.29,14.29,0,0,0,2.69,9.88,32.08,32.08,0,0,1,6.52,18.9v11a7.94,7.94,0,0,1-6.67,7.86c-1.7.26-3.38.58-5,1A7.26,7.26,0,0,1,114,64.42c-.75-4-1.36-8.57-.89-11.22a11.87,11.87,0,0,0-.7-6.57,12.91,12.91,0,0,0-.74-1.49,8.9,8.9,0,0,0-11.07-3.59l-5.51,2.26A8.79,8.79,0,0,0,90,54.43l0,.09A11.86,11.86,0,0,0,95.3,61.3c2.19,1.32,4.84,4.47,7.06,7.49a7.25,7.25,0,0,1-2.1,10.48c-1.5.91-3,1.88-4.39,2.89a7.93,7.93,0,0,1-10.16-.93L77,72.53A34.81,34.81,0,0,1,67.9,55.28a14.31,14.31,0,0,0-3.85-7A13.81,13.81,0,0,0,62.57,47a10.73,10.73,0,0,0-14,1.14L43.51,53.2a10.62,10.62,0,0,0-.7,14.25l0,0a14.23,14.23,0,0,0,9,5.1A31,31,0,0,1,69.41,81l8.1,8.1a7.94,7.94,0,0,1,.84,10.28q-1.51,2.07-2.88,4.24a7.26,7.26,0,0,1-10.25,2.09c-3.36-2.29-7-5.1-8.57-7.31a11.88,11.88,0,0,0-5.14-4.15,12.93,12.93,0,0,0-1.76-.58,8.91,8.91,0,0,0-10.19,5.37l-2.29,5.46a8.78,8.78,0,0,0,3.91,11.11l.08,0a11.85,11.85,0,0,0,8.51,1.09c2.48-.62,6.58-.26,10.28.3A7.25,7.25,0,0,1,66,126c-.41,1.69-.77,3.41-1.06,5.14a7.93,7.93,0,0,1-7.84,6.52H44.78a34.93,34.93,0,0,1-18.65-5.75,14.16,14.16,0,0,0-7.65-2.22,16,16,0,0,0-2,.13,10.74,10.74,0,0,0-9.09,10.72v6.94a10.77,10.77,0,0,0,9.52,10.77h.11a14.29,14.29,0,0,0,9.88-2.69A32.08,32.08,0,0,1,45.83,149h11a7.94,7.94,0,0,1,7.86,6.67c.26,1.7.58,3.38,1,5a7.26,7.26,0,0,1-5.77,8.74c-4,.75-8.57,1.36-11.22.89a11.87,11.87,0,0,0-6.57.7,11.62,11.62,0,0,0-1.65.84,8.89,8.89,0,0,0-3.42,11l2.25,5.49a8.78,8.78,0,0,0,10.62,5.08l.09,0a11.86,11.86,0,0,0,6.78-5.25c1.32-2.19,4.47-4.84,7.49-7.06a7.25,7.25,0,0,1,10.48,2.1c.91,1.5,1.88,3,2.89,4.39a7.93,7.93,0,0,1-.93,10.16l-8.7,8.7a34.81,34.81,0,0,1-17.25,9.11,14.31,14.31,0,0,0-7,3.85,13.81,13.81,0,0,0-1.29,1.48,10.73,10.73,0,0,0,1.14,14l5.4,5.41a10.17,10.17,0,0,0,13.68.52l.26-.21a14.23,14.23,0,0,0,5.1-9,31,31,0,0,1,8.45-17.58l8.1-8.1a7.94,7.94,0,0,1,10.28-.84Q97,206.67,99.16,208a7.26,7.26,0,0,1,2.09,10.25c-2.29,3.36-5.1,7-7.31,8.57A11.88,11.88,0,0,0,89.79,232a11.52,11.52,0,0,0-.57,1.75,8.88,8.88,0,0,0,5.35,10.2l5.47,2.29a8.79,8.79,0,0,0,11.11-3.91l0-.08a11.85,11.85,0,0,0,1.09-8.51c-.62-2.48-.26-6.58.3-10.28a7.25,7.25,0,0,1,8.91-5.93c1.69.41,3.41.77,5.14,1.06a7.93,7.93,0,0,1,6.52,7.84v12.3a34.93,34.93,0,0,1-5.75,18.65,14.16,14.16,0,0,0-2.22,7.65,16,16,0,0,0,.13,2A10.74,10.74,0,0,0,136,276.08H143a10.77,10.77,0,0,0,10.77-9.52v-.11a14.29,14.29,0,0,0-2.69-9.88,32.08,32.08,0,0,1-6.52-18.9v-11a7.94,7.94,0,0,1,6.67-7.86c1.7-.26,3.38-.58,5-1a7.26,7.26,0,0,1,8.74,5.77c.75,4,1.36,8.57.89,11.22a11.87,11.87,0,0,0,.7,6.57,12.72,12.72,0,0,0,.83,1.65,8.91,8.91,0,0,0,11,3.42l5.49-2.25A8.79,8.79,0,0,0,189,233.57l0-.09a11.86,11.86,0,0,0-5.25-6.78c-2.19-1.32-4.84-4.47-7.06-7.49a7.25,7.25,0,0,1,2.1-10.48c1.5-.91,3-1.88,4.39-2.89a7.93,7.93,0,0,1,10.16.93l8.7,8.7a34.81,34.81,0,0,1,9.11,17.25,14.31,14.31,0,0,0,3.85,7,13.81,13.81,0,0,0,1.48,1.29,10.73,10.73,0,0,0,14-1.14l5.05-5a10.62,10.62,0,0,0,.7-14.25l0,0a14.23,14.23,0,0,0-9-5.1A31,31,0,0,1,209.59,207l-8.1-8.1a7.94,7.94,0,0,1-.84-10.28q1.51-2.07,2.88-4.24a7.26,7.26,0,0,1,10.25-2.09c3.36,2.29,7,5.1,8.57,7.31a11.88,11.88,0,0,0,5.14,4.15,11.52,11.52,0,0,0,1.75.57,8.88,8.88,0,0,0,10.2-5.35l2.29-5.48a8.78,8.78,0,0,0-3.91-11.1l-.08,0a11.85,11.85,0,0,0-8.51-1.09c-2.48.62-6.58.26-10.28-.3A7.25,7.25,0,0,1,213,162c.41-1.69.77-3.41,1.06-5.14a7.93,7.93,0,0,1,7.84-6.52h12.3a34.93,34.93,0,0,1,18.65,5.75,14.16,14.16,0,0,0,7.65,2.22,16,16,0,0,0,2-.13,10.74,10.74,0,0,0,9.09-10.72v-6.94A10.77,10.77,0,0,0,262.06,129.76Z" fill="#00d9bc"/><path d="M118.89,109.91a8.65,8.65,0,1,1-8.65-8.65A8.66,8.66,0,0,1,118.89,109.91Z" fill="#fff"/><path d="M146.21,176.88a8.65,8.65,0,1,1-8.65-8.65A8.65,8.65,0,0,1,146.21,176.88Z" fill="#fff"/><path d="M152.28,138.67a8.66,8.66,0,1,1-8.66-8.65A8.66,8.66,0,0,1,152.28,138.67Z" fill="#fff"/><path d="M182.75,163.35a8.65,8.65,0,1,1-8.65-8.65A8.65,8.65,0,0,1,182.75,163.35Z" fill="#fff"/><path d="M193.83,131.84a8.66,8.66,0,1,1-8.66-8.65A8.66,8.66,0,0,1,193.83,131.84Z" fill="#fff"/><circle cx="107.92" cy="150.58" r="10.97" fill="#fff"/><path d="M162.08,101.26a11,11,0,1,1-11-11A11,11,0,0,1,162.08,101.26Z" fill="#fff"/></svg>