<svg xmlns="http://www.w3.org/2000/svg" data-name="Capa 1" viewBox="0 0 490 490"><path fill="#fff" d="M202.9 201.43h34.15v19.77a6.47 6.47 0 006.47 6.48h11.25c-5.87 7.47-12.26 17.35-12.26 25a25.9 25.9 0 1051.8 0c0-7.64-6.39-17.52-12.26-25h11.25a6.48 6.48 0 006.47-6.48v-19.77h34.14a22 22 0 0022-22V91a6.47 6.47 0 00-6.47-6.47h-52.73a6.47 6.47 0 100 12.94h46.22v82a9 9 0 01-9 9h-131a9 9 0 01-9-9v-82h44.27a6.47 6.47 0 100-12.94h-50.78A6.46 6.46 0 00181 91v88.5a22 22 0 0022 22zm65.51 64.2a13 13 0 01-13-13c0-4 6.09-13.16 13-21.19 6.87 8 13 17.23 13 21.19a13 13 0 01-13 13zm18.42-64.2v13.3H250v-13.3z"/><path fill="#fff" d="M261.6 93.44a6.47 6.47 0 102.56-8 6.53 6.53 0 00-2.56 8zM385.69 317.7a24 24 0 00-21.91-14 22.63 22.63 0 00-1-2.05 24.57 24.57 0 00-33.78-9.78l-4.45 2.41a24.59 24.59 0 00-33.26-8.89L267 298.58a23 23 0 00-3.63-.31l-56.19-3.56a143.93 143.93 0 00-52.52 6.38l-.45.16L74.22 333a6.49 6.49 0 00-4.08 6v63.29a6.47 6.47 0 008.18 6.24l59.05-16.17L206 411.82a105.91 105.91 0 0083-11.05l87.16-52.3a24 24 0 009.47-30.77zm-50.45-14.49l.12-.06a11.63 11.63 0 0115.77 4.18l-85.84 48.24-32.59-9.05h29.93a24.12 24.12 0 0022.3-14.94l.17-.4c.14-.34.27-.67.39-1zm-37.71-6.47l.12-.06a11.64 11.64 0 0115.52 3.77l-27.24 14.77a24 24 0 00-3-6.38 24.4 24.4 0 00-2.31-2.93zm72 40.63l-87.15 52.3a93 93 0 01-72.86 9.7l-70.39-19.92a6.19 6.19 0 00-1.76-.25 6.64 6.64 0 00-1.71.23l-52.58 14.41v-50.42l75.67-30.06a131.12 131.12 0 0147.6-5.73l56.78 3.58a10.83 10.83 0 0110 15l-.17.4a11.22 11.22 0 01-10.35 7h-77.43a6.47 6.47 0 00-1.73 12.7l80.95 22.47a6.44 6.44 0 004.9-.59l89.07-50.06a11.14 11.14 0 0111.19 19.27zM236.23 130v25.94a6.47 6.47 0 006.47 6.47h6.3v6.27a6.47 6.47 0 006.47 6.47h25.94a6.47 6.47 0 006.47-6.47v-6.28h6.27a6.47 6.47 0 006.47-6.47V130a6.47 6.47 0 00-6.47-6.47h-6.27v-6.27a6.47 6.47 0 00-6.47-6.47h-25.97a6.47 6.47 0 00-6.47 6.47v6.27h-6.27a6.47 6.47 0 00-6.47 6.47zm12.94 6.47h6.27a6.47 6.47 0 006.47-6.47v-6.27h13V130a6.47 6.47 0 006.47 6.47h6.27v13h-6.27a6.47 6.47 0 00-6.47 6.47v6.27h-13v-6.27a6.47 6.47 0 00-6.47-6.47h-6.27z"/></svg>