<svg id="Capa_1" data-name="Capa 1" xmlns="http://www.w3.org/2000/svg" viewBox="0 0 490 490"><path d="M431.27,126.55A39.79,39.79,0,0,0,394,152.66c-34.09-2.34-57.08-15.55-79.39-28.36-21.71-12.46-42.22-24.24-69.56-24.24s-47.85,11.78-69.56,24.24c-22.3,12.81-45.3,26-79.39,28.36a39.73,39.73,0,0,0-77,13.61v26.51A13.41,13.41,0,0,0,20.08,198v0c10.73,24.74,33.21,63.67,58.49,95.64,22.13,28,45.68,50.4,70,66.55,31.14,20.69,63.58,31.18,96.44,31.18s65.31-10.49,96.44-31.18c24.3-16.15,47.85-38.54,70-66.55,24.78-31.34,47.43-70.15,58.48-95.64a13.55,13.55,0,0,0,1.09-5.24V166.27a39.77,39.77,0,0,0-39.73-39.72ZM72,238.23A453.79,453.79,0,0,1,45.49,189.9V166.27a13.24,13.24,0,0,1,26.48,0ZM391.55,276.1C355,322.63,304.38,364.9,245,364.9S134.94,322.62,98.45,276.1V179.05c39.77-2.83,66.41-18.13,90.18-31.78C208,136.15,224.72,126.55,245,126.55s37,9.6,56.37,20.72c23.77,13.65,50.41,28.95,90.18,31.78Zm53-86.2A456.53,456.53,0,0,1,418,238.23v-72a13.25,13.25,0,0,1,26.49,0Zm-173,42.58H258.24V219.24a13.24,13.24,0,0,0-26.48,0v13.24H218.52a13.25,13.25,0,1,0,0,26.49h13.24v13.24a13.24,13.24,0,1,0,26.48,0V259h13.25a13.25,13.25,0,0,0,0-26.49Z" fill="#fff"/></svg>