<svg xmlns="http://www.w3.org/2000/svg" viewBox="0 0 512 512"><path fill="#2e5a5c" d="M336.56 354.47c13.74.07 27.94-3.82 38.45-13 9.78-8.52 14.38-21.72 14.42-34.48s.13-25.6-.1-38.41c-.51-19.78.57-39.65-1-59.4-3.32-39.28-11.35-79.09-31-113.68-5-8.32-10.43-16.5-17.56-23.13-3.31-3-7.28-6-12-5.8q-71.17 0-142.35 0a14.28 14.28 0 00-9.84 3.7c-7.28 6-13 13.54-17.9 21.49-21.11 34.81-29.59 75.63-33.17 115.73-1.09 18-.23 36.12-.65 54.2-.31 15.56 0 31.16-.17 46.73a42.89 42.89 0 006.51 24.22c9.7 15.31 28.54 22.13 46 21.87-18.84 27.91-40.12 57.41-59.17 85.18v5.78h28.93c6.2-7.82 11.3-16.31 17.25-24.3h186l17.3 24.35h28.27l.05-5.58zm-3.22-33.4c-9.6-1.24-18.27-9.8-18-19.77-.75-9.51 6.73-18.26 15.77-20.37 11.67-3.09 24.69 6.81 24.62 18.93 1.18 11.98-10.62 22.71-22.39 21.21zm-186.63-97.2c-.59-6.37-.14-12.75-.37-19.12a186.18 186.18 0 0114.75-79.81c5.43-12.17 12.3-23.9 21.73-33.41 4.17-3.9 9.15-8.08 15.24-7.68q58.53.08 117.09 0c4.59-.28 8.62 2.41 12 5.22 7.42 6.39 13.1 14.52 18.06 22.92 16.61 29.74 22.59 64.54 21.45 98.31-.09 6.34.66 13-2.29 18.9-3.12 7.1-10.51 12.41-18.35 12.43q-89.38 0-178.77 0c-10 .16-19.13-8-20.54-17.76zM312.63 368H197.72l8.66-13.23 98.32-.05zM173 320.69a20.91 20.91 0 01-16-16.62c-1.85-10 5.16-20.44 14.91-23 11.91-3.59 25.34 6.34 25.47 18.77 1.07 12.63-12.1 23.87-24.38 20.85zm2.39 83.57c5.58-8.86 11.86-17.53 17.66-26.23l126-.08c6.31 8.5 12.14 17.33 18.23 26z"/><path fill="#2e5a5c" d="M303.9 130.53h-21l-25.11 29.64-25.53-29.69H211v79.18l23.3-.07v-45.7l22.7 26.83 22.91-26.56v45.54c8 0 16.09 0 24.08 0z"/></svg>