<svg id="Capa_1" data-name="Capa 1" xmlns="http://www.w3.org/2000/svg" viewBox="0 0 490 490"><path d="M397.62,274.33a39.22,39.22,0,0,0-33.14-47.28l-82.86-11a.08.08,0,0,1,0,0l31.91-77.26a39.24,39.24,0,0,0-24.39-52.34,162.07,162.07,0,0,0-98,0,39.24,39.24,0,0,0-24.38,52.34L198.68,216l0,0-82.87,11a39.22,39.22,0,0,0-33.13,47.28,161.86,161.86,0,0,0,49,84.85,39.41,39.41,0,0,0,26.47,10.24c1.15,0,2.3-.05,3.44-.15a39.31,39.31,0,0,0,27.6-15.15l50.94-66.24h.08l50.94,66.24a39.31,39.31,0,0,0,27.6,15.15c1.14.1,2.29.15,3.43.15a39.41,39.41,0,0,0,26.48-10.24,161.86,161.86,0,0,0,49-84.85ZM261.92,240a21.81,21.81,0,0,1-17.77,21.4h0a21.54,21.54,0,0,1-8,0h0A21.77,21.77,0,1,1,261.92,240ZM191.15,118.3a13,13,0,0,1,7.94-7,135.86,135.86,0,0,1,82.1,0,13.11,13.11,0,0,1,8.16,17.47L261.19,197a47.86,47.86,0,0,0-42.11,0l-28.16-68.17A13,13,0,0,1,191.15,118.3Zm-22.7,219.89a13.08,13.08,0,0,1-19.21,1.66,135.73,135.73,0,0,1-41.05-71.09,13.1,13.1,0,0,1,11-15.81l73.13-9.7a47.9,47.9,0,0,0,21,36.46Zm203.64-69.43a135.73,135.73,0,0,1-41,71.09,13.07,13.07,0,0,1-10,3.39,12.93,12.93,0,0,1-9.19-5.05l-45-58.48a47.92,47.92,0,0,0,21.05-36.46l73.13,9.7a12.92,12.92,0,0,1,9,5.44A13.06,13.06,0,0,1,372.09,268.76Zm68.39,158.49H419.76l-32.59-32.59q1.95-1.86,3.87-3.78A213.41,213.41,0,1,0,89.23,89.07a213.43,213.43,0,0,0,0,301.81c1.28,1.28,2.58,2.53,3.88,3.78l-32.6,32.59H39.79a13.07,13.07,0,0,0,0,26.13H92.06a13.06,13.06,0,0,0,4.57-25.29l16.54-16.54a213.62,213.62,0,0,0,253.94,0l16.54,16.54a13.06,13.06,0,0,0,4.57,25.29h52.26a13.07,13.07,0,1,0,0-26.13ZM52.86,240c0-103.26,84-187.28,187.28-187.28s187.28,84,187.28,187.28-84,187.28-187.28,187.28S52.86,343.24,52.86,240Z" fill="#fff"/></svg>