<svg xmlns="http://www.w3.org/2000/svg" data-name="Capa 1" viewBox="0 0 490 490"><path fill="#fff" d="M397.62 274.33a39.22 39.22 0 00-33.14-47.28l-82.86-11 31.91-77.26a39.24 39.24 0 00-24.39-52.34 162.07 162.07 0 00-98 0 39.24 39.24 0 00-24.38 52.34L198.68 216l-82.87 11a39.22 39.22 0 00-33.13 47.28 161.86 161.86 0 0049 84.85 39.41 39.41 0 0026.47 10.24c1.15 0 2.3-.05 3.44-.15a39.31 39.31 0 0027.6-15.15l50.94-66.24h.08l50.94 66.24a39.31 39.31 0 0027.6 15.15c1.14.1 2.29.15 3.43.15a39.41 39.41 0 0026.48-10.24 161.86 161.86 0 0049-84.85zM261.92 240a21.81 21.81 0 01-17.77 21.4 21.54 21.54 0 01-8 0 21.77 21.77 0 1125.77-21.4zm-70.77-121.7a13 13 0 017.94-7 135.86 135.86 0 0182.1 0 13.11 13.11 0 018.16 17.47L261.19 197a47.86 47.86 0 00-42.11 0l-28.16-68.17a13 13 0 01.23-10.53zm-22.7 219.89a13.08 13.08 0 01-19.21 1.66 135.73 135.73 0 01-41.05-71.09 13.1 13.1 0 0111-15.81l73.13-9.7a47.9 47.9 0 0021 36.46zm203.64-69.43a135.73 135.73 0 01-41 71.09 13.07 13.07 0 01-10 3.39 12.93 12.93 0 01-9.19-5.05l-45-58.48a47.92 47.92 0 0021.05-36.46l73.13 9.7a12.92 12.92 0 019 5.44 13.06 13.06 0 012.01 10.37zm68.39 158.49h-20.72l-32.59-32.59q1.95-1.86 3.87-3.78A213.41 213.41 0 1089.23 89.07a213.43 213.43 0 000 301.81c1.28 1.28 2.58 2.53 3.88 3.78l-32.6 32.59H39.79a13.07 13.07 0 000 26.13h52.27a13.06 13.06 0 004.57-25.29l16.54-16.54a213.62 213.62 0 00253.94 0l16.54 16.54a13.06 13.06 0 004.57 25.29h52.26a13.07 13.07 0 100-26.13zM52.86 240c0-103.26 84-187.28 187.28-187.28s187.28 84 187.28 187.28-84 187.28-187.28 187.28S52.86 343.24 52.86 240z"/></svg>