<?xml version="1.0" encoding="UTF-8"?><svg id="Calque_1" xmlns="http://www.w3.org/2000/svg" viewBox="0 0 302.1 335.3"><defs><style>.cls-1{fill:#f7fcfc;}.cls-2{fill:#052d2d;}.cls-3,.cls-4{fill:#fff;}.cls-5,.cls-6{fill:#332e27;}.cls-7{fill:#070707;}.cls-8{fill:#0e5656;}.cls-9,.cls-10{fill:#1d1e1c;}.cls-11{fill:#197175;}.cls-12{fill:#595147;}.cls-13{fill:#38a9b4;}.cls-6,.cls-10{isolation:isolate;opacity:.2;}.cls-4{opacity:.41;}</style></defs><ellipse class="cls-4" cx="116" cy="288.4" rx="116" ry="46.9"/><path class="cls-3" d="m69.7,250.3c-.2,7.2-5.1,12.8-11.2,12.7-6.1-.1-10.9-6-10.7-13.2.2-7.2,4.1-11,10.2-10.9,6.1.1,11.9,4.2,11.7,11.4Z"/><path d="m57.6,238.2c-3.2,0-6.2,1.4-8.5,4s-2.4,4.1-2.5,7.8,1,7.1,3.2,9.8,5.1,4.1,8.3,4.2c1.4,0,2.7-.2,3.9-.7,4.6-1.8,8-6.8,8.1-12.8.2-7.8-6.1-12.2-12.5-12.3Zm.5,24.1c-5.7-.1-10.2-5.6-10-12.4.1-3.3,0-4.4,2.1-6.7,1.2-1.3,2.6-2.3,4-2.9,1.1-.4,2.2-.6,3.3-.6,2.7,0,5.2,1.4,7,3.7,1.8,2.4,4,3.5,3.9,6.8,0,7-4.6,12.2-10.3,12.1Z"/><path class="cls-9" d="m57.9,253.9c1.2,3.1.5,5.9-1.6,6.3s-4.7-1.8-5.9-4.9c-1.2-3.1-.5-5.9,1.6-6.3s4.7,1.8,5.9,4.9Z"/><path class="cls-3" d="m56.5,256c.4.8-.1,1.7-1,1.9-.9.2-1.9-.4-2.3-1.2-.4-.8.1-1.7,1-1.9s2,.3,2.3,1.2Z"/><path class="cls-3" d="m79.5,251.7c-.2,6-4.6,10.9-9.9,10.8s-9.4-5-9.3-11.1c.2-6,3.8-9.7,9.1-9.6s10.3,3.8,10.1,9.9Z"/><path d="m69.1,241.1c-2.8,0-5.4,1.2-7.5,3.4-2,2.2-2.4,3.9-2.5,7.1-.1,3.1.9,6.1,2.8,8.3,1.9,2.3,4.5,3.5,7.3,3.6,1.2,0,2.4-.2,3.5-.6,4.1-1.6,7.1-5.9,7.2-11,.2-6.6-5-10.7-10.8-10.8Zm9.3,10.7c-.1,4.4-2.7,8.1-6.2,9.5-.9.4-1.9.5-2.9.5-2.3,0-4.5-1.1-6.1-3s-2.5-4.5-2.4-7.2c.1-4.4,1.9-6.9,5.4-8.2.9-.4,1.9-.5,2.9-.5,2.3,0,5,1,6.6,2.9,1.6,1.8,2.7,3.3,2.7,6Z"/><path class="cls-9" d="m69.5,255c1.2,2.5.6,4.9-1.2,5.4-1.9.4-4.3-1.3-5.5-3.9-1.2-2.5-.6-4.9,1.2-5.4,1.9-.4,4.4,1.4,5.5,3.9Z"/><path class="cls-3" d="m68,256.5c.3.7-.1,1.5-.9,1.6-.8.2-1.7-.3-2-1s.1-1.5.9-1.6,1.7.3,2,1Z"/><ellipse class="cls-10" cx="29.9" cy="311.79" rx="6.3" ry="1.7" transform="translate(-5.71 .6) rotate(-1.05)"/><polygon class="cls-9" points="41.3 294.3 39.8 294.4 29.1 260.7 42.2 265.8 41.2 266.8 30.9 263.3 41.3 294.3"/><polygon class="cls-9" points="36.4 305 35.8 307.4 21.2 261.2 43.4 270 42.1 271.1 23.3 263.5 36.4 305"/><polygon class="cls-9" points="52.7 311.5 29.7 275.9 49 277.5 49.6 278.8 32.8 277.6 54.7 311.4 52.7 311.5"/><polyline class="cls-9" points="56.7 266.2 57.5 288.2 55.8 288 54.6 264.8"/><path class="cls-9" d="m55.7,287.8s-1.9-3.3-3.9-1.1-.8,5.1-.8,5.1c0,0,.7.9,3,1s2.8-.1,3.2-.8c.4-.7.3-3.9.3-3.9l-1.8-.3Z"/><path class="cls-9" d="m35.8,307.2c.6.9-4-4.6-6.7-2.1-3.3,3-1.3,7-1.3,7,0,0,1.1,1,4.8.9,4.8-.1,4.4-1.3,4.7-2.6.5-2.1-1.3-6.4-1.3-6.4l-.2,3.2Z"/><path class="cls-9" d="m39.8,293.7s-.9-3.1-3.1-1.1c-1.3,1.2-1.3,2.6-1.2,3.6.1.8.7,1.4,1.5,1.5.5.1,1.1.2,2,.2,3.2-.2,2.7-1.2,2.7-1.7,0-2.7-1-4.3-1-4.3l-.9,1.8Z"/><path class="cls-9" d="m52.6,311.2s-2.9-4.8-6.2-1.8c-3.3,3-.8,6.8-.8,6.8,0,0,1.1,1.2,4.9,1.1,4.9-.1,5.3-2.6,4.9-3.8-1.3-4.3-2.1-2.3-2-2.4l-.8.1Z"/><polygon class="cls-9" points="84.7 293.5 86.5 293.5 91.4 262.8 71.3 274 71.7 276.5 89.2 265.9 84.7 293.5"/><polygon class="cls-9" points="84.4 303.6 85.9 305.2 94.2 282.6 70.7 276.9 69.1 279 91.4 283.9 84.4 303.6"/><polygon class="cls-9" points="64.2 311.8 67.3 286.6 57.3 279.1 56.8 281.1 65.3 288.1 62.4 311.8 64.2 311.8"/><polyline class="cls-9" points="68.2 267.7 68.3 288.8 69.9 289.4 70.3 266.2"/><path class="cls-9" d="m70,289.2s1.5-3.4,3.6-1.3,1,5,1,5c0,0-.7.9-2.9,1.1-2.3.1-2.8.1-3.2-.6-.4-.7-.1-5.9-.1-5.9l1.6,1.7Z"/><path class="cls-9" d="m86.1,304.9s2.7-5.5,6.1-2.6c1.9,1.6,2.1,3.7,2,5.1-.1,1.3-1.1,2.4-2.4,2.7-.7.2-1.6.3-2.8.3-4.8.1-4.7-1.7-5.1-2.9-.6-2.1.6-4.2.6-4.2l1.6,1.6Z"/><path class="cls-9" d="m86.4,293.1s1.6-3.9,3.8-2c1.3,1.1,1.4,2.4,1.3,3.4-.1.9-.7,1.6-1.6,1.8-.5.1-1.1.2-1.9.2-3.2.1-3.3-.7-3.6-1.5-.4-1.4.9-4.9.9-4.9l1.1,3Z"/><path class="cls-9" d="m64.4,310.2s2.5-4.6,5.9-1.7c3.5,2.9,1.6,7,1.6,7,0,0-1.1,1.2-4.9,1.3-4.9.1-5.2-2.4-5.1-3.7.7-5.4,1.6-4.1,1.6-4.1l.9,1.2Z"/><path class="cls-13" d="m70.6,246.2c12.1,8.8,11.7,15.6,3.8,26.5-6.2,8.6-16.2,11.3-26,4.1s-8.5-16.2-2.3-24.7c6.2-8.6,14.6-13,24.5-5.9Z"/><path class="cls-9" d="m75.1,273.5c-3.3,4.5-7.5,7.4-12.2,8.3-5,1-10.3-.4-15.2-4-9.2-6.7-10.1-15.7-2.6-26,7.6-10.5,16.8-12.6,25.9-6,4.9,3.6,9.3,8,9.9,13.2.4,4.7-2.6,10-5.8,14.5Zm-28.4-20.6c-6.9,9.5-6.2,17.4,2,23.4,8.8,6.4,18.3,4.8,24.7-4,8.2-11.3,7.4-17.2-3.5-25.1-10.3-7.5-18.3-1-23.2,5.7Z"/><ellipse class="cls-10" cx="48.4" cy="315.99" rx="7" ry="2.2" transform="translate(-5.79 .94) rotate(-1.05)"/><ellipse class="cls-10" cx="37.7" cy="296.19" rx="4.1" ry="1.8" transform="translate(-5.43 .74) rotate(-1.05)"/><ellipse class="cls-10" cx="52.9" cy="291.19" rx="4.6" ry="1.8" transform="translate(-5.33 1.02) rotate(-1.05)"/><ellipse class="cls-10" cx="93.3" cy="309.09" rx="6.3" ry="1.7" transform="translate(-5.65 1.76) rotate(-1.05)"/><ellipse class="cls-10" cx="71.6" cy="315.29" rx="7" ry="2.2" transform="translate(-5.77 1.37) rotate(-1.05)"/><ellipse class="cls-10" cx="91.1" cy="294.99" rx="4.1" ry="1.8" transform="translate(-5.4 1.72) rotate(-1.05)"/><ellipse class="cls-10" cx="74.9" cy="292.69" rx="4.6" ry="1.8" transform="translate(-5.36 1.42) rotate(-1.05)"/><rect class="cls-7" x="55.47" y="269.99" width=".9" height="5.5" transform="translate(-201.59 166.89) rotate(-56.07)"/><rect class="cls-7" x="53.15" y="272.28" width="5.5" height=".9" transform="translate(-94.26 38.3) rotate(-21.06)"/><path class="cls-2" d="m64,216.1c0-1.7.3-2.9.9-3.8.6-.8,1.7-1.8,3.2-2.9.8-.5,1.4-1.1,1.9-1.9.5-.7.7-1.6.7-2.6s-.3-1.8-.8-2.4c-.5-.6-1.3-.9-2.3-.9-.8,0-1.5.2-2,.7s-.8,1.2-.9,2.2h-6v-.1c0-2.5.8-4.4,2.4-5.7s3.8-1.9,6.5-1.9c2.9,0,5.1.7,6.8,2.2s2.5,3.4,2.5,5.9c0,1.5-.5,2.9-1.4,4.2s-2,2.3-3.4,3c-.8.5-1.3,1.1-1.6,1.6-.3.6-.4,1.4-.4,2.4h-6.1Zm6.1,7.6h-6.1v-4.9h6.1v4.9Z"/><path class="cls-2" d="m85.8,226.5c.4-1.1,1-1.9,1.6-2.4.6-.4,1.6-.8,3-1.2.7-.1,1.3-.4,1.8-.8.5-.4.9-.9,1.2-1.6.3-.7.3-1.3.1-1.9-.2-.6-.7-1-1.4-1.2-.6-.2-1.1-.2-1.6,0s-.9.6-1.2,1.3l-4.1-1.6v-.1c.6-1.7,1.7-2.8,3.1-3.3,1.4-.4,3.1-.3,4.9.4,2,.7,3.3,1.8,4.1,3.3.8,1.4.8,3,.2,4.7-.4,1-1.1,1.9-2,2.5s-2,1-3.1,1.2c-.7.1-1.2.4-1.5.7s-.6.8-.9,1.5l-4.2-1.5Zm2.2,6.8l-4.2-1.6,1.3-3.4,4.2,1.6-1.3,3.4Z"/><path class="cls-2" d="m48.2,229.9c-.5-.7-.8-1.4-.8-1.9s.1-1.3.5-2.3c.2-.5.3-.9.2-1.4,0-.5-.2-.9-.5-1.3-.3-.4-.7-.7-1.1-.8s-.8,0-1.3.3c-.3.3-.6.6-.6,1-.1.4,0,.8.3,1.2l-2.5,1.9h0c-.8-1.1-1.1-2.1-.8-3.2.3-1.1,1-2,2.2-2.8,1.2-.9,2.4-1.3,3.6-1.2s2.1.7,2.9,1.7c.5.6.7,1.4.7,2.2s-.2,1.6-.5,2.4c-.2.5-.2.9-.2,1.2.1.3.3.7.6,1.1l-2.7,1.9Zm5,1.3l-2.6,1.9-1.5-2.1,2.6-1.9,1.5,2.1Z"/><polygon class="cls-11" points="119.9 81.9 119.9 107.8 187.9 147.8 200.2 141.8 190 121.9 119.9 81.9"/><polygon class="cls-2" points="123.7 79 193 119.3 204 139.7 200.2 141.8 190 121.9 119.9 81.9 123.7 79"/><polygon class="cls-11" points="125.9 44.1 125.9 68.8 196.4 28.4 206.1 10.2 194.7 3.4 125.9 44.1"/><polygon class="cls-2" points="190.8 0 122.9 39.9 125.9 44.1 194.7 3.4 190.8 0"/><polygon class="cls-11" points="33.7 39.5 44.3 34 114.4 73 114.8 97.6 44.3 58.6 33.7 39.5"/><polygon class="cls-2" points="50.3 29.7 116.5 68.3 118.6 71.7 114.4 73 44.3 34 50.3 29.7"/><polygon class="cls-11" points="119.9 118.5 49.9 158.4 40.1 176.6 51.1 184.3 121.2 143.5 119.9 118.5"/><polygon class="cls-2" points="45.6 155.4 35 173.7 40.1 176.6 49.9 158.4 119.9 118.5 116.5 115.1 45.6 155.4"/><polygon class="cls-8" points="114.4 73 114.8 97.6 119.5 95.5 118.6 71.7 114.4 73"/><polygon class="cls-8" points="122.9 39.9 125.9 44.1 125.9 68.8 119.9 66.6 122.9 39.9"/><path class="cls-5" d="m124.1,303h0c-2.5,1-5.3,1.1-7.8.1l-.2-.1V31h8v272Z"/><polygon class="cls-6" points="121.2 286.2 169.6 218.3 110.6 232.7 97.4 236.1 88.5 231.4 102.9 221.6 180.6 202.5 187 191.5 126.3 164.3 150.1 156.3 197.2 177.5 219.3 149.5 222.7 150.7 219.7 158.8 289.8 141.4 302.1 144.8 287.7 155.4 207 177.1 203.2 182.2 250.3 203.8 252.4 214 236.3 219.5 190.4 199.6 123.3 293.4 121.2 286.2"/><path class="cls-5" d="m116.1,31c0-1.2,1.8-2.2,4-2.2s4,1,4,2.2"/><ellipse class="cls-12" cx="120.2" cy="31.1" rx="3.4" ry="1.8"/><path class="cls-3" d="m52.5,51.8h0l2.7-5.8,1.2.7-4.3,9-1.2-.8,1-6.6h0l-2.9,5.5-1.2-.7,2-10.1,1.2.7-1.4,6.5h0l3-5.6.9.5-1,6.7Z"/><path class="cls-3" d="m56.4,53.7l-1.1,4-1.4-.8,3-9.9,2.2,1.2c.7.4,1.1.9,1.4,1.7.3.7.3,1.6,0,2.5-.1.5-.3.9-.6,1.2-.3.3-.6.5-1,.5.3.4.5.8.5,1.4,0,.5,0,1.1-.2,1.7l-.2.7c-.1.3-.1.6-.2,1v1l-1.4-.9c-.1-.2-.1-.5,0-.9s.2-.8.2-1.1l.2-.6c.1-.5.2-.9.1-1.3-.1-.3-.3-.6-.5-.8l-1-.6Zm.6-1.8l.9.5c.3.2.5.2.7,0,.2-.1.4-.4.5-.8.1-.4.1-.8,0-1.1s-.2-.6-.5-.7l-.9-.5-.7,2.6Z"/><path class="cls-3" d="m65.7,58.8c-.3,1.3-.8,2.3-1.5,2.9s-1.4.7-2.2.2c-.8-.5-1.3-1.3-1.6-2.5-.3-1.1-.2-2.4.1-3.7l.5-1.9c.3-1.2.8-2.1,1.5-2.7.7-.5,1.4-.6,2.1-.2.7.4,1.3,1.2,1.5,2.2.3,1.1.3,2.3,0,3.6l-.4,2.1Zm-1-2.8c.2-.7.2-1.4.1-2s-.3-1-.7-1.2c-.4-.2-.7-.1-1,.2s-.6.9-.7,1.6l-.5,1.9c-.2.8-.2,1.5-.2,2.1.1.6.3,1,.7,1.3.4.2.7.2,1.1-.2.3-.4.6-1,.8-1.7l.4-2Z"/><path class="cls-3" d="m71,67.2l-1.5-.9-1-8.6h0l-1.5,7.1-1.5-.9,2.4-10.8,1.4.8.9,8.2h0l1.4-6.9,1.5.8-2.1,11.2Z"/><path class="cls-3" d="m77.7,69.4c-.3.4-.7.6-1.2.7s-1.1,0-1.8-.5c-.8-.5-1.5-1.4-1.8-2.6-.4-1.2-.4-2.5-.1-3.9l.4-2.3c.2-1.3.7-2.3,1.3-2.8.6-.5,1.3-.6,2.1-.2.8.5,1.4,1.1,1.7,2,.3.9.4,1.9.3,3.1h0l-1.5-.8c0-.6,0-1.1-.1-1.5s-.4-.7-.7-.9c-.4-.2-.7-.1-1,.2-.3.3-.5.9-.6,1.7l-.4,2.4c-.1.8-.1,1.5,0,2.2.1.6.4,1.1.8,1.3.3.2.5.3.7.3s.3,0,.4-.1l.3-1.9-1.1-.6.3-1.8,2.6,1.5-.6,4.5Z"/><path class="cls-3" d="m87.3,72.4h0l1.7-7.4,1.6.9-2.8,11.6-1.6-1-.4-8.5h0l-2.1,7-1.6-1-.1-12.9,1.5.9v8.3h0l2.1-7.1,1.1.6.6,8.6Z"/><path class="cls-3" d="m94.4,78.7l-2.5-1.5-.6,2.4-1.8-1.1,3.4-11.3,1.8,1,1.8,14.6-1.9-1.1-.2-3Zm-1.9-3.6l1.6,1-.5-5.1h0l-1.1,4.1Z"/><path class="cls-3" d="m99.5,76.6h0l1.8-4.8,2,1.1-2.9,7.1-.1,5-1.9-1.2.2-5.1-2.2-9.7,1.9,1.1,1.2,6.5Z"/><path class="cls-3" d="m59,174.8l-1.3-15.9,3.9-2c1.4-.7,2.5-.9,3.3-.6.8.3,1.3,1.1,1.4,2.5.1.7,0,1.4-.2,2.1-.2.7-.5,1.3-1,1.9.7-.2,1.2,0,1.5.4.4.4.6,1.1.6,1.9.1,1.5-.1,2.8-.7,4s-1.6,2.2-3,3l-4.5,2.7Zm1.8-10.8l1.3-.7c.6-.3,1-.7,1.3-1.2s.4-1,.3-1.5c-.1-.7-.2-1-.6-1.2-.3-.1-.8,0-1.4.3l-1.2.7.3,3.6Zm.3,2.4l.3,4,1.8-1.1c.5-.3.9-.7,1.2-1.2.2-.5.3-1,.3-1.6-.1-.7-.2-1.1-.5-1.3s-.7-.2-1.2.1l-1.9,1.1Z"/><path class="cls-3" d="m74.2,162.6l-3.2,1.9-.3,3.3-2.5,1.5,1.9-16.9,2.5-1.3,4.7,12.7-2.3,1.4-.8-2.6Zm-3-1.1l2.1-1.2-1.6-4.7h0l-.5,5.9Z"/><path class="cls-3" d="m78,163.4l-1.5-14.3,3.4-1.8c1.1-.6,2-.5,2.9.2.8.7,1.3,1.8,1.5,3.4l.3,2.5c.2,1.7,0,3.2-.6,4.7s-1.4,2.6-2.5,3.2l-3.5,2.1Zm.9-13l1,9.1,1.1-.6c.6-.3,1-.9,1.2-1.7s.3-1.6.2-2.6l-.3-2.5c-.1-1-.4-1.6-.7-2-.4-.4-.9-.5-1.4-.2l-1.1.5Z"/><path class="cls-3" d="m95.5,148.1h0v-8.9l1.7-.9-.1,13.6-1.7,1-2.4-7.2h0l-.3,8.9-1.8,1.1-3.6-12.2,1.9-1,2.2,8h0l.4-9.3,1.3-.7,2.4,7.6Z"/><path class="cls-3" d="m102.9,145.8l-2.3,1.4-.1,2.7-1.8,1.1.7-13.8,1.8-1,4,10.8-1.7,1-.6-2.2Zm-2.3-1.1l1.6-.9-1.4-4h0l-.2,4.9Z"/><path class="cls-3" d="m106.7,138.8h0l.6-5.8,1.7-.9-1.1,8.8.6,4.2-1.6,1-.6-4.4-3.4-6.3,1.8-.9,2,4.3Z"/><path class="cls-1" d="m143.4,48.8h0l1.2-8.2,2.2-1.3-1.9,12.7-2.2,1.3-1.8-6.2h0l-1.6,8.3-2.3,1.3-2.3-10.4,2.3-1.3,1.3,6.8h0l1.7-8.6,1.6-.9,1.8,6.5Z"/><path class="cls-1" d="m152.8,45l-3.1,1.8-.5,2.6-2.3,1.4,2.7-13.1,2.4-1.4,3.7,9.2-2.3,1.4-.6-1.9Zm-2.7-.5l2.1-1.2-1.2-3.4h0l-.9,4.6Z"/><path class="cls-1" d="m158.5,37.4h0l1.5-5.7,2.3-1.3-2.6,8.7.3,3.9-2.2,1.3-.3-4-3.6-5,2.3-1.3,2.3,3.4Z"/><path class="cls-1" d="m174.2,29.8c.2,1.3,0,2.5-.6,3.8s-1.5,2.2-2.6,2.9c-1.2.7-2.2.8-3,.4-.8-.4-1.3-1.3-1.4-2.6l-.2-1.9c-.1-1.3.1-2.5.7-3.7.6-1.2,1.5-2.1,2.6-2.8,1.1-.6,2.1-.8,2.8-.4.8.4,1.3,1.2,1.4,2.4l.3,1.9Zm-2.3-.6c-.1-.7-.3-1.2-.7-1.5s-.8-.3-1.3,0c-.6.3-1,.8-1.2,1.4-.2.6-.3,1.3-.2,2.1l.2,1.9c.1.8.3,1.3.7,1.6s.8.3,1.4-.1c.6-.3,1-.8,1.2-1.5s.3-1.4.2-2.1l-.3-1.8Z"/><path class="cls-1" d="m181,26l-3.5,2.1.6,4.1-2.1,1.2-1.4-10.1,6-3.5.3,1.7-4,2.3.4,2.4,3.5-2,.2,1.8Z"/><path class="cls-1" d="m187.9,21.9l-3.4,2,.7,4-2,1.2-1.7-9.8,5.9-3.4.3,1.7-3.9,2.3.4,2.3,3.4-2,.3,1.7Z"/><path class="cls-1" d="m138.1,110.8l-1.4-.9-2.2-7.4h0l.1,6.1-1.3-.8-.1-9.5,1.4.7,2.2,7.4h0v-6.2l1.4.8-.1,9.8Z"/><path class="cls-1" d="m144.5,110.5c0,1.3-.3,2.1-.8,2.6s-1.2.5-2.1,0c-.8-.5-1.5-1.3-2-2.4s-.8-2.2-.8-3.4v-1.8c0-1.2.2-2.1.7-2.6s1.2-.6,2-.2,1.5,1.2,2.1,2.3c.5,1.1.8,2.3.8,3.6l.1,1.9Zm-1.6-2.8c0-.7-.1-1.4-.3-2s-.5-1-1-1.2c-.4-.2-.7-.2-.9.2-.2.3-.3.9-.3,1.6v1.8c0,.7.1,1.4.3,2s.5,1,.9,1.2.7.2.9-.1c.2-.3.3-.9.3-1.6l.1-1.9Z"/><path class="cls-1" d="m154.1,116.7h0l1.2-6.7,1.9,1-2.1,10.1-1.8-1.1-1.2-7.5h0l-1.4,5.9-1.6-1-1.6-11.6,1.7.9.9,7.6h0l1.4-6.4,1.3.7,1.3,8.1Z"/><path class="cls-1" d="m162.2,123.2l-2.8-1.6-.5,1.9-2-1.2,3-9.8,2.2,1.2,2.6,13.4-2.1-1.3-.4-2.6Zm-2.3-3.5l1.9,1.1-.8-4.7h0l-1.1,3.6Z"/><path class="cls-1" d="m168.2,122.2h0l2.2-4.3,2.6,1.4-3.8,6.1-.2,4.2-2.3-1.4.1-4.3-2.9-9.4,2.4,1.3,1.9,6.4Z"/></svg>
