<?xml version="1.0" encoding="utf-8"?>
<!-- Generator: Adobe Illustrator 27.2.0, SVG Export Plug-In . SVG Version: 6.00 Build 0)  -->
<svg version="1.1" id="Calque_1" xmlns="http://www.w3.org/2000/svg" xmlns:xlink="http://www.w3.org/1999/xlink" x="0px" y="0px"
	 viewBox="0 0 641.6 466.1" style="enable-background:new 0 0 641.6 466.1;" xml:space="preserve">
<style type="text/css">
	.st0{fill:url(#SVGID_1_);}
	.st1{opacity:0.2;fill:#42A6AB;}
	.st2{fill:#FFFFFF;}
	.st3{fill:#3A3A3A;}
	.st4{fill:#42A6AB;}
	.st5{fill:#E6E6E6;}
	.st6{fill:#808080;}
	.st7{fill:#CACACA;}
	.st8{fill:#383838;}
	.st9{fill:#67B5CC;}
	.st10{fill:#C4C4C4;}
	.st11{opacity:5.000000e-02;}
	.st12{fill:#EDEDED;}
	.st13{fill:#060300;}
	.st14{fill:#1E1E19;}
	.st15{opacity:0.2;fill:#1E1E19;enable-background:new    ;}
	.st16{fill:#0B0700;}
</style>
<g>
	<g id="a">
	</g>
	<g id="b">
		<g>
			
				<radialGradient id="SVGID_1_" cx="-452.3531" cy="-1577.79" r="112.4" gradientTransform="matrix(2.85 0 0 -0.32 1612.0699 -78)" gradientUnits="userSpaceOnUse">
				<stop  offset="0" style="stop-color:#100B30;stop-opacity:0.2"/>
				<stop  offset="0.28" style="stop-color:#09061C;stop-opacity:0.12"/>
				<stop  offset="1" style="stop-color:#000000;stop-opacity:0"/>
			</radialGradient>
			<ellipse class="st0" cx="320.8" cy="421.2" rx="320.8" ry="35.6"/>
			<path class="st1" d="M567.7,191.3l-6-1.9c0.1-2.3,0.1-4.6-0.2-7c-0.2-2.2-0.6-4.4-1.1-6.5l5.6-2.9c1.2-0.6,1.7-2.1,1-3.3
				l-9.2-17.4c-0.6-1.2-2.1-1.7-3.3-1l-5.5,2.9c-3-3.3-6.4-6.2-10.2-8.6l1.9-5.8c0.4-1.3-0.3-2.7-1.6-3.1l-18.7-6
				c-1.3-0.4-2.7,0.3-3.1,1.6l-1.9,5.8c-2.5-0.1-5-0.1-7.5,0.1c-2.3,0.2-4.5,0.6-6.7,1.1l-3.1-5.7c-0.6-1.2-2.1-1.6-3.3-1l-17.3,9.3
				c-1.2,0.6-1.6,2.1-1,3.3l2.9,5.5c-3.4,3.1-6.3,6.6-8.7,10.4l-6.3-1.9c-1.3-0.4-2.7,0.3-3.1,1.6l-5.8,18.8
				c-0.4,1.3,0.3,2.7,1.6,3.1l6.2,1.9c-0.1,2.3-0.1,4.7,0.1,7c0.2,2,0.5,4,0.9,5.9l-6,3.2c-1.2,0.6-1.7,2.1-1,3.3l9.2,17.4
				c0.6,1.2,2.1,1.7,3.3,1l5.6-3c3.1,3.6,6.8,6.7,10.8,9.2l-2,6.3c-0.4,1.3,0.3,2.7,1.6,3.1l18.7,6c1.3,0.4,2.7-0.3,3.1-1.6l2.1-6.4
				c2.4,0.1,4.8,0.1,7.2-0.1c2.2-0.2,4.3-0.6,6.3-1l3.1,5.8c0.7,1.2,2.1,1.6,3.3,1l17.3-9.3c1.2-0.6,1.7-2.1,1-3.3l-2.9-5.4
				c3.5-3.1,6.5-6.8,9-10.7l6.2,1.9c0.2,0.1,0.3,0.1,0.5,0.1c1.2,0.1,2.3-0.6,2.6-1.7l1.1-3.6l4.7-15.2
				C569.8,193.1,569.1,191.7,567.7,191.3L567.7,191.3z M510.5,166.4c11.5-1.1,21.6,7.4,22.7,18.9c1.1,11.5-7.4,21.6-18.8,22.6
				c-11.5,1.1-21.6-7.4-22.7-18.9C490.6,177.6,499,167.4,510.5,166.4z"/>
			<path class="st1" d="M400.8,97.5l-9.7-3c0.2-3.7,0.1-7.4-0.2-11.2c-0.3-3.6-0.9-7.1-1.7-10.5l9-4.7c1.9-1,2.7-3.4,1.6-5.3
				L385.1,35c-1-1.9-3.4-2.7-5.3-1.7l-8.8,4.6c-4.8-5.3-10.3-9.9-16.3-13.8l3-9.4c0.7-2.1-0.5-4.3-2.5-5l-29.9-9.7
				c-2.1-0.7-4.3,0.5-5,2.5l-3,9.3c-3.9-0.2-7.9-0.2-12,0.2c-3.7,0.3-7.3,0.9-10.8,1.8l-4.9-9.1c-1-1.9-3.4-2.6-5.4-1.6l-27.7,14.9
				c-1.9,1-2.6,3.4-1.6,5.4l4.7,8.7c-5.4,4.9-10.1,10.5-14,16.7l-10.1-3.1c-2.1-0.6-4.3,0.5-4.9,2.6l-9.3,30.1
				c-0.6,2.1,0.5,4.3,2.6,4.9l9.9,3.1c-0.2,3.7-0.1,7.5,0.2,11.2c0.3,3.2,0.8,6.4,1.5,9.5l-9.6,5.1c-1.9,1-2.7,3.4-1.6,5.3
				l14.7,27.8c1,1.9,3.4,2.7,5.3,1.6l9-4.7c5,5.7,10.9,10.7,17.3,14.8l-3.3,10.1c-0.7,2.1,0.5,4.3,2.5,5l30,9.7
				c2.1,0.7,4.3-0.5,5-2.5l3.3-10.2c3.8,0.2,7.6,0.1,11.5-0.2c3.5-0.3,6.9-0.9,10.2-1.6l5,9.3c1,1.9,3.4,2.6,5.4,1.6l27.7-14.9
				c1.9-1,2.6-3.4,1.6-5.4l-4.7-8.6c5.6-5,10.5-10.8,14.5-17.2l9.9,3.1c0.2,0.1,0.5,0.1,0.7,0.1c1.8,0.2,3.7-0.9,4.2-2.8l1.8-5.7
				l7.5-24.4C404.1,100.4,402.9,98.2,400.8,97.5L400.8,97.5z M309.2,57.7c18.4-1.7,34.6,11.8,36.3,30.2
				c1.7,18.3-11.8,34.6-30.2,36.2c-18.4,1.7-34.6-11.8-36.3-30.2C277.4,75.6,290.9,59.4,309.2,57.7z"/>
			<path class="st1" d="M149.6,141.9l-2.2-0.7c0-0.8,0-1.7-0.1-2.5c-0.1-0.8-0.2-1.6-0.4-2.4l2-1.1c0.4-0.2,0.6-0.8,0.4-1.2
				l-3.4-6.3c-0.2-0.4-0.8-0.6-1.2-0.4l-2,1.1c-1.1-1.2-2.3-2.3-3.7-3.1l0.7-2.1c0.1-0.5-0.1-1-0.6-1.1l-6.8-2.2
				c-0.5-0.2-1,0.1-1.1,0.6l-0.7,2.1c-0.9-0.1-1.8,0-2.7,0c-0.8,0.1-1.7,0.2-2.4,0.4l-1.1-2.1c-0.2-0.4-0.8-0.6-1.2-0.4l-6.3,3.4
				c-0.4,0.2-0.6,0.8-0.4,1.2l1.1,2c-1.2,1.1-2.3,2.4-3.2,3.8l-2.3-0.7c-0.5-0.1-1,0.1-1.1,0.6l-2.1,6.9c-0.2,0.5,0.1,1,0.6,1.1
				l2.3,0.7c0,0.8,0,1.7,0.1,2.6c0.1,0.7,0.2,1.5,0.3,2.2l-2.2,1.2c-0.4,0.2-0.6,0.8-0.4,1.2l3.3,6.4c0.2,0.4,0.8,0.6,1.2,0.4
				l2.1-1.1c1.2,1.3,2.5,2.4,3.9,3.4l-0.7,2.3c-0.2,0.5,0.1,1,0.6,1.1l6.8,2.2c0.5,0.1,1-0.1,1.1-0.6l0.8-2.3c0.9,0.1,1.7,0,2.6-0.1
				c0.8-0.1,1.6-0.2,2.3-0.4l1.1,2.1c0.2,0.4,0.8,0.6,1.2,0.4l6.3-3.4c0.4-0.2,0.6-0.8,0.4-1.2l-1.1-2c1.3-1.1,2.4-2.5,3.3-3.9
				l2.2,0.7c0.1,0,0.1,0,0.2,0c0.4,0.1,0.8-0.2,1-0.6l0.4-1.3l1.7-5.6C150.3,142.6,150,142.1,149.6,141.9L149.6,141.9z M128.7,132.8
				c4.2-0.4,7.9,2.7,8.3,6.9c0.4,4.2-2.7,7.9-6.9,8.3c-4.2,0.4-7.9-2.7-8.3-6.9C121.4,136.9,124.5,133.2,128.7,132.8z"/>
			<g>
				<g>
					<g>
						<path class="st2" d="M166.8,89.9h338.6c3.3,0,6,2.7,6,6v235.9c0,3.3-2.7,6-6,6H166.8c-3.3,0-6-2.7-6-6V95.9
							C160.8,92.6,163.5,89.9,166.8,89.9z"/>
						<path class="st3" d="M510.4,96.6v234.5c0,3-2.5,5.5-5.5,5.5H167.3c-3,0-5.5-2.5-5.5-5.5V96.6c0-3,2.5-5.5,5.5-5.5h337.6
							C507.9,91.1,510.4,93.5,510.4,96.6z"/>
						<rect x="176.3" y="109.3" class="st2" width="319.6" height="209"/>
						<g>
							<rect x="175.9" y="108.6" class="st4" width="320.7" height="22.5"/>
							<rect x="175.9" y="131.1" class="st5" width="320.7" height="186.6"/>
							<rect x="184.4" y="115.7" class="st2" width="76.6" height="8.5"/>
							<rect x="175.9" y="131.1" class="st2" width="70.4" height="186.6"/>
							<g>
								<rect x="179.2" y="140.5" class="st6" width="10.2" height="6.2"/>
								<rect x="193.1" y="140.5" class="st6" width="46.6" height="6.2"/>
								<rect x="179.2" y="155.5" class="st6" width="10.2" height="6.2"/>
								<rect x="193.1" y="155.5" class="st6" width="41.2" height="6.2"/>
								<rect x="179.2" y="171.4" class="st6" width="10.2" height="6.2"/>
								<rect x="193.1" y="171.4" class="st6" width="43.3" height="6.2"/>
							</g>
							<g>
								<rect x="179.2" y="187.2" class="st6" width="10.2" height="6.2"/>
								<rect x="193.1" y="187.2" class="st6" width="41.2" height="6.2"/>
								<rect x="179.2" y="202.4" class="st6" width="10.2" height="6.2"/>
								<rect x="193.1" y="202.4" class="st6" width="31.5" height="6.2"/>
								<rect x="179.2" y="217.4" class="st6" width="10.2" height="6.2"/>
								<rect x="193.1" y="217.4" class="st6" width="43.3" height="6.2"/>
							</g>
							<g>
								<g>
									<g>
										<rect x="254.2" y="141" class="st2" width="235.1" height="147.2"/>
										<path class="st7" d="M489.5,288.3H254V140.8h235.5L489.5,288.3L489.5,288.3z M254.4,288H489V141.1H254.4V288L254.4,288z"
											/>
									</g>
									<g>
										<rect x="254.4" y="288.5" class="st5" width="235.1" height="22.3"/>
										<path class="st7" d="M489.7,311H254.2v-22.6h235.5V311L489.7,311z M254.6,310.6h234.6v-21.9H254.6V310.6z"/>
									</g>
									<rect x="263.2" y="147.8" class="st8" width="61.4" height="7.6"/>
									<rect x="453.4" y="148.7" class="st9" width="28.8" height="7.6"/>
									<rect x="418.5" y="148.5" class="st9" width="28.8" height="7.6"/>
									<rect x="254.2" y="288.1" class="st10" width="235.1" height="0.2"/>
									<rect x="254.2" y="272.6" class="st10" width="235.1" height="0.2"/>
									<rect x="254.2" y="256.6" class="st10" width="235.1" height="0.2"/>
									<rect x="254.2" y="241.1" class="st10" width="235.1" height="0.2"/>
									<rect x="254.2" y="226.3" class="st10" width="235.1" height="0.2"/>
									<rect x="254.2" y="210.9" class="st10" width="235.1" height="0.2"/>
									<rect x="254.2" y="197" class="st10" width="235.1" height="0.2"/>
									<rect x="254.2" y="181.5" class="st10" width="235.1" height="0.2"/>
								</g>
								<rect x="258.4" y="187" class="st6" width="50" height="5.4"/>
								<rect x="341.1" y="187" class="st6" width="30" height="5.4"/>
								<rect x="418.6" y="187" class="st6" width="8.1" height="5.4"/>
								<rect x="258.4" y="201.8" class="st6" width="60.5" height="5.4"/>
								<rect x="341.1" y="201.8" class="st6" width="30" height="5.4"/>
								<rect x="418.6" y="201.8" class="st6" width="8.1" height="5.4"/>
								<rect x="258.4" y="216" class="st6" width="43" height="5.4"/>
								<rect x="341.1" y="216" class="st6" width="30" height="5.4"/>
								<rect x="418.6" y="216" class="st6" width="8.1" height="5.4"/>
								<rect x="258.4" y="231.2" class="st6" width="60.5" height="5.4"/>
								<rect x="341.1" y="231.2" class="st6" width="30" height="5.4"/>
								<rect x="418.6" y="231.2" class="st6" width="8.1" height="5.4"/>
								<rect x="258.4" y="246.1" class="st6" width="50" height="5.4"/>
								<rect x="341.1" y="246.1" class="st6" width="30" height="5.4"/>
								<rect x="418.6" y="246.1" class="st6" width="8.1" height="5.4"/>
								<rect x="258.4" y="261.8" class="st6" width="56.7" height="5.4"/>
								<rect x="341.1" y="261.8" class="st6" width="30" height="5.4"/>
								<rect x="418.6" y="261.8" class="st6" width="8.1" height="5.4"/>
								<rect x="258.4" y="277.9" class="st6" width="60.5" height="5.4"/>
								<rect x="341.1" y="277.9" class="st6" width="30" height="5.4"/>
								<rect x="418.6" y="277.9" class="st6" width="8.1" height="5.4"/>
								<rect x="399.5" y="187" class="st6" width="8.1" height="5.4"/>
								<rect x="399.5" y="201.8" class="st6" width="8.1" height="5.4"/>
								<rect x="399.5" y="216" class="st6" width="8.1" height="5.4"/>
								<rect x="399.5" y="231.2" class="st6" width="8.1" height="5.4"/>
								<rect x="399.5" y="246.1" class="st6" width="8.1" height="5.4"/>
								<rect x="399.5" y="261.8" class="st6" width="8.1" height="5.4"/>
								<rect x="399.5" y="277.9" class="st6" width="8.1" height="5.4"/>
								<g>
									<rect x="470.9" y="187" class="st9" width="11" height="5.4"/>
									<rect x="451.6" y="187" class="st9" width="11" height="5.4"/>
									<rect x="470.9" y="201.8" class="st9" width="11" height="5.4"/>
									<rect x="451.6" y="201.8" class="st9" width="11" height="5.4"/>
									<rect x="470.9" y="216" class="st9" width="11" height="5.4"/>
									<rect x="451.6" y="216" class="st9" width="11" height="5.4"/>
									<rect x="470.9" y="231.2" class="st9" width="11" height="5.4"/>
									<rect x="451.6" y="231.2" class="st9" width="11" height="5.4"/>
									<rect x="470.9" y="246.1" class="st9" width="11" height="5.4"/>
									<rect x="451.6" y="246.1" class="st9" width="11" height="5.4"/>
									<rect x="470.9" y="261.8" class="st9" width="11" height="5.4"/>
									<rect x="451.6" y="261.8" class="st9" width="11" height="5.4"/>
									<rect x="470.9" y="277.9" class="st9" width="11" height="5.4"/>
									<rect x="451.6" y="277.9" class="st9" width="11" height="5.4"/>
								</g>
								<g>
									<ellipse class="st9" cx="356.1" cy="299.9" rx="4.9" ry="5.4"/>
									<g>
										<ellipse class="st2" cx="369" cy="299.9" rx="4.9" ry="5.4"/>
										<path class="st7" d="M369,305.5c-2.8,0-5.1-2.5-5.1-5.6s2.3-5.6,5.1-5.6s5.1,2.5,5.1,5.6S371.8,305.5,369,305.5z
											 M369,294.8c-2.6,0-4.7,2.3-4.7,5.1s2.1,5.1,4.7,5.1s4.7-2.3,4.7-5.1S371.6,294.8,369,294.8z"/>
									</g>
									<g>
										<ellipse class="st2" cx="381.3" cy="299.9" rx="4.9" ry="5.4"/>
										<path class="st7" d="M381.3,305.5c-2.8,0-5.1-2.5-5.1-5.6s2.3-5.6,5.1-5.6s5.1,2.5,5.1,5.6S384.1,305.5,381.3,305.5z
											 M381.3,294.8c-2.6,0-4.7,2.3-4.7,5.1s2.1,5.1,4.7,5.1s4.7-2.3,4.7-5.1S383.9,294.8,381.3,294.8z"/>
									</g>
									<g>
										<ellipse class="st2" cx="393.4" cy="300.1" rx="4.9" ry="5.4"/>
										<path class="st7" d="M393.4,305.7c-2.8,0-5.1-2.5-5.1-5.6s2.3-5.6,5.1-5.6s5.1,2.5,5.1,5.6S396.2,305.7,393.4,305.7z
											 M393.4,295c-2.6,0-4.7,2.3-4.7,5.1s2.1,5.1,4.7,5.1s4.7-2.3,4.7-5.1S396,295,393.4,295z"/>
									</g>
								</g>
							</g>
						</g>
					</g>
					<g class="st11">
						<polygon points="209.5,318.3 495.9,318.3 495.9,109.3 459.6,109.3 						"/>
					</g>
				</g>
				<g>
					<path class="st12" d="M579.6,419h-3.3v2.4l-62.5-76.2c-1.4-1.7-7.7-3-14.2-3H172.5c-6.5,0-12.8,1.3-14.2,3l-60.7,74h-5.1v7.1
						l0,0c0.1,2.4,5,4.1,12.4,4.1h462.1c7.5,0,12.4-1.8,12.5-4.1l0,0L579.6,419L579.6,419z"/>
					<g>
						<path class="st2" d="M567.1,423.1H105c-9.1,0-14.4-2.6-11.8-5.8l65.1-79.5c1.4-1.7,7.7-3,14.2-3h327.2c6.5,0,12.8,1.3,14.2,3
							l65.1,79.5C581.5,420.5,576.3,423.1,567.1,423.1L567.1,423.1z"/>
						<path class="st12" d="M529.3,386.2H142.8c-2.7,0-4.3-0.7-3.7-1.5l32.7-43.7c0.4-0.6,2.6-1,4.8-1h319.1c2.2,0,4.3,0.5,4.8,1
							l32.7,43.7C533.7,385.5,532,386.2,529.3,386.2L529.3,386.2z"/>
						<path class="st12" d="M394,418.3H278.2c-3,0-5.2-0.9-5-1.9l5.1-24.1c0.2-0.9,2.5-1.6,5.3-1.6h105c2.7,0,5.1,0.7,5.3,1.6
							l5.1,24.1C399.2,417.5,397,418.3,394,418.3L394,418.3z"/>
						<g>
							<path class="st3" d="M182.9,364.6h-19.8c-1.2,0-2.5,0.3-2.8,0.8l-4.4,6.1c-0.3,0.4,0.4,0.8,1.7,0.8h40.8
								c1.3,0,2.5-0.4,2.7-0.8l3.3-6.1c0.2-0.4-0.6-0.8-1.8-0.8H182.9L182.9,364.6z"/>
							<path class="st3" d="M227.8,372.3h-18.1c-1.3,0-2.1-0.3-1.9-0.7l3.3-6.4c0.2-0.4,1.3-0.6,2.6-0.6h17.6c1.2,0,2.1,0.3,1.9,0.6
								l-2.7,6.4C230.2,372,229.1,372.3,227.8,372.3z"/>
							<path class="st3" d="M257.1,372.3H239c-1.3,0-2.2-0.3-2-0.7l2.5-6.4c0.1-0.4,1.2-0.6,2.5-0.6h17.6c1.2,0,2.1,0.3,2,0.6
								l-2,6.4C259.5,372,258.4,372.3,257.1,372.3L257.1,372.3z"/>
							<path class="st3" d="M286.5,372.3h-18.1c-1.3,0-2.2-0.3-2.1-0.7l1.8-6.4c0.1-0.4,1.2-0.6,2.4-0.6H288c1.2,0,2.2,0.3,2.1,0.6
								l-1.2,6.4C288.8,372,287.7,372.3,286.5,372.3L286.5,372.3z"/>
							<path class="st3" d="M345.1,372.3H327c-1.3,0-2.3-0.3-2.3-0.7l0.3-6.4c0-0.4,1-0.6,2.2-0.6h17.6c1.2,0,2.2,0.3,2.2,0.6
								l0.3,6.4C347.4,372,346.4,372.3,345.1,372.3L345.1,372.3z"/>
							<path class="st3" d="M315.8,372.3h-18.1c-1.3,0-2.2-0.3-2.2-0.7l1-6.4c0.1-0.4,1.1-0.6,2.3-0.6h17.6c1.2,0,2.2,0.3,2.2,0.6
								l-0.5,6.4C318.1,372,317.1,372.3,315.8,372.3L315.8,372.3z"/>
							<path class="st3" d="M374.5,372.3h-18.1c-1.3,0-2.3-0.3-2.3-0.7l-0.5-6.4c0-0.4,1-0.6,2.2-0.6h17.6c1.2,0,2.3,0.3,2.3,0.6
								l1,6.4C376.7,372,375.7,372.3,374.5,372.3L374.5,372.3z"/>
							<path class="st3" d="M403.8,372.3h-18.1c-1.3,0-2.4-0.3-2.4-0.7l-1.2-6.4c-0.1-0.4,0.9-0.6,2.1-0.6h17.6
								c1.2,0,2.3,0.3,2.4,0.6l1.8,6.4C406,372,405.1,372.3,403.8,372.3L403.8,372.3z"/>
							<path class="st3" d="M433.1,372.3H415c-1.3,0-2.4-0.3-2.5-0.7l-2-6.4c-0.1-0.4,0.8-0.6,2-0.6h17.6c1.2,0,2.3,0.3,2.5,0.6
								l2.5,6.4C435.3,372,434.4,372.3,433.1,372.3L433.1,372.3z"/>
							<path class="st3" d="M462.5,372.3h-18.1c-1.3,0-2.4-0.3-2.6-0.7l-2.7-6.4c-0.1-0.4,0.7-0.6,2-0.6h17.6c1.2,0,2.4,0.3,2.5,0.6
								l3.3,6.4C464.6,372,463.7,372.3,462.5,372.3L462.5,372.3z"/>
							<path class="st3" d="M195,383h-16.5c-1.3,0-2.2-0.3-1.9-0.7l4.2-7c0.2-0.4,1.5-0.7,2.7-0.7h16c1.3,0,2.1,0.3,1.9,0.7l-3.7,7
								C197.6,382.7,196.3,383,195,383L195,383z"/>
							<path class="st3" d="M166.8,383H150c-1.3,0-2.1-0.3-1.9-0.7l5-7c0.3-0.4,1.5-0.7,2.8-0.7h16.2c1.3,0,2.1,0.3,1.9,0.7l-4.4,7
								C169.4,382.7,168.1,383,166.8,383L166.8,383z"/>
							<path class="st3" d="M223.2,383h-16.4c-1.3,0-2.2-0.3-2-0.7l3.5-7c0.2-0.4,1.4-0.7,2.7-0.7h15.9c1.3,0,2.2,0.3,2,0.7l-2.9,7
								C225.7,382.7,224.5,383,223.2,383L223.2,383z"/>
							<path class="st3" d="M494,383h-16.5c-1.3,0-2.6-0.3-2.8-0.7l-3.7-7c-0.2-0.4,0.7-0.7,2-0.7h16c1.3,0,2.5,0.3,2.7,0.7l4.2,7
								C496.1,382.7,495.3,383,494,383L494,383z"/>
							<path class="st3" d="M465.7,383H449c-1.3,0-2.5-0.3-2.7-0.7l-1.2-2.8c-0.2-0.4,0.8-0.7,2-0.7h16.5c1.3,0,2.5,0.3,2.7,0.7
								l1.4,2.8C468,382.7,467.1,383,465.7,383z"/>
							<path class="st3" d="M522.1,383h-16.5c-1.3,0-2.6-0.3-2.9-0.7l-1.8-2.8c-0.2-0.4,0.6-0.7,1.9-0.7h16.2c1.3,0,2.6,0.3,2.9,0.7
								l2,2.8C524.3,382.7,523.4,383,522.1,383L522.1,383z"/>
							<path class="st3" d="M253.8,383h-18.9c-1.3,0-2.3-0.3-2.1-0.7l2.8-7c0.1-0.4,1.3-0.7,2.6-0.7h18.3c1.3,0,2.2,0.3,2.1,0.7
								l-2.1,7C256.2,382.7,255.1,383,253.8,383L253.8,383z"/>
							<path class="st3" d="M437.3,383h-18.9c-1.3,0-2.5-0.3-2.6-0.7l-2.1-7c-0.1-0.4,0.8-0.7,2.1-0.7H434c1.3,0,2.4,0.3,2.6,0.7
								l2.8,7C439.5,382.7,438.6,383,437.3,383L437.3,383z"/>
							<path class="st3" d="M489.2,364.6h-19.8c-1.2,0-2,0.3-1.8,0.8l3.3,6.1c0.2,0.4,1.5,0.8,2.7,0.8h40.8c1.3,0,2-0.4,1.7-0.8
								l-4.4-6.1c-0.3-0.4-1.5-0.8-2.8-0.8H489.2z"/>
							<path class="st3" d="M182.6,355.3h-12.8c-1.2,0-2.4,0.3-2.6,0.7l-4.1,5.7c-0.3,0.4,0.4,0.7,1.7,0.7h26.4
								c1.2,0,2.4-0.3,2.6-0.7l3.4-5.7c0.2-0.4-0.5-0.7-1.7-0.7H182.6z"/>
							<g>
								<path class="st3" d="M247.5,362.4h-17.4c-1.2,0-2.1-0.3-1.9-0.6l2.6-5.9c0.1-0.3,1.2-0.6,2.4-0.6h16.9c1.2,0,2,0.3,1.9,0.6
									l-2.1,5.9C249.8,362.2,248.7,362.4,247.5,362.4z"/>
								<path class="st3" d="M219.3,362.4h-17.4c-1.2,0-2-0.3-1.9-0.6l3.3-5.9c0.2-0.3,1.3-0.6,2.5-0.6h16.9c1.2,0,2,0.3,1.9,0.6
									l-2.8,5.9C221.6,362.2,220.5,362.4,219.3,362.4z"/>
								<path class="st3" d="M275.6,362.4h-17.4c-1.2,0-2.1-0.3-2-0.6l2-5.9c0.1-0.3,1.1-0.6,2.3-0.6h16.9c1.2,0,2.1,0.3,2,0.6
									l-1.4,5.9C277.9,362.2,276.8,362.4,275.6,362.4L275.6,362.4z"/>
								<path class="st3" d="M303.8,362.4h-17.4c-1.2,0-2.1-0.3-2.1-0.6l1.3-5.9c0.1-0.3,1.1-0.6,2.3-0.6h16.9
									c1.2,0,2.1,0.3,2.1,0.6l-0.7,5.9C306.1,362.2,305,362.4,303.8,362.4L303.8,362.4z"/>
								<path class="st3" d="M360.2,362.4h-17.4c-1.2,0-2.2-0.3-2.2-0.6l-0.1-5.9c0-0.3,1-0.6,2.1-0.6h16.9c1.2,0,2.2,0.3,2.2,0.6
									l0.6,5.9C362.4,362.2,361.4,362.4,360.2,362.4L360.2,362.4z"/>
								<path class="st3" d="M332,362.4h-17.4c-1.2,0-2.2-0.3-2.1-0.6l0.6-5.9c0-0.3,1-0.6,2.2-0.6h16.9c1.2,0,2.1,0.3,2.1,0.6
									l0,5.9C334.2,362.2,333.2,362.4,332,362.4L332,362.4z"/>
								<path class="st3" d="M388.4,362.4H371c-1.2,0-2.2-0.3-2.3-0.6l-0.8-5.9c0-0.3,0.9-0.6,2.1-0.6h16.9c1.2,0,2.2,0.3,2.3,0.6
									l1.3,5.9C390.5,362.2,389.6,362.4,388.4,362.4z"/>
								<path class="st3" d="M416.5,362.4h-17.4c-1.2,0-2.3-0.3-2.4-0.6l-1.5-5.9c-0.1-0.3,0.8-0.6,2-0.6h16.9
									c1.2,0,2.2,0.3,2.3,0.6l2,5.9C418.7,362.2,417.8,362.4,416.5,362.4L416.5,362.4z"/>
								<path class="st3" d="M444.7,362.4h-17.4c-1.2,0-2.3-0.3-2.4-0.6l-2.2-5.9c-0.1-0.3,0.7-0.6,1.9-0.6h16.9
									c1.2,0,2.3,0.3,2.4,0.6l2.7,5.9C446.8,362.2,446,362.4,444.7,362.4L444.7,362.4z"/>
								<path class="st3" d="M472.9,362.4h-17.4c-1.2,0-2.3-0.3-2.5-0.6l-2.9-5.9c-0.2-0.3,0.7-0.6,1.9-0.6h16.9
									c1.2,0,2.3,0.3,2.5,0.6l3.4,5.9C475,362.2,474.1,362.4,472.9,362.4L472.9,362.4z"/>
							</g>
							<g>
								<path class="st3" d="M217.8,344.8h-15.4c-1.1,0-1.9-0.2-1.7-0.5l1.2-2c0.2-0.3,1.2-0.5,2.3-0.5h15.2c1.1,0,1.9,0.2,1.7,0.5
									l-1.1,2C219.9,344.6,218.9,344.8,217.8,344.8L217.8,344.8z"/>
								<path class="st3" d="M192.6,344.8h-15.4c-1.1,0-1.9-0.2-1.7-0.5l1.5-2c0.2-0.3,1.3-0.5,2.4-0.5h15.2c1.1,0,1.9,0.2,1.7,0.5
									l-1.3,2C194.7,344.6,193.7,344.8,192.6,344.8L192.6,344.8z"/>
								<path class="st3" d="M243,344.8h-15.4c-1.1,0-1.9-0.2-1.8-0.5l1-2c0.1-0.3,1.2-0.5,2.3-0.5h15.2c1.1,0,1.9,0.2,1.8,0.5
									l-0.8,2C245.1,344.6,244.1,344.8,243,344.8L243,344.8z"/>
								<path class="st3" d="M268.2,344.8h-15.4c-1.1,0-1.9-0.2-1.8-0.5l0.8-2c0.1-0.3,1.1-0.5,2.2-0.5h15.2c1.1,0,1.9,0.2,1.9,0.5
									l-0.6,2C270.3,344.6,269.3,344.8,268.2,344.8L268.2,344.8z"/>
								<path class="st3" d="M318.6,344.8h-15.4c-1.1,0-2-0.2-2-0.5l0.3-2c0-0.3,1-0.5,2.1-0.5h15.2c1.1,0,2,0.2,2,0.5l-0.1,2
									C320.6,344.6,319.7,344.8,318.6,344.8L318.6,344.8z"/>
								<path class="st3" d="M293.4,344.8H278c-1.1,0-2-0.2-1.9-0.5l0.5-2c0.1-0.3,1-0.5,2.1-0.5H294c1.1,0,2,0.2,1.9,0.5l-0.4,2
									C295.5,344.6,294.5,344.8,293.4,344.8L293.4,344.8z"/>
								<path class="st3" d="M343.8,344.8h-15.4c-1.1,0-2-0.2-2-0.5l0.1-2c0-0.3,0.9-0.5,2-0.5h15.2c1.1,0,2,0.2,2,0.5l0.1,2
									C345.8,344.6,344.9,344.8,343.8,344.8L343.8,344.8z"/>
								<path class="st3" d="M369,344.8h-15.4c-1.1,0-2.1-0.2-2.1-0.5l-0.1-2c0-0.3,0.9-0.5,2-0.5h15.2c1.1,0,2,0.2,2.1,0.5l0.3,2
									C371,344.6,370.1,344.8,369,344.8L369,344.8z"/>
								<path class="st3" d="M394.2,344.8h-15.4c-1.1,0-2.1-0.2-2.1-0.5l-0.4-2c0-0.3,0.8-0.5,1.9-0.5h15.2c1.1,0,2.1,0.2,2.1,0.5
									l0.5,2C396.1,344.6,395.3,344.8,394.2,344.8L394.2,344.8z"/>
								<path class="st3" d="M419.4,344.8H404c-1.1,0-2.1-0.2-2.2-0.5l-0.6-2c-0.1-0.3,0.8-0.5,1.9-0.5h15.2c1.1,0,2.1,0.2,2.2,0.5
									l0.8,2C421.3,344.6,420.5,344.8,419.4,344.8L419.4,344.8z"/>
								<path class="st3" d="M444.6,344.8h-15.4c-1.1,0-2.1-0.2-2.3-0.5l-0.8-2c-0.1-0.3,0.7-0.5,1.8-0.5h15.2
									c1.1,0,2.1,0.2,2.3,0.5l1,2C446.5,344.6,445.7,344.8,444.6,344.8L444.6,344.8z"/>
								<path class="st3" d="M469.8,344.8h-15.4c-1.1,0-2.2-0.2-2.3-0.5l-1.1-2c-0.1-0.3,0.6-0.5,1.7-0.5h15.2
									c1.1,0,2.2,0.2,2.3,0.5l1.2,2C471.7,344.6,470.9,344.8,469.8,344.8L469.8,344.8z"/>
								<path class="st3" d="M495,344.8h-15.4c-1.1,0-2.2-0.2-2.4-0.5l-1.3-2c-0.2-0.3,0.6-0.5,1.7-0.5h15.2c1.1,0,2.2,0.2,2.4,0.5
									l1.5,2C496.8,344.6,496.1,344.8,495,344.8L495,344.8z"/>
							</g>
							<path class="st3" d="M490.9,355.3h-11.5c-1.2,0-2,0.3-1.7,0.7l3.4,5.7c0.2,0.4,1.4,0.7,2.6,0.7h23.8c1.2,0,2-0.3,1.7-0.7
								l-4.1-5.7c-0.3-0.4-1.5-0.7-2.6-0.7H490.9L490.9,355.3z"/>
							<g>
								<path class="st3" d="M188.2,346.7h-12.4c-1.1,0-2.3,0.3-2.5,0.6l-3.8,5.3c-0.3,0.4,0.5,0.7,1.6,0.7h19.1
									c1.2,0,2.3-0.3,2.5-0.7l3.3-5.3c0.2-0.4-0.5-0.6-1.7-0.6H188.2L188.2,346.7z"/>
								<g>
									<path class="st3" d="M244.5,353.3h-16.7c-1.2,0-2-0.3-1.8-0.6l2.6-5.5c0.1-0.3,1.2-0.5,2.3-0.5h16.3c1.1,0,2,0.2,1.9,0.5
										l-2.1,5.5C246.7,353,245.7,353.3,244.5,353.3L244.5,353.3z"/>
									<path class="st3" d="M217.4,353.3h-16.7c-1.2,0-2-0.3-1.8-0.6l3.2-5.5c0.2-0.3,1.2-0.5,2.4-0.5h16.3c1.1,0,1.9,0.2,1.8,0.5
										l-2.8,5.5C219.6,353,218.5,353.3,217.4,353.3z"/>
									<path class="st3" d="M271.6,353.3h-16.7c-1.2,0-2-0.3-1.9-0.6l2-5.5c0.1-0.3,1.1-0.5,2.3-0.5h16.3c1.1,0,2,0.2,1.9,0.5
										l-1.5,5.5C273.8,353,272.8,353.3,271.6,353.3L271.6,353.3z"/>
									<path class="st3" d="M298.7,353.3H282c-1.2,0-2.1-0.3-2-0.6l1.3-5.5c0.1-0.3,1-0.5,2.2-0.5h16.3c1.1,0,2,0.2,2,0.5
										l-0.8,5.5C300.9,353,299.9,353.3,298.7,353.3L298.7,353.3z"/>
									<path class="st3" d="M352.9,353.3h-16.7c-1.2,0-2.1-0.3-2.1-0.6l0-5.5c0-0.3,0.9-0.5,2.1-0.5h16.3c1.1,0,2.1,0.2,2.1,0.5
										l0.5,5.5C355,353,354.1,353.3,352.9,353.3L352.9,353.3z"/>
									<path class="st3" d="M325.8,353.3h-16.7c-1.2,0-2.1-0.3-2-0.6l0.7-5.5c0-0.3,1-0.5,2.1-0.5h16.3c1.1,0,2,0.2,2,0.5
										l-0.2,5.5C327.9,353,327,353.3,325.8,353.3L325.8,353.3z"/>
									<path class="st3" d="M380,353.3h-16.7c-1.2,0-2.1-0.3-2.2-0.6l-0.6-5.5c0-0.3,0.9-0.5,2-0.5h16.3c1.1,0,2.1,0.2,2.2,0.5
										l1.1,5.5C382.1,353,381.2,353.3,380,353.3L380,353.3z"/>
									<path class="st3" d="M407.1,353.3h-16.7c-1.2,0-2.2-0.3-2.2-0.6l-1.2-5.5c-0.1-0.3,0.8-0.5,1.9-0.5h16.3
										c1.1,0,2.1,0.2,2.2,0.5l1.7,5.5C409.2,353,408.3,353.3,407.1,353.3L407.1,353.3z"/>
									<path class="st3" d="M434.3,353.3h-16.7c-1.2,0-2.2-0.3-2.3-0.6l-1.9-5.5c-0.1-0.3,0.7-0.5,1.9-0.5h16.3
										c1.1,0,2.2,0.2,2.3,0.5l2.4,5.5C436.3,353,435.4,353.3,434.3,353.3L434.3,353.3z"/>
									<path class="st3" d="M461.4,353.3h-16.7c-1.2,0-2.2-0.3-2.4-0.6l-2.5-5.5c-0.1-0.3,0.7-0.5,1.8-0.5h16.3
										c1.1,0,2.2,0.2,2.4,0.5l3,5.5C463.4,353,462.6,353.3,461.4,353.3L461.4,353.3z"/>
								</g>
								<path class="st3" d="M479,346.7h-11.1c-1.1,0-1.9,0.3-1.7,0.6l3,5.3c0.2,0.4,1.3,0.7,2.5,0.7H501c1.2,0,1.9-0.3,1.6-0.7
									l-3.8-5.3c-0.3-0.4-1.4-0.6-2.5-0.6H479L479,346.7z"/>
							</g>
							<path class="st3" d="M406.7,383H265.5c-1.3,0-2.3-0.3-2.2-0.7l1.9-7c0.1-0.4,1.2-0.7,2.5-0.7h136.7c1.3,0,2.4,0.3,2.5,0.7
								l1.9,7C409,382.7,408,383,406.7,383L406.7,383z"/>
						</g>
					</g>
				</g>
			</g>
			<path class="st1" d="M168.3,307l-1.8-3.8c1.1-1,2.3-2.1,3.3-3.2c1-1.1,1.9-2.3,2.7-3.5l4,1.4c0.9,0.3,1.8-0.2,2.1-1l4.2-12.3
				c0.3-0.9-0.2-1.8-1-2.1l-3.9-1.3c0.2-2.9,0.1-5.9-0.5-8.8l3.7-1.7c0.8-0.4,1.2-1.4,0.8-2.2l-5.6-11.8c-0.4-0.8-1.4-1.2-2.2-0.8
				l-3.6,1.7c-1-1.2-2.2-2.4-3.4-3.6c-1.1-1-2.3-1.9-3.6-2.8l1.4-4.1c0.3-0.9-0.2-1.8-1-2.1l-12.4-4.1c-0.9-0.3-1.8,0.2-2.1,1
				l-1.3,3.9c-3-0.2-6-0.1-9,0.5l-1.9-3.9c-0.4-0.8-1.4-1.1-2.2-0.8l-11.7,5.7c-0.8,0.4-1.2,1.4-0.8,2.2l1.9,3.9
				c-1.2,1-2.3,2.1-3.3,3.2c-0.9,1-1.7,2-2.4,3.1l-4.3-1.5c-0.8-0.3-1.8,0.2-2.1,1l-4.2,12.3c-0.3,0.9,0.2,1.8,1,2.1l4,1.4
				c-0.3,3.1-0.2,6.3,0.4,9.4l-4,1.9c-0.8,0.4-1.2,1.4-0.8,2.2l5.6,11.8c0.4,0.8,1.4,1.2,2.2,0.8l4-1.9c1,1.2,2.1,2.4,3.3,3.4
				c1.1,1,2.2,1.8,3.4,2.6l-1.4,4.1c-0.3,0.9,0.2,1.8,1,2.1l12.4,4.1c0.9,0.3,1.8-0.2,2.1-1l1.3-3.9c3.1,0.3,6.2,0.1,9.3-0.5
				l1.9,3.8c0.1,0.1,0.1,0.2,0.2,0.2c0.4,0.6,1.3,0.9,2,0.5l2.2-1.1l9.5-4.6C168.4,308.8,168.7,307.8,168.3,307L168.3,307z
				 M154.4,268.1c5.7,5.1,6.2,13.8,1.2,19.5s-13.8,6.2-19.5,1.2c-5.7-5.1-6.2-13.8-1.2-19.5C140,263.5,148.7,263,154.4,268.1z"/>
			<g>
				<g>
					<g>
						<path class="st2" d="M187,316.2c-0.5,15.9-11.2,28.3-24.7,28.1s-24.1-13.2-23.6-29s9.1-24.3,22.6-24.1
							C174.7,291.4,187.5,300.4,187,316.2L187,316.2z"/>
						<path class="st13" d="M160.5,289.7c-7-0.1-13.7,3-18.8,8.7c-5.1,5.7-5.3,9-5.5,17.1c-0.2,8.1,2.2,15.8,7,21.6
							c4.8,5.9,11.3,9.1,18.3,9.2c3,0,5.9-0.5,8.6-1.5c10.2-3.9,17.5-14.9,17.9-28.3C188.5,299.6,174.6,289.9,160.5,289.7
							L160.5,289.7z M161.6,342.9c-12.6-0.2-22.4-12.4-22-27.3c0.2-7.2,0.1-9.7,4.6-14.8c2.6-2.9,5.6-5,8.9-6.3
							c2.4-0.9,4.8-1.4,7.4-1.3c6,0.1,11.5,3,15.5,8.2c4,5.2,8.9,7.8,8.6,15.1C184.1,331.5,174,343,161.6,342.9L161.6,342.9z"/>
					</g>
					
						<ellipse transform="matrix(0.8873 -0.4613 0.4613 0.8873 -133.0661 107.2658)" class="st14" cx="152.9" cy="325.8" rx="8.1" ry="13.4"/>
					
						<ellipse transform="matrix(0.4627 -0.8865 0.8865 0.4627 -209.1523 313.9483)" class="st2" cx="154.4" cy="329.5" rx="3.3" ry="4"/>
				</g>
				<g>
					<g>
						<path class="st2" d="M208.6,319.3c-0.4,13.3-10.1,24-21.8,23.8S166,332,166.4,318.7c0.4-13.3,8.4-21.3,20.1-21.2
							C198.2,297.7,209,306,208.6,319.3L208.6,319.3z"/>
						<path class="st13" d="M185.8,296c-6.1-0.1-12,2.6-16.4,7.4c-4.4,4.8-5.3,8.6-5.5,15.5c-0.2,6.9,2,13.4,6.1,18.4
							c4.2,5,9.9,7.8,16,7.9c2.7,0,5.2-0.5,7.7-1.4c9-3.5,15.6-13,15.9-24.3C210.1,305.3,198.4,296.2,185.8,296L185.8,296z
							 M206.1,319.6c-0.3,9.7-5.9,17.9-13.6,20.8c-2,0.8-4.2,1.2-6.4,1.1c-5.1-0.1-9.9-2.4-13.4-6.7c-3.6-4.3-5.4-9.9-5.3-15.9
							c0.3-9.7,4.2-15.2,11.9-18.2c2-0.8,4.2-1.2,6.4-1.1c5.1,0.1,11,2.1,14.5,6.4C203.9,310.3,206.3,313.6,206.1,319.6L206.1,319.6
							z"/>
					</g>
					
						<ellipse transform="matrix(0.8313 -0.5559 0.5559 0.8313 -152.2749 155.0838)" class="st14" cx="179.3" cy="328.4" rx="7.3" ry="11.4"/>
					
						<ellipse transform="matrix(0.4627 -0.8865 0.8865 0.4627 -196.3035 337.5406)" class="st2" cx="180.3" cy="330.7" rx="2.9" ry="3.5"/>
				</g>
				
					<ellipse transform="matrix(0.9998 -1.832493e-02 1.832493e-02 0.9998 -8.2662 1.8975)" class="st15" cx="99.4" cy="452" rx="14" ry="3.8"/>
				<g>
					<polygon class="st14" points="124.4,413.4 121.1,413.5 97.6,339.4 126.4,350.4 124.3,352.6 101.6,345 					"/>
					<polygon class="st14" points="113.7,437 112.3,442.3 80.2,340.4 129.2,359.7 126.3,362.1 84.7,345.4 					"/>
					<polygon class="st14" points="149.6,451.1 98.8,372.7 141.5,376.2 142.8,379.3 105.7,376.5 154,451 					"/>
					<polyline class="st14" points="158.4,351.4 160.2,399.9 156.5,399.5 153.8,348.3 					"/>
					<path class="st14" d="M156.3,399c0,0-4.2-7.3-8.7-2.5s-1.7,11.2-1.7,11.2s1.5,2,6.5,2.1c5,0.1,6.2-0.1,7.1-1.7
						c0.9-1.6,0.6-8.6,0.6-8.6L156.3,399L156.3,399z"/>
					<path class="st14" d="M112.4,441.7c1.3,2-8.9-10.1-14.8-4.6c-7.2,6.6-2.8,15.5-2.8,15.5s2.4,2.1,10.6,2
						c10.6-0.2,9.8-3,10.4-5.7c1.2-4.6-2.9-14.1-2.9-14.1L112.4,441.7L112.4,441.7z"/>
					<path class="st14" d="M121.1,411.9c0,0-2-6.8-6.8-2.4c-2.8,2.6-2.9,5.8-2.6,7.9c0.3,1.7,1.6,3,3.3,3.4c1.1,0.2,2.5,0.5,4.4,0.4
						c7-0.4,6-2.6,6-3.7c0-5.9-2.3-9.5-2.3-9.5L121.1,411.9L121.1,411.9z"/>
					<path class="st14" d="M149.5,450.6c0,0-6.4-10.6-13.7-3.9c-7.4,6.6-1.7,14.9-1.7,14.9s2.5,2.6,10.8,2.5
						c10.9-0.2,11.7-5.7,10.9-8.5c-2.9-9.5-4.6-5.1-4.5-5.4L149.5,450.6L149.5,450.6z"/>
				</g>
				<g>
					<polygon class="st14" points="220.2,411.6 224,411.6 235,343.8 190.6,368.5 191.6,374.1 230.1,350.8 					"/>
					<polygon class="st14" points="219.4,433.9 222.7,437.3 241,387.5 189.2,374.9 185.8,379.6 234.9,390.4 					"/>
					<polygon class="st14" points="174.9,451.9 181.8,396.3 159.8,379.9 158.6,384.2 177.3,399.7 171,451.8 					"/>
					<polyline class="st14" points="183.8,354.6 183.9,401.3 187.6,402.6 188.4,351.3 					"/>
					<path class="st14" d="M187.7,402.1c0,0,3.4-7.4,8-2.8c4.6,4.6,2.1,11.1,2.1,11.1s-1.4,2-6.4,2.3s-6.2,0.1-7.2-1.4
						s-0.1-13-0.1-13L187.7,402.1z"/>
					<path class="st14" d="M223.2,436.7c0,0,6-12.1,13.4-5.7c4.2,3.6,4.7,8.1,4.4,11.2c-0.3,2.9-2.4,5.3-5.3,5.9
						c-1.5,0.4-3.6,0.6-6.2,0.7c-10.6,0.2-10.5-3.8-11.3-6.5c-1.3-4.5,1.4-9.2,1.4-9.2L223.2,436.7L223.2,436.7z"/>
					<path class="st14" d="M224,410.6c0,0,3.5-8.6,8.4-4.4c2.8,2.4,3.1,5.4,2.9,7.5c-0.2,1.9-1.6,3.5-3.5,3.9
						c-1,0.2-2.4,0.4-4.1,0.5c-7,0.1-7.4-1.6-7.9-3.4c-0.9-3,1.9-10.8,1.9-10.8L224,410.6L224,410.6z"/>
					<path class="st14" d="M175.4,448.4c0,0,5.4-10.2,13-3.9s3.4,15.4,3.4,15.4s-2.4,2.7-10.8,2.9c-10.9,0.2-11.6-5.2-11.2-8.1
						c1.5-11.9,3.6-9,3.6-9L175.4,448.4L175.4,448.4z"/>
				</g>
				<g>
					<path class="st4" d="M189,307.4c26.8,19.4,25.8,34.4,8.4,58.3c-13.7,18.9-35.6,24.9-57.4,9.1c-21.7-15.8-18.8-35.6-5.1-54.5
						C148.7,301.4,167.3,291.6,189,307.4L189,307.4z"/>
					<path class="st14" d="M198.9,367.5c-7.3,10-16.5,16.3-26.8,18.3c-11,2.1-22.6-1-33.5-8.9c-20.3-14.8-22.3-34.6-5.8-57.4
						c16.8-23.1,37-27.8,57.1-13.3c10.9,7.9,20.5,17.6,21.7,29.1C212.7,345.8,206.1,357.6,198.9,367.5L198.9,367.5z M136.4,322.1
						c-15.2,21-13.8,38.4,4.5,51.6c19.4,14.1,40.2,10.7,54.4-8.9c18-24.9,16.4-37.9-7.8-55.4C164.8,292.9,147.2,307.2,136.4,322.1
						L136.4,322.1z"/>
				</g>
				
					<ellipse transform="matrix(0.9998 -1.832493e-02 1.832493e-02 0.9998 -8.4273 2.644)" class="st15" cx="140.1" cy="461.2" rx="15.4" ry="5"/>
				
					<ellipse transform="matrix(0.9998 -1.832493e-02 1.832493e-02 0.9998 -7.6332 2.2056)" class="st15" cx="116.5" cy="417.6" rx="9" ry="4.1"/>
				
					<ellipse transform="matrix(0.9998 -1.832493e-02 1.832493e-02 0.9998 -7.4241 2.8193)" class="st15" cx="150.1" cy="406.5" rx="10.2" ry="4.1"/>
				
					<ellipse transform="matrix(0.9998 -1.832493e-02 1.832493e-02 0.9998 -8.1319 4.4564)" class="st15" cx="239.1" cy="446" rx="14" ry="3.8"/>
				
					<ellipse transform="matrix(0.9998 -1.832493e-02 1.832493e-02 0.9998 -8.3909 3.5826)" class="st15" cx="191.3" cy="459.6" rx="15.4" ry="5"/>
				
					<ellipse transform="matrix(0.9998 -1.832493e-02 1.832493e-02 0.9998 -7.5631 4.3607)" class="st15" cx="234.2" cy="414.9" rx="9" ry="4.1"/>
				
					<ellipse transform="matrix(0.9998 -1.832493e-02 1.832493e-02 0.9998 -7.4744 3.7069)" class="st15" cx="198.5" cy="409.7" rx="10.2" ry="4.1"/>
				
					<rect x="155.6" y="359.7" transform="matrix(0.5582 -0.8297 0.8297 0.5582 -234.3662 291.5943)" class="st16" width="2.1" height="12.2"/>
				
					<rect x="150.5" y="364.8" transform="matrix(0.9332 -0.3593 0.3593 0.9332 -121.0147 80.7288)" class="st16" width="12.2" height="2.1"/>
			</g>
			<path class="st1" d="M582.1,256.9l-1-2.1c0.6-0.5,1.2-1.1,1.8-1.8c0.5-0.6,1-1.2,1.5-1.9l2.2,0.8c0.5,0.2,1-0.1,1.1-0.6l2.3-6.8
				c0.2-0.5-0.1-1-0.6-1.1l-2.1-0.7c0.1-1.6,0-3.3-0.2-4.9l2-1c0.5-0.2,0.6-0.8,0.4-1.2l-3.1-6.5c-0.2-0.4-0.8-0.6-1.2-0.4l-2,0.9
				c-0.6-0.7-1.2-1.4-1.9-2c-0.6-0.6-1.3-1.1-2-1.5l0.8-2.2c0.2-0.5-0.1-1-0.6-1.1l-6.8-2.3c-0.5-0.2-1,0.1-1.1,0.6l-0.7,2.1
				c-1.7-0.1-3.3,0-5,0.3l-1.1-2.2c-0.2-0.4-0.8-0.6-1.2-0.4l-6.5,3.1c-0.5,0.2-0.6,0.8-0.4,1.2l1,2.1c-0.6,0.6-1.3,1.1-1.8,1.8
				c-0.5,0.6-0.9,1.1-1.3,1.7l-2.3-0.8c-0.5-0.2-1,0.1-1.1,0.6l-2.3,6.8c-0.2,0.5,0.1,1,0.6,1.1l2.2,0.8c-0.2,1.7-0.1,3.5,0.2,5.2
				l-2.2,1c-0.5,0.2-0.6,0.8-0.4,1.2l3.1,6.5c0.2,0.4,0.8,0.6,1.2,0.4l2.2-1.1c0.6,0.7,1.2,1.3,1.8,1.9c0.6,0.5,1.2,1,1.9,1.4
				l-0.8,2.3c-0.2,0.5,0.1,1,0.6,1.1l6.8,2.3c0.5,0.2,1-0.1,1.1-0.6l0.7-2.1c1.7,0.1,3.4,0.1,5.1-0.3l1,2.1c0,0,0,0.1,0.1,0.1
				c0.2,0.3,0.7,0.5,1.1,0.3l1.2-0.6l5.2-2.6C582.2,257.8,582.3,257.3,582.1,256.9L582.1,256.9z M574.4,235.4
				c3.1,2.8,3.4,7.6,0.7,10.7c-2.8,3.1-7.6,3.4-10.7,0.6c-3.1-2.8-3.4-7.6-0.6-10.7C566.5,232.9,571.3,232.7,574.4,235.4
				L574.4,235.4z"/>
		</g>
	</g>
</g>
</svg>
