<?xml version="1.0" encoding="UTF-8"?><svg id="a" xmlns="http://www.w3.org/2000/svg" viewBox="0 0 2067.86 233.46"><g><path d="M108.07,10.19l42.91,35.04c12.4,10.43,19.29,19,20.28,35.04v124.11c0,15.75-12.4,28.15-28.15,28.15s-28.84-12.4-28.84-28.15v-27.85l-56.99-52.66v80.51c0,15.75-12.79,28.15-28.44,28.15S0,220.12,0,204.37V80.26c1.28-16.04,8.86-24.51,20.96-35.04L62.89,10.19c16.73-13.09,28.84-13.78,45.18,0Zm6.2,109.25V59.89H57.28v59.55h56.99Z"/><path d="M256.69,174.85v27.46c0,16.04-11.81,29.13-27.85,29.13s-28.84-13.09-28.84-29.13V50.05c0-26.48,21.95-48.42,48.42-48.42h43.5c13.09,0,24.21,4.63,33.76,13.39l31.4,31.4c20.67,19.68,17.03,68.11-2.95,87.4l-28.44,27.16c-9.45,9.45-20.67,13.78-33.76,13.78h-35.24v.1Zm55.02-57.28V59l-54.33-.69v59.25h54.33Z"/><path d="M390.54,206.24V100.54c0-14.37,12.11-27.07,28.84-27.07s29.13,11.52,29.13,25.59v107.08c0,14.07-12.79,25.89-29.13,25.89-15.65,.1-28.84-11.61-28.84-25.79Zm56.69-145.86h-55.51V2.21h55.51V60.38Z"/></g><g><path d="M648.41,174.85v27.46c0,16.04-11.81,29.13-27.85,29.13s-28.84-13.09-28.84-29.13V50.05c0-26.48,21.95-48.42,48.42-48.42h43.5c13.09,0,24.21,4.63,33.76,13.39l31.4,31.4c20.67,19.68,17.03,68.11-2.95,87.4l-28.44,27.16c-9.45,9.45-20.67,13.78-33.76,13.78h-35.24v.1Zm55.02-57.28V59l-54.33-.69v59.25h54.33Z"/><path d="M779.31,181.64V28.79c0-15.35,13.39-28.15,28.84-28.15,16.34,0,29.13,12.79,29.13,28.15V174.16c28.84,0,20.67-.69,49.11-.69,37.6,0,37.6,57.58,0,57.58h-57.28c-27.16,.1-49.8-22.24-49.8-49.41Z"/><path d="M1037.57,10.19l42.91,35.04c12.4,10.43,19.29,19,20.28,35.04v124.11c0,15.75-12.4,28.15-28.15,28.15s-28.84-12.4-28.84-28.15v-27.85l-56.99-52.66v80.51c0,15.75-12.79,28.15-28.44,28.15s-28.84-12.4-28.84-28.15V80.26c1.28-16.04,8.86-24.51,20.96-35.04l41.93-35.04c16.73-13.09,28.84-13.78,45.18,0Zm6.3,109.25V59.89h-56.99v59.55h56.99Z"/><path d="M1236.68,1.92c37.01,0,37.01,56.99,0,56.99-28.44,0,3.94,0-24.51,0V203.88c0,38.58-57.28,38.58-57.28,0V58.91c-28.44,0,3.94,0-24.51,0-37.3,0-37.3-56.99,0-56.99,35.24,0,70.57,0,106.3,0Z"/><path d="M1337.47,59.2v37.99h51.38c15.35,0,28.44,12.79,28.44,28.44s-13.09,28.84-29.13,28.84h-50.79v50.1c0,37.3-57.28,37.3-57.28,0V50.34c0-26.87,21.65-48.42,48.13-48.42h73.03c16.04,0,28.84,12.79,28.84,28.15s-13.39,29.13-28.84,29.13h-63.78Z"/><path d="M1496.91,2.31h65.45c25.89,0,48.42,21.26,48.42,48.42V182.33c0,23.52-22.54,48.42-46.85,48.42h-68.4c-24.21,0-48.42-24.9-48.42-48.42V50.74c.1-28.44,23.62-48.42,49.8-48.42Zm56.69,57.28h-49.11v114.56h49.11V59.6Z"/><path d="M1771.61,137.84c20.28,12.4,27.46,28.15,27.46,48.82v16.73c0,15.75-12.79,28.44-27.85,28.44-16.04,0-28.15-13.39-28.15-28.44v-16.04l-56-68.11v84.15c0,15.75-12.4,28.44-28.15,28.44s-28.84-12.79-28.84-28.44V30.86c0-16.04,12.79-28.84,28.84-28.84h63.88c13.39,0,24.51,4.92,34.35,14.07l27.85,26.87c9.84,9.84,15.35,21.26,15.35,35.33v12.79c0,22.54-10.43,37.6-28.74,46.75Zm-84.45-78.64v55.02h56V59.2h-56Z"/><path d="M1918.26,10.78l24.9,26.48,24.9-26.48c13.78-14.37,33.37-14.37,46.16,0l33.37,34.74c10.14,11.42,18.7,18.7,20.28,34.74v124.7c0,37.01-57.58,37.01-57.58,0V59.99h-38.29V204.97c0,37.99-57.28,37.99-57.28,0V59.99h-37.7V204.97c0,37.01-57.58,37.01-57.58,0V80.26c.69-16.04,9.84-23.23,20.28-34.74l33.37-34.74c12.79-14.37,32.38-14.37,45.18,0Z"/></g></svg>