<svg xmlns="http://www.w3.org/2000/svg" width="554.74" height="320.6" viewBox="0 0 554.74 320.6"><title>API platform bordel2</title><g id="Spider"><g id="_Groupe_" data-name="&lt;Groupe&gt;"><ellipse id="_Tracé_" data-name="&lt;Tracé&gt;" cx="187.11" cy="248.73" rx="41.81" ry="10.55" style="fill:#1d1e1c;opacity:0.2"/><ellipse id="_Tracé_2" data-name="&lt;Tracé&gt;" cx="100.61" cy="246.44" rx="41.81" ry="10.55" style="fill:#1d1e1c;opacity:0.2"/><ellipse id="_Tracé_3" data-name="&lt;Tracé&gt;" cx="121.18" cy="308.65" rx="41.81" ry="10.55" style="fill:#1d1e1c;opacity:0.2"/><ellipse id="_Tracé_4" data-name="&lt;Tracé&gt;" cx="41.81" cy="278.95" rx="41.81" ry="10.55" style="fill:#1d1e1c;opacity:0.2"/></g><g id="_Groupe_2" data-name="&lt;Groupe&gt;"><polygon id="_Tracé_5" data-name="&lt;Tracé&gt;" points="141.46 243.24 133.82 243.24 133.82 75.32 207.92 115.22 204.3 121.95 141.46 88.11 141.46 243.24" style="fill:#1d1e1c"/><polygon id="_Tracé_6" data-name="&lt;Tracé&gt;" points="83.41 276.4 75.83 275.44 96.94 108.51 209 125.34 207.87 132.9 103.54 117.23 83.41 276.4" style="fill:#1d1e1c"/><polygon id="_Tracé_7" data-name="&lt;Tracé&gt;" points="154.47 299.85 150.85 148.65 205.05 132.92 207.18 140.25 158.62 154.34 162.1 299.67 154.47 299.85" style="fill:#1d1e1c"/><polygon id="_Tracé_8" data-name="&lt;Tracé&gt;" points="215 236.43 190.01 161.44 225.32 153 227.1 160.43 199.89 166.94 222.25 234.01 215 236.43" style="fill:#1d1e1c"/><path id="_Tracé_9" data-name="&lt;Tracé&gt;" d="M215.57,235.6S208.21,223,197,231s-4.72,19.09-4.72,19.09,3.68,3.44,16.16,3.82,15.44,0,17.78-2.67-5.3-22.7-5.3-22.7Z" style="fill:#1d1e1c"/><path id="_Tracé_10" data-name="&lt;Tracé&gt;" d="M72.28,263.39S60.51,245.85,44.91,257s-6.57,26.57-6.57,26.57,5.11,3.77,22.48,3.79c22.61,0,22.16-6.76,23.76-11.44,2.67-7.86-5.62-22.34-5.62-22.34Z" style="fill:#1d1e1c"/><path id="_Tracé_11" data-name="&lt;Tracé&gt;" d="M132.72,235.43s-15.59-22.12-31.19-11S95,251,95,251s5.11,3.77,22.48,3.79c22.61,0,23.69-4.47,25.28-9.15,2.67-7.86-7.15-24.63-7.15-24.63Z" style="fill:#1d1e1c"/><path id="_Tracé_12" data-name="&lt;Tracé&gt;" d="M153.73,295s-14.06-21.35-29.67-10.2-6.57,26.57-6.57,26.57,5.11,4.53,22.48,4.55c22.61,0,22.91-7.26,23-12.21.39-24.16-7.92-22.34-7.92-22.34Z" style="fill:#1d1e1c"/></g><g id="_Groupe_3" data-name="&lt;Groupe&gt;"><polygon id="_Tracé_13" data-name="&lt;Tracé&gt;" points="412.55 244.26 420.19 244.26 420.19 76.34 346.08 116.24 349.7 122.97 412.55 89.13 412.55 244.26" style="fill:#1d1e1c"/><polygon id="_Tracé_14" data-name="&lt;Tracé&gt;" points="470.6 277.42 478.18 276.46 457.07 109.53 345.01 126.36 346.14 133.91 450.47 118.24 470.6 277.42" style="fill:#1d1e1c"/><polygon id="_Tracé_15" data-name="&lt;Tracé&gt;" points="399.54 300.87 403.16 149.66 348.96 133.94 346.83 141.27 395.38 155.36 391.9 300.69 399.54 300.87" style="fill:#1d1e1c"/><polygon id="_Tracé_16" data-name="&lt;Tracé&gt;" points="339.01 237.44 364 162.46 328.68 154.02 326.91 161.45 354.12 167.95 331.76 235.03 339.01 237.44" style="fill:#1d1e1c"/><path id="_Tracé_17" data-name="&lt;Tracé&gt;" d="M338.44,236.62S345.8,224,357,232s4.72,19.09,4.72,19.09-3.68,3.44-16.16,3.82-15.44,0-17.78-2.67,5.3-22.7,5.3-22.7Z" style="fill:#1d1e1c"/><path id="_Tracé_18" data-name="&lt;Tracé&gt;" d="M481.73,264.4S493.5,246.87,509.1,258s6.57,26.57,6.57,26.57-5.11,3.77-22.48,3.79c-22.61,0-22.16-6.76-23.76-11.44-2.67-7.86,5.62-22.34,5.62-22.34Z" style="fill:#1d1e1c"/><path id="_Tracé_19" data-name="&lt;Tracé&gt;" d="M421.29,236.44s15.59-22.12,31.19-11S459,252.05,459,252.05s-5.11,3.77-22.48,3.79c-22.61,0-23.69-4.47-25.28-9.15-2.67-7.86,7.15-24.63,7.15-24.63Z" style="fill:#1d1e1c"/><path id="_Tracé_20" data-name="&lt;Tracé&gt;" d="M400.28,296s14.06-21.35,29.67-10.2,6.57,26.57,6.57,26.57-5.11,4.53-22.48,4.55c-22.61,0-22.91-7.26-23-12.21-.39-24.16,7.92-22.34,7.92-22.34Z" style="fill:#1d1e1c"/></g><g id="_Groupe_4" data-name="&lt;Groupe&gt;"><path id="_Tracé_21" data-name="&lt;Tracé&gt;" d="M362.21,104.55c0,46.1-36.76,70.49-82.11,70.49s-79.82-24.39-79.82-70.49,34.47-62.09,79.82-62.09S362.21,58.45,362.21,104.55Z" style="fill:#38a9b4"/><path id="_Tracé_transparent_" data-name="&lt;Tracé transparent&gt;" d="M279.1,178.86c-24,0-44.51-6.51-59.35-18.84-15.89-13.19-24.28-32.37-24.28-55.47,0-43.12,28.92-65.91,83.63-65.91C334.51,38.64,365,62,365,104.55c0,23-8.81,42.21-25.48,55.52C324.36,172.19,302.9,178.86,279.1,178.86Zm0-132.58c-50.43,0-76,19.6-76,58.27,0,41.12,29.12,66.67,76,66.67,47.56,0,78.29-26.17,78.29-66.67C357.39,56.39,314.82,46.28,279.1,46.28Z" style="fill:#1d1e1c"/></g><g id="_Groupe_5" data-name="&lt;Groupe&gt;"><ellipse id="_Tracé_22" data-name="&lt;Tracé&gt;" cx="249.17" cy="55.59" rx="51.17" ry="52.92" style="fill:#fff"/><path id="_Tracé_transparent_2" data-name="&lt;Tracé transparent&gt;" d="M248.17,111.19c-29.69,0-53.85-24.94-53.85-55.59S218.48,0,248.17,0,302,24.94,302,55.59,277.86,111.19,248.17,111.19Zm0-105.84c-26.74,0-48.5,22.54-48.5,50.25s21.76,50.25,48.5,50.25,48.5-22.54,48.5-50.25S274.91,5.35,248.17,5.35Z" style="fill:#1d1e1c"/></g><g id="_Groupe_6" data-name="&lt;Groupe&gt;"><ellipse id="_Tracé_23" data-name="&lt;Tracé&gt;" cx="325.62" cy="64.23" rx="42.22" ry="41.4" style="fill:#fff"/><path id="_Tracé_transparent_3" data-name="&lt;Tracé transparent&gt;" d="M324.62,108.31c-24.75,0-44.89-19.77-44.89-44.08s20.14-44.08,44.89-44.08,44.89,19.77,44.89,44.08S349.37,108.31,324.62,108.31Zm0-82.81c-21.8,0-39.54,17.37-39.54,38.73S302.81,103,324.62,103s39.54-17.37,39.54-38.73S346.42,25.5,324.62,25.5Z" style="fill:#1d1e1c"/></g><circle id="_Tracé_24" data-name="&lt;Tracé&gt;" cx="252.48" cy="58.38" r="23.57" style="fill:#1d1e1c"/><circle id="_Tracé_25" data-name="&lt;Tracé&gt;" cx="265.12" cy="54.8" r="6.5" style="fill:#fff"/><ellipse id="_Tracé_26" data-name="&lt;Tracé&gt;" cx="329" cy="66.68" rx="19.1" ry="18.33" style="fill:#1d1e1c"/><circle id="_Tracé_27" data-name="&lt;Tracé&gt;" cx="325.31" cy="63.41" r="5.26" style="fill:#fff"/><g id="_Groupe_7" data-name="&lt;Groupe&gt;"><ellipse id="_Tracé_28" data-name="&lt;Tracé&gt;" cx="367.63" cy="250.13" rx="41.81" ry="10.55" style="fill:#1d1e1c;opacity:0.2"/><ellipse id="_Tracé_29" data-name="&lt;Tracé&gt;" cx="454.13" cy="247.84" rx="41.81" ry="10.55" style="fill:#1d1e1c;opacity:0.2"/><ellipse id="_Tracé_30" data-name="&lt;Tracé&gt;" cx="433.56" cy="310.05" rx="41.81" ry="10.55" style="fill:#1d1e1c;opacity:0.2"/><ellipse id="_Tracé_31" data-name="&lt;Tracé&gt;" cx="512.93" cy="280.35" rx="41.81" ry="10.55" style="fill:#1d1e1c;opacity:0.2"/></g></g></svg>