<?xml version="1.0" encoding="UTF-8"?><svg id="a" xmlns="http://www.w3.org/2000/svg" viewBox="0 0 234.32 84.87"><defs><style>.b{fill:#060300;}</style></defs><g><path class="b" d="M98.6,1.6l6.81,5.56c1.98,1.66,3.07,3.01,3.22,5.56v19.7c0,2.49-1.98,4.47-4.47,4.47s-4.57-1.97-4.57-4.47v-4.42l-9.04-8.37v12.78c0,2.49-2.03,4.47-4.52,4.47s-4.57-1.97-4.57-4.47V12.72c.21-2.55,1.4-3.9,3.33-5.56l6.65-5.56c2.65-2.08,4.57-2.18,7.17,0Zm.99,17.36V9.5h-9.04v9.46h9.04Z"/><path class="b" d="M122.2,27.74v4.37c0,2.55-1.87,4.63-4.42,4.63s-4.57-2.08-4.57-4.63V7.94c0-4.21,3.48-7.69,7.69-7.69h6.91c2.08,0,3.85,.73,5.35,2.13l4.99,4.99c3.27,3.12,2.7,10.81-.47,13.88l-4.52,4.31c-1.51,1.51-3.27,2.18-5.35,2.18h-5.61Zm8.73-9.09V9.34l-8.63-.1v9.41h8.63Z"/><path class="b" d="M143.45,32.74V15.96c0-2.28,1.92-4.29,4.57-4.29s4.63,1.83,4.63,4.06v17c0,2.24-2.03,4.11-4.63,4.11s-4.57-1.87-4.57-4.11Zm9-23.16h-8.81V.34h8.81V9.57Z"/></g><g><path class="b" d="M8.99,75.57v4.37c0,2.55-1.87,4.63-4.42,4.63s-4.57-2.08-4.57-4.63v-24.16c0-4.21,3.48-7.69,7.69-7.69h6.91c2.08,0,3.85,.73,5.35,2.13l4.99,4.99c3.27,3.12,2.7,10.81-.47,13.88l-4.52,4.31c-1.51,1.51-3.27,2.18-5.35,2.18h-5.61Zm8.73-9.09v-9.3l-8.63-.1v9.41h8.63Z"/><path class="b" d="M29.78,76.66v-24.27c0-2.44,2.13-4.47,4.57-4.47,2.6,0,4.63,2.03,4.63,4.47v23.07c4.57,0,3.27-.1,7.8-.1,5.98,0,5.98,9.15,0,9.15h-9.09c-4.31,0-7.9-3.53-7.9-7.85Z"/><path class="b" d="M70.78,49.43l6.81,5.56c1.97,1.66,3.07,3.01,3.22,5.56v19.7c0,2.49-1.97,4.47-4.47,4.47s-4.57-1.97-4.57-4.47v-4.42l-9.04-8.37v12.78c0,2.49-2.03,4.47-4.52,4.47s-4.57-1.97-4.57-4.47v-19.7c.21-2.55,1.4-3.9,3.33-5.56l6.65-5.56c2.65-2.08,4.57-2.18,7.17,0Zm.99,17.36v-9.46h-9.04v9.46h9.04Z"/><path class="b" d="M102.38,48.13c5.87,0,5.87,9.04,0,9.04-4.52,0,.62,0-3.9,0v23.02c0,6.13-9.09,6.13-9.09,0v-23.02c-4.52,0,.62,0-3.9,0-5.92,0-5.92-9.04,0-9.04h16.89Z"/><path class="b" d="M118.38,57.23v6.03h8.16c2.44,0,4.52,2.03,4.52,4.52s-2.08,4.57-4.63,4.57h-8.05v7.95c0,5.92-9.09,5.92-9.09,0v-24.48c0-4.26,3.43-7.69,7.64-7.69h11.59c2.55,0,4.57,2.03,4.57,4.47s-2.13,4.62-4.57,4.62h-10.13Z"/><path class="b" d="M143.69,48.18h10.39c4.11,0,7.69,3.38,7.69,7.69v20.89c0,3.74-3.59,7.69-7.43,7.69h-10.86c-3.85,0-7.69-3.95-7.69-7.69v-20.89c0-4.52,3.74-7.69,7.9-7.69Zm8.99,9.09h-7.8v18.19h7.8v-18.19Z"/><path class="b" d="M187.29,69.7c3.22,1.97,4.37,4.47,4.37,7.74v2.65c0,2.49-2.03,4.52-4.42,4.52-2.55,0-4.47-2.13-4.47-4.52v-2.55l-8.89-10.81v13.36c0,2.49-1.97,4.52-4.47,4.52s-4.57-2.03-4.57-4.52v-27.39c0-2.55,2.03-4.57,4.57-4.57h10.13c2.13,0,3.9,.78,5.46,2.23l4.42,4.26c1.56,1.56,2.44,3.38,2.44,5.61v2.03c0,3.59-1.66,5.98-4.57,7.43Zm-13.41-12.47v8.73h8.89v-8.73h-8.89Z"/><path class="b" d="M210.57,49.54l3.95,4.21,3.95-4.21c2.18-2.29,5.3-2.29,7.33,0l5.3,5.51c1.61,1.82,2.96,2.96,3.22,5.51v19.8c0,5.87-9.15,5.87-9.15,0v-23.02h-6.08v23.02c0,6.03-9.09,6.03-9.09,0v-23.02h-5.98v23.02c0,5.87-9.15,5.87-9.15,0v-19.8c.1-2.55,1.56-3.69,3.22-5.51l5.3-5.51c2.03-2.29,5.14-2.29,7.17,0Z"/></g></svg>