<?xml version="1.0" encoding="utf-8"?>
<!-- Generator: Adobe Illustrator 27.2.0, SVG Export Plug-In . SVG Version: 6.00 Build 0)  -->
<svg version="1.1" xmlns="http://www.w3.org/2000/svg" xmlns:xlink="http://www.w3.org/1999/xlink" x="0px" y="0px"
	 viewBox="0 0 2507.4 2151.2" enable-background="new 0 0 2507.4 2151.2" xml:space="preserve">
<g id="Background">
</g>
<g id="Illustration">
	<g>
		
			<radialGradient id="SVGID_1_" cx="1537.6967" cy="1951.546" r="639.2348" gradientTransform="matrix(1.3331 0 0 0.3 -717.7788 1366.0822)" gradientUnits="userSpaceOnUse">
			<stop  offset="0" style="stop-color:#010000;stop-opacity:0.5"/>
			<stop  offset="1" style="stop-color:#000000;stop-opacity:0"/>
		</radialGradient>
		<ellipse fill="url(#SVGID_1_)" cx="1332.1" cy="1951.5" rx="1175.4" ry="199.6"/>
		<g>
			<g>
				
					<linearGradient id="SVGID_00000124138532791261445160000015662874108627398294_" gradientUnits="userSpaceOnUse" x1="261.0211" y1="883.0739" x2="669.425" y2="840.4048">
					<stop  offset="3.597000e-03" style="stop-color:#005E62"/>
					<stop  offset="1" style="stop-color:#009A9E"/>
				</linearGradient>
				<path fill="url(#SVGID_00000124138532791261445160000015662874108627398294_)" d="M88.9,1690.3C40,1693,0,1660.4,0,1617.6V74.6
					C0,31.8,40-1.6,88.9,0.1l2309.7,79.9c37.4,1.3,67.7,32.6,67.7,69.8v1340.7c0,37.2-30.3,69.1-67.7,71.2L88.9,1690.3z"/>
				
					<linearGradient id="SVGID_00000140727398737005312020000003150251981397885845_" gradientUnits="userSpaceOnUse" x1="1135.4507" y1="2081.0952" x2="1220.0266" y2="1959.9458">
					<stop  offset="0" style="stop-color:#009A9E"/>
					<stop  offset="0.9964" style="stop-color:#005E62"/>
				</linearGradient>
				<path fill="url(#SVGID_00000140727398737005312020000003150251981397885845_)" d="M1594.7,1861c-36.9-12.2-64.5-43.6-72.3-82.1
					l-53.7-265.9l-459.6,16.3l-56.6,277c-7.9,38.8,23.8,77.7,60.3,92l192.3,75.2c35.8,14,74.2,19.6,112.4,16.3l406.4-34.8
					c11.9-1,21.4-10.4,22.8-22.3c1.4-12,9.7-25.4-1.6-29.2L1594.7,1861z"/>
				
					<linearGradient id="SVGID_00000100382950022841712070000017288700976401384377_" gradientUnits="userSpaceOnUse" x1="1392.5902" y1="2044.4889" x2="1264.5828" y2="1349.593">
					<stop  offset="0" style="stop-color:#009A9E"/>
					<stop  offset="0.9964" style="stop-color:#005E62"/>
				</linearGradient>
				<path fill="url(#SVGID_00000100382950022841712070000017288700976401384377_)" d="M1599.3,1844.9c-36.9-12.1-64.4-43-72.2-81.1
					l-53.7-262.6l-448.4,16.1l-56.5,273.6c-7.9,38.3,13,76.7,49.5,90.8l192.1,74.3c35.7,13.8,74.1,19.3,112.3,16.1l406-34.3
					c11.9-1,21.4-10.2,22.8-22.1c1.4-11.8-5.8-23-17.1-26.7L1599.3,1844.9z"/>
				<g>
					<g>
						
							<linearGradient id="SVGID_00000115481143032501153940000010559408757861062274_" gradientUnits="userSpaceOnUse" x1="1711.3984" y1="126.3503" x2="2360.5771" y2="-800.1776">
							<stop  offset="0" style="stop-color:#009A9E"/>
							<stop  offset="0.9964" style="stop-color:#005E62"/>
						</linearGradient>
						<path fill="url(#SVGID_00000115481143032501153940000010559408757861062274_)" d="M107.2,1690.3
							c-48.9,2.7-88.9-29.9-88.9-72.7V74.6c0-42.8,40-76.3,88.9-74.6l2309.7,79.9c37.4,1.3,67.7,32.6,67.7,69.8v1340.7
							c0,37.2-30.3,69.1-67.7,71.2L107.2,1690.3z"/>
						
							<linearGradient id="SVGID_00000095296584780479726840000012000535446799078074_" gradientUnits="userSpaceOnUse" x1="1427.2534" y1="241.6097" x2="622.6383" y2="2797.1772">
							<stop  offset="0" style="stop-color:#009A9E"/>
							<stop  offset="0.9964" style="stop-color:#005E62"/>
						</linearGradient>
						<path fill="url(#SVGID_00000095296584780479726840000012000535446799078074_)" d="M2416.9,111.5L107.2,36
							c-26.2-0.9-47.4,17-47.4,39.9v1200.4v339.1c0,22.9,21.3,40.3,47.4,38.9l2309.7-124.2c20.1-1.1,36.3-18.1,36.3-38.1v-306.4
							V148.8C2453.2,128.8,2437,112.1,2416.9,111.5z"/>
						
							<linearGradient id="SVGID_00000121969874547983233680000003533975754608000645_" gradientUnits="userSpaceOnUse" x1="1822.3535" y1="-192.7765" x2="-99.1543" y2="2989.0769">
							<stop  offset="0" style="stop-color:#084E5E"/>
							<stop  offset="1" style="stop-color:#1E6A72"/>
						</linearGradient>
						<path fill="url(#SVGID_00000121969874547983233680000003533975754608000645_)" d="M107.2,1523.1c-10.2,0.5-18.5-6.4-18.5-15.3
							V76.8c0-8.9,8.3-15.9,18.5-15.6l2309.7,72.3c7.8,0.2,14.2,6.8,14.2,14.6v1252.2c0,7.8-6.4,14.4-14.2,14.8L107.2,1523.1z"/>
					</g>
					<g>
						<polygon opacity="0.68" fill="#FFFFFF" points="2338.2,1337.9 208.5,1427.1 208.5,275.1 2338.2,317.7 						"/>
						
							<linearGradient id="SVGID_00000111161998825326513210000003588977411081871026_" gradientUnits="userSpaceOnUse" x1="1271.7697" y1="223.4736" x2="1226.0811" y2="601.6718">
							<stop  offset="0" style="stop-color:#009A9E"/>
							<stop  offset="0.9964" style="stop-color:#005E62"/>
						</linearGradient>
						<polygon fill="url(#SVGID_00000111161998825326513210000003588977411081871026_)" points="2338.2,282.8 208.5,235.7 
							208.5,137.3 2338.2,195.7 						"/>
						<g>
							
								<linearGradient id="SVGID_00000114751880927166530790000003095217545178422454_" gradientUnits="userSpaceOnUse" x1="2263.0928" y1="27.2467" x2="2171.8518" y2="220.4635">
								<stop  offset="0" style="stop-color:#084E5E"/>
								<stop  offset="1" style="stop-color:#1E6A72"/>
							</linearGradient>
							<path fill="url(#SVGID_00000114751880927166530790000003095217545178422454_)" d="M2176.5,235.3c0,6.2-5.1,11.1-11.5,11
								c-6.4-0.2-11.5-5.3-11.5-11.6c0-6.2,5.2-11.1,11.5-11C2171.3,223.9,2176.5,229,2176.5,235.3z"/>
							
								<linearGradient id="SVGID_00000033329806310478407730000014962309032160294055_" gradientUnits="userSpaceOnUse" x1="2301.5801" y1="46.8645" x2="2210.6428" y2="239.4379">
								<stop  offset="0" style="stop-color:#084E5E"/>
								<stop  offset="1" style="stop-color:#1E6A72"/>
							</linearGradient>
							<path fill="url(#SVGID_00000033329806310478407730000014962309032160294055_)" d="M2223.6,236.4c0,6.2-5.1,11.1-11.4,11
								c-6.3-0.2-11.4-5.3-11.4-11.5c0-6.2,5.1-11.1,11.4-11C2218.5,225.1,2223.6,230.2,2223.6,236.4z"/>
							
								<linearGradient id="SVGID_00000147202950180859879850000009616133752448642726_" gradientUnits="userSpaceOnUse" x1="2339.8594" y1="66.3513" x2="2249.2227" y2="258.288">
								<stop  offset="0" style="stop-color:#084E5E"/>
								<stop  offset="1" style="stop-color:#1E6A72"/>
							</linearGradient>
							<path fill="url(#SVGID_00000147202950180859879850000009616133752448642726_)" d="M2270.5,237.6c0,6.2-5.1,11.1-11.4,10.9
								c-6.3-0.2-11.4-5.3-11.4-11.5c0-6.2,5.1-11.1,11.4-10.9C2265.4,226.3,2270.5,231.4,2270.5,237.6z"/>
						</g>
						<g>
							
								<linearGradient id="SVGID_00000119083198108285162970000010936434398130712963_" gradientUnits="userSpaceOnUse" x1="1244.4559" y1="473.8862" x2="443.4632" y2="1727.4384">
								<stop  offset="0" style="stop-color:#19CDD1"/>
								<stop  offset="0.9964" style="stop-color:#087F7C"/>
							</linearGradient>
							<polygon fill="url(#SVGID_00000119083198108285162970000010936434398130712963_)" points="1907.2,1154.1 255,1203.5 255,305 
								1907.2,335.5 							"/>
							
								<linearGradient id="SVGID_00000132784779550141233750000000179138538617369777_" gradientUnits="userSpaceOnUse" x1="1194.3214" y1="933.4673" x2="682.4704" y2="1734.5133">
								<stop  offset="0" style="stop-color:#009A9E"/>
								<stop  offset="0.9964" style="stop-color:#005E62"/>
							</linearGradient>
							<polygon fill="url(#SVGID_00000132784779550141233750000000179138538617369777_)" points="1907.2,1154.1 255,1203.5 
								255,1067.3 1907.2,1029.9 							"/>
							<g>
								<defs>
									<polygon id="SVGID_00000006675667405346611950000006674820099034002082_" points="1907.2,1154.1 255,1203.5 255,305 
										1907.2,335.5 									"/>
								</defs>
								<clipPath id="SVGID_00000154396719346955000920000004251145976470632875_">
									<use xlink:href="#SVGID_00000006675667405346611950000006674820099034002082_"  overflow="visible"/>
								</clipPath>
							</g>
							<g>
								
									<linearGradient id="SVGID_00000121237310151181212130000015014255129716524175_" gradientUnits="userSpaceOnUse" x1="1229.0846" y1="518.1725" x2="634.6288" y2="1662.2216">
									<stop  offset="0" style="stop-color:#16B2B2"/>
									<stop  offset="0.9964" style="stop-color:#075B57"/>
								</linearGradient>
								<path fill="url(#SVGID_00000121237310151181212130000015014255129716524175_)" d="M1351.2,721.5
									c0,115.2-100.7,209.6-225.9,211c-126.5,1.4-230-92.5-230-209.8c0-117.2,103.5-211.7,230-211
									C1250.5,512.4,1351.2,606.3,1351.2,721.5z"/>
								<polygon opacity="0.68" fill="#FFFFFF" points="1035.5,844.3 1035.5,600.3 1298.2,721.6 								"/>
							</g>
							<polygon opacity="0.68" fill="#FFFFFF" points="1875.8,1105.4 292.6,1148.1 292.6,1126.2 1875.8,1085.3 							"/>
							
								<linearGradient id="SVGID_00000140737180689087892960000004614243582328491438_" gradientUnits="userSpaceOnUse" x1="507.1619" y1="935.6823" x2="501.4187" y2="1498.5439">
								<stop  offset="0" style="stop-color:#19CDD1"/>
								<stop  offset="0.9964" style="stop-color:#087F7C"/>
							</linearGradient>
							<polygon fill="url(#SVGID_00000140737180689087892960000004614243582328491438_)" points="717.7,1136.6 292.6,1148.1 
								292.6,1126.2 717.7,1115.2 							"/>
							<path fill="#FFFFFF" d="M731.1,1125.6c0,17.7-15.9,32.5-35.6,33.1c-19.7,0.6-35.8-13.4-35.8-31.2c0-17.8,16-32.6,35.8-33.1
								C715.2,1093.9,731.1,1107.8,731.1,1125.6z"/>
						</g>
						<g>
							<g>
								<polygon opacity="0.68" fill="#FFFFFF" points="2315.5,573.5 1936.1,571.8 1936.1,336 2315.5,343 								"/>
								<g opacity="0.68">
									
										<linearGradient id="SVGID_00000015334576834522324650000001009081707798478501_" gradientUnits="userSpaceOnUse" x1="2081.3137" y1="456.0888" x2="2174.3267" y2="456.0888">
										<stop  offset="0" style="stop-color:#19CDD1"/>
										<stop  offset="0.9964" style="stop-color:#087F7C"/>
									</linearGradient>
									<path fill="url(#SVGID_00000015334576834522324650000001009081707798478501_)" d="M2174.3,456.6c0,25.1-20.7,45.2-46.4,45
										c-25.7-0.2-46.6-20.8-46.6-46c0-25.2,20.9-45.3,46.6-45C2153.6,410.9,2174.3,431.6,2174.3,456.6z"/>
									<polygon opacity="0.68" fill="#FFFFFF" points="2109.7,482.2 2109.7,429.5 2163.4,456.5 									"/>
								</g>
							</g>
							<polygon fill="#FFFFFF" points="2315.5,615.7 1936.1,614.9 1936.1,597.3 2315.5,598.4 							"/>
							<polygon fill="#FFFFFF" points="2174.3,645.5 1936.1,645.4 1936.1,627.8 2174.3,628.1 							"/>
						</g>
						<g>
							<g>
								<polygon opacity="0.68" fill="#FFFFFF" points="2315.5,911.5 1936.1,917.6 1936.1,681.8 2315.5,681.1 								"/>
								<g opacity="0.68">
									
										<linearGradient id="SVGID_00000102514339615473663210000015728572141169410188_" gradientUnits="userSpaceOnUse" x1="2081.3137" y1="797.9852" x2="2174.3267" y2="797.9852">
										<stop  offset="0" style="stop-color:#19CDD1"/>
										<stop  offset="0.9964" style="stop-color:#087F7C"/>
									</linearGradient>
									<path fill="url(#SVGID_00000102514339615473663210000015728572141169410188_)" d="M2174.3,797.6
										c0,25.1-20.7,45.6-46.4,45.9c-25.7,0.3-46.6-19.9-46.6-45.1c0-25.2,20.9-45.8,46.6-45.9
										C2153.6,752.3,2174.3,772.5,2174.3,797.6z"/>
									<polygon opacity="0.68" fill="#FFFFFF" points="2109.7,824.5 2109.7,771.8 2163.4,797.7 									"/>
								</g>
							</g>
							<polygon fill="#FFFFFF" points="2315.5,953.7 1936.1,960.8 1936.1,943.1 2315.5,936.5 							"/>
							<polygon fill="#FFFFFF" points="2174.3,986.4 1936.1,991.3 1936.1,973.6 2174.3,969 							"/>
						</g>
						<g>
							<g>
								<polygon opacity="0.68" fill="#FFFFFF" points="2315.5,1249.6 1936.1,1263.4 1936.1,1027.7 2315.5,1019.1 								"/>
								<g opacity="0.68">
									
										<linearGradient id="SVGID_00000079473298589436105730000017245334316088912297_" gradientUnits="userSpaceOnUse" x1="2081.3137" y1="1139.8811" x2="2174.3267" y2="1139.8811">
										<stop  offset="0" style="stop-color:#19CDD1"/>
										<stop  offset="0.9964" style="stop-color:#087F7C"/>
									</linearGradient>
									<path fill="url(#SVGID_00000079473298589436105730000017245334316088912297_)" d="M2174.3,1138.5
										c0,25.1-20.7,46.1-46.4,46.9c-25.7,0.8-46.6-18.9-46.6-44.1c0-25.2,20.9-46.2,46.6-46.9
										C2153.6,1093.7,2174.3,1113.4,2174.3,1138.5z"/>
									<polygon opacity="0.68" fill="#FFFFFF" points="2109.7,1166.8 2109.7,1114.1 2163.4,1138.8 									"/>
								</g>
							</g>
							<polygon fill="#FFFFFF" points="2315.5,1291.8 1936.1,1306.6 1936.1,1288.9 2315.5,1274.5 							"/>
							<polygon fill="#FFFFFF" points="2174.3,1327.4 1936.1,1337.1 1936.1,1319.4 2174.3,1310 							"/>
						</g>
						<g>
							<polygon fill="#FFFFFF" points="1398.4,1264.3 255,1304.8 255,1245.7 1398.4,1208.9 							"/>
							<polygon fill="#FFFFFF" points="1907.2,1246.3 1744.1,1252.1 1744.1,1197.8 1907.2,1192.5 							"/>
							<polygon fill="#FFFFFF" points="1718.9,1253 1552.1,1258.9 1552.1,1203.9 1718.9,1198.6 							"/>
							<polygon fill="#FFFFFF" points="778.1,1355.6 255,1376.1 255,1346.6 778.1,1326.9 							"/>
						</g>
					</g>
				</g>
			</g>
		</g>
	</g>
</g>
</svg>
