<?xml version="1.0" encoding="UTF-8"?><svg id="a" xmlns="http://www.w3.org/2000/svg" xmlns:xlink="http://www.w3.org/1999/xlink" viewBox="0 0 278.65 339.52"><defs><style>.h{fill:url(#e);}.i{fill:url(#d);}.j{fill:url(#g);}.k{fill:url(#f);}.l{fill:url(#c);}.m{fill:url(#b);}.n{fill:#fff;}.o,.p{fill:#1d1e1c;}.q{fill:#38a9b4;}.p{isolation:isolate;opacity:.2;}</style><linearGradient id="b" x1="-688.55" y1="1609.02" x2="-550.03" y2="1609.02" gradientTransform="translate(625.36 -1581.47) rotate(-3.65)" gradientUnits="userSpaceOnUse"><stop offset="0" stop-color="#333"/><stop offset=".09" stop-color="#212121"/><stop offset=".22" stop-color="#000"/><stop offset="1" stop-color="#333"/></linearGradient><linearGradient id="c" x1="-679.95" y1="1658.3" x2="-555.69" y2="1658.3" gradientTransform="translate(625.36 -1581.47) rotate(-3.65)" gradientUnits="userSpaceOnUse"><stop offset=".3" stop-color="#851e11"/><stop offset=".99" stop-color="#f13c31"/></linearGradient><linearGradient id="d" x1="-718.91" y1="1623.32" x2="-519.9" y2="1623.32" gradientTransform="translate(625.36 -1581.47) rotate(-3.65)" gradientUnits="userSpaceOnUse"><stop offset="0" stop-color="#333"/><stop offset=".05" stop-color="#252626"/><stop offset=".12" stop-color="#1a1a1a"/><stop offset=".22" stop-color="#131414"/><stop offset=".5" stop-color="#111212"/><stop offset=".78" stop-color="#131414"/><stop offset=".88" stop-color="#1a1a1a"/><stop offset=".95" stop-color="#252626"/><stop offset="1" stop-color="#333"/></linearGradient><linearGradient id="e" x1="-718.02" y1="1676.41" x2="-520.79" y2="1676.41" gradientTransform="translate(625.34 -1581.41) rotate(-3.65)" gradientUnits="userSpaceOnUse"><stop offset="0" stop-color="#333"/><stop offset=".05" stop-color="#2d2d2d"/><stop offset=".17" stop-color="#262828"/><stop offset=".5" stop-color="#242626"/><stop offset=".83" stop-color="#262828"/><stop offset=".95" stop-color="#2d2d2d"/><stop offset="1" stop-color="#333"/></linearGradient><linearGradient id="f" x1="-717.95" y1="1678.14" x2="-520.73" y2="1678.14" gradientTransform="translate(625.34 -1581.41) rotate(-3.65)" xlink:href="#d"/><linearGradient id="g" x1="-681.25" y1="1686.5" x2="-557.29" y2="1686.5" gradientTransform="translate(625.34 -1581.41) rotate(-3.65)" gradientUnits="userSpaceOnUse"><stop offset="0" stop-color="#000"/><stop offset=".86" stop-color="#000"/><stop offset="1" stop-color="#000"/></linearGradient></defs><g><path class="m" d="M53.16,121.02c.86-47.83-10.84-83.45-14.97-94.63-.34-1.03-.52-2.24-.17-3.44s1.03-2.24,2.06-2.92C47.14,14.69,65.9,3.5,101.68,1.27c36.65-2.41,61.77,6.19,71.23,10.32,1.72,.69,3.1,2.41,3.27,4.3,.17,.69,.17,1.2,0,1.89-2.58,14.45-9.81,62.46-.86,98.07,.69,3.1-1.03,6.02-4.13,6.88-.34,.17-.86,.17-1.2,.17l-110.98,4.13c-3.1,.17-5.68-2.41-5.85-5.51v-.52Z"/><path class="l" d="M172.74,103.12c-12.04-2.58-31.49-5.33-59.01-3.79-39.74,2.24-60.39,13.08-60.39,13.08l-.17,.34c0,4.65,0,9.46-.17,14.28l124.22-4.65c-2.06-6.19-3.61-12.73-4.47-19.27Z"/><path class="i" d="M115.62,155.94c-55.57,3.61-99.96-3.79-100.82-16.69v-.86c0-.34-.17-.52-.17-.86-.52-7.4,13.25-14.97,37.68-20.82,.17-30.63-4.82-61.08-14.97-89.98-1.03-2.75-.17-5.68,2.06-7.4C45.94,14.34,64.86,2.64,101.34,.41c36.99-2.41,62.28,6.54,71.57,10.32,2.75,1.2,4.47,4.13,3.79,7.23-2.24,12.73-8.95,56.61-2.24,91.36,14.45,1.72,38.02,5.85,38.71,15.66v.86c0,.34,.17,.52,.17,.86,.86,12.73-42.15,25.64-97.73,29.25ZM101.51,1.95c-35.96,2.24-54.71,13.76-61.08,18.58-.86,.69-1.38,1.55-1.72,2.41-.34,1.03-.17,2.06,.17,3.1,4.65,12.22,15.31,45.94,15.14,91.36v.69l-.69,.17c-23.57,5.68-37.34,12.73-36.99,19.27,0,.17,0,.52,.17,.69v1.03c.69,10.32,40.6,18.75,98.93,15.14,58.33-3.61,96.87-17.21,96.35-27.53,0-.17,0-.52-.17-.69v-1.03c-.34-6.37-14.45-11.7-37.85-14.28h-.52l-.17-.52c-6.88-35.1-.17-79.83,2.06-92.57,.17-.52,.17-1.2,0-1.72-.34-1.55-1.38-2.92-2.92-3.61C163.28,8.32,138.16-.45,101.51,1.95Z"/><path class="h" d="M112.52,108.97c54.37-3.44,99.1,3.61,99.79,15.83,.86,12.22-42.67,24.95-97.04,28.39-54.37,3.44-99.1-3.61-99.79-15.83-.69-12.04,42.67-24.78,97.04-28.39Z"/><path class="k" d="M112.7,110.69c54.37-3.44,99.1,3.61,99.79,15.83,.69,12.22-42.67,24.95-97.04,28.39-54.37,3.44-99.1-3.61-99.79-15.83-.86-12.22,42.67-24.95,97.04-28.39Z"/><path class="j" d="M113.9,129.79c34.24-2.24,62.11,1.2,62.63,7.4,.34,6.37-27.01,13.25-61.08,15.31-34.24,2.24-62.11-1.2-62.63-7.4-.52-6.19,26.84-13.08,61.08-15.31Z"/><ellipse class="p" cx="21.85" cy="320.43" rx="17.89" ry="4.82"/><polygon class="o" points="54.89 271.56 50.58 271.56 35.62 178.31 58.84 191.04 56.26 193.79 40.6 185.71 54.89 271.56"/><polygon class="o" points="40.6 301.5 38.71 308.38 0 176.93 62.28 202.91 58.5 205.84 5.68 183.47 40.6 301.5"/><polygon class="o" points="86.2 320.6 29.08 222.7 77.6 224.25 79.32 228.38 37.85 227.69 91.88 320.43 86.2 320.6"/><polyline class="o" points="99.96 192.93 101 255.22 96.35 254.53 94.11 188.98"/><path class="o" d="M96.01,254.01s-5.33-9.46-11.01-3.44c-5.85,6.02-2.41,14.28-2.41,14.28,0,0,1.89,2.58,8.26,2.75,6.37,.17,7.91,0,9.12-1.89,1.2-1.89,1.03-11.01,1.03-11.01l-4.99-.69Z"/><path class="o" d="M38.88,307.52c1.72,2.58-11.18-13.08-18.93-6.19-9.29,8.26-3.96,19.79-3.96,19.79,0,0,3.1,2.75,13.59,2.75,13.59,0,12.56-3.61,13.59-7.05,1.55-5.85-3.44-18.24-3.44-18.24l-.86,8.95Z"/><path class="o" d="M50.58,269.67s-2.41-8.77-8.6-3.27c-2.92,2.58-4.13,6.37-3.44,10.15,.34,2.24,1.89,3.96,3.96,4.47,1.89,.52,3.79,.69,5.68,.52,8.95-.34,7.74-3.27,7.74-4.47,.17-4.3-.69-8.43-2.75-12.22l-2.58,4.82Z"/><path class="o" d="M86.2,319.91s-7.91-13.76-17.55-5.33c-9.64,8.43-2.58,19.1-2.58,19.1,0,0,3.1,3.44,13.76,3.44,13.94,0,15.14-7.05,14.11-10.67-3.44-12.22-5.68-6.71-5.68-6.88l-2.06,.34Z"/><polygon class="o" points="182.03 300.12 186.16 304.6 210.77 241.11 144.87 223.9 140.4 229.75 202.85 244.72 182.03 300.12"/><polygon class="o" points="124.57 321.98 136.96 241.97 107.02 229.58 105.3 235.09 131.11 246.27 119.58 321.98 124.57 321.98"/><polyline class="o" points="138.33 197.75 137.3 257.45 141.94 259.35 144.18 193.62"/><path class="o" d="M142.12,258.66s4.47-9.46,10.32-3.44,2.41,14.28,2.41,14.28c0,0-1.89,2.58-8.26,2.92-6.37,.34-7.91,0-9.12-2.06s.17-16.69,.17-16.69l4.47,4.99Z"/><path class="o" d="M186.85,303.74s7.91-15.31,17.38-7.05c4.13,3.61,6.19,9.12,5.33,14.45-.52,3.61-3.27,6.71-6.88,7.4-2.58,.52-5.33,.69-8.09,.69-13.59,0-13.25-4.99-14.28-8.6-1.55-5.85,2.06-11.7,2.06-11.7l4.47,4.82Z"/><path class="o" d="M125.43,317.67s7.23-12.9,16.69-4.65c9.46,8.26,4.13,19.79,4.13,19.79,0,0-3.1,3.44-13.76,3.44-13.94,0-14.62-7.05-14.11-10.67,2.24-15.31,4.82-11.36,4.82-11.36l2.24,3.44Z"/><ellipse class="p" cx="73.81" cy="333.16" rx="19.79" ry="6.37"/><ellipse class="p" cx="44.73" cy="276.72" rx="11.53" ry="5.16"/><ellipse class="p" cx="87.92" cy="263.3" rx="13.08" ry="5.16"/><ellipse class="p" cx="200.96" cy="315.95" rx="17.89" ry="4.82"/><ellipse class="p" cx="139.54" cy="332.47" rx="19.79" ry="6.37"/><ellipse class="p" cx="149.86" cy="268.64" rx="13.08" ry="5.16"/><path class="q" d="M175.32,184.85c0,34.41-27.53,52.65-61.25,52.65s-59.53-18.24-59.53-52.65,25.81-46.28,59.53-46.28,61.25,11.87,61.25,46.28Z"/><path class="o" d="M113.21,240.42c-17.89,0-33.21-4.82-44.22-14.11-11.87-9.81-18.07-24.09-18.07-41.47,0-32.17,21.51-49.21,62.46-49.21s64.18,17.55,64.18,49.21c0,17.21-6.54,31.49-18.93,41.47-11.7,9.12-27.7,14.11-45.42,14.11Zm0-98.93c-37.68,0-56.78,14.62-56.78,43.53,0,30.63,21.68,49.72,56.78,49.72s58.5-19.44,58.5-49.72c0-36.13-31.83-43.53-58.5-43.53Z"/><ellipse class="n" cx="90.84" cy="148.37" rx="38.2" ry="39.57"/><path class="o" d="M90.16,189.84c-22.2,0-40.26-18.58-40.26-41.47s18.07-41.47,40.26-41.47,40.26,18.58,40.26,41.47-18.07,41.47-40.26,41.47Zm0-78.97c-19.96,0-36.13,16.86-36.13,37.51s16.17,37.51,36.13,37.51,36.13-16.86,36.13-37.51-16.17-37.51-36.13-37.51h0Z"/><ellipse class="n" cx="147.97" cy="154.74" rx="31.49" ry="30.97"/><path class="o" d="M147.28,187.77c-18.24-.34-32.69-15.31-32.35-33.55s15.31-32.69,33.55-32.35c17.89,.34,32.35,14.97,32.35,32.86-.34,18.41-15.31,33.21-33.55,33.03Zm0-61.94c-16,.34-28.56,13.59-28.22,29.59,.34,16,13.59,28.56,29.59,28.22,15.66-.34,28.22-13.25,28.22-28.91-.34-16-13.59-28.91-29.59-28.91Z"/><circle class="o" cx="93.43" cy="150.44" r="17.55"/><circle class="n" cx="102.89" cy="147.86" r="4.82"/><ellipse class="o" cx="150.55" cy="156.63" rx="14.28" ry="13.59"/><circle class="n" cx="147.79" cy="154.22" r="3.96"/></g><path class="o" d="M266.67,131.61c-9.67-.79-22.37,13.44-22.63,22.52-.1,3.17,2.13,4.85,2.56,7.4,.36,2.13-1.03,5.76-1.41,7.86l-8.6,48.57-61.27-19.03c.71,6.66-.22,7.11,5.63,8.77l22.37,6.42,38.2,10.91,10.67-63.54c6.19-.46,13.01,.79,18.82-1.91,12.61-5.9,8.55-25.02-4.34-27.98Z"/></svg>