<?xml version="1.0" encoding="UTF-8"?><svg xmlns="http://www.w3.org/2000/svg" xmlns:xlink="http://www.w3.org/1999/xlink" viewBox="0 0 512.67 434.3"><defs><style>.v{fill:url(#u);}.w{fill:url(#t);}.x{fill:url(#e);}.y{fill:url(#d);}.a`{fill:url(#g);}.aa{fill:url(#f);}.ab{fill:url(#p);}.ac{fill:url(#o);}.ad{fill:url(#q);}.ae{fill:url(#i);}.af{fill:url(#h);}.ag{fill:url(#k);}.ah{fill:url(#j);}.ai{fill:url(#m);}.aj{fill:url(#l);}.ak{fill:url(#n);}.al{fill:url(#c);}.am{fill:url(#b);}.an{fill:#00aab5;}.ao{fill:#020202;}.ap{fill:#eb2e26;}.aq{fill:#fff;}.ar{fill:#fbec00;}.as{fill:#ed4324;}.at{fill:#1c1e1c;}.au,.av,.aw,.ax{mix-blend-mode:multiply;}.av{fill:#e83518;}.av,.aw,.ax{opacity:.3;}.aw{fill:url(#s);}.ax{fill:url(#r);}.ay{fill:none;stroke:#000;stroke-miterlimit:10;stroke-width:8px;}.b`{isolation:isolate;}</style><radialGradient id="b" cx="313.27" cy="230.34" fx="313.27" fy="230.34" r="330.01" gradientTransform="translate(-17.26 -7.12) rotate(-1.21)" gradientUnits="userSpaceOnUse"><stop offset="0" stop-color="#f7ceaa"/><stop offset="1" stop-color="#f7b091"/></radialGradient><radialGradient id="c" cx="314.79" cy="230.12" fx="314.79" fy="230.12" r="333.1" xlink:href="#b"/><radialGradient id="d" cx="313.24" cy="230.44" fx="313.24" fy="230.44" r="329.87" xlink:href="#b"/><radialGradient id="e" cx="315" cy="230.62" fx="315" fy="230.62" r="333.09" xlink:href="#b"/><radialGradient id="f" cx="314.36" cy="230.03" fx="314.36" fy="230.03" r="332.35" xlink:href="#b"/><radialGradient id="g" cx="152.66" cy="289.97" fx="152.66" fy="289.97" r="0" xlink:href="#b"/><radialGradient id="h" cx="314.15" cy="230.41" fx="314.15" fy="230.41" r="331.61" xlink:href="#b"/><radialGradient id="i" cx="313.9" cy="230.51" fx="313.9" fy="230.51" r="331.06" xlink:href="#b"/><linearGradient id="j" x1="172.04" y1="204.71" x2="152.44" y2="518.22" gradientTransform="translate(-17.26 -7.12) rotate(-1.21)" gradientUnits="userSpaceOnUse"><stop offset="0" stop-color="#8bcbd7"/><stop offset=".99" stop-color="#65cbdd"/></linearGradient><linearGradient id="k" x1="173.83" y1="204.83" x2="154.24" y2="518.32" xlink:href="#j"/><linearGradient id="l" x1="172.98" y1="204.3" x2="153.28" y2="519.45" xlink:href="#j"/><linearGradient id="m" x1="176.73" y1="204.66" x2="157.06" y2="519.39" xlink:href="#j"/><linearGradient id="n" x1="175.22" y1="204.84" x2="155.61" y2="518.59" xlink:href="#j"/><linearGradient id="o" x1="174.54" y1="205.4" x2="155.07" y2="517.04" xlink:href="#j"/><linearGradient id="p" x1="177.87" y1="204.89" x2="158.24" y2="519.04" xlink:href="#j"/><linearGradient id="q" x1="149.08" y1="202.94" x2="129.41" y2="517.62" xlink:href="#j"/><linearGradient id="r" x1="18.19" y1="235.82" x2="175.33" y2="235.82" gradientTransform="translate(-17.26 -7.12) rotate(-1.21)" gradientUnits="userSpaceOnUse"><stop offset="0" stop-color="#2e6a7f"/><stop offset="1" stop-color="#40768e"/></linearGradient><linearGradient id="s" x1="145.39" y1="198.15" x2="169.15" y2="198.15" xlink:href="#r"/><linearGradient id="t" x1="53.59" y1="274.62" x2="82.07" y2="26.63" gradientTransform="translate(-17.26 -7.12) rotate(-1.21)" gradientUnits="userSpaceOnUse"><stop offset="0" stop-color="#e83518"/><stop offset="1" stop-color="#d12518"/></linearGradient><linearGradient id="u" x1="104.51" y1="186.02" x2="29.49" y2="266.59" gradientTransform="translate(-17.26 -7.12) rotate(-1.21)" gradientUnits="userSpaceOnUse"><stop offset="0" stop-color="#c22513"/><stop offset="1" stop-color="#d12518"/></linearGradient></defs><g class="b`"><g id="a"><g><path d="M422.12,47.6c-74.07,94.32-139.26,83.72-124.96,0-19.72,104.45-113.01,106.02-175.06,42.99,71.94,84.96-6.66,108.98-104.09,94.01,97.43,14.97,120.12,122.04,32.95,167.56,87.17-45.52,142.92-2.47,93.31,65.18,49.61-67.65,112.09-71.1,107.19,12.61,4.91-83.72,80.69-73.55,134.78,4.37-54.09-77.91,29-113.7,126.43-68.65-134.54-60.23-105.74-160.05-8.31-191.76-141.57,28.5-140.94-51.07-82.24-126.3Z"/><path class="aq" d="M384.36,96.87c-57.96,74.27-106.75,64.94-92.64-17.72-14.11,82.66-92.5,90.54-153.76,28.31,61.26,62.23,5.63,97.86-90.57,83.08,96.2,14.78,107.18,107.59,21.11,152.54,86.07-44.95,138.89-14.95,89.91,51.85,48.98-66.79,98.11-49.14,93.26,33.51,4.85-82.66,69.68-89.04,123.08-12.11-53.41-76.93,12.95-108.19,109.15-63.72-96.2-44.47-96.2-141.66,0-172.97-96.2,31.31-157.5-8.51-99.54-82.78Z"/><path class="aq" d="M370.04,115.8c-50.96,65.31-93.88,57.11-81.47-15.58-12.41,72.69-81.34,79.62-135.22,24.9,53.87,54.73,6.45,83.76-78.15,70.76,84.6,13,91.95,95.57,16.25,135.09,75.69-39.52,122.95-11.79,79.88,46.95,43.08-58.74,86.27-43.21,82.01,29.47,4.26-72.69,61.27-78.3,108.24-10.65-46.97-67.65,11.39-95.14,95.99-56.03-84.6-39.11-84.6-124.58,0-152.11-84.6,27.53-138.5-7.48-87.54-72.79Z"/></g><g><g><path class="am" d="M156.93,282.61c-.06-.02-.13-.04-.19-.06,.07,.02,.13,.04,.19,.06Z"/><path class="al" d="M157.74,282.85c-.09-.03-.18-.05-.27-.08,.09,.03,.18,.05,.27,.08Z"/><path class="y" d="M155.02,282.12c-.05-.01-.11-.03-.17-.04,.05,.01,.11,.03,.17,.04Z"/><path class="x" d="M155.92,282.34s-.07-.02-.1-.02c.03,0,.07,.02,.1,.02Z"/><path class="aa" d="M158.43,283.07c-.1-.03-.19-.06-.29-.1,.1,.03,.2,.06,.29,.1Z"/><path class="a`" d="M141.51,279.56h0Z"/><path class="af" d="M138.53,279.08c-.42-.07-.85-.14-1.28-.2-.09-.01-.18-.03-.28-.04,.93,.15,1.84,.29,2.73,.44-.1-.02-.19-.03-.28-.05-.29-.05-.59-.1-.89-.14Z"/><path class="ae" d="M158.7,283.16c.42,.15,.81,.3,1.13,.45-.08-.04-.17-.08-.26-.12-.26-.11-.55-.22-.87-.33Z"/><path class="ah" d="M155.82,282.31c-.26-.07-.52-.13-.8-.2,.27,.07,.54,.13,.8,.2Z"/><path class="ag" d="M157.47,282.76c-.17-.05-.35-.1-.54-.15,.19,.05,.37,.1,.54,.15Z"/><path class="aj" d="M156.74,282.55c-.26-.07-.53-.14-.81-.22,.28,.07,.55,.14,.81,.22Z"/><path class="ai" d="M159.88,283.63s0,0,.01,0c.13,.06,.25,.12,.36,.18-.13-.07-.27-.14-.42-.21l.04,.02Z"/><path class="ak" d="M158.7,283.16c-.09-.03-.18-.06-.27-.1,.09,.03,.18,.06,.27,.1Z"/><path class="ac" d="M158.14,282.97c-.13-.04-.26-.08-.4-.12,.14,.04,.27,.08,.4,.12Z"/><path class="ab" d="M160.97,284.25c.14,.09,.28,.18,.41,.28-.06-.04-.11-.09-.17-.12-.08-.05-.16-.11-.23-.16Z"/><path class="ad" d="M136.32,174.14c2.67,2.45,4.42,5.48,5.28,7.16-.84-1.71-2.59-4.78-5.28-7.24-1.25-1.15-2.72-2.19-4.39-2.91,0,.01,0,.02-.01,.03,0,0,0,0,.01,0,1.67,.72,3.13,1.8,4.39,2.95Z"/><path class="an" d="M155.07,164.01c-4.6,4.58-11.33,9.52-13.02,16.09-.12,.47-.22,.94-.27,1.42-.01,.01-.01,.02-.01,.03-.92-1.71-1.95-3.4-3.16-4.93-.69-.89-1.45-1.72-2.29-2.48,0-.01-.01-.01-.02-.02-1.24-1.14-2.7-2.21-4.37-2.93-.26,.65-.46,1.16-.63,1.56,.15-.39,.36-.91,.62-1.56-1.8-.78-3.85-1.2-6.13-.99-10.97,1.01-26.5,18.24-26.5,18.24,0,0,.1-1.32,.05-3.56,.14-1.62,.23-3.74,.17-6.2v-.35c-.27-9.66-2.55-24.33-11.01-35.26-13.75-17.8-23.54-39.24-26.66-57.04-3.13-17.81,.38-39.5,2.31-41.9,.43-.55,1.37-.31,2.65,.31,.77,.37,1.68,.88,2.67,1.44,4.6,2.64,11.34,6.44,17.43,3.02,0,0,.17-.04,.47,.01,.26,.04,.61,0,1.01-.01h.21c1.18-.03,2.72-.09,3.71-1.17,.31-.32,.56-.65,.75-1.17,.04-.12,.07-.23,.1-.35,0,0,6.08,3.02,7.08,.38,.07-.18,.12-.34,.16-.5,.2-.67,.27-1.2,.25-1.63-.01-.5-.13-.85-.25-1.06-.12-.24-.23-.32-.23-.32,0,0,.11-.03,.31-.1,.95-.37,3.58-1.82,.87-6.35,0,0,.05,0,.18-.01,.35-.03,1.08-.18,1.67-.84,.98-1.07,1.51-3.45-.75-8.86-3.81-9.08-9.08-13.92-13.78-14.35-.4-.04-.82-.05-1.21-.02,0,0-.31-.62-.88-1.56-1.49-2.43-4.79-6.83-8.99-6.35-5.74,.64-23.33,11.5-41.89,38.88C18.31,69.14,7.83,104.93,4.97,136.08c-.19,2.16-.37,4.28-.48,6.38-.44,7.38-.39,15.47,.12,23.75,1.74,28.26,8.88,58.86,20.5,71.99,0,0-6.96,5.38-1.63,9.47,1.5,1.15,2.93,1.4,4.2,1.18,3.23-.58,5.43-4.27,5.43-4.27,0,0,23.1,16.71,48.46,23.88,15,4.24,54.28,9.43,57.9,9.8,9.07,.87,19.01,3.57,24.86,8.76l-9.26-123.01Z"/><path class="ax" d="M162.74,265.86c-10.53-6.61-35.76-5.81-35.76-5.81-17.55-2.12-51.28-6.09-74.17-17.92-.71-.48,12.48-32.81,27.9-47.51l-43.43,36.38c-15.75-15.64-27.33-42.46-32.68-64.8,1.74,28.25,8.89,58.87,20.51,71.99,0,0-6.97,5.39-1.63,9.47,5.33,4.08,9.63-3.09,9.63-3.09,0,0,23.21,16.35,48.46,23.87,29.51,8.79,70.19,6.72,82.76,18.56"/><path class="aw" d="M155.77,174.89c-13,17.95-20.9,36.38-20.9,36.38-4.47-13.39-1.97-27.29,1.43-37.15,0-.02,.01-.04,.02-.06,2.89,2.65,4.7,5.92,5.45,7.46,.24,.5,.37,.81,.4,.88-.18-.69-.21-1.46-.12-2.3,1.7-6.57,8.42-11.51,13.02-16.09"/><path class="w" d="M102.49,38.61c-.12,.01-.19,.01-.19,.01,2.71,4.53,.09,5.99-.87,6.36-.2,.07-.31,.1-.31,.1,0,0,.12,.09,.24,.32,.12,.22,.24,.57,.25,1.07,.02,.43-.04,.96-.25,1.63-.04,.17-.1,.33-.17,.5-1,2.64-7.08-.38-7.08-.38-.03,.12-.06,.23-.1,.35-.19,.51-.44,.85-.75,1.17-.99,1.07-2.53,1.14-3.72,1.16h-.2c-.41,.01-.75,.05-1.01,.02-.29-.05-.47-.01-.47-.01-6.09,3.42-13.83-1.39-18.43-4.02-.99-.57-1.9-1.08-2.67-1.44-1.27-.63-2.22-.87-2.65-.32-1.92,2.41-5.43,24.1-2.3,41.9,3.13,17.81,12.91,39.25,26.66,57.04,7.68,9.95,10.27,22.96,10.88,32.51,.02,.31,.03,.62,.05,.94,.03,.62,.06,1.23,.07,1.82-1.6,1.57-3.42,3.23-5.43,4.99-18.75,16.5-53.32,41.25-66.38,65.52-1.27,.22-2.7-.03-4.2-1.18-5.33-4.08,1.63-9.47,1.63-9.47-11.63-13.13-18.77-43.74-20.51-71.99-.51-8.28-.55-16.37-.12-23.75,.12-2.1,.29-4.23,.48-6.38,2.86-31.15,13.35-66.94,30.7-92.56C54.22,17.13,71.81,6.27,77.55,5.63c4.19-.47,7.5,3.92,8.99,6.35,.57,.93,.88,1.56,.88,1.56,.4-.03,.8-.02,1.21,.02,4.69,.43,10.96,6.27,14.77,15.35,2.27,5.4,1.73,7.79,.76,8.86-.59,.66-1.33,.81-1.67,.84Z"/><path class="v" d="M99.37,175.57s-18.86,11.56-34.62,23.75c-15.77,12.19-36.1,30.08-47.29,49.2,0,0,10.27,2.08,12.23,1.32,10.05-16.24,9.23-16.52,21.58-27.81,12.38-11.31,47.91-39.64,49.24-42.02l-1.13-4.44Z"/><g class="au"><path class="av" d="M61.76,85.87c-2.89-17.85,.23-39.24,2.41-41.74,.46-.53,1.36-.32,2.64,.31h0c.19,.09,.38,.19,.58,.3,.02,0,.03,.02,.05,.03,.38,.2,.78,.43,1.2,.66,.09,.05,.18,.1,.27,.16,.18,.1,.36,.21,.55,.31,4.6,2.64,11.34,6.46,17.42,3.04,0,0,.46-.06,.43-.12,.35,.11,.7,0,1.05,.09h0c1.21,.05,2.97-.14,4.01-1.27-1.9-.57-4.77-1.12-7.27-2.41-4.86-2.5-19.94-12.26-20.17-12.41,1.23,1.65,11.14,11.92,21.21,15.61-2.33-.26-7.16,.22-10.96-1.41-3.16-1.36-8.86-5.08-12.07-7.51l-.39-.4s-.02,.05-.03,.07c-.53-.41-.97-.78-1.3-1.08,.32,.42,.71,.92,1.14,1.47-6.03,15.2-17.48,51.91-7.65,75.04,8.07,18.98,28.32,49.52,29.66,77.36,0,0,2.02-2.07,2.03-1.22,.03,5.54-2.69,14.72-4.5,19.89,0,0,7.76-12.02,17.26-25.28v-.47c.41-9.32-.67-28.25-10.85-41.81-13.49-17.99-23.78-38.94-26.73-57.19Z"/><path class="av" d="M60.83,37.48c.09,.15,.29,.35,.57,.61-1.13-1.5-1.48-2.05-.57-.61Z"/><path class="av" d="M91.1,43.48c-5.06-3.65-18.02-15.3-18.02-15.3,2.29,2.45,9.43,10.55,14.14,14.12,2.15,1.63,3.96,3.18,5.8,4.29,.04-.11,.07-.23,.1-.35,0,0,6.09,3.01,7.08,.37,.07-.18,.12-.35,.17-.51-2.21,.07-5.97-.23-9.28-2.62Z"/></g></g><path class="ay" d="M131.72,170.6c-1.8-.78-3.85-1.2-6.13-.99-10.97,1.01-26.5,18.24-26.5,18.24,0,0,.1-1.32,.05-3.56,.14-1.62,.23-3.74,.17-6.2v-.35c-.27-9.66-2.55-24.33-11.01-35.26-13.75-17.8-23.54-39.24-26.66-57.04-3.13-17.81,.38-39.5,2.31-41.9,.43-.55,1.37-.31,2.65,.31,.77,.37,1.68,.88,2.67,1.44,4.6,2.64,11.34,6.44,17.43,3.02,0,0,.17-.04,.47,.01,.26,.04,.61,0,1.01-.01h.21c1.18-.03,2.72-.09,3.71-1.17,.31-.32,.56-.65,.75-1.17,.04-.12,.07-.23,.1-.35,0,0,6.08,3.02,7.08,.38,.07-.18,.12-.34,.16-.5,.2-.67,.27-1.2,.25-1.63-.01-.5-.13-.85-.25-1.06-.12-.24-.23-.32-.23-.32,0,0,.11-.03,.31-.1,.95-.37,3.58-1.82,.87-6.35,0,0,.05,0,.18-.01,.35-.03,1.08-.18,1.67-.84,.98-1.07,1.51-3.45-.75-8.86-3.81-9.08-9.08-13.92-13.78-14.35-.4-.04-.82-.05-1.21-.02,0,0-.31-.62-.88-1.56-1.49-2.43-4.79-6.83-8.99-6.35-5.74,.64-23.33,11.5-41.89,38.88C18.13,68.55,7.65,104.34,4.78,135.48c-.19,2.16-.37,4.28-.48,6.38-.44,7.38-.39,15.47,.12,23.75,1.74,28.26,6.88,56.86,18.5,69.99,0,0-6.96,7.38-1.63,11.47,1.5,1.15,4.93,3.4,6.2,3.18,3.23-.58,7.43-4.27,7.43-4.27,0,0,21.1,14.71,46.46,21.88,15,4.24,54.28,9.43,57.9,9.8,9.07,.87,19.01,3.57,24.86,8.76l-9.26-123.01c-4.6,4.58-11.33,9.52-13.02,16.09-.12,.47-.22,.94-.27,1.42-.01,.01-.01,.02-.01,.03-.92-1.71-1.95-3.4-3.16-4.93-.69-.89-1.45-1.72-2.29-2.48,0-.01-.01-.01-.02-.02-1.24-1.14-2.7-2.21-4.37-2.93"/><g><g><g><g><g><path class="an" d="M422.2,271.13c-13.13,77.02-81.49,107.3-157.25,94.39s-126.4-63.48-113.27-140.5c13.13-77.02,75.27-93.92,151.03-81,75.76,12.91,132.62,50.09,119.5,127.12Z"/><path d="M262.19,371.61c-40.07-6.83-72.5-23.56-93.8-48.37-22.78-26.56-31.35-61-24.77-99.59,12.28-72.04,67.09-101.88,158.5-86.3,92.57,15.78,136.89,63.58,124.79,134.58-6.55,38.45-26.74,68.01-58.39,85.5-28.82,15.92-66.58,20.96-106.33,14.18Zm37.76-221.5c-84.25-14.36-132.55,11.11-143.56,75.71-11.71,68.71,29.66,119.68,107.98,133.03,79.46,13.54,138.25-21.43,149.78-89.09,13.72-80.46-54.53-109.48-114.2-119.65Z"/></g><path class="as" d="M150.11,272.93s44.09,54.09,131.84,64.14c87.75,10.06,111.45-6.74,111.45-6.74,0,0-44.3,54.95-128.84,36.87-84.54-18.09-114.45-94.27-114.45-94.27Z"/></g><g><path class="ar" d="M156.34,277.58s53.01,29.29,115.02,41.4c62.01,12.11,129.84,.22,129.84,.22l-25.71,23.69s-72.23,3.07-116.64-6.03c-44.41-9.11-99.03-33.8-99.03-33.8l-3.47-25.47Z"/><path d="M264.85,340.51c-2.23-.38-4.4-.78-6.51-1.22-44.17-9.06-99.01-33.73-99.56-33.98l-1.26-.57-4.33-31.76,4.35,2.4c.53,.29,53.4,29.24,114.29,41.14,1.93,.38,3.88,.73,5.82,1.06,59.23,10.1,122.46-.74,123.11-.85l8.37-1.47-32.63,30.06-.91,.04c-.69,.03-66.31,2.71-110.74-4.87Zm-102.76-39.18c8.41,3.71,57.32,24.89,97.25,33.08,40.93,8.39,106.64,6.33,115.12,6.02l19.08-17.57c-19.93,2.68-73.38,8.2-122.67-1.43-51.58-10.08-97.46-32.23-111.41-39.39l2.63,19.3Z"/></g></g><path d="M426.91,271.93c-6.55,38.45-26.74,68.01-58.39,85.5-28.82,15.92-66.58,20.96-106.33,14.18-40.07-6.83-72.5-23.56-93.8-48.37-22.78-26.56-31.35-61-24.77-99.59l12.76,2.18c-11.71,68.71,29.66,119.68,107.98,133.03,79.46,13.54,138.25-21.43,149.78-89.09l12.76,2.18Z"/></g><g><g><path class="ap" d="M244.33,300.41s57.12,8.86,61.55,10.49c1.45,.53,13.04,13.59,13.04,13.59l-52.76,34.79-20.63-27.62-17.81-23.85,16.62-7.4Z"/><path class="ao" d="M265.7,361.87l-40.9-54.76,18.95-8.44,.81,.13c5.88,.91,57.54,8.96,62.11,10.64,.67,.24,2.05,.75,14.02,14.24l1.08,1.22-56.08,36.97Zm-35.08-53.37l35.99,48.19,49.45-32.6c-4.73-5.29-9.85-10.77-11.19-11.8-4.18-1.26-38.37-6.79-59.97-10.15l-14.29,6.36Z"/></g><g><polygon class="ar" points="239.79 311.29 248.14 307.31 300.74 316.28 305.96 321.72 293.16 331.16 267.76 349.89 239.79 311.29"/><path class="ao" d="M267.58,351.05l-29.02-40.05,9.33-4.44,53.35,9.09,5.94,6.19-39.6,29.21Zm-26.57-39.48l26.92,37.15,36.8-27.14-4.49-4.69-51.85-8.84-7.38,3.51Z"/></g><g><path class="ap" d="M281.18,328.9l.15,.03,7.32-14.11,10.63,1.81-18.94,23.55-4.97,3.59-3.27-17.78-.15-.03-9.08,16.61-3.5-5.03-9.94-29.42,10.65,1.82,2.23,15.74,.15,.03,7.33-14.11,9.97,1.7,1.44,15.6Z"/><path class="ao" d="M263.12,344.87l-4.94-7.1-.04-.15-10.27-30.71,13.34,2.27,1.88,13.31,5.94-11.97,10.95,1.87,1.66,13.27,6.19-11.94,13.33,2.27-19.79,24.79-6.98,5.04-3.02-15.85-8.25,14.9Zm-2.57-7.57l2.07,2.97,8.49-15.4,2.13,.36,3.1,16.46,2.97-2.14,18.09-22.31-7.92-1.35-7.32,14.11-2.03-.35-2.26-15.74-7.34-1.25-7.33,14.11-2.03-.35-2.23-15.74-7.96-1.36,9.57,27.97Z"/></g></g><g><g><ellipse class="aq" cx="248.11" cy="152.3" rx="89.69" ry="86.73" transform="translate(56.28 371.3) rotate(-80.33)"/><path d="M230.61,244.9c-49.61-8.46-82.86-57-74.13-108.22,8.73-51.21,56.19-86,105.79-77.55,49.61,8.46,82.86,57,74.13,108.21-8.73,51.21-56.19,86-105.79,77.55Zm30.14-176.83c-44.68-7.62-87.45,23.85-95.34,70.14-7.89,46.29,22.04,90.14,66.72,97.76,44.68,7.62,87.45-23.85,95.34-70.14,7.89-46.29-22.04-90.14-66.72-97.76Z"/></g><g><ellipse class="aq" cx="373.38" cy="188.5" rx="70.17" ry="71.55" transform="translate(124.82 524.9) rotate(-80.33)"/><path d="M359.16,261.86c-41.35-7.05-69.37-45.82-62.45-86.42,6.92-40.6,46.2-67.9,87.55-60.86s69.37,45.82,62.45,86.42c-6.92,40.61-46.2,67.9-87.55,60.86Zm23.58-138.35c-36.43-6.21-71.01,17.77-77.1,53.45-6.08,35.68,18.61,69.76,55.04,75.97,36.43,6.21,71.02-17.77,77.1-53.45,6.08-35.68-18.61-69.76-55.04-75.97Z"/></g><circle class="at" cx="250.42" cy="162.14" r="39.95"/><circle class="aq" cx="272.55" cy="159.76" r="11.01"/><ellipse class="at" cx="378.33" cy="193.56" rx="31.07" ry="32.38" transform="translate(123.96 533.99) rotate(-80.33)"/><circle class="aq" cx="373.11" cy="187.04" r="8.91"/></g></g></g><g><g><ellipse class="aq" cx="248.11" cy="152.3" rx="89.69" ry="86.73" transform="translate(56.28 371.3) rotate(-80.33)"/><path d="M230.61,244.9c-49.61-8.46-82.86-57-74.13-108.22,8.73-51.21,56.19-86,105.79-77.55,49.61,8.46,82.86,57,74.13,108.21-8.73,51.21-56.19,86-105.79,77.55Zm30.14-176.83c-44.68-7.62-87.45,23.85-95.34,70.14-7.89,46.29,22.04,90.14,66.72,97.76,44.68,7.62,87.45-23.85,95.34-70.14,7.89-46.29-22.04-90.14-66.72-97.76Z"/></g><g><ellipse class="aq" cx="373.38" cy="188.5" rx="70.17" ry="71.55" transform="translate(124.82 524.9) rotate(-80.33)"/><path d="M359.16,261.86c-41.35-7.05-69.37-45.82-62.45-86.42,6.92-40.6,46.2-67.9,87.55-60.86s69.37,45.82,62.45,86.42c-6.92,40.61-46.2,67.9-87.55,60.86Zm23.58-138.35c-36.43-6.21-71.01,17.77-77.1,53.45-6.08,35.68,18.61,69.76,55.04,75.97,36.43,6.21,71.02-17.77,77.1-53.45,6.08-35.68-18.61-69.76-55.04-75.97Z"/></g><circle class="at" cx="250.42" cy="162.14" r="39.95"/><circle class="aq" cx="272.55" cy="159.76" r="11.01"/><ellipse class="at" cx="378.33" cy="193.56" rx="31.07" ry="32.38" transform="translate(123.96 533.99) rotate(-80.33)"/><circle class="aq" cx="373.11" cy="187.04" r="8.91"/></g><path d="M136.11,141.78c-.31-.28-.63-.56-.97-.83,.34,.27,.66,.55,.97,.84h0Z"/><path d="M133.5,139.8c-.19-.12-.36-.24-.56-.35,.19,.11,.37,.23,.56,.35Z"/><path d="M134.42,140.41c-.11-.08-.21-.17-.33-.24,.11,.08,.22,.16,.33,.24Z"/></g></g></svg>