<?xml version="1.0" encoding="UTF-8"?><svg id="a" xmlns="http://www.w3.org/2000/svg" viewBox="0 0 2944.61 2946.31"><defs><style>.b{fill:rgba(130,199,202,.15);fill-rule:evenodd;}</style></defs><path class="b" d="M1465.07,2945.99l-3.98-163.97-9.88-4.25c-40.27-17.32-71.02-35.09-100.75-52.27-62.47-36.12-121.46-70.22-256.44-97.51-69.99-13.96-125.57-20.74-169.94-20.74-118.86,0-137.14,51.95-151.83,93.7-7.68,21.85-13.85,39.38-32.41,50.72l-8.45-4.38c3.14-23.09,21-51.14,35.54-73.99,4.54-7.13,8.58-13.49,12.02-19.35,31.09-51.81,17.19-73.88-3.85-107.27-3.81-6.05-8.1-12.86-12.54-20.47-49.63-85.25-93.85-137.82-149.11-195.01-1.56-1.68-167.9-179.06-276.3-179.06-15.05,0-28.63,3.31-40.36,9.85-11.55,6.11-23.74,13.59-36.63,21.51-20.27,12.44-41.16,25.25-60.39,32.99l-8.61-17.99c39.6-18.28,111.78-57.71,132.08-78.98l4.12-4.32,.46-5.96c9.21-118.88-2.37-237.14-34.43-351.51-25.85-94.07-54.84-140.88-85.53-190.44-13.92-22.49-28.26-45.65-42.89-74.26l-4.25-8.32-9.32-.75c-6.49-.53-13.7-.79-22.02-.79-12.65,0-26.33,.61-39.57,1.2-13.77,.62-27.73,1.25-40.95,1.25-14.04,0-33.63-.61-48.49-5.4l-.38-16.24,157.37-.99,4.88-7.86c103.36-166.18,195.08-356.81,166.56-624.04l-.91-8.53-7.44-4.26c-6.32-3.6-15.39-8.32-25.9-13.78l-.79-.41c-29.04-15.08-81.42-42.28-101.13-61.43l6.79-12.82c20.98,7.8,45.19,22.75,66.8,36.09,9.34,5.77,18.16,11.22,26.36,15.86,19.59,11.68,34.93,16.93,49.57,16.93,19.96,0,35.53-9.74,55.24-22.09,5.57-3.49,11.7-7.33,18.61-11.39,145.76-84.36,264.9-201.01,344.49-337.31,3.87-6.65,7.68-12.75,11.27-18.5,20.99-33.62,38.93-62.35,12.51-109.91-6.26-11.09-13.09-21.64-19.69-31.85-15.16-23.42-29.53-45.65-34.88-70.41l10.31-4.12c15.43,12.43,28.52,38.53,41.21,63.84,12.37,24.65,25.16,50.15,42.03,67.51l4.49,4.63,6.45,.42c20.9,1.37,42.57,2.06,64.42,2.06,226.81,0,450.92-69.93,557.68-174l4.98-4.83,1.94-152.18,13.46-.59,5.79,152.82,4.66,4.64c42.98,42.99,186.74,109.94,262.97,135.35,79.51,27,171.44,40.69,273.19,40.69,27.45,0,56.08-.99,85.1-2.95l7.34-.5,4.6-5.71c24.17-30.03,42.92-64.87,61.07-98.57,5.83-10.81,11.34-21.04,16.91-30.93l17.31,7.87c-13.6,35.98-29.51,56.98-42.45,74.06-11.6,15.31-21.63,28.54-24.95,46.26-9.43,50.64,52.28,137.91,105.71,202.2,56.44,67.9,125.87,137.22,190.51,190.17,50.35,41.24,119.61,90.41,163.65,90.41,5.29,0,10.25-.68,14.76-2.01,16.79-4.78,40.63-19.69,65.87-35.48,17.61-11.01,35.72-22.34,51.23-30.11l9.86,15.54c-58.42,36.37-99.79,59.05-123.05,67.45l-10.07,3.64-.94,10.66c-22.7,259.18,69.03,523.64,170.81,629.57l4.86,5.07,153.2,1.92-.32,15.21-153.36,2.91-4.89,5.57c-46.1,52.52-111.42,188.32-134.76,265.74-38.6,126.81-43.42,228.39-38.66,351.18l.22,5.71,3.65,4.38c19.35,23.22,50.66,39.72,80.93,55.68,18.27,9.63,37.1,19.56,51.71,30.34-2.45,9.51-4.34,13.65-5.35,15.38-5.22-1.43-16.83-7.91-22.13-10.87-81.68-45.25-102.83-56.07-123.15-58.45-1.94-.29-4.41-.45-6.91-.45-88.56,0-321.1,230.25-369.97,302.07-2.25,3.23-5.01,7.07-8.05,11.29-30.74,42.71-82.12,114.08-59.24,169.66,7.45,18.16,22.48,40.49,35.74,60.19l.49,.73c4.45,6.62,8.7,12.94,12.34,18.65,4.29,7.34,12.99,22.2,14.74,28.47-2.57,1.46-8.39,3.73-20.96,7.15-15.91-37.18-55.61-104.46-73.81-129.4l-4.82-6.63-8.2-.25c-18.68-.57-37.14-.86-54.84-.86-228.91,0-392.75,48.35-565.51,166.87l-7.12,4.89-2.93,159.04-14.38-.32Zm-575.68-351.57c125.35,0,218.13,11.81,300.85,38.27,87.73,28.41,131.56,53.09,170.24,74.87,24.01,13.52,46.68,26.28,76.76,38.55l21.06,8.58,1.98-22.66c3.17-36.42,2.77-74.26,2.38-110.84l-.02-1.78c-.12-11.28-.23-22.46-.23-33.48,0-10.14,.51-20.28,1.01-30.09,2.02-39.92,4.09-81.15-32.37-108.46-53.27-40.24-136.94-78.92-208.16-96.23-17.7-4.27-80.12-18.21-140.59-18.21s-102.88,14.77-121.62,43.91l-120.08,217.91,28.67-.25c6.73-.06,13.42-.09,20.12-.09Zm1007.31-260.18c-14.15,0-31.2,.73-52.8,1.66l-10.24,.44c-126.72,4.73-256.33,54.18-346.68,132.28l-5.8,5.01v274.34l20.84-5.22c21.69-5.44,47.25-20.22,74.32-35.87,16.94-9.8,34.39-19.89,49.49-26.64,167.04-74.83,269.55-80.85,451.1-85.73l25-.67-10.12-22.87c-17.42-39.4-37.71-73.71-59.19-110.05-8.04-13.6-16.36-27.67-24.64-42.24-3.02-5.08-5.68-9.61-8.17-13.85l-1.07-1.82c-30.19-51.43-40.37-68.76-102.05-68.76Zm430.15-339.84c-22.1,0-43.09,5.27-62.39,15.66-122.74,66.77-315.65,257.5-267.61,353.6,27.47,54.93,66.18,116.59,100.34,171l27.21,43.43,14.34-21.97c117.61-180.14,241.85-303.18,415.4-411.4l20.47-12.78-19.11-14.72c-7.58-5.85-15.57-12.21-23.9-18.84-58.23-46.33-130.68-103.98-204.75-103.98Zm-1704.93-3.22c-21.28,0-44.31,8.13-72.45,25.59-17.81,10.89-37,21.55-57.33,32.84-35.52,19.73-72.17,40.08-101.86,62.34l-17.49,13.12,17.21,13.49c21.61,16.94,46.66,31.91,70.88,46.38,19.42,11.6,39.4,23.53,56.88,36.1,143.34,106.3,192.16,187.63,231.39,252.98,18.68,31.13,34.8,57.98,57.68,81.55l12.57,12.95,11.99-13.49c23.37-26.31,44.63-66.01,65.19-104.4l6.8-12.66c4.71-8.54,10.62-17.21,16.88-26.39,20.25-29.72,45.42-66.68,29.25-111.36-32.19-91.99-113.41-187.35-222.81-261.56-9.96-5.89-18.06-10.96-25.89-15.88-28.22-17.68-50.43-31.6-78.91-31.6Zm547.87,111.58c-13.68,0-27.98,.61-42.51,1.8l-8.9,.73-118.36,211.39,27.58,.88c221.5,6.98,242.28,18.26,404.04,106.07l29.86,16.21-1.22-248.02-10.64-4.12c-23.16-8.98-44.75-19.03-65.62-28.74-62.12-28.92-120.73-56.2-214.22-56.2Zm619.2,2.92c-105.22,0-208.92,29.9-299.89,86.49l-7.96,4.94,1.18,236.71,22-7.41c28.15-9.47,49.73-22.38,72.57-36.04,57.9-34.65,123.42-73.86,330.27-73.86,3.7,0,7.46,.01,11.24,.03l28.78,.2-117.03-209.65-9.21-.51c-10.69-.59-21.44-.9-31.96-.9Zm-1020.34-210.24c-38.33,12.65-81.22,38.92-105.99,58.93l-21.2,17.12,24.84,11.21c113.45,51.15,208.18,146.13,298.13,298.9l14.56,24.73,118.53-204.38-1.98-6.87c-17.91-62.27-109.59-182.83-235.16-247.22l-9.02-4.63-24.34,17.16-5.9,2.55c-10.84,4.66-16.81,7.23-29.22,15.8-9.37,6.11-12.01,7.43-12.12,7.49l-11.78,5.37,.66,3.85Zm1319.65-46.03c-78.44,33.77-168.78,119.58-207.48,179.7-39.41,60.53-40.19,69.32-10.46,117.54,3.71,6.02,7.72,12.53,12.17,20.07,5.95,9.48,13.36,22.64,20.52,35.37,15.68,27.85,33.45,59.41,48.79,77.68l12.95,15.41,12.82-15.52c11.54-13.99,22-32.57,33.06-52.24,8.52-15.14,17.29-30.74,26.1-43.09,21.93-30.26,40.57-51.64,65.33-78.34,48.32-50.38,107.16-90.46,174.78-119.04l30.16-12.75-210.8-128.21-7.95,3.42Zm-823.92,43.45c-4.52,0-8.75,.12-12.61,.34l-7.5,.44-4.66,5.9c-17.11,21.66-84.86,134.96-88.63,166.4l-2.08,17.29,17.36,1.42c102.75,8.38,139.54,23.07,190.46,43.4,22.86,9.13,48.6,19.4,83.78,30.7l22.31,7.16-3.56-199.15-.7-2.28c-18.21-58.89-160.04-71.63-194.16-71.63Zm416.83-1.77c-74.62,0-148.45,21.85-192.68,57.04l-6.28,5.01-1.2,210.64,21.29-5.79c32.52-8.85,51.47-18.37,69.81-27.59,35.43-17.8,68.9-34.62,209.08-44.74l19.09-1.39-3.88-18.74c-6.82-32.93-75.03-145.48-97.61-169.2l-4.86-5.11-3.53-.05s-7.34-.09-9.23-.09Zm796.17-404.95c-49.37,28.37-97.62,139.85-116.23,194.84-28.74,90.77-35.87,188.4-20.12,275.04l1.35,7.42,248.2,150.59,.16-29.6c1.06-194.39,21.43-295.26,90.84-449.7,8.44-18.2,19.24-36.8,29.68-54.77,13.37-23.01,25.92-44.63,34.25-66.02l8.83-22.66-251.85-2.11v-17.49l-25.12,14.45Zm-2270.17,31.22c41.2,76.39,80.12,148.54,106.18,242.18,23.19,81.52,26.24,139.41,29.78,206.44,1.85,35.07,3.76,71.33,8.7,114.13l2.85,24.69,21.83-11.9c26.1-14.23,49.23-26.64,69.69-37.62,160.91-86.36,167.2-89.73,163.27-199.97,0,0-.43-12.35-.59-17.68-4.29-127.96-65.14-285.09-135.65-350.3l-4.81-4.45H188.63l18.59,34.47Zm677.58,307.6l10.78,14.83c12.65,17.4,26.21,25.77,39.33,33.86,6.55,4.04,13.27,8.19,20.41,13.7,48.29,37.4,73.29,70.95,97.48,103.39,15.83,21.23,30.76,41.26,50.93,60.59l15.56,14.9,10.62-18.74c5.85-10.32,14.19-23.86,23.01-38.2,23.95-38.9,53.74-87.29,65.45-121.61l1.74-5.13-1.58-5.18c-17.8-58.19-103.11-131.82-151.94-153.07l-7.9-3.44-173.9,104.11Zm986-94.54c-3.7,0-7.14,.44-10.23,1.32-49.86,15.79-117.14,103.09-135.78,143.5l-3.48,7.54,3.89,7.34c16.73,31.59,34.9,63.47,52.46,94.29,11.65,20.45,23.69,41.59,34.85,61.85l10.57,19.2,15.76-15.23c24.01-23.18,35.37-40.42,46.37-57.09,16.56-25.11,33.68-51.06,101.87-102.68l45.33-32.95,.45-.37c2.75-2.33,4.53-3.78,5.72-4.75,3.31-2.69,5.98-4.86,7.98-9.98,.16-.42,.76-1.55,2.02-3.52l8.13-12.81-11.93-9.37c-21.77-17.08-130.59-86.31-173.99-86.31Zm-1353.23-224.51c20.3,42.05,36.63,73.27,49.74,98.36,51.16,97.85,53.16,101.67,60.42,313.45l.93,27.26,207.67-114.18,.32-9.54c5.07-153.4-22.98-211.53-73.9-317.04l-10.26-21.29-246.6-1.21,11.68,24.19Zm1682.22-20.87l-4.93,5.94c-57.26,68.95-96.39,207.51-91.03,322.31l.34,7.08,5.3,4.69c27.51,24.34,152.89,99.19,187.84,107.38l21.51,5.04-.94-22.07c-7.72-183.3,18.78-234.25,62.68-318.68,13.38-25.73,28.52-54.86,44.61-91.35l10.55-23.93-235.93,3.59Zm-772,85.98c-20.29,28.81-34.75,54.92-50.04,82.56-9.27,16.75-18.6,33.6-29.58,51.76-5.46,9.17-11.08,18.51-16.8,28-21.85,36.28-44.33,73.64-60.78,106.55l-9.01,18.02,201.11,57.99-5.11-387.17-29.79,42.29Zm56.67,342.88l197.34-49.03-8.68-18.47c-13.75-29.27-28.44-54.44-44-81.09-11.38-19.5-23-39.41-34.25-61.07-22.63-42.99-58.93-99.11-83.13-134.12l-31.1-44.95,3.82,388.74Zm223.25-54.67l14.71-23.48c14.48-23.12,29.33-37.97,49.9-58.53l73.42-69.62-15.45-11.97c-43.48-33.72-223.29-140.03-276.6-158.51l-42.84-14.86,196.87,336.97Zm-320.56-322.88c-41.59,16.4-245.12,132.39-276.68,159.9l-13.61,11.85,138.71,137.46,11.8-12.15c37.43-38.56,135.08-221.29,160.99-274.06l19.07-38.88-40.28,15.89Zm-595.67-20.7c38.06,89.27,63.2,148.25,67.04,267.64l.89,27.42,192.85-106.85,.76-8.91c6.62-77.07-23.88-164.26-57.19-204.02l-4.92-5.87-214.01-3.63,14.58,34.23Zm1263.79-35.61c-42.35,0-80.08,3.06-103.54,8.39l-6.41,1.46-3.71,5.44c-34.57,50.65-54.23,128.03-50.11,197.14l.46,7.71,6.15,4.66c24.37,18.5,130.39,84.21,165.86,91.28l19.24,3.84,.8-19.59c4.86-119.5,28.73-184.61,73.97-269.76l10.77-20.26-22.59-4.1c-21.65-3.93-54.78-6.18-90.89-6.18Zm-1021.88,22.59c5.67,23.04,11.59,40.9,17.32,58.17,9.92,29.93,18.47,55.74,22.25,99.28l1.76,20.26,19.55-5.57c36.56-10.44,239.68-128.59,280.69-160.93l37.55-29.62-384.27-2.5,5.15,20.91Zm486.59-19.56l49.07,30.78,15.49,9.78c162.42,102.75,243.63,147.21,271.55,148.67l17.16,.9,.49-17.17c1.32-47.34,10.41-73.6,20.95-104.01,5.13-14.82,10.43-30.11,15.43-49.14l5.55-21.1-395.67,1.28Zm949-12.84h283.17l-8.61-22.71c-8.49-22.41-21.86-44.91-34.79-66.67-10.1-17.01-20.42-34.38-28.25-51.35-20.11-46.31-33.15-79.22-48.39-130.11-34.95-117.17-36.35-203.79-38.28-323.68l-.37-23.31-21.96,7.73c-45.45,15.99-125.2,62.36-183.44,96.22-15.01,8.73-28.6,16.63-39.8,22.97l-7.16,4.04-1.18,8.14c-14.01,96.14-6.85,180.72,23.21,274.25,17.83,56.71,60.33,152.39,105.85,189.02v15.45Zm-578.06-229.02l-.46,9.33c-3.36,68.3,16.62,118.27,35.96,166.59,5.31,13.3,10.64,26.63,15.26,39.83l4.03,11.5,214.88-4.87-5.33-20.49c-12.53-48.13-21.55-63.85-29.5-77.71-11.97-20.86-21.42-37.34-41.86-204.25l-3.02-24.62-189.97,104.69Zm399.82-227.98c-9.16,5.26-20.93,12.24-34.2,20.1-46.43,27.5-109.77,65.01-141.93,77.26l-10.58,4.03-.21,11.32c-2.04,109.95,25.79,260.36,91.69,330.77l4.92,5.23,232.41,2.39-8.23-22.72c-7.2-19.89-15.97-34.88-26.13-52.23-15.45-26.4-34.63-59.19-56.85-125.86-21.36-64.85-22.18-108.78-23.23-164.41-.42-22.29-.85-45.33-2.59-72.41l-1.72-26.88-23.36,13.41Zm-1661.99,12.36c-1.7,199.14-20.4,235.68-75.88,344.16-9.53,18.63-21.4,41.82-34.24,68.16l-11.65,23.85,243.95,2.45,4.39-10.32c9.62-22.66,18.71-42.13,27.5-60.96,35.51-76.04,61.14-130.95,56.91-264.13l-.3-9.28-210.43-122.84-.24,28.92Zm1220.85,245.79c-42.55,14.19-258.48,137.56-281.26,163.94l-23.85,27.61,369.53,1.22-2.5-19.02c-3.11-23.64-6.61-31.14-12.06-41.42-3.28-6.17-7.35-13.85-13.22-32.27-8.9-24.91-13.51-51.75-14.6-84.72l-.75-22.46-21.31,7.1Zm-790.52,90.65c-2.85,11.78-6.59,22.19-10.2,32.25-5.5,15.31-11.16,31.08-13.79,50.83l-2.53,19.05,382.09-1.27-40.01-30.01c-52.28-39.22-201.81-128.01-272.07-158.89l-14.63-6.42-7.13,14.29-.33,.61c-.98,1.75-2.87,5.13-3.36,10.44l-18.04,69.12Zm-197.43-200.35c-11.52,128.19-23.8,154.67-42.4,194.75-9.6,20.7-20.49,44.17-33.75,84.64l-7.16,21.86,215.22,1.24,44.09-92.84,.36-1.18c10.78-35.25,15.25-73.78,14.06-121.21l-.24-9.65-187.86-103.13-2.3,25.53Zm-510.13-272.57q-17.12,279.6-136.98,517.14l-28,55.55,282.44,2.35,5-5.21c48.9-50.84,91.69-137.83,117.39-238.66,23.8-93.39,27.72-178.57,10.23-222.31-16.76-41.84-176.28-121.03-224.78-144.31l-22.46-10.8-2.84,46.24Zm1157.7,541.69l46.71-20.43c40.97-17.91,72.29-36.84,111.94-60.79l1.91-1.16c8.42-5.08,17.2-10.39,26.53-15.94,29.2-18.18,58.72-34.66,87.28-50.6,16.88-9.43,33.81-18.88,50-28.29l17.81-10.35-13.75-15.34c-10.03-11.19-21.49-20.29-34.75-30.82-23.23-18.47-52.13-41.45-81.82-85.33l-15.02-22.2-196.84,341.26Zm-394.59-207.55l-18.45,18.54,17.07,11.29c60.2,39.82,201.93,126.57,272.51,156.36l35.51,15-13.25-36.21c-15.41-42.09-132.03-242.53-159.98-274.97l-11.9-13.79-121.51,123.78Zm366.39,197.7l30.7-44.05c31.09-44.62,146.84-235.72,160.32-282.97l5.61-19.66-20.39-1.65c-33.5-2.7-65.42-12.14-93.58-20.47-24.33-7.2-45.34-13.42-63.78-14.44l-17.63-.98-1.25,384.22Zm-41.72-386.5c-11.32,3.77-21.82,7.5-31.94,11.09-38.15,13.53-71.07,25.21-122.02,29.12l-20.76,1.59,5.98,19.94c10.8,36.02,133.11,246.65,161.57,278.24l29.01,32.22,1.25-262.87v-17.52l-1.36-99.06-21.75,7.24Zm386.91-139.98c-26.79,20.64-104.33,147.89-99.69,178.88,7.8,52.09,111.98,130.56,143.65,145.95l7.72,3.75,180.65-97.36s-9.16-16.05-9.43-16.53l4.03-8.68-14.86-7.6c-.28-.14-3.53-1.76-15.21-10.72-12.27-9.54-23.44-17.82-34.24-25.83-52.13-38.65-86.46-64.1-137.73-156.71l-9.45-17.06-15.45,11.9Zm-720.76,1.58c-17.24,14.79-28.04,31.09-38.49,46.86-3.95,5.95-7.53,11.34-11.29,16.46-17.63,22.51-33.87,37.64-48.2,51-13.82,12.94-32.97,27.88-51.48,42.32-24.54,19.15-47.71,37.23-62.25,52.98l-15.69,17.01,21.05,9.61c10.33,4.72,28.32,15.72,47.35,27.36,46.67,28.55,94.6,57.87,122.69,57.87,3.44,0,6.68-.42,9.64-1.23,48.46-11.19,119.25-99.89,139.03-143.62l3.45-7.64-100.12-182.42-15.68,13.45Zm-437.01,98.67l112.88,69.9c5.67,3.14,10.19,5.67,14.36,8,24.23,13.54,38.85,21.71,55.54,21.71,19.44,0,36.34-11.32,64.55-31.31,33.35-22.92,145.23-105.97,180.56-209.3l2.24-6.54-3.03-6.23c-19.01-39.01-84.3-153.27-108.89-177.88l-16.23-16.24-10.54,20.4c-84.42,163.59-137.7,196.92-211.45,243.06-23.93,14.97-51.05,31.93-81.27,54.92l-15.35,11.66,13.69,13.59c.74,.73,1.47,1.37,2.16,1.91l.77,2.36Zm1283.1-328.16c-20.48,25.87-82.73,128.7-96.53,159.46-9.25,21.36-1.7,50.01,23.06,87.7,45.59,69.4,165.12,179.9,220.77,179.89,4,0,7.78-.53,11.22-1.56,18.09-4.82,159.52-91.02,170.14-101.67l16.39-16.45-96.51-48.26-18.6-17.62-1.03-.72c-4.06-2.83-7.8-5.36-11.54-7.88-4.91-3.32-9.51-6.42-14.78-10.18-11.08-20.04-23.72-26.38-39.71-31.13-.79-3.15-2.55-6.16-5.22-8.82-.95-.95-3.03-3.03-7.19-7.44-7.76-7.79-8.93-8.96-13.75-11.51-.68-.36-1.57-.83-2.9-1.61l-119.47-180.35-14.35,18.13Zm-511.25,122.75c-47.64,16.1-73.23,27.23-91.91,35.35-38.44,16.72-48.77,21.21-186.57,35.68l-19.92,2.09,5.57,19.24c12.19,42.19,70.09,141.61,96.1,169.81l5.34,5.79,7.86-.42c76.09-3.93,107.24-16.79,146.67-33.08,14.04-5.79,28.48-11.75,46.7-18.09l11.19-3.89,1.25-220.01-22.27,7.52Zm42.08,214.3l12.08,3.4c19.17,5.4,35.41,11.85,51.11,18.09,38.52,15.32,74.72,29.71,146.28,29.71h10.18l4.7-9.03c8.91-17.12,20.74-35.65,33.26-55.26,23.01-36.04,46.7-73.14,57.18-108.79l6.2-21.11-21.99-.38c-115.15-2.03-172.15-28.28-217.94-49.37-22.41-10.32-41.73-19.21-63.45-23.2l-20.02-3.67,2.42,219.61Zm688.89-131.15c21.07,21.35,117.27,85.93,157.78,85.93h1.17c7.52-.01,17.23-3.76,156.45-77.42,28.98-15.34,53.63-28.38,65.11-34.12l23.48-11.76-20.54-16.35c-255.73-203.57-266.95-219.13-404.31-409.58l-31.75-43.98-12.15,25.59c-35.65,75.05-65.63,118.71-85.47,147.59-37.67,54.84-46.87,73.75-9.58,143.45l2.24,4.21c17.13,32.28,34.83,65.64,57.87,84.98,27.68,50.74,57.57,73.31,99.71,101.47ZM806.29,391.98c-17.17,19.46-29.79,41.01-44.41,65.96-26.14,44.63-58.64,100.11-135.04,171.93-79.93,76.03-134.32,108.63-178.02,134.82-24.15,14.46-44.95,26.92-63.61,43.25l-16.67,14.59,18.58,12.08c7.79,5.06,194.29,118.17,213.87,122.34,4.14,.87,8.54,1.31,13.11,1.31,103.2,0,332.99-225.69,341.51-335.41,3.07-33.76-94.06-191.33-102.33-203.54-3.61-5.09-4.36-6.07-6.28-8.2-.52-.58-1.2-1.33-2.4-2.75-4.6-6.85-6.95-9.44-9.44-12.18-1.03-1.13-2.05-2.26-3.39-3.86l-12.52-15.02-12.93,14.66Zm311.2,450.11l9.51,.35c6.39,.24,12.9,.36,19.51,.36,107.64,0,248.38-32.87,309.11-95.7l4.63-4.81,2.41-232.16-23.49,9.81c-43.77,18.27-74.36,34.76-101.35,49.31-67.52,36.41-108.28,58.39-276.7,58.39-10.41,0-21.35-.08-32.75-.25l-28.8-.44,117.91,215.16Zm364.72-91.52l8.8,4.75c95.92,51.73,168.61,85.63,299.78,85.63,9.7,0,19.74-.18,29.82-.55l11.69-.42,3.64-11.11c8.58-26.18,25.63-53.77,43.69-82.98,19-30.77,38.62-62.51,50.55-96.15l8.14-22.97-24.36,.6c-10.42,.26-20.53,.38-30.35,.38-191.16,0-270.17-47.92-322.46-79.62-20.41-12.37-37.97-23.01-57.39-28.81l-21.56-6.43v237.68Zm-1.06-274.97l7.46,5.01c93.23,62.5,181.28,121.54,335.73,128.99,24.99,1.25,43.69,1.84,58.82,1.84,71.45,0,84.88-13.53,107.82-55.38,3.63-6.63,7.7-14.05,12.66-22.24l5.79-9.62c25.08-41.64,67.05-111.33,78.98-150.04l6.59-21.36-22.34-.35c-190.23-2.99-278.19-11.67-448.58-91.75-18.3-8.25-36.59-18.47-54.28-28.36-22.46-12.58-43.58-24.39-64.74-32.62l-22.75-8.84-1.15,284.71Zm-42.21-273.58c-30.94,13.47-57.76,27.6-83.7,41.27-49.02,25.83-95.27,50.19-166.41,69.77-89.78,25.34-148.38,28.32-222.58,32.09-29.29,1.49-62.02,3.15-99.57,6.34l-18.39,1.55,3.3,18.16c3.06,16.73,24.53,54.67,63.1,118.85,7.69,12.8,14.27,23.74,17.75,29.95,5.52,9.72,10.13,18.22,14.21,25.74,29.28,53.99,38.01,65.37,111.34,65.37,11.15,0,24.07-.21,39.14-.47,150.18-3.55,214.46-42.43,303.43-96.26,16.66-10.07,33.7-20.38,52.36-31.09l8.39-4.82,1.2-286.69-23.57,10.25Z"/></svg>