<?xml version="1.0" encoding="UTF-8"?><svg xmlns="http://www.w3.org/2000/svg" xmlns:xlink="http://www.w3.org/1999/xlink" viewBox="0 0 217.12 124.84"><defs><style>.cm{fill:url(#e);}.cn{fill:url(#d);}.co{fill:url(#g);}.cp{fill:url(#f);}.cq{fill:url(#p);}.cr{fill:url(#o);}.cs{fill:url(#q);}.ct{fill:url(#i);}.cu{fill:url(#h);}.cv{fill:url(#k);}.cw{fill:url(#j);}.cx{fill:url(#m);}.cy{fill:url(#l);}.d`{fill:url(#n);}.da{fill:url(#c);}.db{fill:url(#b);}.dc{fill:url(#w);}.dd{fill:url(#aa);}.de{fill:url(#ag);}.df{fill:url(#ab);}.dg{fill:url(#ai);}.dh{fill:url(#ao);}.di{fill:url(#aj);}.dj{fill:url(#ae);}.dk{fill:url(#ap);}.dl{fill:url(#af);}.dm{fill:url(#as);}.dn{fill:url(#aq);}.do{fill:url(#ar);}.dp{fill:url(#al);}.dq{fill:url(#ax);}.dr{fill:url(#aw);}.ds{fill:url(#am);}.dt{fill:url(#ac);}.du{fill:url(#an);}.dv{fill:url(#at);}.dw{fill:url(#ay);}.dx{fill:url(#au);}.dy{fill:url(#ak);}.e`{fill:url(#av);}.ea{fill:url(#cc);}.eb{fill:url(#cb);}.ec{fill:url(#ca);}.ed{fill:url(#cd);}.ee{fill:url(#ck);}.ef{fill:url(#c`);}.eg{fill:url(#cg);}.eh{fill:url(#cf);}.ei{fill:url(#ce);}.ej{fill:url(#be);}.ek{fill:url(#bg);}.el{fill:url(#bf);}.em{fill:url(#bm);}.en{fill:url(#bd);}.eo{fill:url(#bo);}.ep{fill:url(#bn);}.eq{fill:url(#ba);}.er{fill:url(#bh);}.es{fill:url(#bc);}.et{fill:url(#bb);}.eu{fill:url(#b`);}.ev{fill:url(#by);}.ew{fill:url(#bu);}.ex{fill:url(#bl);}.ey{fill:url(#bw);}.f`{fill:url(#bv);}.fa{fill:url(#bi);}.fb{fill:url(#bp);}.fc{fill:url(#bk);}.fd{fill:url(#bj);}.fe{fill:url(#bt);}.ff{fill:url(#bq);}.fg{fill:url(#bx);}.fh{fill:url(#bs);}.fi{fill:url(#br);}.fj{fill:none;}.fk,.fl{fill:#005b60;}.fm{fill:#00949c;}.fn{fill:#00939b;}.fo{fill:#e70507;}.fp{fill:#fff6e3;}.fq{fill:url(#ad);}.fq,.fr,.fs,.ft,.fu,.fv{mix-blend-mode:multiply;}.fr{fill:url(#v);}.fs{fill:url(#r);}.ft{fill:url(#x);}.ft,.fu{opacity:.45;}.fu{fill:url(#y);}.fv{fill:url(#a`);opacity:.78;}.fl{fill-rule:evenodd;}.fw{clip-path:url(#u);}.fx{clip-path:url(#ch);}.fy{isolation:isolate;}.g`{fill:url(#t);opacity:.4;}.ga{fill:url(#ah);opacity:.58;}.gb{fill:url(#cj);}.gb,.gc{opacity:.84;}.gc{fill:url(#ci);}.gd{fill:url(#cl);opacity:.86;}.ge{fill:url(#s);opacity:.74;}</style><radialGradient id="b" cx="79.72" cy="255.31" fx="79.72" fy="255.31" r="61.54" gradientTransform="translate(86.92 -222.59) rotate(10.22) scale(1 1.08)" gradientUnits="userSpaceOnUse"><stop offset="0" stop-color="#fff" stop-opacity=".2"/><stop offset=".28" stop-color="#fff" stop-opacity=".18"/><stop offset=".56" stop-color="#fff" stop-opacity=".14"/><stop offset=".84" stop-color="#fff" stop-opacity=".06"/><stop offset="1" stop-color="#fff" stop-opacity="0"/></radialGradient><radialGradient id="c" cx="79.72" cy="255.31" fx="79.72" fy="255.31" r="61.54" xlink:href="#b"/><radialGradient id="d" cx="79.72" cy="255.31" fx="79.72" fy="255.31" r="61.54" xlink:href="#b"/><radialGradient id="e" cx="79.72" cy="255.31" fx="79.72" fy="255.31" r="61.54" xlink:href="#b"/><radialGradient id="f" cx="79.72" cy="255.31" fx="79.72" fy="255.31" r="61.54" xlink:href="#b"/><radialGradient id="g" cx="79.72" cy="255.31" fx="79.72" fy="255.31" r="61.54" xlink:href="#b"/><radialGradient id="h" cx="79.72" cy="255.31" fx="79.72" fy="255.31" r="61.54" xlink:href="#b"/><radialGradient id="i" cx="79.72" cy="255.31" fx="79.72" fy="255.31" r="61.54" xlink:href="#b"/><radialGradient id="j" cx="79.72" cy="255.31" fx="79.72" fy="255.31" r="61.54" xlink:href="#b"/><radialGradient id="k" cx="79.72" cy="255.31" fx="79.72" fy="255.31" r="61.54" xlink:href="#b"/><radialGradient id="l" cx="79.72" cy="255.31" fx="79.72" fy="255.31" r="61.54" xlink:href="#b"/><radialGradient id="m" cx="79.72" cy="255.31" fx="79.72" fy="255.31" r="61.54" xlink:href="#b"/><radialGradient id="n" cx="79.72" cy="255.31" fx="79.72" fy="255.31" r="61.53" xlink:href="#b"/><radialGradient id="o" cx="79.72" cy="255.31" fx="79.72" fy="255.31" r="61.54" xlink:href="#b"/><radialGradient id="p" cx="79.72" cy="255.31" fx="79.72" fy="255.31" r="61.54" xlink:href="#b"/><radialGradient id="q" cx="79.72" cy="255.31" fx="79.72" fy="255.31" r="61.54" xlink:href="#b"/><radialGradient id="r" cx="-2101.66" cy="681.19" fx="-2101.66" fy="681.19" r="40.77" gradientTransform="translate(1192.15 284.86) rotate(89.63) scale(.08 1.58) skewX(-7.93)" gradientUnits="userSpaceOnUse"><stop offset="0" stop-color="#000" stop-opacity=".3"/><stop offset="1" stop-color="#000" stop-opacity="0"/></radialGradient><radialGradient id="s" cx="115.75" cy="96.11" fx="115.75" fy="96.11" r="25.29" gradientTransform="matrix(1, 0, 0, 1, 0, 0)" gradientUnits="userSpaceOnUse"><stop offset="0" stop-color="#003f3f"/><stop offset="1" stop-color="#3e7c7c"/></radialGradient><linearGradient id="t" x1="115.67" y1="121.94" x2="115.77" y2="115.12" gradientTransform="matrix(1, 0, 0, 1, 0, 0)" gradientUnits="userSpaceOnUse"><stop offset="0" stop-color="#003f3f"/><stop offset=".31" stop-color="#0f4e4e"/><stop offset=".92" stop-color="#377575"/><stop offset="1" stop-color="#3e7c7c"/></linearGradient><clipPath id="u"><polygon class="fj" points="115.75 76.22 130.61 96.11 145.48 116 115.75 116 86.02 116 100.88 96.11 115.75 76.22"/></clipPath><radialGradient id="v" cx="-2571.92" cy="723.18" fx="-2571.92" fy="723.18" r="27.92" gradientTransform="translate(1103.55 1180.32) rotate(89.96) scale(.42 1.37) skewX(-.31)" gradientUnits="userSpaceOnUse"><stop offset=".37" stop-color="#003f3f"/><stop offset=".59" stop-color="#5d8585"/><stop offset=".87" stop-color="#d0dcdc"/><stop offset="1" stop-color="#fff"/></radialGradient><radialGradient id="w" cx="-2597.9" cy="749.15" fx="-2597.9" fy="749.15" r="27.92" gradientTransform="translate(1062.47 1571.86) rotate(89.97) scale(.57 1.26) skewX(-.23)" gradientUnits="userSpaceOnUse"><stop offset=".37" stop-color="#000" stop-opacity=".2"/><stop offset="1" stop-color="#000" stop-opacity="0"/></radialGradient><radialGradient id="x" cx="-2483.93" cy="572.19" fx="-2483.93" fy="572.19" r="27.92" gradientTransform="translate(1631.36 654.51) rotate(89.79) scale(.22 2.59) skewX(-2.88)" gradientUnits="userSpaceOnUse"><stop offset="0" stop-color="#003f3f"/><stop offset=".37" stop-color="#5c8484"/><stop offset="1" stop-color="#fff"/></radialGradient><radialGradient id="y" cx="-2482.29" cy="553.08" fx="-2482.29" fy="553.08" r="27.92" gradientTransform="translate(1792.38 654.25) rotate(89.74) scale(.22 3.08) skewX(-4.16)" xlink:href="#x"/><radialGradient id="a`" cx="-2491.26" cy="1240.28" fx="-2491.26" fy="1240.28" r="78.13" gradientTransform="translate(761.64 1400.49) rotate(90) scale(.54 .52) skewX(-.13)" gradientUnits="userSpaceOnUse"><stop offset="0" stop-color="#f8f6f6"/><stop offset=".45" stop-color="#f5f2f2"/><stop offset=".45" stop-color="#f5f2f2"/><stop offset=".65" stop-color="#eeeaea"/><stop offset=".71" stop-color="#e5e3e3"/><stop offset=".8" stop-color="#cfd1d3"/><stop offset=".87" stop-color="#bbc0c4"/><stop offset=".96" stop-color="#3e5b5d"/><stop offset="1" stop-color="#00292b"/></radialGradient><linearGradient id="aa" x1="68.56" y1="180.12" x2="164.5" y2="156.32" gradientTransform="translate(41.85 -129.22) rotate(13.52)" gradientUnits="userSpaceOnUse"><stop offset="0" stop-color="#c77219"/><stop offset=".2" stop-color="#ffd650"/><stop offset=".3" stop-color="#fff8ad"/><stop offset=".49" stop-color="#ffffd8"/><stop offset=".67" stop-color="#fab849"/><stop offset=".77" stop-color="#ffd149"/><stop offset=".88" stop-color="#ffd75a"/><stop offset="1" stop-color="#c77219"/></linearGradient><linearGradient id="ab" x1="115.69" y1="117.41" x2="115.46" y2="16.75" gradientTransform="matrix(1, 0, 0, 1, 0, 0)" gradientUnits="userSpaceOnUse"><stop offset="0" stop-color="#e7a534"/><stop offset="1" stop-color="#fbeb78"/></linearGradient><linearGradient id="ac" x1="115.63" y1="22.33" x2="115.49" y2="101.13" gradientTransform="matrix(1, 0, 0, 1, 0, 0)" gradientUnits="userSpaceOnUse"><stop offset=".05" stop-color="#e7a534"/><stop offset=".23" stop-color="#e7a737"/><stop offset=".4" stop-color="#eab043"/><stop offset=".56" stop-color="#eebe56"/><stop offset=".72" stop-color="#f3d170"/><stop offset=".88" stop-color="#faea92"/><stop offset=".88" stop-color="#fbeb93"/></linearGradient><radialGradient id="ad" cx="-2568.71" cy="1242.55" fx="-2568.71" fy="1242.55" r="19.96" gradientTransform="translate(760.69 1299.78) rotate(90) scale(.48 .52) skewX(-.13)" gradientUnits="userSpaceOnUse"><stop offset="0" stop-color="#2c0000"/><stop offset=".24" stop-color="#3f1717"/><stop offset=".45" stop-color="#532f2f"/><stop offset=".53" stop-color="#7f6464"/><stop offset=".61" stop-color="#a59393"/><stop offset=".69" stop-color="#c5baba"/><stop offset=".77" stop-color="#ded8d8"/><stop offset=".85" stop-color="#f0eded"/><stop offset=".93" stop-color="#fbfafa"/><stop offset="1" stop-color="#fff"/></radialGradient><linearGradient id="ae" x1="118.78" y1="71.7" x2="110.74" y2="46.46" gradientTransform="matrix(1, 0, 0, 1, 0, 0)" gradientUnits="userSpaceOnUse"><stop offset="0" stop-color="#c77219"/><stop offset=".2" stop-color="#ffd650"/><stop offset=".4" stop-color="#fff8ad"/><stop offset=".65" stop-color="#fab849"/><stop offset=".77" stop-color="#ffd149"/><stop offset=".88" stop-color="#ffd75a"/><stop offset="1" stop-color="#c77219"/></linearGradient><linearGradient id="af" x1="959.8" y1="-78.25" x2="954.76" y2="-85.92" gradientTransform="translate(850.44 680.67) rotate(-135)" gradientUnits="userSpaceOnUse"><stop offset="0" stop-color="#b5630c"/><stop offset="1" stop-color="#d8a800"/></linearGradient><linearGradient id="ag" x1="959.81" y1="-78.26" x2="954.76" y2="-85.93" gradientTransform="translate(850.45 680.67) rotate(-135)" gradientUnits="userSpaceOnUse"><stop offset="0" stop-color="#9c4504"/><stop offset="1" stop-color="#ce9b00"/></linearGradient><linearGradient id="ah" x1="962.27" y1="-74.52" x2="952.03" y2="-90.08" gradientTransform="translate(850.45 680.67) rotate(-135)" xlink:href="#ac"/><radialGradient id="ai" cx="822.15" cy="807.75" fx="822.15" fy="807.75" r="4.99" gradientTransform="translate(661.33 -495.15) rotate(90.96) scale(.69 .61) skewX(.07)" gradientUnits="userSpaceOnUse"><stop offset="0" stop-color="#ffff69"/><stop offset=".09" stop-color="#ffff70" stop-opacity=".95"/><stop offset=".25" stop-color="#ffff82" stop-opacity=".83"/><stop offset=".46" stop-color="#ffffa1" stop-opacity=".62"/><stop offset=".72" stop-color="#ffffcb" stop-opacity=".34"/><stop offset="1" stop-color="#fff" stop-opacity="0"/></radialGradient><radialGradient id="aj" cx="714.03" cy="411.26" fx="714.03" fy="411.26" r="2.26" gradientTransform="translate(567.59 -654.07) rotate(89.78)" gradientUnits="userSpaceOnUse"><stop offset=".12" stop-color="#ffffa9"/><stop offset=".36" stop-color="#fffea7"/><stop offset=".45" stop-color="#fffca0"/><stop offset=".51" stop-color="#fff894"/><stop offset=".57" stop-color="#fff283"/><stop offset=".61" stop-color="#ffeb6d"/><stop offset=".63" stop-color="#ffe65d"/><stop offset=".77" stop-color="#fde35c"/><stop offset=".84" stop-color="#f9db59"/><stop offset=".89" stop-color="#f2ce55"/><stop offset=".94" stop-color="#e8bb4f"/><stop offset=".98" stop-color="#dba347"/><stop offset="1" stop-color="#d39443"/></radialGradient><radialGradient id="ak" cx="822.11" cy="806.05" fx="822.11" fy="806.05" r="3.13" gradientTransform="translate(661.33 -495.15) rotate(90.96) scale(.69 .61) skewX(.07)" gradientUnits="userSpaceOnUse"><stop offset="0" stop-color="#fff"/><stop offset=".09" stop-color="#fff" stop-opacity=".95"/><stop offset=".25" stop-color="#fff" stop-opacity=".83"/><stop offset=".46" stop-color="#fff" stop-opacity=".62"/><stop offset=".72" stop-color="#fff" stop-opacity=".34"/><stop offset="1" stop-color="#fff" stop-opacity="0"/></radialGradient><radialGradient id="al" cx="279.92" cy="703.07" fx="279.92" fy="703.07" r="4.99" gradientTransform="translate(326.46 -403.35) rotate(46.67) scale(.69 .61) skewX(.07)" xlink:href="#ai"/><radialGradient id="am" cx="343.61" cy="320.51" fx="343.61" fy="320.51" r="2.26" gradientTransform="translate(135.89 -438.72) rotate(45.66)" xlink:href="#aj"/><radialGradient id="an" cx="279.82" cy="702.03" fx="279.82" fy="702.03" r="3.13" gradientTransform="translate(326.46 -403.35) rotate(46.67) scale(.69 .61) skewX(.07)" xlink:href="#ak"/><radialGradient id="ao" cx="-44.4" cy="590.65" fx="-44.4" fy="590.65" r="4.99" gradientTransform="translate(304.04 392.92) rotate(-25.49) scale(.69 -.57) skewX(.07)" xlink:href="#ai"/><radialGradient id="ap" cx="-63.48" cy="249.06" fx="-63.48" fy="249.06" r="4.99" gradientTransform="translate(158.11 -123.33) rotate(-.28) scale(.69 .57) skewX(.06)" xlink:href="#ai"/><radialGradient id="aq" cx="115.4" cy="18.12" fx="115.4" fy="18.12" r="2.26" gradientTransform="matrix(1, 0, 0, 1, 0, 0)" xlink:href="#aj"/><radialGradient id="ar" cx="-64.28" cy="237.14" fx="-64.28" fy="237.14" r="3.13" gradientTransform="translate(158.63 -126.73) rotate(-.27) scale(.69 .61) skewX(.08)" xlink:href="#ak"/><radialGradient id="as" cx="-22.01" cy="-285.73" fx="-22.01" fy="-285.73" r="4.99" gradientTransform="translate(211.53 136.98) rotate(-44.85) scale(.69 .57) skewX(.06)" xlink:href="#ai"/><radialGradient id="at" cx="993.95" cy="-344.94" fx="993.95" fy="-344.94" r="2.26" gradientTransform="translate(1025.87 -438.72) rotate(134.34) scale(1 -1)" xlink:href="#aj"/><radialGradient id="au" cx="-21.13" cy="-263.52" fx="-21.13" fy="-263.52" r="3.13" gradientTransform="translate(208.93 135.23) rotate(-44.84) scale(.69 .61) skewX(.07)" xlink:href="#ak"/><radialGradient id="av" cx="302.12" cy="-556.25" fx="302.12" fy="-556.25" r="4.99" gradientTransform="translate(386.48 275.28) rotate(-88.65) scale(.69 .57) skewX(.07)" xlink:href="#ai"/><radialGradient id="aw" cx="716.96" cy="-519.17" fx="716.96" fy="-519.17" r="2.26" gradientTransform="translate(594.18 -654.07) rotate(90.22) scale(1 -1)" xlink:href="#aj"/><radialGradient id="ax" cx="302.16" cy="-517.12" fx="302.16" fy="-517.12" r="3.13" gradientTransform="translate(383.97 275.25) rotate(-88.64) scale(.69 .61) skewX(.08)" xlink:href="#ak"/><radialGradient id="ay" cx="487.31" cy="-516.73" fx="487.31" fy="-516.73" r="4.99" gradientTransform="translate(465.93 295.31) rotate(-109.33) scale(.69 .57) skewX(.06)" xlink:href="#ai"/><radialGradient id="b`" cx="487.31" cy="-516.73" fx="487.31" fy="-516.73" r="4.19" gradientTransform="translate(465.93 295.31) rotate(-109.33) scale(.69 .57) skewX(.06)" xlink:href="#ai"/><radialGradient id="ba" cx="526.24" cy="-491.18" fx="526.24" fy="-491.18" r="2.26" gradientTransform="translate(294.76 -607.42) rotate(64.7) scale(1 -1)" xlink:href="#aj"/><radialGradient id="bb" cx="487.33" cy="-479.82" fx="487.33" fy="-479.82" r="3.13" gradientTransform="translate(463.14 296.28) rotate(-109.32) scale(.69 .61) skewX(.08)" xlink:href="#ak"/><radialGradient id="bc" cx="672.3" cy="-392.95" fx="672.3" fy="-392.95" r="4.99" gradientTransform="translate(558.84 287.21) rotate(-131.5) scale(.69 .57) skewX(.07)" xlink:href="#ai"/><radialGradient id="bd" cx="397.29" cy="-402.56" fx="397.29" fy="-402.56" r="2.26" gradientTransform="translate(84.65 -474.15) rotate(44.67) scale(1 -1)" xlink:href="#aj"/><radialGradient id="be" cx="672.63" cy="-362.92" fx="672.63" fy="-362.92" r="3.13" gradientTransform="translate(556.3 289.78) rotate(-131.5) scale(.69 .61) skewX(.07)" xlink:href="#ak"/><radialGradient id="bf" cx="1163.52" cy="96.03" fx="1163.52" fy="96.03" r="2.25" gradientTransform="translate(1252.84 -225.02) rotate(159.02)" xlink:href="#aj"/><radialGradient id="bg" cx="476.27" cy="905.15" fx="476.27" fy="905.15" r="4.99" gradientTransform="translate(549.92 585.84) rotate(-68.56) scale(.69 -.61) skewX(.08)" xlink:href="#ai"/><radialGradient id="bh" cx="18.84" cy="-340.24" fx="18.84" fy="-340.24" r="4.19" gradientTransform="translate(335.66 151.54) rotate(-71.69) scale(.69 .57) skewX(.07)" xlink:href="#ai"/><radialGradient id="bi" cx="924.36" cy="349.81" fx="924.36" fy="349.81" r="2.25" gradientTransform="translate(867 -607.42) rotate(115.3)" xlink:href="#aj"/><radialGradient id="bj" cx="476.43" cy="903.8" fx="476.43" fy="903.8" r="3.13" gradientTransform="translate(549.92 585.84) rotate(-68.56) scale(.69 -.61) skewX(.08)" xlink:href="#ak"/><radialGradient id="bk" cx="151.81" cy="721.88" fx="151.81" fy="721.88" r="4.99" gradientTransform="translate(358.6 492.19) rotate(-41.36) scale(.69 -.61) skewX(.08)" xlink:href="#ai"/><radialGradient id="bl" cx="1060.45" cy="251.35" fx="1060.45" fy="251.35" r="2.26" gradientTransform="translate(1077.12 -474.15) rotate(135.33)" xlink:href="#aj"/><radialGradient id="bm" cx="151.71" cy="720.84" fx="151.71" fy="720.84" r="3.13" gradientTransform="translate(358.6 492.19) rotate(-41.36) scale(.69 -.61) skewX(.08)" xlink:href="#ak"/><radialGradient id="bn" cx="-43.4" cy="556.9" fx="-43.4" fy="556.9" r="3.13" gradientTransform="translate(305.05 396.42) rotate(-25.49) scale(.69 -.61) skewX(.08)" xlink:href="#ak"/><radialGradient id="bo" cx="800.74" cy="-184.72" fx="800.74" fy="-184.72" r="4.99" gradientTransform="translate(636.12 256.12) rotate(-152.93) scale(.69 .57) skewX(.07)" xlink:href="#ai"/><radialGradient id="bp" cx="826.11" cy="-125.42" fx="826.11" fy="-125.42" r="4.19" gradientTransform="translate(647.76 258.57) rotate(-156.7) scale(.69 .57) skewX(.07)" xlink:href="#ai"/><radialGradient id="bq" cx="293.5" cy="-236.95" fx="293.5" fy="-236.95" r="2.25" gradientTransform="translate(-91.07 -225.02) rotate(20.98) scale(1 -1)" xlink:href="#aj"/><radialGradient id="br" cx="800.53" cy="-168.99" fx="800.53" fy="-168.99" r="3.13" gradientTransform="translate(634.36 258.92) rotate(-152.92) scale(.69 .61) skewX(.08)" xlink:href="#ak"/><radialGradient id="bs" cx="-87.78" cy="-36.35" fx="-87.78" fy="-36.35" r="4.99" gradientTransform="translate(162.45 18.47) rotate(-22.97) scale(.69 .57) skewX(.06)" xlink:href="#ai"/><radialGradient id="bt" cx="-100.13" cy="107.3" fx="-100.13" fy="107.3" r="4.19" gradientTransform="translate(139.41 -59.81) rotate(-22.07) scale(.69 .57) skewX(.06)" xlink:href="#ai"/><radialGradient id="bu" cx="1064.96" cy="-145.38" fx="1064.96" fy="-145.38" r="2.26" gradientTransform="translate(1151.65 -192.19) rotate(160.75) scale(1 -1)" xlink:href="#aj"/><radialGradient id="bv" cx="-88.18" cy="-30.88" fx="-88.18" fy="-30.88" r="3.13" gradientTransform="translate(161.64 15.86) rotate(-22.96) scale(.69 .61) skewX(.07)" xlink:href="#ak"/><radialGradient id="bw" cx="108.63" cy="-463.01" fx="108.63" fy="-463.01" r="4.99" gradientTransform="translate(287.92 221.3) rotate(-65.97) scale(.69 .57) skewX(.07)" xlink:href="#ai"/><radialGradient id="bx" cx="113.2" cy="-393.72" fx="113.2" fy="-393.72" r="4.19" gradientTransform="translate(253.58 204.73) rotate(-67.13) scale(.69 .57) skewX(.06)" xlink:href="#ai"/><radialGradient id="by" cx="857.09" cy="-473.32" fx="857.09" fy="-473.32" r="2.25" gradientTransform="translate(813.13 -598.36) rotate(109.99) scale(1 -1)" xlink:href="#aj"/><radialGradient id="c`" cx="109.74" cy="-428.3" fx="109.74" fy="-428.3" r="3.13" gradientTransform="translate(284.22 220.49) rotate(-65.96) scale(.69 .61) skewX(.07)" xlink:href="#ak"/><radialGradient id="ca" cx="533.57" cy="803.46" fx="533.57" fy="803.46" r="4.99" gradientTransform="translate(475.59 -477) rotate(68.27) scale(.69 .61) skewX(.07)" xlink:href="#ai"/><radialGradient id="cb" cx="518.93" cy="-426.05" fx="518.93" fy="-426.05" r="4.19" gradientTransform="translate(511.97 288.12) rotate(-111.4) scale(.69 .57) skewX(.06)" xlink:href="#ai"/><radialGradient id="cc" cx="539.2" cy="400.73" fx="539.2" fy="400.73" r="2.26" gradientTransform="translate(348.64 -598.36) rotate(70.01)" xlink:href="#aj"/><radialGradient id="cd" cx="533.73" cy="802.11" fx="533.73" fy="802.11" r="3.13" gradientTransform="translate(475.59 -477) rotate(68.27) scale(.69 .61) skewX(.07)" xlink:href="#ak"/><radialGradient id="ce" cx="973.08" cy="-143" fx="973.08" fy="-143" r="4.19" gradientTransform="translate(770.52 234.25) rotate(-154.67) scale(.69 .57) skewX(.07)" xlink:href="#ai"/><radialGradient id="cf" cx="185.72" cy="161.32" fx="185.72" fy="161.32" r="2.26" gradientTransform="translate(10.11 -192.19) rotate(19.25)" xlink:href="#aj"/><radialGradient id="cg" cx="48.49" cy="473.14" fx="48.49" fy="473.14" r="3.13" gradientTransform="translate(203.21 -261.06) rotate(20.72) scale(.69 .61) skewX(.08)" xlink:href="#ak"/><clipPath id="ch"><path class="fj" d="M160.07,52.63c-1.25-6.16-3.68-11.79-7.02-16.67-3.34-4.88-7.58-9.03-12.44-12.26-4.86-3.22-10.33-5.52-16.13-6.7-5.8-1.18-11.92-1.24-18.09,0-6.16,1.25-11.79,3.68-16.67,7.02-4.88,3.34-9.03,7.58-12.26,12.44-3.22,4.86-5.52,10.33-6.7,16.13-1.18,5.8-1.24,11.92,0,18.09,1.25,6.17,3.68,11.79,7.02,16.67,3.34,4.88,7.58,9.03,12.44,12.26,4.86,3.22,10.33,5.52,16.13,6.7,5.8,1.18,11.92,1.24,18.09,0,6.16-1.25,11.78-3.68,16.67-7.02,4.88-3.34,9.03-7.58,12.26-12.44,3.22-4.86,5.52-10.33,6.7-16.13,1.18-5.8,1.24-11.92,0-18.09Z"/></clipPath><radialGradient id="ci" cx="-414.38" cy="-206.89" fx="-414.38" fy="-206.89" r="5.99" gradientTransform="translate(102.06 -493.71) rotate(-106.04) scale(1.4 .73) skewX(-.12)" gradientUnits="userSpaceOnUse"><stop offset=".3" stop-color="#000"/><stop offset="1" stop-color="#000" stop-opacity="0"/></radialGradient><radialGradient id="cj" cx="-591.24" cy="950.65" fx="-591.24" fy="950.65" r="5.99" gradientTransform="translate(584.22 1080.14) rotate(104.1) scale(1.4 .73) skewX(-.12)" xlink:href="#ci"/><linearGradient id="ck" x1="115.56" y1="112.08" x2="115.56" y2="87.6" gradientTransform="matrix(1, 0, 0, 1, 0, 0)" gradientUnits="userSpaceOnUse"><stop offset=".02" stop-color="#036666"/><stop offset=".45" stop-color="#00949c"/><stop offset=".59" stop-color="#00848a"/><stop offset=".87" stop-color="#005d5e"/><stop offset="1" stop-color="#004947"/></linearGradient><linearGradient id="cl" x1="115.08" y1="111.82" x2="116.72" y2="94.17" gradientTransform="matrix(1, 0, 0, 1, 0, 0)" gradientUnits="userSpaceOnUse"><stop offset="0" stop-color="#00949c"/><stop offset=".26" stop-color="#00848a"/><stop offset=".76" stop-color="#005d5e"/><stop offset="1" stop-color="#004947"/></linearGradient></defs><g class="fy"><g id="a"><g><path class="db" d="M115.82,60.79L126.51,1.34c-4.85-.86-9.67-1.3-14.39-1.34l3.7,60.79Z"/><path class="da" d="M77.67,113.72c3.99,2.28,8.25,4.26,12.74,5.9l-.17-.08,24.75-55.76-37.32,49.95Z"/><path class="cn" d="M141.03,5.23l.17,.09-24.63,55.59L153.78,11.12c-3.99-2.28-8.25-4.26-12.74-5.9Z"/><path class="cm" d="M115.78,63.89l-10.84,59.61c4.85,.86,9.67,1.3,14.39,1.34l-3.55-60.95Z"/><path class="cp" d="M188.69,63.04l-70.51-.54,69.81,12.69c.73-4.15,.95-8.28,.71-12.36h0v.21Z"/><path class="co" d="M181.81,39.25l-63.77,22.44,68.44-11.27c-1.17-3.91-2.75-7.71-4.73-11.37h0l.06,.2Z"/><path class="cu" d="M165.33,19.21l-47.3,41.46,56.4-32.4c-2.74-3.29-5.82-6.38-9.22-9.22h0l.12,.16Z"/><path class="ct" d="M146.81,120.37l-30.21-56.35,17.31,59.64-.19,.07c4.53-.76,8.91-1.89,13.09-3.36Z"/><path class="cw" d="M114.3,60.68L72.27,10.22l.15-.14c-3.7,2.14-7.15,4.59-10.28,7.31l52.17,43.29Z"/><path class="cv" d="M49.64,85.59l63.94-22.74-68.62,11.57c1.17,3.91,2.75,7.71,4.73,11.37h0l-.06-.2Z"/><path class="cy" d="M118.41,63.48l59.69,34.48-.1,.19h0c2.44-3.27,4.52-6.78,6.18-10.51l-65.77-24.15Z"/><path class="cx" d="M117.45,63.84l41.73,50.78-.15,.14c3.7-2.14,7.15-4.59,10.28-7.31l-51.87-43.61Z"/><path class="d`" d="M42.76,61.8l70.69,.24-69.99-12.39c-.73,4.15-.95,8.28-.71,12.36h0v-.21Z"/><path class="cr" d="M57.03,96.57c2.74,3.29,5.82,6.38,9.22,9.22l-.12-.16,48.08-42.16-57.17,33.11Z"/><path class="cq" d="M97.54,1.19l.19-.07c-4.53,.76-8.91,1.89-13.09,3.36l30.52,56.02L97.54,1.19Z"/><path class="cs" d="M113.66,61.23L53.35,26.89l.1-.19h0c-2.44,3.27-4.52,6.78-6.18,10.51l66.39,24.01Z"/></g><g><g><path class="fs" d="M113.08,123.84c-35.62-.02-64.51-1.45-64.52-3.21-.01-1.75,28.86-3.16,64.48-3.15,35.62,.01,64.51,1.45,64.52,3.2,.01,1.75-28.86,3.16-64.48,3.15Z"/><g><polygon class="fk" points="115.75 76.22 130.61 96.11 145.48 116 115.75 116 86.02 116 100.88 96.11 115.75 76.22"/><path class="ge" d="M130.61,96.11l-14.86-19.89-14.86,19.89-14.87,19.89h59.46l-14.87-19.89Zm-43.24,19.3l14.19-19.3,14.19-18.98,14.19,18.98,14.19,19.3h-56.74Z"/><rect class="fk" x="81.86" y="116" width="67.74" height="4.66"/><path class="g`" d="M81.86,116v4.66h67.74v-4.66H81.86Zm66.79,3.9H82.8v-3.14h65.84v3.14Z"/><g class="fw"><path class="fr" d="M115.22,110.14c-21.06-.02-38.13-5.29-38.14-11.77,0-6.48,17.06-11.72,38.12-11.7,21.06,.02,38.13,5.29,38.14,11.77,0,6.48-17.06,11.72-38.12,11.7Z"/><path class="dc" d="M115.21,112.46c-19.48-.02-35.28-7.14-35.28-15.89,0-8.75,15.79-15.82,35.27-15.8,19.48,.02,35.28,7.14,35.28,15.89,0,8.75-15.79,15.82-35.27,15.8Z"/><path class="ft" d="M144.69,122.04c-40.01-.02-72.46-2.74-72.47-6.08-.01-3.34,32.41-6.03,72.43-6.01,40.01,.02,72.46,2.74,72.47,6.08,.01,3.34-32.41,6.03-72.43,6.01Z"/><path class="fu" d="M86.05,122.05C38.54,122.03,.02,119.31,0,115.97c-.02-3.34,38.48-6.03,85.99-6,47.51,.02,86.03,2.75,86.05,6.09,.02,3.34-38.48,6.03-85.99,6Z"/></g><path class="fp" d="M123.88,21.68c5.51,1.15,10.52,3.36,14.88,6.38,4.35,3.01,8.04,6.83,10.9,11.2,2.86,4.36,4.88,9.27,5.9,14.47,1.02,5.19,1.04,10.68-.1,16.19-1.15,5.51-3.36,10.52-6.38,14.88-3.01,4.35-6.83,8.04-11.2,10.9-4.36,2.86-9.27,4.88-14.47,5.91-5.19,1.02-10.68,1.04-16.18-.1-5.51-1.15-10.52-3.36-14.88-6.38-4.35-3.01-8.04-6.83-10.9-11.2-2.86-4.36-4.88-9.27-5.91-14.47-1.02-5.19-1.04-10.68,.1-16.19,1.15-5.51,3.36-10.52,6.38-14.88,3.02-4.35,6.83-8.04,11.2-10.9,4.36-2.86,9.27-4.88,14.47-5.9,5.19-1.02,10.68-1.04,16.18,.1Z"/><g><polygon class="fo" points="75.66 53.26 75.66 53.26 75.66 53.26 75.66 53.26"/><path class="fo" d="M123.9,21.69h0Z"/><polygon class="fo" points="137.88 95.69 137.89 95.68 137.89 95.68 137.88 95.69"/><polygon class="fo" points="138.76 28.06 138.76 28.06 138.75 28.06 138.76 28.06"/><polygon class="fo" points="75.55 69.44 75.55 69.44 75.56 69.45 75.55 69.44"/><polygon class="fo" points="81.46 83.91 81.46 83.91 81.46 83.91 81.46 83.91"/><path class="fm" d="M115.1,61.7h39.61c0,5.2-1.03,10.36-3.02,15.16s-4.91,9.17-8.59,12.85l-28-28.02Z"/><path class="fm" d="M115.43,62.42v39.61c-5.2,0-10.36-1.03-15.16-3.02s-9.17-4.91-12.85-8.59l28.02-28Z"/><path class="fm" d="M115.82,62.7h-39.61c0-5.2,1.03-10.36,3.02-15.16s4.91-9.17,8.59-12.85l28,28.02Z"/><path class="fm" d="M115.13,62.15V22.54c5.2,0,10.36,1.03,15.16,3.02s9.17,4.91,12.85,8.59l-28.02,28Z"/></g><path class="fv" d="M115.58,103.64c-22.48-.05-40.7-18.87-40.7-42.04,0-23.16,18.22-41.9,40.7-41.84,22.48,.05,40.7,18.87,40.7,42.04s-18.22,41.9-40.7,41.84Z"/><path class="dd" d="M161.07,63.24c.23-6.28-.83-12.32-2.93-17.85-2.1-5.53-5.26-10.55-9.23-14.82-3.97-4.27-8.75-7.78-14.11-10.28-5.36-2.5-11.3-3.99-17.59-4.22-6.28-.23-12.32,.83-17.85,2.93-5.53,2.1-10.55,5.26-14.82,9.23-4.27,3.97-7.78,8.75-10.28,14.11-2.5,5.36-3.99,11.3-4.22,17.59-.23,6.28,.83,12.32,2.93,17.85,2.1,5.53,5.26,10.56,9.23,14.82,3.97,4.27,8.75,7.78,14.11,10.28,5.36,2.5,11.3,3.99,17.59,4.22,6.28,.23,12.32-.83,17.85-2.93,5.53-2.1,10.55-5.26,14.82-9.23,4.27-3.97,7.78-8.75,10.28-14.11,2.5-5.36,3.99-11.3,4.22-17.59Zm-9.87,14.94c-2.16,4.63-5.19,8.75-8.87,12.18s-8.02,6.15-12.79,7.96c-4.77,1.82-9.98,2.73-15.4,2.53-5.42-.2-10.55-1.48-15.17-3.64-4.63-2.16-8.75-5.19-12.18-8.87-3.42-3.68-6.15-8.02-7.96-12.79s-2.73-9.98-2.53-15.4c.2-5.42,1.48-10.55,3.64-15.17,2.16-4.63,5.19-8.75,8.87-12.18,3.68-3.42,8.02-6.15,12.79-7.96,4.77-1.82,9.98-2.73,15.4-2.53,5.42,.2,10.55,1.49,15.17,3.64,4.63,2.16,8.75,5.19,12.18,8.87,3.42,3.68,6.14,8.02,7.96,12.79,1.82,4.77,2.73,9.98,2.53,15.4-.2,5.42-1.48,10.55-3.64,15.17Z"/><path class="df" d="M160.21,52.56c-1.25-6.16-3.68-11.79-7.02-16.67-3.34-4.88-7.58-9.03-12.44-12.26-4.86-3.22-10.33-5.52-16.13-6.7-5.8-1.18-11.92-1.24-18.09,0-6.16,1.25-11.78,3.68-16.67,7.02-4.88,3.34-9.03,7.58-12.26,12.44-3.22,4.86-5.52,10.33-6.7,16.13-1.18,5.8-1.24,11.92,0,18.09,1.25,6.16,3.68,11.79,7.02,16.67,3.34,4.88,7.58,9.03,12.44,12.26,4.86,3.22,10.33,5.52,16.13,6.7,5.8,1.18,11.92,1.24,18.09,0,6.16-1.25,11.79-3.68,16.67-7.02,4.88-3.34,9.03-7.58,12.26-12.44,3.22-4.86,5.52-10.33,6.7-16.13,1.18-5.8,1.24-11.92,0-18.09Zm-.36,17.97c-1.16,5.73-3.43,11.13-6.61,15.92-3.18,4.8-7.28,8.98-12.1,12.28-4.82,3.3-10.37,5.7-16.46,6.93-6.09,1.23-12.14,1.17-17.86,0-5.73-1.16-11.13-3.43-15.92-6.61-4.8-3.18-8.98-7.28-12.28-12.1-3.3-4.82-5.7-10.37-6.93-16.46-1.23-6.09-1.17-12.13,0-17.86,1.16-5.73,3.43-11.13,6.61-15.92s7.28-8.98,12.1-12.28c4.82-3.3,10.37-5.7,16.46-6.93,6.09-1.23,12.14-1.17,17.86,0,5.73,1.16,11.13,3.43,15.92,6.61,4.8,3.18,8.98,7.28,12.28,12.1,3.3,4.82,5.7,10.37,6.93,16.46,1.23,6.09,1.17,12.14,0,17.86Z"/><path class="dt" d="M148.84,83.67c2.83-4.26,4.84-9.06,5.87-14.14,1.03-5.08,1.09-10.46,0-15.86-1.09-5.41-3.23-10.33-6.16-14.62s-6.65-7.92-10.91-10.75c-4.26-2.83-9.06-4.84-14.14-5.87-5.08-1.03-10.46-1.09-15.86,0-5.41,1.09-10.33,3.23-14.62,6.16-4.28,2.93-7.92,6.65-10.75,10.91-2.83,4.26-4.84,9.06-5.87,14.14-1.03,5.08-1.09,10.46,0,15.86,1.09,5.41,3.23,10.33,6.16,14.62,2.93,4.28,6.65,7.92,10.91,10.75,4.26,2.83,9.06,4.84,14.14,5.87,5.08,1.03,10.46,1.09,15.86,0,5.41-1.09,10.33-3.23,14.62-6.16,4.28-2.93,7.92-6.65,10.75-10.91Zm-25.59,15.96c-5.25,1.06-10.47,1.01-15.42,0-4.94-1-9.6-2.96-13.74-5.71-4.14-2.75-7.75-6.28-10.6-10.45-2.85-4.16-4.92-8.95-5.98-14.21-1.06-5.25-1.01-10.47,0-15.42,1-4.94,2.96-9.6,5.71-13.74,2.75-4.14,6.28-7.75,10.45-10.6,4.16-2.85,8.95-4.92,14.21-5.98,5.25-1.06,10.47-1.01,15.41,0,4.94,1,9.6,2.96,13.74,5.71,4.14,2.75,7.75,6.28,10.6,10.45,2.85,4.16,4.92,8.95,5.98,14.21,1.06,5.25,1.01,10.47,0,15.42-1,4.94-2.96,9.6-5.71,13.74-2.75,4.14-6.28,7.75-10.45,10.6-4.16,2.85-8.95,4.92-14.21,5.98Z"/><path class="fq" d="M115.56,71.19c-5.72-.01-10.36-4.32-10.36-9.63,0-5.31,4.64-9.6,10.36-9.59,5.72,.01,10.36,4.33,10.36,9.63,0,5.31-4.64,9.6-10.36,9.59Z"/><path class="dj" d="M122.44,60.19c.19,.95,.18,1.89,0,2.79-.18,.89-.54,1.74-1.03,2.48-.5,.75-1.14,1.4-1.89,1.92-.75,.51-1.62,.89-2.57,1.08-.95,.19-1.89,.18-2.79,0-.89-.18-1.74-.54-2.48-1.03-.75-.5-1.4-1.14-1.92-1.89-.51-.75-.89-1.62-1.08-2.57-.19-.95-.18-1.89,0-2.79,.18-.89,.54-1.74,1.03-2.48,.5-.75,1.14-1.4,1.89-1.92,.75-.51,1.62-.89,2.57-1.08,.95-.19,1.89-.18,2.79,0,.89,.18,1.74,.54,2.48,1.03,.75,.5,1.4,1.14,1.92,1.89,.51,.75,.89,1.62,1.08,2.57Z"/><path class="dl" d="M113.41,58.88c.37-.3,.79-.5,1.22-.62,.43-.12,.88-.15,1.32-.1,.44,.05,.87,.19,1.26,.4,.39,.21,.75,.51,1.05,.88,.3,.37,.5,.79,.62,1.22,.12,.43,.15,.88,.1,1.32-.05,.44-.19,.87-.4,1.26-.21,.39-.51,.75-.88,1.05-.37,.3-.79,.5-1.22,.62-.43,.12-.88,.15-1.32,.1-.44-.05-.87-.19-1.26-.4-.39-.22-.75-.51-1.05-.88-.3-.37-.5-.79-.62-1.22-.12-.43-.15-.88-.1-1.32,.05-.44,.19-.87,.4-1.26,.22-.39,.51-.75,.88-1.05Z"/><path class="de" d="M112.55,59.88c-.22,.39-.37,.83-.42,1.3-.05,.47-.01,.94,.12,1.37,.13,.43,.33,.83,.61,1.17,.27,.35,.61,.64,1,.86,.39,.22,.83,.37,1.3,.42,.47,.05,.94,.01,1.37-.12,.43-.13,.83-.33,1.17-.61,.35-.27,.64-.61,.86-1,.22-.39,.37-.83,.42-1.3,.05-.47,.01-.94-.12-1.37-.13-.43-.33-.83-.61-1.17-.27-.35-.62-.64-1.01-.86-.39-.22-.83-.37-1.3-.42-.47-.05-.94-.01-1.37,.12-.43,.13-.83,.33-1.17,.61-.35,.27-.64,.62-.86,1.01Zm1.02-.8c.32-.25,.69-.45,1.09-.56,.4-.12,.83-.16,1.26-.11,.44,.05,.84,.19,1.21,.39,.36,.2,.68,.48,.93,.8,.25,.32,.45,.69,.56,1.09,.12,.4,.16,.83,.11,1.26-.05,.44-.19,.84-.39,1.21-.2,.36-.48,.68-.8,.93-.32,.25-.69,.45-1.09,.56-.4,.12-.83,.16-1.26,.11-.44-.05-.84-.19-1.21-.39-.36-.2-.68-.48-.93-.8-.25-.32-.45-.69-.56-1.09-.12-.4-.16-.83-.11-1.26,.05-.44,.19-.85,.39-1.21,.2-.36,.48-.68,.8-.93Z"/><path class="ga" d="M109.46,58.13c-.45,.79-.75,1.69-.86,2.65-.11,.96-.02,1.9,.23,2.77,.26,.87,.68,1.68,1.24,2.39,.56,.7,1.25,1.3,2.04,1.75,.79,.45,1.69,.75,2.65,.86,.96,.11,1.9,.02,2.77-.23,.87-.26,1.68-.68,2.39-1.24,.7-.56,1.3-1.25,1.75-2.04,.45-.79,.75-1.69,.86-2.65,.11-.96,.02-1.9-.23-2.77-.26-.87-.68-1.68-1.24-2.39-.56-.7-1.25-1.3-2.04-1.75-.79-.45-1.69-.75-2.65-.86-.96-.11-1.9-.02-2.77,.23-.87,.26-1.68,.68-2.39,1.24-.7,.56-1.3,1.25-1.75,2.04Zm2.07-1.63c.65-.52,1.4-.91,2.21-1.14,.81-.24,1.68-.32,2.57-.22,.89,.1,1.72,.38,2.45,.8,.73,.41,1.37,.97,1.89,1.62,.52,.65,.91,1.4,1.14,2.21s.32,1.68,.22,2.57c-.1,.89-.38,1.72-.8,2.45-.41,.73-.97,1.37-1.62,1.89-.65,.52-1.4,.91-2.21,1.14s-1.68,.32-2.57,.22c-.89-.1-1.72-.38-2.45-.8-.73-.42-1.37-.97-1.89-1.62-.52-.65-.91-1.4-1.14-2.21-.24-.81-.32-1.68-.22-2.57,.1-.89,.38-1.72,.8-2.45,.41-.73,.97-1.37,1.62-1.89Z"/><g><path class="dg" d="M157.87,65.01c-1.69-.03-3.03-1.58-3-3.47,.03-1.89,1.42-3.41,3.11-3.38,1.69,.03,3.03,1.58,3,3.47-.03,1.89-1.42,3.41-3.11,3.38Z"/><path class="di" d="M158.13,63.16c-.88,0-1.59-.7-1.59-1.58s.7-1.59,1.58-1.59c.88,0,1.59,.7,1.59,1.58,0,.88-.7,1.59-1.58,1.59Z"/><path class="dy" d="M158.94,63.72c-1.06-.02-1.9-.99-1.87-2.17,.02-1.18,.89-2.13,1.95-2.12,1.06,.02,1.9,.99,1.88,2.17-.02,1.18-.89,2.13-1.95,2.12Z"/></g><g><path class="dp" d="M148.28,34.41c-1.23,1.16-3.27,.98-4.57-.39-1.3-1.38-1.36-3.43-.13-4.59,1.23-1.16,3.27-.98,4.57,.39,1.3,1.38,1.36,3.43,.13,4.59Z"/><path class="ds" d="M147.22,32.86c-.63,.61-1.63,.6-2.24-.03-.61-.63-.6-1.63,.03-2.24,.63-.61,1.63-.6,2.24,.03,.61,.63,.6,1.63-.03,2.24Z"/><path class="du" d="M147.81,32.99c-.77,.73-2.05,.62-2.86-.25-.81-.86-.85-2.15-.08-2.87,.77-.73,2.05-.61,2.86,.25,.81,.86,.85,2.15,.08,2.87Z"/></g><path class="dh" d="M134.67,99.37c-.68-1.42-2.61-1.92-4.32-1.11-1.71,.81-2.55,2.63-1.87,4.06,.68,1.42,2.61,1.92,4.32,1.1,1.71-.81,2.55-2.63,1.87-4.05Z"/><g><path class="dk" d="M118.83,19.32c0,1.58-1.52,2.86-3.41,2.87-1.89,0-3.44-1.26-3.45-2.84,0-1.58,1.52-2.86,3.41-2.87,1.89,0,3.44,1.26,3.45,2.84Z"/><path class="dn" d="M116.99,19.1c0,.88-.71,1.59-1.59,1.59s-1.59-.71-1.59-1.59,.71-1.59,1.59-1.59,1.59,.71,1.59,1.59Z"/><path class="do" d="M117.55,18.5c0,1.06-.95,1.92-2.13,1.92-1.19,0-2.15-.85-2.16-1.9,0-1.06,.95-1.92,2.13-1.92,1.18,0,2.15,.85,2.16,1.9Z"/></g><g><path class="dm" d="M87.84,29.5c1.11,1.12,.93,3.1-.41,4.44-1.34,1.33-3.33,1.51-4.45,.39-1.11-1.12-.93-3.11,.41-4.44,1.34-1.33,3.33-1.51,4.45-.39Z"/><path class="dv" d="M84.1,32.9c.63,.61,1.63,.6,2.24-.03,.61-.63,.6-1.63-.03-2.24-.63-.61-1.63-.6-2.24,.03-.61,.63-.6,1.63,.03,2.24Z"/><path class="dx" d="M86.35,29.82c.75,.75,.67,2.03-.17,2.87-.84,.84-2.13,.91-2.87,.16-.75-.75-.67-2.03,.17-2.87,.84-.84,2.13-.91,2.87-.16Z"/></g><g><path class="e`" d="M73.4,57.45c1.58,.04,2.82,1.6,2.77,3.49-.05,1.89-1.36,3.4-2.94,3.36-1.58-.04-2.82-1.6-2.77-3.49,.04-1.89,1.36-3.4,2.94-3.36Z"/><path class="dr" d="M73.19,62.46c.88,0,1.59-.7,1.59-1.58,0-.88-.7-1.59-1.58-1.59s-1.59,.7-1.59,1.58c0,.88,.7,1.59,1.58,1.59Z"/><path class="dq" d="M72.73,58.71c1.06,.02,1.89,1,1.86,2.19-.03,1.18-.91,2.13-1.96,2.1-1.06-.02-1.89-1-1.86-2.19,.03-1.18,.91-2.13,1.96-2.1Z"/></g><g><path class="dw" d="M75.31,74.57c1.49-.52,3.2,.5,3.83,2.29,.63,1.79-.07,3.66-1.56,4.18-1.49,.52-3.2-.5-3.83-2.29-.63-1.79,.07-3.66,1.56-4.18Z"/><path class="eu" d="M75.49,75.09c1.25-.44,2.69,.42,3.21,1.92,.53,1.5-.06,3.07-1.31,3.51-1.25,.44-2.69-.42-3.21-1.92-.53-1.5,.06-3.07,1.31-3.51Z"/><path class="eq" d="M77.12,79.24c.79-.37,1.13-1.32,.76-2.11-.37-.79-1.32-1.13-2.11-.76s-1.13,1.32-.76,2.11c.37,.79,1.32,1.13,2.11,.76Z"/><path class="et" d="M74.95,76.06c1-.35,2.12,.27,2.51,1.39,.39,1.12-.1,2.31-1.09,2.66-1,.35-2.12-.27-2.51-1.39-.39-1.12,.1-2.31,1.09-2.66Z"/></g><g><path class="es" d="M82.63,88.18c1.18-1.05,3.15-.75,4.41,.67,1.25,1.42,1.32,3.42,.13,4.46-1.18,1.05-3.15,.75-4.41-.67-1.25-1.42-1.31-3.42-.13-4.46Z"/><path class="en" d="M86.03,91.86c.62-.62,.61-1.63-.01-2.24-.62-.62-1.63-.61-2.24,.01-.62,.62-.61,1.63,.01,2.24,.62,.62,1.63,.61,2.24-.01Z"/><path class="ej" d="M82.86,89.69c.79-.7,2.07-.55,2.85,.34,.79,.89,.78,2.17,0,2.88-.79,.7-2.07,.55-2.85-.34-.79-.89-.78-2.17,0-2.88Z"/></g><path class="el" d="M130.24,101.62c-.31-.82,.1-1.73,.91-2.05,.82-.31,1.73,.09,2.05,.91,.31,.82-.1,1.73-.91,2.05-.82,.31-1.73-.09-2.05-.91Z"/><g><path class="ek" d="M155.64,75.2c-1.57-.62-3.4,.31-4.09,2.07-.69,1.76,.02,3.69,1.59,4.31,1.57,.62,3.4-.31,4.09-2.07,.69-1.76-.02-3.69-1.59-4.31Z"/><path class="er" d="M155.78,75.66c1.26,.41,1.87,1.97,1.37,3.48-.5,1.51-1.92,2.4-3.18,1.98-1.26-.41-1.87-1.97-1.37-3.48s1.92-2.4,3.18-1.98Z"/><path class="fa" d="M154.2,79.82c-.79-.37-1.13-1.32-.76-2.11,.37-.79,1.32-1.13,2.11-.76,.79,.37,1.13,1.32,.76,2.11-.37,.79-1.32,1.13-2.11,.76Z"/><path class="fd" d="M155.98,76.6c-.98-.39-2.13,.19-2.56,1.3-.43,1.1,.01,2.31,.99,2.7,.98,.39,2.13-.19,2.56-1.3,.43-1.1-.01-2.31-.99-2.7Z"/></g><g><path class="fc" d="M148.1,89.21c-1.11-1.27-3.17-1.28-4.59-.03-1.42,1.25-1.67,3.29-.56,4.56s3.17,1.28,4.59,.03,1.67-3.29,.56-4.56Z"/><path class="ex" d="M144.4,93c-.62-.62-.61-1.63,.01-2.24,.62-.62,1.63-.61,2.24,.01,.62,.62,.61,1.63-.01,2.24-.62,.62-1.63,.61-2.24-.01Z"/><path class="em" d="M147.51,90.58c-.7-.79-1.98-.8-2.87-.02-.89,.78-1.05,2.06-.35,2.85,.7,.79,1.98,.8,2.87,.02,.89-.78,1.05-2.06,.35-2.85Z"/></g><path class="ep" d="M133.96,100.63c-.45-.95-1.69-1.31-2.76-.8-1.07,.51-1.57,1.7-1.12,2.65,.45,.95,1.69,1.31,2.76,.8,1.07-.51,1.57-1.7,1.12-2.65Z"/><g><path class="eo" d="M95.69,98.56c.72-1.41,2.66-1.85,4.35-.98,1.69,.86,2.47,2.7,1.76,4.11-.72,1.41-2.66,1.85-4.35,.98-1.69-.86-2.47-2.7-1.76-4.11Z"/><path class="fb" d="M95.98,98.98c.52-1.22,2.13-1.69,3.59-1.06,1.46,.63,2.22,2.12,1.7,3.34-.52,1.22-2.13,1.69-3.59,1.06-1.46-.63-2.22-2.12-1.7-3.34Z"/><path class="ff" d="M99.95,100.98c.31-.82-.09-1.73-.91-2.05-.82-.31-1.73,.09-2.05,.91-.31,.82,.1,1.73,.91,2.05,.82,.31,1.73-.09,2.05-.91Z"/><path class="fi" d="M96.25,99.88c.48-.94,1.72-1.27,2.78-.73,1.05,.54,1.52,1.74,1.04,2.68s-1.72,1.27-2.78,.73c-1.06-.54-1.52-1.74-1.04-2.68Z"/></g><g><path class="fh" d="M101.99,21.52c.62,1.45-.29,3.23-2.04,3.97-1.74,.74-3.66,.16-4.27-1.29-.62-1.45,.29-3.23,2.04-3.97,1.74-.74,3.66-.16,4.27,1.29Z"/><path class="fe" d="M101.5,21.78c.5,1.23-.29,2.71-1.76,3.3-1.47,.6-3.07,.09-3.57-1.14-.5-1.23,.29-2.71,1.76-3.3,1.47-.6,3.07-.09,3.57,1.14Z"/><path class="ew" d="M97.12,23.12c.29,.83,1.19,1.26,2.02,.97,.83-.29,1.26-1.19,.97-2.02-.29-.83-1.19-1.26-2.02-.97-.83,.29-1.26,1.19-.97,2.02Z"/><path class="f`" d="M100.49,21.26c.41,.97-.14,2.13-1.23,2.6-1.09,.46-2.31,.05-2.72-.92-.41-.97,.14-2.13,1.23-2.6,1.09-.46,2.31-.05,2.72,.92Z"/></g><g><path class="ey" d="M77.67,42.55c1.44,.64,1.99,2.56,1.21,4.29s-2.56,2.61-4.01,1.97c-1.44-.64-1.99-2.56-1.21-4.29s2.56-2.61,4.01-1.97Z"/><path class="fg" d="M77.29,43.23c1.22,.51,1.71,2.12,1.09,3.58-.62,1.46-2.11,2.24-3.33,1.72-1.22-.51-1.71-2.12-1.09-3.58,.62-1.46,2.11-2.24,3.33-1.72Z"/><path class="ev" d="M75.74,47.17c.82,.3,1.73-.12,2.03-.95,.3-.82-.12-1.73-.95-2.03-.82-.3-1.73,.13-2.03,.95-.3,.82,.12,1.73,.95,2.03Z"/><path class="ef" d="M76.4,43.39c.96,.43,1.36,1.65,.87,2.74-.48,1.08-1.66,1.61-2.62,1.18s-1.36-1.65-.87-2.74c.48-1.08,1.66-1.61,2.62-1.18Z"/></g><g><path class="ec" d="M156.29,49.06c-1.57,.63-3.4-.29-4.1-2.05-.7-1.76,0-3.69,1.57-4.32,1.57-.63,3.4,.29,4.1,2.05,.7,1.76,0,3.69-1.57,4.32Z"/><path class="eb" d="M154.14,43.01c1.23-.48,2.7,.32,3.28,1.8,.58,1.48,.05,3.07-1.18,3.56-1.23,.48-2.7-.32-3.28-1.8-.58-1.48-.05-3.07,1.18-3.56Z"/><path class="ea" d="M155.95,47.17c-.82,.3-1.73-.12-2.03-.95-.3-.82,.13-1.73,.95-2.03,.82-.3,1.73,.13,2.03,.95,.3,.82-.12,1.73-.95,2.03Z"/><path class="ed" d="M156.62,47.67c-.98,.39-2.13-.18-2.57-1.28-.44-1.1,0-2.31,.98-2.7,.98-.39,2.13,.18,2.57,1.28,.44,1.1,0,2.31-.98,2.7Z"/></g><g><path class="ei" d="M129.33,21.2c.56-1.2,2.19-1.62,3.62-.94,1.44,.68,2.14,2.2,1.58,3.4-.57,1.2-2.19,1.62-3.62,.94-1.44-.68-2.14-2.2-1.58-3.4Z"/><path class="eh" d="M133.43,22.8c-.29,.83-1.19,1.26-2.02,.97-.83-.29-1.26-1.19-.97-2.02,.29-.83,1.19-1.26,2.02-.97,.83,.29,1.26,1.19,.97,2.02Z"/><path class="eg" d="M134.34,22.3c-.37,.99-1.57,1.45-2.68,1.03-1.11-.42-1.71-1.56-1.33-2.55,.37-.99,1.57-1.45,2.68-1.03,1.11,.42,1.7,1.56,1.33,2.55Z"/></g><g/><g class="fx"><path class="gc" d="M114.82,97.05c2.32-.66,5.25,2.42,6.53,6.87,1.28,4.45,.43,8.6-1.89,9.25s-5.25-2.42-6.53-6.87c-1.28-4.45-.43-8.6,1.89-9.25Z"/><path class="gb" d="M111.7,113.54c-2.34-.6-3.32-4.73-2.19-9.22,1.13-4.49,3.94-7.65,6.28-7.05,2.34,.6,3.32,4.73,2.19,9.22-1.13,4.49-3.94,7.65-6.28,7.05Z"/></g><path class="ee" d="M115.33,96.08c.09-.19,.36-.19,.45,0l3.67,7.98h0c1.73,3.76-.43,7.03-3.89,7.03h0c-3.46,0-5.62-3.27-3.89-7.03h0l3.67-7.98Z"/><path class="gd" d="M119.45,104.05l-3.67-7.99c-.09-.19-.35-.19-.44,0l-3.67,7.99c-1.73,3.76,.43,7.03,3.89,7.03s5.62-3.27,3.89-7.03Zm-3.89,6.28c-2.9,0-4.71-2.85-3.26-6.12l3.07-6.93c.07-.17,.31-.17,.38,0l3.07,6.93c1.45,3.28-.36,6.12-3.26,6.12Z"/></g></g><path class="fn" d="M104.74,30.18s-.12,.01-.21,.02c-1.97,.18-3.81,1.24-4.98,2.87-.65,.91-1.07,1.94-1.22,3.03-.06,.38-.06,.49-.06,1.01s0,.63,.06,1.01c.38,2.6,2.23,4.78,4.74,5.59,.45,.14,.92,.24,1.46,.3,.21,.02,1.12,.02,1.33,0,.93-.1,1.72-.33,2.5-.73,.12-.06,.14-.08,.13-.09-.01,0-.52-.69-1.13-1.51l-1.11-1.5-1.39-2.05c-.76-1.13-1.39-2.05-1.4-2.05,0,0-.01,.91-.01,2.02,0,1.95,0,2.03-.03,2.08-.04,.07-.06,.09-.12,.12-.04,.02-.08,.03-.29,.03h-.23l-.06-.04s-.07-.06-.09-.1l-.03-.06v-5.43l.05-.05s.07-.06,.1-.08c.06-.03,.08-.03,.31-.03,.28,0,.32,.01,.39,.09,.02,.02,.77,1.15,1.67,2.52,.9,1.36,2.13,3.22,2.73,4.14l1.1,1.66,.06-.04c.49-.32,1.01-.77,1.42-1.25,.88-1.01,1.44-2.23,1.63-3.54,.06-.38,.06-.49,.06-1.01s0-.63-.06-1.01c-.38-2.6-2.23-4.78-4.74-5.59-.44-.14-.91-.24-1.44-.3-.13-.01-1.02-.03-1.14-.02h0Zm2.83,4.19c.06,.03,.12,.09,.14,.16,.01,.04,.01,.79,.01,2.48v2.43l-.43-.66-.43-.66v-1.77c0-1.14,0-1.79,.01-1.82,.02-.08,.07-.14,.13-.17,.06-.03,.08-.03,.29-.03,.2,0,.24,0,.28,.03Z"/><g><path class="fl" d="M137.59,47.87c-.47-.81-1.64-.81-2.11,0l-5.1,8.77c-.47,.81,.12,1.81,1.05,1.81h3.98c-.4-.35-.55-.95-.25-1.47l3.86-6.62-1.45-2.49Z"/><path class="fk" d="M140.82,49.8c.39-.66,1.36-.66,1.74,0l4.22,7.18c.39,.66-.1,1.48-.87,1.48h-8.45c-.78,0-1.26-.82-.87-1.48l4.22-7.18Z"/></g><g><path class="fn" d="M131.49,85.26c0-.92-1.16-1.8-2.93-2.34,.41-1.81,.23-3.24-.57-3.7-.18-.11-.4-.16-.64-.16v.63c.13,0,.24,.03,.32,.07,.39,.22,.55,1.06,.42,2.15-.03,.27-.08,.55-.14,.83-.56-.14-1.16-.24-1.8-.31-.38-.53-.78-1-1.18-1.42,.93-.86,1.79-1.33,2.38-1.33v-.63c-.78,0-1.8,.56-2.84,1.52-1.03-.96-2.06-1.51-2.84-1.51v.63c.59,0,1.46,.47,2.38,1.32-.4,.42-.79,.89-1.17,1.42-.64,.07-1.25,.17-1.81,.31-.07-.28-.11-.56-.15-.82-.13-1.08,.03-1.93,.41-2.15,.09-.05,.2-.07,.33-.07v-.63c-.24,0-.45,.05-.64,.16-.8,.46-.98,1.89-.57,3.69-1.77,.55-2.92,1.42-2.92,2.34s1.16,1.8,2.93,2.34c-.41,1.81-.23,3.24,.57,3.7,.18,.11,.4,.16,.64,.16,.78,0,1.8-.56,2.84-1.52,1.03,.96,2.06,1.51,2.84,1.51,.24,0,.45-.05,.64-.16,.8-.46,.98-1.89,.56-3.69,1.76-.54,2.91-1.42,2.91-2.34h0Zm-3.7-1.89c-.11,.37-.24,.74-.38,1.12-.12-.23-.24-.45-.37-.68-.13-.23-.27-.45-.41-.66,.4,.06,.79,.13,1.16,.22h0Zm-1.3,3.02c-.22,.38-.45,.75-.68,1.08-.42,.04-.85,.06-1.28,.06s-.86-.02-1.28-.05c-.24-.34-.47-.7-.69-1.08-.22-.37-.41-.75-.59-1.13,.18-.38,.37-.76,.59-1.13,.22-.38,.45-.75,.68-1.08,.42-.04,.85-.06,1.28-.06s.86,.02,1.28,.05c.24,.34,.47,.7,.69,1.08,.22,.37,.41,.75,.59,1.13-.18,.38-.37,.76-.59,1.13Zm.92-.37c.15,.37,.28,.75,.39,1.13-.37,.09-.76,.17-1.17,.23,.14-.22,.28-.44,.41-.67,.13-.23,.25-.46,.37-.68h0Zm-2.88,3.03c-.26-.27-.53-.58-.79-.91,.26,.01,.52,.02,.78,.02s.53,0,.79-.02c-.24,.32-.5,.62-.78,.91Zm-2.11-1.67c-.4-.06-.79-.13-1.16-.22,.11-.37,.24-.74,.38-1.12,.12,.23,.24,.45,.37,.68,.13,.23,.27,.45,.41,.66Zm2.1-5.91c.26,.27,.53,.58,.79,.91-.26-.01-.52-.02-.78-.02s-.53,0-.79,.02c.24-.32,.5-.62,.78-.91Zm-2.1,1.67c-.14,.22-.28,.44-.41,.67-.13,.23-.25,.45-.37,.68-.15-.37-.28-.75-.39-1.13,.37-.09,.76-.16,1.17-.22Zm-2.57,3.55c-1.01-.43-1.66-.99-1.66-1.44s.65-1.01,1.66-1.44c.24-.11,.51-.2,.79-.29,.16,.56,.37,1.14,.64,1.73-.26,.59-.47,1.17-.63,1.72-.28-.09-.55-.18-.79-.29h0Zm1.53,4.06c-.39-.22-.55-1.06-.42-2.15,.03-.27,.08-.55,.14-.83,.56,.14,1.16,.24,1.8,.31,.38,.53,.78,1,1.18,1.42-.93,.86-1.79,1.33-2.38,1.33-.13,0-.24-.03-.32-.08Zm6.73-2.16c.13,1.08-.03,1.93-.41,2.15-.09,.05-.2,.07-.33,.07-.59,0-1.46-.47-2.38-1.32,.4-.42,.79-.89,1.17-1.42,.64-.07,1.25-.17,1.81-.31,.07,.29,.12,.56,.15,.83h0Zm1.09-1.89c-.24,.11-.51,.2-.79,.29-.16-.56-.37-1.14-.64-1.73,.26-.59,.47-1.17,.63-1.72,.28,.09,.55,.18,.8,.29,1.01,.43,1.66,.99,1.66,1.44,0,.45-.65,1.01-1.66,1.44h0Z"/><path class="fn" d="M124.53,86.56c.72,0,1.3-.58,1.3-1.3s-.58-1.3-1.3-1.3-1.3,.58-1.3,1.3,.58,1.3,1.3,1.3Z"/></g><g><path class="fk" d="M91.09,66.41h-2.65l2.65,6.27"/><path class="fk" d="M91.09,74.53v4.87l-5.68-11.09h2.98l2.7,6.22Zm0-8.11h2.65l-2.65,6.27"/><path class="fk" d="M93.8,68.31h2.98l-5.68,11.09v-4.87l2.7-6.22Z"/></g></g></g></g></svg>