<?xml version="1.0" encoding="UTF-8"?><svg id="a" xmlns="http://www.w3.org/2000/svg" viewBox="0 0 305.83 245.18"><defs><style>.b{fill:#f4a226;}.c{fill:#f5ba26;}.d{fill:#fff;}.e{fill:#cfdde1;}.f{fill:#1e1b10;}.g{fill:#40abb8;}.h{fill:#100c00;}.i{fill:#86a8b1;}.j{fill:#5a838d;}.k{fill:#2c484e;}.l{fill:#375c64;}</style></defs><path class="l" d="M30.84,64.09c-1.2,2.7-2.16,5.67-1.6,8.56,.76,3.93,4.25,6.88,8.04,8.16,3.79,1.28,7.89,1.19,11.89,1.08-3.1,.04-5.28,3.68-4.55,6.69,.72,3.01,3.57,5.14,6.56,5.93,2.99,.79,6.15,.48,9.24,.17-4.13,.76-5.98,6.25-4.27,10.09,1.71,3.84,5.74,6.12,9.75,7.37,11.3,3.55,23.52,1.01,35.07-1.6-3.31,.7-3.92,5.75-1.56,8.17,2.36,2.43,6.17,2.68,9.51,2.19,3.35-.5,6.66-1.59,10.03-1.28-3.03,.28-4.23,4.58-2.61,7.15,1.63,2.57,4.83,3.61,7.84,4.08,3,.47,6.16,.59,8.84,2.03,4.14,2.24,6.16,7.34,5.77,12.03-.39,4.69-2.8,8.99-5.71,12.69-3.66,4.66-8.56,8.8-14.43,9.57,12.34,.02,22.62-9.66,29.13-20.14,2.54-4.09,4.77-8.53,5.19-13.32,.42-4.79-1.31-10.01-5.31-12.69,5.13,.91,10.55-3.37,10.87-8.57,.31-5.2-4.56-10.1-9.76-9.81,4.82-.82,5.94-8.07,2.7-11.73-3.24-3.66-8.67-4.35-13.55-4.15,5.27-4.08,10.5-8.47,13.91-14.2,3.41-5.73,4.73-13.1,1.86-19.11-2.88-6.01-10.7-9.7-16.66-6.7,4.22-3.12,7.22-8.27,6.67-13.49-.55-5.22-5.35-9.97-10.58-9.47,3.88-1.05,4.25-7.02,1.4-9.85-2.85-2.83-7.26-3.24-11.27-3.2-20.4,.19-35.06,8.26-51.73,18.34-16.19,9.79-32.42,16.43-40.67,35.02Z"/><path class="k" d="M39.78,62.94c-.36,.77-.7,1.6-.61,2.45,.18,1.66,2.03,2.72,3.7,2.64,1.67-.09,3.17-.99,4.59-1.87,21.6-13.41,43.21-26.83,64.81-40.24,2.7-1.68,5.79-4.7,4.22-7.46-2.49-4.36-43.2,14.53-47.49,16.77-12.03,6.29-23.36,15.11-29.22,27.73Z"/><g><path class="j" d="M141.25,141.39c.87-5.37-1.12-11.51-5.88-14.14-2.69-1.49-6.08-1.82-8.22-4.03-.5-.51-.92-1.18-.84-1.89,.09-.75,.72-1.31,1.31-1.79,2.1-1.72,4.19-3.44,6.29-5.16-3.44,1.82-7.49,2.45-11.33,1.78-.86-.15-1.74-.38-2.38-.97-1.46-1.33-1.01-3.8,.14-5.4,1.15-1.6,2.84-2.78,3.88-4.46-4.62,1.92-9.59,3-14.59,3.18-3.24,.11-7.29-.78-8.04-3.93-.37-1.56,.25-3.16,.96-4.6,2.06-4.19,4.95-7.96,8.46-11.03-10.81,4.95-22.29,10.02-34.11,8.75-2.74-.3-6.17-1.95-5.64-4.65,.19-.97,.88-1.75,1.55-2.47,5.05-5.45,10.28-10.74,15.68-15.84-4.52,2.69-9.58,5.49-14.75,4.51-.91-.17-1.87-.51-2.36-1.3-.88-1.39,.17-3.16,1.21-4.43,4.63-5.65,9.93-10.75,15.74-15.16-2.69,1.66-5.49,3.15-8.37,4.46-1.71,.78-3.86,1.46-5.35,.31-1.87-1.44-1.13-4.38-.22-6.55-7.82,5.78-16.45,10.44-25.57,13.81-5.1,1.89-10.3,3.17-15.69,1.82-1.54-.39-2.93-.7-4.19-.64,.03,.36,.07,.73,.14,1.09,.76,3.93,4.25,6.88,8.04,8.16,3.79,1.28,7.89,1.19,11.89,1.08-3.1,.04-5.28,3.68-4.55,6.69,.72,3.01,3.57,5.14,6.56,5.93,2.99,.79,6.15,.48,9.24,.17-4.13,.76-5.98,6.25-4.27,10.09,1.71,3.84,5.74,6.12,9.75,7.38,11.3,3.55,23.52,1.01,35.07-1.6-3.31,.7-3.92,5.75-1.56,8.17,2.36,2.43,6.17,2.68,9.51,2.19,3.35-.5,6.66-1.59,10.03-1.28-3.03,.28-4.23,4.58-2.61,7.15,1.63,2.57,4.83,3.61,7.84,4.08,3,.47,6.16,.59,8.84,2.03,4.14,2.24,6.16,7.34,5.77,12.03-.2,2.38-.92,4.66-1.96,6.81,2.2-3.14,3.95-6.57,4.56-10.33Z"/><path class="j" d="M118.51,167.16c.55,0,1.09-.02,1.63-.06,.29-.16,.58-.32,.87-.49-.81,.25-1.65,.43-2.5,.54Z"/></g><g><path class="k" d="M142.65,121.25c-.21,.06-.41,.14-.61,.24,.21-.08,.41-.16,.61-.24Z"/><path class="k" d="M134.51,13.92c-1.39-1.38-3.15-2.18-5.05-2.64,.25,.76,.55,1.49,.63,2.02,.33,2.03,.14,4.07-.61,5.99-1.3,3.33-3.84,6-6.39,8.5-11.03,10.79-23.5,20.1-36.98,27.61,18.23-8.41,33.34-22.16,49.65-33.87,1.14-2.29,.69-5.68-1.25-7.6Z"/><path class="k" d="M147.66,121.01c5.13,.91,10.55-3.37,10.87-8.57,.08-1.41-.21-2.79-.79-4.06-.51,1.57-1.55,2.97-2.66,4.22-3.39,3.8-7.68,6.79-12.42,8.65,2.24-.69,4.85,.4,6.39,2.22,1.69,1.99,2.36,4.65,2.74,7.23,.34,2.3,.48,4.63,.44,6.95,.37-1.29,.63-2.61,.75-3.95,.42-4.79-1.31-10.01-5.31-12.69Z"/><path class="k" d="M137.02,46.73c4.22-3.12,7.22-8.27,6.67-13.49-.16-1.55-.71-3.06-1.52-4.41-1.77,8.35-8.31,15.21-14.75,21.06-8.92,8.1-18.33,15.67-28.16,22.64,13.77-7.24,25.37-18.01,38.6-26.17-.29,.11-.57,.23-.85,.37Z"/><path class="k" d="M140.81,84.45c4.24-3.45,8.23-7.23,11.01-11.9,3.41-5.73,4.73-13.1,1.86-19.11-.46-.97-1.06-1.88-1.75-2.71-.16,.33-.32,.65-.48,.96-9.33,17.81-22.12,33.8-37.46,46.81,6.01-1.08,10.68-5.62,15.8-8.94,3.41-2.21,7.14-3.94,11.03-5.1Z"/><path class="k" d="M148.76,102.63c4.82-.82,5.94-8.07,2.7-11.73-.02-.03-.05-.05-.07-.08-.42,2.57-1.94,4.87-3.57,6.93-2.92,3.71-6.31,7.06-10.06,9.93,4.4-1.62,8.8-3.25,13.2-4.87-.72-.16-1.46-.23-2.2-.19Z"/></g><path class="i" d="M122.21,64.29c2.07-1.84,4.11-3.76,5.65-6.07-6.68,8.47-15.2,15.28-23.72,21.89-10.94,8.48-22.21,16.87-35.12,21.87-2.82,1.09-6.01,2.01-8.79,.84-.79-.33-1.55-.88-1.83-1.69-1.01-2.91,9.13-4.77,11.14-5.5,4.71-1.7,9.34-3.62,13.87-5.75,8.94-4.2,17.5-9.22,25.54-14.98,4.61-3.3,9.04-6.84,13.27-10.61Z"/><path class="i" d="M74.24,78.09c10.94-5.67,21.44-12.19,31.37-19.5,2.56-1.88,5.12-3.86,6.96-6.46-14.47,10.96-30.84,19.4-48.16,24.84-3.4,1.07-6.91,2.07-10,3.89-1.46,.86-7.87,5.61-3.23,5.94,3.52,.25,8.41-2.14,11.63-3.4,3.92-1.54,7.71-3.37,11.45-5.31Z"/><path class="l" d="M19.58,69.53c1.08-6.56,4.48-12.58,8.86-17.58,4.38-5,9.72-9.06,15.21-12.81,18.68-12.79,39.49-22.44,61.32-28.43-23.09,8.98-46.23,19.09-65.09,35.17-4.31,3.67-8.41,7.7-11.28,12.58-1.64,2.79-2.84,5.87-3.37,9.07-.56,3.42,.75,6.53,.49,9.81-.21,2.77-2.7,3.49-4.54,1.49-2.2-2.38-2.09-6.35-1.61-9.3Z"/><path class="k" d="M133.35,6.57c2.27,.34,4.57,1.14,6.14,2.82,1.57,1.68,2.2,4.37,1.02,6.33,1.06,.09,2.1-.48,2.75-1.31,1.72-2.18,.69-5.63-1.49-7.34-2.19-1.71-5.12-2.08-7.89-2.14-4.73-.1-9.48,.53-14.03,1.85,3.96-1.19,9.47-.82,13.5-.22Z"/><path class="j" d="M146.89,16.47c-1.69,4.4-5.03,7.96-8.53,11.12-2.94,2.65-6.11,5.18-8.13,8.58-.68,1.15-1.13,2.83-.08,3.65,.99,.78,2.43,.09,3.46-.65,6.88-4.94,12.37-11.8,15.69-19.59,1.07-2.51,1.93-5.18,1.86-7.9-.17-6.46-6.4-12.12-12.84-11.66,8.64-.61,11.06,9.97,8.57,16.44Z"/><g><path class="l" d="M157.82,82.92c.58-1.02,1.76-2.78,3.86-4.24,2.6-1.81,5.19-2.19,6.39-2.29-7.3-8.45-7.01-19.64-1.54-24.93,5.01-4.83,13.63-4.05,18.93-1.93,3.2,1.28,4.37-1.62,5.71-.32,7.96-9.88,22.05-7.99,31.5-2.9,6.5,3.5,11.05,10.62,11.45,18.52,.56,11.12-7.41,17.94-8.29,18.67,.85,.82,3.62,3.68,4.2,8.33,.68,5.5-2.22,9.45-2.82,10.24,3.01,1.37,9.66,4.93,13.24,12.28,7.29,14.96-5.18,31.22-6.78,33.25-8.1,10.24-19.24,13.31-23.57,14.25-2.37,7.07-6.22,10.8-8.47,12.57-10.38,8.19-27.65,7.23-42.83-2.91-5.98,5.46-11.48,6.56-14.08,6.85-8.14,.91-19.49-2.62-24.14-8.39-.67-.83-2.36-3.15-5.05-3.5-2.06-.27-3.72,.76-4.59,1.25-8.46,4.78-19.92,3.28-21.09,3.11-2.24-.32-5.01-.71-8.13-2.4-3.92-2.12-4.11-3.95-7.03-4.57-4.01-.85-6.14,2.11-8.81,.69-2.35-1.25-2.74-4.6-2.79-5.02-.55-5.25,4.76-10.25,9.43-12.27,6.98-3.02,13.71,.14,14.93,.75,1.09-2.68,4.3-9.57,11.91-14.74,7.37-5.01,14.68-5.57,17.6-5.65-3.66-15.76,.02-31.31,10.19-39.91,1.78-1.51,12.14-10.26,24.01-7.57,2.89,.65,5.15,1.82,6.67,2.78Z"/><path class="k" d="M213.15,77.09c1.3,1.23,5.36,5.37,6.42,12.19,1,6.43-1.27,11.37-2.11,13.01,.63-.17,1.31-.32,2.03-.44,3.02-.49,5.68-.21,7.7,.23,.61-.79,3.51-4.74,2.82-10.24-.58-4.64-3.35-7.51-4.2-8.33,.88-.73,8.85-7.55,8.29-18.67-.07-1.44-.28-2.86-.62-4.23-.22,1.23-1.97,10.19-10.16,14.46-4.16,2.17-8.16,2.17-10.18,2.02Z"/><path class="k" d="M207.05,150.26c1.04-1.42,2.31-3.47,3.29-6.14,.84-2.29,1.22-4.36,1.39-5.96-1.73,1.51-9.58,8.05-20.44,7.08-4.71-.42-8.36-2.11-10.63-3.43-.03,1.07,.06,3.24,1.23,5.62,1.17,2.37,2.82,3.76,3.68,4.4-3.63,2.81-21.34,15.93-43.33,11.6-7.14-1.41-12.8-4.27-16.86-6.9-.84,.96-2.15,2.1-3.99,2.68-3.81,1.19-8.35-.52-11.59-4.3-3.48,1.94-13.2,6.75-25.95,5.23-8.95-1.07-15.42-4.78-18.74-7.03-.36,.41-2.4,2.91-2.03,6.42,.04,.42,.44,3.77,2.79,5.02,2.68,1.42,4.8-1.54,8.81-.69,2.91,.62,3.11,2.46,7.03,4.57,3.12,1.68,5.89,2.08,8.13,2.4,1.17,.17,12.63,1.67,21.09-3.11,.87-.49,2.53-1.51,4.59-1.25,2.69,.35,4.39,2.67,5.05,3.5,4.65,5.77,15.99,9.3,24.14,8.39,2.6-.29,8.11-1.4,14.08-6.85,15.18,10.13,32.45,11.1,42.83,2.91,2.25-1.77,6.09-5.5,8.47-12.57,4.34-.94,15.47-4.01,23.57-14.25,.79-1,4.2-5.44,6.61-11.47-1.23,2.1-6.91,11.22-18.36,14.2-6.46,1.68-11.96,.69-14.85-.07Z"/><path class="j" d="M128.19,135.28c4.45,6.43,12.12,9.75,19.58,8.47,8.44-1.45,15.11-8.53,16.2-17.41-.83,1.37-6.79,10.8-18.57,12.52-8.66,1.27-15.25-2.4-17.21-3.58Z"/><path class="j" d="M169.49,97.45c.43,.51,2.9,3.34,6.91,3.5,3.72,.14,7.29-2.08,9.09-5.67,.6,.77,3.77,4.64,8.95,5.01,5.4,.38,10.76-3.2,13.09-8.97,.55,7.4-4.25,13.55-10.12,14.48-6.38,1.01-11.12-4.62-11.32-4.86-2.11,3.16-5.95,4.7-9.63,3.87-3.58-.81-6.34-3.72-6.98-7.36Z"/></g><g><g><path class="l" d="M260.73,183.88c3.19-4,1.13-10.39-3.02-13.4-4.15-3.01-9.58-3.47-14.7-3.5,2.75-3.18,3.45-7.99,1.72-11.83-1.73-3.83-5.81-6.49-10.01-6.52,2.39-1.31,4.74-5.87,3.66-8.37-1.76-4.05-6.49-9.72-15.64-5.25-9.99,4.88-4.77,13.07-4.77,13.07,0,0-9.75,.71-14.54,2.23-2.67,.85-4.82,3.16-5.47,5.88-4.36-1.3-9.42,.17-12.41,3.6-1.22,1.4-2.06,3.1-2.51,4.89-.7-1.7-1.72-3.28-2.97-4.62-3.1-3.31-7.45-5.24-11.88-6.17-5.3-1.11-11.73-.46-14.78,4.02-2.54,3.72-1.85,8.67-1.07,13.1-6.12-2.22-13.35-1.09-18.49,2.91-5.14,4-8.03,10.72-7.38,17.21-3.4-.96-7.16-1.18-10.4,.25-3.24,1.43-5.78,11.94-5.51,15.47h124.47c4.66,.39,9.18-1.43,13.5-3.22,1.78-.74,3.56-1.47,5.22-2.44,3.32-1.94,6.09-4.82,7.84-8.25,1.51-2.96,1.93-7.24-.86-9.06Z"/><path class="k" d="M148.62,206.85h17.55c.04-1.3-.35-2.59-1.21-3.57,2.33,.34,4.59-2.13,4.05-4.42,7.26,2.73,16,2.27,22.13-2.48,6.13-4.75,8.64-14.16,4.52-20.73,1.91,.03,3.78-1.18,4.52-2.93,.75-1.75,.32-3.94-1.03-5.29-1.29,3.84-6.42,5.79-9.93,3.78,1.95,5.65-.62,12.5-5.8,15.47-5.18,2.97-12.4,1.71-16.28-2.83-.23,3.28-2.6,6.18-5.56,7.61-2.96,1.43-6.42,1.56-9.66,1,1.85,3.54,1.66,8.07-.5,11.43-.74,1.15-1.69,2.15-2.79,2.96Z"/><path class="k" d="M260.73,183.82c3.19-4,1.13-10.39-3.02-13.4-4.15-3.01-9.58-3.47-14.7-3.5,2.75-3.18,3.45-7.99,1.72-11.83-1.73-3.83-5.81-6.49-10.01-6.52,2.39-1.31,4.74-5.87,3.66-8.37-1.16-2.68-3.63-6.07-7.81-6.76,.19,1.77,1.35,4.8,1.15,6.14-.45,3.18-2.62,6.07-5.54,7.39,4.09,1.22,6.14,6.17,5.37,10.36-.76,4.19-3.64,7.68-6.7,10.64,2.33-.93,5.26,.15,6.44,2.36,1.18,2.21,.44,5.25-1.62,6.67,3.3,1.27,7.46-.31,10.32,1.76,1.9,1.38,2.53,4.03,2.11,6.34-.42,2.31-1.69,4.37-2.99,6.32,2.03,1.02,2.54,3.91,1.55,5.96-.99,2.05-3.06,3.36-5.17,4.22-4.83,1.97-10.17,2.08-15.35,2.66-3.45,.39-7.01,1.06-10.12,2.54h25c4.66,.39,9.18-1.43,13.5-3.22,1.78-.74,3.56-1.47,5.22-2.44,3.32-1.94,6.09-4.82,7.84-8.25,1.51-2.96,1.93-7.24-.86-9.06Z"/><path class="j" d="M169.06,171.35c2.12,.29,4.28,1.01,5.71,2.6,.69,.76,1.19,1.71,1.98,2.36,.79,.66,2.07,.93,2.81,.21,.31-.3,.47-.72,.59-1.14,1.75-6.49-6.78-14.06-12.93-14.12-3.12-.03-5.29,1.94-6.17,4.89-1.75,5.86,4.01,4.63,8.01,5.18Z"/><path class="j" d="M133.07,191.13c-1.41,.9-2.84,1.86-3.76,3.27-.91,1.4-1.17,3.36-.19,4.71,.65,.9,1.72,1.38,2.79,1.69,1.15,.33,2.43,.49,3.5-.04,1.21-.61,1.86-1.96,2.15-3.29,.29-1.32,.3-2.7,.67-4,3.43-1.06,6.28-3.84,7.44-7.23,1.66-4.86-3.29-8.44-7.63-6.36-1.83,.88-3.79,2.93-4.68,4.73-.34,.69-.73,6.8-.29,6.52Z"/><path class="j" d="M213.22,154.54c-2.53,1.24-4.48,3.9-4.28,6.7,.04,.56,.17,1.14,.53,1.58,.91,1.14,2.77,.8,3.98-.02,1.21-.82,2.19-2.03,3.57-2.5,1.96-.66,4.22,.32,6.14-.45,1.29-.52,2.15-1.73,2.87-2.91,2.59-4.23-11.53-3.04-12.81-2.41Z"/></g><g><path class="l" d="M50.82,176.87c.8-6.08,4.88-11.41,10.04-14.73,5.16-3.32,11.29-4.84,17.39-5.49,3.49-.38,7.6-.23,9.74,2.56-.86-3.35,.57-7.16,3.42-9.12,2.85-1.96,6.92-1.92,9.74,.08,2.53-9.76,10.58-17.58,20.02-21.1,9.45-3.52,20.08-3.04,29.68,0,11.47,3.64,22.34,11.72,25.62,23.29,7.63-2.2,16.45,.55,21.47,6.7,3.05,3.73,4.67,8.39,6.36,12.91,1.69,4.51,3.31,9.42,7.02,12.5,11.29,9.39,20.68,9.21,27.61,7.73-12.59,8.88-30.81,8.81-43.33-.16,0,6.84-4.9,13.39-11.46,15.33-6.56,1.94-14.23-.89-17.96-6.63-.25,5.37-4.04,10.14-8.76,12.7-4.73,2.57-10.26,3.23-15.64,3.19-5.58-.05-11.15-.81-16.53-2.26-4.07-1.1-8.54-3.09-9.78-7.11-7,6.91-16.8,10.91-26.64,10.87-9.84-.05-19.6-4.13-26.54-11.11-3.92-3.95-6.97-10.37-3.68-14.86-5.58-2.55-8.6-9.23-7.8-15.31Z"/><g><path class="k" d="M159.57,182.51c-.23-.82-.39-1.67-.48-2.53,.23,.83,.39,1.67,.48,2.53Z"/><path class="k" d="M60.14,162.66c-1.12,3.42-.62,7.39,2.07,9.71,.87,.75,1.91,1.3,2.72,2.12,1.18,1.2,1.74,2.86,2.69,4.24,1.46,2.11,4.03,3.52,6.58,3.22,2.47-.3,4.69-2.43,4.78-4.89-.13,7.06,6.22,13.39,13.27,14.03,7.14,.65,14.19-3.88,17.46-10.26-2.74,8.59,2.92,18.9,11.64,21.21,3.61,.95,8.12,.3,9.98-2.94,5.93,4.35,14.62,4.48,20.67,.31,5.35-3.68,8.29-10.48,7.56-16.9,2.07,7.49,9.52,13.34,17.36,13.17,3.14-.07,6.36-1.06,8.6-3.27,2.23-2.21,3.26-5.75,2.02-8.63,1.86,1.02,3.87,2.04,5.99,1.89,2.12-.14,4.27-1.94,3.99-4.04,4.58,6.8,12.02,11.33,19.97,13.05,6,1.3,15.1,1.48,20.55-2.23,.3-.06,.6-.12,.9-.18-12.59,8.88-30.81,8.81-43.33-.16,0,6.84-4.9,13.39-11.46,15.33-6.56,1.94-14.23-.89-17.96-6.63-.25,5.37-4.04,10.14-8.76,12.7-4.73,2.57-10.26,3.23-15.64,3.19-5.58-.05-11.15-.81-16.53-2.26-4.07-1.1-8.54-3.09-9.78-7.11-7,6.91-16.8,10.91-26.64,10.87-9.84-.05-19.6-4.13-26.54-11.11-3.92-3.95-6.97-10.37-3.68-14.86-5.58-2.55-8.6-9.23-7.8-15.31,.76-5.79,4.5-10.9,9.31-14.24Z"/><path class="k" d="M78.98,177.06c0-.08,0-.16,0-.24,0,.08,0,.16,0,.24Z"/></g><path class="j" d="M178.5,169.54c-2.59-4.14-8.42-5.88-12.85-3.81,.85-3.68-.72-7.79-3.8-9.98-3.08-2.18-7.48-2.3-10.67-.28-3.19,2.02-4.97,6.05-4.32,9.76,1.07-3.43,5.26-5.53,8.65-4.32,3.39,1.2,5.32,5.46,3.99,8.81,3.74-2.26,9.06-1.92,12.07,1.25,3.02,3.16,2.85,8.99-.67,11.57,3.43,.17,6.28,.28,7.94-3.02,1.55-3.07,1.5-7.03-.34-9.97Z"/><path class="j" d="M137.27,169.54c-3.23-5.97-10.14-9.08-16.85-10.09-5.07-.77-11.25-.02-13.68,4.49-3.44-2.27-8.24-2.27-11.68,0-3.44,2.27-5.32,6.69-4.58,10.74,1.55-2.68,4.49-4.49,7.58-4.68,3.09-.19,6.23,1.25,8.1,3.71,2.02-5.91,9.5-8.31,15.61-7.05,3.73,.77,7.4,2.72,9.31,6.01,1.92,3.29,1.57,8.01-1.41,10.38,2.37-1.88,5.97-.83,7.88-3.39,2.05-2.76,1.22-7.35-.29-10.12Z"/><path class="j" d="M130.04,147.3c-1.48-.8-3.36-.78-4.82,.05-1.46,.83-2.44,2.43-2.52,4.11-1.2-1.6-1.21-3.99-.02-5.6,1.18-1.61,3.46-2.31,5.35-1.65,1.39-2.93,4.49-4.91,7.72-5.15,3.23-.24,6.5,1.19,8.68,3.59,1.57,1.73,2.83,4.54,1.66,6.79-1.32-3.07-3.59-5.9-6.94-6.63-3.26-.71-9.08,.13-9.12,4.49Z"/></g><g><path class="l" d="M30.84,64.09c-1.2,2.7-2.16,5.67-1.6,8.56,.76,3.93,4.25,6.88,8.04,8.16,3.79,1.28,7.89,1.19,11.89,1.08-3.1,.04-5.28,3.68-4.55,6.69,.72,3.01,3.57,5.14,6.56,5.93,2.99,.79,6.15,.48,9.24,.17-4.13,.76-5.98,6.25-4.27,10.09,1.71,3.84,5.74,6.12,9.75,7.37,11.3,3.55,23.52,1.01,35.07-1.6-3.31,.7-3.92,5.75-1.56,8.17,2.36,2.43,6.17,2.68,9.51,2.19,3.35-.5,6.66-1.59,10.03-1.28-3.03,.28-4.23,4.58-2.61,7.15,1.63,2.57,4.83,3.61,7.84,4.08,3,.47,6.16,.59,8.84,2.03,4.14,2.24,6.16,7.34,5.77,12.03-.39,4.69-2.8,8.99-5.71,12.69-3.66,4.66-8.56,8.8-14.43,9.57,12.34,.02,22.62-9.66,29.13-20.14,2.54-4.09,4.77-8.53,5.19-13.32,.42-4.79-1.31-10.01-5.31-12.69,5.13,.91,10.55-3.37,10.87-8.57,.31-5.2-4.56-10.1-9.76-9.81,4.82-.82,5.94-8.07,2.7-11.73-3.24-3.66-8.67-4.35-13.55-4.15,5.27-4.08,10.5-8.47,13.91-14.2,3.41-5.73,4.73-13.1,1.86-19.11-2.88-6.01-10.7-9.7-16.66-6.7,4.22-3.12,7.22-8.27,6.67-13.49-.55-5.22-5.35-9.97-10.58-9.47,3.88-1.05,4.25-7.02,1.4-9.85-2.85-2.83-7.26-3.24-11.27-3.2-20.4,.19-35.06,8.26-51.73,18.34-16.19,9.79-32.42,16.43-40.67,35.02Z"/><path class="k" d="M39.78,62.94c-.36,.77-.7,1.6-.61,2.45,.18,1.66,2.03,2.72,3.7,2.64,1.67-.09,3.17-.99,4.59-1.87,21.6-13.41,43.21-26.83,64.81-40.24,2.7-1.68,5.79-4.7,4.22-7.46-2.49-4.36-43.2,14.53-47.49,16.77-12.03,6.29-23.36,15.11-29.22,27.73Z"/><g><path class="j" d="M141.25,141.39c.87-5.37-1.12-11.51-5.88-14.14-2.69-1.49-6.08-1.82-8.22-4.03-.5-.51-.92-1.18-.84-1.89,.09-.75,.72-1.31,1.31-1.79,2.1-1.72,4.19-3.44,6.29-5.16-3.44,1.82-7.49,2.45-11.33,1.78-.86-.15-1.74-.38-2.38-.97-1.46-1.33-1.01-3.8,.14-5.4,1.15-1.6,2.84-2.78,3.88-4.46-4.62,1.92-9.59,3-14.59,3.18-3.24,.11-7.29-.78-8.04-3.93-.37-1.56,.25-3.16,.96-4.6,2.06-4.19,4.95-7.96,8.46-11.03-10.81,4.95-22.29,10.02-34.11,8.75-2.74-.3-6.17-1.95-5.64-4.65,.19-.97,.88-1.75,1.55-2.47,5.05-5.45,10.28-10.74,15.68-15.84-4.52,2.69-9.58,5.49-14.75,4.51-.91-.17-1.87-.51-2.36-1.3-.88-1.39,.17-3.16,1.21-4.43,4.63-5.65,9.93-10.75,15.74-15.16-2.69,1.66-5.49,3.15-8.37,4.46-1.71,.78-3.86,1.46-5.35,.31-1.87-1.44-1.13-4.38-.22-6.55-7.82,5.78-16.45,10.44-25.57,13.81-5.1,1.89-10.3,3.17-15.69,1.82-1.54-.39-2.93-.7-4.19-.64,.03,.36,.07,.73,.14,1.09,.76,3.93,4.25,6.88,8.04,8.16,3.79,1.28,7.89,1.19,11.89,1.08-3.1,.04-5.28,3.68-4.55,6.69,.72,3.01,3.57,5.14,6.56,5.93,2.99,.79,6.15,.48,9.24,.17-4.13,.76-5.98,6.25-4.27,10.09,1.71,3.84,5.74,6.12,9.75,7.38,11.3,3.55,23.52,1.01,35.07-1.6-3.31,.7-3.92,5.75-1.56,8.17,2.36,2.43,6.17,2.68,9.51,2.19,3.35-.5,6.66-1.59,10.03-1.28-3.03,.28-4.23,4.58-2.61,7.15,1.63,2.57,4.83,3.61,7.84,4.08,3,.47,6.16,.59,8.84,2.03,4.14,2.24,6.16,7.34,5.77,12.03-.2,2.38-.92,4.66-1.96,6.81,2.2-3.14,3.95-6.57,4.56-10.33Z"/><path class="j" d="M118.51,167.16c.55,0,1.09-.02,1.63-.06,.29-.16,.58-.32,.87-.49-.81,.25-1.65,.43-2.5,.54Z"/></g><g><path class="k" d="M142.65,121.25c-.21,.06-.41,.14-.61,.24,.21-.08,.41-.16,.61-.24Z"/><path class="k" d="M134.51,13.92c-1.39-1.38-3.15-2.18-5.05-2.64,.25,.76,.55,1.49,.63,2.02,.33,2.03,.14,4.07-.61,5.99-1.3,3.33-3.84,6-6.39,8.5-11.03,10.79-23.5,20.1-36.98,27.61,18.23-8.41,33.34-22.16,49.65-33.87,1.14-2.29,.69-5.68-1.25-7.6Z"/><path class="k" d="M147.66,121.01c5.13,.91,10.55-3.37,10.87-8.57,.08-1.41-.21-2.79-.79-4.06-.51,1.57-1.55,2.97-2.66,4.22-3.39,3.8-7.68,6.79-12.42,8.65,2.24-.69,4.85,.4,6.39,2.22,1.69,1.99,2.36,4.65,2.74,7.23,.34,2.3,.48,4.63,.44,6.95,.37-1.29,.63-2.61,.75-3.95,.42-4.79-1.31-10.01-5.31-12.69Z"/><path class="k" d="M137.02,46.73c4.22-3.12,7.22-8.27,6.67-13.49-.16-1.55-.71-3.06-1.52-4.41-1.77,8.35-8.31,15.21-14.75,21.06-8.92,8.1-18.33,15.67-28.16,22.64,13.77-7.24,25.37-18.01,38.6-26.17-.29,.11-.57,.23-.85,.37Z"/><path class="k" d="M140.81,84.45c4.24-3.45,8.23-7.23,11.01-11.9,3.41-5.73,4.73-13.1,1.86-19.11-.46-.97-1.06-1.88-1.75-2.71-.16,.33-.32,.65-.48,.96-9.33,17.81-22.12,33.8-37.46,46.81,6.01-1.08,10.68-5.62,15.8-8.94,3.41-2.21,7.14-3.94,11.03-5.1Z"/><path class="k" d="M148.76,102.63c4.82-.82,5.94-8.07,2.7-11.73-.02-.03-.05-.05-.07-.08-.42,2.57-1.94,4.87-3.57,6.93-2.92,3.71-6.31,7.06-10.06,9.93,4.4-1.62,8.8-3.25,13.2-4.87-.72-.16-1.46-.23-2.2-.19Z"/></g><path class="i" d="M122.21,64.29c2.07-1.84,4.11-3.76,5.65-6.07-6.68,8.47-15.2,15.28-23.72,21.89-10.94,8.48-22.21,16.87-35.12,21.87-2.82,1.09-6.01,2.01-8.79,.84-.79-.33-1.55-.88-1.83-1.69-1.01-2.91,9.13-4.77,11.14-5.5,4.71-1.7,9.34-3.62,13.87-5.75,8.94-4.2,17.5-9.22,25.54-14.98,4.61-3.3,9.04-6.84,13.27-10.61Z"/><path class="i" d="M74.24,78.09c10.94-5.67,21.44-12.19,31.37-19.5,2.56-1.88,5.12-3.86,6.96-6.46-14.47,10.96-30.84,19.4-48.16,24.84-3.4,1.07-6.91,2.07-10,3.89-1.46,.86-7.87,5.61-3.23,5.94,3.52,.25,8.41-2.14,11.63-3.4,3.92-1.54,7.71-3.37,11.45-5.31Z"/><path class="l" d="M19.58,69.53c1.08-6.56,4.48-12.58,8.86-17.58,4.38-5,9.72-9.06,15.21-12.81,18.68-12.79,39.49-22.44,61.32-28.43-23.09,8.98-46.23,19.09-65.09,35.17-4.31,3.67-8.41,7.7-11.28,12.58-1.64,2.79-2.84,5.87-3.37,9.07-.56,3.42,.75,6.53,.49,9.81-.21,2.77-2.7,3.49-4.54,1.49-2.2-2.38-2.09-6.35-1.61-9.3Z"/><path class="k" d="M133.35,6.57c2.27,.34,4.57,1.14,6.14,2.82,1.57,1.68,2.2,4.37,1.02,6.33,1.06,.09,2.1-.48,2.75-1.31,1.72-2.18,.69-5.63-1.49-7.34-2.19-1.71-5.12-2.08-7.89-2.14-4.73-.1-9.48,.53-14.03,1.85,3.96-1.19,9.47-.82,13.5-.22Z"/><path class="k" d="M16.85,67.35c-.54,3.07-.83,6.24-.19,9.29,.63,3.05,2.29,5.99,4.95,7.62,2.58,1.58,5.8,1.76,8.81,1.38,1.5-.19,3.44-.29,4.07,1.08,.37,.81,.03,1.81-.6,2.43-.64,.62-1.51,.95-2.36,1.19-3.53,1.03-7.41,1.1-10.84-.22-3.43-1.32-6.36-4.12-7.44-7.64-.52-1.71-.61-3.52-.59-5.3,.15-15.03,7.95-29.79,20.29-38.38-8.85,6.29-14.26,18.18-16.07,28.55Z"/><path class="j" d="M35.07,34.86c11.95-8.13,25.32-13.92,37.68-21.41-1.3-.7-37.96,14.14-52.44,25C11.89,44.76,4.11,52.66,.86,62.67c-.87,2.66-1.36,5.69-.08,8.18,1.29,2.5,5.15,3.93,7.24,1.58,1.27-1.43,.94-3.25,1.03-4.98,.1-1.8,.73-3.38,1.44-5.04,3.11-7.29,8.1-13.63,13.85-19.02,3.34-3.13,6.95-5.96,10.73-8.53Z"/><path class="j" d="M146.89,16.47c-1.69,4.4-5.03,7.96-8.53,11.12-2.94,2.65-6.11,5.18-8.13,8.58-.68,1.15-1.13,2.83-.08,3.65,.99,.78,2.43,.09,3.46-.65,6.88-4.94,12.37-11.8,15.69-19.59,1.07-2.51,1.93-5.18,1.86-7.9-.17-6.46-6.4-12.12-12.84-11.66,8.64-.61,11.06,9.97,8.57,16.44Z"/></g><g><g><path class="b" d="M141.27,112.76s.61-.3,1.67-.82c.53-.27,1.21-.52,1.9-.97,.7-.41,1.5-.87,2.36-1.38,.83-.56,1.74-1.16,2.7-1.8,.91-.7,1.88-1.43,2.87-2.19,.96-.81,1.98-1.61,2.95-2.49,.98-.88,1.99-1.75,2.93-2.71,1.97-1.82,3.77-3.8,5.49-5.64,1.67-1.88,3.25-3.63,4.48-5.22,1.26-1.58,2.29-2.91,2.95-3.89,.3-.5,.61-.87,.72-1.16l.22-.44s-.05,.16-.14,.47c-.07,.32-.29,.73-.53,1.28-.55,1.05-1.33,2.58-2.49,4.27-1.13,1.7-2.52,3.64-4.14,5.62-.84,.96-1.65,2.01-2.6,2.96-.91,.99-1.86,1.97-2.85,2.91-.97,.96-2.02,1.84-3.03,2.72-1,.9-2.11,1.64-3.11,2.44-1.04,.75-2.1,1.4-3.08,2.04-1.03,.57-2,1.11-2.9,1.61-.92,.46-1.81,.81-2.57,1.14-.76,.35-1.46,.52-2.02,.71-1.14,.34-1.79,.53-1.79,.53Z"/><path class="c" d="M172.54,84.07c-1.77-4.67,.82-6.16,4.04-8.19,.25,3.77,.43,6.59-4.04,8.19Z"/><path class="c" d="M170.1,89.19c1.79-4.67,4.72-4.05,8.46-3.42-2.32,2.98-4.06,5.21-8.46,3.42Z"/><path class="c" d="M169.29,88.4c-3.64-3.43-1.96-5.9,.05-9.13,1.88,3.28,3.27,5.74-.05,9.13Z"/><path class="c" d="M148.86,108.4c-3.64-3.43-1.96-5.9,.05-9.13,1.88,3.28,3.27,5.74-.05,9.13Z"/><path class="c" d="M142.85,111.83c-2.03-3.51-.15-5.04,2.15-7.09,.7,2.98,1.21,5.22-2.15,7.09Z"/><path class="c" d="M143.13,112.54c3.45-2.14,5.04-.3,7.15,1.94-2.96,.79-5.18,1.37-7.15-1.94Z"/><path class="c" d="M149.58,109.46c4.27-2.6,6.21-.32,8.79,2.47-3.66,.94-6.4,1.63-8.79-2.47Z"/><path class="c" d="M165.19,93.45c-4.91-3.19-3.49-6.4-1.86-10.53,2.85,3.39,4.98,5.93,1.86,10.53Z"/><path class="c" d="M154.03,104.32c-4.03-4.25-1.89-7.04,.67-10.67,1.98,3.96,3.44,6.93-.67,10.67Z"/><path class="c" d="M155.21,105.72c4.44-3.82,7.12-1.55,10.63,1.18-4.05,1.78-7.09,3.11-10.63-1.18Z"/><path class="c" d="M160.55,98.49c-4.89-3.22-3.45-6.42-1.79-10.54,2.83,3.41,4.94,5.96,1.79,10.54Z"/><path class="c" d="M161.67,99.79c4.04-4.24,6.93-2.26,10.69,.11-3.85,2.18-6.74,3.8-10.69-.11Z"/><path class="c" d="M166.47,94.29c3.39-4.78,6.53-3.23,10.6-1.43-3.5,2.71-6.13,4.73-10.6,1.43Z"/></g><g><g><g><polygon class="h" points="193.06 177.73 195.77 177.2 208.17 105.54 180.42 126.23 182.51 127.68 204.05 112.19 193.06 177.73"/><path class="h" d="M195.53,175.94s.5-5.95,5.18-3.14c2.78,1.67,3.43,4.25,3.5,6.06,.05,1.46-.78,2.79-2.11,3.38-.83,.37-1.98,.83-3.59,1.06-5.86,.87-5.41-1.12-5.59-1.96-1.05-4.89,.22-8.23,.22-8.23l2.4,2.82Z"/></g><g><polygon class="h" points="120.43 194.7 119.18 200.1 96.15 132.71 126.89 153.01 127.01 157.84 100.41 138.28 120.43 194.7"/><polygon class="h" points="114.5 211.9 112.37 215.33 88.67 177.48 129.09 158.08 132.45 159.98 92.74 178.69 114.5 211.9"/><polyline class="h" points="147.69 148.8 155.93 188.07 153.5 189.77 144.78 146.56"/><path class="h" d="M152.94,189.45s-4.12-5.64-7.07-.98c-2.96,4.66,.24,9.69,.24,9.69,0,0,1.54,1.46,5.72,.85,4.17-.61,5.12-.99,5.64-2.45,.52-1.46-2.2-10.97-2.2-10.97l-2.33,3.85Z"/><polyline class="h" points="164.8 142.95 171.56 181.63 174.45 182.28 166.68 139.84"/><path class="h" d="M174.85,181.79s1.75-6.63,6.22-3.48c4.46,3.15,3.33,8.89,3.33,8.89,0,0-.9,1.89-5,2.87-4.1,.98-5.12,.99-6.14-.15-1.02-1.14-1.99-10.77-1.99-10.77l3.58,2.64Z"/><path class="h" d="M111.88,214.9s-7.05-8.9-12.07-2.36c-2.83,3.7-2.49,7.46-1.66,10.03,.75,2.32,2.93,3.91,5.37,3.93,1.33,.02,3.06-.11,5.26-.54,8.77-1.67,7.96-4.91,8.15-7.28,.31-3.98-2.74-7.3-2.74-7.3l-2.32,3.52Z"/><path class="h" d="M118.57,198.74s-4.39-6.5-7.7-2.16c-1.87,2.46-1.64,4.96-1.08,6.67,.5,1.55,1.91,2.6,3.54,2.62,.88,.01,2.03-.07,3.49-.35,5.79-1.11,5.79-2.6,5.91-4.18,.2-2.65-3.44-8.52-3.44-8.52l-.72,5.92Z"/></g><g><path class="g" d="M185.24,118.95c5.27,27.4-4.6,36.17-30.51,41.16-20.47,3.94-38.29-4.84-42.58-27.1-4.28-22.26,9.79-32.97,30.26-36.91,20.47-3.94,38.55,.58,42.83,22.84Z"/><path class="h" d="M154.57,162.05c-10.83,2.08-20.69,.72-28.54-3.94-8.4-4.99-13.97-13.52-16.11-24.67-4.01-20.81,6.93-34.33,31.63-39.08,25.01-4.81,40.96,3.83,44.91,24.35,2.14,11.11,2.36,22.68-3.93,30.55-5.73,7.17-17.21,10.72-27.95,12.78Zm-12.32-64c-22.76,4.38-32.48,16.07-28.89,34.73,3.82,19.85,19.34,29.66,40.5,25.58,26.91-5.18,33.9-14.29,29.14-38.99-4.47-23.25-24.63-24.43-40.75-21.33Z"/></g></g><g><g><path class="d" d="M152.88,109.53c8.73,10.09,20.28,14.1,26.28,8.91,6-5.19,3.78-17.59-4.95-27.68-8.73-10.09-20.68-14.06-26.68-8.87-6,5.19-3.39,17.54,5.35,27.63Z"/><path class="h" d="M152.61,110.09c7.38,8.52,16.62,12.88,23.31,11.59,1.77-.34,3.35-1.07,4.68-2.22,3.12-2.7,4.29-7.26,3.29-12.85-.99-5.54-3.99-11.43-8.45-16.59-4.46-5.15-9.86-8.96-15.2-10.74-5.39-1.79-10.07-1.29-13.19,1.41-6.27,5.43-3.78,18.61,5.55,29.39Zm1.51-1.3c-4.01-4.63-6.76-9.87-7.74-14.74-.98-4.88-.06-8.83,2.6-11.13,1.12-.97,2.48-1.6,4.03-1.9,2.16-.42,4.68-.17,7.41,.74,4.75,1.58,9.55,4.98,13.53,9.58,8.19,9.46,10.32,21.09,4.74,25.92-5.53,4.79-16.32,1.07-24.57-8.45Z"/></g><ellipse class="f" cx="165.23" cy="91.84" rx="5" ry="10.76" transform="translate(-19.81 130.54) rotate(-40.88)"/><ellipse class="d" cx="161.08" cy="87.25" rx="2.2" ry="2.97" transform="translate(-18.6 122.96) rotate(-39.68)"/></g><g><g><ellipse class="d" cx="154.14" cy="111.54" rx="12.39" ry="20.3" transform="translate(-35.41 128.08) rotate(-40.88)"/><path class="h" d="M144.47,120.23c6.22,7.18,14.35,10.86,20.26,9.73,1.59-.31,3.01-.96,4.2-1.98,2.72-2.36,3.78-6.3,2.97-11.11-.8-4.76-3.33-9.81-7.13-14.2-3.8-4.39-8.43-7.62-13.03-9.09-4.64-1.49-8.7-1.01-11.42,1.35-5.59,4.84-3.73,16.2,4.16,25.31Zm-4.6-13.6c-.68-4.06,.2-7.39,2.48-9.35,.99-.86,2.18-1.4,3.51-1.66,5.03-.97,12,2.22,17.35,8.4,3.29,3.8,5.47,8.15,6.15,12.26,.68,4.06-.2,7.39-2.48,9.35-.99,.86-2.18,1.4-3.51,1.66-5.02,.97-12-2.22-17.35-8.4-3.29-3.8-5.47-8.15-6.15-12.26Z"/></g><ellipse class="f" cx="155.8" cy="104.5" rx="4.56" ry="8.99" transform="translate(-30.39 127.45) rotate(-40.88)"/><ellipse class="d" cx="152.8" cy="101.51" rx="1.91" ry="2.58" transform="translate(-28.52 129.37) rotate(-42.33)"/></g></g><polygon class="h" points="114.33 173.61 111.99 175.68 86.16 148.87 126.12 139.24 128.58 143.18 92.88 150.33 114.33 173.61"/><g><path class="b" d="M110.82,128.93s.6-.33,1.64-.9c.52-.29,1.19-.58,1.86-1.05,.68-.44,1.46-.94,2.3-1.48,.81-.59,1.69-1.23,2.62-1.91,.88-.74,1.81-1.51,2.77-2.32,.92-.85,1.9-1.69,2.84-2.62,.94-.92,1.92-1.84,2.81-2.83,1.89-1.9,3.61-3.96,5.24-5.87,1.58-1.95,3.09-3.76,4.25-5.41,1.19-1.63,2.16-3.01,2.78-4.01,.27-.51,.57-.9,.67-1.19l.2-.44s-.04,.16-.12,.47c-.06,.32-.26,.75-.47,1.3-.51,1.08-1.22,2.64-2.3,4.37-1.06,1.75-2.36,3.75-3.9,5.79-.8,.99-1.57,2.08-2.47,3.07-.87,1.02-1.77,2.05-2.72,3.03-.93,1-1.94,1.92-2.91,2.85-.96,.94-2.03,1.73-3,2.57-1.01,.8-2.04,1.49-2.99,2.18-1,.61-1.95,1.2-2.83,1.73-.9,.5-1.77,.89-2.52,1.25-.74,.39-1.43,.58-1.99,.8-1.12,.39-1.76,.61-1.76,.61Z"/><path class="c" d="M140.82,98.92c-1.97-4.59,.56-6.19,3.68-8.35,.42,3.76,.72,6.57-3.68,8.35Z"/><path class="c" d="M138.61,104.14c1.59-4.74,4.54-4.25,8.31-3.78-2.19,3.08-3.84,5.38-8.31,3.78Z"/><path class="c" d="M137.76,103.38c-3.78-3.27-2.21-5.81-.35-9.12,2.02,3.19,3.52,5.59,.35,9.12Z"/><path class="c" d="M118.22,124.25c-3.78-3.27-2.21-5.81-.35-9.12,2.02,3.19,3.52,5.59,.35,9.12Z"/><path class="c" d="M112.36,127.93c-2.18-3.42-.37-5.03,1.84-7.17,.83,2.95,1.44,5.16-1.84,7.17Z"/><path class="c" d="M112.67,128.63c3.35-2.28,5.02-.52,7.22,1.63-2.93,.92-5.12,1.59-7.22-1.63Z"/><path class="c" d="M118.98,125.27c4.15-2.78,6.19-.59,8.88,2.09-3.62,1.1-6.32,1.91-8.88-2.09Z"/><path class="c" d="M133.88,108.6c-5.05-2.97-3.77-6.24-2.31-10.44,3,3.26,5.23,5.71,2.31,10.44Z"/><path class="c" d="M123.21,119.95c-4.21-4.08-2.2-6.95,.21-10.69,2.15,3.87,3.74,6.78-.21,10.69Z"/><path class="c" d="M124.44,121.29c4.27-4.01,7.05-1.86,10.67,.72-3.97,1.96-6.95,3.41-10.67-.72Z"/><path class="c" d="M129.46,113.84c-5.03-3.01-3.72-6.26-2.24-10.46,2.97,3.28,5.19,5.74,2.24,10.46Z"/><path class="c" d="M130.65,115.09c3.85-4.41,6.82-2.56,10.69-.35-3.76,2.35-6.57,4.09-10.69,.35Z"/><path class="c" d="M135.2,109.39c3.18-4.92,6.39-3.51,10.53-1.88-3.38,2.86-5.92,4.99-10.53,1.88Z"/></g><path class="c" d="M104.42,197.89c2.69-1.09,5.3-2.38,7.81-3.9,1.26-.75,2.48-1.58,3.65-2.48,.59-.46,1.16-.93,1.73-1.42,.58-.52,1.09-.98,1.69-1.65l2.65-2.96-4.08,.33c-2.34,.19-4.7,.15-7.04,0-.02,0-.03,0-.05,0,1.32-.59,2.63-1.21,3.91-1.87,3.4-1.77,6.7-3.76,9.78-6.08,3.07-2.33,5.95-4.92,8.55-7.81,1.3-1.44,2.52-2.95,3.63-4.56,.56-.8,1.09-1.62,1.59-2.47,.51-.87,.96-1.67,1.42-2.71l1.13-2.56-2.78-.06-7.44-.17-3.66-.05c.94-.82,1.91-1.63,2.9-2.4,2-1.57,4.11-3.01,6.26-4.39,4.33-2.74,8.93-5.09,13.67-7.18-5.01,1.34-9.91,3.2-14.59,5.57-2.35,1.17-4.61,2.51-6.81,3.96-2.2,1.46-4.32,3.05-6.31,4.81l-2.7,2.39,3.68,.25,7.42,.52,4.36,.26c-.43,.66-.87,1.31-1.35,1.94-1.07,1.43-2.21,2.8-3.43,4.13-2.43,2.64-5.15,5.04-8.05,7.18-2.9,2.15-5.96,4.1-9.17,5.8-3.21,1.7-6.55,3.17-9.96,4.48l-5.88,2.27,6.03,1.42c1.36,.32,2.57,.5,3.85,.65,1.27,.15,2.53,.25,3.8,.29,1.03,.05,2.06,.04,3.09,0-.96,.81-1.95,1.58-2.97,2.32-2.25,1.62-4.66,3.03-7.16,4.31-4.99,2.59-10.34,4.5-15.83,6.09,5.67-.69,11.28-2.1,16.67-4.24Z"/><path class="h" d="M114.01,169.46s10.51-4.94,13.91,3.08c3.4,8.02-3.75,11.85-3.75,11.85,0,0-3.05,.55-9.79-3.56-8.76-5.35-7.15-8.24-6.01-10.18"/></g><g><path class="i" d="M96.8,213.24c4.96-2.29,16.31,2.99,16.31,2.99,1.39-1.25,1.82-4.5,2.44-6.27,2.04-5.79,9.46-8.97,15.06-6.47,.38-9.5,11.12-17.06,20.19-14.21,.66-2.52,3.25-4.14,5.83-4.49,2.58-.34,5.17,.34,7.68,1.01,.43-7.82,8.88-12.74,16.62-13.91,8.06-1.23,16.6,.07,23.57,4.3,6.97,4.22,12.2,11.49,13.28,19.56,8.62-3.36,18.48-3.41,27.13-.13,6.13,2.32,12.15,7.1,12.71,13.64,6.62-1.42,13.87,3.88,14.53,10.62,4.25-1.12,8.67-2.03,13.01-1.35,4.34,.68,8.61,3.25,10.23,7.33,4.27-.39,8.63,2.4,10.07,6.43,1.29,5.31-.47,9.46-12.45,4.62-1.84-.74-3.72,1.38-5.58,2.07-5.64,2.09-11.31,4.2-17.23,5.3-11,2.06-22.64,.5-32.71-4.37-1.4-.68-2.79-1.42-4.3-1.78-2.84-.67-5.79,.07-8.7,.23-2.91,.16-6.25-.51-7.74-3.02-6.53,4.1-14.9,5.12-22.23,2.73-17.92,10.28-41.88,8.84-58.43-3.52-1.04-.77-2.17-1.63-3.47-1.57-1,.05-1.87,.64-2.74,1.12-6.41,3.52-15.41,1.05-19.12-5.26-4.27,2.69-9.5,3.82-14.5,3.15-2.4-.32-5.01-1.01-6.46-2.94-3.46-4.59,2.65-13.81,7-15.83Z"/><path class="j" d="M295.23,225.86c-.55-1.39-1.41-2.6-2.47-3.62,.38,1.43,.41,2.91-.03,4.33-1.08,3.45-5.7,5.63-8.61,3.48-.95-.7-1.71-1.79-2.88-2.01-.82-.15-1.64,.18-2.41,.5-2.25,.97-4.57,2.05-7.03,1.99-2.45-.06-5.07-1.68-5.34-4.12-.33-3.11,2.69-4.72,5.52-6.6-.7-6.71-7.93-11.96-14.52-10.55-.56-6.53-6.57-11.31-12.71-13.64-3.82-1.44-7.87-2.24-11.95-2.39-.13,.16-.25,.32-.36,.49,5.98,.4,11.55,4.49,13.73,10.07,2.18,5.58,.87,12.36-3.24,16.72-4.96-6.57-15.34-8.18-22.06-3.43,1.14-2.78-1.45-5.72-4.15-7.05-2.7-1.33-5.9-2.08-7.71-4.49,4.61-1.16,7.29-5.27,8.58-10.03-1.15-7.98-6.34-15.14-13.24-19.31-3.14-1.9-6.6-3.21-10.18-3.96,4.3,4.4,7.33,10.06,8.37,16.13,.74,4.35,.49,9-1.56,12.9-2.04,3.91-6.09,6.92-10.5,6.96,4.81,4.19,6.42,11.65,3.78,17.46-2.64,5.81-9.32,9.49-15.64,8.63-2.12-.29-4.61-1.68-4.35-3.81-4.4,3.54-10.4,5.43-15.83,3.91-5.44-1.52-9.83-6.98-9.14-12.58-1.95,1.97-5.22,2.48-7.67,1.19-2.46-1.28-3.91-4.26-3.4-6.98-2.81,4.64-5.89,9.52-10.77,11.9-4.88,2.38-12.04,.88-13.7-4.29-2.3,1.06-5.21,.59-7.06-1.14-4.55,3.97-9.75,4.11-15.43,4.53-.87,.06-1.72,.14-2.54,.26,.19,.59,.5,1.17,.94,1.76,1.46,1.93,4.07,2.61,6.46,2.94,5,.68,10.23-.46,14.5-3.15,3.71,6.3,12.71,8.78,19.12,5.26,.87-.48,1.75-1.07,2.74-1.12,1.29-.06,2.43,.79,3.47,1.57,16.55,12.36,40.52,13.8,58.43,3.52,7.33,2.39,15.7,1.37,22.23-2.73,1.49,2.51,4.83,3.18,7.74,3.02,2.91-.16,5.87-.91,8.7-.23,1.51,.36,2.9,1.1,4.3,1.78,10.07,4.87,21.71,6.42,32.71,4.37,5.91-1.11,11.59-3.21,17.23-5.3,1.86-.69,3.74-2.81,5.58-2.07,11.99,4.83,13.74,.69,12.45-4.62-1.44-4.04-5.8-6.82-10.07-6.43Z"/><path class="e" d="M155.49,204.31c1.67-1.87,4.35-2.4,6.84-2.63,2-.19,4.05-.24,5.99,.27,1.94,.51,3.79,1.66,4.77,3.42,.17-.66-.17-1.33-.5-1.93-1.24-2.23-2.6-4.58-4.85-5.78-1.47-.79-3.18-1-4.85-1.09-1.89-.09-3.85-.02-5.56,.77-1.72,.79-3.15,2.45-3.18,4.34-.18-.55-.85-.76-1.43-.85-3.85-.58-8.04,.71-10.57,3.67-2.44,2.86-3.17,7.58-.97,10.8-.67-3.57,.83-5.06,3.2-7.48,1.47-1.5,3.09-2.68,5.12-3.31,1.01-.31,2.06-.48,3.11-.51,.35,0,2.8,.41,2.89,.3Z"/><path class="e" d="M166.9,212.08c1.86-1.4,4.43-1.79,6.63-1.01,2.19,.78,3.94,2.7,4.51,4.96,2.32-.58,4.98,.28,6.35,2.24,1.36,1.96,1.17,4.92-.59,6.53,1.5-1.22,2.71-2.85,3.15-4.73,.43-1.88,0-4-1.36-5.37-1.36-1.36-3.68-1.77-5.3-.72,.35-1.24-.76-2.4-1.84-3.11-1.91-1.24-4.11-2.04-6.37-2.32-.82-.1-1.68-.14-2.45,.15-.89,.33-1.59,1.04-2.15,1.81-1.05,1.43-1.74,3.32-1.11,4.98-.45-1.79,.33-3.83,1.87-4.86l-1.32,1.44Z"/><path class="l" d="M207.08,228.31c.81-2.51,2.94-4.54,5.48-5.23,2.54-.69,5.41,0,7.37,1.76,.8-1.64,2.62-2.71,4.44-2.62,1.82,.09,3.53,1.34,4.16,3.04,.22-2.14-1.08-4.36-3.07-5.2-1.98-.84-4.48-.24-5.87,1.41,.08-.49-.36-.9-.78-1.17-3.31-2.1-8.1-1.42-10.7,1.51-2.6,2.94-2.68,7.77-.2,10.8-.73-1.87-.64-4.05,.25-5.86l-1.08,1.55Z"/><path class="l" d="M244.28,223.19c.92-.95,2.19-1.5,3.48-1.77,1.46-.31,3.05-.29,4.38,.37,1.34,.67,2.36,2.07,2.29,3.57,1.04-1.17,2.95-1.36,4.32-.59,1.37,.77,2.17,2.35,2.23,3.92,.05,1.57-.57,3.11-1.52,4.36-1.11,1.47-2.68,2.58-4.43,3.16,2.22-.99,3.74-3.39,3.67-5.82-.02-.58-.13-1.18-.5-1.63-.69-.83-1.96-.78-3.02-.6-1.5,.26-3.17,.82-3.8,2.21,1.02-1.51,.4-3.82-1.17-4.76-1.57-.94-3.77-.49-4.98,.88-1.21,1.37-1.42,3.48-.68,5.15-1.15-2.58-2.65-6.02-.27-8.46Z"/></g><g><path class="i" d="M95.6,210.15c4.84-2.54,16.44,2.18,16.44,2.18,1.33-1.32,1.6-4.59,2.13-6.38,1.75-5.88,9-9.43,14.72-7.2-.09-9.51,10.26-17.59,19.47-15.19,.53-2.55,3.04-4.3,5.6-4.77,2.56-.47,5.18,.08,7.72,.63,.05-7.83,8.24-13.16,15.91-14.72,7.99-1.62,16.58-.75,23.75,3.12,7.17,3.87,12.75,10.87,14.23,18.88,8.44-3.78,18.29-4.32,27.09-1.48,6.24,2.01,12.48,6.49,13.37,12.99,6.54-1.75,14.05,3.19,15.04,9.89,4.18-1.33,8.56-2.46,12.92-1.99,4.37,.46,8.76,2.81,10.58,6.81,4.25-.6,8.74,1.97,10.38,5.93,1.55,5.24,0,9.47-12.21,5.24-1.88-.65-3.65,1.56-5.47,2.35-5.53,2.37-11.09,4.75-16.95,6.15-10.88,2.6-22.59,1.62-32.89-2.74-1.43-.61-2.85-1.28-4.38-1.56-2.87-.53-5.78,.35-8.68,.66-2.9,.31-6.27-.2-7.88-2.63-6.32,4.41-14.63,5.86-22.06,3.83-17.39,11.15-41.39,10.9-58.54-.62-1.08-.72-2.25-1.52-3.54-1.39-.99,.1-1.83,.73-2.68,1.25-6.23,3.83-15.34,1.81-19.35-4.3-4.13,2.9-9.3,4.29-14.32,3.86-2.41-.21-5.05-.76-6.6-2.61-3.69-4.41,1.96-13.93,6.21-16.15Z"/><path class="j" d="M294.42,212.93c-.62-1.36-1.53-2.53-2.65-3.49,.45,1.41,.56,2.89,.18,4.33-.91,3.5-5.41,5.9-8.43,3.9-.99-.65-1.8-1.71-2.97-1.86-.82-.11-1.63,.26-2.38,.62-2.2,1.08-4.47,2.27-6.92,2.33-2.45,.06-5.15-1.43-5.53-3.85-.49-3.09,2.46-4.84,5.18-6.87-1.03-6.66-8.51-11.56-15.03-9.82-.89-6.5-7.13-10.98-13.37-12.99-3.89-1.25-7.97-1.85-12.06-1.8-.12,.16-.23,.33-.34,.51,5.99,.11,11.76,3.91,14.21,9.37,2.46,5.46,1.48,12.3-2.41,16.86-5.28-6.31-15.73-7.41-22.2-2.33,1-2.84-1.74-5.64-4.5-6.84-2.76-1.2-6-1.79-7.92-4.1,4.55-1.38,7.02-5.62,8.07-10.44-1.55-7.91-7.08-14.8-14.18-18.64-3.23-1.74-6.75-2.88-10.37-3.45,4.52,4.18,7.82,9.68,9.16,15.69,.96,4.31,.93,8.96-.92,12.97-1.85,4.01-5.74,7.21-10.14,7.47,5.01,3.95,6.99,11.31,4.64,17.25-2.35,5.93-8.83,9.94-15.19,9.4-2.14-.18-4.69-1.45-4.53-3.59-4.22,3.76-10.11,5.94-15.62,4.69-5.51-1.25-10.16-6.48-9.76-12.12-1.85,2.06-5.09,2.73-7.61,1.57-2.52-1.16-4.11-4.06-3.74-6.81-2.58,4.78-5.41,9.8-10.17,12.42-4.76,2.62-11.98,1.48-13.9-3.6-2.24,1.17-5.18,.85-7.11-.79-4.35,4.19-9.53,4.59-15.19,5.28-.87,.11-1.71,.23-2.52,.39,.22,.58,.55,1.15,1.02,1.71,1.55,1.86,4.19,2.41,6.6,2.61,5.03,.43,10.19-.96,14.32-3.86,4.01,6.11,13.13,8.14,19.35,4.3,.85-.52,1.69-1.15,2.68-1.25,1.29-.13,2.46,.67,3.54,1.39,17.14,11.52,41.15,11.78,58.54,.62,7.44,2.03,15.74,.59,22.06-3.83,1.61,2.43,4.98,2.94,7.88,2.63,2.9-.31,5.81-1.2,8.68-.66,1.53,.28,2.95,.96,4.38,1.56,10.3,4.36,22.01,5.34,32.89,2.74,5.85-1.4,11.42-3.78,16.95-6.15,1.82-.78,3.6-3,5.47-2.35,12.21,4.23,13.76,0,12.21-5.24-1.64-3.96-6.13-6.53-10.38-5.93Z"/><path class="e" d="M153.78,198.32c1.57-1.95,4.22-2.61,6.7-2.97,1.99-.28,4.03-.44,6-.03,1.97,.42,3.87,1.47,4.93,3.18,.14-.67-.24-1.32-.6-1.9-1.35-2.17-2.82-4.44-5.13-5.54-1.51-.72-3.23-.85-4.9-.85-1.89,0-3.84,.17-5.52,1.05-1.68,.88-3.02,2.6-2.96,4.49-.21-.54-.89-.72-1.47-.77-3.88-.39-8,1.11-10.37,4.19-2.3,2.98-2.79,7.73-.44,10.84-.85-3.53,.58-5.1,2.82-7.63,1.39-1.58,2.95-2.83,4.95-3.56,.99-.36,2.03-.58,3.08-.66,.35-.03,2.81,.27,2.9,.16Z"/><path class="e" d="M165.56,205.52c1.79-1.49,4.34-2,6.57-1.33,2.23,.67,4.07,2.51,4.75,4.73,2.28-.69,4.99,.04,6.45,1.93,1.46,1.89,1.41,4.86-.27,6.55,1.43-1.29,2.57-2.98,2.91-4.88,.34-1.9-.2-4-1.63-5.3-1.43-1.3-3.76-1.59-5.33-.46,.29-1.26-.87-2.36-1.99-3.01-1.97-1.14-4.2-1.83-6.48-2-.82-.06-1.68-.05-2.44,.27-.87,.37-1.53,1.12-2.05,1.91-.98,1.48-1.57,3.4-.86,5.03-.54-1.77,.14-3.84,1.63-4.94l-1.25,1.5Z"/><path class="l" d="M206.49,219.74c.68-2.54,2.71-4.68,5.22-5.49,2.5-.81,5.4-.27,7.45,1.39,.72-1.67,2.48-2.84,4.3-2.84,1.82,0,3.59,1.16,4.31,2.83,.12-2.15-1.3-4.3-3.32-5.04-2.02-.74-4.49-.02-5.79,1.7,.06-.49-.4-.88-.84-1.13-3.41-1.93-8.16-1.02-10.61,2.04-2.45,3.06-2.3,7.9,.34,10.8-.83-1.83-.84-4.02-.04-5.86l-1,1.61Z"/><path class="l" d="M243.4,212.79c.87-.99,2.11-1.6,3.39-1.94,1.44-.39,3.03-.44,4.4,.16,1.37,.6,2.46,1.95,2.46,3.45,.99-1.22,2.88-1.5,4.28-.8,1.4,.71,2.29,2.24,2.42,3.81,.13,1.56-.42,3.14-1.3,4.43-1.04,1.52-2.55,2.71-4.26,3.38,2.17-1.1,3.57-3.57,3.38-6-.04-.58-.18-1.18-.58-1.6-.73-.79-2-.68-3.05-.45-1.49,.34-3.12,.97-3.69,2.39,.95-1.56,.21-3.84-1.4-4.69-1.61-.86-3.79-.3-4.93,1.13-1.14,1.43-1.25,3.54-.43,5.17-1.28-2.52-2.95-5.88-.69-8.44Z"/></g><polygon class="h" points="212.46 187.12 214.04 191.44 221.44 128.12 187.14 132.94 187.39 136.35 216.7 132.82 212.46 187.12"/><path class="h" d="M214.73,186.7c-.95,1.73,6.64-9.14,12.04-5.01,6.55,5,3.55,12.8,3.55,12.8,0,0-1.87,1.99-8.71,2.51-8.9,.67-8.19-1.8-9.21-3.96-2.02-4.29,1.33-12.07,1.33-12.07l.99,5.73Z"/></g><polygon class="h" points="231.45 58.44 210.17 118.84 182.51 115 183.05 110.89 207.54 114.32 226.71 57.47 231.45 58.44"/><path class="c" d="M273.47,85.84c-3.35-4.34-7.04-8.45-11.08-12.25-2.02-1.91-4.15-3.71-6.39-5.39-1.13-.84-2.29-1.65-3.47-2.42-1.24-.79-2.34-1.49-3.87-2.23l-6.75-3.32,2.68,7.27c1.55,4.17,2.68,8.49,3.58,12.84,0,.03,.01,.06,.02,.09-1.75-2.1-3.54-4.17-5.41-6.17-4.96-5.29-10.26-10.3-16.07-14.72-5.81-4.42-12.01-8.34-18.59-11.6-3.29-1.63-6.66-3.09-10.16-4.28-1.75-.6-3.51-1.16-5.32-1.64-1.85-.48-3.53-.89-5.67-1.21l-5.25-.76,1.3,5.1,3.49,13.65,1.78,6.69c-1.98-1.3-3.95-2.64-5.86-4.06-3.88-2.85-7.57-5.95-11.19-9.17-7.2-6.49-13.83-13.68-20.06-21.25,5,8.45,10.88,16.44,17.58,23.75,3.32,3.69,6.92,7.13,10.69,10.4,3.78,3.27,7.76,6.33,11.98,9.06l5.74,3.7-1.42-6.83-2.84-13.8-1.74-8.08c1.41,.45,2.83,.93,4.23,1.47,3.14,1.22,6.24,2.61,9.27,4.14,6.05,3.09,11.8,6.81,17.2,11.01,5.4,4.19,10.52,8.77,15.25,13.76,4.73,4.99,9.11,10.32,13.25,15.86l7.14,9.56-.49-11.72c-.12-2.65-.4-4.93-.77-7.35-.38-2.38-.84-4.74-1.4-7.08-.44-1.9-.98-3.77-1.57-5.62,1.96,1.33,3.88,2.74,5.75,4.23,4.09,3.28,7.9,6.95,11.51,10.85,7.26,7.77,13.48,16.56,19.17,25.74-4.15-9.98-9.58-19.5-16.23-28.22Z"/><path class="h" d="M224.6,53.63s-11.13-8.26-17,.33c-5.87,8.58,1.6,14.75,1.6,14.75,0,0,3.44,1.36,12.29-1.86,11.52-4.19,10.32-7.96,9.44-10.49"/><path class="c" d="M80.27,85.77c.25,.01,1-.08,1.2,.07,.15,.1,.26,.6,.33,.76,.3,.68,.59,1.36,.89,2.04,.67,1.54,1.34,3.08,2.01,4.62,.24,.55,.44,1.32,.88,1.75,.73,.72,1.46,1.44,2.2,2.16,2.27,2.23,4.53,4.45,6.8,6.68,1.21,1.19,1.56,2.86,2.17,4.44,.92,2.36,1.83,4.72,2.75,7.08-.71-2.49-1.42-4.98-2.13-7.47-.45-1.59-.64-3.34-1.72-4.62-2.01-2.38-4.03-4.77-6.04-7.15-.69-.82-1.39-1.64-2.08-2.47-.37-.44-.47-1.25-.65-1.78-.9-2.72-1.79-5.44-2.69-8.16-.07-.21-.2-.97-.37-1-.42-.06-.84-.13-1.27-.19-1.34-.2-2.68-.4-4.01-.6-1.5-.22-3-.45-4.5-.67-.72-.11-.58-.15-.58-.87-.01-3.06-.03-6.12-.04-9.18-.01-2.67-.03-5.34-.04-8.01-5.25,.11-10.5,.23-15.75,.34-.41,0-.82,.02-1.23,.03-.67,.01-.67-.99-.87-1.53-.56-1.54-1.12-3.08-1.69-4.61-.26-.71-.31-.7-.06-1.3,1.21-2.84,2.43-5.68,3.64-8.52,.09-.21,.6-1.79,.84-1.75,1.14,.22,2.29,.44,3.43,.65,2.52,.48,5.04,.96,7.56,1.44,.29,.06,.45,.18,.62-.06,.23-.33,.46-.66,.69-.99,1.03-1.49,2.05-2.99,3.06-4.49,1.95-2.89,3.91-5.78,5.85-8.69,.23-.35,.46-.7,.7-1.05,.31-.47,.53-.4,1.07-.49,.83-.14,1.67-.27,2.51-.4,1.81-.29,3.62-.58,5.43-.89,3.49-.6,6.98-1.2,10.46-1.84,.14-.03,.28-.05,.42-.08-6.88,.42-13.76,.96-20.63,1.49-.22,.02-.53,.56-.65,.71-.52,.66-1.03,1.32-1.54,1.98-1.11,1.43-2.21,2.87-3.31,4.31-1.04,1.35-2.09,2.71-3.13,4.06-.3,.39-2.05,3.14-2.42,3.05-2.76-.66-5.53-1.31-8.29-1.97-.87-.21-1.73-.41-2.6-.62-.18-.04-1.38-.41-1.43-.3l-.64,1.38c-2.05,4.46-4.1,8.91-6.15,13.37-.08,.18,.16,.6,.23,.79,.23,.69,.47,1.38,.71,2.06,.6,1.74,1.21,3.47,1.82,5.2,.56,1.6,1.13,3.2,1.69,4.8,.28,.8,.56,1.6,.85,2.4,.25,.7,.49,1.04,.2,1.7-.27,.61-1.32,0-1.89-.15-1.54-.42-3.08-.84-4.62-1.26-2.39-.65-4.79-1.31-7.18-1.96-.33-.09-1.07-.48-1.29-.18-.22,.3-.44,.59-.66,.89-.54,.72-1.07,1.45-1.61,2.17-2,2.69-3.99,5.38-5.99,8.07-.81,1.09-1.62,2.18-2.43,3.27-.2,.26-.55,1.03-.91,1.07-2.48,.33-4.95,.65-7.43,.98-.9,.12-.77,.13-.68,1.02,.02,.16,.03,.32,.05,.48,.11,1.03,.22,2.07,.33,3.1,.59,5.55,1.17,11.1,1.76,16.64,.05,.48-.43,1.28-.59,1.72-.55,1.56-1.1,3.12-1.65,4.67-.84,2.38-1.69,4.77-2.53,7.16,1.85-4.43,3.7-8.87,5.55-13.3,.14-.34-.01-.96-.03-1.32-.06-1.28-.13-2.56-.19-3.84-.17-3.41-.34-6.83-.51-10.24-.06-1.17-.12-2.33-.17-3.5-.04-.73-.17-.73,.59-.79,1.61-.12,3.22-.24,4.83-.36,.84-.06,1.85,.08,2.4-.58,3.47-4.17,6.94-8.35,10.41-12.52,.21-.25,.61-1.03,.97-.91,1.23,.41,2.46,.82,3.7,1.23,2.63,.88,5.26,1.75,7.88,2.63-1.03,2.3-2.03,4.62-3.05,6.93-.25,.58-1.3,.96-1.81,1.28-1.45,.91-2.9,1.83-4.34,2.74-.77,.48-1.54,.97-2.3,1.45-.43,.27-1.17,.46-1.05,1.01,.24,1.17,.48,2.35,.73,3.52,.82,3.85,1.67,7.69,2.51,11.53,.19,.89,.95,2.57,.42,3.38-1.97,2.99-3.93,5.98-5.84,9-.38,.59-.82,1-.7,1.7,.08,.52,.17,1.04,.25,1.55,.22,1.33,.43,2.65,.65,3.98,.2,1.25,.44,2.49,.66,3.73,.09,.49,.17,.97,.26,1.46,.02,.12-.74,.67-.83,.75-1.79,1.61-3.59,3.21-5.37,4.84l-3.89,3.56c3.87-2.8,7.71-5.61,11.55-8.45,.39-.29-.04-2.89-.06-3.3-.04-1.03-.07-2.06-.13-3.09-.08-1.49-.16-2.98-.24-4.47-.04-.84,1.29-2,1.78-2.66,1.11-1.48,2.22-2.96,3.33-4.44,.85-1.13,1.69-2.26,2.52-3.4,.3-.42,.15-.72,.05-1.22-.24-1.27-.48-2.54-.72-3.82-.73-3.87-1.45-7.75-2.2-11.61-.16-.85-.26-.77,.36-1.15,.6-.37,1.2-.74,1.8-1.11,1.42-.88,2.83-1.75,4.25-2.63,.76-.47,1.54-.79,1.91-1.62,.49-1.09,.98-2.19,1.47-3.28,.95-2.12,1.9-4.25,2.84-6.38,.51-1.16,1.02-2.32,1.53-3.49,.31-.71,.35-.81,.08-1.53-.55-1.52-1.1-3.03-1.65-4.55,4.02-.22,8.05-.43,12.07-.65,.18,4.9,.36,9.8,.55,14.71,.02,.57,.24,1.16,.38,1.71,.39,1.53,.78,3.07,1.16,4.6,.39,1.56,.79,3.11,1.18,4.67,.16,.63,.54,1.25,.14,1.79-.84,1.14-1.69,2.29-2.53,3.43-.24,.32-1.67,.16-2.03,.17-3.18,.14-6.37,.28-9.55,.42-.8,.04-1.6,.07-2.4,.11-.08,0-.13,2.06-.14,2.31-.13,2.99-.26,5.98-.4,8.98-.02,.44-.2,.67-.42,1.07-.64,1.13-1.27,2.25-1.91,3.38-1.05,1.86-2.1,3.72-3.16,5.58,1.57-2.1,3.13-4.21,4.7-6.31,.67-.9,1.34-1.8,2.01-2.71,.35-.47,.33-1.38,.43-1.93,.11-.63,1.16-7.6,1.32-7.59,2.69,.22,5.38,.44,8.07,.65l.41,.03c-.8,1.08-1.6,2.17-2.4,3.25-.25,.35-.51,.69-.76,1.03-.24,.32-.07,.6,.03,.96,.76,2.8,1.52,5.59,2.27,8.39,.32,1.16,.63,2.33,.95,3.49,.08,.29,.16,.58,.23,.86,.1,.37,.59,.15,.93,.11,2.52-.28,5.05-.56,7.57-.84,2.74-.3,5.49-.61,8.23-.91,.5-.06,.35,.43,.41,.88,.18,1.35,.36,2.71,.54,4.06,.41,3.14,.83,6.27,1.24,9.41,.17,1.27-.21,2.03-.63,3.26-2.42,7.08-4.83,14.16-7.25,21.24,1.81-4.78,3.62-9.57,5.43-14.35,.99-2.61,1.97-5.21,2.96-7.82,.45-1.19,.41-1.72,.28-3.02-.32-3.24-.64-6.48-.97-9.72-.13-1.31-.26-2.61-.39-3.92-.03-.27-.05-.54-.08-.81-.07-.66,.03-.71-.66-.65-5.17,.4-10.35,.8-15.52,1.2-.7,.05-.59,.06-.76-.63-.34-1.42-.67-2.85-1.01-4.27-.37-1.59-.75-3.17-1.13-4.76-.16-.67-.51-1.23-.07-1.78,3.01-3.82,6-7.62,9.02-11.45,.46-.58,.31-.89,.16-1.56-.21-.96-.42-1.92-.63-2.87-.4-1.85-.81-3.7-1.21-5.55,1.2,.07,2.39,.13,3.59,.2,.8,.04,1.59,.09,2.39,.13Z"/></svg>